<?xml version="1.0" encoding="utf-8"?>
<!-- Generator: Adobe Illustrator 24.1.0, SVG Export Plug-In . SVG Version: 6.00 Build 0)  -->
<svg version="1.2" baseProfile="tiny" id="Layer_1" xmlns="http://www.w3.org/2000/svg" xmlns:xlink="http://www.w3.org/1999/xlink"
	 x="0px" y="0px" viewBox="0 0 30 30" xml:space="preserve">
<g>
	<path fill="#FFFFFF" d="M29,2H1C0.4,2,0,1.6,0,1s0.4-1,1-1h28c0.6,0,1,0.4,1,1S29.6,2,29,2z"/>
</g>
<g>
	<path fill="#FFFFFF" d="M29,16H1c-0.6,0-1-0.4-1-1s0.4-1,1-1h28c0.6,0,1,0.4,1,1S29.6,16,29,16z"/>
</g>
<g>
	<path fill="#FFFFFF" d="M29,30H1c-0.6,0-1-0.4-1-1s0.4-1,1-1h28c0.6,0,1,0.4,1,1S29.6,30,29,30z"/>
</g>
</svg>
