<?xml version="1.0" encoding="utf-8"?>
<!-- Generator: Adobe Illustrator 24.1.0, SVG Export Plug-In . SVG Version: 6.00 Build 0)  -->
<svg version="1.2" baseProfile="tiny" id="Layer_1" xmlns="http://www.w3.org/2000/svg" xmlns:xlink="http://www.w3.org/1999/xlink"
	 x="0px" y="0px" viewBox="0 0 50 50" xml:space="preserve">
<path fill="#F5F5F5" d="M49.9,50H0V0h50L49.9,50z"/>
<g>
	<path fill="#232325" d="M33.4,10.4c0.2,0,0.4,0.1,0.5,0.2c0.2,0.2,0.2,0.7-0.1,0.9L17.6,25l16.2,13.5c0.2,0.2,0.3,0.6,0.1,0.9
		c-0.2,0.2-0.6,0.3-0.9,0.1l-16.8-14C16.1,25.3,16,25.1,16,25c0-0.2,0.1-0.4,0.2-0.5l16.8-14C33.1,10.5,33.3,10.4,33.4,10.4z"/>
</g>
</svg>
