<svg width="62" height="62" viewBox="0 0 62 62" fill="none" xmlns="http://www.w3.org/2000/svg">
<path d="M25.069 35.8276C26.4483 34.7241 27.6207 33.7586 28.5172 33C29.4138 32.2414 30.1724 31.4138 30.7931 30.5172C31.4138 29.6897 31.6897 28.8621 31.6897 28.1034C31.6897 27.6207 31.5517 27.2759 31.3448 27C31.1379 26.7241 30.8621 26.5862 30.4483 26.5862C30.0345 26.5862 29.6897 26.7931 29.4828 27.1379C29.2759 27.4828 29.1379 28.0345 29.1379 28.6552H25C25.069 27.3448 25.3448 26.3103 25.8276 25.4828C26.3793 24.6552 27 24.0345 27.8966 23.6207C28.7241 23.2069 29.6897 23 30.7241 23C32.5172 23 33.8276 23.4138 34.7241 24.3103C35.6207 25.2069 36.0345 26.3103 36.0345 27.7586C36.0345 29.2759 35.5517 30.6552 34.5172 32.0345C33.4828 33.3448 32.2414 34.5172 30.7241 35.5517H36.1724V39H25.069V35.8276Z" fill="white"/>
<path d="M31 61C47.5685 61 61 47.5685 61 31C61 14.4315 47.5685 1 31 1C14.4315 1 1 14.4315 1 31C1 47.5685 14.4315 61 31 61Z" stroke="white" stroke-width="2"/>
</svg>
