<svg width="62" height="62" viewBox="0 0 62 62" fill="none" xmlns="http://www.w3.org/2000/svg">
<path d="M31 61C47.5683 61 61 47.5683 61 31C61 14.4317 47.5683 1 31 1C14.4317 1 1 14.4317 1 31C1 47.5683 14.4317 61 31 61Z" stroke="white" stroke-width="2"/>
<path d="M25.2689 27.9748C25.3361 26.3613 25.8067 25.1513 26.7479 24.2773C27.6891 23.4034 28.9664 23 30.6471 23C31.7227 23 32.6639 23.2017 33.4034 23.605C34.2101 23.9412 34.7479 24.479 35.1513 25.1513C35.5546 25.7563 35.7563 26.4958 35.7563 27.3025C35.7563 28.2437 35.5546 29.0504 35.084 29.5882C34.6134 30.1261 34.0756 30.5294 33.4706 30.7311V30.7983C35.1513 31.4034 36.0252 32.6807 36.0252 34.4286C36.0252 35.3025 35.8235 36.1092 35.4202 36.7815C35.0168 37.4538 34.4118 37.9916 33.605 38.395C32.7983 38.7983 31.9244 39 30.8487 39C29.1008 39 27.6891 38.5966 26.6134 37.7227C25.605 36.8487 25.0672 35.5714 25 33.7563H29.0336C29.0336 34.2941 29.1008 34.7647 29.3697 35.1008C29.6387 35.437 30.042 35.5714 30.5798 35.5714C30.9832 35.5714 31.3193 35.437 31.521 35.1681C31.7899 34.8992 31.8571 34.563 31.8571 34.1597C31.8571 33.6218 31.6555 33.2185 31.3193 32.9496C30.9832 32.6807 30.4454 32.5462 29.6387 32.5462H28.8992V29.1849H29.6387C30.1765 29.1849 30.6471 29.1176 30.9832 28.916C31.3866 28.7143 31.5882 28.3109 31.5882 27.7731C31.5882 27.3025 31.4538 27.0336 31.2521 26.7647C31.0504 26.563 30.7815 26.4286 30.3782 26.4286C29.9748 26.4286 29.6387 26.563 29.437 26.8992C29.2353 27.1681 29.1681 27.5042 29.1008 27.9748H25.2689V27.9748Z" fill="white"/>
</svg>
