<?xml version="1.0" encoding="utf-8"?>
<!-- Generator: Adobe Illustrator 22.0.1, SVG Export Plug-In . SVG Version: 6.00 Build 0)  -->
<svg version="1.1" id="Layer_1" xmlns="http://www.w3.org/2000/svg" xmlns:xlink="http://www.w3.org/1999/xlink" x="0px" y="0px"
	 viewBox="0 0 1287 339" style="enable-background:new 0 0 1287 339;" xml:space="preserve">
<style type="text/css">
	.st0{enable-background:new    ;}
	.st1{fill:#15161B;}
</style>
<g>
	<g class="st0">
		<path class="st1" d="M136.7,82h-8.8l-6.6-18.2h-30L84.5,82h-8.8l25.6-67.5h9.6L136.7,82z M93.7,57.1h25.1l-12.6-33.7L93.7,57.1z"
			/>
		<path class="st1" d="M181.7,57.3v-7.8c0-7.2-2.5-11.8-14.7-11.8c-5.4,0-13.4,1.2-20.1,3.3l-1.6-6.3c7.1-2.2,16.5-3.7,23.9-3.7
			c15,0,20,6.8,20,18.5V82h-7.5v-4.6l-0.2-0.1c-6.5,3.6-12.9,5.7-20.4,5.7c-13,0-18.6-5.2-18.6-13.9c0-8.6,6.4-14.1,19.6-14.1
			c6,0,12.6,0.7,19.4,2.4L181.7,57.3z M181.7,63.1c-5.6-1-12.6-1.8-18.4-1.8c-8.3,0-13.2,2.2-13.2,7.6c0,5.5,4.3,7.8,12.4,7.8
			c5.1,0,13-1.7,19.2-4.8V63.1z"/>
		<path class="st1" d="M268,47.3c7.6,2.8,11.2,9.3,11.2,16.2c0,10.1-7,18.5-20.8,18.5h-30.6V15h28.4C270,15,277,22.6,277,32.7
			C277,38.7,274.1,44.2,268,47.3z M254.9,44.4c8.4,0,14.1-3.4,14.1-11.3c0-8-5.7-11.4-14.1-11.4h-19.2v22.7H254.9z M235.7,51.1v24.2
			h21.4c8.4,0,14.1-4.2,14.1-12.2c0-7.9-5.5-12-13.9-12H235.7z"/>
		<path class="st1" d="M298.5,34.1c5-1.7,10.4-3.1,15.7-3.1c16.3,0,25.3,11.6,25.3,26.3c0,14-9.3,25.7-26.4,25.7
			c-8.1,0-15.8-1.5-22.3-4.2V11h7.5v23L298.5,34.1z M298.3,40.6v33.7c5.3,1.9,10.4,2.4,14.7,2.4c10.3,0,18.8-6.5,18.8-19.4
			c0-12.7-8.5-19.6-18.6-19.6C308.6,37.7,303.7,38.5,298.3,40.6z"/>
		<path class="st1" d="M431.1,72.6l1.5,6.7c-6.3,2.4-13.2,3.7-22.8,3.7c-23.2,0-35.7-15.5-35.7-34.5c0-18.7,12.5-34.5,35.7-34.5
			c9.4,0,16.4,1.7,22.6,4l-1.4,6.4c-7.5-2.7-13.7-3.7-21.2-3.7c-17.2,0-27.7,11.9-27.7,27.8c0,16.1,10.5,27.8,27.7,27.8
			C417.4,76.3,423.5,75.4,431.1,72.6z"/>
		<path class="st1" d="M467.7,31c19,0,23.4,10.4,20.5,20.8h-7.3c1.6-7.1-0.5-14.5-13.1-14.5c-9.6,0-19.4,5.7-19.4,19.7
			c0,10.7,7.3,19.7,20.4,19.7c6.1,0,11.3-1.2,18.4-3.9l1.3,6.1c-4.9,2.3-12.2,4.1-20.6,4.1c-18.5,0-27.3-12-27.3-26
			C440.6,39.3,453.4,31,467.7,31z"/>
		<path class="st1" d="M525.7,82V15h21.7c23.2,0,35.7,14.8,35.7,33.5c0,19-12.5,33.5-35.7,33.5H525.7z M547.4,75.3
			c17.1,0,27.6-10.8,27.6-26.8c0-15.8-10.5-26.7-27.6-26.7h-13.8v53.5H547.4z"/>
		<path class="st1" d="M633.9,34V11h7.5v67.8c-6.5,2.7-14.2,4.2-22.3,4.2c-17.1,0-26.4-11.7-26.4-25.7c0-14.7,9-26.3,25.3-26.3
			c5.3,0,10.7,1.4,15.7,3.1L633.9,34z M600.4,57.3c0,12.9,8.5,19.4,18.8,19.4c4.3,0,9.4-0.5,14.7-2.4V40.6
			c-5.4-2.1-10.3-2.9-14.9-2.9C608.9,37.7,600.4,44.6,600.4,57.3z"/>
		<path class="st1" d="M687.9,44.1h32.5v6.7h-32.5v24.5h37.5V82H680V15h44.9v6.7h-37V44.1z"/>
		<path class="st1" d="M782.2,72.8l1.3,6.1c-4.9,2.3-12.8,4.1-21.2,4.1C743.8,83,735,71,735,57c0-17.7,12.8-26,27.1-26
			c18.8,0,25.7,9.8,19.8,27.1H743c0.1,10.3,7.8,18.6,20.2,18.6C769.3,76.7,775.1,75.5,782.2,72.8z M775.2,52
			c2.7-8.7-0.8-14.7-13-14.7c-8.3,0-17.3,4.3-18.8,14.7H775.2z"/>
		<path class="st1" d="M828.5,45.1H861v6.7h-32.5V82h-7.9V15h44.9v6.7h-37V45.1z"/>
		<path class="st1" d="M869.5,32.7l7.2-0.7v-4.5c0-12.2,4.2-17.5,16.8-17.5c3,0,9,0.7,13.3,2.1l-1.3,6c-3.6-1-8.2-1.8-11-1.8
			c-7.3,0-10.3,3-10.3,11.5V32h20.1l-0.7,5.7h-19.4V82h-7.5V37.7h-7.2V32.7z"/>
		<path class="st1" d="M936.6,48.5c0-18.7,12.5-34.5,35.7-34.5c9.4,0,17,1.7,23.2,4l-1.5,6.4c-7.5-2.7-14.2-3.7-21.7-3.7
			c-17.2,0-27.7,11.9-27.7,27.8c0,16.1,10.5,27.8,27.7,27.8c5.1,0,10.6-0.5,15.8-2V51.2h7.9v27.7c-6.9,2.7-14,4.1-23.7,4.1
			C949.1,83,936.6,67.5,936.6,48.5z"/>
		<path class="st1" d="M1007.3,49.5c0-12.5,9.7-18.5,23.3-18.5c5.8,0,10.7,1,14.5,3.3c4.7-3.4,4.4-8.5,3.7-13.8h6.6
			c1.8,6.4,0,13.3-6.5,17c2.6,2.8,4.4,7.2,4.4,12c0,12.7-9.4,18.4-23,18.4c-2,0-6-0.4-8.6-1.2c-3.6,2.5-4.3,7.6-1.1,10.1h21
			c15.5,0,17.4,8.3,16.7,13.6c-0.9,8.5-9.3,16.9-30.1,16.9c-12.4,0-24.4-4.1-24.4-14.4c0-3.4,0.7-9.2,11.1-13.3
			c-4.7-3.5-3.8-11,2.5-14.1C1011.7,63,1007.3,57.4,1007.3,49.5z M1029.1,101.2c12.1,0,19.8-3.7,20.7-9.5c0.7-5-0.7-8.4-10.2-8.4
			H1018c-3.8,1.9-6.5,4.7-6.5,8.8C1011.5,98.2,1018.3,101.2,1029.1,101.2z M1045.5,49.5c0-9.3-6.2-12.2-14.9-12.2
			c-8.4,0-15.5,2.9-15.5,12.2c0,9.6,6.8,12.1,15.2,12.1C1039,61.6,1045.5,59.1,1045.5,49.5z"/>
		<path class="st1" d="M1099.2,50.8V82h-7.9V15h7.9v29.1h36.6V15h7.9v67h-7.9V50.8H1099.2z"/>
		<path class="st1" d="M1165,38.8c7.3-4.5,13.9-7.8,22.3-7.8c12.7,0,17.7,7,17.7,18.3V82h-7.5V49.9c0-8.7-4.2-12.2-12.7-12.2
			c-5.9,0-12.5,3.1-20,7.6V82h-7.5V11h7.5v27.7L1165,38.8z"/>
	</g>
	<g class="st0">
		<path class="st1" d="M61.7,195h-7.9v-67h7.9V195z"/>
		<path class="st1" d="M82.8,124v10h-7.5v-10H82.8z M82.8,145v50h-7.5v-50H82.8z"/>
		<path class="st1" d="M139.2,128h7.9v50.1c0,13-4.2,17.9-17.1,17.9c-3.5,0-8.7-0.8-13-2.1l1.5-6.4c3.5,1,8.7,1.8,10.9,1.8
			c7.7,0,9.8-2.7,9.8-11.5V128z"/>
		<path class="st1" d="M168.2,195.7c0,13.4-4.8,20.3-18.3,20.3c-3.8,0-8.9-0.7-13.2-2.1l1.5-6c3.6,1.1,8.3,1.8,11.1,1.8
			c9.5,0,11.4-5,11.4-14.3V145h7.5V195.7z M168.2,124v10h-7.5v-10H168.2z"/>
		<path class="st1" d="M214.7,157.1h17.1l20.7-29.1h9.1l-23.3,32.5l24.3,34.5h-9.5l-21.8-31.2h-16.6V195h-7.9v-67h7.9V157.1z"/>
		<path class="st1" d="M292.5,165.5l16.2-20.5h8.9L299,168.3l20.5,26.7h-9.2l-17.5-23.3h-13.5V195h-7.5v-71h7.5v41.5H292.5z"/>
		<path class="st1" d="M360.7,188.3h37.5v6.7h-45.4v-67h7.9V188.3z"/>
		<path class="st1" d="M416.1,124v71h-7.5v-71H416.1z"/>
		<path class="st1" d="M490.6,195h-6.3l-21.7-52.6V195h-7.9v-67h10.5l22.3,53.9l22.1-53.9h10.5v67h-7.9v-52.6L490.6,195z"/>
		<path class="st1" d="M541.4,151.9c7.3-4.5,13.6-7.9,22-7.9c8.6,0,13.5,3.3,15.7,8.8c7.5-5.1,15.5-8.8,23.7-8.8
			c12.7,0,17.7,7,17.7,18.3V195h-7.6v-32.1c0-8.6-4.1-12.1-12.5-12.1c-5.9,0-12.6,3.1-20,7.6c0.3,2,0.4,4,0.4,6.1V195h-7.6v-32.1
			c0-8.6-3.8-12.1-12.2-12.1c-5.9,0-12.3,3-19.8,7.6V195h-7.5v-50h7.5v6.8C541.3,151.8,541.3,151.9,541.4,151.9z"/>
		<path class="st1" d="M667,140.4V195h-7.9v-67h9.7l36.8,54.9V128h7.9v67h-9.7L667,140.4z"/>
		<path class="st1" d="M734.8,151.8c7.3-4.5,13.9-7.8,22.3-7.8c12.7,0,17.7,7,17.7,18.3V195h-7.5v-32.1c0-8.7-4.2-12.2-12.7-12.2
			c-5.9,0-12.5,3.1-20,7.6V195h-7.5v-50h7.5v6.7L734.8,151.8z"/>
		<path class="st1" d="M821.3,140.4V195h-7.9v-67h9.7l36.8,54.9V128h7.9v67h-9.7L821.3,140.4z M821.8,115.2
			c3.4-5.3,6.7-8.2,11.6-8.2c7.8-0.1,13.1,6.1,17.6,6c1.8-0.1,3.6-1,6.3-3.9l4.1,3.5c-3.2,4.5-7,6.7-11.3,6.7
			c-5.5,0-12.2-6.4-17-6.3c-2.5,0-4.7,2.6-7.2,5.7L821.8,115.2z"/>
		<path class="st1" d="M889.1,151.8c7.3-4.5,13.9-7.8,22.3-7.8c12.7,0,17.7,7,17.7,18.3V195h-7.5v-32.1c0-8.7-4.2-12.2-12.7-12.2
			c-5.9,0-12.5,3.1-20,7.6V195h-7.5v-50h7.5v6.7L889.1,151.8z M885.7,130.6c3.4-5.3,6.7-8.2,11.6-8.2c7.8-0.1,13.1,6.1,17.6,6
			c1.8-0.1,3.6-1,6.3-3.9l4.1,3.5c-3.2,4.5-7,6.7-11.3,6.7c-5.5,0-12.2-6.4-17-6.3c-2.5,0-4.7,2.6-7.2,5.7L885.7,130.6z"/>
		<path class="st1" d="M1000.4,127c23.2,0,34.7,15.8,34.7,34.5c0,19-11.5,34.5-34.7,34.5c-23.2,0-34.7-15.5-34.7-34.5
			C965.7,142.8,977.2,127,1000.4,127z M1000.4,189.3c17.1,0,26.7-11.7,26.7-27.8c0-15.9-9.6-27.8-26.7-27.8
			c-17.2,0-26.7,11.9-26.7,27.8C973.7,177.6,983.2,189.3,1000.4,189.3z"/>
		<path class="st1" d="M1070.9,144c17.5,0,26.2,12,26.2,26c0,14-8.7,26-26.2,26s-26.2-12-26.2-26C1044.7,156,1053.4,144,1070.9,144z
			 M1070.9,189.7c12.2,0,18.4-9,18.4-19.7c0-10.4-6.2-19.7-18.4-19.7s-18.4,9.3-18.4,19.7C1052.5,180.7,1058.7,189.7,1070.9,189.7z"
			/>
		<path class="st1" d="M1141.6,166.5V195h-7.9v-67h30.6c13.8,0,20.8,8.7,20.8,19.3c0,10.7-7.1,19.2-20.9,19.2H1141.6z M1163,159.8
			c8.4,0,14.1-4.2,14.1-12.5c0-8.3-5.7-12.6-14.1-12.6h-21.4v25.1H1163z"/>
		<path class="st1" d="M1199.2,193v23h-7.5v-67.8c6.5-2.7,14.2-4.2,22.3-4.2c17.1,0,26.4,11.7,26.4,25.7c0,14.7-9,26.3-25.3,26.3
			c-5.3,0-10.7-1.4-15.7-3.1L1199.2,193z M1232.7,169.7c0-12.9-8.5-19.4-18.8-19.4c-4.3,0-9.4,0.5-14.7,2.4v33.7
			c5.4,2.1,10.3,2.9,14.9,2.9C1224.2,189.3,1232.7,182.4,1232.7,169.7z"/>
	</g>
	<g class="st0">
		<path class="st1" d="M39.5,240c23.2,0,34.7,15.8,34.7,34.5c0,16.1-7.9,29.6-24.5,33.3l18.1,17.7l-5.7,5.5l-22-22.1
			c-22.1,0-35.3-14.3-35.3-34.4C4.8,255.8,16.3,240,39.5,240z M39.5,302.3c17.1,0,26.6-11.7,26.6-27.8c0-15.9-9.5-27.8-26.6-27.8
			c-17.2,0-26.7,11.9-26.7,27.8C12.8,290.6,22.3,302.3,39.5,302.3z"/>
		<path class="st1" d="M124.8,305.9c-5,1.7-10.4,3.1-15.7,3.1c-16.3,0-25.3-11.6-25.3-26.3c0-14,9.3-25.7,26.4-25.7
			c8.1,0,15.8,1.5,22.3,4.2V329H125v-23L124.8,305.9z M125,299.4v-33.7c-5.3-1.9-10.4-2.4-14.7-2.4c-10.3,0-18.8,6.5-18.8,19.4
			c0,12.7,8.5,19.6,18.6,19.6C114.7,302.3,119.6,301.5,125,299.4z"/>
		<path class="st1" d="M224.2,308h-9.4l-19.5-28.3H179V308h-7.9v-67h30.8c13.8,0,20.6,8.9,20.6,19.4c0,9.8-6.4,18.1-18.4,19.1
			L224.2,308z M200.6,273c8.4,0,13.9-4.7,13.9-12.6c0-8-5.5-12.7-13.9-12.7H179V273H200.6z"/>
		<path class="st1" d="M242.8,264.9c6.8-4.5,13.3-7.9,21.7-7.9v7.2c-5.8,0-14.4,2.6-21.9,7.2V308h-7.5v-50h7.5v6.8
			C242.7,264.8,242.7,264.9,242.8,264.9z"/>
		<path class="st1" d="M297,257.4c0-13.1,12.3-17.4,22.2-17.4c9.7,0,16,1.7,22.2,4.2l-1.6,6.9c-7.7-2.9-13.5-4.4-21-4.4
			c-5.1,0-13.3,1.8-13.3,9.9c0,7.3,5.6,9.5,14.8,12.2c18.4,5.5,22.7,12.1,22.7,21.2c0,14.7-13.2,19-23.9,19c-9.7,0-16.8-2.1-23-4.5
			l1.2-6.8c7.9,3,14.2,4.6,21.8,4.6c9.5,0,15.5-3.7,15.5-11.5c0-8.1-6.8-11.5-17.2-14.4C305.9,273.2,297,269.1,297,257.4z"/>
		<path class="st1" d="M352.6,306.4l0.7-6.4c5.8,1.8,12.5,2.7,17.7,2.7c8.1,0,15.1-1.4,15.3-7.6c0.1-5.4-6.7-7.9-15.1-9.6
			c-13.9-2.8-18.4-8-18.4-14.4c0-10.5,9.2-14.1,20.6-14.1c5.3,0,13.1,0.7,18.7,2.5l-1,6.3c-5.2-1.6-11.9-2.5-16.9-2.5
			c-7.9,0-13.2,1.8-13.2,6.9c0,3.7,2.2,6.3,14.9,9c15.8,3.3,18.6,9.8,18.6,15c0,11.1-9.4,14.8-22.7,14.8
			C366.5,309,358.4,308.2,352.6,306.4z"/>
		<path class="st1" d="M457.2,308h-7.9v-60.3h-22.2V241h52.2v6.7h-22.1V308z"/>
		<path class="st1" d="M490.7,263.8h-7.4v-5.1l7.4-0.7v-17h7.5v17h20.1l-0.7,5.8h-19.4v27.7c0,7.5,2.4,11.2,10.3,11.2
			c2.7,0,7.3-0.7,10.9-1.8l1.2,6.1c-4.2,1.3-10.1,2-13.2,2c-12.5,0-16.7-5.3-16.7-17.5V263.8z"/>
		<path class="st1" d="M607.3,284.8c0,14.2-8.5,24.2-26.8,24.2c-18.4,0-26.8-10-26.8-24.2V241h7.9v43.8c0,11.3,7.1,17.5,18.9,17.5
			s18.9-6.2,18.9-17.5V241h7.9V284.8z"/>
		<path class="st1" d="M660.3,301.2c-7.3,4.5-14,7.8-22.4,7.8c-12.7,0-17.6-7-17.6-18.3V258h7.5v32.1c0,8.7,4.1,12.2,12.6,12.2
			c5.9,0,12.6-3.1,20.1-7.6V258h7.5v50h-7.5v-6.7L660.3,301.2z"/>
		<path class="st1" d="M711,308h-9.6l24.7-34.4L702.4,241h9.4l19.5,27l19.5-27h9.4l-23.7,32.6l24.7,34.4h-9.6l-20.4-28.4L711,308z"
			/>
		<path class="st1" d="M789.8,288l-14.9,20h-9.4l19.9-26.4L767.6,258h9.2l13.1,17.7l13.2-17.7h9.2l-18,23.6l19.8,26.4h-9.4
			L789.8,288z"/>
		<path class="st1" d="M913.4,308.3h-9.6l-15.1-54l-15.4,54h-9.6L842.8,241h8.8l17,58.6l15.9-59.1h8.6l15.4,59.1l17-58.6h8.8
			L913.4,308.3z"/>
		<path class="st1" d="M952.5,308.4L933.7,258h8.5l15.2,43.1l15-43.1h8.5l15.3,43.1l14.9-43.1h8.5l-18.5,50.4h-9.8l-14.8-39.1
			l-14.2,39.1H952.5z"/>
		<path class="st1" d="M1093.1,241h8.9l-23.7,43.6V308h-7.9v-23.4L1047,241h8.9l18.7,35.5L1093.1,241z"/>
		<path class="st1" d="M1100.2,258h8.5l18.3,43.1l16.5-43.1h8.5l-19.8,48.5c-6.2,15.2-8.9,22.5-22.2,22.5c-4.1,0-8.9-0.8-13.3-2.1
			l1.5-6c3.8,1,8.4,1.9,11.1,1.9c7,0,9.6-4.4,13.4-13.8L1100.2,258z"/>
		<path class="st1" d="M1192.4,301.3l38.3-0.4v7.1h-47.9v-6.2l38.3-54.1l-36.3,0.4V241h45.9v6.2L1192.4,301.3z"/>
		<path class="st1" d="M1282.3,263.9l-34.1,38.5l35.1-0.5v6.1h-44.6v-5.9l34.1-38.5l-32.3,0.5V258h41.8V263.9z"/>
	</g>
</g>
</svg>
