<?xml version="1.0" encoding="utf-8"?>
<!-- Generator: Adobe Illustrator 22.0.1, SVG Export Plug-In . SVG Version: 6.00 Build 0)  -->
<svg version="1.1" id="Layer_1" xmlns="http://www.w3.org/2000/svg" xmlns:xlink="http://www.w3.org/1999/xlink" x="0px" y="0px"
	 viewBox="0 0 1286 339" style="enable-background:new 0 0 1286 339;" xml:space="preserve">
<style type="text/css">
	.st0{enable-background:new    ;}
	.st1{fill:#15161B;}
</style>
<g>
	<g class="st0">
		<path class="st1" d="M135.4,82H129l-7.1-19.1H90L82.8,82h-6.4l25.7-67.5h7.3L135.4,82z M91.8,57.9H120l-14.2-37.2L91.8,57.9z"/>
		<path class="st1" d="M182.9,58.4v-9.1c0-8.2-2.7-13.3-16-13.3c-5.2,0-13.2,1.2-19.9,3.4l-1.3-4.8c6.4-2,15.9-3.6,23.2-3.6
			c14.7,0,19.4,6.8,19.4,18.3V82h-5.4v-4.8l-0.2-0.1c-7.3,3.7-13.1,5.9-21.5,5.9c-12.7,0-18.4-5-18.4-13.5c0-8.5,6.6-13.5,19.5-13.5
			c6.8,0,13,0.7,20.4,2.5L182.9,58.4z M182.9,62.8c-6.3-1.1-13.7-2-19.6-2c-9.7,0-15,2.6-15,8.6c0,6.1,4.6,8.8,14.1,8.8
			c5.6,0,13.8-1.8,20.5-5.3V62.8z"/>
		<path class="st1" d="M266.6,47.2c7.8,2.7,11.7,9.3,11.7,16.5c0,10-7,18.3-20.4,18.3H228V15h27.6c13.4,0,20.4,7.4,20.4,17.4
			C276.1,38.8,272.8,44.3,266.6,47.2z M255,45.2c9.5,0,15.2-4.5,15.2-12.6c0-8.2-5.7-12.6-15.2-12.6h-21.2v25.2H255z M233.7,50.2V77
			h23.4c9.5,0,15.2-5.3,15.2-13.5c0-8.1-5.5-13.3-14.9-13.3H233.7z"/>
		<path class="st1" d="M296.6,34.1c5.5-1.8,11.1-3.1,16.4-3.1c16.5,0,25.5,11.6,25.5,26.3c0,14-8.9,25.7-25.8,25.7
			c-7.8,0-15.2-1.5-21.7-4.2V11h5.4v23L296.6,34.1z M296.4,38.9v36.7c5.8,2.1,11.4,2.6,16.2,2.6c12.2,0,20.3-8,20.3-20.9
			c0-12.7-8.1-21.3-20.2-21.3C307.9,36,302.5,36.6,296.4,38.9z"/>
		<path class="st1" d="M430.7,74.2l1.2,5.1c-6.3,2.4-12.8,3.7-22.4,3.7c-22.6,0-35.1-15.5-35.1-34.5c0-18.7,12.5-34.5,35.1-34.5
			c9.4,0,16,1.7,22.2,4l-1.1,4.8c-7.5-2.7-13.6-3.7-21.1-3.7c-18.6,0-29.2,13.1-29.2,29.4c0,16.5,10.6,29.4,29.2,29.4
			C417,77.9,423.1,77,430.7,74.2z"/>
		<path class="st1" d="M467.7,31c18.5,0,22.2,10.8,19.6,20.4h-5.2c1.8-7.8-0.6-15.6-14.3-15.6c-10.3,0-21.4,5.8-21.4,21.2
			c0,11.6,7.8,21.2,21.9,21.2c5.8,0,11.1-1.1,18.2-3.8l0.9,4.7c-4.9,2.3-11.7,3.9-19.6,3.9c-18.3,0-27-12-27-26
			C440.8,39.3,453.8,31,467.7,31z"/>
		<path class="st1" d="M525.9,82V15H547c22.6,0,35.1,14.8,35.1,33.5c0,19-12.5,33.5-35.1,33.5H525.9z M531.6,77H547
			c18.5-0.1,29.2-12,29.2-28.5c0-16.3-10.7-28.4-29.2-28.5h-15.4V77z"/>
		<path class="st1" d="M635,34V11h5.4v67.8c-6.5,2.7-13.9,4.2-21.7,4.2c-16.9,0-25.8-11.7-25.8-25.7c0-14.7,9-26.3,25.5-26.3
			c5.3,0,10.9,1.3,16.4,3.1L635,34z M598.5,57.3c0,12.9,8.1,20.9,20.3,20.9c4.8,0,10.4-0.5,16.2-2.6V38.9
			c-6.1-2.3-11.5-2.9-16.3-2.9C606.6,36,598.5,44.6,598.5,57.3z"/>
		<path class="st1" d="M685.9,44.9h33.5v5h-33.5V77h38.5v5h-44.2V15h43.7v5h-38V44.9z"/>
		<path class="st1" d="M781.6,74.4l0.9,4.7c-4.9,2.3-12.4,3.9-20.3,3.9c-18.3,0-27-12-27-26c0-17.7,13-26,26.9-26
			c18.4,0,24.5,10,18.7,26.2h-39.9c0.1,11.7,8.1,21,21.8,21C768.5,78.2,774.4,77.1,781.6,74.4z M776.2,52.6
			c3.2-10.1-0.5-16.8-14-16.8c-9.2,0-19.4,4.7-21,16.8H776.2z"/>
		<path class="st1" d="M826.5,45.9H860v5h-33.5V82h-5.7V15h43.7v5h-38V45.9z"/>
		<path class="st1" d="M869.5,32.6l7.6-0.6v-5c0-12.6,5.1-17,16.2-17c2.4,0,8,0.5,12.6,1.9l-1,4.6c-3.8-1.1-8.9-1.7-11.4-1.7
			c-8.1,0-11,3.4-11,12.6V32h20.9l-0.6,4.3h-20.3V82h-5.4V36.3h-7.6V32.6z"/>
		<path class="st1" d="M936.8,48.5c0-18.7,12.5-34.5,35.1-34.5c9.4,0,16.4,1.7,22.6,4l-1.1,4.8c-7.5-2.7-14-3.7-21.5-3.7
			c-18.6,0-29.2,13.1-29.2,29.4c0,16.5,10.6,29.4,29.2,29.4c5.8,0,11.3-0.7,17.4-2.5V51.6h5.7v27.3c-6.9,2.7-13.4,4.1-23.1,4.1
			C949.3,83,936.8,67.5,936.8,48.5z"/>
		<path class="st1" d="M1007.5,49.4c0-12.5,9.3-18.4,22.9-18.4c5.8,0,11,1,14.9,3.5c5-3.8,4.7-8.4,4-14h4.9
			c1.4,5.9,0.4,12.7-6.1,16.4c2.9,3,4.6,7.7,4.6,12.5c0,12.7-9,18.3-22.6,18.3c-2.2,0-6.2-0.4-9-1.2c-4,2.4-5.3,8.2-1.4,11h21.5
			c15.2,0,16.9,7.9,16.2,13.2c-0.9,8.2-9.5,16.2-29.4,16.2c-12.1,0-23.6-4-23.6-14.2c0-3.4,0.9-8.9,10.7-13.2
			c-4.6-3.6-3.7-10.8,2.4-14C1011.5,62.9,1007.5,57.5,1007.5,49.4z M1028.9,102.2c12.5,0,21.3-4,22.3-10.6c0.9-5.7-1-9.2-11-9.2
			h-22.7c-4,2-7.4,4.9-7.4,9.6C1010.1,98.5,1016.4,102.2,1028.9,102.2z M1047.1,49.4c0-10.4-7-13.6-16.7-13.6
			c-9.4,0-17.3,3.2-17.3,13.6c0,10.7,7.6,13.5,17,13.5C1039.8,62.9,1047.1,60.1,1047.1,49.4z"/>
		<path class="st1" d="M1097.2,49.9V82h-5.7V15h5.7v29.9h39.8V15h5.7v67h-5.7V49.9H1097.2z"/>
		<path class="st1" d="M1163.1,38.9c8-4.7,14.8-7.9,23.2-7.9c12.7,0,17.7,7,17.7,17.7V82h-5.4V49.2c0-9.2-4.4-13.2-14.1-13.2
			c-5.9,0-12.9,2.7-21.6,7.8V82h-5.4V11h5.4v27.8L1163.1,38.9z"/>
	</g>
	<g class="st0">
		<path class="st1" d="M61.3,195h-7.9v-67h7.9V195z"/>
		<path class="st1" d="M82.4,124v10h-7.5v-10H82.4z M82.4,145v50h-7.5v-50H82.4z"/>
		<path class="st1" d="M138.8,128h7.9v50.1c0,13-4.2,17.9-17.1,17.9c-3.5,0-8.7-0.8-13-2.1l1.5-6.4c3.5,1,8.7,1.8,10.9,1.8
			c7.7,0,9.8-2.7,9.8-11.5V128z"/>
		<path class="st1" d="M167.8,195.7c0,13.4-4.8,20.3-18.3,20.3c-3.8,0-8.9-0.7-13.2-2.1l1.5-6c3.6,1.1,8.3,1.8,11.1,1.8
			c9.5,0,11.4-5,11.4-14.3V145h7.5V195.7z M167.8,124v10h-7.5v-10H167.8z"/>
		<path class="st1" d="M214.3,157.1h17.1l20.7-29.1h9.1l-23.3,32.5l24.3,34.5h-9.5l-21.8-31.2h-16.6V195h-7.9v-67h7.9V157.1z"/>
		<path class="st1" d="M292.1,165.5l16.2-20.5h8.9l-18.6,23.3l20.5,26.7h-9.2l-17.5-23.3h-13.5V195h-7.5v-71h7.5v41.5H292.1z"/>
		<path class="st1" d="M360.3,188.3h37.5v6.7h-45.4v-67h7.9V188.3z"/>
		<path class="st1" d="M415.7,124v71h-7.5v-71H415.7z"/>
		<path class="st1" d="M490.2,195h-6.3l-21.7-52.6V195h-7.9v-67h10.5l22.3,53.9l22.1-53.9h10.5v67h-7.9v-52.6L490.2,195z"/>
		<path class="st1" d="M541,151.9c7.3-4.5,13.6-7.9,22-7.9c8.6,0,13.5,3.3,15.7,8.8c7.5-5.1,15.5-8.8,23.7-8.8
			c12.7,0,17.7,7,17.7,18.3V195h-7.6v-32.1c0-8.6-4.1-12.1-12.5-12.1c-5.9,0-12.6,3.1-20,7.6c0.3,2,0.4,4,0.4,6.1V195h-7.6v-32.1
			c0-8.6-3.8-12.1-12.2-12.1c-5.9,0-12.3,3-19.8,7.6V195h-7.5v-50h7.5v6.8C540.9,151.8,540.9,151.9,541,151.9z"/>
		<path class="st1" d="M666.6,140.4V195h-7.9v-67h9.7l36.8,54.9V128h7.9v67h-9.7L666.6,140.4z"/>
		<path class="st1" d="M734.4,151.8c7.3-4.5,13.9-7.8,22.3-7.8c12.7,0,17.7,7,17.7,18.3V195h-7.5v-32.1c0-8.7-4.2-12.2-12.7-12.2
			c-5.9,0-12.5,3.1-20,7.6V195h-7.5v-50h7.5v6.7L734.4,151.8z"/>
		<path class="st1" d="M820.9,140.4V195H813v-67h9.7l36.8,54.9V128h7.9v67h-9.7L820.9,140.4z M821.4,115.2c3.4-5.3,6.7-8.2,11.6-8.2
			c7.8-0.1,13.1,6.1,17.6,6c1.8-0.1,3.6-1,6.3-3.9l4.1,3.5c-3.2,4.5-7,6.7-11.3,6.7c-5.5,0-12.2-6.4-17-6.3c-2.5,0-4.7,2.6-7.2,5.7
			L821.4,115.2z"/>
		<path class="st1" d="M888.7,151.8c7.3-4.5,13.9-7.8,22.3-7.8c12.7,0,17.7,7,17.7,18.3V195h-7.5v-32.1c0-8.7-4.2-12.2-12.7-12.2
			c-5.9,0-12.5,3.1-20,7.6V195H881v-50h7.5v6.7L888.7,151.8z M885.3,130.6c3.4-5.3,6.7-8.2,11.6-8.2c7.8-0.1,13.1,6.1,17.6,6
			c1.8-0.1,3.6-1,6.3-3.9l4.1,3.5c-3.2,4.5-7,6.7-11.3,6.7c-5.5,0-12.2-6.4-17-6.3c-2.5,0-4.7,2.6-7.2,5.7L885.3,130.6z"/>
		<path class="st1" d="M1000,127c23.2,0,34.7,15.8,34.7,34.5c0,19-11.5,34.5-34.7,34.5s-34.7-15.5-34.7-34.5
			C965.3,142.8,976.8,127,1000,127z M1000,189.3c17.1,0,26.7-11.7,26.7-27.8c0-15.9-9.6-27.8-26.7-27.8c-17.2,0-26.7,11.9-26.7,27.8
			C973.3,177.6,982.8,189.3,1000,189.3z"/>
		<path class="st1" d="M1070.5,144c17.5,0,26.2,12,26.2,26c0,14-8.7,26-26.2,26s-26.2-12-26.2-26C1044.3,156,1053,144,1070.5,144z
			 M1070.5,189.7c12.2,0,18.4-9,18.4-19.7c0-10.4-6.2-19.7-18.4-19.7s-18.4,9.3-18.4,19.7C1052.1,180.7,1058.3,189.7,1070.5,189.7z"
			/>
		<path class="st1" d="M1141.2,166.5V195h-7.9v-67h30.6c13.8,0,20.8,8.7,20.8,19.3c0,10.7-7.1,19.2-20.9,19.2H1141.2z M1162.6,159.8
			c8.4,0,14.1-4.2,14.1-12.5s-5.7-12.6-14.1-12.6h-21.4v25.1H1162.6z"/>
		<path class="st1" d="M1198.8,193v23h-7.5v-67.8c6.5-2.7,14.2-4.2,22.3-4.2c17.1,0,26.4,11.7,26.4,25.7c0,14.7-9,26.3-25.3,26.3
			c-5.3,0-10.7-1.4-15.7-3.1L1198.8,193z M1232.3,169.7c0-12.9-8.5-19.4-18.8-19.4c-4.3,0-9.4,0.5-14.7,2.4v33.7
			c5.4,2.1,10.3,2.9,14.9,2.9C1223.8,189.3,1232.3,182.4,1232.3,169.7z"/>
	</g>
	<g class="st0">
		<path class="st1" d="M39.5,240c24.4,0,35.9,15.8,35.9,34.5c0,15.2-6.9,28.1-22.4,32.7l18,17.1l-8.9,8.7l-23.7-24.1
			c-21.9,0-34.8-14.6-34.8-34.4C3.6,255.8,15.1,240,39.5,240z M39.5,299.1c14.3,0,23.5-9.3,23.5-24.6c0-15.1-9.2-24.6-23.5-24.6
			c-14.4,0-23.6,9.5-23.6,24.6C15.9,289.8,25.1,299.1,39.5,299.1z"/>
		<path class="st1" d="M121.7,305.9c-4,1.6-8.8,3.1-14.1,3.1c-16.1,0-25-11.6-25-26.3c0-14,10-25.7,27.7-25.7
			c8.7,0,16.9,1.5,23.4,4.2V329h-11.8v-23L121.7,305.9z M121.9,296.1v-27.9c-4.1-1.3-8.2-1.8-11.6-1.8c-6.4,0-15.7,3.4-15.7,16.3
			c0,12.7,9.3,16.1,15.3,16.1C114.1,298.8,118.1,297.8,121.9,296.1z"/>
		<path class="st1" d="M225.6,308h-14.5l-17.6-26.8h-11.3V308h-12.3v-67h32.3c14.6,0,21.5,9,21.5,20.1c0,9.8-5.8,17.7-16.8,19.7
			L225.6,308z M199.5,271c6.4,0,11.9-2.2,11.9-9.9c0-7.6-5.5-9.9-11.9-9.9h-17.3V271H199.5z"/>
		<path class="st1" d="M245.9,264.7c5.6-4,11.4-7.7,19.8-7.7v11.1c-5.6,0-14.5,2.9-20,6.4V308h-11.8v-50h11.8v6.6
			C245.8,264.6,245.8,264.7,245.9,264.7z"/>
		<path class="st1" d="M295.9,258.5c0-14.1,12.3-18.5,23.6-18.5c10.1,0,17.2,1.8,23.5,4.4l-2.3,10.3c-7.9-3.1-14.5-4.8-22-4.8
			c-4.3,0-9.7,1.5-9.7,7c0,5.1,3.2,7.1,12.6,10c17.6,5.5,22.6,12.2,22.6,21.8c0,16.3-14.3,20.3-25,20.3c-10.1,0-18-2.4-24.3-5
			l1.4-10.1c8,3.1,15.4,5.2,22.9,5.2c9,0,11.9-3.8,11.9-8.8c0-5.7-3.6-8.5-13.8-11.5C305.8,275.4,295.9,271.2,295.9,258.5z"/>
		<path class="st1" d="M351.4,306.5l1-9.5c5.4,1.7,12.3,2.6,17.5,2.6c7.3,0,12.7-1.2,12.7-5.2c0.1-3.6-2.9-5.1-10.7-6.6
			c-16.9-3.2-20.1-9.7-20.1-15.7c0-11.4,10.3-15.1,21.9-15.1c5.3,0,14,0.7,19.7,2.5l-1,9.4c-5.3-1.6-12.1-2.5-17.1-2.5
			c-7,0-10.4,1.3-10.4,4.3c0,2.7,0.8,4.7,12.6,7c15.9,3.2,18.2,10.4,18.2,15.4c0,12.5-10.5,15.9-24.4,15.9
			C366,309,357.2,308.3,351.4,306.5z"/>
		<path class="st1" d="M459.4,308h-12.3v-56.8h-21.2V241h54.6v10.2h-21.1V308z"/>
		<path class="st1" d="M489.3,266.6h-6.8v-7.7l6.8-0.9v-17h11.8v17h18.4l-0.9,8.6h-17.5v23.9c0,7,3,9.1,8.8,9.1
			c3.3,0,7.1-1,10.3-1.9l1.7,9c-3.6,1.3-10.4,2.3-14.7,2.3c-15.5,0-17.9-7.1-17.9-18.5V266.6z"/>
		<path class="st1" d="M608.2,284.9c0,14.4-8.2,24.1-27.6,24.1c-19.5,0-27.6-9.7-27.6-24.1V241h12.3v43.9c0,10.9,8,14.2,15.3,14.2
			s15.3-3.3,15.3-14.2V241h12.3V284.9z"/>
		<path class="st1" d="M657.3,301.3c-5.8,4.1-12,7.7-20.4,7.7c-12.7,0-17.7-7-17.7-19.4V258H631v30.7c0,7.6,3.7,10.1,9.7,10.1
			c5.9,0,11.8-3.7,16.8-7.2V258h11.8v50h-11.8v-6.6L657.3,301.3z"/>
		<path class="st1" d="M713.6,308h-14.5l24.2-34.5L700.1,241h14.1l17.2,24.3l17.2-24.3h14.1l-23.2,32.5l24.2,34.5h-14.5l-17.8-25.5
			L713.6,308z"/>
		<path class="st1" d="M789.9,291.4L778.4,308h-14.6l19.2-26.6L765.5,258h14.2l10.2,14.2l10.3-14.2h14.2l-17.6,23.4L816,308h-14.6
			L789.9,291.4z"/>
		<path class="st1" d="M916.1,308.1h-14.2l-13.2-44.5l-13.3,44.5h-14.2L840.9,241h13.6l14,53.2l14.3-53.7H895l13.8,53.7l14-53.2
			h13.6L916.1,308.1z"/>
		<path class="st1" d="M949.8,308.3L932.2,258h13.3l12.1,38.7l12.2-38.7h13.1l12.3,38.7l12-38.7h13.3l-17.5,50.3h-15.6l-11.3-31.7
			l-10.7,31.7H949.8z"/>
		<path class="st1" d="M1089.9,241h13.4l-23.6,43.5V308h-12.3v-23.5l-23.1-43.5h13.4l16.3,31.5L1089.9,241z"/>
		<path class="st1" d="M1097.7,258h13.3l15.6,38.7L1140,258h13.3l-17.9,46.2c-6,15-7.2,24.8-24.4,24.8c-5.9,0-11.1-1.1-14.8-2.4
			l2.2-9c3.2,1,7.4,2,10.7,2c6.6,0,8.2-4.1,10.8-10.9L1097.7,258z"/>
		<path class="st1" d="M1195.8,297.8l35.4-0.5V308h-50.3v-9.4l35.4-47.4l-33.4,0.5V241h48.3v9.4L1195.8,297.8z"/>
		<path class="st1" d="M1282.4,266.3l-29.7,33.2l30.7-0.5v9h-46.2v-8.3l29.7-33.2l-28.1,0.5v-9h43.6V266.3z"/>
	</g>
</g>
</svg>
