<?xml version="1.0" encoding="utf-8"?>
<!-- Generator: Adobe Illustrator 22.0.1, SVG Export Plug-In . SVG Version: 6.00 Build 0)  -->
<svg version="1.1" id="Layer_1" xmlns="http://www.w3.org/2000/svg" xmlns:xlink="http://www.w3.org/1999/xlink" x="0px" y="0px"
	 viewBox="0 0 539 368" style="enable-background:new 0 0 539 368;" xml:space="preserve">
<style type="text/css">
	.st0{enable-background:new    ;}
	.st1{fill:#FFFFFF;}
</style>
<g>
	<g class="st0">
		<path class="st1" d="M202.3,131.1v37.4c-9.2,3.5-20.5,5.2-32.9,5.2c-32.3,0-48.4-20-48.4-44.5c0-24.1,16.1-44.5,48.4-44.5
			c12.1,0,24.3,2.2,32.3,5.2l-3.5,14.5c-9.7-3.5-19.1-4.8-28.8-4.8c-16.8,0-29.7,10.7-29.7,29.7c0,19.2,12.9,29.7,29.7,29.7
			c3.9,0,10.7-0.1,14.2-0.6v-27.1H202.3z"/>
		<path class="st1" d="M264.3,85.3h21.3l32.3,87.1h-20.6l-6.7-20h-31.4l-7.1,20h-20.6L264.3,85.3z M264.7,136.9h20.5l-9.9-29.7
			L264.7,136.9z"/>
		<path class="st1" d="M367,156.9h44.5v15.5h-63.2V86H367V156.9z"/>
	</g>
	<g class="st0">
		<path class="st1" d="M156.5,196.2h21.3l32.3,87.1h-20.6l-6.7-20h-31.4l-7.1,20h-20.6L156.5,196.2z M156.9,247.9h20.5l-9.9-29.7
			L156.9,247.9z"/>
		<path class="st1" d="M274.7,252.2l-21.3,31.1h-21.9l31-44.5l-29.7-41.9H254l20.6,29.5l20.6-29.5h21.3l-29.7,41.9l31,44.5h-21.9
			L274.7,252.2z"/>
		<path class="st1" d="M387.7,283.3H369V253l-29.7-56.1h20.3l19.4,38.1l18.8-38.1H418L387.7,253V283.3z"/>
	</g>
</g>
</svg>
