<?xml version="1.0" encoding="utf-8"?>
<!-- Generator: Adobe Illustrator 22.0.1, SVG Export Plug-In . SVG Version: 6.00 Build 0)  -->
<svg version="1.1" id="Layer_1" xmlns="http://www.w3.org/2000/svg" xmlns:xlink="http://www.w3.org/1999/xlink" x="0px" y="0px"
	 viewBox="0 0 1200 146.4" style="enable-background:new 0 0 1200 146.4;" xml:space="preserve">
<style type="text/css">
	.st0{fill:#1D1E26;}
	.st1{fill:#15161B;}
	.st2{fill:#252633;}
	.st3{enable-background:new    ;}
	.st4{fill:#FFFFFF;}
</style>
<g>
	<g>
		<rect x="312.4" class="st0" width="575.2" height="146.4"/>
	</g>
	<g>
		<path class="st1" d="M7,0h305.6v146.4H7c-3.8,0-7-3.1-7-7V6.9C0,3.1,3.1,0,7,0z"/>
	</g>
	<g>
		<path class="st2" d="M887.4,0H1193c3.8,0,7,3.1,7,7v132.5c0,3.8-3.1,7-7,7H887.4V0z"/>
	</g>
	<g>
		<g class="st3">
			<path class="st4" d="M47.5,105.5v-2.1h-2.9v-3.5h2.9v-2.9l3.5,0v2.9h2.1v-2.9l3.5,0v2.9h2.9v3.5h-2.9v2.1h2.9v3.5h-2.9v2.9h-3.5
				V109H51v2.9h-3.5V109h-2.9v-3.5H47.5z M51,105.5h2.1v-2.1H51V105.5z"/>
			<path class="st4" d="M81.1,108.5v3.8H64.3v-3.8h6.3V95.3l-4.5,1.6l-1.3-3.6l5.5-2.2h4.9v17.4H81.1z"/>
			<path class="st4" d="M101.3,105.2c0,4.3-3.5,7.4-9.6,7.4c-1.9,0-5.4-0.6-7.5-1.3l0.7-3.7c2,0.7,3.8,1.2,6.8,1.2
				c3.3,0,5.1-1.4,5.1-3.5c0-2-1.7-3.3-4.5-3.3c-2.7,0-3.6,0.5-5.2,1l-1.8-1V91.2h14.7v4.1l-10.3-0.2l-0.1,3.6
				c0.8-0.3,2.4-0.5,3-0.5C100,98.2,101.3,102.8,101.3,105.2z"/>
			<path class="st4" d="M121,108.5v3.8h-16.8v-3.8h6.3V95.3l-4.5,1.6l-1.3-3.6l5.5-2.2h4.9v17.4H121z"/>
			<path class="st4" d="M142,105.6c0,4.2-3.3,7-9.3,7c-6.1,0-8.9-3.6-8.9-9.7c0-7.1,3.9-11.9,16-11.9v3.5c-8.3,0-11.2,3.2-11.6,5.8
				c1.5-1.1,3.8-1.7,5.5-1.7C138.9,98.4,142,101.2,142,105.6z M133.2,108.9c1.6,0,4.4-0.5,4.4-3.2c0-2.9-2.9-3.5-4.2-3.5
				c-1.4,0-3.6,0.2-5.2,1.6C128.2,107.1,129.5,108.9,133.2,108.9z"/>
			<path class="st4" d="M161.7,108.5v3.8h-16.8v-3.8h6.3V95.3l-4.5,1.6l-1.3-3.6l5.5-2.2h4.9v17.4H161.7z"/>
			<path class="st4" d="M182.4,106.3c0,3.3-2.2,6-6.9,6h-10.4v-21h9.7c4.7,0,6.9,2.5,6.9,5.8c0,1.5-0.6,3.3-2.4,4.4
				C181.6,102.4,182.4,104.4,182.4,106.3z M169.7,95v4.7h4.1c1.7,0,3.4,0,3.4-2.4c0-2.4-1.7-2.4-3.4-2.4H169.7z M169.7,108.5h4.8
				c1.7,0,3.4-0.2,3.4-2.5s-1.7-2.5-3.4-2.5h-4.8V108.5z"/>
		</g>
	</g>
	<g>
		<g class="st3">
			<path class="st4" d="M359.9,105.5v-2.1H357v-3.5h2.9v-2.9l3.5,0v2.9h2.1v-2.9l3.5,0v2.9h2.9v3.5h-2.9v2.1h2.9v3.5h-2.9v2.9h-3.5
				V109h-2.1v2.9h-3.5V109H357v-3.5H359.9z M363.4,105.5h2.1v-2.1h-2.1V105.5z"/>
			<path class="st4" d="M393.5,108.5v3.8h-16.8v-3.8h6.3V95.3l-4.5,1.6l-1.3-3.6l5.5-2.2h4.9v17.4H393.5z"/>
			<path class="st4" d="M396.9,112.2v-21h7.4c7.8,0,11.8,4.6,11.8,10.5c0,6-3.9,10.5-11.8,10.5H396.9z M404.3,108.5
				c4,0,7.2-2.1,7.2-6.7c0-4.6-3.2-6.7-7.2-6.7h-2.8v13.5H404.3z"/>
			<path class="st4" d="M435.7,108.5v3.8h-16.8v-3.8h6.3V95.3l-4.5,1.6l-1.3-3.6l5.5-2.2h4.9v17.4H435.7z"/>
			<path class="st4" d="M443.8,99.5h9.3v3.8h-9.3v5.2h10.8v3.8h-15.4v-21h15.2V95h-10.7V99.5z"/>
			<path class="st4" d="M475.8,108.3v3.9h-18v-3.8c4.5-2.5,12.3-6.3,12.3-11c0-1.3-0.9-3-3.4-3c-2,0-3.9,0.7-6.7,1.7l-1.2-3.7
				c2.3-0.8,5-1.6,7.9-1.6c5.1,0,8.3,2,8.3,6.2c0,6-6.7,9.3-9.7,11.4L475.8,108.3z"/>
			<path class="st4" d="M497,105.6c0,4.2-3.3,7-9.3,7c-6.1,0-8.9-3.6-8.9-9.7c0-7.1,3.9-11.9,16-11.9v3.5c-8.3,0-11.2,3.2-11.6,5.8
				c1.5-1.1,3.8-1.7,5.5-1.7C493.9,98.4,497,101.2,497,105.6z M488.2,108.9c1.6,0,4.4-0.5,4.4-3.2c0-2.9-2.9-3.5-4.2-3.5
				c-1.4,0-3.6,0.2-5.2,1.6C483.2,107.1,484.5,108.9,488.2,108.9z"/>
		</g>
	</g>
	<g>
		<g class="st3">
			<path class="st4" d="M935.7,105.5v-2.1h-2.9v-3.5h2.9v-2.9l3.5,0v2.9h2.1v-2.9l3.5,0v2.9h2.9v3.5h-2.9v2.1h2.9v3.5h-2.9v2.9h-3.5
				V109h-2.1v2.9h-3.5V109h-2.9v-3.5H935.7z M939.2,105.5h2.1v-2.1h-2.1V105.5z"/>
			<path class="st4" d="M957,101.7c0,4.7,3.1,7.2,7.2,7.2c2.4,0,4.3-0.3,6.7-1.2l0.8,3.6c-2,0.8-4.5,1.2-7.5,1.2
				c-7.8,0-11.8-4.9-11.8-10.8c0-5.9,3.9-10.8,11.8-10.8c2.9,0,5.5,0.5,7.5,1.3l-0.8,3.5c-2.4-0.8-4.3-1.2-6.7-1.2
				C960.1,94.5,957,97.1,957,101.7z"/>
			<path class="st4" d="M975,96.4c0-3.8,3.9-5.5,8.8-5.5c4.4,0,8.3,1.9,8.3,5.3c0,2.2-1.5,4-3.9,5c3.1,1.1,4.8,2.9,4.8,5.5
				c0,4-4.7,5.9-9.6,5.9c-5,0-9.2-1.9-9.2-5.6c0-1.7,0.9-4,4.7-5.4C976.2,100.4,975,98.2,975,96.4z M983,103.1
				c-2.4,0.8-4.2,1.8-4.2,3.3c0,0.8,0.3,2.7,4.9,2.7c3.9,0,5-1.4,5-2.5C988.6,104.9,986.9,104.2,983,103.1z M984.3,99.3
				c2.5-0.5,3.4-2,3.4-2.7c0-0.9-0.5-2.1-4.1-2.1c-3.8,0-4.1,1.3-4.1,2C979.5,97.6,980.5,98.5,984.3,99.3z"/>
			<path class="st4" d="M1000.4,101.7c0,4.7,3.1,7.2,7.2,7.2c2.4,0,4.3-0.3,6.7-1.2l0.8,3.6c-2,0.8-4.5,1.2-7.5,1.2
				c-7.8,0-11.8-4.9-11.8-10.8c0-5.9,3.9-10.8,11.8-10.8c2.9,0,5.5,0.5,7.5,1.3l-0.8,3.5c-2.4-0.8-4.3-1.2-6.7-1.2
				C1003.6,94.5,1000.4,97.1,1000.4,101.7z"/>
			<path class="st4" d="M1018.4,96.4c0-3.8,3.9-5.5,8.8-5.5c4.4,0,8.3,1.9,8.3,5.3c0,2.2-1.5,4-3.9,5c3.1,1.1,4.8,2.9,4.8,5.5
				c0,4-4.7,5.9-9.6,5.9c-5,0-9.2-1.9-9.2-5.6c0-1.7,0.9-4,4.7-5.4C1019.7,100.4,1018.4,98.2,1018.4,96.4z M1026.4,103.1
				c-2.4,0.8-4.2,1.8-4.2,3.3c0,0.8,0.3,2.7,4.9,2.7c3.9,0,5-1.4,5-2.5C1032,104.9,1030.3,104.2,1026.4,103.1z M1027.7,99.3
				c2.5-0.5,3.4-2,3.4-2.7c0-0.9-0.5-2.1-4.1-2.1c-3.8,0-4.1,1.3-4.1,2C1022.9,97.6,1023.9,98.5,1027.7,99.3z"/>
			<path class="st4" d="M1043.8,101.7c0,4.7,3.1,7.2,7.2,7.2c2.4,0,4.3-0.3,6.7-1.2l0.8,3.6c-2,0.8-4.5,1.2-7.5,1.2
				c-7.8,0-11.8-4.9-11.8-10.8c0-5.9,3.9-10.8,11.8-10.8c2.9,0,5.5,0.5,7.5,1.3l-0.8,3.5c-2.4-0.8-4.3-1.2-6.7-1.2
				C1047,94.5,1043.8,97.1,1043.8,101.7z"/>
			<path class="st4" d="M1061.9,96.4c0-3.8,3.9-5.5,8.8-5.5c4.4,0,8.3,1.9,8.3,5.3c0,2.2-1.5,4-3.9,5c3.1,1.1,4.8,2.9,4.8,5.5
				c0,4-4.7,5.9-9.6,5.9c-5,0-9.2-1.9-9.2-5.6c0-1.7,0.9-4,4.7-5.4C1063.1,100.4,1061.9,98.2,1061.9,96.4z M1069.8,103.1
				c-2.4,0.8-4.2,1.8-4.2,3.3c0,0.8,0.3,2.7,4.9,2.7c3.9,0,5-1.4,5-2.5C1075.4,104.9,1073.7,104.2,1069.8,103.1z M1071.2,99.3
				c2.5-0.5,3.4-2,3.4-2.7c0-0.9-0.5-2.1-4.1-2.1c-3.8,0-4.1,1.3-4.1,2C1066.3,97.6,1067.3,98.5,1071.2,99.3z"/>
		</g>
	</g>
</g>
</svg>
