<?xml version="1.0" encoding="utf-8"?>
<!-- Generator: Adobe Illustrator 22.0.1, SVG Export Plug-In . SVG Version: 6.00 Build 0)  -->
<svg version="1.1" id="Layer_1" xmlns="http://www.w3.org/2000/svg" xmlns:xlink="http://www.w3.org/1999/xlink" x="0px" y="0px"
	 viewBox="0 0 800 97.6" style="enable-background:new 0 0 800 97.6;" xml:space="preserve">
<style type="text/css">
	.st0{fill:#7000FF;}
	.st1{fill:#B3B3B3;}
	.st2{fill:#FFFFFF;}
	.st3{enable-background:new    ;}
</style>
<g>
	<g>
		<path class="st0" d="M4.6,0h203.7v97.6H4.6C2.1,97.6,0,95.5,0,93V4.6C0,2.1,2.1,0,4.6,0z"/>
	</g>
	<g>
		<rect x="208.3" class="st1" width="383.5" height="97.6"/>
	</g>
	<g>
		<path class="st2" d="M591.6,0h203.7c2.6,0,4.6,2.1,4.6,4.6V93c0,2.6-2.1,4.6-4.6,4.6H591.6V0z"/>
	</g>
	<g>
		<g class="st3">
			<path class="st2" d="M31.7,70.1v-1.4h-1.9v-2.3h1.9v-1.9l2.3,0v1.9h1.4v-1.9l2.4,0v1.9h1.9v2.3h-1.9v1.4h1.9v2.3h-1.9v1.9h-2.4
				v-1.9H34v1.9h-2.3v-1.9h-1.9v-2.3H31.7z M34,70.1h1.4v-1.4H34V70.1z"/>
			<path class="st2" d="M46.7,74.6h-3.6l6.3-11.5l-7.2,0.1v-2.6H53v2.2L46.7,74.6z"/>
			<path class="st2" d="M60.6,60.4c5.2,0,6.4,3.3,6.4,7.2c0,4-1.2,7.2-6.4,7.2s-6.4-3.2-6.4-7.2C54.2,63.7,55.4,60.4,60.6,60.4z
				 M60.6,72.4c2.7,0,3.3-1.7,3.3-4.8c0-3.1-0.6-4.8-3.3-4.8c-2.7,0-3.3,1.7-3.3,4.8C57.3,70.7,57.9,72.4,60.6,72.4z"/>
			<path class="st2" d="M74.6,60.4c5.2,0,6.4,3.3,6.4,7.2c0,4-1.2,7.2-6.4,7.2s-6.4-3.2-6.4-7.2C68.3,63.7,69.4,60.4,74.6,60.4z
				 M74.6,72.4c2.7,0,3.3-1.7,3.3-4.8c0-3.1-0.6-4.8-3.3-4.8c-2.7,0-3.3,1.7-3.3,4.8C71.3,70.7,71.9,72.4,74.6,72.4z"/>
			<path class="st2" d="M88.7,60.4c5.2,0,6.4,3.3,6.4,7.2c0,4-1.2,7.2-6.4,7.2s-6.4-3.2-6.4-7.2C82.3,63.7,83.4,60.4,88.7,60.4z
				 M88.7,72.4c2.7,0,3.3-1.7,3.3-4.8c0-3.1-0.6-4.8-3.3-4.8c-2.7,0-3.3,1.7-3.3,4.8C85.3,70.7,85.9,72.4,88.7,72.4z"/>
			<path class="st2" d="M99.7,66.3h6.2v2.5h-6.2v5.8h-3v-14h10.1v2.5h-7.1V66.3z"/>
			<path class="st2" d="M111.1,66.3h6.2v2.5h-6.2v5.8h-3v-14h10.1v2.5h-7.1V66.3z"/>
		</g>
	</g>
	<g>
		<g class="st3">
			<path d="M239.9,70.1v-1.4H238v-2.3h1.9v-1.9l2.3,0v1.9h1.4v-1.9l2.4,0v1.9h1.9v2.3h-1.9v1.4h1.9v2.3h-1.9v1.9h-2.4v-1.9h-1.4v1.9
				h-2.3v-1.9H238v-2.3H239.9z M242.3,70.1h1.4v-1.4h-1.4V70.1z"/>
			<path d="M262.4,70.6c0,2.2-1.5,4-4.6,4h-6.9v-14h6.4c3.1,0,4.6,1.7,4.6,3.9c0,1-0.4,2.2-1.6,2.9C261.9,68,262.4,69.4,262.4,70.6z
				 M253.9,63.1v3.1h2.7c1.1,0,2.3,0,2.3-1.6c0-1.6-1.2-1.6-2.3-1.6H253.9z M253.9,72.1h3.2c1.1,0,2.3-0.1,2.3-1.7
				c0-1.6-1.2-1.7-2.3-1.7h-3.2V72.1z"/>
			<path d="M264,61.5c2.4-1,4.2-1.2,5.6-1.2c3.3,0,5.1,1.4,5.1,3.6c0,1.1-0.4,2.4-2.4,3.3c2.5,0.7,2.9,2.3,2.9,3.4
				c0,2.5-2.3,4.1-6.4,4.1c-1.3,0-3.8-0.4-5.2-0.9l0.4-2.4c1.3,0.4,2.9,0.8,4.7,0.8c1.9,0,3.3-0.6,3.3-2c0-1.1-0.8-1.9-2.7-1.9h-3
				v-2.5h2.9c1.6,0,2.3-0.5,2.3-1.5c0-0.9-0.9-1.4-2.3-1.4c-1.4,0-3,0.3-4.7,0.9L264,61.5z"/>
			<path d="M288.4,70.6c0,2.2-1.5,4-4.6,4h-6.9v-14h6.4c3.1,0,4.6,1.7,4.6,3.9c0,1-0.4,2.2-1.6,2.9C287.9,68,288.4,69.4,288.4,70.6z
				 M279.9,63.1v3.1h2.7c1.1,0,2.3,0,2.3-1.6c0-1.6-1.2-1.6-2.3-1.6H279.9z M279.9,72.1h3.2c1.1,0,2.3-0.1,2.3-1.7
				c0-1.6-1.2-1.7-2.3-1.7h-3.2V72.1z"/>
			<path d="M289.9,61.5c2.4-1,4.2-1.2,5.6-1.2c3.3,0,5.1,1.4,5.1,3.6c0,1.1-0.4,2.4-2.4,3.3c2.5,0.7,2.9,2.3,2.9,3.4
				c0,2.5-2.3,4.1-6.4,4.1c-1.3,0-3.8-0.4-5.2-0.9l0.4-2.4c1.3,0.4,2.9,0.8,4.7,0.8c1.9,0,3.3-0.6,3.3-2c0-1.1-0.8-1.9-2.7-1.9h-3
				v-2.5h2.9c1.6,0,2.3-0.5,2.3-1.5c0-0.9-0.9-1.4-2.3-1.4c-1.4,0-3,0.3-4.7,0.9L289.9,61.5z"/>
			<path d="M314.4,70.6c0,2.2-1.5,4-4.6,4h-6.9v-14h6.4c3.1,0,4.6,1.7,4.6,3.9c0,1-0.4,2.2-1.6,2.9C313.8,68,314.4,69.4,314.4,70.6z
				 M305.9,63.1v3.1h2.7c1.1,0,2.3,0,2.3-1.6c0-1.6-1.2-1.6-2.3-1.6H305.9z M305.9,72.1h3.2c1.1,0,2.3-0.1,2.3-1.7
				c0-1.6-1.2-1.7-2.3-1.7h-3.2V72.1z"/>
			<path d="M315.9,61.5c2.4-1,4.2-1.2,5.6-1.2c3.3,0,5.1,1.4,5.1,3.6c0,1.1-0.4,2.4-2.4,3.3c2.5,0.7,2.9,2.3,2.9,3.4
				c0,2.5-2.3,4.1-6.4,4.1c-1.3,0-3.8-0.4-5.2-0.9l0.4-2.4c1.3,0.4,2.9,0.8,4.7,0.8c1.9,0,3.3-0.6,3.3-2c0-1.1-0.8-1.9-2.7-1.9h-3
				v-2.5h2.9c1.6,0,2.3-0.5,2.3-1.5c0-0.9-0.9-1.4-2.3-1.4c-1.4,0-3,0.3-4.7,0.9L315.9,61.5z"/>
		</g>
	</g>
	<g>
		<g class="st3">
			<path d="M623.8,70.1v-1.4h-1.9v-2.3h1.9v-1.9l2.3,0v1.9h1.4v-1.9l2.4,0v1.9h1.9v2.3h-1.9v1.4h1.9v2.3h-1.9v1.9h-2.4v-1.9h-1.4
				v1.9h-2.3v-1.9h-1.9v-2.3H623.8z M626.1,70.1h1.4v-1.4h-1.4V70.1z"/>
			<path d="M637.8,66.3h6.2v2.5h-6.2v5.8h-3v-14h10.1v2.5h-7.1V66.3z"/>
			<path d="M649.2,66.3h6.2v2.5h-6.2v5.8h-3v-14h10.1v2.5h-7.1V66.3z"/>
			<path d="M660.6,66.3h6.2v2.5h-6.2v5.8h-3v-14h10.1v2.5h-7.1V66.3z"/>
			<path d="M672,66.3h6.2v2.5H672v5.8h-3v-14h10.1v2.5H672V66.3z"/>
			<path d="M683.4,66.3h6.2v2.5h-6.2v5.8h-3v-14h10.1v2.5h-7.1V66.3z"/>
			<path d="M694.8,66.3h6.2v2.5h-6.2v5.8h-3v-14h10.1v2.5h-7.1V66.3z"/>
		</g>
	</g>
</g>
</svg>
