<svg width="190" height="51" viewBox="0 0 190 51" fill="none" xmlns="http://www.w3.org/2000/svg">
<mask id="mask0" mask-type="alpha" maskUnits="userSpaceOnUse" x="20" y="6" width="39" height="39">
<path d="M39.0178 44.0357C49.5211 44.0357 58.0357 35.5211 58.0357 25.0178C58.0357 14.5146 49.5211 6 39.0178 6C28.5146 6 20 14.5146 20 25.0178C20 35.5211 28.5146 44.0357 39.0178 44.0357Z" fill="white"/>
</mask>
<g mask="url(#mask0)">
<path fill-rule="evenodd" clip-rule="evenodd" d="M21.6622 17.2308C21.4498 17.7033 21.2562 18.186 21.0823 18.678C21.1089 18.6668 21.1355 18.6553 21.1622 18.6433L21.6566 18.4309C21.695 18.4119 21.7393 18.3936 21.7769 18.3804C21.8153 18.3614 21.8596 18.3431 21.8972 18.3299C21.9356 18.3109 21.9798 18.2925 22.0174 18.2794C22.0551 18.2662 22.0993 18.248 22.1377 18.2289L22.4159 18.1147L23.1301 17.8227L24.1195 17.4402C24.2054 17.408 24.291 17.3757 24.3763 17.3435C24.6221 17.2507 24.8663 17.1587 25.1132 17.0702C25.4459 16.9511 25.7786 16.8319 26.1105 16.7187L27.1063 16.379C27.3579 16.2932 27.6125 16.2111 27.8653 16.1297C27.9459 16.1037 28.0264 16.0778 28.1064 16.0519L29.1102 15.7432C29.1914 15.7176 29.2784 15.6929 29.3587 15.6732C29.4399 15.6477 29.5269 15.6229 29.6072 15.6033C29.6884 15.5777 29.7754 15.5529 29.8558 15.5333C29.8761 15.5275 29.8961 15.5217 29.9159 15.5159C29.9809 15.4969 30.0441 15.4786 30.1102 15.4641L30.3653 15.389C30.3746 15.3872 30.3854 15.3841 30.3964 15.3809C30.4072 15.3778 30.4181 15.3747 30.4273 15.373C30.4365 15.3711 30.4474 15.368 30.4583 15.3649C30.4692 15.3618 30.48 15.3587 30.4892 15.3569C30.4985 15.3551 30.5093 15.352 30.5202 15.3489C30.5311 15.3458 30.542 15.3427 30.5512 15.3409C30.5604 15.3391 30.5713 15.336 30.5821 15.3329C30.593 15.3298 30.6039 15.3267 30.6131 15.3249L31.1153 15.1916L31.6233 15.0591L32.124 14.9376L32.2228 14.9143L32.6305 14.8169L32.8841 14.7536C32.8933 14.7517 32.9042 14.7487 32.9151 14.7456C32.926 14.7425 32.9369 14.7394 32.9461 14.7376C32.9496 14.7369 32.9534 14.7362 32.9573 14.7355C32.9737 14.7326 32.9925 14.7292 33.008 14.7215C33.0116 14.7208 33.0153 14.7202 33.0192 14.7195C33.0356 14.7166 33.0545 14.7132 33.0699 14.7055C33.0735 14.7048 33.0772 14.7042 33.0811 14.7035C33.0975 14.7005 33.1164 14.6972 33.1319 14.6895L34.1486 14.4666C34.1815 14.4601 34.2147 14.4536 34.248 14.4471C34.3824 14.421 34.5193 14.3944 34.6528 14.3636C34.7386 14.3476 34.8232 14.33 34.9078 14.3124C34.9924 14.2948 35.0771 14.2773 35.1629 14.2613C35.2488 14.2454 35.3332 14.2293 35.4176 14.2131C35.502 14.197 35.5864 14.1809 35.6723 14.165C35.706 14.1587 35.7395 14.1524 35.7729 14.1462C35.9094 14.1206 36.0435 14.0954 36.1809 14.0746L36.6953 13.9849L36.8236 13.9654L36.9518 13.9459L37.0801 13.9265L37.1531 13.9179L37.2083 13.907L37.7213 13.8291L37.9778 13.7902C37.9899 13.7888 38.0006 13.7872 38.0113 13.7855C38.022 13.7839 38.0327 13.7823 38.0449 13.7809C38.057 13.7794 38.0677 13.7778 38.0784 13.7762C38.089 13.7746 38.0998 13.7729 38.1119 13.7715C38.1362 13.7687 38.1547 13.765 38.1731 13.7614C38.1823 13.7596 38.193 13.7579 38.2037 13.7563C38.2144 13.7547 38.2251 13.7531 38.2343 13.7513L39.2572 13.6192C39.2755 13.6156 39.2998 13.6127 39.324 13.6099L39.3242 13.6098C39.3364 13.6084 39.3471 13.6068 39.3577 13.6052C39.3684 13.6036 39.3791 13.6019 39.3913 13.6005C39.4034 13.5991 39.4141 13.5974 39.4248 13.5958C39.4355 13.5942 39.4462 13.5926 39.4583 13.5911C39.4768 13.5875 39.5011 13.5846 39.5188 13.5869L39.7671 13.5649L40.2645 13.5151C40.5975 13.486 40.9239 13.4621 41.2495 13.4441C41.5752 13.4261 41.9 13.414 42.2182 13.4071C42.5364 13.4001 42.8539 13.3991 43.1706 13.4039C43.4873 13.4088 43.7973 13.4188 44.1066 13.4347L44.3385 13.4466C44.3765 13.4486 44.4142 13.4519 44.4512 13.4553C44.4897 13.4587 44.5275 13.4621 44.5639 13.4637C44.6025 13.4657 44.6395 13.469 44.6765 13.4722C44.7135 13.4755 44.7505 13.4788 44.7892 13.4808C44.8223 13.4851 44.8557 13.4878 44.8883 13.4905C44.9193 13.493 44.9496 13.4955 44.9784 13.4992L45.0137 13.5037C45.0351 13.5065 45.0552 13.5075 45.0744 13.5084C45.0922 13.5093 45.1094 13.5101 45.1263 13.5123L45.2383 13.5267L45.3501 13.5412L45.462 13.5556L45.5739 13.5701L45.6858 13.5845L45.7977 13.5989L45.9096 13.6134C45.9799 13.6255 46.0516 13.6377 46.1234 13.65C46.1952 13.6623 46.2669 13.6745 46.3372 13.6866L46.3533 13.6893C46.4889 13.7126 46.6296 13.7368 46.7641 13.7657C46.8107 13.7757 46.8574 13.7851 46.9041 13.7944C46.9974 13.8131 47.0908 13.8319 47.1835 13.8558C47.3233 13.8859 47.4563 13.921 47.5894 13.9562L47.5896 13.9563C47.7285 13.9922 47.8615 14.0274 47.9945 14.0625L47.995 14.0626C48.1274 14.1037 48.2539 14.144 48.3804 14.1844C48.5069 14.2247 48.6327 14.271 48.7584 14.3172L48.7587 14.3173C48.8843 14.3635 49.01 14.4097 49.1349 14.4619C49.2055 14.4924 49.2759 14.5249 49.3451 14.5569C49.3926 14.5789 49.4395 14.6006 49.4856 14.6212C49.5335 14.6443 49.5805 14.6665 49.627 14.6883C49.6954 14.7204 49.7626 14.752 49.8295 14.7856C49.942 14.8422 50.0537 14.9046 50.1654 14.9671C50.2551 15.0172 50.3368 15.0702 50.4198 15.1242C50.4402 15.1374 50.4606 15.1506 50.4812 15.1639C50.7471 15.3303 50.999 15.5128 51.2257 15.7042C51.3608 15.8177 51.4891 15.9363 51.6058 16.0534C51.9394 16.3905 52.2214 16.7571 52.4458 17.1523C52.6746 17.56 52.8458 17.9963 52.9543 18.4545C53.0672 18.9253 53.1099 19.429 53.0833 19.9599C53.0667 20.2278 53.0375 20.5002 52.9833 20.7813C52.929 21.0625 52.8615 21.3539 52.7696 21.6482C52.6777 21.9425 52.5667 22.2463 52.4431 22.5545C52.3136 22.8619 52.1657 23.173 52.0044 23.4944C51.9922 23.5198 51.9787 23.5436 51.9651 23.5674C51.9516 23.5911 51.938 23.6149 51.9257 23.6403C51.9071 23.679 51.8855 23.7139 51.8627 23.7504C51.8557 23.7618 51.8484 23.7735 51.8412 23.7854C51.8259 23.8105 51.8124 23.8342 51.7989 23.858C51.7853 23.8818 51.7718 23.9055 51.7566 23.9306C51.7493 23.9426 51.7421 23.9541 51.735 23.9656C51.7123 24.0021 51.6907 24.037 51.672 24.0757C51.5043 24.3543 51.3249 24.6312 51.1336 24.9067C50.9432 25.1763 50.7461 25.451 50.5313 25.7234L50.5091 25.7565C50.2869 26.04 50.0522 26.3279 49.8064 26.6083C49.554 26.8939 49.2958 27.1787 49.019 27.4671L48.5108 27.9718L48.2564 28.2271L47.9783 28.4794L47.897 28.5529L47.4282 28.9846L46.8375 29.4787L46.5419 29.7287C46.5285 29.7389 46.5167 29.7494 46.5049 29.7599C46.4931 29.7704 46.4812 29.7808 46.4679 29.7911L46.3881 29.8529L46.3083 29.9146L46.2285 29.9763L45.6025 30.4658L45.4429 30.5893C45.4163 30.6098 45.3882 30.6303 45.3601 30.6506C45.3321 30.671 45.304 30.6914 45.2774 30.712C45.2242 30.7532 45.1651 30.7935 45.1126 30.8288C45.086 30.8494 45.0579 30.8698 45.0299 30.8901C45.0018 30.9105 44.9737 30.9309 44.9471 30.9515C44.9205 30.9721 44.8924 30.9925 44.8643 31.0129C44.8363 31.0332 44.8082 31.0536 44.7816 31.0742C44.755 31.0948 44.7269 31.1152 44.6988 31.1356C44.6707 31.156 44.6427 31.1763 44.6161 31.1969C44.5629 31.2381 44.5037 31.2785 44.4447 31.3189C44.4255 31.3319 44.407 31.3451 44.3887 31.3581C44.3505 31.3852 44.3135 31.4116 44.274 31.4349C43.8145 31.7478 43.3433 32.0591 42.861 32.3631C42.3787 32.667 41.8854 32.9635 41.387 33.2533C40.8827 33.5424 40.3733 33.8248 39.8536 34.0939C39.3339 34.363 38.8084 34.6313 38.2733 34.8804C38.2411 34.8973 38.2078 34.9125 38.1744 34.9277C38.141 34.9429 38.1076 34.9581 38.0755 34.975C38.0434 34.9918 38.01 35.007 37.9766 35.0222C37.9432 35.0374 37.9098 35.0526 37.8777 35.0695C37.8456 35.0863 37.8121 35.1015 37.7788 35.1168C37.7454 35.1319 37.712 35.1471 37.6799 35.164C37.6477 35.1809 37.6144 35.1961 37.581 35.2113C37.5476 35.2265 37.5142 35.2417 37.4821 35.2586L36.6755 35.6166L36.6187 35.6393L36.2696 35.7924L35.8594 35.9555L35.0441 36.2885C34.7733 36.3917 34.5026 36.4948 34.2259 36.5971C34.0234 36.6742 33.8181 36.7476 33.6144 36.8204C33.5458 36.845 33.4774 36.8694 33.4093 36.8939C33.2057 36.9672 32.9993 37.0367 32.7947 37.1056C32.7279 37.1281 32.6612 37.1505 32.5949 37.173C32.3257 37.2643 32.0513 37.349 31.7836 37.4285L31.7834 37.4285C31.515 37.5139 31.2466 37.5993 30.9739 37.6721C30.7062 37.7516 30.4392 37.8252 30.173 37.8929C29.9061 37.9665 29.6399 38.0342 29.3804 38.0967L29.1393 38.1556C28.9535 38.2037 28.7743 38.2466 28.5892 38.2888C28.3305 38.3454 28.0717 38.4021 27.8137 38.4528C27.6847 38.4781 27.5572 38.5038 27.4296 38.5293C27.3021 38.5549 27.1746 38.5804 27.0456 38.6058C26.7934 38.6573 26.5421 38.7029 26.2915 38.7426C26.2345 38.7516 26.1778 38.7607 26.1214 38.7697C26.0525 38.7807 25.9839 38.7916 25.9157 38.8024C27.5181 40.326 29.3859 41.5731 31.4427 42.4672C31.5324 42.4397 31.6224 42.4118 31.7129 42.3837C32.0743 42.2743 32.4423 42.1597 32.8052 42.0384C33.0824 41.9479 33.3567 41.8535 33.6328 41.7586C33.7241 41.7273 33.8154 41.6958 33.9072 41.6644C34.1377 41.5856 34.3666 41.5018 34.5961 41.4179C34.7344 41.3673 34.8729 41.3166 35.0122 41.2668C35.1978 41.1977 35.3819 41.1284 35.5659 41.0591C35.75 40.9898 35.934 40.9205 36.1196 40.8515L37.2256 40.3999L37.782 40.1716L38.328 39.9299L39.3767 39.4589L39.4276 39.4355L39.4279 39.4354C39.517 39.3929 39.6063 39.3505 39.7014 39.3088C39.7907 39.2663 39.88 39.2238 39.9701 39.1754C40.0594 39.1329 40.1487 39.0904 40.2388 39.042L40.239 39.0419C40.3282 38.9994 40.4175 38.9569 40.5075 38.9086C41.2293 38.5575 41.9468 38.1939 42.6489 37.8103C43.3377 37.437 44.0221 37.0511 44.6904 36.6511C44.703 36.6467 44.7163 36.6364 44.723 36.6313C45.4038 36.2269 46.0685 35.8085 46.7162 35.3818C47.364 34.9552 47.9949 34.5204 48.6089 34.0774C48.688 34.0215 48.767 33.9657 48.8394 33.915C48.876 33.8868 48.9141 33.8586 48.9521 33.8306C48.9902 33.8024 49.0282 33.7743 49.0648 33.746L49.2843 33.5763L49.5038 33.4065L49.7233 33.2367L49.9427 33.067L50.1622 32.8972H50.1623C50.2354 32.8406 50.3086 32.784 50.3758 32.7267L51.2074 32.0356C51.2241 32.0227 51.2409 32.0084 51.2577 31.9941C51.2745 31.9798 51.2913 31.9654 51.308 31.9526C51.3246 31.9397 51.3414 31.9253 51.3582 31.911C51.375 31.8967 51.3918 31.8823 51.4085 31.8695C51.4251 31.8566 51.4419 31.8423 51.4588 31.828C51.4756 31.8136 51.4924 31.7993 51.509 31.7864C51.5423 31.7607 51.5763 31.7291 51.6103 31.6975L51.997 31.3452C52.0307 31.3165 52.0628 31.2876 52.095 31.2588C52.1272 31.2299 52.1593 31.201 52.193 31.1723C52.2602 31.115 52.3216 31.0569 52.383 30.9988C52.4137 30.9697 52.4459 30.9409 52.478 30.912C52.5102 30.8832 52.5423 30.8543 52.573 30.8252C52.6037 30.7962 52.6359 30.7673 52.6681 30.7384C52.7002 30.7095 52.7324 30.6807 52.7631 30.6516L53.4769 29.9454L53.8275 29.5945L54.071 29.3317L54.1546 29.2405L54.7955 28.5428C55.1123 28.1755 55.4166 27.8126 55.7025 27.4533C55.9602 27.1264 56.2003 26.7972 56.4337 26.4732C56.4448 26.4566 56.4573 26.4402 56.4699 26.4238C56.4825 26.4074 56.4951 26.391 56.5063 26.3745C56.756 26.0165 56.9866 25.6681 57.1995 25.3174C57.3426 25.0897 57.474 24.8606 57.5987 24.6366C57.6197 24.5973 57.6414 24.5581 57.6631 24.5189C57.7065 24.4404 57.7499 24.362 57.7881 24.2828L57.9329 23.9954C57.943 23.9755 57.953 23.9558 57.9629 23.9362C57.9758 23.911 57.9885 23.8859 58.0011 23.8609C57.732 19.377 55.9094 15.3119 53.0642 12.1967C53.0422 12.1894 53.0203 12.1822 52.9984 12.1752C52.8552 12.13 52.7067 12.0889 52.5618 12.0488C52.5437 12.0438 52.5257 12.0388 52.5077 12.0338C52.3459 11.9889 52.1782 11.9433 52.0104 11.8976C51.9523 11.8841 51.8943 11.8691 51.8364 11.8541C51.7785 11.8391 51.7205 11.8242 51.6624 11.8107C51.6101 11.7979 51.5579 11.7852 51.5116 11.7732C51.3431 11.7334 51.1679 11.6988 50.992 11.6701C50.8228 11.6362 50.6476 11.6016 50.4717 11.5729C50.2958 11.5442 50.1199 11.5155 49.9432 11.4927L49.4073 11.4236C49.2307 11.4007 49.0473 11.3831 48.8699 11.3662C48.8463 11.3631 48.8241 11.3618 48.8018 11.3604C48.7795 11.359 48.7573 11.3577 48.7337 11.3546C48.7101 11.3516 48.6878 11.3502 48.6656 11.3488C48.6433 11.3475 48.621 11.3461 48.5975 11.343C48.5731 11.3399 48.5486 11.3383 48.5249 11.3368C48.5027 11.3354 48.4812 11.334 48.4613 11.3315C48.4377 11.3284 48.4154 11.327 48.3932 11.3257C48.3709 11.3243 48.3486 11.3229 48.325 11.3199C48.3015 11.3168 48.2792 11.3155 48.257 11.3141C48.2347 11.3127 48.2124 11.3113 48.1889 11.3083C48.1653 11.3053 48.143 11.3039 48.1207 11.3025C48.0985 11.3011 48.0762 11.2998 48.0526 11.2967C48.0291 11.2937 48.0068 11.2923 47.9845 11.2909C47.9623 11.2896 47.94 11.2882 47.9164 11.2851C47.8925 11.2851 47.8687 11.2835 47.845 11.2819C47.8213 11.2804 47.7975 11.2788 47.7736 11.2787C47.7261 11.2756 47.6799 11.2741 47.6337 11.2727C47.5874 11.2712 47.5412 11.2697 47.4937 11.2666C47.4463 11.2635 47.4 11.262 47.3538 11.2606C47.3076 11.2591 47.2614 11.2576 47.2139 11.2545C47.1285 11.2489 47.0472 11.2486 46.9621 11.2484C46.9525 11.2484 46.943 11.2483 46.9333 11.2483C46.8854 11.2481 46.839 11.2481 46.7926 11.2482C46.7462 11.2482 46.6998 11.2482 46.652 11.248C46.2756 11.2415 45.8977 11.2467 45.5191 11.2579C45.4715 11.2601 45.424 11.2611 45.3771 11.262C45.3232 11.2631 45.2701 11.2641 45.2185 11.2671C45.1167 11.2716 45.014 11.2752 44.9109 11.2789C44.7337 11.2851 44.5551 11.2914 44.3758 11.3024C43.9957 11.3254 43.6088 11.3535 43.2213 11.3875C42.8396 11.4223 42.4513 11.4622 42.0622 11.5081L41.4778 11.5827L41.186 11.6171L41.113 11.6256L41.0401 11.6343L40.9671 11.6428L40.8942 11.6514L39.7584 11.823C39.7341 11.8258 39.7097 11.8287 39.6913 11.8323L39.6184 11.8409H39.6183C39.594 11.8438 39.5697 11.8467 39.5447 11.8554C39.5204 11.8583 39.496 11.8611 39.471 11.8699L39.1894 11.9176L38.6255 12.0189C38.6012 12.0218 38.5782 12.0263 38.5551 12.0309C38.5321 12.0354 38.5091 12.0399 38.4847 12.0428C38.4604 12.0456 38.4374 12.0502 38.4143 12.0547C38.3913 12.0592 38.3683 12.0637 38.3439 12.0666C38.3196 12.0695 38.2966 12.074 38.2735 12.0785C38.2505 12.0831 38.2275 12.0876 38.2032 12.0905C38.1651 12.095 38.1302 12.1035 38.0932 12.1126C38.0828 12.1151 38.0724 12.1177 38.0616 12.1203L37.4962 12.2334C37.4701 12.2377 37.4438 12.2431 37.4171 12.2486C37.3812 12.2559 37.3445 12.2635 37.306 12.2688C37.2444 12.2819 37.1831 12.2935 37.1217 12.3051C37.0604 12.3167 36.999 12.3282 36.9374 12.3413C36.7531 12.3776 36.5622 12.4189 36.3771 12.4611L36.3768 12.4612C36.1919 12.5033 36.0069 12.5454 35.8169 12.5809H35.8168C35.6318 12.623 35.4467 12.6652 35.2625 12.7014L34.1506 12.9661C34.1384 12.9676 34.1276 12.9707 34.1167 12.9737C34.1058 12.9768 34.0949 12.9799 34.0828 12.9814C34.0706 12.9828 34.0597 12.9859 34.0489 12.989C34.038 12.9921 34.0271 12.9952 34.0149 12.9966C34.0028 12.998 33.9919 13.0011 33.981 13.0042C33.9702 13.0074 33.9593 13.0105 33.9471 13.0119C33.935 13.0133 33.9241 13.0164 33.9132 13.0195C33.9023 13.0226 33.8915 13.0257 33.8793 13.0271L33.6006 13.0992L33.049 13.2441L32.4975 13.3891L31.9444 13.5457L31.3972 13.7032C31.3846 13.7076 31.3738 13.7107 31.3629 13.7139C31.352 13.7169 31.3411 13.72 31.3286 13.7244C31.3161 13.7288 31.3052 13.7319 31.2943 13.735C31.2834 13.7381 31.2725 13.7412 31.26 13.7456C31.2474 13.75 31.2366 13.7531 31.2257 13.7562C31.2148 13.7593 31.2039 13.7623 31.1914 13.7667C31.1789 13.7711 31.168 13.7742 31.1571 13.7773C31.1462 13.7804 31.1354 13.7835 31.1228 13.7879L30.8484 13.8725C30.8142 13.8831 30.7815 13.8924 30.7489 13.9017C30.7163 13.911 30.6837 13.9203 30.6493 13.9309C30.6242 13.9397 30.5992 13.9484 30.5749 13.9513C30.528 13.9663 30.4829 13.9799 30.4377 13.9936C30.3925 14.0073 30.3473 14.021 30.3005 14.0359C30.2537 14.0509 30.2085 14.0646 30.1633 14.0782C30.1182 14.092 30.073 14.1056 30.0261 14.1206C29.9793 14.1356 29.9341 14.1492 29.889 14.1629C29.8438 14.1766 29.7986 14.1903 29.7518 14.2052L28.6646 14.5572C28.3017 14.6784 27.9388 14.7996 27.5818 14.9216C27.2248 15.0437 26.8611 15.1708 26.5026 15.3046C26.1449 15.4325 25.7864 15.5662 25.4279 15.7001L25.4277 15.7001C25.1628 15.799 24.9008 15.9015 24.637 16.0046C24.5438 16.0411 24.4503 16.0776 24.3565 16.1141L23.2896 16.5407L22.5111 16.8664L22.2263 16.9857L22.0935 17.0406L21.9607 17.0955L21.9605 17.0956C21.9163 17.1139 21.8721 17.1321 21.8271 17.1564C21.7828 17.1746 21.7386 17.1929 21.6935 17.2171L21.6622 17.2308ZM54.3491 36.273C54.1566 36.4088 53.9603 36.5421 53.7641 36.6754L53.7638 36.6756C53.2836 37.0098 52.7924 37.3366 52.2953 37.6626C52.2528 37.6902 52.2118 37.7179 52.1708 37.7457C52.1298 37.7734 52.0888 37.8011 52.0463 37.8286C51.4584 38.209 50.8653 38.5826 50.2554 38.9481C49.6454 39.3136 49.0303 39.6724 48.4101 40.0246C48.1067 40.1955 47.7975 40.3656 47.4882 40.5357L47.4879 40.5359C47.4485 40.5573 47.4088 40.5788 47.3691 40.6004C47.0854 40.7544 46.7974 40.9107 46.5105 41.058L44.5699 42.0381C44.4681 42.0876 44.3664 42.1348 44.2663 42.1814C44.2032 42.2107 44.1407 42.2398 44.0791 42.2689C43.9964 42.3063 43.9135 42.3451 43.8307 42.384C43.7479 42.4228 43.6651 42.4616 43.5824 42.499C43.4172 42.5737 43.2518 42.6484 43.0858 42.729L43.0856 42.7291C42.9203 42.8038 42.7551 42.8784 42.5891 42.959C42.5699 42.9686 42.5492 42.9779 42.5286 42.9873C42.5079 42.9966 42.4872 43.0059 42.468 43.0154C42.4489 43.025 42.4282 43.0343 42.4075 43.0437C42.3868 43.053 42.3662 43.0624 42.347 43.0718C42.3278 43.0814 42.3071 43.0908 42.2864 43.1001C42.2658 43.1095 42.2452 43.1188 42.226 43.1283C42.1876 43.1473 42.1435 43.1656 42.0993 43.1839L42.099 43.1839L41.5987 43.3955L40.5982 43.8186L40.1654 44.0016C45.9846 43.6553 51.0993 40.6923 54.3491 36.273ZM20.0266 26.0332C21.7905 24.9782 23.9325 23.9815 26.3029 23.1606C30.6403 21.6554 34.7239 21.0959 37.4187 21.4618L37.4218 21.4382C37.4214 21.348 37.4144 21.2631 37.4074 21.1782C37.4004 21.0933 37.3809 21.0127 37.3614 20.9322L37.3613 20.9321C37.3359 20.8508 37.3097 20.7754 37.2777 20.6992C37.2682 20.68 37.2599 20.6624 37.2517 20.6448C37.2435 20.6272 37.2353 20.6097 37.2259 20.5904C37.2139 20.5631 37.1939 20.5303 37.1759 20.501C37.173 20.4962 37.1701 20.4914 37.1674 20.4869C37.1637 20.4812 37.1602 20.4756 37.1568 20.4702C37.1366 20.4381 37.119 20.4102 37.0971 20.3818C37.0843 20.3651 37.073 20.3486 37.0616 20.3322C37.0502 20.3157 37.0389 20.2992 37.0261 20.2826C37.0133 20.2659 36.9988 20.2505 36.9843 20.2352C36.9698 20.2198 36.9554 20.2044 36.9425 20.1877C36.9264 20.1737 36.9119 20.1583 36.8974 20.1429C36.8829 20.1275 36.8685 20.1122 36.8524 20.0981L36.7554 20.0135C36.7332 19.9941 36.7106 19.9774 36.6861 19.9595C36.6751 19.9514 36.6638 19.9431 36.6519 19.9341C36.6416 19.9263 36.6317 19.9184 36.6219 19.9108C36.5957 19.8903 36.5709 19.8708 36.5426 19.854C36.5044 19.825 36.4655 19.802 36.4265 19.7789C36.4071 19.7674 36.3861 19.7557 36.3652 19.744C36.3442 19.7323 36.3233 19.7206 36.3038 19.7091C36.2682 19.6951 36.2366 19.678 36.203 19.6597C36.1937 19.6547 36.1842 19.6496 36.1745 19.6444C36.1516 19.6354 36.1291 19.625 36.1065 19.6146C36.0839 19.6042 36.0613 19.5937 36.0384 19.5848C35.9937 19.561 35.9481 19.5431 35.9025 19.5252L35.9021 19.5251C35.8566 19.5072 35.8111 19.4894 35.7598 19.4708C35.7142 19.4529 35.6627 19.4343 35.6105 19.4215C35.5127 19.3909 35.4082 19.3654 35.2978 19.3392C35.1934 19.3137 35.0822 19.2933 34.9652 19.2722C34.8541 19.2519 34.7305 19.2359 34.6127 19.2207L34.6126 19.2207L34.2393 19.1905L34.0493 19.178C34.0309 19.1816 34.0191 19.1801 34.0015 19.1778C33.9962 19.1772 33.9896 19.1775 33.9822 19.1779C33.9733 19.1784 33.9634 19.1789 33.9536 19.1777C33.9483 19.177 33.9417 19.1773 33.9344 19.1777C33.9254 19.1782 33.9155 19.1787 33.9057 19.1775C33.8969 19.1764 33.8893 19.1769 33.8818 19.1774C33.8743 19.1779 33.8667 19.1785 33.8579 19.1773C33.849 19.1762 33.8415 19.1767 33.8339 19.1772C33.8264 19.1778 33.8188 19.1782 33.81 19.1771C33.8011 19.176 33.7936 19.1765 33.786 19.1771C33.7785 19.1775 33.7709 19.1781 33.7621 19.177C33.7568 19.1763 33.7502 19.1766 33.7429 19.177C33.7339 19.1775 33.7239 19.178 33.7142 19.1768C33.7089 19.1761 33.7023 19.1765 33.695 19.1769C33.686 19.1773 33.6761 19.1779 33.6664 19.1766L33.4623 19.1803C33.4314 19.1763 33.4046 19.1774 33.3742 19.1786C33.3697 19.1788 33.3653 19.179 33.3607 19.1792C33.3426 19.1799 33.3261 19.1807 33.3095 19.1816C33.2929 19.1824 33.2764 19.1833 33.2583 19.184C33.2281 19.1861 33.192 19.1874 33.1559 19.1887C33.1378 19.1894 33.1213 19.1903 33.1047 19.1912C33.0881 19.192 33.0716 19.1929 33.0535 19.1936L32.5879 19.2295L32.1104 19.2639L31.6248 19.3153C31.5402 19.3224 31.4614 19.3302 31.3826 19.338H31.3824C31.3701 19.3393 31.3576 19.3405 31.3451 19.3417C31.2772 19.3482 31.2064 19.3551 31.1392 19.3667C31.0994 19.3736 31.0583 19.3788 31.0172 19.384C30.9762 19.3892 30.9351 19.3944 30.8953 19.4012C30.876 19.4042 30.8571 19.4071 30.8383 19.41C30.7739 19.4201 30.7124 19.4297 30.6513 19.4358C30.3702 19.4727 30.0879 19.5185 29.8016 19.5651C29.7592 19.5719 29.7166 19.5789 29.674 19.5858C29.3962 19.6322 29.1173 19.6873 28.8346 19.7431C28.7872 19.7525 28.7397 19.7619 28.6921 19.7712C28.3604 19.8364 28.0338 19.9083 27.7006 19.9854C27.3673 20.0624 27.0399 20.1402 26.7052 20.2291C26.544 20.2742 26.3771 20.3185 26.21 20.3628L26.2089 20.3631C26.0415 20.4075 25.8741 20.452 25.706 20.5023L25.2016 20.6533C25.0393 20.7044 24.8711 20.7547 24.703 20.805C24.6812 20.8113 24.661 20.8176 24.6407 20.8241C24.6204 20.8304 24.6001 20.8368 24.5784 20.843C24.5341 20.8613 24.4965 20.8745 24.453 20.8869C24.4308 20.896 24.4105 20.9024 24.3903 20.9088C24.37 20.9151 24.3497 20.9216 24.3276 20.9307C24.2833 20.949 24.2457 20.9621 24.2022 20.9745C24.1579 20.9928 24.1203 21.006 24.0767 21.0184C24.0325 21.0367 23.9949 21.0498 23.9513 21.0622C23.9071 21.0805 23.8695 21.0937 23.8259 21.1061C23.8042 21.1123 23.7837 21.1202 23.7632 21.128C23.7428 21.1359 23.7223 21.1437 23.7005 21.1499C23.6596 21.1656 23.6174 21.1797 23.5751 21.1938C23.5329 21.2078 23.4907 21.2219 23.4497 21.2376C23.4088 21.2533 23.3666 21.2674 23.3243 21.2815C23.2821 21.2955 23.2399 21.3096 23.1989 21.3253C23.1178 21.3508 23.03 21.3815 22.9481 21.413C22.9072 21.4287 22.8648 21.4442 22.8224 21.4597C22.78 21.4753 22.7375 21.4908 22.6966 21.5066C22.6748 21.5128 22.6543 21.5206 22.6339 21.5285C22.6134 21.5364 22.5929 21.5442 22.5712 21.5504C22.5494 21.5566 22.5289 21.5645 22.5085 21.5724C22.488 21.5802 22.4675 21.588 22.4458 21.5943C22.4023 21.6066 22.3646 21.6198 22.3204 21.6381C22.2982 21.6472 22.2778 21.6551 22.2573 21.663C22.2368 21.6708 22.2163 21.6787 22.1942 21.6879L21.9101 21.8013L21.6896 21.8868L21.4372 21.9864L21.1841 22.0917L20.6846 22.2974C20.5142 22.3654 20.3489 22.4401 20.1836 22.5148L20.1836 22.5149L20.1619 22.5246C20.2498 21.8539 20.3725 21.1942 20.5284 20.5474C20.6323 20.5011 20.7355 20.4547 20.8386 20.4084L21.4341 20.1551L21.7322 20.0255L22.0296 19.9018L22.2126 19.8294L22.6294 19.661C22.6545 19.6522 22.6798 19.642 22.7051 19.6318C22.7303 19.6215 22.7556 19.6113 22.7807 19.6025C22.8057 19.5937 22.831 19.5835 22.8563 19.5732C22.8816 19.563 22.9068 19.5528 22.9319 19.544C22.957 19.5352 22.9823 19.525 23.0075 19.5147C23.0328 19.5045 23.0581 19.4943 23.0832 19.4855C23.1082 19.4767 23.1335 19.4665 23.1588 19.4562C23.184 19.446 23.2093 19.4357 23.2344 19.427C23.3296 19.3852 23.4307 19.3443 23.531 19.3092C23.5606 19.2979 23.5909 19.2862 23.6216 19.2742C23.6888 19.2482 23.758 19.2214 23.8268 19.1973C23.922 19.1555 24.0223 19.1204 24.1227 19.0854C24.2237 19.0444 24.3239 19.0094 24.4241 18.9744L24.4244 18.9742L24.5749 18.9216L24.7254 18.869L24.8758 18.8164L25.0263 18.7638L25.1768 18.7112L25.3273 18.6586L25.4778 18.606L25.6282 18.5533C25.8222 18.4884 26.0219 18.4242 26.2217 18.3599L26.222 18.3598C26.3219 18.3277 26.4217 18.2971 26.5214 18.2665C26.6212 18.2358 26.7209 18.2052 26.8209 18.173C27.0208 18.1088 27.2199 18.0505 27.419 17.9921C27.6181 17.9338 27.8172 17.8754 28.0156 17.823L28.0157 17.8229C28.4131 17.7122 28.8106 17.6014 29.2065 17.5025C29.6032 17.3976 29.9991 17.2986 30.3936 17.2115C30.7887 17.1184 31.1823 17.0372 31.5759 16.9559L31.5761 16.9559C31.9697 16.8746 32.3626 16.7993 32.754 16.7358C32.8513 16.7243 32.9492 16.7069 33.0472 16.6896H33.0474C33.1446 16.6781 33.2427 16.6608 33.3407 16.6434C33.3897 16.6347 33.4386 16.6275 33.4874 16.6203C33.5362 16.6131 33.585 16.6059 33.6341 16.5972C33.6827 16.5915 33.7315 16.5843 33.7804 16.5771C33.8292 16.5699 33.878 16.5627 33.9267 16.5569L34.5118 16.4764L35.0954 16.4076L35.3872 16.3732C35.514 16.3656 35.623 16.3557 35.7203 16.3442C35.8168 16.3386 35.8956 16.3308 35.9686 16.3222C36.0159 16.3157 36.0629 16.312 36.1056 16.3086C36.1234 16.3072 36.1404 16.3059 36.1565 16.3045C36.211 16.2995 36.2655 16.2946 36.3134 16.2947L36.6214 16.2744C36.6355 16.2734 36.6482 16.2736 36.6602 16.2737C36.6739 16.2739 36.6866 16.274 36.6995 16.2725C36.7136 16.2715 36.7263 16.2717 36.7384 16.2718C36.7519 16.2719 36.7646 16.2721 36.7776 16.2705C36.7917 16.2696 36.8044 16.2697 36.8164 16.2699C36.83 16.27 36.8427 16.2702 36.8556 16.2686C36.8698 16.2677 36.8825 16.2678 36.8945 16.2679C36.9081 16.2681 36.9208 16.2682 36.9337 16.2667C36.9479 16.2657 36.9606 16.2659 36.9726 16.266C36.9862 16.2662 36.9989 16.2663 37.0118 16.2648C37.0239 16.2634 37.0374 16.2636 37.0508 16.2638C37.0643 16.2641 37.0777 16.2643 37.0899 16.2628C37.104 16.2619 37.1167 16.262 37.1287 16.2621C37.1423 16.2623 37.155 16.2625 37.1679 16.2609C37.1821 16.2599 37.1948 16.2601 37.2068 16.2602C37.2204 16.2604 37.2331 16.2605 37.246 16.259L37.5451 16.2616L37.5809 16.262C37.7715 16.264 37.9569 16.266 38.1357 16.2778C38.3257 16.2903 38.5156 16.3028 38.7049 16.3212C38.8882 16.3389 39.0707 16.3624 39.2525 16.3919C39.4351 16.4155 39.6102 16.4501 39.7854 16.4847L39.7854 16.4847C39.873 16.502 39.9606 16.5193 40.0415 16.5418C40.129 16.5591 40.2099 16.5815 40.2909 16.604C40.3313 16.6152 40.3716 16.6279 40.4119 16.6406C40.4521 16.6533 40.4924 16.666 40.5329 16.6772C40.5729 16.6914 40.6132 16.7041 40.6535 16.7168C40.6937 16.7295 40.734 16.7422 40.7741 16.7564C40.8189 16.7722 40.8616 16.7897 40.9035 16.8067C40.9366 16.8203 40.9693 16.8336 41.002 16.8458C41.0388 16.8626 41.0758 16.8778 41.1127 16.8931C41.1496 16.9084 41.1866 16.9237 41.2234 16.9404L41.2244 16.9409C41.2975 16.9742 41.3707 17.0076 41.438 17.0402C41.4714 17.0595 41.505 17.0773 41.5387 17.0952C41.5723 17.113 41.6059 17.1309 41.6393 17.1502C41.6878 17.1764 41.7311 17.202 41.7743 17.2277C41.796 17.2405 41.8176 17.2532 41.8399 17.2661C41.8624 17.2813 41.8843 17.2956 41.9057 17.3097C41.9474 17.3371 41.9874 17.3634 42.0272 17.3923C42.0712 17.422 42.11 17.451 42.1489 17.48C42.1683 17.4945 42.1877 17.5091 42.2078 17.5237H42.2078C42.268 17.5675 42.3282 17.6113 42.3818 17.6602C42.4085 17.6847 42.4339 17.7089 42.4591 17.7332C42.4845 17.7575 42.5098 17.7818 42.5365 17.8062C42.5509 17.8207 42.5657 17.8353 42.5808 17.85C42.6158 17.8843 42.6519 17.9196 42.6847 17.9574C42.7315 18.0115 42.7785 18.0656 42.8195 18.1189C42.8605 18.1722 42.9008 18.2314 42.941 18.2907C43.0223 18.4032 43.0962 18.5268 43.1574 18.6547C43.2188 18.7827 43.2734 18.9159 43.3156 19.0533C43.3577 19.1908 43.3924 19.3394 43.4153 19.4864C43.4375 19.6393 43.4538 19.7915 43.4567 19.954C43.4664 20.1113 43.4569 20.2781 43.4347 20.4494C43.4127 20.6206 43.378 20.7962 43.3367 20.977C43.2954 21.1578 43.2357 21.3421 43.1693 21.5316C43.103 21.7212 43.0248 21.9092 42.9333 22.1075C42.8761 22.2261 42.8115 22.3559 42.7417 22.4789C42.6779 22.6027 42.6015 22.7308 42.5251 22.859L42.525 22.8592C42.4486 22.9874 42.3655 23.1207 42.2773 23.2474C42.195 23.3749 42.1002 23.5067 42.0053 23.6385C41.9653 23.6982 41.9178 23.7605 41.8716 23.821C41.858 23.8389 41.8444 23.8566 41.8312 23.8742C41.7954 23.9216 41.7574 23.9687 41.7184 24.0171C41.6943 24.0469 41.6699 24.0771 41.6453 24.1083C41.6131 24.1491 41.5796 24.1884 41.5461 24.2275C41.5126 24.2667 41.4791 24.3059 41.4469 24.3468C41.4111 24.3934 41.3727 24.4367 41.3332 24.4811C41.3172 24.4991 41.301 24.5173 41.2848 24.536L41.2426 24.5846C41.0531 24.8002 40.8518 25.0144 40.6388 25.227C40.425 25.4455 40.2002 25.6566 39.9687 25.8729C39.7786 26.0464 39.5894 26.214 39.3876 26.3861C37.5309 28.3856 33.8941 30.5394 29.4506 32.0789C26.8379 32.9843 24.3139 33.5489 22.1312 33.774C20.9164 31.4359 20.1729 28.8137 20.0266 26.0332ZM23.7302 13.7035C27.1952 9.0295 32.7527 6 39.0178 6C42.0048 6 44.8309 6.68862 47.3461 7.91576L46.9704 7.94551C46.8923 7.94744 46.8076 7.95452 46.7288 7.96235C46.6507 7.96428 46.566 7.97135 46.4871 7.97918C46.4477 7.9831 46.4068 7.98682 46.3659 7.99055C46.325 7.99428 46.2841 7.998 46.2447 8.00192C46.2099 8.00538 46.1749 8.00998 46.1394 8.01467C46.0945 8.02058 46.0488 8.02661 46.0015 8.03056L45.619 8.07125L45.0303 8.13333L44.056 8.2597L43.8129 8.28835C43.8037 8.29016 43.793 8.29178 43.7823 8.2934C43.7716 8.29503 43.7609 8.29665 43.7517 8.29846C43.7425 8.30027 43.7318 8.30189 43.7211 8.30351C43.7104 8.30513 43.6997 8.30675 43.6905 8.30856C43.6813 8.31038 43.6706 8.312 43.6599 8.31363C43.6492 8.31525 43.6386 8.31687 43.6294 8.31869C43.6201 8.3205 43.6094 8.32212 43.5988 8.32374C43.588 8.32536 43.5774 8.32699 43.5682 8.3288L43.0795 8.40379L42.5975 8.47365C42.5761 8.4769 42.5563 8.48033 42.5363 8.48376C42.5165 8.4872 42.4965 8.49063 42.4752 8.49388C42.4538 8.49712 42.4339 8.50055 42.414 8.50399C42.3941 8.50742 42.3742 8.51085 42.3528 8.5141C42.3314 8.51734 42.3115 8.52078 42.2916 8.52421C42.2717 8.52764 42.2518 8.53108 42.2304 8.53432C42.2091 8.53757 42.1892 8.541 42.1693 8.54443C42.1494 8.54787 42.1295 8.55131 42.1081 8.55455L41.6246 8.63621L41.1403 8.72377L40.9015 8.765C40.8212 8.78461 40.7417 8.79833 40.6622 8.81204L40.6619 8.8121C40.6221 8.81897 40.5821 8.82732 40.5421 8.83566C40.5021 8.84401 40.4621 8.85236 40.4223 8.85922C40.342 8.87884 40.2625 8.89256 40.183 8.90628L40.1827 8.90633C39.8635 8.96719 39.5444 9.02804 39.2244 9.0948C38.9104 9.16232 38.5904 9.22908 38.2705 9.29584C38.175 9.31653 38.081 9.33741 37.987 9.3583C37.893 9.37918 37.799 9.40006 37.7035 9.42075C37.5745 9.44613 37.4514 9.47226 37.3216 9.50353L36.3772 9.7238C36.0624 9.79722 35.7534 9.8714 35.4379 9.95073C35.283 9.99077 35.1267 10.0306 34.9704 10.0705C34.8141 10.1103 34.6577 10.1502 34.5029 10.1902L34.5027 10.1903C34.1931 10.2703 33.8834 10.3504 33.573 10.4364C33.2686 10.5231 32.9582 10.6091 32.6479 10.695L32.6476 10.6951C32.3371 10.7811 32.0325 10.8679 31.7213 10.9598L31.0487 11.1611C31.0082 11.1739 30.9661 11.1864 30.9241 11.199C30.8821 11.2116 30.84 11.2242 30.7995 11.237C30.4941 11.3296 30.1888 11.4223 29.8827 11.5209C29.7297 11.5701 29.5781 11.6196 29.4265 11.6691C29.2749 11.7185 29.1234 11.768 28.9703 11.8173C28.8971 11.8415 28.8234 11.8657 28.7497 11.89C28.521 11.9651 28.2906 12.0408 28.0631 12.1204C27.7563 12.2248 27.4553 12.3301 27.1543 12.4353C26.8534 12.5405 26.5524 12.6457 26.2506 12.7569C25.9556 12.8629 25.6538 12.974 25.3521 13.0851C25.0504 13.1962 24.7546 13.3082 24.4521 13.4252C24.2136 13.5154 23.9708 13.6089 23.7302 13.7035Z" fill="white"/>
<path d="M54.8656 34.2957C55.3016 34.2957 55.6551 33.9422 55.6551 33.5062C55.6551 33.0703 55.3016 32.7168 54.8656 32.7168C54.4296 32.7168 54.0762 33.0703 54.0762 33.5062C54.0762 33.9422 54.4296 34.2957 54.8656 34.2957Z" fill="white"/>
<path d="M45.6946 28.8375C45.8477 28.8375 45.9718 28.7134 45.9718 28.5604C45.9718 28.4073 45.8477 28.2832 45.6946 28.2832C45.5416 28.2832 45.4175 28.4073 45.4175 28.5604C45.4175 28.7134 45.5416 28.8375 45.6946 28.8375Z" fill="white"/>
<path d="M41.1322 15.6423C41.576 15.6423 41.9358 15.2825 41.9358 14.8387C41.9358 14.3949 41.576 14.0352 41.1322 14.0352C40.6884 14.0352 40.3286 14.3949 40.3286 14.8387C40.3286 15.2825 40.6884 15.6423 41.1322 15.6423Z" fill="white"/>
<path d="M38.1857 32.7854C38.7774 32.7854 39.2571 32.3057 39.2571 31.714C39.2571 31.1223 38.7774 30.6426 38.1857 30.6426C37.5939 30.6426 37.1143 31.1223 37.1143 31.714C37.1143 32.3057 37.5939 32.7854 38.1857 32.7854Z" fill="white"/>
<path d="M45.9537 19.9275C46.3975 19.9275 46.7573 19.5677 46.7573 19.1239C46.7573 18.6801 46.3975 18.3203 45.9537 18.3203C45.5099 18.3203 45.1501 18.6801 45.1501 19.1239C45.1501 19.5677 45.5099 19.9275 45.9537 19.9275Z" fill="white"/>
<path d="M36.5067 11.7468C36.8268 11.7468 37.0862 11.4874 37.0862 11.1674C37.0862 10.8473 36.8268 10.5879 36.5067 10.5879C36.1867 10.5879 35.9272 10.8473 35.9272 11.1674C35.9272 11.4874 36.1867 11.7468 36.5067 11.7468Z" fill="white"/>
</g>
<path d="M82.4627 25.0612V31.3573C80.9107 31.9465 79.0046 32.2327 76.9132 32.2327C71.4655 32.2327 68.75 28.8658 68.75 24.7413C68.75 20.6842 71.4655 17.25 76.9132 17.25C78.9543 17.25 81.012 17.6203 82.3614 18.1254L81.7711 20.5664C80.135 19.9772 78.5493 19.7583 76.9132 19.7583C74.0798 19.7583 71.9041 21.5596 71.9041 24.7582C71.9041 27.9904 74.0798 29.758 76.9132 29.758C77.5711 29.758 78.718 29.7412 79.3084 29.657V25.0948H82.4627V25.0612Z" fill="white"/>
<path d="M92.9198 17.3516H96.5123L101.96 32.0144H98.4858L97.3555 28.6475H92.0594L90.8621 32.0144H87.3875L92.9198 17.3516ZM92.9873 26.0382H96.4448L94.7749 21.0383L92.9873 26.0382Z" fill="white"/>
<path d="M110.242 29.4044H117.748V32.0137H107.088V17.4688H110.242V29.4044Z" fill="white"/>
<path d="M125.894 17.5859H129.487L134.934 32.2488H131.46L130.33 28.8818H125.034L123.836 32.2488H120.362L125.894 17.5859ZM125.961 26.2894H129.419L127.749 21.2895L125.961 26.2894Z" fill="white"/>
<path d="M145.83 27.0146L142.238 32.25H138.544L143.773 24.7587L138.763 17.7051H142.339L145.813 22.6713L149.288 17.7051H152.88L147.871 24.7587L153.1 32.25H149.406L145.83 27.0146Z" fill="white"/>
<path d="M164.889 32.25H161.736V27.1492L156.726 17.7051H160.15L163.422 24.119L166.593 17.7051H170L164.889 27.1492V32.25Z" fill="white"/>
</svg>
