<?xml version="1.0" encoding="utf-8"?>
<!-- Generator: Adobe Illustrator 22.0.1, SVG Export Plug-In . SVG Version: 6.00 Build 0)  -->
<svg version="1.1" id="Layer_1" xmlns="http://www.w3.org/2000/svg" xmlns:xlink="http://www.w3.org/1999/xlink" x="0px" y="0px"
	 viewBox="0 0 1336 322" style="enable-background:new 0 0 1336 322;" xml:space="preserve">
<style type="text/css">
	.st0{filter:url(#Adobe_OpacityMaskFilter);}
	.st1{fill:#FFFFFF;}
	.st2{mask:url(#mask-2_1_);}
	.st3{fill-opacity:0;stroke:#000000;stroke-width:4;stroke-linecap:round;stroke-linejoin:round;}
	.st4{filter:url(#Adobe_OpacityMaskFilter_1_);}
	.st5{mask:url(#mask-9_1_);}
	.st6{filter:url(#Adobe_OpacityMaskFilter_2_);}
	.st7{mask:url(#mask-24_1_);}
	.st8{filter:url(#Adobe_OpacityMaskFilter_3_);}
	.st9{mask:url(#mask-43_1_);}
	.st10{filter:url(#Adobe_OpacityMaskFilter_4_);}
	.st11{mask:url(#mask-47_1_);}
	.st12{filter:url(#Adobe_OpacityMaskFilter_5_);}
	.st13{mask:url(#mask-53_1_);}
	.st14{filter:url(#Adobe_OpacityMaskFilter_6_);}
	.st15{mask:url(#mask-58_1_);}
	.st16{filter:url(#Adobe_OpacityMaskFilter_7_);}
	.st17{mask:url(#mask-62_1_);}
	.st18{filter:url(#Adobe_OpacityMaskFilter_8_);}
	.st19{mask:url(#mask-73_1_);}
	.st20{filter:url(#Adobe_OpacityMaskFilter_9_);}
	.st21{mask:url(#mask-80_1_);}
	.st22{filter:url(#Adobe_OpacityMaskFilter_10_);}
	.st23{mask:url(#mask-84_1_);}
	.st24{filter:url(#Adobe_OpacityMaskFilter_11_);}
	.st25{mask:url(#mask-90_1_);}
	.st26{filter:url(#Adobe_OpacityMaskFilter_12_);}
	.st27{mask:url(#mask-94_1_);}
	.st28{filter:url(#Adobe_OpacityMaskFilter_13_);}
	.st29{mask:url(#mask-99_1_);}
</style>
<g>
	<g>
		<defs>
			<filter id="Adobe_OpacityMaskFilter" filterUnits="userSpaceOnUse" x="812" y="230.3" width="118" height="56.3">
				<feColorMatrix  type="matrix" values="1 0 0 0 0  0 1 0 0 0  0 0 1 0 0  0 0 0 1 0"/>
			</filter>
		</defs>
		<mask maskUnits="userSpaceOnUse" x="812" y="230.3" width="118" height="56.3" id="mask-2_1_">
			<rect class="st0" width="1336" height="322"/>
			<g>
				<rect id="rect-1_1_" x="806" y="195" class="st1" width="127" height="127"/>
			</g>
		</mask>
		<g class="st2">
			<g>
				<g>
					<g>
						<path class="st3" d="M925.6,232.3h-68.8c-1.8,0-3.6,1.3-4.1,3l-13,46.2c-0.5,1.8,0.5,3,2.3,3h68.8c1.8,0,3.6-1.3,4.1-3
							l13-46.2C928.2,233.9,927.2,232.3,925.6,232.3L925.6,232.3z"/>
					</g>
					<g>
						<path class="st3" d="M854.3,233.4l25.4,27.4c1.5,1.8,4.6,1.8,6.9,0l40.6-27.4"/>
					</g>
				</g>
				<g>
					<g>
						<path class="st3" d="M824.3,239.2H839"/>
					</g>
					<g>
						<path class="st3" d="M819.2,256.7h14.7"/>
					</g>
					<g>
						<path class="st3" d="M814,274.5h14.7"/>
					</g>
				</g>
			</g>
		</g>
	</g>
	<g>
		<defs>
			<filter id="Adobe_OpacityMaskFilter_1_" filterUnits="userSpaceOnUse" x="607.1" y="3.1" width="120.8" height="120.8">
				<feColorMatrix  type="matrix" values="1 0 0 0 0  0 1 0 0 0  0 0 1 0 0  0 0 0 1 0"/>
			</filter>
		</defs>
		<mask maskUnits="userSpaceOnUse" x="607.1" y="3.1" width="120.8" height="120.8" id="mask-9_1_">
			<rect class="st4" width="1336" height="322"/>
			<g>
				<rect id="rect-8_1_" x="604" class="st1" width="127" height="127"/>
			</g>
		</mask>
		<g class="st5">
			<g>
				<g>
					<g>
						<ellipse class="st3" cx="667.5" cy="72.4" rx="34.3" ry="49.5"/>
					</g>
					<g>
						<g>
							<path class="st3" d="M678.2,25.1c0,0,4.6-16,16.5-20.1"/>
						</g>
						<g>
							<path class="st3" d="M656.8,25.1c0,0-4.6-16-16.5-20.1"/>
						</g>
					</g>
					<g>
						<path class="st3" d="M696.7,46.2c-8.4,3.3-18.3,5.3-29,5.3c-10.7,0-20.6-2-29-5.3"/>
					</g>
					<g>
						<path class="st3" d="M667.5,51.6v70.4"/>
					</g>
					<g>
						<path class="st3" d="M719.6,37.1l-3,16.5L701,60.7"/>
					</g>
					<g>
						<path class="st3" d="M719.6,117.3l-4.8-11.2l-17.3-7.9"/>
					</g>
					<g>
						<path class="st3" d="M725.9,70.4l-8.6,9.7l-15.5,1.5"/>
					</g>
					<g>
						<path class="st3" d="M615.4,37.1l3,16.5l15.5,7.1"/>
					</g>
					<g>
						<path class="st3" d="M615.4,117.3l4.8-11.2l17.3-7.9"/>
					</g>
					<g>
						<path class="st3" d="M609.1,70.4l8.6,9.7l15.5,1.5"/>
					</g>
				</g>
				<g>
					<g>
						<path class="st3" d="M657.6,37.1l2.5,2.5"/>
					</g>
					<g>
						<path class="st3" d="M677.4,37.1l-2.5,2.5"/>
					</g>
				</g>
			</g>
		</g>
	</g>
	<g>
		<defs>
			<filter id="Adobe_OpacityMaskFilter_2_" filterUnits="userSpaceOnUse" x="3.1" y="198.1" width="120.8" height="120.8">
				<feColorMatrix  type="matrix" values="1 0 0 0 0  0 1 0 0 0  0 0 1 0 0  0 0 0 1 0"/>
			</filter>
		</defs>
		<mask maskUnits="userSpaceOnUse" x="3.1" y="198.1" width="120.8" height="120.8" id="mask-24_1_">
			<rect class="st6" width="1336" height="322"/>
			<g>
				<rect id="rect-23_1_" y="195" class="st1" width="127" height="127"/>
			</g>
		</mask>
		<g class="st7">
			<g>
				<g>
					<rect x="5.1" y="231.3" class="st3" width="116.8" height="85.6"/>
				</g>
				<g>
					<rect x="5.1" y="211.8" class="st3" width="116.8" height="19.6"/>
				</g>
				<g>
					<g>
						<g>
							<path class="st3" d="M25.1,200.1v21.3"/>
						</g>
						<g>
							<path class="st3" d="M40.6,200.1v21.3"/>
						</g>
					</g>
					<g>
						<g>
							<path class="st3" d="M86.4,200.1v21.3"/>
						</g>
						<g>
							<path class="st3" d="M101.9,200.1v21.3"/>
						</g>
					</g>
				</g>
				<g>
					<g>
						<rect x="57.2" y="243.8" class="st3" width="12.4" height="12.4"/>
					</g>
					<g>
						<rect x="78.7" y="243.8" class="st3" width="12.4" height="12.4"/>
					</g>
					<g>
						<rect x="100.1" y="243.8" class="st3" width="12.4" height="12.4"/>
					</g>
					<g>
						<rect x="14.2" y="267.9" class="st3" width="12.4" height="12.4"/>
					</g>
					<g>
						<rect x="35.8" y="267.9" class="st3" width="12.4" height="12.4"/>
					</g>
					<g>
						<rect x="57.2" y="267.9" class="st3" width="12.4" height="12.4"/>
					</g>
					<g>
						<rect x="78.7" y="267.9" class="st3" width="12.4" height="12.4"/>
					</g>
					<g>
						<rect x="100.1" y="267.9" class="st3" width="12.4" height="12.4"/>
					</g>
					<g>
						<rect x="14.2" y="291.8" class="st3" width="12.4" height="12.4"/>
					</g>
					<g>
						<rect x="35.8" y="291.8" class="st3" width="12.4" height="12.4"/>
					</g>
					<g>
						<rect x="57.2" y="291.8" class="st3" width="12.4" height="12.4"/>
					</g>
				</g>
			</g>
		</g>
	</g>
	<g>
		<defs>
			<filter id="Adobe_OpacityMaskFilter_3_" filterUnits="userSpaceOnUse" x="204.1" y="3.1" width="120.8" height="120.8">
				<feColorMatrix  type="matrix" values="1 0 0 0 0  0 1 0 0 0  0 0 1 0 0  0 0 0 1 0"/>
			</filter>
		</defs>
		<mask maskUnits="userSpaceOnUse" x="204.1" y="3.1" width="120.8" height="120.8" id="mask-43_1_">
			<rect class="st8" width="1336" height="322"/>
			<g>
				<rect id="rect-42_1_" x="201" class="st1" width="127" height="127"/>
			</g>
		</mask>
		<g class="st9">
			<g>
				<g>
					<path class="st3" d="M231.5,68.6l18.8,18.5l47.2-47.2"/>
				</g>
				<g>
					<ellipse class="st3" cx="264.5" cy="63.5" rx="58.4" ry="58.4"/>
				</g>
			</g>
		</g>
	</g>
	<g>
		<defs>
			<filter id="Adobe_OpacityMaskFilter_4_" filterUnits="userSpaceOnUse" x="1212.1" y="22.1" width="120.8" height="82.5">
				<feColorMatrix  type="matrix" values="1 0 0 0 0  0 1 0 0 0  0 0 1 0 0  0 0 0 1 0"/>
			</filter>
		</defs>
		<mask maskUnits="userSpaceOnUse" x="1212.1" y="22.1" width="120.8" height="82.5" id="mask-47_1_">
			<rect class="st10" width="1336" height="322"/>
			<g>
				<rect id="rect-46_1_" x="1209" class="st1" width="127" height="127"/>
			</g>
		</mask>
		<g class="st11">
			<g>
				<g>
					<path class="st3" d="M1325.8,24.1h-106.7c-2.8,0-5.1,2.3-5.1,5.1v68.3c0,2.8,2.3,5.1,5.1,5.1h106.7c2.8,0,5.1-2.3,5.1-5.1V29.5
						C1330.9,26.4,1328.6,24.1,1325.8,24.1L1325.8,24.1z"/>
				</g>
				<g>
					<path class="st3" d="M1328.9,25.7l-56.4,46.5l-56.4-46.5"/>
				</g>
				<g>
					<path class="st3" d="M1282.9,63.5l46,37.8"/>
				</g>
				<g>
					<path class="st3" d="M1216.1,101.3l46-37.8"/>
				</g>
			</g>
		</g>
	</g>
	<g>
		<defs>
			<filter id="Adobe_OpacityMaskFilter_5_" filterUnits="userSpaceOnUse" x="406.1" y="3.1" width="120.8" height="120.8">
				<feColorMatrix  type="matrix" values="1 0 0 0 0  0 1 0 0 0  0 0 1 0 0  0 0 0 1 0"/>
			</filter>
		</defs>
		<mask maskUnits="userSpaceOnUse" x="406.1" y="3.1" width="120.8" height="120.8" id="mask-53_1_">
			<rect class="st12" width="1336" height="322"/>
			<g>
				<rect id="rect-52_1_" x="403" class="st1" width="127" height="127"/>
			</g>
		</mask>
		<g class="st13">
			<g>
				<g>
					<ellipse class="st3" cx="466.5" cy="63.5" rx="58.4" ry="58.4"/>
				</g>
				<g>
					<path class="st3" d="M443.9,40.9l45.2,45.2"/>
				</g>
				<g>
					<path class="st3" d="M489.1,40.9l-45.2,45.2"/>
				</g>
			</g>
		</g>
	</g>
	<g>
		<defs>
			<filter id="Adobe_OpacityMaskFilter_6_" filterUnits="userSpaceOnUse" x="809.1" y="3.1" width="120.8" height="120.8">
				<feColorMatrix  type="matrix" values="1 0 0 0 0  0 1 0 0 0  0 0 1 0 0  0 0 0 1 0"/>
			</filter>
		</defs>
		<mask maskUnits="userSpaceOnUse" x="809.1" y="3.1" width="120.8" height="120.8" id="mask-58_1_">
			<rect class="st14" width="1336" height="322"/>
			<g>
				<rect id="rect-57_1_" x="806" class="st1" width="127" height="127"/>
			</g>
		</mask>
		<g class="st15">
			<g>
				<g>
					<ellipse class="st3" cx="869.5" cy="63.5" rx="25.9" ry="25.9"/>
				</g>
				<g>
					<path class="st3" d="M927.9,73.9V53.1L912.2,49c-0.8-2-1.5-3.8-2.3-5.6l8.4-14l-14.7-14.7l-14,8.4c-1.8-1-3.8-1.8-5.6-2.3
						l-4.1-15.7h-20.8L855,20.8c-2,0.8-3.8,1.5-5.6,2.3l-14-8.4l-14.7,14.7l8.4,14c-1,1.8-1.8,3.8-2.3,5.6l-15.7,4.1v20.8l15.7,4.1
						c0.8,2,1.5,3.8,2.3,5.6l-8.4,14l14.7,14.7l14-8.4c1.8,1,3.8,1.8,5.6,2.3l4.1,15.7h20.8l4.1-15.7c2-0.8,3.8-1.5,5.6-2.3l14,8.4
						l14.7-14.7l-8.4-14c1-1.8,1.8-3.8,2.3-5.6L927.9,73.9L927.9,73.9z"/>
				</g>
			</g>
		</g>
	</g>
	<g>
		<defs>
			<filter id="Adobe_OpacityMaskFilter_7_" filterUnits="userSpaceOnUse" x="607.1" y="198.1" width="120.8" height="121.1">
				<feColorMatrix  type="matrix" values="1 0 0 0 0  0 1 0 0 0  0 0 1 0 0  0 0 0 1 0"/>
			</filter>
		</defs>
		<mask maskUnits="userSpaceOnUse" x="607.1" y="198.1" width="120.8" height="121.1" id="mask-62_1_">
			<rect class="st16" width="1336" height="322"/>
			<g>
				<rect id="rect-61_1_" x="604" y="195" class="st1" width="127" height="127"/>
			</g>
		</mask>
		<g class="st17">
			<g>
				<g>
					<path class="st3" d="M629.9,234.9h-16c-2.8,0-4.8,2-4.8,4.8v72.6c0,2.5,2.3,4.8,4.8,4.8h107.2c2.8,0,4.8-2,4.8-4.8v-72.6
						c0-2.5-2.3-4.8-4.8-4.8h-16"/>
				</g>
				<g>
					<path class="st3" d="M610.6,236.1l51.6,43.2c3,2.5,7.6,2.5,10.9,0l51.6-43.2"/>
				</g>
				<g>
					<path class="st3" d="M657.3,275.5l-46.7,39.4"/>
				</g>
				<g>
					<path class="st3" d="M724.4,314.9L677.9,276"/>
				</g>
				<g>
					<path class="st3" d="M629.9,252.4v-52.3h75.2v52.3"/>
				</g>
				<g>
					<path class="st3" d="M642.6,212.8H694"/>
				</g>
				<g>
					<path class="st3" d="M642.6,226.2H694"/>
				</g>
				<g>
					<path class="st3" d="M642.6,239.7H694"/>
				</g>
				<g>
					<path class="st3" d="M649,252.9h38.7"/>
				</g>
			</g>
		</g>
	</g>
	<g>
		<defs>
			<filter id="Adobe_OpacityMaskFilter_8_" filterUnits="userSpaceOnUse" x="406" y="198.3" width="120.9" height="120.6">
				<feColorMatrix  type="matrix" values="1 0 0 0 0  0 1 0 0 0  0 0 1 0 0  0 0 0 1 0"/>
			</filter>
		</defs>
		<mask maskUnits="userSpaceOnUse" x="406" y="198.3" width="120.9" height="120.6" id="mask-73_1_">
			<rect class="st18" width="1336" height="322"/>
			<g>
				<rect id="rect-72_1_" x="403" y="195" class="st1" width="127" height="127"/>
			</g>
		</mask>
		<g class="st19">
			<g>
				<g>
					<g>
						<path class="st3" d="M524.7,246.1l-7.9,26.2c-4.6-4.3-10.7-6.9-17.5-6.9c-14.2,0-25.7,11.4-25.7,25.7c0,2,0.3,4.3,0.8,6.1
							h-61.2c-0.5,0-1,0-1.3-0.3c-0.3,0-0.3,0-0.5-0.3h-0.5c0,0-0.3,0-0.3-0.3c0,0.3-0.3,0.3-0.3,0l0,0c-0.8-0.5-1.3-1.3-1.5-2
							c-0.3-0.3-0.3-0.5-0.3-0.8v-0.3c0-0.3-0.3-0.5-0.3-0.8v-0.3v-0.5c0-0.5,0-1.3,0.3-1.8l14.2-47.5c0.8-2.3,2.8-3.8,4.8-3.8h92.2
							C523.4,238.9,525.7,242.5,524.7,246.1L524.7,246.1z"/>
					</g>
					<g>
						<path class="st3" d="M511.2,238.9v-20.8c0-2.8-2.3-5.1-5.1-5.1h-58.9c-2,0-3.8-1-4.6-2.8l-3.3-7.1c-0.8-1.8-2.5-2.8-4.6-2.8
							h-21.6c-2.8-0.3-5.1,2-5.1,4.8v87.1c0,2.3,1.5,4.3,3.8,4.8c-2.8-0.8-4.6-3.8-3.6-6.9"/>
					</g>
				</g>
				<g>
					<path class="st3" d="M524.9,291.3c0,14.2-11.4,25.7-25.7,25.7c-12.2,0-22.1-8.4-24.9-19.6c-0.5-2-0.8-4.1-0.8-6.1
						c0-14.2,11.4-25.7,25.7-25.7c6.9,0,13,2.5,17.5,6.9C521.9,277,524.9,283.9,524.9,291.3L524.9,291.3z"/>
				</g>
				<g>
					<path class="st3" d="M499.3,277.5v27.2"/>
				</g>
				<g>
					<path class="st3" d="M512.7,291.3h-27.2"/>
				</g>
			</g>
		</g>
	</g>
	<g>
		<defs>
			<filter id="Adobe_OpacityMaskFilter_9_" filterUnits="userSpaceOnUse" x="1227.1" y="198.1" width="90.7" height="120.5">
				<feColorMatrix  type="matrix" values="1 0 0 0 0  0 1 0 0 0  0 0 1 0 0  0 0 0 1 0"/>
			</filter>
		</defs>
		<mask maskUnits="userSpaceOnUse" x="1227.1" y="198.1" width="90.7" height="120.5" id="mask-80_1_">
			<rect class="st20" width="1336" height="322"/>
			<g>
				<rect id="rect-79_1_" x="1209" y="195" class="st1" width="127" height="127"/>
			</g>
		</mask>
		<g class="st21">
			<g>
				<g>
					<path class="st3" d="M1242.5,273.7l-10.2,10.2c-4.3,4.3-4.3,11.7,0,16l13.5,13.5c4.3,4.3,11.7,4.3,16,0l39.4-39.4
						c4.3-4.3,4.3-11.7,0-16l-13.5-13.2c-4.3-4.3-11.7-4.3-16,0l-11.4,11.4"/>
				</g>
				<g>
					<path class="st3" d="M1304,241.5l8.6-8.6c4.3-4.3,4.3-11.7,0-16l-13.5-13.5c-4.3-4.3-11.7-4.3-16,0l-39.4,39.4
						c-4.3,4.3-4.3,11.7,0,16l13.5,13.5c4.3,4.3,11.7,4.3,16,0l10.9-10.9"/>
				</g>
			</g>
		</g>
	</g>
	<g>
		<defs>
			<filter id="Adobe_OpacityMaskFilter_10_" filterUnits="userSpaceOnUse" x="1010.1" y="204.7" width="120.8" height="107.4">
				<feColorMatrix  type="matrix" values="1 0 0 0 0  0 1 0 0 0  0 0 1 0 0  0 0 0 1 0"/>
			</filter>
		</defs>
		<mask maskUnits="userSpaceOnUse" x="1010.1" y="204.7" width="120.8" height="107.4" id="mask-84_1_">
			<rect class="st22" width="1336" height="322"/>
			<g>
				<rect id="rect-83_1_" x="1007" y="195" class="st1" width="127" height="127"/>
			</g>
		</mask>
		<g class="st23">
			<g>
				<g>
					<path class="st3" d="M1124.9,262.6V306c0,2.3-1.8,4.1-4.1,4.1h-100.6c-2.3,0-4.1-1.8-4.1-4.1v-43.4h45.7v11.2h17.3v-11.2
						H1124.9L1124.9,262.6z"/>
				</g>
				<g>
					<path class="st3" d="M1128.9,225.2v37.3h-49.8v-8.1h-17.3v8.1h-49.8v-37.3c0-2,1.5-3.6,3.6-3.6h109.5
						C1127.4,221.7,1128.9,223.4,1128.9,225.2L1128.9,225.2z"/>
				</g>
				<g>
					<rect x="1061.9" y="254.7" class="st3" width="17.3" height="19.3"/>
				</g>
				<g>
					<path class="st3" d="M1099.2,221.7h-57.4l4.6-15h48.3L1099.2,221.7z"/>
				</g>
			</g>
		</g>
	</g>
	<g>
		<defs>
			<filter id="Adobe_OpacityMaskFilter_11_" filterUnits="userSpaceOnUse" x="204" y="208" width="121" height="101.3">
				<feColorMatrix  type="matrix" values="1 0 0 0 0  0 1 0 0 0  0 0 1 0 0  0 0 0 1 0"/>
			</filter>
		</defs>
		<mask maskUnits="userSpaceOnUse" x="204" y="208" width="121" height="101.3" id="mask-90_1_">
			<rect class="st24" width="1336" height="322"/>
			<g>
				<rect id="rect-89_1_" x="201" y="195" class="st1" width="127" height="127"/>
			</g>
		</mask>
		<g class="st25">
			<g>
				<g>
					<path class="st3" d="M303.4,307.3h-92.2c-3.6,0-6.1-3.6-4.8-7.1l14.2-47.5c0.8-2.3,2.8-3.8,4.8-3.8h92.5c3.6,0,6.1,3.6,4.8,7.1
						l-14.2,47.5C307.7,305.7,305.6,307.3,303.4,307.3L303.4,307.3z"/>
				</g>
				<g>
					<path class="st3" d="M206.3,299.9l14.2-47.5c0.8-2.3,2.8-3.8,4.8-3.8H309V228c0-2.8-2.3-5.1-5.1-5.1h-58.7c-2,0-3.8-1-4.6-2.8
						l-3.6-7.4c-0.8-1.8-2.5-2.8-4.6-2.8h-21.3c-2.8,0-5.1,2.3-5.1,5.1v87.1c0,2.3,1.5,4.3,3.8,4.8
						C207.1,306.3,205.3,303,206.3,299.9L206.3,299.9z"/>
				</g>
			</g>
		</g>
	</g>
	<g>
		<defs>
			<filter id="Adobe_OpacityMaskFilter_12_" filterUnits="userSpaceOnUse" x="3.1" y="3.1" width="120.8" height="120.8">
				<feColorMatrix  type="matrix" values="1 0 0 0 0  0 1 0 0 0  0 0 1 0 0  0 0 0 1 0"/>
			</filter>
		</defs>
		<mask maskUnits="userSpaceOnUse" x="3.1" y="3.1" width="120.8" height="120.8" id="mask-94_1_">
			<rect class="st26" width="1336" height="322"/>
			<g>
				<rect id="rect-93_1_" class="st1" width="127" height="127"/>
			</g>
		</mask>
		<g class="st27">
			<g>
				<g>
					<ellipse class="st3" cx="63.5" cy="63.5" rx="58.4" ry="58.4"/>
				</g>
				<g>
					<path class="st3" d="M23.6,106.2c0-22.1,17.8-39.9,39.9-39.9s39.9,17.8,39.9,39.9"/>
				</g>
				<g>
					<ellipse class="st3" cx="63.5" cy="37.6" rx="15.5" ry="15.5"/>
				</g>
			</g>
		</g>
	</g>
	<g>
		<defs>
			<filter id="Adobe_OpacityMaskFilter_13_" filterUnits="userSpaceOnUse" x="1010.1" y="3" width="120.9" height="120.9">
				<feColorMatrix  type="matrix" values="1 0 0 0 0  0 1 0 0 0  0 0 1 0 0  0 0 0 1 0"/>
			</filter>
		</defs>
		<mask maskUnits="userSpaceOnUse" x="1010.1" y="3" width="120.9" height="120.9" id="mask-99_1_">
			<rect class="st28" width="1336" height="322"/>
			<g>
				<rect id="rect-98_1_" x="1007" class="st1" width="127" height="127"/>
			</g>
		</mask>
		<g class="st29">
			<g>
				<g>
					<path class="st3" d="M1127.9,106.4l-47.8-95.5c-3.8-7.9-15.2-7.9-19,0l-48,95.5c-3.3,7.1,1.8,15.5,9.7,15.5h95.5
						C1126.1,121.9,1131.2,113.5,1127.9,106.4L1127.9,106.4z"/>
				</g>
				<g>
					<g>
						<path class="st3" d="M1074.8,83.1h-8.6l-3.6-38.6h15.7L1074.8,83.1z"/>
					</g>
					<g>
						<ellipse class="st3" cx="1070.5" cy="100.6" rx="6.9" ry="6.9"/>
					</g>
				</g>
			</g>
		</g>
	</g>
</g>
</svg>
