<svg width="586" height="264" viewBox="0 0 586 264" fill="none" xmlns="http://www.w3.org/2000/svg">
<path d="M0 10C0 4.47716 4.47715 0 10 0H576C581.523 0 586 4.47715 586 10V254C586 259.523 581.523 264 576 264H10C4.47717 264 0 259.523 0 254V10Z" fill="#6300E2"/>
<path d="M268.575 104.175V121.8H263.675V112.075L260.35 121.8H256.25L252.9 112V121.8H248V104.175H253.925L258.35 115.625L262.675 104.175H268.575Z" fill="white"/>
<path d="M282.514 118.925H276.264L275.314 121.8H270.164L276.589 104.175H282.239L288.639 121.8H283.464L282.514 118.925ZM281.289 115.175L279.389 109.475L277.514 115.175H281.289Z" fill="white"/>
<path d="M304.161 110.05C304.161 111.117 303.911 112.092 303.411 112.975C302.928 113.842 302.186 114.542 301.186 115.075C300.203 115.592 298.995 115.85 297.561 115.85H295.136V121.8H290.236V104.175H297.561C298.978 104.175 300.178 104.425 301.161 104.925C302.161 105.425 302.911 106.117 303.411 107C303.911 107.883 304.161 108.9 304.161 110.05ZM297.086 111.95C298.47 111.95 299.161 111.317 299.161 110.05C299.161 108.767 298.47 108.125 297.086 108.125H295.136V111.95H297.086Z" fill="white"/>
<path d="M320.055 110.05C320.055 111.117 319.805 112.092 319.305 112.975C318.822 113.842 318.08 114.542 317.08 115.075C316.097 115.592 314.888 115.85 313.455 115.85H311.03V121.8H306.13V104.175H313.455C314.872 104.175 316.072 104.425 317.055 104.925C318.055 105.425 318.805 106.117 319.305 107C319.805 107.883 320.055 108.9 320.055 110.05ZM312.98 111.95C314.363 111.95 315.055 111.317 315.055 110.05C315.055 108.767 314.363 108.125 312.98 108.125H311.03V111.95H312.98Z" fill="white"/>
<path d="M326.923 104.175V121.8H322.023V104.175H326.923Z" fill="white"/>
<path d="M346.039 121.8H341.139L334.614 111.95V121.8H329.714V104.175H334.614L341.139 114.15V104.175H346.039V121.8Z" fill="white"/>
<path d="M360.08 109.975C359.797 109.508 359.405 109.15 358.905 108.9C358.422 108.65 357.847 108.525 357.18 108.525C355.947 108.525 354.972 108.925 354.255 109.725C353.555 110.525 353.205 111.6 353.205 112.95C353.205 114.467 353.58 115.625 354.33 116.425C355.097 117.208 356.205 117.6 357.655 117.6C359.372 117.6 360.597 116.825 361.33 115.275H356.405V111.75H365.555V116.5C365.172 117.433 364.605 118.308 363.855 119.125C363.122 119.942 362.188 120.617 361.055 121.15C359.922 121.667 358.63 121.925 357.18 121.925C355.413 121.925 353.847 121.55 352.48 120.8C351.13 120.033 350.08 118.975 349.33 117.625C348.597 116.258 348.23 114.7 348.23 112.95C348.23 111.217 348.597 109.675 349.33 108.325C350.08 106.958 351.13 105.9 352.48 105.15C353.83 104.383 355.388 104 357.155 104C359.372 104 361.205 104.533 362.655 105.6C364.105 106.667 365.005 108.125 365.355 109.975H360.08Z" fill="white"/>
<path d="M265 145.85C266.067 145.85 267.017 146.075 267.85 146.525C268.683 146.958 269.342 147.617 269.825 148.5C270.308 149.383 270.55 150.458 270.55 151.725V159.8H268.3V152.05C268.3 150.683 267.958 149.642 267.275 148.925C266.608 148.192 265.7 147.825 264.55 147.825C263.367 147.825 262.425 148.208 261.725 148.975C261.025 149.725 260.675 150.817 260.675 152.25V159.8H258.425V152.05C258.425 150.683 258.083 149.642 257.4 148.925C256.733 148.192 255.825 147.825 254.675 147.825C253.492 147.825 252.55 148.208 251.85 148.975C251.15 149.725 250.8 150.817 250.8 152.25V159.8H248.525V146.1H250.8V148.075C251.25 147.358 251.85 146.808 252.6 146.425C253.367 146.042 254.208 145.85 255.125 145.85C256.275 145.85 257.292 146.108 258.175 146.625C259.058 147.142 259.717 147.9 260.15 148.9C260.533 147.933 261.167 147.183 262.05 146.65C262.933 146.117 263.917 145.85 265 145.85Z" fill="white"/>
<path d="M273.432 152.9C273.432 151.5 273.715 150.275 274.282 149.225C274.849 148.158 275.624 147.333 276.607 146.75C277.607 146.167 278.715 145.875 279.932 145.875C281.132 145.875 282.174 146.133 283.057 146.65C283.94 147.167 284.599 147.817 285.032 148.6V146.1H287.332V159.8H285.032V157.25C284.582 158.05 283.907 158.717 283.007 159.25C282.124 159.767 281.09 160.025 279.907 160.025C278.69 160.025 277.59 159.725 276.607 159.125C275.624 158.525 274.849 157.683 274.282 156.6C273.715 155.517 273.432 154.283 273.432 152.9ZM285.032 152.925C285.032 151.892 284.824 150.992 284.407 150.225C283.99 149.458 283.424 148.875 282.707 148.475C282.007 148.058 281.232 147.85 280.382 147.85C279.532 147.85 278.757 148.05 278.057 148.45C277.357 148.85 276.799 149.433 276.382 150.2C275.965 150.967 275.757 151.867 275.757 152.9C275.757 153.95 275.965 154.867 276.382 155.65C276.799 156.417 277.357 157.008 278.057 157.425C278.757 157.825 279.532 158.025 280.382 158.025C281.232 158.025 282.007 157.825 282.707 157.425C283.424 157.008 283.99 156.417 284.407 155.65C284.824 154.867 285.032 153.958 285.032 152.925Z" fill="white"/>
<path d="M293.451 148.625C293.901 147.842 294.568 147.192 295.451 146.675C296.351 146.142 297.393 145.875 298.576 145.875C299.793 145.875 300.893 146.167 301.876 146.75C302.876 147.333 303.66 148.158 304.226 149.225C304.793 150.275 305.076 151.5 305.076 152.9C305.076 154.283 304.793 155.517 304.226 156.6C303.66 157.683 302.876 158.525 301.876 159.125C300.893 159.725 299.793 160.025 298.576 160.025C297.41 160.025 296.376 159.767 295.476 159.25C294.593 158.717 293.918 158.058 293.451 157.275V166.3H291.176V146.1H293.451V148.625ZM302.751 152.9C302.751 151.867 302.543 150.967 302.126 150.2C301.71 149.433 301.143 148.85 300.426 148.45C299.726 148.05 298.951 147.85 298.101 147.85C297.268 147.85 296.493 148.058 295.776 148.475C295.076 148.875 294.51 149.467 294.076 150.25C293.66 151.017 293.451 151.908 293.451 152.925C293.451 153.958 293.66 154.867 294.076 155.65C294.51 156.417 295.076 157.008 295.776 157.425C296.493 157.825 297.268 158.025 298.101 158.025C298.951 158.025 299.726 157.825 300.426 157.425C301.143 157.008 301.71 156.417 302.126 155.65C302.543 154.867 302.751 153.95 302.751 152.9Z" fill="white"/>
<path d="M310.346 148.625C310.796 147.842 311.463 147.192 312.346 146.675C313.246 146.142 314.288 145.875 315.471 145.875C316.688 145.875 317.788 146.167 318.771 146.75C319.771 147.333 320.554 148.158 321.121 149.225C321.688 150.275 321.971 151.5 321.971 152.9C321.971 154.283 321.688 155.517 321.121 156.6C320.554 157.683 319.771 158.525 318.771 159.125C317.788 159.725 316.688 160.025 315.471 160.025C314.304 160.025 313.271 159.767 312.371 159.25C311.488 158.717 310.813 158.058 310.346 157.275V166.3H308.071V146.1H310.346V148.625ZM319.646 152.9C319.646 151.867 319.438 150.967 319.021 150.2C318.604 149.433 318.038 148.85 317.321 148.45C316.621 148.05 315.846 147.85 314.996 147.85C314.163 147.85 313.388 148.058 312.671 148.475C311.971 148.875 311.404 149.467 310.971 150.25C310.554 151.017 310.346 151.908 310.346 152.925C310.346 153.958 310.554 154.867 310.971 155.65C311.404 156.417 311.971 157.008 312.671 157.425C313.388 157.825 314.163 158.025 314.996 158.025C315.846 158.025 316.621 157.825 317.321 157.425C318.038 157.008 318.604 156.417 319.021 155.65C319.438 154.867 319.646 153.95 319.646 152.9Z" fill="white"/>
<path d="M326.14 143.875C325.707 143.875 325.34 143.725 325.04 143.425C324.74 143.125 324.59 142.758 324.59 142.325C324.59 141.892 324.74 141.525 325.04 141.225C325.34 140.925 325.707 140.775 326.14 140.775C326.557 140.775 326.907 140.925 327.19 141.225C327.49 141.525 327.64 141.892 327.64 142.325C327.64 142.758 327.49 143.125 327.19 143.425C326.907 143.725 326.557 143.875 326.14 143.875ZM327.24 146.1V159.8H324.965V146.1H327.24Z" fill="white"/>
<path d="M337.793 145.85C339.459 145.85 340.809 146.358 341.843 147.375C342.876 148.375 343.393 149.825 343.393 151.725V159.8H341.143V152.05C341.143 150.683 340.801 149.642 340.118 148.925C339.434 148.192 338.501 147.825 337.318 147.825C336.118 147.825 335.159 148.2 334.443 148.95C333.743 149.7 333.393 150.792 333.393 152.225V159.8H331.118V146.1H333.393V148.05C333.843 147.35 334.451 146.808 335.218 146.425C336.001 146.042 336.859 145.85 337.793 145.85Z" fill="white"/>
<path d="M352.759 145.875C353.942 145.875 354.976 146.133 355.859 146.65C356.759 147.167 357.426 147.817 357.859 148.6V146.1H360.159V160.1C360.159 161.35 359.892 162.458 359.359 163.425C358.826 164.408 358.059 165.175 357.059 165.725C356.076 166.275 354.926 166.55 353.609 166.55C351.809 166.55 350.309 166.125 349.109 165.275C347.909 164.425 347.201 163.267 346.984 161.8H349.234C349.484 162.633 350.001 163.3 350.784 163.8C351.567 164.317 352.509 164.575 353.609 164.575C354.859 164.575 355.876 164.183 356.659 163.4C357.459 162.617 357.859 161.517 357.859 160.1V157.225C357.409 158.025 356.742 158.692 355.859 159.225C354.976 159.758 353.942 160.025 352.759 160.025C351.542 160.025 350.434 159.725 349.434 159.125C348.451 158.525 347.676 157.683 347.109 156.6C346.542 155.517 346.259 154.283 346.259 152.9C346.259 151.5 346.542 150.275 347.109 149.225C347.676 148.158 348.451 147.333 349.434 146.75C350.434 146.167 351.542 145.875 352.759 145.875ZM357.859 152.925C357.859 151.892 357.651 150.992 357.234 150.225C356.817 149.458 356.251 148.875 355.534 148.475C354.834 148.058 354.059 147.85 353.209 147.85C352.359 147.85 351.584 148.05 350.884 148.45C350.184 148.85 349.626 149.433 349.209 150.2C348.792 150.967 348.584 151.867 348.584 152.9C348.584 153.95 348.792 154.867 349.209 155.65C349.626 156.417 350.184 157.008 350.884 157.425C351.584 157.825 352.359 158.025 353.209 158.025C354.059 158.025 354.834 157.825 355.534 157.425C356.251 157.008 356.817 156.417 357.234 155.65C357.651 154.867 357.859 153.958 357.859 152.925Z" fill="white"/>
<path d="M369.819 152.9C369.819 151.5 370.102 150.275 370.669 149.225C371.235 148.158 372.01 147.333 372.994 146.75C373.994 146.167 375.102 145.875 376.319 145.875C377.519 145.875 378.56 146.133 379.444 146.65C380.327 147.167 380.985 147.817 381.419 148.6V146.1H383.719V159.8H381.419V157.25C380.969 158.05 380.294 158.717 379.394 159.25C378.51 159.767 377.477 160.025 376.294 160.025C375.077 160.025 373.977 159.725 372.994 159.125C372.01 158.525 371.235 157.683 370.669 156.6C370.102 155.517 369.819 154.283 369.819 152.9ZM381.419 152.925C381.419 151.892 381.21 150.992 380.794 150.225C380.377 149.458 379.81 148.875 379.094 148.475C378.394 148.058 377.619 147.85 376.769 147.85C375.919 147.85 375.144 148.05 374.444 148.45C373.744 148.85 373.185 149.433 372.769 150.2C372.352 150.967 372.144 151.867 372.144 152.9C372.144 153.95 372.352 154.867 372.769 155.65C373.185 156.417 373.744 157.008 374.444 157.425C375.144 157.825 375.919 158.025 376.769 158.025C377.619 158.025 378.394 157.825 379.094 157.425C379.81 157.008 380.377 156.417 380.794 155.65C381.21 154.867 381.419 153.958 381.419 152.925Z" fill="white"/>
<path d="M396.503 148.325C396.903 147.542 397.47 146.933 398.203 146.5C398.953 146.067 399.861 145.85 400.928 145.85V148.2H400.328C397.778 148.2 396.503 149.583 396.503 152.35V159.8H394.228V146.1H396.503V148.325Z" fill="white"/>
<path d="M416.054 152.425C416.054 152.858 416.029 153.317 415.979 153.8H405.029C405.113 155.15 405.571 156.208 406.404 156.975C407.254 157.725 408.279 158.1 409.479 158.1C410.463 158.1 411.279 157.875 411.929 157.425C412.596 156.958 413.063 156.342 413.329 155.575H415.779C415.413 156.892 414.679 157.967 413.579 158.8C412.479 159.617 411.113 160.025 409.479 160.025C408.179 160.025 407.013 159.733 405.979 159.15C404.963 158.567 404.163 157.742 403.579 156.675C402.996 155.592 402.704 154.342 402.704 152.925C402.704 151.508 402.988 150.267 403.554 149.2C404.121 148.133 404.913 147.317 405.929 146.75C406.963 146.167 408.146 145.875 409.479 145.875C410.779 145.875 411.929 146.158 412.929 146.725C413.929 147.292 414.696 148.075 415.229 149.075C415.779 150.058 416.054 151.175 416.054 152.425ZM413.704 151.95C413.704 151.083 413.513 150.342 413.129 149.725C412.746 149.092 412.221 148.617 411.554 148.3C410.904 147.967 410.179 147.8 409.379 147.8C408.229 147.8 407.246 148.167 406.429 148.9C405.629 149.633 405.171 150.65 405.054 151.95H413.704Z" fill="white"/>
<path d="M418.207 152.9C418.207 151.5 418.491 150.275 419.057 149.225C419.624 148.158 420.399 147.333 421.382 146.75C422.382 146.167 423.499 145.875 424.732 145.875C425.916 145.875 426.949 146.142 427.832 146.675C428.732 147.192 429.391 147.833 429.807 148.6V146.1H432.107V166.3H429.807V157.275C429.374 158.042 428.707 158.692 427.807 159.225C426.907 159.758 425.857 160.025 424.657 160.025C423.457 160.025 422.366 159.725 421.382 159.125C420.399 158.525 419.624 157.683 419.057 156.6C418.491 155.517 418.207 154.283 418.207 152.9ZM429.807 152.925C429.807 151.892 429.599 150.992 429.182 150.225C428.766 149.458 428.199 148.875 427.482 148.475C426.782 148.058 426.007 147.85 425.157 147.85C424.307 147.85 423.532 148.05 422.832 148.45C422.132 148.85 421.574 149.433 421.157 150.2C420.741 150.967 420.532 151.867 420.532 152.9C420.532 153.95 420.741 154.867 421.157 155.65C421.574 156.417 422.132 157.008 422.832 157.425C423.532 157.825 424.307 158.025 425.157 158.025C426.007 158.025 426.782 157.825 427.482 157.425C428.199 157.008 428.766 156.417 429.182 155.65C429.599 154.867 429.807 153.958 429.807 152.925Z" fill="white"/>
<path d="M448.102 146.1V159.8H445.827V157.775C445.393 158.475 444.785 159.025 444.002 159.425C443.235 159.808 442.385 160 441.452 160C440.385 160 439.427 159.783 438.577 159.35C437.727 158.9 437.052 158.233 436.552 157.35C436.068 156.467 435.827 155.392 435.827 154.125V146.1H438.077V153.825C438.077 155.175 438.418 156.217 439.102 156.95C439.785 157.667 440.718 158.025 441.902 158.025C443.118 158.025 444.077 157.65 444.777 156.9C445.477 156.15 445.827 155.058 445.827 153.625V146.1H448.102Z" fill="white"/>
<path d="M464.443 152.425C464.443 152.858 464.418 153.317 464.368 153.8H453.418C453.501 155.15 453.96 156.208 454.793 156.975C455.643 157.725 456.668 158.1 457.868 158.1C458.851 158.1 459.668 157.875 460.318 157.425C460.985 156.958 461.451 156.342 461.718 155.575H464.168C463.801 156.892 463.068 157.967 461.968 158.8C460.868 159.617 459.501 160.025 457.868 160.025C456.568 160.025 455.401 159.733 454.368 159.15C453.351 158.567 452.551 157.742 451.968 156.675C451.385 155.592 451.093 154.342 451.093 152.925C451.093 151.508 451.376 150.267 451.943 149.2C452.51 148.133 453.301 147.317 454.318 146.75C455.351 146.167 456.535 145.875 457.868 145.875C459.168 145.875 460.318 146.158 461.318 146.725C462.318 147.292 463.085 148.075 463.618 149.075C464.168 150.058 464.443 151.175 464.443 152.425ZM462.093 151.95C462.093 151.083 461.901 150.342 461.518 149.725C461.135 149.092 460.61 148.617 459.943 148.3C459.293 147.967 458.568 147.8 457.768 147.8C456.618 147.8 455.635 148.167 454.818 148.9C454.018 149.633 453.56 150.65 453.443 151.95H462.093Z" fill="white"/>
<path d="M472.296 160.025C471.246 160.025 470.304 159.85 469.471 159.5C468.638 159.133 467.979 158.633 467.496 158C467.013 157.35 466.746 156.608 466.696 155.775H469.046C469.113 156.458 469.429 157.017 469.996 157.45C470.579 157.883 471.338 158.1 472.271 158.1C473.138 158.1 473.821 157.908 474.321 157.525C474.821 157.142 475.071 156.658 475.071 156.075C475.071 155.475 474.804 155.033 474.271 154.75C473.738 154.45 472.913 154.158 471.796 153.875C470.779 153.608 469.946 153.342 469.296 153.075C468.663 152.792 468.113 152.383 467.646 151.85C467.196 151.3 466.971 150.583 466.971 149.7C466.971 149 467.179 148.358 467.596 147.775C468.013 147.192 468.604 146.733 469.371 146.4C470.138 146.05 471.013 145.875 471.996 145.875C473.513 145.875 474.738 146.258 475.671 147.025C476.604 147.792 477.104 148.842 477.171 150.175H474.896C474.846 149.458 474.554 148.883 474.021 148.45C473.504 148.017 472.804 147.8 471.921 147.8C471.104 147.8 470.454 147.975 469.971 148.325C469.488 148.675 469.246 149.133 469.246 149.7C469.246 150.15 469.388 150.525 469.671 150.825C469.971 151.108 470.338 151.342 470.771 151.525C471.221 151.692 471.838 151.883 472.621 152.1C473.604 152.367 474.404 152.633 475.021 152.9C475.638 153.15 476.163 153.533 476.596 154.05C477.046 154.567 477.279 155.242 477.296 156.075C477.296 156.825 477.088 157.5 476.671 158.1C476.254 158.7 475.663 159.175 474.896 159.525C474.146 159.858 473.279 160.025 472.296 160.025Z" fill="white"/>
<path d="M483.282 147.975V156.05C483.282 156.717 483.424 157.192 483.707 157.475C483.991 157.742 484.482 157.875 485.182 157.875H486.857V159.8H484.807C483.541 159.8 482.591 159.508 481.957 158.925C481.324 158.342 481.007 157.383 481.007 156.05V147.975H479.232V146.1H481.007V142.65H483.282V146.1H486.857V147.975H483.282Z" fill="white"/>
<path d="M149.1 126.2V120.4H158.8V143.5H152.3V126.2H149.1Z" fill="white"/>
<path d="M154 186C183.823 186 208 161.823 208 132C208 102.177 183.823 78 154 78C124.177 78 100 102.177 100 132C100 161.823 124.177 186 154 186Z" stroke="white" stroke-width="2"/>
</svg>
