<svg width="586" height="264" viewBox="0 0 586 264" fill="none" xmlns="http://www.w3.org/2000/svg">
<path d="M0 10C0 4.47716 4.47715 0 10 0H576C581.523 0 586 4.47715 586 10V254C586 259.523 581.523 264 576 264H10C4.47717 264 0 259.523 0 254V10Z" fill="#6300E2"/>
<path d="M125.1 126.2V120.4H134.8V143.5H128.3V126.2H125.1Z" fill="white"/>
<path d="M130 186C159.823 186 184 161.823 184 132C184 102.177 159.823 78 130 78C100.177 78 76 102.177 76 132C76 161.823 100.177 186 130 186Z" stroke="white" stroke-width="2"/>
<path d="M231.375 92.3751C233.225 92.3751 234.842 92.7501 236.225 93.5001C237.625 94.2334 238.7 95.2668 239.45 96.6001C240.2 97.9334 240.575 99.4584 240.575 101.175C240.575 102.875 240.192 104.392 239.425 105.725C238.675 107.058 237.6 108.108 236.2 108.875C234.817 109.625 233.208 110 231.375 110H224.4V92.3751H231.375ZM231 105.675C232.433 105.675 233.558 105.283 234.375 104.5C235.192 103.717 235.6 102.608 235.6 101.175C235.6 99.7251 235.192 98.6084 234.375 97.8251C233.558 97.0251 232.433 96.6251 231 96.6251H229.3V105.675H231Z" fill="white"/>
<path d="M249.734 110.175C248.084 110.175 246.567 109.792 245.184 109.025C243.8 108.242 242.7 107.167 241.884 105.8C241.084 104.417 240.684 102.858 240.684 101.125C240.684 99.3918 241.084 97.8418 241.884 96.4751C242.7 95.0918 243.8 94.0168 245.184 93.2501C246.567 92.4834 248.084 92.1001 249.734 92.1001C251.4 92.1001 252.917 92.4834 254.284 93.2501C255.667 94.0168 256.759 95.0918 257.559 96.4751C258.359 97.8418 258.759 99.3918 258.759 101.125C258.759 102.858 258.359 104.417 257.559 105.8C256.759 107.167 255.667 108.242 254.284 109.025C252.9 109.792 251.384 110.175 249.734 110.175ZM249.734 105.625C250.984 105.625 251.967 105.217 252.684 104.4C253.417 103.583 253.784 102.492 253.784 101.125C253.784 99.7251 253.417 98.6251 252.684 97.8251C251.967 97.0084 250.984 96.6001 249.734 96.6001C248.467 96.6001 247.475 97.0084 246.759 97.8251C246.042 98.6251 245.684 99.7251 245.684 101.125C245.684 102.508 246.042 103.608 246.759 104.425C247.475 105.225 248.467 105.625 249.734 105.625Z" fill="white"/>
<path d="M258.861 101.15C258.861 99.4168 259.22 97.8751 259.936 96.5251C260.67 95.1584 261.703 94.1001 263.036 93.3501C264.37 92.5834 265.903 92.2001 267.636 92.2001C269.836 92.2001 271.686 92.7918 273.186 93.9751C274.686 95.1418 275.653 96.7334 276.086 98.7501H270.811C270.495 98.0834 270.053 97.5751 269.486 97.2251C268.936 96.8751 268.295 96.7001 267.561 96.7001C266.428 96.7001 265.52 97.1084 264.836 97.9251C264.17 98.7251 263.836 99.8001 263.836 101.15C263.836 102.517 264.17 103.608 264.836 104.425C265.52 105.225 266.428 105.625 267.561 105.625C268.295 105.625 268.936 105.45 269.486 105.1C270.053 104.75 270.495 104.242 270.811 103.575H276.086C275.653 105.592 274.686 107.192 273.186 108.375C271.686 109.542 269.836 110.125 267.636 110.125C265.903 110.125 264.37 109.75 263.036 109C261.703 108.233 260.67 107.175 259.936 105.825C259.22 104.458 258.861 102.9 258.861 101.15Z" fill="white"/>
<path d="M281.707 92.3751V102.6C281.707 103.55 281.923 104.283 282.357 104.8C282.807 105.317 283.482 105.575 284.382 105.575C285.282 105.575 285.957 105.317 286.407 104.8C286.873 104.267 287.107 103.533 287.107 102.6V92.3751H292.007V102.6C292.007 104.217 291.665 105.6 290.982 106.75C290.298 107.883 289.365 108.742 288.182 109.325C287.015 109.892 285.715 110.175 284.282 110.175C282.848 110.175 281.565 109.892 280.432 109.325C279.315 108.742 278.432 107.883 277.782 106.75C277.148 105.617 276.832 104.233 276.832 102.6V92.3751H281.707Z" fill="white"/>
<path d="M313.78 92.3751V110H308.88V100.275L305.555 110H301.455L298.105 100.2V110H293.205V92.3751H299.13L303.555 103.825L307.88 92.3751H313.78Z" fill="white"/>
<path d="M319.969 96.3001V99.1751H325.594V102.9H319.969V106.075H326.344V110H315.069V92.3751H326.344V96.3001H319.969Z" fill="white"/>
<path d="M343.59 110H338.69L332.165 100.15V110H327.265V92.3751H332.165L338.69 102.35V92.3751H343.59V110Z" fill="white"/>
<path d="M358.156 92.3751V96.2751H353.456V110H348.556V96.2751H343.906V92.3751H358.156Z" fill="white"/>
<path d="M369.619 107.125H363.369L362.419 110H357.269L363.694 92.3751H369.344L375.744 110H370.569L369.619 107.125ZM368.394 103.375L366.494 97.6751L364.619 103.375H368.394Z" fill="white"/>
<path d="M382.816 92.3751C384.666 92.3751 386.283 92.7501 387.666 93.5001C389.066 94.2334 390.141 95.2668 390.891 96.6001C391.641 97.9334 392.016 99.4584 392.016 101.175C392.016 102.875 391.633 104.392 390.866 105.725C390.116 107.058 389.041 108.108 387.641 108.875C386.258 109.625 384.65 110 382.816 110H375.841V92.3751H382.816ZM382.441 105.675C383.875 105.675 385 105.283 385.816 104.5C386.633 103.717 387.041 102.608 387.041 101.175C387.041 99.7251 386.633 98.6084 385.816 97.8251C385 97.0251 383.875 96.6251 382.441 96.6251H380.741V105.675H382.441Z" fill="white"/>
<path d="M401.175 110.175C399.525 110.175 398.008 109.792 396.625 109.025C395.242 108.242 394.142 107.167 393.325 105.8C392.525 104.417 392.125 102.858 392.125 101.125C392.125 99.3918 392.525 97.8418 393.325 96.4751C394.142 95.0918 395.242 94.0168 396.625 93.2501C398.008 92.4834 399.525 92.1001 401.175 92.1001C402.842 92.1001 404.358 92.4834 405.725 93.2501C407.108 94.0168 408.2 95.0918 409 96.4751C409.8 97.8418 410.2 99.3918 410.2 101.125C410.2 102.858 409.8 104.417 409 105.8C408.2 107.167 407.108 108.242 405.725 109.025C404.342 109.792 402.825 110.175 401.175 110.175ZM401.175 105.625C402.425 105.625 403.408 105.217 404.125 104.4C404.858 103.583 405.225 102.492 405.225 101.125C405.225 99.7251 404.858 98.6251 404.125 97.8251C403.408 97.0084 402.425 96.6001 401.175 96.6001C399.908 96.6001 398.917 97.0084 398.2 97.8251C397.483 98.6251 397.125 99.7251 397.125 101.125C397.125 102.508 397.483 103.608 398.2 104.425C398.917 105.225 399.908 105.625 401.175 105.625Z" fill="white"/>
<path d="M230.35 125.575C232.25 125.575 233.892 125.933 235.275 126.65C236.675 127.35 237.742 128.358 238.475 129.675C239.225 130.992 239.6 132.542 239.6 134.325C239.6 136.108 239.225 137.658 238.475 138.975C237.742 140.275 236.675 141.275 235.275 141.975C233.892 142.658 232.25 143 230.35 143H224.925V125.575H230.35ZM230.35 141.125C232.6 141.125 234.317 140.533 235.5 139.35C236.683 138.15 237.275 136.475 237.275 134.325C237.275 132.158 236.675 130.467 235.475 129.25C234.292 128.033 232.583 127.425 230.35 127.425H227.2V141.125H230.35Z" fill="white"/>
<path d="M248.076 143.225C246.792 143.225 245.626 142.933 244.576 142.35C243.542 141.767 242.726 140.942 242.126 139.875C241.542 138.792 241.251 137.542 241.251 136.125C241.251 134.725 241.551 133.492 242.151 132.425C242.767 131.342 243.601 130.517 244.651 129.95C245.701 129.367 246.876 129.075 248.176 129.075C249.476 129.075 250.651 129.367 251.701 129.95C252.751 130.517 253.576 131.333 254.176 132.4C254.792 133.467 255.101 134.708 255.101 136.125C255.101 137.542 254.784 138.792 254.151 139.875C253.534 140.942 252.692 141.767 251.626 142.35C250.559 142.933 249.376 143.225 248.076 143.225ZM248.076 141.225C248.892 141.225 249.659 141.033 250.376 140.65C251.092 140.267 251.667 139.692 252.101 138.925C252.551 138.158 252.776 137.225 252.776 136.125C252.776 135.025 252.559 134.092 252.126 133.325C251.692 132.558 251.126 131.992 250.426 131.625C249.726 131.242 248.967 131.05 248.151 131.05C247.317 131.05 246.551 131.242 245.851 131.625C245.167 131.992 244.617 132.558 244.201 133.325C243.784 134.092 243.576 135.025 243.576 136.125C243.576 137.242 243.776 138.183 244.176 138.95C244.592 139.717 245.142 140.292 245.826 140.675C246.509 141.042 247.259 141.225 248.076 141.225Z" fill="white"/>
<path d="M256.742 136.125C256.742 134.708 257.025 133.475 257.592 132.425C258.159 131.358 258.942 130.533 259.942 129.95C260.959 129.367 262.117 129.075 263.417 129.075C265.1 129.075 266.484 129.483 267.567 130.3C268.667 131.117 269.392 132.25 269.742 133.7H267.292C267.059 132.867 266.6 132.208 265.917 131.725C265.25 131.242 264.417 131 263.417 131C262.117 131 261.067 131.45 260.267 132.35C259.467 133.233 259.067 134.492 259.067 136.125C259.067 137.775 259.467 139.05 260.267 139.95C261.067 140.85 262.117 141.3 263.417 141.3C264.417 141.3 265.25 141.067 265.917 140.6C266.584 140.133 267.042 139.467 267.292 138.6H269.742C269.375 140 268.642 141.125 267.542 141.975C266.442 142.808 265.067 143.225 263.417 143.225C262.117 143.225 260.959 142.933 259.942 142.35C258.942 141.767 258.159 140.942 257.592 139.875C257.025 138.808 256.742 137.558 256.742 136.125Z" fill="white"/>
<path d="M284.428 129.3V143H282.153V140.975C281.719 141.675 281.111 142.225 280.328 142.625C279.561 143.008 278.711 143.2 277.778 143.2C276.711 143.2 275.753 142.983 274.903 142.55C274.053 142.1 273.378 141.433 272.878 140.55C272.394 139.667 272.153 138.592 272.153 137.325V129.3H274.403V137.025C274.403 138.375 274.744 139.417 275.428 140.15C276.111 140.867 277.044 141.225 278.228 141.225C279.444 141.225 280.403 140.85 281.103 140.1C281.803 139.35 282.153 138.258 282.153 136.825V129.3H284.428Z" fill="white"/>
<path d="M304.244 129.05C305.31 129.05 306.26 129.275 307.094 129.725C307.927 130.158 308.585 130.817 309.069 131.7C309.552 132.583 309.794 133.658 309.794 134.925V143H307.544V135.25C307.544 133.883 307.202 132.842 306.519 132.125C305.852 131.392 304.944 131.025 303.794 131.025C302.61 131.025 301.669 131.408 300.969 132.175C300.269 132.925 299.919 134.017 299.919 135.45V143H297.669V135.25C297.669 133.883 297.327 132.842 296.644 132.125C295.977 131.392 295.069 131.025 293.919 131.025C292.735 131.025 291.794 131.408 291.094 132.175C290.394 132.925 290.044 134.017 290.044 135.45V143H287.769V129.3H290.044V131.275C290.494 130.558 291.094 130.008 291.844 129.625C292.61 129.242 293.452 129.05 294.369 129.05C295.519 129.05 296.535 129.308 297.419 129.825C298.302 130.342 298.96 131.1 299.394 132.1C299.777 131.133 300.41 130.383 301.294 129.85C302.177 129.317 303.16 129.05 304.244 129.05Z" fill="white"/>
<path d="M325.526 135.625C325.526 136.058 325.501 136.517 325.451 137H314.501C314.584 138.35 315.042 139.408 315.876 140.175C316.726 140.925 317.751 141.3 318.951 141.3C319.934 141.3 320.751 141.075 321.401 140.625C322.067 140.158 322.534 139.542 322.801 138.775H325.251C324.884 140.092 324.151 141.167 323.051 142C321.951 142.817 320.584 143.225 318.951 143.225C317.651 143.225 316.484 142.933 315.451 142.35C314.434 141.767 313.634 140.942 313.051 139.875C312.467 138.792 312.176 137.542 312.176 136.125C312.176 134.708 312.459 133.467 313.026 132.4C313.592 131.333 314.384 130.517 315.401 129.95C316.434 129.367 317.617 129.075 318.951 129.075C320.251 129.075 321.401 129.358 322.401 129.925C323.401 130.492 324.167 131.275 324.701 132.275C325.251 133.258 325.526 134.375 325.526 135.625ZM323.176 135.15C323.176 134.283 322.984 133.542 322.601 132.925C322.217 132.292 321.692 131.817 321.026 131.5C320.376 131.167 319.651 131 318.851 131C317.701 131 316.717 131.367 315.901 132.1C315.101 132.833 314.642 133.85 314.526 135.15H323.176Z" fill="white"/>
<path d="M334.704 129.05C336.37 129.05 337.72 129.558 338.754 130.575C339.787 131.575 340.304 133.025 340.304 134.925V143H338.054V135.25C338.054 133.883 337.712 132.842 337.029 132.125C336.345 131.392 335.412 131.025 334.229 131.025C333.029 131.025 332.07 131.4 331.354 132.15C330.654 132.9 330.304 133.992 330.304 135.425V143H328.029V129.3H330.304V131.25C330.754 130.55 331.362 130.008 332.129 129.625C332.912 129.242 333.77 129.05 334.704 129.05Z" fill="white"/>
<path d="M346.295 131.175V139.25C346.295 139.917 346.436 140.392 346.72 140.675C347.003 140.942 347.495 141.075 348.195 141.075H349.87V143H347.82C346.553 143 345.603 142.708 344.97 142.125C344.336 141.542 344.02 140.583 344.02 139.25V131.175H342.245V129.3H344.02V125.85H346.295V129.3H349.87V131.175H346.295Z" fill="white"/>
<path d="M351.276 136.1C351.276 134.7 351.56 133.475 352.126 132.425C352.693 131.358 353.468 130.533 354.451 129.95C355.451 129.367 356.56 129.075 357.776 129.075C358.976 129.075 360.018 129.333 360.901 129.85C361.785 130.367 362.443 131.017 362.876 131.8V129.3H365.176V143H362.876V140.45C362.426 141.25 361.751 141.917 360.851 142.45C359.968 142.967 358.935 143.225 357.751 143.225C356.535 143.225 355.435 142.925 354.451 142.325C353.468 141.725 352.693 140.883 352.126 139.8C351.56 138.717 351.276 137.483 351.276 136.1ZM362.876 136.125C362.876 135.092 362.668 134.192 362.251 133.425C361.835 132.658 361.268 132.075 360.551 131.675C359.851 131.258 359.076 131.05 358.226 131.05C357.376 131.05 356.601 131.25 355.901 131.65C355.201 132.05 354.643 132.633 354.226 133.4C353.81 134.167 353.601 135.067 353.601 136.1C353.601 137.15 353.81 138.067 354.226 138.85C354.643 139.617 355.201 140.208 355.901 140.625C356.601 141.025 357.376 141.225 358.226 141.225C359.076 141.225 359.851 141.025 360.551 140.625C361.268 140.208 361.835 139.617 362.251 138.85C362.668 138.067 362.876 137.158 362.876 136.125Z" fill="white"/>
<path d="M375.196 129.05C376.862 129.05 378.212 129.558 379.246 130.575C380.279 131.575 380.796 133.025 380.796 134.925V143H378.546V135.25C378.546 133.883 378.204 132.842 377.521 132.125C376.837 131.392 375.904 131.025 374.721 131.025C373.521 131.025 372.562 131.4 371.846 132.15C371.146 132.9 370.796 133.992 370.796 135.425V143H368.521V129.3H370.796V131.25C371.246 130.55 371.854 130.008 372.621 129.625C373.404 129.242 374.262 129.05 375.196 129.05Z" fill="white"/>
<path d="M383.162 136.1C383.162 134.7 383.445 133.475 384.012 132.425C384.579 131.358 385.354 130.533 386.337 129.95C387.337 129.367 388.454 129.075 389.687 129.075C390.754 129.075 391.745 129.325 392.662 129.825C393.579 130.308 394.279 130.95 394.762 131.75V124.5H397.062V143H394.762V140.425C394.312 141.242 393.645 141.917 392.762 142.45C391.879 142.967 390.845 143.225 389.662 143.225C388.445 143.225 387.337 142.925 386.337 142.325C385.354 141.725 384.579 140.883 384.012 139.8C383.445 138.717 383.162 137.483 383.162 136.1ZM394.762 136.125C394.762 135.092 394.554 134.192 394.137 133.425C393.72 132.658 393.154 132.075 392.437 131.675C391.737 131.258 390.962 131.05 390.112 131.05C389.262 131.05 388.487 131.25 387.787 131.65C387.087 132.05 386.529 132.633 386.112 133.4C385.695 134.167 385.487 135.067 385.487 136.1C385.487 137.15 385.695 138.067 386.112 138.85C386.529 139.617 387.087 140.208 387.787 140.625C388.487 141.025 389.262 141.225 390.112 141.225C390.962 141.225 391.737 141.025 392.437 140.625C393.154 140.208 393.72 139.617 394.137 138.85C394.554 138.067 394.762 137.158 394.762 136.125Z" fill="white"/>
<path d="M406.381 143.225C405.098 143.225 403.931 142.933 402.881 142.35C401.848 141.767 401.031 140.942 400.431 139.875C399.848 138.792 399.556 137.542 399.556 136.125C399.556 134.725 399.856 133.492 400.456 132.425C401.073 131.342 401.906 130.517 402.956 129.95C404.006 129.367 405.181 129.075 406.481 129.075C407.781 129.075 408.956 129.367 410.006 129.95C411.056 130.517 411.881 131.333 412.481 132.4C413.098 133.467 413.406 134.708 413.406 136.125C413.406 137.542 413.09 138.792 412.456 139.875C411.84 140.942 410.998 141.767 409.931 142.35C408.865 142.933 407.681 143.225 406.381 143.225ZM406.381 141.225C407.198 141.225 407.965 141.033 408.681 140.65C409.398 140.267 409.973 139.692 410.406 138.925C410.856 138.158 411.081 137.225 411.081 136.125C411.081 135.025 410.865 134.092 410.431 133.325C409.998 132.558 409.431 131.992 408.731 131.625C408.031 131.242 407.273 131.05 406.456 131.05C405.623 131.05 404.856 131.242 404.156 131.625C403.473 131.992 402.923 132.558 402.506 133.325C402.09 134.092 401.881 135.025 401.881 136.125C401.881 137.242 402.081 138.183 402.481 138.95C402.898 139.717 403.448 140.292 404.131 140.675C404.815 141.042 405.565 141.225 406.381 141.225Z" fill="white"/>
<path d="M424.338 124.5V143H422.063V124.5H424.338Z" fill="white"/>
<path d="M433.69 143.225C432.407 143.225 431.24 142.933 430.19 142.35C429.157 141.767 428.34 140.942 427.74 139.875C427.157 138.792 426.865 137.542 426.865 136.125C426.865 134.725 427.165 133.492 427.765 132.425C428.382 131.342 429.215 130.517 430.265 129.95C431.315 129.367 432.49 129.075 433.79 129.075C435.09 129.075 436.265 129.367 437.315 129.95C438.365 130.517 439.19 131.333 439.79 132.4C440.407 133.467 440.715 134.708 440.715 136.125C440.715 137.542 440.398 138.792 439.765 139.875C439.148 140.942 438.307 141.767 437.24 142.35C436.173 142.933 434.99 143.225 433.69 143.225ZM433.69 141.225C434.507 141.225 435.273 141.033 435.99 140.65C436.707 140.267 437.282 139.692 437.715 138.925C438.165 138.158 438.39 137.225 438.39 136.125C438.39 135.025 438.173 134.092 437.74 133.325C437.307 132.558 436.74 131.992 436.04 131.625C435.34 131.242 434.582 131.05 433.765 131.05C432.932 131.05 432.165 131.242 431.465 131.625C430.782 131.992 430.232 132.558 429.815 133.325C429.398 134.092 429.19 135.025 429.19 136.125C429.19 137.242 429.39 138.183 429.79 138.95C430.207 139.717 430.757 140.292 431.44 140.675C432.123 141.042 432.873 141.225 433.69 141.225Z" fill="white"/>
<path d="M448.056 143.225C447.006 143.225 446.065 143.05 445.231 142.7C444.398 142.333 443.74 141.833 443.256 141.2C442.773 140.55 442.506 139.808 442.456 138.975H444.806C444.873 139.658 445.19 140.217 445.756 140.65C446.34 141.083 447.098 141.3 448.031 141.3C448.898 141.3 449.581 141.108 450.081 140.725C450.581 140.342 450.831 139.858 450.831 139.275C450.831 138.675 450.565 138.233 450.031 137.95C449.498 137.65 448.673 137.358 447.556 137.075C446.54 136.808 445.706 136.542 445.056 136.275C444.423 135.992 443.873 135.583 443.406 135.05C442.956 134.5 442.731 133.783 442.731 132.9C442.731 132.2 442.94 131.558 443.356 130.975C443.773 130.392 444.365 129.933 445.131 129.6C445.898 129.25 446.773 129.075 447.756 129.075C449.273 129.075 450.498 129.458 451.431 130.225C452.365 130.992 452.865 132.042 452.931 133.375H450.656C450.606 132.658 450.315 132.083 449.781 131.65C449.265 131.217 448.565 131 447.681 131C446.865 131 446.215 131.175 445.731 131.525C445.248 131.875 445.006 132.333 445.006 132.9C445.006 133.35 445.148 133.725 445.431 134.025C445.731 134.308 446.098 134.542 446.531 134.725C446.981 134.892 447.598 135.083 448.381 135.3C449.365 135.567 450.165 135.833 450.781 136.1C451.398 136.35 451.923 136.733 452.356 137.25C452.806 137.767 453.04 138.442 453.056 139.275C453.056 140.025 452.848 140.7 452.431 141.3C452.015 141.9 451.423 142.375 450.656 142.725C449.906 143.058 449.04 143.225 448.056 143.225Z" fill="white"/>
<path d="M236.575 158.675C236.575 160.125 236.075 161.333 235.075 162.3C234.092 163.25 232.583 163.725 230.55 163.725H227.2V171H224.925V153.575H230.55C232.517 153.575 234.008 154.05 235.025 155C236.058 155.95 236.575 157.175 236.575 158.675ZM230.55 161.85C231.817 161.85 232.75 161.575 233.35 161.025C233.95 160.475 234.25 159.692 234.25 158.675C234.25 156.525 233.017 155.45 230.55 155.45H227.2V161.85H230.55Z" fill="white"/>
<path d="M241.178 159.525C241.578 158.742 242.144 158.133 242.878 157.7C243.628 157.267 244.536 157.05 245.603 157.05V159.4H245.003C242.453 159.4 241.178 160.783 241.178 163.55V171H238.903V157.3H241.178V159.525Z" fill="white"/>
<path d="M253.704 171.225C252.42 171.225 251.254 170.933 250.204 170.35C249.17 169.767 248.354 168.942 247.754 167.875C247.17 166.792 246.879 165.542 246.879 164.125C246.879 162.725 247.179 161.492 247.779 160.425C248.395 159.342 249.229 158.517 250.279 157.95C251.329 157.367 252.504 157.075 253.804 157.075C255.104 157.075 256.279 157.367 257.329 157.95C258.379 158.517 259.204 159.333 259.804 160.4C260.42 161.467 260.729 162.708 260.729 164.125C260.729 165.542 260.412 166.792 259.779 167.875C259.162 168.942 258.32 169.767 257.254 170.35C256.187 170.933 255.004 171.225 253.704 171.225ZM253.704 169.225C254.52 169.225 255.287 169.033 256.004 168.65C256.72 168.267 257.295 167.692 257.729 166.925C258.179 166.158 258.404 165.225 258.404 164.125C258.404 163.025 258.187 162.092 257.754 161.325C257.32 160.558 256.754 159.992 256.054 159.625C255.354 159.242 254.595 159.05 253.779 159.05C252.945 159.05 252.179 159.242 251.479 159.625C250.795 159.992 250.245 160.558 249.829 161.325C249.412 162.092 249.204 163.025 249.204 164.125C249.204 165.242 249.404 166.183 249.804 166.95C250.22 167.717 250.77 168.292 251.454 168.675C252.137 169.042 252.887 169.225 253.704 169.225Z" fill="white"/>
<path d="M262.37 164.125C262.37 162.708 262.653 161.475 263.22 160.425C263.787 159.358 264.57 158.533 265.57 157.95C266.587 157.367 267.745 157.075 269.045 157.075C270.728 157.075 272.112 157.483 273.195 158.3C274.295 159.117 275.02 160.25 275.37 161.7H272.92C272.687 160.867 272.228 160.208 271.545 159.725C270.878 159.242 270.045 159 269.045 159C267.745 159 266.695 159.45 265.895 160.35C265.095 161.233 264.695 162.492 264.695 164.125C264.695 165.775 265.095 167.05 265.895 167.95C266.695 168.85 267.745 169.3 269.045 169.3C270.045 169.3 270.878 169.067 271.545 168.6C272.212 168.133 272.67 167.467 272.92 166.6H275.37C275.003 168 274.27 169.125 273.17 169.975C272.07 170.808 270.695 171.225 269.045 171.225C267.745 171.225 266.587 170.933 265.57 170.35C264.57 169.767 263.787 168.942 263.22 167.875C262.653 166.808 262.37 165.558 262.37 164.125Z" fill="white"/>
<path d="M290.406 163.625C290.406 164.058 290.381 164.517 290.331 165H279.381C279.464 166.35 279.922 167.408 280.756 168.175C281.606 168.925 282.631 169.3 283.831 169.3C284.814 169.3 285.631 169.075 286.281 168.625C286.947 168.158 287.414 167.542 287.681 166.775H290.131C289.764 168.092 289.031 169.167 287.931 170C286.831 170.817 285.464 171.225 283.831 171.225C282.531 171.225 281.364 170.933 280.331 170.35C279.314 169.767 278.514 168.942 277.931 167.875C277.347 166.792 277.056 165.542 277.056 164.125C277.056 162.708 277.339 161.467 277.906 160.4C278.472 159.333 279.264 158.517 280.281 157.95C281.314 157.367 282.497 157.075 283.831 157.075C285.131 157.075 286.281 157.358 287.281 157.925C288.281 158.492 289.047 159.275 289.581 160.275C290.131 161.258 290.406 162.375 290.406 163.625ZM288.056 163.15C288.056 162.283 287.864 161.542 287.481 160.925C287.097 160.292 286.572 159.817 285.906 159.5C285.256 159.167 284.531 159 283.731 159C282.581 159 281.597 159.367 280.781 160.1C279.981 160.833 279.522 161.85 279.406 163.15H288.056Z" fill="white"/>
<path d="M297.758 171.225C296.708 171.225 295.767 171.05 294.933 170.7C294.1 170.333 293.442 169.833 292.958 169.2C292.475 168.55 292.208 167.808 292.158 166.975H294.508C294.575 167.658 294.892 168.217 295.458 168.65C296.042 169.083 296.8 169.3 297.733 169.3C298.6 169.3 299.283 169.108 299.783 168.725C300.283 168.342 300.533 167.858 300.533 167.275C300.533 166.675 300.267 166.233 299.733 165.95C299.2 165.65 298.375 165.358 297.258 165.075C296.242 164.808 295.408 164.542 294.758 164.275C294.125 163.992 293.575 163.583 293.108 163.05C292.658 162.5 292.433 161.783 292.433 160.9C292.433 160.2 292.642 159.558 293.058 158.975C293.475 158.392 294.067 157.933 294.833 157.6C295.6 157.25 296.475 157.075 297.458 157.075C298.975 157.075 300.2 157.458 301.133 158.225C302.067 158.992 302.567 160.042 302.633 161.375H300.358C300.308 160.658 300.017 160.083 299.483 159.65C298.967 159.217 298.267 159 297.383 159C296.567 159 295.917 159.175 295.433 159.525C294.95 159.875 294.708 160.333 294.708 160.9C294.708 161.35 294.85 161.725 295.133 162.025C295.433 162.308 295.8 162.542 296.233 162.725C296.683 162.892 297.3 163.083 298.083 163.3C299.067 163.567 299.867 163.833 300.483 164.1C301.1 164.35 301.625 164.733 302.058 165.25C302.508 165.767 302.742 166.442 302.758 167.275C302.758 168.025 302.55 168.7 302.133 169.3C301.717 169.9 301.125 170.375 300.358 170.725C299.608 171.058 298.742 171.225 297.758 171.225Z" fill="white"/>
<path d="M310.32 171.225C309.27 171.225 308.328 171.05 307.495 170.7C306.662 170.333 306.003 169.833 305.52 169.2C305.037 168.55 304.77 167.808 304.72 166.975H307.07C307.137 167.658 307.453 168.217 308.02 168.65C308.603 169.083 309.362 169.3 310.295 169.3C311.162 169.3 311.845 169.108 312.345 168.725C312.845 168.342 313.095 167.858 313.095 167.275C313.095 166.675 312.828 166.233 312.295 165.95C311.762 165.65 310.937 165.358 309.82 165.075C308.803 164.808 307.97 164.542 307.32 164.275C306.687 163.992 306.137 163.583 305.67 163.05C305.22 162.5 304.995 161.783 304.995 160.9C304.995 160.2 305.203 159.558 305.62 158.975C306.037 158.392 306.628 157.933 307.395 157.6C308.162 157.25 309.037 157.075 310.02 157.075C311.537 157.075 312.762 157.458 313.695 158.225C314.628 158.992 315.128 160.042 315.195 161.375H312.92C312.87 160.658 312.578 160.083 312.045 159.65C311.528 159.217 310.828 159 309.945 159C309.128 159 308.478 159.175 307.995 159.525C307.512 159.875 307.27 160.333 307.27 160.9C307.27 161.35 307.412 161.725 307.695 162.025C307.995 162.308 308.362 162.542 308.795 162.725C309.245 162.892 309.862 163.083 310.645 163.3C311.628 163.567 312.428 163.833 313.045 164.1C313.662 164.35 314.187 164.733 314.62 165.25C315.07 165.767 315.303 166.442 315.32 167.275C315.32 168.025 315.112 168.7 314.695 169.3C314.278 169.9 313.687 170.375 312.92 170.725C312.17 171.058 311.303 171.225 310.32 171.225Z" fill="white"/>
<path d="M324.006 171.225C322.723 171.225 321.556 170.933 320.506 170.35C319.473 169.767 318.656 168.942 318.056 167.875C317.473 166.792 317.181 165.542 317.181 164.125C317.181 162.725 317.481 161.492 318.081 160.425C318.698 159.342 319.531 158.517 320.581 157.95C321.631 157.367 322.806 157.075 324.106 157.075C325.406 157.075 326.581 157.367 327.631 157.95C328.681 158.517 329.506 159.333 330.106 160.4C330.723 161.467 331.031 162.708 331.031 164.125C331.031 165.542 330.715 166.792 330.081 167.875C329.465 168.942 328.623 169.767 327.556 170.35C326.49 170.933 325.306 171.225 324.006 171.225ZM324.006 169.225C324.823 169.225 325.59 169.033 326.306 168.65C327.023 168.267 327.598 167.692 328.031 166.925C328.481 166.158 328.706 165.225 328.706 164.125C328.706 163.025 328.49 162.092 328.056 161.325C327.623 160.558 327.056 159.992 326.356 159.625C325.656 159.242 324.898 159.05 324.081 159.05C323.248 159.05 322.481 159.242 321.781 159.625C321.098 159.992 320.548 160.558 320.131 161.325C319.715 162.092 319.506 163.025 319.506 164.125C319.506 165.242 319.706 166.183 320.106 166.95C320.523 167.717 321.073 168.292 321.756 168.675C322.44 169.042 323.19 169.225 324.006 169.225Z" fill="white"/>
<path d="M338.373 171.225C337.323 171.225 336.381 171.05 335.548 170.7C334.714 170.333 334.056 169.833 333.573 169.2C333.089 168.55 332.823 167.808 332.773 166.975H335.123C335.189 167.658 335.506 168.217 336.073 168.65C336.656 169.083 337.414 169.3 338.348 169.3C339.214 169.3 339.898 169.108 340.398 168.725C340.898 168.342 341.148 167.858 341.148 167.275C341.148 166.675 340.881 166.233 340.348 165.95C339.814 165.65 338.989 165.358 337.873 165.075C336.856 164.808 336.023 164.542 335.373 164.275C334.739 163.992 334.189 163.583 333.723 163.05C333.273 162.5 333.048 161.783 333.048 160.9C333.048 160.2 333.256 159.558 333.673 158.975C334.089 158.392 334.681 157.933 335.448 157.6C336.214 157.25 337.089 157.075 338.073 157.075C339.589 157.075 340.814 157.458 341.748 158.225C342.681 158.992 343.181 160.042 343.248 161.375H340.973C340.923 160.658 340.631 160.083 340.098 159.65C339.581 159.217 338.881 159 337.998 159C337.181 159 336.531 159.175 336.048 159.525C335.564 159.875 335.323 160.333 335.323 160.9C335.323 161.35 335.464 161.725 335.748 162.025C336.048 162.308 336.414 162.542 336.848 162.725C337.298 162.892 337.914 163.083 338.698 163.3C339.681 163.567 340.481 163.833 341.098 164.1C341.714 164.35 342.239 164.733 342.673 165.25C343.123 165.767 343.356 166.442 343.373 167.275C343.373 168.025 343.164 168.7 342.748 169.3C342.331 169.9 341.739 170.375 340.973 170.725C340.223 171.058 339.356 171.225 338.373 171.225Z" fill="white"/>
<path d="M351.399 164.1C351.399 162.7 351.683 161.475 352.249 160.425C352.816 159.358 353.591 158.533 354.574 157.95C355.574 157.367 356.691 157.075 357.924 157.075C358.991 157.075 359.983 157.325 360.899 157.825C361.816 158.308 362.516 158.95 362.999 159.75V152.5H365.299V171H362.999V168.425C362.549 169.242 361.883 169.917 360.999 170.45C360.116 170.967 359.083 171.225 357.899 171.225C356.683 171.225 355.574 170.925 354.574 170.325C353.591 169.725 352.816 168.883 352.249 167.8C351.683 166.717 351.399 165.483 351.399 164.1ZM362.999 164.125C362.999 163.092 362.791 162.192 362.374 161.425C361.958 160.658 361.391 160.075 360.674 159.675C359.974 159.258 359.199 159.05 358.349 159.05C357.499 159.05 356.724 159.25 356.024 159.65C355.324 160.05 354.766 160.633 354.349 161.4C353.933 162.167 353.724 163.067 353.724 164.1C353.724 165.15 353.933 166.067 354.349 166.85C354.766 167.617 355.324 168.208 356.024 168.625C356.724 169.025 357.499 169.225 358.349 169.225C359.199 169.225 359.974 169.025 360.674 168.625C361.391 168.208 361.958 167.617 362.374 166.85C362.791 166.067 362.999 165.158 362.999 164.125Z" fill="white"/>
<path d="M381.144 163.625C381.144 164.058 381.119 164.517 381.069 165H370.119C370.202 166.35 370.66 167.408 371.494 168.175C372.344 168.925 373.369 169.3 374.569 169.3C375.552 169.3 376.369 169.075 377.019 168.625C377.685 168.158 378.152 167.542 378.419 166.775H380.869C380.502 168.092 379.769 169.167 378.669 170C377.569 170.817 376.202 171.225 374.569 171.225C373.269 171.225 372.102 170.933 371.069 170.35C370.052 169.767 369.252 168.942 368.669 167.875C368.085 166.792 367.794 165.542 367.794 164.125C367.794 162.708 368.077 161.467 368.644 160.4C369.21 159.333 370.002 158.517 371.019 157.95C372.052 157.367 373.235 157.075 374.569 157.075C375.869 157.075 377.019 157.358 378.019 157.925C379.019 158.492 379.785 159.275 380.319 160.275C380.869 161.258 381.144 162.375 381.144 163.625ZM378.794 163.15C378.794 162.283 378.602 161.542 378.219 160.925C377.835 160.292 377.31 159.817 376.644 159.5C375.994 159.167 375.269 159 374.469 159C373.319 159 372.335 159.367 371.519 160.1C370.719 160.833 370.26 161.85 370.144 163.15H378.794Z" fill="white"/>
<path d="M392.087 152.5V171H389.812V152.5H392.087Z" fill="white"/>
<path d="M394.614 164.1C394.614 162.7 394.897 161.475 395.464 160.425C396.031 159.358 396.806 158.533 397.789 157.95C398.789 157.367 399.897 157.075 401.114 157.075C402.314 157.075 403.356 157.333 404.239 157.85C405.122 158.367 405.781 159.017 406.214 159.8V157.3H408.514V171H406.214V168.45C405.764 169.25 405.089 169.917 404.189 170.45C403.306 170.967 402.272 171.225 401.089 171.225C399.872 171.225 398.772 170.925 397.789 170.325C396.806 169.725 396.031 168.883 395.464 167.8C394.897 166.717 394.614 165.483 394.614 164.1ZM406.214 164.125C406.214 163.092 406.006 162.192 405.589 161.425C405.172 160.658 404.606 160.075 403.889 159.675C403.189 159.258 402.414 159.05 401.564 159.05C400.714 159.05 399.939 159.25 399.239 159.65C398.539 160.05 397.981 160.633 397.564 161.4C397.147 162.167 396.939 163.067 396.939 164.1C396.939 165.15 397.147 166.067 397.564 166.85C397.981 167.617 398.539 168.208 399.239 168.625C399.939 169.025 400.714 169.225 401.564 169.225C402.414 169.225 403.189 169.025 403.889 168.625C404.606 168.208 405.172 167.617 405.589 166.85C406.006 166.067 406.214 165.158 406.214 164.125Z" fill="white"/>
<path d="M430.524 163.625C430.524 164.058 430.499 164.517 430.449 165H419.499C419.582 166.35 420.04 167.408 420.874 168.175C421.724 168.925 422.749 169.3 423.949 169.3C424.932 169.3 425.749 169.075 426.399 168.625C427.065 168.158 427.532 167.542 427.799 166.775H430.249C429.882 168.092 429.149 169.167 428.049 170C426.949 170.817 425.582 171.225 423.949 171.225C422.649 171.225 421.482 170.933 420.449 170.35C419.432 169.767 418.632 168.942 418.049 167.875C417.465 166.792 417.174 165.542 417.174 164.125C417.174 162.708 417.457 161.467 418.024 160.4C418.59 159.333 419.382 158.517 420.399 157.95C421.432 157.367 422.615 157.075 423.949 157.075C425.249 157.075 426.399 157.358 427.399 157.925C428.399 158.492 429.165 159.275 429.699 160.275C430.249 161.258 430.524 162.375 430.524 163.625ZM428.174 163.15C428.174 162.283 427.982 161.542 427.599 160.925C427.215 160.292 426.69 159.817 426.024 159.5C425.374 159.167 424.649 159 423.849 159C422.699 159 421.715 159.367 420.899 160.1C420.099 160.833 419.64 161.85 419.524 163.15H428.174Z" fill="white"/>
<path d="M449.502 157.05C450.568 157.05 451.518 157.275 452.352 157.725C453.185 158.158 453.843 158.817 454.327 159.7C454.81 160.583 455.052 161.658 455.052 162.925V171H452.802V163.25C452.802 161.883 452.46 160.842 451.777 160.125C451.11 159.392 450.202 159.025 449.052 159.025C447.868 159.025 446.927 159.408 446.227 160.175C445.527 160.925 445.177 162.017 445.177 163.45V171H442.927V163.25C442.927 161.883 442.585 160.842 441.902 160.125C441.235 159.392 440.327 159.025 439.177 159.025C437.993 159.025 437.052 159.408 436.352 160.175C435.652 160.925 435.302 162.017 435.302 163.45V171H433.027V157.3H435.302V159.275C435.752 158.558 436.352 158.008 437.102 157.625C437.868 157.242 438.71 157.05 439.627 157.05C440.777 157.05 441.793 157.308 442.677 157.825C443.56 158.342 444.218 159.1 444.652 160.1C445.035 159.133 445.668 158.383 446.552 157.85C447.435 157.317 448.418 157.05 449.502 157.05Z" fill="white"/>
<path d="M460.558 159.825C461.008 159.042 461.675 158.392 462.558 157.875C463.458 157.342 464.5 157.075 465.683 157.075C466.9 157.075 468 157.367 468.983 157.95C469.983 158.533 470.767 159.358 471.333 160.425C471.9 161.475 472.183 162.7 472.183 164.1C472.183 165.483 471.9 166.717 471.333 167.8C470.767 168.883 469.983 169.725 468.983 170.325C468 170.925 466.9 171.225 465.683 171.225C464.517 171.225 463.483 170.967 462.583 170.45C461.7 169.917 461.025 169.258 460.558 168.475V177.5H458.283V157.3H460.558V159.825ZM469.858 164.1C469.858 163.067 469.65 162.167 469.233 161.4C468.817 160.633 468.25 160.05 467.533 159.65C466.833 159.25 466.058 159.05 465.208 159.05C464.375 159.05 463.6 159.258 462.883 159.675C462.183 160.075 461.617 160.667 461.183 161.45C460.767 162.217 460.558 163.108 460.558 164.125C460.558 165.158 460.767 166.067 461.183 166.85C461.617 167.617 462.183 168.208 462.883 168.625C463.6 169.025 464.375 169.225 465.208 169.225C466.058 169.225 466.833 169.025 467.533 168.625C468.25 168.208 468.817 167.617 469.233 166.85C469.65 166.067 469.858 165.15 469.858 164.1Z" fill="white"/>
<path d="M476.953 159.525C477.353 158.742 477.92 158.133 478.653 157.7C479.403 157.267 480.311 157.05 481.378 157.05V159.4H480.778C478.228 159.4 476.953 160.783 476.953 163.55V171H474.678V157.3H476.953V159.525Z" fill="white"/>
<path d="M496.004 163.625C496.004 164.058 495.979 164.517 495.929 165H484.979C485.062 166.35 485.521 167.408 486.354 168.175C487.204 168.925 488.229 169.3 489.429 169.3C490.413 169.3 491.229 169.075 491.879 168.625C492.546 168.158 493.013 167.542 493.279 166.775H495.729C495.362 168.092 494.629 169.167 493.529 170C492.429 170.817 491.063 171.225 489.429 171.225C488.129 171.225 486.963 170.933 485.929 170.35C484.913 169.767 484.113 168.942 483.529 167.875C482.946 166.792 482.654 165.542 482.654 164.125C482.654 162.708 482.937 161.467 483.504 160.4C484.071 159.333 484.862 158.517 485.879 157.95C486.912 157.367 488.096 157.075 489.429 157.075C490.729 157.075 491.879 157.358 492.879 157.925C493.879 158.492 494.646 159.275 495.179 160.275C495.729 161.258 496.004 162.375 496.004 163.625ZM493.654 163.15C493.654 162.283 493.462 161.542 493.079 160.925C492.696 160.292 492.171 159.817 491.504 159.5C490.854 159.167 490.129 159 489.329 159C488.179 159 487.196 159.367 486.379 160.1C485.579 160.833 485.121 161.85 485.004 163.15H493.654Z" fill="white"/>
<path d="M503.357 171.225C502.307 171.225 501.365 171.05 500.532 170.7C499.699 170.333 499.04 169.833 498.557 169.2C498.074 168.55 497.807 167.808 497.757 166.975H500.107C500.174 167.658 500.49 168.217 501.057 168.65C501.64 169.083 502.399 169.3 503.332 169.3C504.199 169.3 504.882 169.108 505.382 168.725C505.882 168.342 506.132 167.858 506.132 167.275C506.132 166.675 505.865 166.233 505.332 165.95C504.799 165.65 503.974 165.358 502.857 165.075C501.84 164.808 501.007 164.542 500.357 164.275C499.724 163.992 499.174 163.583 498.707 163.05C498.257 162.5 498.032 161.783 498.032 160.9C498.032 160.2 498.24 159.558 498.657 158.975C499.074 158.392 499.665 157.933 500.432 157.6C501.199 157.25 502.074 157.075 503.057 157.075C504.574 157.075 505.799 157.458 506.732 158.225C507.665 158.992 508.165 160.042 508.232 161.375H505.957C505.907 160.658 505.615 160.083 505.082 159.65C504.565 159.217 503.865 159 502.982 159C502.165 159 501.515 159.175 501.032 159.525C500.549 159.875 500.307 160.333 500.307 160.9C500.307 161.35 500.449 161.725 500.732 162.025C501.032 162.308 501.399 162.542 501.832 162.725C502.282 162.892 502.899 163.083 503.682 163.3C504.665 163.567 505.465 163.833 506.082 164.1C506.699 164.35 507.224 164.733 507.657 165.25C508.107 165.767 508.34 166.442 508.357 167.275C508.357 168.025 508.149 168.7 507.732 169.3C507.315 169.9 506.724 170.375 505.957 170.725C505.207 171.058 504.34 171.225 503.357 171.225Z" fill="white"/>
<path d="M515.919 171.225C514.869 171.225 513.927 171.05 513.094 170.7C512.26 170.333 511.602 169.833 511.119 169.2C510.635 168.55 510.369 167.808 510.319 166.975H512.669C512.735 167.658 513.052 168.217 513.619 168.65C514.202 169.083 514.96 169.3 515.894 169.3C516.76 169.3 517.444 169.108 517.944 168.725C518.444 168.342 518.694 167.858 518.694 167.275C518.694 166.675 518.427 166.233 517.894 165.95C517.36 165.65 516.535 165.358 515.419 165.075C514.402 164.808 513.569 164.542 512.919 164.275C512.285 163.992 511.735 163.583 511.269 163.05C510.819 162.5 510.594 161.783 510.594 160.9C510.594 160.2 510.802 159.558 511.219 158.975C511.635 158.392 512.227 157.933 512.994 157.6C513.76 157.25 514.635 157.075 515.619 157.075C517.135 157.075 518.36 157.458 519.294 158.225C520.227 158.992 520.727 160.042 520.794 161.375H518.519C518.469 160.658 518.177 160.083 517.644 159.65C517.127 159.217 516.427 159 515.544 159C514.727 159 514.077 159.175 513.594 159.525C513.11 159.875 512.869 160.333 512.869 160.9C512.869 161.35 513.01 161.725 513.294 162.025C513.594 162.308 513.96 162.542 514.394 162.725C514.844 162.892 515.46 163.083 516.244 163.3C517.227 163.567 518.027 163.833 518.644 164.1C519.26 164.35 519.785 164.733 520.219 165.25C520.669 165.767 520.902 166.442 520.919 167.275C520.919 168.025 520.71 168.7 520.294 169.3C519.877 169.9 519.285 170.375 518.519 170.725C517.769 171.058 516.902 171.225 515.919 171.225Z" fill="white"/>
<path d="M522.78 164.1C522.78 162.7 523.063 161.475 523.63 160.425C524.197 159.358 524.972 158.533 525.955 157.95C526.955 157.367 528.063 157.075 529.28 157.075C530.48 157.075 531.522 157.333 532.405 157.85C533.288 158.367 533.947 159.017 534.38 159.8V157.3H536.68V171H534.38V168.45C533.93 169.25 533.255 169.917 532.355 170.45C531.472 170.967 530.438 171.225 529.255 171.225C528.038 171.225 526.938 170.925 525.955 170.325C524.972 169.725 524.197 168.883 523.63 167.8C523.063 166.717 522.78 165.483 522.78 164.1ZM534.38 164.125C534.38 163.092 534.172 162.192 533.755 161.425C533.338 160.658 532.772 160.075 532.055 159.675C531.355 159.258 530.58 159.05 529.73 159.05C528.88 159.05 528.105 159.25 527.405 159.65C526.705 160.05 526.147 160.633 525.73 161.4C525.313 162.167 525.105 163.067 525.105 164.1C525.105 165.15 525.313 166.067 525.73 166.85C526.147 167.617 526.705 168.208 527.405 168.625C528.105 169.025 528.88 169.225 529.73 169.225C530.58 169.225 531.355 169.025 532.055 168.625C532.772 168.208 533.338 167.617 533.755 166.85C534.172 166.067 534.38 165.158 534.38 164.125Z" fill="white"/>
</svg>
