<svg width="586" height="264" viewBox="0 0 586 264" fill="none" xmlns="http://www.w3.org/2000/svg">
<path d="M0 10C0 4.47716 4.47715 0 10 0H576C581.523 0 586 4.47715 586 10V254C586 259.523 581.523 264 576 264H10C4.47717 264 0 259.523 0 254V10Z" fill="#6300E2"/>
<path d="M226.375 92.375C228.225 92.375 229.842 92.75 231.225 93.5C232.625 94.2333 233.7 95.2667 234.45 96.6C235.2 97.9333 235.575 99.4583 235.575 101.175C235.575 102.875 235.192 104.392 234.425 105.725C233.675 107.058 232.6 108.108 231.2 108.875C229.817 109.625 228.208 110 226.375 110H219.4V92.375H226.375ZM226 105.675C227.433 105.675 228.558 105.283 229.375 104.5C230.192 103.717 230.6 102.608 230.6 101.175C230.6 99.725 230.192 98.6083 229.375 97.825C228.558 97.025 227.433 96.625 226 96.625H224.3V105.675H226Z" fill="white"/>
<path d="M242.684 92.375V110H237.784V92.375H242.684Z" fill="white"/>
<path d="M252.124 110.175C250.074 110.175 248.391 109.692 247.074 108.725C245.758 107.742 245.049 106.342 244.949 104.525H250.174C250.224 105.142 250.408 105.592 250.724 105.875C251.041 106.158 251.449 106.3 251.949 106.3C252.399 106.3 252.766 106.192 253.049 105.975C253.349 105.742 253.499 105.425 253.499 105.025C253.499 104.508 253.258 104.108 252.774 103.825C252.291 103.542 251.508 103.225 250.424 102.875C249.274 102.492 248.341 102.125 247.624 101.775C246.924 101.408 246.308 100.883 245.774 100.2C245.258 99.5 244.999 98.5917 244.999 97.475C244.999 96.3417 245.283 95.375 245.849 94.575C246.416 93.7583 247.199 93.1417 248.199 92.725C249.199 92.3083 250.333 92.1 251.599 92.1C253.649 92.1 255.283 92.5833 256.499 93.55C257.733 94.5 258.391 95.8417 258.474 97.575H253.149C253.133 97.0417 252.966 96.6417 252.649 96.375C252.349 96.1083 251.958 95.975 251.474 95.975C251.108 95.975 250.808 96.0833 250.574 96.3C250.341 96.5167 250.224 96.825 250.224 97.225C250.224 97.5583 250.349 97.85 250.599 98.1C250.866 98.3333 251.191 98.5417 251.574 98.725C251.958 98.8917 252.524 99.1083 253.274 99.375C254.391 99.7583 255.308 100.142 256.024 100.525C256.758 100.892 257.383 101.417 257.899 102.1C258.433 102.767 258.699 103.617 258.699 104.65C258.699 105.7 258.433 106.642 257.899 107.475C257.383 108.308 256.624 108.967 255.624 109.45C254.641 109.933 253.474 110.175 252.124 110.175Z" fill="white"/>
<path d="M265.877 96.3V99.175H271.502V102.9H265.877V106.075H272.252V110H260.977V92.375H272.252V96.3H265.877Z" fill="white"/>
<path d="M290.998 110H286.098L279.573 100.15V110H274.673V92.375H279.573L286.098 102.35V92.375H290.998V110ZM277.398 91.25C277.865 88.5333 279.115 87.175 281.148 87.175C281.532 87.175 281.873 87.2333 282.173 87.35C282.49 87.4667 282.848 87.6333 283.248 87.85C283.532 88 283.773 88.1167 283.973 88.2C284.173 88.2833 284.373 88.325 284.573 88.325C285.19 88.325 285.557 87.9417 285.673 87.175H288.148C287.915 88.5917 287.473 89.625 286.823 90.275C286.19 90.9083 285.382 91.225 284.398 91.225C284.032 91.225 283.698 91.175 283.398 91.075C283.098 90.9583 282.732 90.7917 282.298 90.575C282.015 90.425 281.773 90.3083 281.573 90.225C281.373 90.1417 281.173 90.1 280.973 90.1C280.373 90.1 279.998 90.4833 279.848 91.25H277.398Z" fill="white"/>
<path d="M304.94 107.125H298.69L297.74 110H292.59L299.015 92.375H304.665L311.065 110H305.89L304.94 107.125ZM303.715 103.375L301.815 97.675L299.94 103.375H303.715Z" fill="white"/>
<path d="M328.987 110H324.087L317.562 100.15V110H312.662V92.375H317.562L324.087 102.35V92.375H328.987V110Z" fill="white"/>
<path d="M338.753 92.375C340.603 92.375 342.22 92.75 343.603 93.5C345.003 94.2333 346.078 95.2667 346.828 96.6C347.578 97.9333 347.953 99.4583 347.953 101.175C347.953 102.875 347.57 104.392 346.803 105.725C346.053 107.058 344.978 108.108 343.578 108.875C342.195 109.625 340.586 110 338.753 110H331.778V92.375H338.753ZM338.378 105.675C339.811 105.675 340.936 105.283 341.753 104.5C342.57 103.717 342.978 102.608 342.978 101.175C342.978 99.725 342.57 98.6083 341.753 97.825C340.936 97.025 339.811 96.625 338.378 96.625H336.678V105.675H338.378Z" fill="white"/>
<path d="M358.612 110.175C356.962 110.175 355.445 109.792 354.062 109.025C352.678 108.242 351.578 107.167 350.762 105.8C349.962 104.417 349.562 102.858 349.562 101.125C349.562 99.3917 349.962 97.8417 350.762 96.475C351.578 95.0917 352.678 94.0167 354.062 93.25C355.445 92.4833 356.962 92.1 358.612 92.1C360.278 92.1 361.795 92.4833 363.162 93.25C364.545 94.0167 365.637 95.0917 366.437 96.475C367.237 97.8417 367.637 99.3917 367.637 101.125C367.637 102.858 367.237 104.417 366.437 105.8C365.637 107.167 364.545 108.242 363.162 109.025C361.778 109.792 360.262 110.175 358.612 110.175ZM358.612 105.625C359.862 105.625 360.845 105.217 361.562 104.4C362.295 103.583 362.662 102.492 362.662 101.125C362.662 99.725 362.295 98.625 361.562 97.825C360.845 97.0083 359.862 96.6 358.612 96.6C357.345 96.6 356.353 97.0083 355.637 97.825C354.92 98.625 354.562 99.725 354.562 101.125C354.562 102.508 354.92 103.608 355.637 104.425C356.353 105.225 357.345 105.625 358.612 105.625Z" fill="white"/>
<path d="M222.2 125.575V143H219.925V125.575H222.2Z" fill="white"/>
<path d="M228.352 131.175V139.25C228.352 139.917 228.494 140.392 228.777 140.675C229.061 140.942 229.552 141.075 230.252 141.075H231.927V143H229.877C228.611 143 227.661 142.708 227.027 142.125C226.394 141.542 226.077 140.583 226.077 139.25V131.175H224.302V129.3H226.077V125.85H228.352V129.3H231.927V131.175H228.352Z" fill="white"/>
<path d="M246.684 135.625C246.684 136.058 246.659 136.517 246.609 137H235.659C235.742 138.35 236.2 139.408 237.034 140.175C237.884 140.925 238.909 141.3 240.109 141.3C241.092 141.3 241.909 141.075 242.559 140.625C243.225 140.158 243.692 139.542 243.959 138.775H246.409C246.042 140.092 245.309 141.167 244.209 142C243.109 142.817 241.742 143.225 240.109 143.225C238.809 143.225 237.642 142.933 236.609 142.35C235.592 141.767 234.792 140.942 234.209 139.875C233.625 138.792 233.334 137.542 233.334 136.125C233.334 134.708 233.617 133.467 234.184 132.4C234.75 131.333 235.542 130.517 236.559 129.95C237.592 129.367 238.775 129.075 240.109 129.075C241.409 129.075 242.559 129.358 243.559 129.925C244.559 130.492 245.325 131.275 245.859 132.275C246.409 133.258 246.684 134.375 246.684 135.625ZM244.334 135.15C244.334 134.283 244.142 133.542 243.759 132.925C243.375 132.292 242.85 131.817 242.184 131.5C241.534 131.167 240.809 131 240.009 131C238.859 131 237.875 131.367 237.059 132.1C236.259 132.833 235.8 133.85 235.684 135.15H244.334Z" fill="white"/>
<path d="M251.462 131.525C251.862 130.742 252.428 130.133 253.162 129.7C253.912 129.267 254.82 129.05 255.887 129.05V131.4H255.287C252.737 131.4 251.462 132.783 251.462 135.55V143H249.187V129.3H251.462V131.525Z" fill="white"/>
<path d="M257.163 136.1C257.163 134.7 257.446 133.475 258.013 132.425C258.58 131.358 259.355 130.533 260.338 129.95C261.338 129.367 262.446 129.075 263.663 129.075C264.863 129.075 265.905 129.333 266.788 129.85C267.671 130.367 268.33 131.017 268.763 131.8V129.3H271.063V143H268.763V140.45C268.313 141.25 267.638 141.917 266.738 142.45C265.855 142.967 264.821 143.225 263.638 143.225C262.421 143.225 261.321 142.925 260.338 142.325C259.355 141.725 258.58 140.883 258.013 139.8C257.446 138.717 257.163 137.483 257.163 136.1ZM268.763 136.125C268.763 135.092 268.555 134.192 268.138 133.425C267.721 132.658 267.155 132.075 266.438 131.675C265.738 131.258 264.963 131.05 264.113 131.05C263.263 131.05 262.488 131.25 261.788 131.65C261.088 132.05 260.53 132.633 260.113 133.4C259.696 134.167 259.488 135.067 259.488 136.1C259.488 137.15 259.696 138.067 260.113 138.85C260.53 139.617 261.088 140.208 261.788 140.625C262.488 141.025 263.263 141.225 264.113 141.225C264.963 141.225 265.738 141.025 266.438 140.625C267.155 140.208 267.721 139.617 268.138 138.85C268.555 138.067 268.763 137.158 268.763 136.125Z" fill="white"/>
<path d="M281.082 129.05C282.749 129.05 284.099 129.558 285.132 130.575C286.166 131.575 286.682 133.025 286.682 134.925V143H284.432V135.25C284.432 133.883 284.091 132.842 283.407 132.125C282.724 131.392 281.791 131.025 280.607 131.025C279.407 131.025 278.449 131.4 277.732 132.15C277.032 132.9 276.682 133.992 276.682 135.425V143H274.407V129.3H276.682V131.25C277.132 130.55 277.741 130.008 278.507 129.625C279.291 129.242 280.149 129.05 281.082 129.05Z" fill="white"/>
<path d="M289.049 136.1C289.049 134.7 289.332 133.475 289.899 132.425C290.465 131.358 291.24 130.533 292.224 129.95C293.224 129.367 294.34 129.075 295.574 129.075C296.64 129.075 297.632 129.325 298.549 129.825C299.465 130.308 300.165 130.95 300.649 131.75V124.5H302.949V143H300.649V140.425C300.199 141.242 299.532 141.917 298.649 142.45C297.765 142.967 296.732 143.225 295.549 143.225C294.332 143.225 293.224 142.925 292.224 142.325C291.24 141.725 290.465 140.883 289.899 139.8C289.332 138.717 289.049 137.483 289.049 136.1ZM300.649 136.125C300.649 135.092 300.44 134.192 300.024 133.425C299.607 132.658 299.04 132.075 298.324 131.675C297.624 131.258 296.849 131.05 295.999 131.05C295.149 131.05 294.374 131.25 293.674 131.65C292.974 132.05 292.415 132.633 291.999 133.4C291.582 134.167 291.374 135.067 291.374 136.1C291.374 137.15 291.582 138.067 291.999 138.85C292.415 139.617 292.974 140.208 293.674 140.625C294.374 141.025 295.149 141.225 295.999 141.225C296.849 141.225 297.624 141.025 298.324 140.625C299.04 140.208 299.607 139.617 300.024 138.85C300.44 138.067 300.649 137.158 300.649 136.125Z" fill="white"/>
<path d="M312.268 143.225C310.985 143.225 309.818 142.933 308.768 142.35C307.735 141.767 306.918 140.942 306.318 139.875C305.735 138.792 305.443 137.542 305.443 136.125C305.443 134.725 305.743 133.492 306.343 132.425C306.96 131.342 307.793 130.517 308.843 129.95C309.893 129.367 311.068 129.075 312.368 129.075C313.668 129.075 314.843 129.367 315.893 129.95C316.943 130.517 317.768 131.333 318.368 132.4C318.985 133.467 319.293 134.708 319.293 136.125C319.293 137.542 318.976 138.792 318.343 139.875C317.726 140.942 316.885 141.767 315.818 142.35C314.751 142.933 313.568 143.225 312.268 143.225ZM312.268 141.225C313.085 141.225 313.851 141.033 314.568 140.65C315.285 140.267 315.86 139.692 316.293 138.925C316.743 138.158 316.968 137.225 316.968 136.125C316.968 135.025 316.751 134.092 316.318 133.325C315.885 132.558 315.318 131.992 314.618 131.625C313.918 131.242 313.16 131.05 312.343 131.05C311.51 131.05 310.743 131.242 310.043 131.625C309.36 131.992 308.81 132.558 308.393 133.325C307.976 134.092 307.768 135.025 307.768 136.125C307.768 137.242 307.968 138.183 308.368 138.95C308.785 139.717 309.335 140.292 310.018 140.675C310.701 141.042 311.451 141.225 312.268 141.225Z" fill="white"/>
<path d="M340.099 129.3V143H337.824V140.975C337.391 141.675 336.783 142.225 335.999 142.625C335.233 143.008 334.383 143.2 333.449 143.2C332.383 143.2 331.424 142.983 330.574 142.55C329.724 142.1 329.049 141.433 328.549 140.55C328.066 139.667 327.824 138.592 327.824 137.325V129.3H330.074V137.025C330.074 138.375 330.416 139.417 331.099 140.15C331.783 140.867 332.716 141.225 333.899 141.225C335.116 141.225 336.074 140.85 336.774 140.1C337.474 139.35 337.824 138.258 337.824 136.825V129.3H340.099Z" fill="white"/>
<path d="M350.116 129.05C351.782 129.05 353.132 129.558 354.166 130.575C355.199 131.575 355.716 133.025 355.716 134.925V143H353.466V135.25C353.466 133.883 353.124 132.842 352.441 132.125C351.757 131.392 350.824 131.025 349.641 131.025C348.441 131.025 347.482 131.4 346.766 132.15C346.066 132.9 345.716 133.992 345.716 135.425V143H343.441V129.3H345.716V131.25C346.166 130.55 346.774 130.008 347.541 129.625C348.324 129.242 349.182 129.05 350.116 129.05Z" fill="white"/>
<path d="M369.947 143.225C368.897 143.225 367.955 143.05 367.122 142.7C366.288 142.333 365.63 141.833 365.147 141.2C364.664 140.55 364.397 139.808 364.347 138.975H366.697C366.763 139.658 367.08 140.217 367.647 140.65C368.23 141.083 368.988 141.3 369.922 141.3C370.788 141.3 371.472 141.108 371.972 140.725C372.472 140.342 372.722 139.858 372.722 139.275C372.722 138.675 372.455 138.233 371.922 137.95C371.388 137.65 370.563 137.358 369.447 137.075C368.43 136.808 367.597 136.542 366.947 136.275C366.313 135.992 365.763 135.583 365.297 135.05C364.847 134.5 364.622 133.783 364.622 132.9C364.622 132.2 364.83 131.558 365.247 130.975C365.663 130.392 366.255 129.933 367.022 129.6C367.789 129.25 368.664 129.075 369.647 129.075C371.164 129.075 372.388 129.458 373.322 130.225C374.255 130.992 374.755 132.042 374.822 133.375H372.547C372.497 132.658 372.205 132.083 371.672 131.65C371.155 131.217 370.455 131 369.572 131C368.755 131 368.105 131.175 367.622 131.525C367.138 131.875 366.897 132.333 366.897 132.9C366.897 133.35 367.038 133.725 367.322 134.025C367.622 134.308 367.988 134.542 368.422 134.725C368.872 134.892 369.489 135.083 370.272 135.3C371.255 135.567 372.055 135.833 372.672 136.1C373.288 136.35 373.813 136.733 374.247 137.25C374.697 137.767 374.93 138.442 374.947 139.275C374.947 140.025 374.738 140.7 374.322 141.3C373.905 141.9 373.313 142.375 372.547 142.725C371.797 143.058 370.93 143.225 369.947 143.225Z" fill="white"/>
<path d="M378.833 127.075C378.4 127.075 378.033 126.925 377.733 126.625C377.433 126.325 377.283 125.958 377.283 125.525C377.283 125.092 377.433 124.725 377.733 124.425C378.033 124.125 378.4 123.975 378.833 123.975C379.25 123.975 379.6 124.125 379.883 124.425C380.183 124.725 380.333 125.092 380.333 125.525C380.333 125.958 380.183 126.325 379.883 126.625C379.6 126.925 379.25 127.075 378.833 127.075ZM379.933 129.3V143H377.658V129.3H379.933Z" fill="white"/>
<path d="M388.161 143.225C387.111 143.225 386.169 143.05 385.336 142.7C384.502 142.333 383.844 141.833 383.361 141.2C382.877 140.55 382.611 139.808 382.561 138.975H384.911C384.977 139.658 385.294 140.217 385.861 140.65C386.444 141.083 387.202 141.3 388.136 141.3C389.002 141.3 389.686 141.108 390.186 140.725C390.686 140.342 390.936 139.858 390.936 139.275C390.936 138.675 390.669 138.233 390.136 137.95C389.602 137.65 388.777 137.358 387.661 137.075C386.644 136.808 385.811 136.542 385.161 136.275C384.527 135.992 383.977 135.583 383.511 135.05C383.061 134.5 382.836 133.783 382.836 132.9C382.836 132.2 383.044 131.558 383.461 130.975C383.877 130.392 384.469 129.933 385.236 129.6C386.002 129.25 386.877 129.075 387.861 129.075C389.377 129.075 390.602 129.458 391.536 130.225C392.469 130.992 392.969 132.042 393.036 133.375H390.761C390.711 132.658 390.419 132.083 389.886 131.65C389.369 131.217 388.669 131 387.786 131C386.969 131 386.319 131.175 385.836 131.525C385.352 131.875 385.111 132.333 385.111 132.9C385.111 133.35 385.252 133.725 385.536 134.025C385.836 134.308 386.202 134.542 386.636 134.725C387.086 134.892 387.702 135.083 388.486 135.3C389.469 135.567 390.269 135.833 390.886 136.1C391.502 136.35 392.027 136.733 392.461 137.25C392.911 137.767 393.144 138.442 393.161 139.275C393.161 140.025 392.952 140.7 392.536 141.3C392.119 141.9 391.527 142.375 390.761 142.725C390.011 143.058 389.144 143.225 388.161 143.225Z" fill="white"/>
<path d="M398.647 131.175V139.25C398.647 139.917 398.789 140.392 399.072 140.675C399.356 140.942 399.847 141.075 400.547 141.075H402.222V143H400.172C398.906 143 397.956 142.708 397.322 142.125C396.689 141.542 396.372 140.583 396.372 139.25V131.175H394.597V129.3H396.372V125.85H398.647V129.3H402.222V131.175H398.647Z" fill="white"/>
<path d="M416.979 135.625C416.979 136.058 416.954 136.517 416.904 137H405.954C406.037 138.35 406.495 139.408 407.329 140.175C408.179 140.925 409.204 141.3 410.404 141.3C411.387 141.3 412.204 141.075 412.854 140.625C413.52 140.158 413.987 139.542 414.254 138.775H416.704C416.337 140.092 415.604 141.167 414.504 142C413.404 142.817 412.037 143.225 410.404 143.225C409.104 143.225 407.937 142.933 406.904 142.35C405.887 141.767 405.087 140.942 404.504 139.875C403.92 138.792 403.629 137.542 403.629 136.125C403.629 134.708 403.912 133.467 404.479 132.4C405.045 131.333 405.837 130.517 406.854 129.95C407.887 129.367 409.07 129.075 410.404 129.075C411.704 129.075 412.854 129.358 413.854 129.925C414.854 130.492 415.62 131.275 416.154 132.275C416.704 133.258 416.979 134.375 416.979 135.625ZM414.629 135.15C414.629 134.283 414.437 133.542 414.054 132.925C413.67 132.292 413.145 131.817 412.479 131.5C411.829 131.167 411.104 131 410.304 131C409.154 131 408.17 131.367 407.354 132.1C406.554 132.833 406.095 133.85 405.979 135.15H414.629Z" fill="white"/>
<path d="M435.957 129.05C437.023 129.05 437.973 129.275 438.807 129.725C439.64 130.158 440.298 130.817 440.782 131.7C441.265 132.583 441.507 133.658 441.507 134.925V143H439.257V135.25C439.257 133.883 438.915 132.842 438.232 132.125C437.565 131.392 436.657 131.025 435.507 131.025C434.323 131.025 433.382 131.408 432.682 132.175C431.982 132.925 431.632 134.017 431.632 135.45V143H429.382V135.25C429.382 133.883 429.04 132.842 428.357 132.125C427.69 131.392 426.782 131.025 425.632 131.025C424.448 131.025 423.507 131.408 422.807 132.175C422.107 132.925 421.757 134.017 421.757 135.45V143H419.482V129.3H421.757V131.275C422.207 130.558 422.807 130.008 423.557 129.625C424.323 129.242 425.165 129.05 426.082 129.05C427.232 129.05 428.248 129.308 429.132 129.825C430.015 130.342 430.673 131.1 431.107 132.1C431.49 131.133 432.123 130.383 433.007 129.85C433.89 129.317 434.873 129.05 435.957 129.05Z" fill="white"/>
<path d="M443.888 136.1C443.888 134.7 444.172 133.475 444.738 132.425C445.305 131.358 446.08 130.533 447.063 129.95C448.063 129.367 449.172 129.075 450.388 129.075C451.588 129.075 452.63 129.333 453.513 129.85C454.397 130.367 455.055 131.017 455.488 131.8V129.3H457.788V143H455.488V140.45C455.038 141.25 454.363 141.917 453.463 142.45C452.58 142.967 451.547 143.225 450.363 143.225C449.147 143.225 448.047 142.925 447.063 142.325C446.08 141.725 445.305 140.883 444.738 139.8C444.172 138.717 443.888 137.483 443.888 136.1ZM455.488 136.125C455.488 135.092 455.28 134.192 454.863 133.425C454.447 132.658 453.88 132.075 453.163 131.675C452.463 131.258 451.688 131.05 450.838 131.05C449.988 131.05 449.213 131.25 448.513 131.65C447.813 132.05 447.255 132.633 446.838 133.4C446.422 134.167 446.213 135.067 446.213 136.1C446.213 137.15 446.422 138.067 446.838 138.85C447.255 139.617 447.813 140.208 448.513 140.625C449.213 141.025 449.988 141.225 450.838 141.225C451.688 141.225 452.463 141.025 453.163 140.625C453.88 140.208 454.447 139.617 454.863 138.85C455.28 138.067 455.488 137.158 455.488 136.125Z" fill="white"/>
<path d="M219.075 164.1C219.075 162.7 219.358 161.475 219.925 160.425C220.492 159.358 221.267 158.533 222.25 157.95C223.25 157.367 224.367 157.075 225.6 157.075C226.667 157.075 227.658 157.325 228.575 157.825C229.492 158.308 230.192 158.95 230.675 159.75V152.5H232.975V171H230.675V168.425C230.225 169.242 229.558 169.917 228.675 170.45C227.792 170.967 226.758 171.225 225.575 171.225C224.358 171.225 223.25 170.925 222.25 170.325C221.267 169.725 220.492 168.883 219.925 167.8C219.358 166.717 219.075 165.483 219.075 164.1ZM230.675 164.125C230.675 163.092 230.467 162.192 230.05 161.425C229.633 160.658 229.067 160.075 228.35 159.675C227.65 159.258 226.875 159.05 226.025 159.05C225.175 159.05 224.4 159.25 223.7 159.65C223 160.05 222.442 160.633 222.025 161.4C221.608 162.167 221.4 163.067 221.4 164.1C221.4 165.15 221.608 166.067 222.025 166.85C222.442 167.617 223 168.208 223.7 168.625C224.4 169.025 225.175 169.225 226.025 169.225C226.875 169.225 227.65 169.025 228.35 168.625C229.067 168.208 229.633 167.617 230.05 166.85C230.467 166.067 230.675 165.158 230.675 164.125Z" fill="white"/>
<path d="M248.819 163.625C248.819 164.058 248.794 164.517 248.744 165H237.794C237.878 166.35 238.336 167.408 239.169 168.175C240.019 168.925 241.044 169.3 242.244 169.3C243.228 169.3 244.044 169.075 244.694 168.625C245.361 168.158 245.828 167.542 246.094 166.775H248.544C248.178 168.092 247.444 169.167 246.344 170C245.244 170.817 243.878 171.225 242.244 171.225C240.944 171.225 239.778 170.933 238.744 170.35C237.728 169.767 236.928 168.942 236.344 167.875C235.761 166.792 235.469 165.542 235.469 164.125C235.469 162.708 235.753 161.467 236.319 160.4C236.886 159.333 237.678 158.517 238.694 157.95C239.728 157.367 240.911 157.075 242.244 157.075C243.544 157.075 244.694 157.358 245.694 157.925C246.694 158.492 247.461 159.275 247.994 160.275C248.544 161.258 248.819 162.375 248.819 163.625ZM246.469 163.15C246.469 162.283 246.278 161.542 245.894 160.925C245.511 160.292 244.986 159.817 244.319 159.5C243.669 159.167 242.944 159 242.144 159C240.994 159 240.011 159.367 239.194 160.1C238.394 160.833 237.936 161.85 237.819 163.15H246.469Z" fill="white"/>
<path d="M263.137 157.075C264.321 157.075 265.354 157.333 266.237 157.85C267.137 158.367 267.804 159.017 268.237 159.8V157.3H270.537V171.3C270.537 172.55 270.271 173.658 269.737 174.625C269.204 175.608 268.437 176.375 267.437 176.925C266.454 177.475 265.304 177.75 263.987 177.75C262.187 177.75 260.687 177.325 259.487 176.475C258.287 175.625 257.579 174.467 257.362 173H259.612C259.862 173.833 260.379 174.5 261.162 175C261.946 175.517 262.887 175.775 263.987 175.775C265.237 175.775 266.254 175.383 267.037 174.6C267.837 173.817 268.237 172.717 268.237 171.3V168.425C267.787 169.225 267.121 169.892 266.237 170.425C265.354 170.958 264.321 171.225 263.137 171.225C261.921 171.225 260.812 170.925 259.812 170.325C258.829 169.725 258.054 168.883 257.487 167.8C256.921 166.717 256.637 165.483 256.637 164.1C256.637 162.7 256.921 161.475 257.487 160.425C258.054 159.358 258.829 158.533 259.812 157.95C260.812 157.367 261.921 157.075 263.137 157.075ZM268.237 164.125C268.237 163.092 268.029 162.192 267.612 161.425C267.196 160.658 266.629 160.075 265.912 159.675C265.212 159.258 264.437 159.05 263.587 159.05C262.737 159.05 261.962 159.25 261.262 159.65C260.562 160.05 260.004 160.633 259.587 161.4C259.171 162.167 258.962 163.067 258.962 164.1C258.962 165.15 259.171 166.067 259.587 166.85C260.004 167.617 260.562 168.208 261.262 168.625C261.962 169.025 262.737 169.225 263.587 169.225C264.437 169.225 265.212 169.025 265.912 168.625C266.629 168.208 267.196 167.617 267.612 166.85C268.029 166.067 268.237 165.158 268.237 164.125Z" fill="white"/>
<path d="M286.382 163.625C286.382 164.058 286.357 164.517 286.307 165H275.357C275.44 166.35 275.899 167.408 276.732 168.175C277.582 168.925 278.607 169.3 279.807 169.3C280.79 169.3 281.607 169.075 282.257 168.625C282.924 168.158 283.39 167.542 283.657 166.775H286.107C285.74 168.092 285.007 169.167 283.907 170C282.807 170.817 281.44 171.225 279.807 171.225C278.507 171.225 277.34 170.933 276.307 170.35C275.29 169.767 274.49 168.942 273.907 167.875C273.324 166.792 273.032 165.542 273.032 164.125C273.032 162.708 273.315 161.467 273.882 160.4C274.449 159.333 275.24 158.517 276.257 157.95C277.29 157.367 278.474 157.075 279.807 157.075C281.107 157.075 282.257 157.358 283.257 157.925C284.257 158.492 285.024 159.275 285.557 160.275C286.107 161.258 286.382 162.375 286.382 163.625ZM284.032 163.15C284.032 162.283 283.84 161.542 283.457 160.925C283.074 160.292 282.549 159.817 281.882 159.5C281.232 159.167 280.507 159 279.707 159C278.557 159 277.574 159.367 276.757 160.1C275.957 160.833 275.499 161.85 275.382 163.15H284.032Z" fill="white"/>
<path d="M293.735 171.225C292.685 171.225 291.743 171.05 290.91 170.7C290.077 170.333 289.418 169.833 288.935 169.2C288.452 168.55 288.185 167.808 288.135 166.975H290.485C290.552 167.658 290.868 168.217 291.435 168.65C292.018 169.083 292.777 169.3 293.71 169.3C294.577 169.3 295.26 169.108 295.76 168.725C296.26 168.342 296.51 167.858 296.51 167.275C296.51 166.675 296.243 166.233 295.71 165.95C295.177 165.65 294.352 165.358 293.235 165.075C292.218 164.808 291.385 164.542 290.735 164.275C290.102 163.992 289.552 163.583 289.085 163.05C288.635 162.5 288.41 161.783 288.41 160.9C288.41 160.2 288.618 159.558 289.035 158.975C289.452 158.392 290.043 157.933 290.81 157.6C291.577 157.25 292.452 157.075 293.435 157.075C294.952 157.075 296.177 157.458 297.11 158.225C298.043 158.992 298.543 160.042 298.61 161.375H296.335C296.285 160.658 295.993 160.083 295.46 159.65C294.943 159.217 294.243 159 293.36 159C292.543 159 291.893 159.175 291.41 159.525C290.927 159.875 290.685 160.333 290.685 160.9C290.685 161.35 290.827 161.725 291.11 162.025C291.41 162.308 291.777 162.542 292.21 162.725C292.66 162.892 293.277 163.083 294.06 163.3C295.043 163.567 295.843 163.833 296.46 164.1C297.077 164.35 297.602 164.733 298.035 165.25C298.485 165.767 298.718 166.442 298.735 167.275C298.735 168.025 298.527 168.7 298.11 169.3C297.693 169.9 297.102 170.375 296.335 170.725C295.585 171.058 294.718 171.225 293.735 171.225Z" fill="white"/>
<path d="M304.221 159.175V167.25C304.221 167.917 304.363 168.392 304.646 168.675C304.93 168.942 305.421 169.075 306.121 169.075H307.796V171H305.746C304.48 171 303.53 170.708 302.896 170.125C302.263 169.542 301.946 168.583 301.946 167.25V159.175H300.171V157.3H301.946V153.85H304.221V157.3H307.796V159.175H304.221Z" fill="white"/>
<path d="M311.228 155.075C310.795 155.075 310.428 154.925 310.128 154.625C309.828 154.325 309.678 153.958 309.678 153.525C309.678 153.092 309.828 152.725 310.128 152.425C310.428 152.125 310.795 151.975 311.228 151.975C311.645 151.975 311.995 152.125 312.278 152.425C312.578 152.725 312.728 153.092 312.728 153.525C312.728 153.958 312.578 154.325 312.278 154.625C311.995 154.925 311.645 155.075 311.228 155.075ZM312.328 157.3V171H310.053V157.3H312.328Z" fill="white"/>
<path d="M321.68 171.225C320.397 171.225 319.23 170.933 318.18 170.35C317.147 169.767 316.33 168.942 315.73 167.875C315.147 166.792 314.855 165.542 314.855 164.125C314.855 162.725 315.155 161.492 315.755 160.425C316.372 159.342 317.205 158.517 318.255 157.95C319.305 157.367 320.48 157.075 321.78 157.075C323.08 157.075 324.255 157.367 325.305 157.95C326.355 158.517 327.18 159.333 327.78 160.4C328.397 161.467 328.705 162.708 328.705 164.125C328.705 165.542 328.389 166.792 327.755 167.875C327.139 168.942 326.297 169.767 325.23 170.35C324.164 170.933 322.98 171.225 321.68 171.225ZM321.68 169.225C322.497 169.225 323.264 169.033 323.98 168.65C324.697 168.267 325.272 167.692 325.705 166.925C326.155 166.158 326.38 165.225 326.38 164.125C326.38 163.025 326.164 162.092 325.73 161.325C325.297 160.558 324.73 159.992 324.03 159.625C323.33 159.242 322.572 159.05 321.755 159.05C320.922 159.05 320.155 159.242 319.455 159.625C318.772 159.992 318.222 160.558 317.805 161.325C317.389 162.092 317.18 163.025 317.18 164.125C317.18 165.242 317.38 166.183 317.78 166.95C318.197 167.717 318.747 168.292 319.43 168.675C320.114 169.042 320.864 169.225 321.68 169.225ZM324.23 153.25L318.905 156.1V154.4L324.23 151.275V153.25Z" fill="white"/>
<path d="M337.871 157.05C339.538 157.05 340.888 157.558 341.921 158.575C342.955 159.575 343.471 161.025 343.471 162.925V171H341.221V163.25C341.221 161.883 340.88 160.842 340.196 160.125C339.513 159.392 338.58 159.025 337.396 159.025C336.196 159.025 335.238 159.4 334.521 160.15C333.821 160.9 333.471 161.992 333.471 163.425V171H331.196V157.3H333.471V159.25C333.921 158.55 334.53 158.008 335.296 157.625C336.08 157.242 336.938 157.05 337.871 157.05Z" fill="white"/>
<path d="M352.003 164.1C352.003 162.7 352.286 161.475 352.853 160.425C353.419 159.358 354.194 158.533 355.178 157.95C356.178 157.367 357.294 157.075 358.528 157.075C359.594 157.075 360.586 157.325 361.503 157.825C362.419 158.308 363.119 158.95 363.603 159.75V152.5H365.903V171H363.603V168.425C363.153 169.242 362.486 169.917 361.603 170.45C360.719 170.967 359.686 171.225 358.503 171.225C357.286 171.225 356.178 170.925 355.178 170.325C354.194 169.725 353.419 168.883 352.853 167.8C352.286 166.717 352.003 165.483 352.003 164.1ZM363.603 164.125C363.603 163.092 363.394 162.192 362.978 161.425C362.561 160.658 361.994 160.075 361.278 159.675C360.578 159.258 359.803 159.05 358.953 159.05C358.103 159.05 357.328 159.25 356.628 159.65C355.928 160.05 355.369 160.633 354.953 161.4C354.536 162.167 354.328 163.067 354.328 164.1C354.328 165.15 354.536 166.067 354.953 166.85C355.369 167.617 355.928 168.208 356.628 168.625C357.328 169.025 358.103 169.225 358.953 169.225C359.803 169.225 360.578 169.025 361.278 168.625C361.994 168.208 362.561 167.617 362.978 166.85C363.394 166.067 363.603 165.158 363.603 164.125Z" fill="white"/>
<path d="M381.747 163.625C381.747 164.058 381.722 164.517 381.672 165H370.722C370.806 166.35 371.264 167.408 372.097 168.175C372.947 168.925 373.972 169.3 375.172 169.3C376.156 169.3 376.972 169.075 377.622 168.625C378.289 168.158 378.756 167.542 379.022 166.775H381.472C381.106 168.092 380.372 169.167 379.272 170C378.172 170.817 376.806 171.225 375.172 171.225C373.872 171.225 372.706 170.933 371.672 170.35C370.656 169.767 369.856 168.942 369.272 167.875C368.689 166.792 368.397 165.542 368.397 164.125C368.397 162.708 368.681 161.467 369.247 160.4C369.814 159.333 370.606 158.517 371.622 157.95C372.656 157.367 373.839 157.075 375.172 157.075C376.472 157.075 377.622 157.358 378.622 157.925C379.622 158.492 380.389 159.275 380.922 160.275C381.472 161.258 381.747 162.375 381.747 163.625ZM379.397 163.15C379.397 162.283 379.206 161.542 378.822 160.925C378.439 160.292 377.914 159.817 377.247 159.5C376.597 159.167 375.872 159 375.072 159C373.922 159 372.939 159.367 372.122 160.1C371.322 160.833 370.864 161.85 370.747 163.15H379.397Z" fill="white"/>
<path d="M395.265 171.225C394.215 171.225 393.274 171.05 392.44 170.7C391.607 170.333 390.949 169.833 390.465 169.2C389.982 168.55 389.715 167.808 389.665 166.975H392.015C392.082 167.658 392.399 168.217 392.965 168.65C393.549 169.083 394.307 169.3 395.24 169.3C396.107 169.3 396.79 169.108 397.29 168.725C397.79 168.342 398.04 167.858 398.04 167.275C398.04 166.675 397.774 166.233 397.24 165.95C396.707 165.65 395.882 165.358 394.765 165.075C393.749 164.808 392.915 164.542 392.265 164.275C391.632 163.992 391.082 163.583 390.615 163.05C390.165 162.5 389.94 161.783 389.94 160.9C389.94 160.2 390.149 159.558 390.565 158.975C390.982 158.392 391.574 157.933 392.34 157.6C393.107 157.25 393.982 157.075 394.965 157.075C396.482 157.075 397.707 157.458 398.64 158.225C399.574 158.992 400.074 160.042 400.14 161.375H397.865C397.815 160.658 397.524 160.083 396.99 159.65C396.474 159.217 395.774 159 394.89 159C394.074 159 393.424 159.175 392.94 159.525C392.457 159.875 392.215 160.333 392.215 160.9C392.215 161.35 392.357 161.725 392.64 162.025C392.94 162.308 393.307 162.542 393.74 162.725C394.19 162.892 394.807 163.083 395.59 163.3C396.574 163.567 397.374 163.833 397.99 164.1C398.607 164.35 399.132 164.733 399.565 165.25C400.015 165.767 400.249 166.442 400.265 167.275C400.265 168.025 400.057 168.7 399.64 169.3C399.224 169.9 398.632 170.375 397.865 170.725C397.115 171.058 396.249 171.225 395.265 171.225Z" fill="white"/>
<path d="M408.952 171.225C407.668 171.225 406.502 170.933 405.452 170.35C404.418 169.767 403.602 168.942 403.002 167.875C402.418 166.792 402.127 165.542 402.127 164.125C402.127 162.725 402.427 161.492 403.027 160.425C403.643 159.342 404.477 158.517 405.527 157.95C406.577 157.367 407.752 157.075 409.052 157.075C410.352 157.075 411.527 157.367 412.577 157.95C413.627 158.517 414.452 159.333 415.052 160.4C415.668 161.467 415.977 162.708 415.977 164.125C415.977 165.542 415.66 166.792 415.027 167.875C414.41 168.942 413.568 169.767 412.502 170.35C411.435 170.933 410.252 171.225 408.952 171.225ZM408.952 169.225C409.768 169.225 410.535 169.033 411.252 168.65C411.968 168.267 412.543 167.692 412.977 166.925C413.427 166.158 413.652 165.225 413.652 164.125C413.652 163.025 413.435 162.092 413.002 161.325C412.568 160.558 412.002 159.992 411.302 159.625C410.602 159.242 409.843 159.05 409.027 159.05C408.193 159.05 407.427 159.242 406.727 159.625C406.043 159.992 405.493 160.558 405.077 161.325C404.66 162.092 404.452 163.025 404.452 164.125C404.452 165.242 404.652 166.183 405.052 166.95C405.468 167.717 406.018 168.292 406.702 168.675C407.385 169.042 408.135 169.225 408.952 169.225Z" fill="white"/>
<path d="M420.743 152.5V171H418.468V152.5H420.743Z" fill="white"/>
<path d="M425.295 155.075C424.862 155.075 424.495 154.925 424.195 154.625C423.895 154.325 423.745 153.958 423.745 153.525C423.745 153.092 423.895 152.725 424.195 152.425C424.495 152.125 424.862 151.975 425.295 151.975C425.712 151.975 426.062 152.125 426.345 152.425C426.645 152.725 426.795 153.092 426.795 153.525C426.795 153.958 426.645 154.325 426.345 154.625C426.062 154.925 425.712 155.075 425.295 155.075ZM426.395 157.3V171H424.12V157.3H426.395Z" fill="white"/>
<path d="M428.923 164.125C428.923 162.708 429.206 161.475 429.773 160.425C430.339 159.358 431.123 158.533 432.123 157.95C433.139 157.367 434.298 157.075 435.598 157.075C437.281 157.075 438.664 157.483 439.748 158.3C440.848 159.117 441.573 160.25 441.923 161.7H439.473C439.239 160.867 438.781 160.208 438.098 159.725C437.431 159.242 436.598 159 435.598 159C434.298 159 433.248 159.45 432.448 160.35C431.648 161.233 431.248 162.492 431.248 164.125C431.248 165.775 431.648 167.05 432.448 167.95C433.248 168.85 434.298 169.3 435.598 169.3C436.598 169.3 437.431 169.067 438.098 168.6C438.764 168.133 439.223 167.467 439.473 166.6H441.923C441.556 168 440.823 169.125 439.723 169.975C438.623 170.808 437.248 171.225 435.598 171.225C434.298 171.225 433.139 170.933 432.123 170.35C431.123 169.767 430.339 168.942 429.773 167.875C429.206 166.808 428.923 165.558 428.923 164.125Z" fill="white"/>
<path d="M445.633 155.075C445.2 155.075 444.833 154.925 444.533 154.625C444.233 154.325 444.083 153.958 444.083 153.525C444.083 153.092 444.233 152.725 444.533 152.425C444.833 152.125 445.2 151.975 445.633 151.975C446.05 151.975 446.4 152.125 446.683 152.425C446.983 152.725 447.133 153.092 447.133 153.525C447.133 153.958 446.983 154.325 446.683 154.625C446.4 154.925 446.05 155.075 445.633 155.075ZM446.733 157.3V171H444.458V157.3H446.733Z" fill="white"/>
<path d="M452.885 159.175V167.25C452.885 167.917 453.027 168.392 453.311 168.675C453.594 168.942 454.086 169.075 454.786 169.075H456.46V171H454.411C453.144 171 452.194 170.708 451.561 170.125C450.927 169.542 450.611 168.583 450.611 167.25V159.175H448.835V157.3H450.611V153.85H452.885V157.3H456.46V159.175H452.885Z" fill="white"/>
<path d="M470.867 157.3V171H468.592V168.975C468.159 169.675 467.55 170.225 466.767 170.625C466 171.008 465.15 171.2 464.217 171.2C463.15 171.2 462.192 170.983 461.342 170.55C460.492 170.1 459.817 169.433 459.317 168.55C458.834 167.667 458.592 166.592 458.592 165.325V157.3H460.842V165.025C460.842 166.375 461.184 167.417 461.867 168.15C462.55 168.867 463.484 169.225 464.667 169.225C465.884 169.225 466.842 168.85 467.542 168.1C468.242 167.35 468.592 166.258 468.592 164.825V157.3H470.867Z" fill="white"/>
<path d="M473.358 164.1C473.358 162.7 473.641 161.475 474.208 160.425C474.775 159.358 475.55 158.533 476.533 157.95C477.533 157.367 478.65 157.075 479.883 157.075C480.95 157.075 481.941 157.325 482.858 157.825C483.775 158.308 484.475 158.95 484.958 159.75V152.5H487.258V171H484.958V168.425C484.508 169.242 483.841 169.917 482.958 170.45C482.075 170.967 481.041 171.225 479.858 171.225C478.641 171.225 477.533 170.925 476.533 170.325C475.55 169.725 474.775 168.883 474.208 167.8C473.641 166.717 473.358 165.483 473.358 164.1ZM484.958 164.125C484.958 163.092 484.75 162.192 484.333 161.425C483.916 160.658 483.35 160.075 482.633 159.675C481.933 159.258 481.158 159.05 480.308 159.05C479.458 159.05 478.683 159.25 477.983 159.65C477.283 160.05 476.725 160.633 476.308 161.4C475.891 162.167 475.683 163.067 475.683 164.1C475.683 165.15 475.891 166.067 476.308 166.85C476.725 167.617 477.283 168.208 477.983 168.625C478.683 169.025 479.458 169.225 480.308 169.225C481.158 169.225 481.933 169.025 482.633 168.625C483.35 168.208 483.916 167.617 484.333 166.85C484.75 166.067 484.958 165.158 484.958 164.125Z" fill="white"/>
<path d="M503.103 163.625C503.103 164.058 503.078 164.517 503.028 165H492.078C492.161 166.35 492.619 167.408 493.453 168.175C494.303 168.925 495.328 169.3 496.528 169.3C497.511 169.3 498.328 169.075 498.978 168.625C499.644 168.158 500.111 167.542 500.378 166.775H502.828C502.461 168.092 501.728 169.167 500.628 170C499.528 170.817 498.161 171.225 496.528 171.225C495.228 171.225 494.061 170.933 493.028 170.35C492.011 169.767 491.211 168.942 490.628 167.875C490.044 166.792 489.753 165.542 489.753 164.125C489.753 162.708 490.036 161.467 490.603 160.4C491.169 159.333 491.961 158.517 492.978 157.95C494.011 157.367 495.194 157.075 496.528 157.075C497.828 157.075 498.978 157.358 499.978 157.925C500.978 158.492 501.744 159.275 502.278 160.275C502.828 161.258 503.103 162.375 503.103 163.625ZM500.753 163.15C500.753 162.283 500.561 161.542 500.178 160.925C499.794 160.292 499.269 159.817 498.603 159.5C497.953 159.167 497.228 159 496.428 159C495.278 159 494.294 159.367 493.478 160.1C492.678 160.833 492.219 161.85 492.103 163.15H500.753Z" fill="white"/>
<path d="M510.456 171.225C509.406 171.225 508.464 171.05 507.631 170.7C506.797 170.333 506.139 169.833 505.656 169.2C505.172 168.55 504.906 167.808 504.856 166.975H507.206C507.272 167.658 507.589 168.217 508.156 168.65C508.739 169.083 509.497 169.3 510.431 169.3C511.297 169.3 511.981 169.108 512.481 168.725C512.981 168.342 513.231 167.858 513.231 167.275C513.231 166.675 512.964 166.233 512.431 165.95C511.897 165.65 511.072 165.358 509.956 165.075C508.939 164.808 508.106 164.542 507.456 164.275C506.822 163.992 506.272 163.583 505.806 163.05C505.356 162.5 505.131 161.783 505.131 160.9C505.131 160.2 505.339 159.558 505.756 158.975C506.172 158.392 506.764 157.933 507.531 157.6C508.297 157.25 509.172 157.075 510.156 157.075C511.672 157.075 512.897 157.458 513.831 158.225C514.764 158.992 515.264 160.042 515.331 161.375H513.056C513.006 160.658 512.714 160.083 512.181 159.65C511.664 159.217 510.964 159 510.081 159C509.264 159 508.614 159.175 508.131 159.525C507.647 159.875 507.406 160.333 507.406 160.9C507.406 161.35 507.547 161.725 507.831 162.025C508.131 162.308 508.497 162.542 508.931 162.725C509.381 162.892 509.997 163.083 510.781 163.3C511.764 163.567 512.564 163.833 513.181 164.1C513.797 164.35 514.322 164.733 514.756 165.25C515.206 165.767 515.439 166.442 515.456 167.275C515.456 168.025 515.247 168.7 514.831 169.3C514.414 169.9 513.822 170.375 513.056 170.725C512.306 171.058 511.439 171.225 510.456 171.225Z" fill="white"/>
<path d="M116.7 138.1C118.7 136.5 120.4 135.1 121.7 134C123 132.9 124.1 131.7 125 130.4C125.9 129.2 126.3 128 126.3 126.9C126.3 126.2 126.1 125.7 125.8 125.3C125.5 124.9 125.1 124.7 124.5 124.7C123.9 124.7 123.4 125 123.1 125.5C122.8 126 122.6 126.8 122.6 127.7H116.6C116.7 125.8 117.1 124.3 117.8 123.1C118.6 121.9 119.5 121 120.8 120.4C122 119.8 123.4 119.5 124.9 119.5C127.5 119.5 129.4 120.1 130.7 121.4C132 122.7 132.6 124.3 132.6 126.4C132.6 128.6 131.9 130.6 130.4 132.6C128.9 134.5 127.1 136.2 124.9 137.7H132.8V142.7H116.7V138.1Z" fill="white"/>
<path d="M125 186C154.823 186 179 161.823 179 132C179 102.177 154.823 78 125 78C95.1766 78 71 102.177 71 132C71 161.823 95.1766 186 125 186Z" stroke="white" stroke-width="2"/>
</svg>
