<svg width="586" height="264" viewBox="0 0 586 264" fill="none" xmlns="http://www.w3.org/2000/svg">
<path d="M126 186C155.823 186 180 161.823 180 132C180 102.177 155.823 78 126 78C96.177 78 72 102.177 72 132C72 161.823 96.177 186 126 186Z" stroke="white" stroke-width="2"/>
<path d="M225.3 92.375V110H220.4V92.375H225.3Z" fill="white"/>
<path d="M244.415 110H239.515L232.99 100.15V110H228.09V92.375H232.99L239.515 102.35V92.375H244.415V110Z" fill="white"/>
<path d="M260.482 92.375V96.275H255.782V110H250.882V96.275H246.232V92.375H260.482Z" fill="white"/>
<path d="M267.194 96.3V99.175H272.819V102.9H267.194V106.075H273.569V110H262.294V92.375H273.569V96.3H267.194Z" fill="white"/>
<path d="M284.916 110L281.416 103.5H280.891V110H275.991V92.375H283.716C285.132 92.375 286.332 92.625 287.316 93.125C288.299 93.6083 289.041 94.2833 289.541 95.15C290.041 96 290.291 96.9583 290.291 98.025C290.291 99.225 289.957 100.283 289.291 101.2C288.641 102.1 287.682 102.742 286.416 103.125L290.391 110H284.916ZM280.891 100.15H283.316C283.982 100.15 284.482 99.9917 284.816 99.675C285.149 99.3583 285.316 98.9 285.316 98.3C285.316 97.7333 285.141 97.2917 284.791 96.975C284.457 96.6417 283.966 96.475 283.316 96.475H280.891V100.15Z" fill="white"/>
<path d="M304.469 92.375V96.275H297.419V99.375H302.619V103.1H297.419V110H292.519V92.375H304.469Z" fill="white"/>
<path d="M317.683 107.125H311.433L310.483 110H305.333L311.758 92.375H317.408L323.808 110H318.633L317.683 107.125ZM316.458 103.375L314.558 97.675L312.683 103.375H316.458Z" fill="white"/>
<path d="M330.755 106.025H338.08V110H325.255V106.275L332.505 96.325H325.255V92.375H338.08V96.1L330.755 106.025Z" fill="white"/>
<path d="M220.075 134.275C220.075 132.575 220.458 131.05 221.225 129.7C221.992 128.333 223.033 127.267 224.35 126.5C225.683 125.733 227.158 125.35 228.775 125.35C230.675 125.35 232.333 125.808 233.75 126.725C235.167 127.642 236.2 128.942 236.85 130.625H234.125C233.642 129.575 232.942 128.767 232.025 128.2C231.125 127.633 230.042 127.35 228.775 127.35C227.558 127.35 226.467 127.633 225.5 128.2C224.533 128.767 223.775 129.575 223.225 130.625C222.675 131.658 222.4 132.875 222.4 134.275C222.4 135.658 222.675 136.875 223.225 137.925C223.775 138.958 224.533 139.758 225.5 140.325C226.467 140.892 227.558 141.175 228.775 141.175C230.042 141.175 231.125 140.9 232.025 140.35C232.942 139.783 233.642 138.975 234.125 137.925H236.85C236.2 139.592 235.167 140.883 233.75 141.8C232.333 142.7 230.675 143.15 228.775 143.15C227.158 143.15 225.683 142.775 224.35 142.025C223.033 141.258 221.992 140.2 221.225 138.85C220.458 137.5 220.075 135.975 220.075 134.275Z" fill="white"/>
<path d="M245.711 143.225C244.428 143.225 243.261 142.933 242.211 142.35C241.178 141.767 240.361 140.942 239.761 139.875C239.178 138.792 238.886 137.542 238.886 136.125C238.886 134.725 239.186 133.492 239.786 132.425C240.403 131.342 241.236 130.517 242.286 129.95C243.336 129.367 244.511 129.075 245.811 129.075C247.111 129.075 248.286 129.367 249.336 129.95C250.386 130.517 251.211 131.333 251.811 132.4C252.428 133.467 252.736 134.708 252.736 136.125C252.736 137.542 252.42 138.792 251.786 139.875C251.17 140.942 250.328 141.767 249.261 142.35C248.195 142.933 247.011 143.225 245.711 143.225ZM245.711 141.225C246.528 141.225 247.295 141.033 248.011 140.65C248.728 140.267 249.303 139.692 249.736 138.925C250.186 138.158 250.411 137.225 250.411 136.125C250.411 135.025 250.195 134.092 249.761 133.325C249.328 132.558 248.761 131.992 248.061 131.625C247.361 131.242 246.603 131.05 245.786 131.05C244.953 131.05 244.186 131.242 243.486 131.625C242.803 131.992 242.253 132.558 241.836 133.325C241.42 134.092 241.211 135.025 241.211 136.125C241.211 137.242 241.411 138.183 241.811 138.95C242.228 139.717 242.778 140.292 243.461 140.675C244.145 141.042 244.895 141.225 245.711 141.225Z" fill="white"/>
<path d="M261.903 129.05C263.569 129.05 264.919 129.558 265.953 130.575C266.986 131.575 267.503 133.025 267.503 134.925V143H265.253V135.25C265.253 133.883 264.911 132.842 264.228 132.125C263.544 131.392 262.611 131.025 261.428 131.025C260.228 131.025 259.269 131.4 258.553 132.15C257.853 132.9 257.503 133.992 257.503 135.425V143H255.228V129.3H257.503V131.25C257.953 130.55 258.561 130.008 259.328 129.625C260.111 129.242 260.969 129.05 261.903 129.05Z" fill="white"/>
<path d="M289.034 129.3V143H286.759V140.975C286.326 141.675 285.717 142.225 284.934 142.625C284.167 143.008 283.317 143.2 282.384 143.2C281.317 143.2 280.359 142.983 279.509 142.55C278.659 142.1 277.984 141.433 277.484 140.55C277.001 139.667 276.759 138.592 276.759 137.325V129.3H279.009V137.025C279.009 138.375 279.351 139.417 280.034 140.15C280.717 140.867 281.651 141.225 282.834 141.225C284.051 141.225 285.009 140.85 285.709 140.1C286.409 139.35 286.759 138.258 286.759 136.825V129.3H289.034Z" fill="white"/>
<path d="M299.05 129.05C300.717 129.05 302.067 129.558 303.1 130.575C304.133 131.575 304.65 133.025 304.65 134.925V143H302.4V135.25C302.4 133.883 302.058 132.842 301.375 132.125C300.692 131.392 299.758 131.025 298.575 131.025C297.375 131.025 296.417 131.4 295.7 132.15C295 132.9 294.65 133.992 294.65 135.425V143H292.375V129.3H294.65V131.25C295.1 130.55 295.708 130.008 296.475 129.625C297.258 129.242 298.117 129.05 299.05 129.05Z" fill="white"/>
<path d="M307.016 136.1C307.016 134.7 307.3 133.475 307.866 132.425C308.433 131.358 309.208 130.533 310.191 129.95C311.191 129.367 312.3 129.075 313.516 129.075C314.716 129.075 315.758 129.333 316.641 129.85C317.525 130.367 318.183 131.017 318.616 131.8V129.3H320.916V143H318.616V140.45C318.166 141.25 317.491 141.917 316.591 142.45C315.708 142.967 314.675 143.225 313.491 143.225C312.275 143.225 311.175 142.925 310.191 142.325C309.208 141.725 308.433 140.883 307.866 139.8C307.3 138.717 307.016 137.483 307.016 136.1ZM318.616 136.125C318.616 135.092 318.408 134.192 317.991 133.425C317.575 132.658 317.008 132.075 316.291 131.675C315.591 131.258 314.816 131.05 313.966 131.05C313.116 131.05 312.341 131.25 311.641 131.65C310.941 132.05 310.383 132.633 309.966 133.4C309.55 134.167 309.341 135.067 309.341 136.1C309.341 137.15 309.55 138.067 309.966 138.85C310.383 139.617 310.941 140.208 311.641 140.625C312.341 141.025 313.116 141.225 313.966 141.225C314.816 141.225 315.591 141.025 316.291 140.625C317.008 140.208 317.575 139.617 317.991 138.85C318.408 138.067 318.616 137.158 318.616 136.125Z" fill="white"/>
<path d="M331.601 127.075C331.168 127.075 330.801 126.925 330.501 126.625C330.201 126.325 330.051 125.958 330.051 125.525C330.051 125.092 330.201 124.725 330.501 124.425C330.801 124.125 331.168 123.975 331.601 123.975C332.018 123.975 332.368 124.125 332.651 124.425C332.951 124.725 333.101 125.092 333.101 125.525C333.101 125.958 332.951 126.325 332.651 126.625C332.368 126.925 332.018 127.075 331.601 127.075ZM332.701 129.3V143H330.426V129.3H332.701Z" fill="white"/>
<path d="M342.753 129.05C344.42 129.05 345.77 129.558 346.803 130.575C347.837 131.575 348.353 133.025 348.353 134.925V143H346.103V135.25C346.103 133.883 345.762 132.842 345.078 132.125C344.395 131.392 343.462 131.025 342.278 131.025C341.078 131.025 340.12 131.4 339.403 132.15C338.703 132.9 338.353 133.992 338.353 135.425V143H336.078V129.3H338.353V131.25C338.803 130.55 339.412 130.008 340.178 129.625C340.962 129.242 341.82 129.05 342.753 129.05Z" fill="white"/>
<path d="M354.344 131.175V139.25C354.344 139.917 354.486 140.392 354.769 140.675C355.053 140.942 355.544 141.075 356.244 141.075H357.919V143H355.869C354.603 143 353.653 142.708 353.019 142.125C352.386 141.542 352.069 140.583 352.069 139.25V131.175H350.294V129.3H352.069V125.85H354.344V129.3H357.919V131.175H354.344Z" fill="white"/>
<path d="M372.676 135.625C372.676 136.058 372.651 136.517 372.601 137H361.651C361.734 138.35 362.193 139.408 363.026 140.175C363.876 140.925 364.901 141.3 366.101 141.3C367.084 141.3 367.901 141.075 368.551 140.625C369.218 140.158 369.684 139.542 369.951 138.775H372.401C372.034 140.092 371.301 141.167 370.201 142C369.101 142.817 367.734 143.225 366.101 143.225C364.801 143.225 363.634 142.933 362.601 142.35C361.584 141.767 360.784 140.942 360.201 139.875C359.618 138.792 359.326 137.542 359.326 136.125C359.326 134.708 359.609 133.467 360.176 132.4C360.743 131.333 361.534 130.517 362.551 129.95C363.584 129.367 364.768 129.075 366.101 129.075C367.401 129.075 368.551 129.358 369.551 129.925C370.551 130.492 371.318 131.275 371.851 132.275C372.401 133.258 372.676 134.375 372.676 135.625ZM370.326 135.15C370.326 134.283 370.134 133.542 369.751 132.925C369.368 132.292 368.843 131.817 368.176 131.5C367.526 131.167 366.801 131 366.001 131C364.851 131 363.868 131.367 363.051 132.1C362.251 132.833 361.793 133.85 361.676 135.15H370.326Z" fill="white"/>
<path d="M377.454 131.525C377.854 130.742 378.421 130.133 379.154 129.7C379.904 129.267 380.812 129.05 381.879 129.05V131.4H381.279C378.729 131.4 377.454 132.783 377.454 135.55V143H375.179V129.3H377.454V131.525Z" fill="white"/>
<path d="M389.58 131.175H386.705V143H384.43V131.175H382.655V129.3H384.43V128.325C384.43 126.792 384.822 125.675 385.605 124.975C386.405 124.258 387.68 123.9 389.43 123.9V125.8C388.43 125.8 387.722 126 387.305 126.4C386.905 126.783 386.705 127.425 386.705 128.325V129.3H389.58V131.175Z" fill="white"/>
<path d="M390.883 136.1C390.883 134.7 391.166 133.475 391.733 132.425C392.299 131.358 393.074 130.533 394.058 129.95C395.058 129.367 396.166 129.075 397.383 129.075C398.583 129.075 399.624 129.333 400.508 129.85C401.391 130.367 402.049 131.017 402.483 131.8V129.3H404.783V143H402.483V140.45C402.033 141.25 401.358 141.917 400.458 142.45C399.574 142.967 398.541 143.225 397.358 143.225C396.141 143.225 395.041 142.925 394.058 142.325C393.074 141.725 392.299 140.883 391.733 139.8C391.166 138.717 390.883 137.483 390.883 136.1ZM402.483 136.125C402.483 135.092 402.274 134.192 401.858 133.425C401.441 132.658 400.874 132.075 400.158 131.675C399.458 131.258 398.683 131.05 397.833 131.05C396.983 131.05 396.208 131.25 395.508 131.65C394.808 132.05 394.249 132.633 393.833 133.4C393.416 134.167 393.208 135.067 393.208 136.1C393.208 137.15 393.416 138.067 393.833 138.85C394.249 139.617 394.808 140.208 395.508 140.625C396.208 141.025 396.983 141.225 397.833 141.225C398.683 141.225 399.458 141.025 400.158 140.625C400.874 140.208 401.441 139.617 401.858 138.85C402.274 138.067 402.483 137.158 402.483 136.125Z" fill="white"/>
<path d="M409.827 141.125H416.552V143H407.227V141.125L413.877 131.15H407.277V129.3H416.502V131.15L409.827 141.125Z" fill="white"/>
<path d="M222.1 155.075C221.667 155.075 221.3 154.925 221 154.625C220.7 154.325 220.55 153.958 220.55 153.525C220.55 153.092 220.7 152.725 221 152.425C221.3 152.125 221.667 151.975 222.1 151.975C222.517 151.975 222.867 152.125 223.15 152.425C223.45 152.725 223.6 153.092 223.6 153.525C223.6 153.958 223.45 154.325 223.15 154.625C222.867 154.925 222.517 155.075 222.1 155.075ZM223.2 157.3V171H220.925V157.3H223.2Z" fill="white"/>
<path d="M233.252 157.05C234.919 157.05 236.269 157.558 237.302 158.575C238.336 159.575 238.852 161.025 238.852 162.925V171H236.602V163.25C236.602 161.883 236.261 160.842 235.577 160.125C234.894 159.392 233.961 159.025 232.777 159.025C231.577 159.025 230.619 159.4 229.902 160.15C229.202 160.9 228.852 161.992 228.852 163.425V171H226.577V157.3H228.852V159.25C229.302 158.55 229.911 158.008 230.677 157.625C231.461 157.242 232.319 157.05 233.252 157.05Z" fill="white"/>
<path d="M244.844 159.175V167.25C244.844 167.917 244.985 168.392 245.269 168.675C245.552 168.942 246.044 169.075 246.744 169.075H248.419V171H246.369C245.102 171 244.152 170.708 243.519 170.125C242.885 169.542 242.569 168.583 242.569 167.25V159.175H240.794V157.3H242.569V153.85H244.844V157.3H248.419V159.175H244.844Z" fill="white"/>
<path d="M262.825 157.3V171H260.55V168.975C260.117 169.675 259.508 170.225 258.725 170.625C257.958 171.008 257.108 171.2 256.175 171.2C255.108 171.2 254.15 170.983 253.3 170.55C252.45 170.1 251.775 169.433 251.275 168.55C250.792 167.667 250.55 166.592 250.55 165.325V157.3H252.8V165.025C252.8 166.375 253.142 167.417 253.825 168.15C254.508 168.867 255.442 169.225 256.625 169.225C257.842 169.225 258.8 168.85 259.5 168.1C260.2 167.35 260.55 166.258 260.55 164.825V157.3H262.825Z" fill="white"/>
<path d="M267.341 155.075C266.908 155.075 266.541 154.925 266.241 154.625C265.941 154.325 265.791 153.958 265.791 153.525C265.791 153.092 265.941 152.725 266.241 152.425C266.541 152.125 266.908 151.975 267.341 151.975C267.758 151.975 268.108 152.125 268.391 152.425C268.691 152.725 268.841 153.092 268.841 153.525C268.841 153.958 268.691 154.325 268.391 154.625C268.108 154.925 267.758 155.075 267.341 155.075ZM268.441 157.3V171H266.166V157.3H268.441Z" fill="white"/>
<path d="M274.594 159.175V167.25C274.594 167.917 274.735 168.392 275.019 168.675C275.302 168.942 275.794 169.075 276.494 169.075H278.169V171H276.119C274.852 171 273.902 170.708 273.269 170.125C272.635 169.542 272.319 168.583 272.319 167.25V159.175H270.544V157.3H272.319V153.85H274.594V157.3H278.169V159.175H274.594Z" fill="white"/>
<path d="M281.6 155.075C281.167 155.075 280.8 154.925 280.5 154.625C280.2 154.325 280.05 153.958 280.05 153.525C280.05 153.092 280.2 152.725 280.5 152.425C280.8 152.125 281.167 151.975 281.6 151.975C282.017 151.975 282.367 152.125 282.65 152.425C282.95 152.725 283.1 153.092 283.1 153.525C283.1 153.958 282.95 154.325 282.65 154.625C282.367 154.925 282.017 155.075 281.6 155.075ZM282.7 157.3V171H280.425V157.3H282.7Z" fill="white"/>
<path d="M291.177 168.9L295.427 157.3H297.852L292.477 171H289.827L284.452 157.3H286.902L291.177 168.9Z" fill="white"/>
<path d="M298.741 164.1C298.741 162.7 299.024 161.475 299.591 160.425C300.158 159.358 300.933 158.533 301.916 157.95C302.916 157.367 304.024 157.075 305.241 157.075C306.441 157.075 307.483 157.333 308.366 157.85C309.249 158.367 309.908 159.017 310.341 159.8V157.3H312.641V171H310.341V168.45C309.891 169.25 309.216 169.917 308.316 170.45C307.433 170.967 306.399 171.225 305.216 171.225C303.999 171.225 302.899 170.925 301.916 170.325C300.933 169.725 300.158 168.883 299.591 167.8C299.024 166.717 298.741 165.483 298.741 164.1ZM310.341 164.125C310.341 163.092 310.133 162.192 309.716 161.425C309.299 160.658 308.733 160.075 308.016 159.675C307.316 159.258 306.541 159.05 305.691 159.05C304.841 159.05 304.066 159.25 303.366 159.65C302.666 160.05 302.108 160.633 301.691 161.4C301.274 162.167 301.066 163.067 301.066 164.1C301.066 165.15 301.274 166.067 301.691 166.85C302.108 167.617 302.666 168.208 303.366 168.625C304.066 169.025 304.841 169.225 305.691 169.225C306.541 169.225 307.316 169.025 308.016 168.625C308.733 168.208 309.299 167.617 309.716 166.85C310.133 166.067 310.341 165.158 310.341 164.125Z" fill="white"/>
<path d="M318.336 167.85L315.535 174.575H314.01L315.836 167.85H318.336Z" fill="white"/>
<path d="M331.457 171.225C330.407 171.225 329.465 171.05 328.632 170.7C327.798 170.333 327.14 169.833 326.657 169.2C326.173 168.55 325.907 167.808 325.857 166.975H328.207C328.273 167.658 328.59 168.217 329.157 168.65C329.74 169.083 330.498 169.3 331.432 169.3C332.298 169.3 332.982 169.108 333.482 168.725C333.982 168.342 334.232 167.858 334.232 167.275C334.232 166.675 333.965 166.233 333.432 165.95C332.898 165.65 332.073 165.358 330.957 165.075C329.94 164.808 329.107 164.542 328.457 164.275C327.823 163.992 327.273 163.583 326.807 163.05C326.357 162.5 326.132 161.783 326.132 160.9C326.132 160.2 326.34 159.558 326.757 158.975C327.173 158.392 327.765 157.933 328.532 157.6C329.298 157.25 330.173 157.075 331.157 157.075C332.673 157.075 333.898 157.458 334.832 158.225C335.765 158.992 336.265 160.042 336.332 161.375H334.057C334.007 160.658 333.715 160.083 333.182 159.65C332.665 159.217 331.965 159 331.082 159C330.265 159 329.615 159.175 329.132 159.525C328.648 159.875 328.407 160.333 328.407 160.9C328.407 161.35 328.548 161.725 328.832 162.025C329.132 162.308 329.498 162.542 329.932 162.725C330.382 162.892 330.998 163.083 331.782 163.3C332.765 163.567 333.565 163.833 334.182 164.1C334.798 164.35 335.323 164.733 335.757 165.25C336.207 165.767 336.44 166.442 336.457 167.275C336.457 168.025 336.248 168.7 335.832 169.3C335.415 169.9 334.823 170.375 334.057 170.725C333.307 171.058 332.44 171.225 331.457 171.225Z" fill="white"/>
<path d="M340.343 155.075C339.91 155.075 339.543 154.925 339.243 154.625C338.943 154.325 338.793 153.958 338.793 153.525C338.793 153.092 338.943 152.725 339.243 152.425C339.543 152.125 339.91 151.975 340.343 151.975C340.76 151.975 341.11 152.125 341.393 152.425C341.693 152.725 341.843 153.092 341.843 153.525C341.843 153.958 341.693 154.325 341.393 154.625C341.11 154.925 340.76 155.075 340.343 155.075ZM341.443 157.3V171H339.168V157.3H341.443Z" fill="white"/>
<path d="M361.295 157.05C362.362 157.05 363.312 157.275 364.145 157.725C364.979 158.158 365.637 158.817 366.12 159.7C366.604 160.583 366.845 161.658 366.845 162.925V171H364.595V163.25C364.595 161.883 364.254 160.842 363.57 160.125C362.904 159.392 361.995 159.025 360.845 159.025C359.662 159.025 358.72 159.408 358.02 160.175C357.32 160.925 356.97 162.017 356.97 163.45V171H354.72V163.25C354.72 161.883 354.379 160.842 353.695 160.125C353.029 159.392 352.12 159.025 350.97 159.025C349.787 159.025 348.845 159.408 348.145 160.175C347.445 160.925 347.095 162.017 347.095 163.45V171H344.82V157.3H347.095V159.275C347.545 158.558 348.145 158.008 348.895 157.625C349.662 157.242 350.504 157.05 351.42 157.05C352.57 157.05 353.587 157.308 354.47 157.825C355.354 158.342 356.012 159.1 356.445 160.1C356.829 159.133 357.462 158.383 358.345 157.85C359.229 157.317 360.212 157.05 361.295 157.05Z" fill="white"/>
<path d="M372.352 159.825C372.802 159.042 373.469 158.392 374.352 157.875C375.252 157.342 376.294 157.075 377.477 157.075C378.694 157.075 379.794 157.367 380.777 157.95C381.777 158.533 382.561 159.358 383.127 160.425C383.694 161.475 383.977 162.7 383.977 164.1C383.977 165.483 383.694 166.717 383.127 167.8C382.561 168.883 381.777 169.725 380.777 170.325C379.794 170.925 378.694 171.225 377.477 171.225C376.311 171.225 375.277 170.967 374.377 170.45C373.494 169.917 372.819 169.258 372.352 168.475V177.5H370.077V157.3H372.352V159.825ZM381.652 164.1C381.652 163.067 381.444 162.167 381.027 161.4C380.611 160.633 380.044 160.05 379.327 159.65C378.627 159.25 377.852 159.05 377.002 159.05C376.169 159.05 375.394 159.258 374.677 159.675C373.977 160.075 373.411 160.667 372.977 161.45C372.561 162.217 372.352 163.108 372.352 164.125C372.352 165.158 372.561 166.067 372.977 166.85C373.411 167.617 373.977 168.208 374.677 168.625C375.394 169.025 376.169 169.225 377.002 169.225C377.852 169.225 378.627 169.025 379.327 168.625C380.044 168.208 380.611 167.617 381.027 166.85C381.444 166.067 381.652 165.15 381.652 164.1Z" fill="white"/>
<path d="M388.747 152.5V171H386.472V152.5H388.747Z" fill="white"/>
<path d="M404.624 163.625C404.624 164.058 404.599 164.517 404.549 165H393.599C393.682 166.35 394.141 167.408 394.974 168.175C395.824 168.925 396.849 169.3 398.049 169.3C399.033 169.3 399.849 169.075 400.499 168.625C401.166 168.158 401.633 167.542 401.899 166.775H404.349C403.982 168.092 403.249 169.167 402.149 170C401.049 170.817 399.683 171.225 398.049 171.225C396.749 171.225 395.583 170.933 394.549 170.35C393.533 169.767 392.732 168.942 392.149 167.875C391.566 166.792 391.274 165.542 391.274 164.125C391.274 162.708 391.558 161.467 392.124 160.4C392.691 159.333 393.483 158.517 394.499 157.95C395.533 157.367 396.716 157.075 398.049 157.075C399.349 157.075 400.499 157.358 401.499 157.925C402.499 158.492 403.266 159.275 403.799 160.275C404.349 161.258 404.624 162.375 404.624 163.625ZM402.274 163.15C402.274 162.283 402.083 161.542 401.699 160.925C401.316 160.292 400.791 159.817 400.124 159.5C399.474 159.167 398.749 159 397.949 159C396.799 159 395.816 159.367 394.999 160.1C394.199 160.833 393.741 161.85 393.624 163.15H402.274Z" fill="white"/>
<path d="M411.977 171.225C410.927 171.225 409.985 171.05 409.152 170.7C408.319 170.333 407.66 169.833 407.177 169.2C406.694 168.55 406.427 167.808 406.377 166.975H408.727C408.794 167.658 409.11 168.217 409.677 168.65C410.26 169.083 411.019 169.3 411.952 169.3C412.819 169.3 413.502 169.108 414.002 168.725C414.502 168.342 414.752 167.858 414.752 167.275C414.752 166.675 414.485 166.233 413.952 165.95C413.419 165.65 412.594 165.358 411.477 165.075C410.46 164.808 409.627 164.542 408.977 164.275C408.344 163.992 407.794 163.583 407.327 163.05C406.877 162.5 406.652 161.783 406.652 160.9C406.652 160.2 406.86 159.558 407.277 158.975C407.694 158.392 408.285 157.933 409.052 157.6C409.819 157.25 410.694 157.075 411.677 157.075C413.194 157.075 414.419 157.458 415.352 158.225C416.285 158.992 416.785 160.042 416.852 161.375H414.577C414.527 160.658 414.235 160.083 413.702 159.65C413.185 159.217 412.485 159 411.602 159C410.785 159 410.135 159.175 409.652 159.525C409.169 159.875 408.927 160.333 408.927 160.9C408.927 161.35 409.069 161.725 409.352 162.025C409.652 162.308 410.019 162.542 410.452 162.725C410.902 162.892 411.519 163.083 412.302 163.3C413.285 163.567 414.085 163.833 414.702 164.1C415.319 164.35 415.844 164.733 416.277 165.25C416.727 165.767 416.96 166.442 416.977 167.275C416.977 168.025 416.769 168.7 416.352 169.3C415.935 169.9 415.344 170.375 414.577 170.725C413.827 171.058 412.96 171.225 411.977 171.225Z" fill="white"/>
<path d="M437.654 157.3L429.404 177.45H427.054L429.754 170.85L424.229 157.3H426.754L431.054 168.4L435.304 157.3H437.654Z" fill="white"/>
<path d="M458.106 163.625C458.106 164.058 458.081 164.517 458.031 165H447.081C447.164 166.35 447.622 167.408 448.456 168.175C449.306 168.925 450.331 169.3 451.531 169.3C452.514 169.3 453.331 169.075 453.981 168.625C454.647 168.158 455.114 167.542 455.381 166.775H457.831C457.464 168.092 456.731 169.167 455.631 170C454.531 170.817 453.164 171.225 451.531 171.225C450.231 171.225 449.064 170.933 448.031 170.35C447.014 169.767 446.214 168.942 445.631 167.875C445.047 166.792 444.756 165.542 444.756 164.125C444.756 162.708 445.039 161.467 445.606 160.4C446.172 159.333 446.964 158.517 447.981 157.95C449.014 157.367 450.197 157.075 451.531 157.075C452.831 157.075 453.981 157.358 454.981 157.925C455.981 158.492 456.747 159.275 457.281 160.275C457.831 161.258 458.106 162.375 458.106 163.625ZM455.756 163.15C455.756 162.283 455.564 161.542 455.181 160.925C454.797 160.292 454.272 159.817 453.606 159.5C452.956 159.167 452.231 159 451.431 159C450.281 159 449.297 159.367 448.481 160.1C447.681 160.833 447.222 161.85 447.106 163.15H455.756Z" fill="white"/>
<path d="M466.184 159.175H463.309V171H461.034V159.175H459.259V157.3H461.034V156.325C461.034 154.792 461.425 153.675 462.209 152.975C463.009 152.258 464.284 151.9 466.034 151.9V153.8C465.034 153.8 464.325 154 463.909 154.4C463.509 154.783 463.309 155.425 463.309 156.325V157.3H466.184V159.175Z" fill="white"/>
<path d="M469.511 155.075C469.078 155.075 468.711 154.925 468.411 154.625C468.111 154.325 467.961 153.958 467.961 153.525C467.961 153.092 468.111 152.725 468.411 152.425C468.711 152.125 469.078 151.975 469.511 151.975C469.928 151.975 470.278 152.125 470.561 152.425C470.861 152.725 471.011 153.092 471.011 153.525C471.011 153.958 470.861 154.325 470.561 154.625C470.278 154.925 469.928 155.075 469.511 155.075ZM470.611 157.3V171H468.336V157.3H470.611Z" fill="white"/>
<path d="M473.138 164.125C473.138 162.708 473.422 161.475 473.988 160.425C474.555 159.358 475.338 158.533 476.338 157.95C477.355 157.367 478.513 157.075 479.813 157.075C481.497 157.075 482.88 157.483 483.963 158.3C485.063 159.117 485.788 160.25 486.138 161.7H483.688C483.455 160.867 482.997 160.208 482.313 159.725C481.647 159.242 480.813 159 479.813 159C478.513 159 477.463 159.45 476.663 160.35C475.863 161.233 475.463 162.492 475.463 164.125C475.463 165.775 475.863 167.05 476.663 167.95C477.463 168.85 478.513 169.3 479.813 169.3C480.813 169.3 481.647 169.067 482.313 168.6C482.98 168.133 483.438 167.467 483.688 166.6H486.138C485.772 168 485.038 169.125 483.938 169.975C482.838 170.808 481.463 171.225 479.813 171.225C478.513 171.225 477.355 170.933 476.338 170.35C475.338 169.767 474.555 168.942 473.988 167.875C473.422 166.808 473.138 165.558 473.138 164.125Z" fill="white"/>
<path d="M487.824 164.1C487.824 162.7 488.107 161.475 488.674 160.425C489.241 159.358 490.016 158.533 490.999 157.95C491.999 157.367 493.107 157.075 494.324 157.075C495.524 157.075 496.566 157.333 497.449 157.85C498.332 158.367 498.991 159.017 499.424 159.8V157.3H501.724V171H499.424V168.45C498.974 169.25 498.299 169.917 497.399 170.45C496.516 170.967 495.482 171.225 494.299 171.225C493.082 171.225 491.982 170.925 490.999 170.325C490.016 169.725 489.241 168.883 488.674 167.8C488.107 166.717 487.824 165.483 487.824 164.1ZM499.424 164.125C499.424 163.092 499.216 162.192 498.799 161.425C498.382 160.658 497.816 160.075 497.099 159.675C496.399 159.258 495.624 159.05 494.774 159.05C493.924 159.05 493.149 159.25 492.449 159.65C491.749 160.05 491.191 160.633 490.774 161.4C490.357 162.167 490.149 163.067 490.149 164.1C490.149 165.15 490.357 166.067 490.774 166.85C491.191 167.617 491.749 168.208 492.449 168.625C493.149 169.025 493.924 169.225 494.774 169.225C495.624 169.225 496.399 169.025 497.099 168.625C497.816 168.208 498.382 167.617 498.799 166.85C499.216 166.067 499.424 165.158 499.424 164.125Z" fill="white"/>
<path d="M506.768 169.125H513.493V171H504.168V169.125L510.818 159.15H504.219V157.3H513.443V159.15L506.768 169.125Z" fill="white"/>
<path d="M118.4 127.4C118.5 125 119.2 123.2 120.6 121.9C122 120.6 123.9 120 126.4 120C128 120 129.4 120.3 130.5 120.9C131.7 121.4 132.5 122.2 133.1 123.2C133.7 124.1 134 125.2 134 126.4C134 127.8 133.7 129 133 129.8C132.3 130.6 131.5 131.2 130.6 131.5V131.6C133.1 132.5 134.4 134.4 134.4 137C134.4 138.3 134.1 139.5 133.5 140.5C132.9 141.5 132 142.3 130.8 142.9C129.6 143.5 128.3 143.8 126.7 143.8C124.1 143.8 122 143.2 120.4 141.9C118.9 140.6 118.1 138.7 118 136H124C124 136.8 124.1 137.5 124.5 138C124.9 138.5 125.5 138.7 126.3 138.7C126.9 138.7 127.4 138.5 127.7 138.1C128.1 137.7 128.2 137.2 128.2 136.6C128.2 135.8 127.9 135.2 127.4 134.8C126.9 134.4 126.1 134.2 124.9 134.2H123.8V129.2H124.9C125.7 129.2 126.4 129.1 126.9 128.8C127.5 128.5 127.8 127.9 127.8 127.1C127.8 126.4 127.6 126 127.3 125.6C127 125.3 126.6 125.1 126 125.1C125.4 125.1 124.9 125.3 124.6 125.8C124.3 126.2 124.2 126.7 124.1 127.4H118.4Z" fill="white"/>
</svg>
