<svg width="586" height="264" viewBox="0 0 586 264" fill="none" xmlns="http://www.w3.org/2000/svg">
<path d="M0 10C0 4.47716 4.47715 0 10 0H576C581.523 0 586 4.47715 586 10V254C586 259.523 581.523 264 576 264H10C4.47717 264 0 259.523 0 254V10Z" fill="#6300E2"/>
<path d="M112.1 126.2V120.4H121.8V143.5H115.3V126.2H112.1Z" fill="white"/>
<path d="M117 186C146.823 186 171 161.823 171 132C171 102.177 146.823 78 117 78C87.177 78 63 102.177 63 132C63 161.823 87.177 186 117 186Z" stroke="white" stroke-width="2"/>
<path d="M218.375 92.375C220.225 92.375 221.842 92.75 223.225 93.5C224.625 94.2333 225.7 95.2667 226.45 96.6C227.2 97.9333 227.575 99.4583 227.575 101.175C227.575 102.875 227.192 104.392 226.425 105.725C225.675 107.058 224.6 108.108 223.2 108.875C221.817 109.625 220.208 110 218.375 110H211.4V92.375H218.375ZM218 105.675C219.433 105.675 220.558 105.283 221.375 104.5C222.192 103.717 222.6 102.608 222.6 101.175C222.6 99.725 222.192 98.6083 221.375 97.825C220.558 97.025 219.433 96.625 218 96.625H216.3V105.675H218Z" fill="white"/>
<path d="M236.734 110.175C235.084 110.175 233.567 109.792 232.184 109.025C230.8 108.242 229.7 107.167 228.884 105.8C228.084 104.417 227.684 102.858 227.684 101.125C227.684 99.3917 228.084 97.8417 228.884 96.475C229.7 95.0917 230.8 94.0167 232.184 93.25C233.567 92.4833 235.084 92.1 236.734 92.1C238.4 92.1 239.917 92.4833 241.284 93.25C242.667 94.0167 243.759 95.0917 244.559 96.475C245.359 97.8417 245.759 99.3917 245.759 101.125C245.759 102.858 245.359 104.417 244.559 105.8C243.759 107.167 242.667 108.242 241.284 109.025C239.9 109.792 238.384 110.175 236.734 110.175ZM236.734 105.625C237.984 105.625 238.967 105.217 239.684 104.4C240.417 103.583 240.784 102.492 240.784 101.125C240.784 99.725 240.417 98.625 239.684 97.825C238.967 97.0083 237.984 96.6 236.734 96.6C235.467 96.6 234.475 97.0083 233.759 97.825C233.042 98.625 232.684 99.725 232.684 101.125C232.684 102.508 233.042 103.608 233.759 104.425C234.475 105.225 235.467 105.625 236.734 105.625Z" fill="white"/>
<path d="M245.862 101.15C245.862 99.4167 246.22 97.875 246.937 96.525C247.67 95.1583 248.703 94.1 250.037 93.35C251.37 92.5833 252.903 92.2 254.637 92.2C256.837 92.2 258.687 92.7917 260.187 93.975C261.687 95.1417 262.653 96.7333 263.087 98.75H257.812C257.495 98.0833 257.053 97.575 256.487 97.225C255.937 96.875 255.295 96.7 254.562 96.7C253.428 96.7 252.52 97.1083 251.837 97.925C251.17 98.725 250.837 99.8 250.837 101.15C250.837 102.517 251.17 103.608 251.837 104.425C252.52 105.225 253.428 105.625 254.562 105.625C255.295 105.625 255.937 105.45 256.487 105.1C257.053 104.75 257.495 104.242 257.812 103.575H263.087C262.653 105.592 261.687 107.192 260.187 108.375C258.687 109.542 256.837 110.125 254.637 110.125C252.903 110.125 251.37 109.75 250.037 109C248.703 108.233 247.67 107.175 246.937 105.825C246.22 104.458 245.862 102.9 245.862 101.15Z" fill="white"/>
<path d="M268.707 92.375V102.6C268.707 103.55 268.924 104.283 269.357 104.8C269.807 105.317 270.482 105.575 271.382 105.575C272.282 105.575 272.957 105.317 273.407 104.8C273.874 104.267 274.107 103.533 274.107 102.6V92.375H279.007V102.6C279.007 104.217 278.665 105.6 277.982 106.75C277.299 107.883 276.365 108.742 275.182 109.325C274.015 109.892 272.715 110.175 271.282 110.175C269.849 110.175 268.565 109.892 267.432 109.325C266.315 108.742 265.432 107.883 264.782 106.75C264.149 105.617 263.832 104.233 263.832 102.6V92.375H268.707Z" fill="white"/>
<path d="M300.78 92.375V110H295.88V100.275L292.555 110H288.455L285.105 100.2V110H280.205V92.375H286.13L290.555 103.825L294.88 92.375H300.78Z" fill="white"/>
<path d="M306.969 96.3V99.175H312.594V102.9H306.969V106.075H313.344V110H302.069V92.375H313.344V96.3H306.969Z" fill="white"/>
<path d="M330.59 110H325.69L319.165 100.15V110H314.265V92.375H319.165L325.69 102.35V92.375H330.59V110Z" fill="white"/>
<path d="M345.156 92.375V96.275H340.456V110H335.556V96.275H330.906V92.375H345.156Z" fill="white"/>
<path d="M356.619 107.125H350.369L349.419 110H344.269L350.694 92.375H356.344L362.744 110H357.569L356.619 107.125ZM355.394 103.375L353.494 97.675L351.619 103.375H355.394Z" fill="white"/>
<path d="M369.816 92.375C371.666 92.375 373.283 92.75 374.666 93.5C376.066 94.2333 377.141 95.2667 377.891 96.6C378.641 97.9333 379.016 99.4583 379.016 101.175C379.016 102.875 378.633 104.392 377.866 105.725C377.116 107.058 376.041 108.108 374.641 108.875C373.258 109.625 371.65 110 369.816 110H362.841V92.375H369.816ZM369.441 105.675C370.875 105.675 372 105.283 372.816 104.5C373.633 103.717 374.041 102.608 374.041 101.175C374.041 99.725 373.633 98.6083 372.816 97.825C372 97.025 370.875 96.625 369.441 96.625H367.741V105.675H369.441Z" fill="white"/>
<path d="M388.175 110.175C386.525 110.175 385.009 109.792 383.625 109.025C382.242 108.242 381.142 107.167 380.325 105.8C379.525 104.417 379.125 102.858 379.125 101.125C379.125 99.3917 379.525 97.8417 380.325 96.475C381.142 95.0917 382.242 94.0167 383.625 93.25C385.009 92.4833 386.525 92.1 388.175 92.1C389.842 92.1 391.359 92.4833 392.725 93.25C394.109 94.0167 395.2 95.0917 396 96.475C396.8 97.8417 397.2 99.3917 397.2 101.125C397.2 102.858 396.8 104.417 396 105.8C395.2 107.167 394.109 108.242 392.725 109.025C391.342 109.792 389.825 110.175 388.175 110.175ZM388.175 105.625C389.425 105.625 390.409 105.217 391.125 104.4C391.859 103.583 392.225 102.492 392.225 101.125C392.225 99.725 391.859 98.625 391.125 97.825C390.409 97.0083 389.425 96.6 388.175 96.6C386.909 96.6 385.917 97.0083 385.2 97.825C384.484 98.625 384.125 99.725 384.125 101.125C384.125 102.508 384.484 103.608 385.2 104.425C385.917 105.225 386.909 105.625 388.175 105.625Z" fill="white"/>
<path d="M217.35 125.575C219.25 125.575 220.892 125.933 222.275 126.65C223.675 127.35 224.742 128.358 225.475 129.675C226.225 130.992 226.6 132.542 226.6 134.325C226.6 136.108 226.225 137.658 225.475 138.975C224.742 140.275 223.675 141.275 222.275 141.975C220.892 142.658 219.25 143 217.35 143H211.925V125.575H217.35ZM217.35 141.125C219.6 141.125 221.317 140.533 222.5 139.35C223.683 138.15 224.275 136.475 224.275 134.325C224.275 132.158 223.675 130.467 222.475 129.25C221.292 128.033 219.583 127.425 217.35 127.425H214.2V141.125H217.35Z" fill="white"/>
<path d="M235.076 143.225C233.792 143.225 232.626 142.933 231.576 142.35C230.542 141.767 229.726 140.942 229.126 139.875C228.542 138.792 228.251 137.542 228.251 136.125C228.251 134.725 228.551 133.492 229.151 132.425C229.767 131.342 230.601 130.517 231.651 129.95C232.701 129.367 233.876 129.075 235.176 129.075C236.476 129.075 237.651 129.367 238.701 129.95C239.751 130.517 240.576 131.333 241.176 132.4C241.792 133.467 242.101 134.708 242.101 136.125C242.101 137.542 241.784 138.792 241.151 139.875C240.534 140.942 239.692 141.767 238.626 142.35C237.559 142.933 236.376 143.225 235.076 143.225ZM235.076 141.225C235.892 141.225 236.659 141.033 237.376 140.65C238.092 140.267 238.667 139.692 239.101 138.925C239.551 138.158 239.776 137.225 239.776 136.125C239.776 135.025 239.559 134.092 239.126 133.325C238.692 132.558 238.126 131.992 237.426 131.625C236.726 131.242 235.967 131.05 235.151 131.05C234.317 131.05 233.551 131.242 232.851 131.625C232.167 131.992 231.617 132.558 231.201 133.325C230.784 134.092 230.576 135.025 230.576 136.125C230.576 137.242 230.776 138.183 231.176 138.95C231.592 139.717 232.142 140.292 232.826 140.675C233.509 141.042 234.259 141.225 235.076 141.225Z" fill="white"/>
<path d="M243.742 136.125C243.742 134.708 244.025 133.475 244.592 132.425C245.159 131.358 245.942 130.533 246.942 129.95C247.959 129.367 249.117 129.075 250.417 129.075C252.1 129.075 253.484 129.483 254.567 130.3C255.667 131.117 256.392 132.25 256.742 133.7H254.292C254.059 132.867 253.6 132.208 252.917 131.725C252.25 131.242 251.417 131 250.417 131C249.117 131 248.067 131.45 247.267 132.35C246.467 133.233 246.067 134.492 246.067 136.125C246.067 137.775 246.467 139.05 247.267 139.95C248.067 140.85 249.117 141.3 250.417 141.3C251.417 141.3 252.25 141.067 252.917 140.6C253.584 140.133 254.042 139.467 254.292 138.6H256.742C256.375 140 255.642 141.125 254.542 141.975C253.442 142.808 252.067 143.225 250.417 143.225C249.117 143.225 247.959 142.933 246.942 142.35C245.942 141.767 245.159 140.942 244.592 139.875C244.025 138.808 243.742 137.558 243.742 136.125Z" fill="white"/>
<path d="M271.428 129.3V143H269.153V140.975C268.719 141.675 268.111 142.225 267.328 142.625C266.561 143.008 265.711 143.2 264.778 143.2C263.711 143.2 262.753 142.983 261.903 142.55C261.053 142.1 260.378 141.433 259.878 140.55C259.394 139.667 259.153 138.592 259.153 137.325V129.3H261.403V137.025C261.403 138.375 261.744 139.417 262.428 140.15C263.111 140.867 264.044 141.225 265.228 141.225C266.444 141.225 267.403 140.85 268.103 140.1C268.803 139.35 269.153 138.258 269.153 136.825V129.3H271.428Z" fill="white"/>
<path d="M291.244 129.05C292.31 129.05 293.26 129.275 294.094 129.725C294.927 130.158 295.585 130.817 296.069 131.7C296.552 132.583 296.794 133.658 296.794 134.925V143H294.544V135.25C294.544 133.883 294.202 132.842 293.519 132.125C292.852 131.392 291.944 131.025 290.794 131.025C289.61 131.025 288.669 131.408 287.969 132.175C287.269 132.925 286.919 134.017 286.919 135.45V143H284.669V135.25C284.669 133.883 284.327 132.842 283.644 132.125C282.977 131.392 282.069 131.025 280.919 131.025C279.735 131.025 278.794 131.408 278.094 132.175C277.394 132.925 277.044 134.017 277.044 135.45V143H274.769V129.3H277.044V131.275C277.494 130.558 278.094 130.008 278.844 129.625C279.61 129.242 280.452 129.05 281.369 129.05C282.519 129.05 283.535 129.308 284.419 129.825C285.302 130.342 285.96 131.1 286.394 132.1C286.777 131.133 287.41 130.383 288.294 129.85C289.177 129.317 290.16 129.05 291.244 129.05Z" fill="white"/>
<path d="M312.526 135.625C312.526 136.058 312.501 136.517 312.451 137H301.501C301.584 138.35 302.042 139.408 302.876 140.175C303.726 140.925 304.751 141.3 305.951 141.3C306.934 141.3 307.751 141.075 308.401 140.625C309.067 140.158 309.534 139.542 309.801 138.775H312.251C311.884 140.092 311.151 141.167 310.051 142C308.951 142.817 307.584 143.225 305.951 143.225C304.651 143.225 303.484 142.933 302.451 142.35C301.434 141.767 300.634 140.942 300.051 139.875C299.467 138.792 299.176 137.542 299.176 136.125C299.176 134.708 299.459 133.467 300.026 132.4C300.592 131.333 301.384 130.517 302.401 129.95C303.434 129.367 304.617 129.075 305.951 129.075C307.251 129.075 308.401 129.358 309.401 129.925C310.401 130.492 311.167 131.275 311.701 132.275C312.251 133.258 312.526 134.375 312.526 135.625ZM310.176 135.15C310.176 134.283 309.984 133.542 309.601 132.925C309.217 132.292 308.692 131.817 308.026 131.5C307.376 131.167 306.651 131 305.851 131C304.701 131 303.717 131.367 302.901 132.1C302.101 132.833 301.642 133.85 301.526 135.15H310.176Z" fill="white"/>
<path d="M321.704 129.05C323.37 129.05 324.72 129.558 325.754 130.575C326.787 131.575 327.304 133.025 327.304 134.925V143H325.054V135.25C325.054 133.883 324.712 132.842 324.029 132.125C323.345 131.392 322.412 131.025 321.229 131.025C320.029 131.025 319.07 131.4 318.354 132.15C317.654 132.9 317.304 133.992 317.304 135.425V143H315.029V129.3H317.304V131.25C317.754 130.55 318.362 130.008 319.129 129.625C319.912 129.242 320.77 129.05 321.704 129.05Z" fill="white"/>
<path d="M333.295 131.175V139.25C333.295 139.917 333.436 140.392 333.72 140.675C334.003 140.942 334.495 141.075 335.195 141.075H336.87V143H334.82C333.553 143 332.603 142.708 331.97 142.125C331.336 141.542 331.02 140.583 331.02 139.25V131.175H329.245V129.3H331.02V125.85H333.295V129.3H336.87V131.175H333.295Z" fill="white"/>
<path d="M338.276 136.1C338.276 134.7 338.56 133.475 339.126 132.425C339.693 131.358 340.468 130.533 341.451 129.95C342.451 129.367 343.56 129.075 344.776 129.075C345.976 129.075 347.018 129.333 347.901 129.85C348.785 130.367 349.443 131.017 349.876 131.8V129.3H352.176V143H349.876V140.45C349.426 141.25 348.751 141.917 347.851 142.45C346.968 142.967 345.935 143.225 344.751 143.225C343.535 143.225 342.435 142.925 341.451 142.325C340.468 141.725 339.693 140.883 339.126 139.8C338.56 138.717 338.276 137.483 338.276 136.1ZM349.876 136.125C349.876 135.092 349.668 134.192 349.251 133.425C348.835 132.658 348.268 132.075 347.551 131.675C346.851 131.258 346.076 131.05 345.226 131.05C344.376 131.05 343.601 131.25 342.901 131.65C342.201 132.05 341.643 132.633 341.226 133.4C340.81 134.167 340.601 135.067 340.601 136.1C340.601 137.15 340.81 138.067 341.226 138.85C341.643 139.617 342.201 140.208 342.901 140.625C343.601 141.025 344.376 141.225 345.226 141.225C346.076 141.225 346.851 141.025 347.551 140.625C348.268 140.208 348.835 139.617 349.251 138.85C349.668 138.067 349.876 137.158 349.876 136.125Z" fill="white"/>
<path d="M362.196 129.05C363.862 129.05 365.212 129.558 366.246 130.575C367.279 131.575 367.796 133.025 367.796 134.925V143H365.546V135.25C365.546 133.883 365.204 132.842 364.521 132.125C363.837 131.392 362.904 131.025 361.721 131.025C360.521 131.025 359.562 131.4 358.846 132.15C358.146 132.9 357.796 133.992 357.796 135.425V143H355.521V129.3H357.796V131.25C358.246 130.55 358.854 130.008 359.621 129.625C360.404 129.242 361.262 129.05 362.196 129.05Z" fill="white"/>
<path d="M370.162 136.1C370.162 134.7 370.445 133.475 371.012 132.425C371.579 131.358 372.354 130.533 373.337 129.95C374.337 129.367 375.454 129.075 376.687 129.075C377.754 129.075 378.745 129.325 379.662 129.825C380.579 130.308 381.279 130.95 381.762 131.75V124.5H384.062V143H381.762V140.425C381.312 141.242 380.645 141.917 379.762 142.45C378.879 142.967 377.845 143.225 376.662 143.225C375.445 143.225 374.337 142.925 373.337 142.325C372.354 141.725 371.579 140.883 371.012 139.8C370.445 138.717 370.162 137.483 370.162 136.1ZM381.762 136.125C381.762 135.092 381.554 134.192 381.137 133.425C380.72 132.658 380.154 132.075 379.437 131.675C378.737 131.258 377.962 131.05 377.112 131.05C376.262 131.05 375.487 131.25 374.787 131.65C374.087 132.05 373.529 132.633 373.112 133.4C372.695 134.167 372.487 135.067 372.487 136.1C372.487 137.15 372.695 138.067 373.112 138.85C373.529 139.617 374.087 140.208 374.787 140.625C375.487 141.025 376.262 141.225 377.112 141.225C377.962 141.225 378.737 141.025 379.437 140.625C380.154 140.208 380.72 139.617 381.137 138.85C381.554 138.067 381.762 137.158 381.762 136.125Z" fill="white"/>
<path d="M393.381 143.225C392.098 143.225 390.931 142.933 389.881 142.35C388.848 141.767 388.031 140.942 387.431 139.875C386.848 138.792 386.556 137.542 386.556 136.125C386.556 134.725 386.856 133.492 387.456 132.425C388.073 131.342 388.906 130.517 389.956 129.95C391.006 129.367 392.181 129.075 393.481 129.075C394.781 129.075 395.956 129.367 397.006 129.95C398.056 130.517 398.881 131.333 399.481 132.4C400.098 133.467 400.406 134.708 400.406 136.125C400.406 137.542 400.09 138.792 399.456 139.875C398.84 140.942 397.998 141.767 396.931 142.35C395.865 142.933 394.681 143.225 393.381 143.225ZM393.381 141.225C394.198 141.225 394.965 141.033 395.681 140.65C396.398 140.267 396.973 139.692 397.406 138.925C397.856 138.158 398.081 137.225 398.081 136.125C398.081 135.025 397.865 134.092 397.431 133.325C396.998 132.558 396.431 131.992 395.731 131.625C395.031 131.242 394.273 131.05 393.456 131.05C392.623 131.05 391.856 131.242 391.156 131.625C390.473 131.992 389.923 132.558 389.506 133.325C389.09 134.092 388.881 135.025 388.881 136.125C388.881 137.242 389.081 138.183 389.481 138.95C389.898 139.717 390.448 140.292 391.131 140.675C391.815 141.042 392.565 141.225 393.381 141.225Z" fill="white"/>
<path d="M411.338 124.5V143H409.063V124.5H411.338Z" fill="white"/>
<path d="M420.69 143.225C419.407 143.225 418.24 142.933 417.19 142.35C416.157 141.767 415.34 140.942 414.74 139.875C414.157 138.792 413.865 137.542 413.865 136.125C413.865 134.725 414.165 133.492 414.765 132.425C415.382 131.342 416.215 130.517 417.265 129.95C418.315 129.367 419.49 129.075 420.79 129.075C422.09 129.075 423.265 129.367 424.315 129.95C425.365 130.517 426.19 131.333 426.79 132.4C427.407 133.467 427.715 134.708 427.715 136.125C427.715 137.542 427.398 138.792 426.765 139.875C426.148 140.942 425.307 141.767 424.24 142.35C423.173 142.933 421.99 143.225 420.69 143.225ZM420.69 141.225C421.507 141.225 422.273 141.033 422.99 140.65C423.707 140.267 424.282 139.692 424.715 138.925C425.165 138.158 425.39 137.225 425.39 136.125C425.39 135.025 425.173 134.092 424.74 133.325C424.307 132.558 423.74 131.992 423.04 131.625C422.34 131.242 421.582 131.05 420.765 131.05C419.932 131.05 419.165 131.242 418.465 131.625C417.782 131.992 417.232 132.558 416.815 133.325C416.398 134.092 416.19 135.025 416.19 136.125C416.19 137.242 416.39 138.183 416.79 138.95C417.207 139.717 417.757 140.292 418.44 140.675C419.123 141.042 419.873 141.225 420.69 141.225Z" fill="white"/>
<path d="M435.056 143.225C434.006 143.225 433.065 143.05 432.231 142.7C431.398 142.333 430.74 141.833 430.256 141.2C429.773 140.55 429.506 139.808 429.456 138.975H431.806C431.873 139.658 432.19 140.217 432.756 140.65C433.34 141.083 434.098 141.3 435.031 141.3C435.898 141.3 436.581 141.108 437.081 140.725C437.581 140.342 437.831 139.858 437.831 139.275C437.831 138.675 437.565 138.233 437.031 137.95C436.498 137.65 435.673 137.358 434.556 137.075C433.54 136.808 432.706 136.542 432.056 136.275C431.423 135.992 430.873 135.583 430.406 135.05C429.956 134.5 429.731 133.783 429.731 132.9C429.731 132.2 429.94 131.558 430.356 130.975C430.773 130.392 431.365 129.933 432.131 129.6C432.898 129.25 433.773 129.075 434.756 129.075C436.273 129.075 437.498 129.458 438.431 130.225C439.365 130.992 439.865 132.042 439.931 133.375H437.656C437.606 132.658 437.315 132.083 436.781 131.65C436.265 131.217 435.565 131 434.681 131C433.865 131 433.215 131.175 432.731 131.525C432.248 131.875 432.006 132.333 432.006 132.9C432.006 133.35 432.148 133.725 432.431 134.025C432.731 134.308 433.098 134.542 433.531 134.725C433.981 134.892 434.598 135.083 435.381 135.3C436.365 135.567 437.165 135.833 437.781 136.1C438.398 136.35 438.923 136.733 439.356 137.25C439.806 137.767 440.04 138.442 440.056 139.275C440.056 140.025 439.848 140.7 439.431 141.3C439.015 141.9 438.423 142.375 437.656 142.725C436.906 143.058 436.04 143.225 435.056 143.225Z" fill="white"/>
<path d="M223.575 158.675C223.575 160.125 223.075 161.333 222.075 162.3C221.092 163.25 219.583 163.725 217.55 163.725H214.2V171H211.925V153.575H217.55C219.517 153.575 221.008 154.05 222.025 155C223.058 155.95 223.575 157.175 223.575 158.675ZM217.55 161.85C218.817 161.85 219.75 161.575 220.35 161.025C220.95 160.475 221.25 159.692 221.25 158.675C221.25 156.525 220.017 155.45 217.55 155.45H214.2V161.85H217.55Z" fill="white"/>
<path d="M228.178 159.525C228.578 158.742 229.144 158.133 229.878 157.7C230.628 157.267 231.536 157.05 232.603 157.05V159.4H232.003C229.453 159.4 228.178 160.783 228.178 163.55V171H225.903V157.3H228.178V159.525Z" fill="white"/>
<path d="M240.704 171.225C239.42 171.225 238.254 170.933 237.204 170.35C236.17 169.767 235.354 168.942 234.754 167.875C234.17 166.792 233.879 165.542 233.879 164.125C233.879 162.725 234.179 161.492 234.779 160.425C235.395 159.342 236.229 158.517 237.279 157.95C238.329 157.367 239.504 157.075 240.804 157.075C242.104 157.075 243.279 157.367 244.329 157.95C245.379 158.517 246.204 159.333 246.804 160.4C247.42 161.467 247.729 162.708 247.729 164.125C247.729 165.542 247.412 166.792 246.779 167.875C246.162 168.942 245.32 169.767 244.254 170.35C243.187 170.933 242.004 171.225 240.704 171.225ZM240.704 169.225C241.52 169.225 242.287 169.033 243.004 168.65C243.72 168.267 244.295 167.692 244.729 166.925C245.179 166.158 245.404 165.225 245.404 164.125C245.404 163.025 245.187 162.092 244.754 161.325C244.32 160.558 243.754 159.992 243.054 159.625C242.354 159.242 241.595 159.05 240.779 159.05C239.945 159.05 239.179 159.242 238.479 159.625C237.795 159.992 237.245 160.558 236.829 161.325C236.412 162.092 236.204 163.025 236.204 164.125C236.204 165.242 236.404 166.183 236.804 166.95C237.22 167.717 237.77 168.292 238.454 168.675C239.137 169.042 239.887 169.225 240.704 169.225Z" fill="white"/>
<path d="M249.37 164.125C249.37 162.708 249.653 161.475 250.22 160.425C250.787 159.358 251.57 158.533 252.57 157.95C253.587 157.367 254.745 157.075 256.045 157.075C257.728 157.075 259.112 157.483 260.195 158.3C261.295 159.117 262.02 160.25 262.37 161.7H259.92C259.687 160.867 259.228 160.208 258.545 159.725C257.878 159.242 257.045 159 256.045 159C254.745 159 253.695 159.45 252.895 160.35C252.095 161.233 251.695 162.492 251.695 164.125C251.695 165.775 252.095 167.05 252.895 167.95C253.695 168.85 254.745 169.3 256.045 169.3C257.045 169.3 257.878 169.067 258.545 168.6C259.212 168.133 259.67 167.467 259.92 166.6H262.37C262.003 168 261.27 169.125 260.17 169.975C259.07 170.808 257.695 171.225 256.045 171.225C254.745 171.225 253.587 170.933 252.57 170.35C251.57 169.767 250.787 168.942 250.22 167.875C249.653 166.808 249.37 165.558 249.37 164.125Z" fill="white"/>
<path d="M277.406 163.625C277.406 164.058 277.381 164.517 277.331 165H266.381C266.464 166.35 266.922 167.408 267.756 168.175C268.606 168.925 269.631 169.3 270.831 169.3C271.814 169.3 272.631 169.075 273.281 168.625C273.947 168.158 274.414 167.542 274.681 166.775H277.131C276.764 168.092 276.031 169.167 274.931 170C273.831 170.817 272.464 171.225 270.831 171.225C269.531 171.225 268.364 170.933 267.331 170.35C266.314 169.767 265.514 168.942 264.931 167.875C264.347 166.792 264.056 165.542 264.056 164.125C264.056 162.708 264.339 161.467 264.906 160.4C265.472 159.333 266.264 158.517 267.281 157.95C268.314 157.367 269.497 157.075 270.831 157.075C272.131 157.075 273.281 157.358 274.281 157.925C275.281 158.492 276.047 159.275 276.581 160.275C277.131 161.258 277.406 162.375 277.406 163.625ZM275.056 163.15C275.056 162.283 274.864 161.542 274.481 160.925C274.097 160.292 273.572 159.817 272.906 159.5C272.256 159.167 271.531 159 270.731 159C269.581 159 268.597 159.367 267.781 160.1C266.981 160.833 266.522 161.85 266.406 163.15H275.056Z" fill="white"/>
<path d="M284.758 171.225C283.708 171.225 282.767 171.05 281.933 170.7C281.1 170.333 280.442 169.833 279.958 169.2C279.475 168.55 279.208 167.808 279.158 166.975H281.508C281.575 167.658 281.892 168.217 282.458 168.65C283.042 169.083 283.8 169.3 284.733 169.3C285.6 169.3 286.283 169.108 286.783 168.725C287.283 168.342 287.533 167.858 287.533 167.275C287.533 166.675 287.267 166.233 286.733 165.95C286.2 165.65 285.375 165.358 284.258 165.075C283.242 164.808 282.408 164.542 281.758 164.275C281.125 163.992 280.575 163.583 280.108 163.05C279.658 162.5 279.433 161.783 279.433 160.9C279.433 160.2 279.642 159.558 280.058 158.975C280.475 158.392 281.067 157.933 281.833 157.6C282.6 157.25 283.475 157.075 284.458 157.075C285.975 157.075 287.2 157.458 288.133 158.225C289.067 158.992 289.567 160.042 289.633 161.375H287.358C287.308 160.658 287.017 160.083 286.483 159.65C285.967 159.217 285.267 159 284.383 159C283.567 159 282.917 159.175 282.433 159.525C281.95 159.875 281.708 160.333 281.708 160.9C281.708 161.35 281.85 161.725 282.133 162.025C282.433 162.308 282.8 162.542 283.233 162.725C283.683 162.892 284.3 163.083 285.083 163.3C286.067 163.567 286.867 163.833 287.483 164.1C288.1 164.35 288.625 164.733 289.058 165.25C289.508 165.767 289.742 166.442 289.758 167.275C289.758 168.025 289.55 168.7 289.133 169.3C288.717 169.9 288.125 170.375 287.358 170.725C286.608 171.058 285.742 171.225 284.758 171.225Z" fill="white"/>
<path d="M297.32 171.225C296.27 171.225 295.328 171.05 294.495 170.7C293.662 170.333 293.003 169.833 292.52 169.2C292.037 168.55 291.77 167.808 291.72 166.975H294.07C294.137 167.658 294.453 168.217 295.02 168.65C295.603 169.083 296.362 169.3 297.295 169.3C298.162 169.3 298.845 169.108 299.345 168.725C299.845 168.342 300.095 167.858 300.095 167.275C300.095 166.675 299.828 166.233 299.295 165.95C298.762 165.65 297.937 165.358 296.82 165.075C295.803 164.808 294.97 164.542 294.32 164.275C293.687 163.992 293.137 163.583 292.67 163.05C292.22 162.5 291.995 161.783 291.995 160.9C291.995 160.2 292.203 159.558 292.62 158.975C293.037 158.392 293.628 157.933 294.395 157.6C295.162 157.25 296.037 157.075 297.02 157.075C298.537 157.075 299.762 157.458 300.695 158.225C301.628 158.992 302.128 160.042 302.195 161.375H299.92C299.87 160.658 299.578 160.083 299.045 159.65C298.528 159.217 297.828 159 296.945 159C296.128 159 295.478 159.175 294.995 159.525C294.512 159.875 294.27 160.333 294.27 160.9C294.27 161.35 294.412 161.725 294.695 162.025C294.995 162.308 295.362 162.542 295.795 162.725C296.245 162.892 296.862 163.083 297.645 163.3C298.628 163.567 299.428 163.833 300.045 164.1C300.662 164.35 301.187 164.733 301.62 165.25C302.07 165.767 302.303 166.442 302.32 167.275C302.32 168.025 302.112 168.7 301.695 169.3C301.278 169.9 300.687 170.375 299.92 170.725C299.17 171.058 298.303 171.225 297.32 171.225Z" fill="white"/>
<path d="M311.006 171.225C309.723 171.225 308.556 170.933 307.506 170.35C306.473 169.767 305.656 168.942 305.056 167.875C304.473 166.792 304.181 165.542 304.181 164.125C304.181 162.725 304.481 161.492 305.081 160.425C305.698 159.342 306.531 158.517 307.581 157.95C308.631 157.367 309.806 157.075 311.106 157.075C312.406 157.075 313.581 157.367 314.631 157.95C315.681 158.517 316.506 159.333 317.106 160.4C317.723 161.467 318.031 162.708 318.031 164.125C318.031 165.542 317.715 166.792 317.081 167.875C316.465 168.942 315.623 169.767 314.556 170.35C313.49 170.933 312.306 171.225 311.006 171.225ZM311.006 169.225C311.823 169.225 312.59 169.033 313.306 168.65C314.023 168.267 314.598 167.692 315.031 166.925C315.481 166.158 315.706 165.225 315.706 164.125C315.706 163.025 315.49 162.092 315.056 161.325C314.623 160.558 314.056 159.992 313.356 159.625C312.656 159.242 311.898 159.05 311.081 159.05C310.248 159.05 309.481 159.242 308.781 159.625C308.098 159.992 307.548 160.558 307.131 161.325C306.715 162.092 306.506 163.025 306.506 164.125C306.506 165.242 306.706 166.183 307.106 166.95C307.523 167.717 308.073 168.292 308.756 168.675C309.44 169.042 310.19 169.225 311.006 169.225Z" fill="white"/>
<path d="M325.373 171.225C324.323 171.225 323.381 171.05 322.548 170.7C321.714 170.333 321.056 169.833 320.573 169.2C320.089 168.55 319.823 167.808 319.773 166.975H322.123C322.189 167.658 322.506 168.217 323.073 168.65C323.656 169.083 324.414 169.3 325.348 169.3C326.214 169.3 326.898 169.108 327.398 168.725C327.898 168.342 328.148 167.858 328.148 167.275C328.148 166.675 327.881 166.233 327.348 165.95C326.814 165.65 325.989 165.358 324.873 165.075C323.856 164.808 323.023 164.542 322.373 164.275C321.739 163.992 321.189 163.583 320.723 163.05C320.273 162.5 320.048 161.783 320.048 160.9C320.048 160.2 320.256 159.558 320.673 158.975C321.089 158.392 321.681 157.933 322.448 157.6C323.214 157.25 324.089 157.075 325.073 157.075C326.589 157.075 327.814 157.458 328.748 158.225C329.681 158.992 330.181 160.042 330.248 161.375H327.973C327.923 160.658 327.631 160.083 327.098 159.65C326.581 159.217 325.881 159 324.998 159C324.181 159 323.531 159.175 323.048 159.525C322.564 159.875 322.323 160.333 322.323 160.9C322.323 161.35 322.464 161.725 322.748 162.025C323.048 162.308 323.414 162.542 323.848 162.725C324.298 162.892 324.914 163.083 325.698 163.3C326.681 163.567 327.481 163.833 328.098 164.1C328.714 164.35 329.239 164.733 329.673 165.25C330.123 165.767 330.356 166.442 330.373 167.275C330.373 168.025 330.164 168.7 329.748 169.3C329.331 169.9 328.739 170.375 327.973 170.725C327.223 171.058 326.356 171.225 325.373 171.225Z" fill="white"/>
<path d="M338.399 164.1C338.399 162.7 338.683 161.475 339.249 160.425C339.816 159.358 340.591 158.533 341.574 157.95C342.574 157.367 343.691 157.075 344.924 157.075C345.991 157.075 346.983 157.325 347.899 157.825C348.816 158.308 349.516 158.95 349.999 159.75V152.5H352.299V171H349.999V168.425C349.549 169.242 348.883 169.917 347.999 170.45C347.116 170.967 346.083 171.225 344.899 171.225C343.683 171.225 342.574 170.925 341.574 170.325C340.591 169.725 339.816 168.883 339.249 167.8C338.683 166.717 338.399 165.483 338.399 164.1ZM349.999 164.125C349.999 163.092 349.791 162.192 349.374 161.425C348.958 160.658 348.391 160.075 347.674 159.675C346.974 159.258 346.199 159.05 345.349 159.05C344.499 159.05 343.724 159.25 343.024 159.65C342.324 160.05 341.766 160.633 341.349 161.4C340.933 162.167 340.724 163.067 340.724 164.1C340.724 165.15 340.933 166.067 341.349 166.85C341.766 167.617 342.324 168.208 343.024 168.625C343.724 169.025 344.499 169.225 345.349 169.225C346.199 169.225 346.974 169.025 347.674 168.625C348.391 168.208 348.958 167.617 349.374 166.85C349.791 166.067 349.999 165.158 349.999 164.125Z" fill="white"/>
<path d="M368.144 163.625C368.144 164.058 368.119 164.517 368.069 165H357.119C357.202 166.35 357.66 167.408 358.494 168.175C359.344 168.925 360.369 169.3 361.569 169.3C362.552 169.3 363.369 169.075 364.019 168.625C364.685 168.158 365.152 167.542 365.419 166.775H367.869C367.502 168.092 366.769 169.167 365.669 170C364.569 170.817 363.202 171.225 361.569 171.225C360.269 171.225 359.102 170.933 358.069 170.35C357.052 169.767 356.252 168.942 355.669 167.875C355.085 166.792 354.794 165.542 354.794 164.125C354.794 162.708 355.077 161.467 355.644 160.4C356.21 159.333 357.002 158.517 358.019 157.95C359.052 157.367 360.235 157.075 361.569 157.075C362.869 157.075 364.019 157.358 365.019 157.925C366.019 158.492 366.785 159.275 367.319 160.275C367.869 161.258 368.144 162.375 368.144 163.625ZM365.794 163.15C365.794 162.283 365.602 161.542 365.219 160.925C364.835 160.292 364.31 159.817 363.644 159.5C362.994 159.167 362.269 159 361.469 159C360.319 159 359.335 159.367 358.519 160.1C357.719 160.833 357.26 161.85 357.144 163.15H365.794Z" fill="white"/>
<path d="M379.087 152.5V171H376.812V152.5H379.087Z" fill="white"/>
<path d="M381.614 164.1C381.614 162.7 381.897 161.475 382.464 160.425C383.031 159.358 383.806 158.533 384.789 157.95C385.789 157.367 386.897 157.075 388.114 157.075C389.314 157.075 390.356 157.333 391.239 157.85C392.122 158.367 392.781 159.017 393.214 159.8V157.3H395.514V171H393.214V168.45C392.764 169.25 392.089 169.917 391.189 170.45C390.306 170.967 389.272 171.225 388.089 171.225C386.872 171.225 385.772 170.925 384.789 170.325C383.806 169.725 383.031 168.883 382.464 167.8C381.897 166.717 381.614 165.483 381.614 164.1ZM393.214 164.125C393.214 163.092 393.006 162.192 392.589 161.425C392.172 160.658 391.606 160.075 390.889 159.675C390.189 159.258 389.414 159.05 388.564 159.05C387.714 159.05 386.939 159.25 386.239 159.65C385.539 160.05 384.981 160.633 384.564 161.4C384.147 162.167 383.939 163.067 383.939 164.1C383.939 165.15 384.147 166.067 384.564 166.85C384.981 167.617 385.539 168.208 386.239 168.625C386.939 169.025 387.714 169.225 388.564 169.225C389.414 169.225 390.189 169.025 390.889 168.625C391.606 168.208 392.172 167.617 392.589 166.85C393.006 166.067 393.214 165.158 393.214 164.125Z" fill="white"/>
<path d="M417.524 163.625C417.524 164.058 417.499 164.517 417.449 165H406.499C406.582 166.35 407.04 167.408 407.874 168.175C408.724 168.925 409.749 169.3 410.949 169.3C411.932 169.3 412.749 169.075 413.399 168.625C414.065 168.158 414.532 167.542 414.799 166.775H417.249C416.882 168.092 416.149 169.167 415.049 170C413.949 170.817 412.582 171.225 410.949 171.225C409.649 171.225 408.482 170.933 407.449 170.35C406.432 169.767 405.632 168.942 405.049 167.875C404.465 166.792 404.174 165.542 404.174 164.125C404.174 162.708 404.457 161.467 405.024 160.4C405.59 159.333 406.382 158.517 407.399 157.95C408.432 157.367 409.615 157.075 410.949 157.075C412.249 157.075 413.399 157.358 414.399 157.925C415.399 158.492 416.165 159.275 416.699 160.275C417.249 161.258 417.524 162.375 417.524 163.625ZM415.174 163.15C415.174 162.283 414.982 161.542 414.599 160.925C414.215 160.292 413.69 159.817 413.024 159.5C412.374 159.167 411.649 159 410.849 159C409.699 159 408.715 159.367 407.899 160.1C407.099 160.833 406.64 161.85 406.524 163.15H415.174Z" fill="white"/>
<path d="M436.502 157.05C437.568 157.05 438.518 157.275 439.352 157.725C440.185 158.158 440.843 158.817 441.327 159.7C441.81 160.583 442.052 161.658 442.052 162.925V171H439.802V163.25C439.802 161.883 439.46 160.842 438.777 160.125C438.11 159.392 437.202 159.025 436.052 159.025C434.868 159.025 433.927 159.408 433.227 160.175C432.527 160.925 432.177 162.017 432.177 163.45V171H429.927V163.25C429.927 161.883 429.585 160.842 428.902 160.125C428.235 159.392 427.327 159.025 426.177 159.025C424.993 159.025 424.052 159.408 423.352 160.175C422.652 160.925 422.302 162.017 422.302 163.45V171H420.027V157.3H422.302V159.275C422.752 158.558 423.352 158.008 424.102 157.625C424.868 157.242 425.71 157.05 426.627 157.05C427.777 157.05 428.793 157.308 429.677 157.825C430.56 158.342 431.218 159.1 431.652 160.1C432.035 159.133 432.668 158.383 433.552 157.85C434.435 157.317 435.418 157.05 436.502 157.05Z" fill="white"/>
<path d="M447.558 159.825C448.008 159.042 448.675 158.392 449.558 157.875C450.458 157.342 451.5 157.075 452.683 157.075C453.9 157.075 455 157.367 455.983 157.95C456.983 158.533 457.767 159.358 458.333 160.425C458.9 161.475 459.183 162.7 459.183 164.1C459.183 165.483 458.9 166.717 458.333 167.8C457.767 168.883 456.983 169.725 455.983 170.325C455 170.925 453.9 171.225 452.683 171.225C451.517 171.225 450.483 170.967 449.583 170.45C448.7 169.917 448.025 169.258 447.558 168.475V177.5H445.283V157.3H447.558V159.825ZM456.858 164.1C456.858 163.067 456.65 162.167 456.233 161.4C455.817 160.633 455.25 160.05 454.533 159.65C453.833 159.25 453.058 159.05 452.208 159.05C451.375 159.05 450.6 159.258 449.883 159.675C449.183 160.075 448.617 160.667 448.183 161.45C447.767 162.217 447.558 163.108 447.558 164.125C447.558 165.158 447.767 166.067 448.183 166.85C448.617 167.617 449.183 168.208 449.883 168.625C450.6 169.025 451.375 169.225 452.208 169.225C453.058 169.225 453.833 169.025 454.533 168.625C455.25 168.208 455.817 167.617 456.233 166.85C456.65 166.067 456.858 165.15 456.858 164.1Z" fill="white"/>
<path d="M463.953 159.525C464.353 158.742 464.92 158.133 465.653 157.7C466.403 157.267 467.311 157.05 468.378 157.05V159.4H467.778C465.228 159.4 463.953 160.783 463.953 163.55V171H461.678V157.3H463.953V159.525Z" fill="white"/>
<path d="M483.004 163.625C483.004 164.058 482.979 164.517 482.929 165H471.979C472.062 166.35 472.521 167.408 473.354 168.175C474.204 168.925 475.229 169.3 476.429 169.3C477.413 169.3 478.229 169.075 478.879 168.625C479.546 168.158 480.013 167.542 480.279 166.775H482.729C482.362 168.092 481.629 169.167 480.529 170C479.429 170.817 478.063 171.225 476.429 171.225C475.129 171.225 473.963 170.933 472.929 170.35C471.913 169.767 471.113 168.942 470.529 167.875C469.946 166.792 469.654 165.542 469.654 164.125C469.654 162.708 469.937 161.467 470.504 160.4C471.071 159.333 471.862 158.517 472.879 157.95C473.912 157.367 475.096 157.075 476.429 157.075C477.729 157.075 478.879 157.358 479.879 157.925C480.879 158.492 481.646 159.275 482.179 160.275C482.729 161.258 483.004 162.375 483.004 163.625ZM480.654 163.15C480.654 162.283 480.462 161.542 480.079 160.925C479.696 160.292 479.171 159.817 478.504 159.5C477.854 159.167 477.129 159 476.329 159C475.179 159 474.196 159.367 473.379 160.1C472.579 160.833 472.121 161.85 472.004 163.15H480.654Z" fill="white"/>
<path d="M490.357 171.225C489.307 171.225 488.365 171.05 487.532 170.7C486.699 170.333 486.04 169.833 485.557 169.2C485.074 168.55 484.807 167.808 484.757 166.975H487.107C487.174 167.658 487.49 168.217 488.057 168.65C488.64 169.083 489.399 169.3 490.332 169.3C491.199 169.3 491.882 169.108 492.382 168.725C492.882 168.342 493.132 167.858 493.132 167.275C493.132 166.675 492.865 166.233 492.332 165.95C491.799 165.65 490.974 165.358 489.857 165.075C488.84 164.808 488.007 164.542 487.357 164.275C486.724 163.992 486.174 163.583 485.707 163.05C485.257 162.5 485.032 161.783 485.032 160.9C485.032 160.2 485.24 159.558 485.657 158.975C486.074 158.392 486.665 157.933 487.432 157.6C488.199 157.25 489.074 157.075 490.057 157.075C491.574 157.075 492.799 157.458 493.732 158.225C494.665 158.992 495.165 160.042 495.232 161.375H492.957C492.907 160.658 492.615 160.083 492.082 159.65C491.565 159.217 490.865 159 489.982 159C489.165 159 488.515 159.175 488.032 159.525C487.549 159.875 487.307 160.333 487.307 160.9C487.307 161.35 487.449 161.725 487.732 162.025C488.032 162.308 488.399 162.542 488.832 162.725C489.282 162.892 489.899 163.083 490.682 163.3C491.665 163.567 492.465 163.833 493.082 164.1C493.699 164.35 494.224 164.733 494.657 165.25C495.107 165.767 495.34 166.442 495.357 167.275C495.357 168.025 495.149 168.7 494.732 169.3C494.315 169.9 493.724 170.375 492.957 170.725C492.207 171.058 491.34 171.225 490.357 171.225Z" fill="white"/>
<path d="M502.919 171.225C501.869 171.225 500.927 171.05 500.094 170.7C499.26 170.333 498.602 169.833 498.119 169.2C497.635 168.55 497.369 167.808 497.319 166.975H499.669C499.735 167.658 500.052 168.217 500.619 168.65C501.202 169.083 501.96 169.3 502.894 169.3C503.76 169.3 504.444 169.108 504.944 168.725C505.444 168.342 505.694 167.858 505.694 167.275C505.694 166.675 505.427 166.233 504.894 165.95C504.36 165.65 503.535 165.358 502.419 165.075C501.402 164.808 500.569 164.542 499.919 164.275C499.285 163.992 498.735 163.583 498.269 163.05C497.819 162.5 497.594 161.783 497.594 160.9C497.594 160.2 497.802 159.558 498.219 158.975C498.635 158.392 499.227 157.933 499.994 157.6C500.76 157.25 501.635 157.075 502.619 157.075C504.135 157.075 505.36 157.458 506.294 158.225C507.227 158.992 507.727 160.042 507.794 161.375H505.519C505.469 160.658 505.177 160.083 504.644 159.65C504.127 159.217 503.427 159 502.544 159C501.727 159 501.077 159.175 500.594 159.525C500.11 159.875 499.869 160.333 499.869 160.9C499.869 161.35 500.01 161.725 500.294 162.025C500.594 162.308 500.96 162.542 501.394 162.725C501.844 162.892 502.46 163.083 503.244 163.3C504.227 163.567 505.027 163.833 505.644 164.1C506.26 164.35 506.785 164.733 507.219 165.25C507.669 165.767 507.902 166.442 507.919 167.275C507.919 168.025 507.71 168.7 507.294 169.3C506.877 169.9 506.285 170.375 505.519 170.725C504.769 171.058 503.902 171.225 502.919 171.225Z" fill="white"/>
<path d="M509.78 164.1C509.78 162.7 510.063 161.475 510.63 160.425C511.197 159.358 511.972 158.533 512.955 157.95C513.955 157.367 515.063 157.075 516.28 157.075C517.48 157.075 518.522 157.333 519.405 157.85C520.288 158.367 520.947 159.017 521.38 159.8V157.3H523.68V171H521.38V168.45C520.93 169.25 520.255 169.917 519.355 170.45C518.472 170.967 517.438 171.225 516.255 171.225C515.038 171.225 513.938 170.925 512.955 170.325C511.972 169.725 511.197 168.883 510.63 167.8C510.063 166.717 509.78 165.483 509.78 164.1ZM521.38 164.125C521.38 163.092 521.172 162.192 520.755 161.425C520.338 160.658 519.772 160.075 519.055 159.675C518.355 159.258 517.58 159.05 516.73 159.05C515.88 159.05 515.105 159.25 514.405 159.65C513.705 160.05 513.147 160.633 512.73 161.4C512.313 162.167 512.105 163.067 512.105 164.1C512.105 165.15 512.313 166.067 512.73 166.85C513.147 167.617 513.705 168.208 514.405 168.625C515.105 169.025 515.88 169.225 516.73 169.225C517.58 169.225 518.355 169.025 519.055 168.625C519.772 168.208 520.338 167.617 520.755 166.85C521.172 166.067 521.38 165.158 521.38 164.125Z" fill="white"/>
</svg>
