<?xml version="1.0" encoding="utf-8"?>
<!-- Generator: Adobe Illustrator 22.0.1, SVG Export Plug-In . SVG Version: 6.00 Build 0)  -->
<svg version="1.1" id="Layer_1" xmlns="http://www.w3.org/2000/svg" xmlns:xlink="http://www.w3.org/1999/xlink" x="0px" y="0px"
	 viewBox="0 0 800 97.6" style="enable-background:new 0 0 800 97.6;" xml:space="preserve">
<style type="text/css">
	.st0{fill:#7000FF;}
	.st1{fill:#B3B3B3;}
	.st2{fill:#FFFFFF;}
	.st3{font-family:'EzzoBlack';}
	.st4{font-size:20.9181px;}
</style>
<g>
	<g>
		<path class="st0" d="M4.6,0h203.7v97.6H4.6C2.1,97.6,0,95.5,0,93V4.6C0,2.1,2.1,0,4.6,0z"/>
	</g>
	<g>
		<rect x="208.3" y="0" class="st1" width="383.5" height="97.6"/>
	</g>
	<g>
		<path class="st2" d="M591.6,0h203.7c2.6,0,4.6,2.1,4.6,4.6V93c0,2.6-2.1,4.6-4.6,4.6H591.6V0z"/>
	</g>
	<g>
		<text transform="matrix(1 0 0 1 27.8911 74.5864)" class="st2 st3 st4">#7000FF</text>
	</g>
	<g>
		<text transform="matrix(1 0 0 1 236.1421 74.5864)" class="st3 st4">#B3B3B3</text>
	</g>
	<g>
		<text transform="matrix(1 0 0 1 619.9834 74.5864)" class="st3 st4">#FFFFFF</text>
	</g>
</g>
</svg>
