<?xml version="1.0" encoding="utf-8"?>
<!-- Generator: Adobe Illustrator 22.0.1, SVG Export Plug-In . SVG Version: 6.00 Build 0)  -->
<svg version="1.1" id="Layer_1" xmlns="http://www.w3.org/2000/svg" xmlns:xlink="http://www.w3.org/1999/xlink" x="0px" y="0px"
	 viewBox="0 0 1200 146.4" style="enable-background:new 0 0 1200 146.4;" xml:space="preserve">
<style type="text/css">
	.st0{fill:#1D1E26;}
	.st1{fill:#15161B;}
	.st2{fill:#252633;}
	.st3{fill:#FFFFFF;}
	.st4{font-family:'EzzoBlack';}
	.st5{font-size:31.3771px;}
	.st6{letter-spacing:1;}
</style>
<g>
	<g>
		<rect x="312.4" y="0" class="st0" width="575.2" height="146.4"/>
	</g>
	<g>
		<path class="st1" d="M7,0h305.6v146.4H7c-3.8,0-7-3.1-7-7V6.9C0,3.1,3.1,0,7,0z"/>
	</g>
	<g>
		<path class="st2" d="M887.4,0H1193c3.8,0,7,3.1,7,7v132.5c0,3.8-3.1,7-7,7H887.4V0z"/>
	</g>
	<g>
		<text transform="matrix(1 0 0 1 41.8364 112.2374)" class="st3 st4 st5 st6">#15161B</text>
	</g>
	<g>
		<text transform="matrix(1 0 0 1 354.2139 112.2374)" class="st3 st4 st5 st6">#1D1E26</text>
	</g>
	<g>
		<text transform="matrix(1 0 0 1 929.9766 112.2374)" class="st3 st4 st5 st6">#C8C8C8</text>
	</g>
</g>
</svg>
