<?xml version="1.0" encoding="utf-8"?>
<!-- Generator: Adobe Illustrator 22.0.1, SVG Export Plug-In . SVG Version: 6.00 Build 0)  -->
<svg version="1.1" id="Layer_1" xmlns="http://www.w3.org/2000/svg" xmlns:xlink="http://www.w3.org/1999/xlink" x="0px" y="0px"
	 viewBox="0 0 192 175" style="enable-background:new 0 0 192 175;" xml:space="preserve">
<style type="text/css">
	.st0{fill:#FFFFFF;}
	.st1{fill:none;stroke:#FFFFFF;stroke-width:2;}
</style>
<path class="st0" d="M88.1,82.4c0.1-2.4,0.8-4.2,2.2-5.5c1.4-1.3,3.3-1.9,5.8-1.9c1.6,0,3,0.3,4.1,0.9c1.2,0.5,2,1.3,2.6,2.3
	c0.6,0.9,0.9,2,0.9,3.2c0,1.4-0.3,2.6-1,3.4c-0.7,0.8-1.5,1.4-2.4,1.7v0.1c2.5,0.9,3.8,2.8,3.8,5.4c0,1.3-0.3,2.5-0.9,3.5
	c-0.6,1-1.5,1.8-2.7,2.4c-1.2,0.6-2.5,0.9-4.1,0.9c-2.6,0-4.7-0.6-6.3-1.9c-1.5-1.3-2.3-3.2-2.4-5.9h6c0,0.8,0.1,1.5,0.5,2
	c0.4,0.5,1,0.7,1.8,0.7c0.6,0,1.1-0.2,1.4-0.6c0.4-0.4,0.5-0.9,0.5-1.5c0-0.8-0.3-1.4-0.8-1.8c-0.5-0.4-1.3-0.6-2.5-0.6h-1.1v-5h1.1
	c0.8,0,1.5-0.1,2-0.4c0.6-0.3,0.9-0.9,0.9-1.7c0-0.7-0.2-1.1-0.5-1.5c-0.3-0.3-0.7-0.5-1.3-0.5c-0.6,0-1.1,0.2-1.4,0.7
	c-0.3,0.4-0.4,0.9-0.5,1.6H88.1z"/>
<circle class="st1" cx="96.5" cy="87.5" r="54"/>
</svg>
