<?xml version="1.0" encoding="utf-8"?>
<!-- Generator: Adobe Illustrator 22.0.1, SVG Export Plug-In . SVG Version: 6.00 Build 0)  -->
<svg version="1.1" id="Layer_1" xmlns="http://www.w3.org/2000/svg" xmlns:xlink="http://www.w3.org/1999/xlink" x="0px" y="0px"
	 viewBox="0 0 192 175" style="enable-background:new 0 0 192 175;" xml:space="preserve">
<style type="text/css">
	.st0{fill:#FFFFFF;}
	.st1{fill:none;stroke:#FFFFFF;stroke-width:2;}
</style>
<path class="st0" d="M88.2,93.6c2-1.6,3.7-3,5-4.1s2.4-2.3,3.3-3.6c0.9-1.2,1.3-2.4,1.3-3.5c0-0.7-0.2-1.2-0.5-1.6
	c-0.3-0.4-0.7-0.6-1.3-0.6c-0.6,0-1.1,0.3-1.4,0.8c-0.3,0.5-0.5,1.3-0.5,2.2h-6c0.1-1.9,0.5-3.4,1.2-4.6c0.8-1.2,1.7-2.1,3-2.7
	c1.2-0.6,2.6-0.9,4.1-0.9c2.6,0,4.5,0.6,5.8,1.9c1.3,1.3,1.9,2.9,1.9,5c0,2.2-0.7,4.2-2.2,6.2c-1.5,1.9-3.3,3.6-5.5,5.1h7.9v5H88.2
	V93.6z"/>
<circle class="st1" cx="96.5" cy="87.5" r="54"/>
</svg>
