<svg width="586" height="264" viewBox="0 0 586 264" fill="none" xmlns="http://www.w3.org/2000/svg">
<path d="M586 10C586 4.47716 581.523 0 576 0H10C4.47717 0 0 4.47715 0 10V254C0 259.523 4.47715 264 10 264H576C581.523 264 586 259.523 586 254V10Z" fill="#6300E2"/>
<path d="M263.425 118.8L257.9 111.075V118.8H253V101.175H257.9V108.775L263.375 101.175H269.025L262.55 109.725L269.35 118.8H263.425Z" fill="white"/>
<path d="M276.04 101.175V118.8H271.14V101.175H276.04Z" fill="white"/>
<path d="M283.73 115.05H289.205V118.8H278.83V101.175H283.73V115.05Z" fill="white"/>
<path d="M296.01 115.05H301.485V118.8H291.11V101.175H296.01V115.05Z" fill="white"/>
<path d="M308.291 101.175V118.8H303.391V101.175H308.291Z" fill="white"/>
<path d="M327.406 118.8H322.506L315.981 108.95V118.8H311.081V101.175H315.981L322.506 111.15V101.175H327.406V118.8Z" fill="white"/>
<path d="M341.447 106.975C341.164 106.508 340.772 106.15 340.272 105.9C339.789 105.65 339.214 105.525 338.547 105.525C337.314 105.525 336.339 105.925 335.622 106.725C334.922 107.525 334.572 108.6 334.572 109.95C334.572 111.467 334.947 112.625 335.697 113.425C336.464 114.208 337.572 114.6 339.022 114.6C340.739 114.6 341.964 113.825 342.697 112.275H337.772V108.75H346.922V113.5C346.539 114.433 345.972 115.308 345.222 116.125C344.489 116.942 343.556 117.617 342.422 118.15C341.289 118.667 339.997 118.925 338.547 118.925C336.781 118.925 335.214 118.55 333.847 117.8C332.497 117.033 331.447 115.975 330.697 114.625C329.964 113.258 329.597 111.7 329.597 109.95C329.597 108.217 329.964 106.675 330.697 105.325C331.447 103.958 332.497 102.9 333.847 102.15C335.197 101.383 336.756 101 338.522 101C340.739 101 342.572 101.533 344.022 102.6C345.472 103.667 346.372 105.125 346.722 106.975H341.447Z" fill="white"/>
<path d="M358.703 101.175V111.4C358.703 112.35 358.92 113.083 359.353 113.6C359.803 114.117 360.478 114.375 361.378 114.375C362.278 114.375 362.953 114.117 363.403 113.6C363.87 113.067 364.103 112.333 364.103 111.4V101.175H369.003V111.4C369.003 113.017 368.662 114.4 367.978 115.55C367.295 116.683 366.362 117.542 365.178 118.125C364.012 118.692 362.712 118.975 361.278 118.975C359.845 118.975 358.562 118.692 357.428 118.125C356.312 117.542 355.428 116.683 354.778 115.55C354.145 114.417 353.828 113.033 353.828 111.4V101.175H358.703Z" fill="white"/>
<path d="M376.601 101.175V118.8H371.701V101.175H376.601Z" fill="white"/>
<path d="M265.175 144.475C265.175 145.925 264.675 147.133 263.675 148.1C262.692 149.05 261.183 149.525 259.15 149.525H255.8V156.8H253.525V139.375H259.15C261.117 139.375 262.608 139.85 263.625 140.8C264.658 141.75 265.175 142.975 265.175 144.475ZM259.15 147.65C260.417 147.65 261.35 147.375 261.95 146.825C262.55 146.275 262.85 145.492 262.85 144.475C262.85 142.325 261.617 141.25 259.15 141.25H255.8V147.65H259.15Z" fill="white"/>
<path d="M270.278 145.325C270.678 144.542 271.244 143.933 271.978 143.5C272.728 143.067 273.636 142.85 274.703 142.85V145.2H274.103C271.553 145.2 270.278 146.583 270.278 149.35V156.8H268.003V143.1H270.278V145.325Z" fill="white"/>
<path d="M283.304 157.025C282.02 157.025 280.854 156.733 279.804 156.15C278.77 155.567 277.954 154.742 277.354 153.675C276.77 152.592 276.479 151.342 276.479 149.925C276.479 148.525 276.779 147.292 277.379 146.225C277.995 145.142 278.829 144.317 279.879 143.75C280.929 143.167 282.104 142.875 283.404 142.875C284.704 142.875 285.879 143.167 286.929 143.75C287.979 144.317 288.804 145.133 289.404 146.2C290.02 147.267 290.329 148.508 290.329 149.925C290.329 151.342 290.012 152.592 289.379 153.675C288.762 154.742 287.92 155.567 286.854 156.15C285.787 156.733 284.604 157.025 283.304 157.025ZM283.304 155.025C284.12 155.025 284.887 154.833 285.604 154.45C286.32 154.067 286.895 153.492 287.329 152.725C287.779 151.958 288.004 151.025 288.004 149.925C288.004 148.825 287.787 147.892 287.354 147.125C286.92 146.358 286.354 145.792 285.654 145.425C284.954 145.042 284.195 144.85 283.379 144.85C282.545 144.85 281.779 145.042 281.079 145.425C280.395 145.792 279.845 146.358 279.429 147.125C279.012 147.892 278.804 148.825 278.804 149.925C278.804 151.042 279.004 151.983 279.404 152.75C279.82 153.517 280.37 154.092 281.054 154.475C281.737 154.842 282.487 155.025 283.304 155.025Z" fill="white"/>
<path d="M298.42 154.7L302.67 143.1H305.095L299.72 156.8H297.07L291.695 143.1H294.145L298.42 154.7Z" fill="white"/>
<path d="M308.509 140.875C308.075 140.875 307.709 140.725 307.409 140.425C307.109 140.125 306.959 139.758 306.959 139.325C306.959 138.892 307.109 138.525 307.409 138.225C307.709 137.925 308.075 137.775 308.509 137.775C308.925 137.775 309.275 137.925 309.559 138.225C309.859 138.525 310.009 138.892 310.009 139.325C310.009 139.758 309.859 140.125 309.559 140.425C309.275 140.725 308.925 140.875 308.509 140.875ZM309.609 143.1V156.8H307.334V143.1H309.609Z" fill="white"/>
<path d="M312.636 149.9C312.636 148.5 312.919 147.275 313.486 146.225C314.053 145.158 314.828 144.333 315.811 143.75C316.811 143.167 317.928 142.875 319.161 142.875C320.228 142.875 321.219 143.125 322.136 143.625C323.053 144.108 323.753 144.75 324.236 145.55V138.3H326.536V156.8H324.236V154.225C323.786 155.042 323.119 155.717 322.236 156.25C321.353 156.767 320.319 157.025 319.136 157.025C317.919 157.025 316.811 156.725 315.811 156.125C314.828 155.525 314.053 154.683 313.486 153.6C312.919 152.517 312.636 151.283 312.636 149.9ZM324.236 149.925C324.236 148.892 324.028 147.992 323.611 147.225C323.194 146.458 322.628 145.875 321.911 145.475C321.211 145.058 320.436 144.85 319.586 144.85C318.736 144.85 317.961 145.05 317.261 145.45C316.561 145.85 316.003 146.433 315.586 147.2C315.169 147.967 314.961 148.867 314.961 149.9C314.961 150.95 315.169 151.867 315.586 152.65C316.003 153.417 316.561 154.008 317.261 154.425C317.961 154.825 318.736 155.025 319.586 155.025C320.436 155.025 321.211 154.825 321.911 154.425C322.628 154.008 323.194 153.417 323.611 152.65C324.028 151.867 324.236 150.958 324.236 149.925Z" fill="white"/>
<path d="M331.555 140.875C331.122 140.875 330.755 140.725 330.455 140.425C330.155 140.125 330.005 139.758 330.005 139.325C330.005 138.892 330.155 138.525 330.455 138.225C330.755 137.925 331.122 137.775 331.555 137.775C331.972 137.775 332.322 137.925 332.605 138.225C332.905 138.525 333.055 138.892 333.055 139.325C333.055 139.758 332.905 140.125 332.605 140.425C332.322 140.725 331.972 140.875 331.555 140.875ZM332.655 143.1V156.8H330.38V143.1H332.655Z" fill="white"/>
<path d="M343.208 142.85C344.874 142.85 346.224 143.358 347.258 144.375C348.291 145.375 348.808 146.825 348.808 148.725V156.8H346.558V149.05C346.558 147.683 346.216 146.642 345.533 145.925C344.849 145.192 343.916 144.825 342.733 144.825C341.533 144.825 340.574 145.2 339.858 145.95C339.158 146.7 338.808 147.792 338.808 149.225V156.8H336.533V143.1H338.808V145.05C339.258 144.35 339.866 143.808 340.633 143.425C341.416 143.042 342.274 142.85 343.208 142.85Z" fill="white"/>
<path d="M358.174 142.875C359.357 142.875 360.391 143.133 361.274 143.65C362.174 144.167 362.841 144.817 363.274 145.6V143.1H365.574V157.1C365.574 158.35 365.307 159.458 364.774 160.425C364.241 161.408 363.474 162.175 362.474 162.725C361.491 163.275 360.341 163.55 359.024 163.55C357.224 163.55 355.724 163.125 354.524 162.275C353.324 161.425 352.616 160.267 352.399 158.8H354.649C354.899 159.633 355.416 160.3 356.199 160.8C356.982 161.317 357.924 161.575 359.024 161.575C360.274 161.575 361.291 161.183 362.074 160.4C362.874 159.617 363.274 158.517 363.274 157.1V154.225C362.824 155.025 362.157 155.692 361.274 156.225C360.391 156.758 359.357 157.025 358.174 157.025C356.957 157.025 355.849 156.725 354.849 156.125C353.866 155.525 353.091 154.683 352.524 153.6C351.957 152.517 351.674 151.283 351.674 149.9C351.674 148.5 351.957 147.275 352.524 146.225C353.091 145.158 353.866 144.333 354.849 143.75C355.849 143.167 356.957 142.875 358.174 142.875ZM363.274 149.925C363.274 148.892 363.066 147.992 362.649 147.225C362.232 146.458 361.666 145.875 360.949 145.475C360.249 145.058 359.474 144.85 358.624 144.85C357.774 144.85 356.999 145.05 356.299 145.45C355.599 145.85 355.041 146.433 354.624 147.2C354.207 147.967 353.999 148.867 353.999 149.9C353.999 150.95 354.207 151.867 354.624 152.65C355.041 153.417 355.599 154.008 356.299 154.425C356.999 154.825 357.774 155.025 358.624 155.025C359.474 155.025 360.249 154.825 360.949 154.425C361.666 154.008 362.232 153.417 362.649 152.65C363.066 151.867 363.274 150.958 363.274 149.925Z" fill="white"/>
<path d="M375.234 149.9C375.234 148.5 375.517 147.275 376.084 146.225C376.65 145.158 377.425 144.333 378.409 143.75C379.409 143.167 380.517 142.875 381.734 142.875C382.934 142.875 383.975 143.133 384.859 143.65C385.742 144.167 386.4 144.817 386.834 145.6V143.1H389.134V156.8H386.834V154.25C386.384 155.05 385.709 155.717 384.809 156.25C383.925 156.767 382.892 157.025 381.709 157.025C380.492 157.025 379.392 156.725 378.409 156.125C377.425 155.525 376.65 154.683 376.084 153.6C375.517 152.517 375.234 151.283 375.234 149.9ZM386.834 149.925C386.834 148.892 386.625 147.992 386.209 147.225C385.792 146.458 385.225 145.875 384.509 145.475C383.809 145.058 383.034 144.85 382.184 144.85C381.334 144.85 380.559 145.05 379.859 145.45C379.159 145.85 378.6 146.433 378.184 147.2C377.767 147.967 377.559 148.867 377.559 149.9C377.559 150.95 377.767 151.867 378.184 152.65C378.6 153.417 379.159 154.008 379.859 154.425C380.559 154.825 381.334 155.025 382.184 155.025C383.034 155.025 383.809 154.825 384.509 154.425C385.225 154.008 385.792 153.417 386.209 152.65C386.625 151.867 386.834 150.958 386.834 149.925Z" fill="white"/>
<path d="M407.293 156.8L401.918 150.75V156.8H399.643V138.3H401.918V149.175L407.193 143.1H410.368L403.918 149.925L410.393 156.8H407.293Z" fill="white"/>
<path d="M413.684 140.875C413.251 140.875 412.884 140.725 412.584 140.425C412.284 140.125 412.134 139.758 412.134 139.325C412.134 138.892 412.284 138.525 412.584 138.225C412.884 137.925 413.251 137.775 413.684 137.775C414.101 137.775 414.451 137.925 414.734 138.225C415.034 138.525 415.184 138.892 415.184 139.325C415.184 139.758 415.034 140.125 414.734 140.425C414.451 140.725 414.101 140.875 413.684 140.875ZM414.784 143.1V156.8H412.509V143.1H414.784Z" fill="white"/>
<path d="M420.937 138.3V156.8H418.662V138.3H420.937Z" fill="white"/>
<path d="M427.089 138.3V156.8H424.814V138.3H427.089Z" fill="white"/>
<path d="M443.466 149.425C443.466 149.858 443.441 150.317 443.391 150.8H432.441C432.525 152.15 432.983 153.208 433.816 153.975C434.666 154.725 435.691 155.1 436.891 155.1C437.875 155.1 438.691 154.875 439.341 154.425C440.008 153.958 440.475 153.342 440.741 152.575H443.191C442.825 153.892 442.091 154.967 440.991 155.8C439.891 156.617 438.525 157.025 436.891 157.025C435.591 157.025 434.425 156.733 433.391 156.15C432.375 155.567 431.575 154.742 430.991 153.675C430.408 152.592 430.116 151.342 430.116 149.925C430.116 148.508 430.4 147.267 430.966 146.2C431.533 145.133 432.325 144.317 433.341 143.75C434.375 143.167 435.558 142.875 436.891 142.875C438.191 142.875 439.341 143.158 440.341 143.725C441.341 144.292 442.108 145.075 442.641 146.075C443.191 147.058 443.466 148.175 443.466 149.425ZM441.116 148.95C441.116 148.083 440.925 147.342 440.541 146.725C440.158 146.092 439.633 145.617 438.966 145.3C438.316 144.967 437.591 144.8 436.791 144.8C435.641 144.8 434.658 145.167 433.841 145.9C433.041 146.633 432.583 147.65 432.466 148.95H441.116Z" fill="white"/>
<path d="M448.744 145.325C449.144 144.542 449.711 143.933 450.444 143.5C451.194 143.067 452.103 142.85 453.169 142.85V145.2H452.569C450.019 145.2 448.744 146.583 448.744 149.35V156.8H446.469V143.1H448.744V145.325Z" fill="white"/>
<path d="M464.686 139.375V150.4C464.686 151.95 465.061 153.1 465.811 153.85C466.577 154.6 467.636 154.975 468.986 154.975C470.319 154.975 471.361 154.6 472.111 153.85C472.877 153.1 473.261 151.95 473.261 150.4V139.375H475.536V150.375C475.536 151.825 475.244 153.05 474.661 154.05C474.077 155.033 473.286 155.767 472.286 156.25C471.302 156.733 470.194 156.975 468.961 156.975C467.727 156.975 466.611 156.733 465.611 156.25C464.627 155.767 463.844 155.033 463.261 154.05C462.694 153.05 462.411 151.825 462.411 150.375V139.375H464.686Z" fill="white"/>
<path d="M481.606 139.375V156.8H479.331V139.375H481.606Z" fill="white"/>
<path d="M150.6 126.9C150.7 124.5 151.4 122.7 152.8 121.4C154.2 120.1 156.1 119.5 158.6 119.5C160.2 119.5 161.6 119.8 162.7 120.4C163.9 120.9 164.7 121.7 165.3 122.7C165.9 123.6 166.2 124.7 166.2 125.9C166.2 127.3 165.9 128.5 165.2 129.3C164.5 130.1 163.7 130.7 162.8 131V131.1C165.3 132 166.6 133.9 166.6 136.5C166.6 137.8 166.3 139 165.7 140C165.1 141 164.2 141.8 163 142.4C161.8 143 160.5 143.3 158.9 143.3C156.3 143.3 154.2 142.7 152.6 141.4C151.1 140.1 150.3 138.2 150.2 135.5H156.2C156.2 136.3 156.3 137 156.7 137.5C157.1 138 157.7 138.2 158.5 138.2C159.1 138.2 159.6 138 159.9 137.6C160.3 137.2 160.4 136.7 160.4 136.1C160.4 135.3 160.1 134.7 159.6 134.3C159.1 133.9 158.3 133.7 157.1 133.7H156V128.7H157.1C157.9 128.7 158.6 128.6 159.1 128.3C159.7 128 160 127.4 160 126.6C160 125.9 159.8 125.5 159.5 125.1C159.2 124.8 158.8 124.6 158.2 124.6C157.6 124.6 157.1 124.8 156.8 125.3C156.5 125.7 156.4 126.2 156.3 126.9H150.6Z" fill="white"/>
<path d="M159 186C188.823 186 213 161.823 213 132C213 102.177 188.823 78 159 78C129.177 78 105 102.177 105 132C105 161.823 129.177 186 159 186Z" stroke="white" stroke-width="2"/>
</svg>
