<svg width="586" height="264" viewBox="0 0 586 264" fill="none" xmlns="http://www.w3.org/2000/svg">
<path d="M0 10C0 4.47716 4.47715 0 10 0H576C581.523 0 586 4.47715 586 10V254C586 259.523 581.523 264 576 264H10C4.47717 264 0 259.523 0 254V10Z" fill="#6300E2"/>
<path d="M239.975 85.275C241.825 85.275 243.442 85.65 244.825 86.4C246.225 87.1333 247.3 88.1667 248.05 89.5C248.8 90.8333 249.175 92.3583 249.175 94.075C249.175 95.775 248.792 97.2917 248.025 98.625C247.275 99.9583 246.2 101.008 244.8 101.775C243.417 102.525 241.808 102.9 239.975 102.9H233V85.275H239.975ZM239.6 98.575C241.033 98.575 242.158 98.1833 242.975 97.4C243.792 96.6167 244.2 95.5083 244.2 94.075C244.2 92.625 243.792 91.5083 242.975 90.725C242.158 89.925 241.033 89.525 239.6 89.525H237.9V98.575H239.6Z" fill="white"/>
<path d="M256.284 89.2V92.075H261.909V95.8H256.284V98.975H262.659V102.9H251.384V85.275H262.659V89.2H256.284Z" fill="white"/>
<path d="M271.73 103.075C269.68 103.075 267.997 102.592 266.68 101.625C265.363 100.642 264.655 99.2417 264.555 97.425H269.78C269.83 98.0417 270.013 98.4917 270.33 98.775C270.647 99.0583 271.055 99.2 271.555 99.2C272.005 99.2 272.372 99.0917 272.655 98.875C272.955 98.6417 273.105 98.325 273.105 97.925C273.105 97.4083 272.863 97.0083 272.38 96.725C271.897 96.4417 271.113 96.125 270.03 95.775C268.88 95.3917 267.947 95.025 267.23 94.675C266.53 94.3083 265.913 93.7833 265.38 93.1C264.863 92.4 264.605 91.4917 264.605 90.375C264.605 89.2417 264.888 88.275 265.455 87.475C266.022 86.6583 266.805 86.0417 267.805 85.625C268.805 85.2083 269.938 85 271.205 85C273.255 85 274.888 85.4833 276.105 86.45C277.338 87.4 277.997 88.7417 278.08 90.475H272.755C272.738 89.9417 272.572 89.5417 272.255 89.275C271.955 89.0083 271.563 88.875 271.08 88.875C270.713 88.875 270.413 88.9833 270.18 89.2C269.947 89.4167 269.83 89.725 269.83 90.125C269.83 90.4583 269.955 90.75 270.205 91C270.472 91.2333 270.797 91.4417 271.18 91.625C271.563 91.7917 272.13 92.0083 272.88 92.275C273.997 92.6583 274.913 93.0417 275.63 93.425C276.363 93.7917 276.988 94.3167 277.505 95C278.038 95.6667 278.305 96.5167 278.305 97.55C278.305 98.6 278.038 99.5417 277.505 100.375C276.988 101.208 276.23 101.867 275.23 102.35C274.247 102.833 273.08 103.075 271.73 103.075Z" fill="white"/>
<path d="M285.483 85.275V102.9H280.583V85.275H285.483Z" fill="white"/>
<path d="M299.523 91.075C299.24 90.6083 298.848 90.25 298.348 90C297.865 89.75 297.29 89.625 296.623 89.625C295.39 89.625 294.415 90.025 293.698 90.825C292.998 91.625 292.648 92.7 292.648 94.05C292.648 95.5667 293.023 96.725 293.773 97.525C294.54 98.3083 295.648 98.7 297.098 98.7C298.815 98.7 300.04 97.925 300.773 96.375H295.848V92.85H304.998V97.6C304.615 98.5333 304.048 99.4083 303.298 100.225C302.565 101.042 301.632 101.717 300.498 102.25C299.365 102.767 298.073 103.025 296.623 103.025C294.857 103.025 293.29 102.65 291.923 101.9C290.573 101.133 289.523 100.075 288.773 98.725C288.04 97.3583 287.673 95.8 287.673 94.05C287.673 92.3167 288.04 90.775 288.773 89.425C289.523 88.0583 290.573 87 291.923 86.25C293.273 85.4833 294.832 85.1 296.598 85.1C298.815 85.1 300.648 85.6333 302.098 86.7C303.548 87.7667 304.448 89.225 304.798 91.075H299.523Z" fill="white"/>
<path d="M323.519 102.9H318.619L312.094 93.05V102.9H307.194V85.275H312.094L318.619 95.25V85.275H323.519V102.9Z" fill="white"/>
<path d="M331.211 85.275V102.9H326.311V85.275H331.211Z" fill="white"/>
<path d="M350.326 102.9H345.426L338.901 93.05V102.9H334.001V85.275H338.901L345.426 95.25V85.275H350.326V102.9Z" fill="white"/>
<path d="M364.367 91.075C364.084 90.6083 363.692 90.25 363.192 90C362.709 89.75 362.134 89.625 361.467 89.625C360.234 89.625 359.259 90.025 358.542 90.825C357.842 91.625 357.492 92.7 357.492 94.05C357.492 95.5667 357.867 96.725 358.617 97.525C359.384 98.3083 360.492 98.7 361.942 98.7C363.659 98.7 364.884 97.925 365.617 96.375H360.692V92.85H369.842V97.6C369.459 98.5333 368.892 99.4083 368.142 100.225C367.409 101.042 366.476 101.717 365.342 102.25C364.209 102.767 362.917 103.025 361.467 103.025C359.701 103.025 358.134 102.65 356.767 101.9C355.417 101.133 354.367 100.075 353.617 98.725C352.884 97.3583 352.517 95.8 352.517 94.05C352.517 92.3167 352.884 90.775 353.617 89.425C354.367 88.0583 355.417 87 356.767 86.25C358.117 85.4833 359.676 85.1 361.442 85.1C363.659 85.1 365.492 85.6333 366.942 86.7C368.392 87.7667 369.292 89.225 369.642 91.075H364.367Z" fill="white"/>
<path d="M238.95 123.475C240.85 123.475 242.492 123.833 243.875 124.55C245.275 125.25 246.342 126.258 247.075 127.575C247.825 128.892 248.2 130.442 248.2 132.225C248.2 134.008 247.825 135.558 247.075 136.875C246.342 138.175 245.275 139.175 243.875 139.875C242.492 140.558 240.85 140.9 238.95 140.9H233.525V123.475H238.95ZM238.95 139.025C241.2 139.025 242.917 138.433 244.1 137.25C245.283 136.05 245.875 134.375 245.875 132.225C245.875 130.058 245.275 128.367 244.075 127.15C242.892 125.933 241.183 125.325 238.95 125.325H235.8V139.025H238.95Z" fill="white"/>
<path d="M263.701 133.525C263.701 133.958 263.676 134.417 263.626 134.9H252.676C252.759 136.25 253.217 137.308 254.051 138.075C254.901 138.825 255.926 139.2 257.126 139.2C258.109 139.2 258.926 138.975 259.576 138.525C260.242 138.058 260.709 137.442 260.976 136.675H263.426C263.059 137.992 262.326 139.067 261.226 139.9C260.126 140.717 258.759 141.125 257.126 141.125C255.826 141.125 254.659 140.833 253.626 140.25C252.609 139.667 251.809 138.842 251.226 137.775C250.642 136.692 250.351 135.442 250.351 134.025C250.351 132.608 250.634 131.367 251.201 130.3C251.767 129.233 252.559 128.417 253.576 127.85C254.609 127.267 255.792 126.975 257.126 126.975C258.426 126.975 259.576 127.258 260.576 127.825C261.576 128.392 262.342 129.175 262.876 130.175C263.426 131.158 263.701 132.275 263.701 133.525ZM261.351 133.05C261.351 132.183 261.159 131.442 260.776 130.825C260.392 130.192 259.867 129.717 259.201 129.4C258.551 129.067 257.826 128.9 257.026 128.9C255.876 128.9 254.892 129.267 254.076 130C253.276 130.733 252.817 131.75 252.701 133.05H261.351Z" fill="white"/>
<path d="M271.554 141.125C270.504 141.125 269.562 140.95 268.729 140.6C267.895 140.233 267.237 139.733 266.754 139.1C266.27 138.45 266.004 137.708 265.954 136.875H268.304C268.37 137.558 268.687 138.117 269.254 138.55C269.837 138.983 270.595 139.2 271.529 139.2C272.395 139.2 273.079 139.008 273.579 138.625C274.079 138.242 274.329 137.758 274.329 137.175C274.329 136.575 274.062 136.133 273.529 135.85C272.995 135.55 272.17 135.258 271.054 134.975C270.037 134.708 269.204 134.442 268.554 134.175C267.92 133.892 267.37 133.483 266.904 132.95C266.454 132.4 266.229 131.683 266.229 130.8C266.229 130.1 266.437 129.458 266.854 128.875C267.27 128.292 267.862 127.833 268.629 127.5C269.395 127.15 270.27 126.975 271.254 126.975C272.77 126.975 273.995 127.358 274.929 128.125C275.862 128.892 276.362 129.942 276.429 131.275H274.154C274.104 130.558 273.812 129.983 273.279 129.55C272.762 129.117 272.062 128.9 271.179 128.9C270.362 128.9 269.712 129.075 269.229 129.425C268.745 129.775 268.504 130.233 268.504 130.8C268.504 131.25 268.645 131.625 268.929 131.925C269.229 132.208 269.595 132.442 270.029 132.625C270.479 132.792 271.095 132.983 271.879 133.2C272.862 133.467 273.662 133.733 274.279 134C274.895 134.25 275.42 134.633 275.854 135.15C276.304 135.667 276.537 136.342 276.554 137.175C276.554 137.925 276.345 138.6 275.929 139.2C275.512 139.8 274.92 140.275 274.154 140.625C273.404 140.958 272.537 141.125 271.554 141.125Z" fill="white"/>
<path d="M280.94 124.975C280.507 124.975 280.14 124.825 279.84 124.525C279.54 124.225 279.39 123.858 279.39 123.425C279.39 122.992 279.54 122.625 279.84 122.325C280.14 122.025 280.507 121.875 280.94 121.875C281.357 121.875 281.707 122.025 281.99 122.325C282.29 122.625 282.44 122.992 282.44 123.425C282.44 123.858 282.29 124.225 281.99 124.525C281.707 124.825 281.357 124.975 280.94 124.975ZM282.04 127.2V140.9H279.765V127.2H282.04Z" fill="white"/>
<path d="M291.568 126.975C292.751 126.975 293.784 127.233 294.668 127.75C295.568 128.267 296.234 128.917 296.668 129.7V127.2H298.968V141.2C298.968 142.45 298.701 143.558 298.168 144.525C297.634 145.508 296.868 146.275 295.868 146.825C294.884 147.375 293.734 147.65 292.418 147.65C290.618 147.65 289.118 147.225 287.918 146.375C286.718 145.525 286.009 144.367 285.793 142.9H288.043C288.293 143.733 288.809 144.4 289.593 144.9C290.376 145.417 291.318 145.675 292.418 145.675C293.668 145.675 294.684 145.283 295.468 144.5C296.268 143.717 296.668 142.617 296.668 141.2V138.325C296.218 139.125 295.551 139.792 294.668 140.325C293.784 140.858 292.751 141.125 291.568 141.125C290.351 141.125 289.243 140.825 288.243 140.225C287.259 139.625 286.484 138.783 285.918 137.7C285.351 136.617 285.068 135.383 285.068 134C285.068 132.6 285.351 131.375 285.918 130.325C286.484 129.258 287.259 128.433 288.243 127.85C289.243 127.267 290.351 126.975 291.568 126.975ZM296.668 134.025C296.668 132.992 296.459 132.092 296.043 131.325C295.626 130.558 295.059 129.975 294.343 129.575C293.643 129.158 292.868 128.95 292.018 128.95C291.168 128.95 290.393 129.15 289.693 129.55C288.993 129.95 288.434 130.533 288.018 131.3C287.601 132.067 287.393 132.967 287.393 134C287.393 135.05 287.601 135.967 288.018 136.75C288.434 137.517 288.993 138.108 289.693 138.525C290.393 138.925 291.168 139.125 292.018 139.125C292.868 139.125 293.643 138.925 294.343 138.525C295.059 138.108 295.626 137.517 296.043 136.75C296.459 135.967 296.668 135.058 296.668 134.025Z" fill="white"/>
<path d="M309.487 126.95C311.154 126.95 312.504 127.458 313.537 128.475C314.57 129.475 315.087 130.925 315.087 132.825V140.9H312.837V133.15C312.837 131.783 312.495 130.742 311.812 130.025C311.129 129.292 310.195 128.925 309.012 128.925C307.812 128.925 306.854 129.3 306.137 130.05C305.437 130.8 305.087 131.892 305.087 133.325V140.9H302.812V127.2H305.087V129.15C305.537 128.45 306.145 127.908 306.912 127.525C307.695 127.142 308.554 126.95 309.487 126.95Z" fill="white"/>
<path d="M319.978 124.975C319.545 124.975 319.178 124.825 318.878 124.525C318.578 124.225 318.428 123.858 318.428 123.425C318.428 122.992 318.578 122.625 318.878 122.325C319.178 122.025 319.545 121.875 319.978 121.875C320.395 121.875 320.745 122.025 321.028 122.325C321.328 122.625 321.478 122.992 321.478 123.425C321.478 123.858 321.328 124.225 321.028 124.525C320.745 124.825 320.395 124.975 319.978 124.975ZM321.078 127.2V140.9H318.803V127.2H321.078Z" fill="white"/>
<path d="M331.631 126.95C333.297 126.95 334.647 127.458 335.681 128.475C336.714 129.475 337.231 130.925 337.231 132.825V140.9H334.981V133.15C334.981 131.783 334.639 130.742 333.956 130.025C333.272 129.292 332.339 128.925 331.156 128.925C329.956 128.925 328.997 129.3 328.281 130.05C327.581 130.8 327.231 131.892 327.231 133.325V140.9H324.956V127.2H327.231V129.15C327.681 128.45 328.289 127.908 329.056 127.525C329.839 127.142 330.697 126.95 331.631 126.95Z" fill="white"/>
<path d="M346.597 126.975C347.78 126.975 348.814 127.233 349.697 127.75C350.597 128.267 351.264 128.917 351.697 129.7V127.2H353.997V141.2C353.997 142.45 353.73 143.558 353.197 144.525C352.664 145.508 351.897 146.275 350.897 146.825C349.914 147.375 348.764 147.65 347.447 147.65C345.647 147.65 344.147 147.225 342.947 146.375C341.747 145.525 341.039 144.367 340.822 142.9H343.072C343.322 143.733 343.839 144.4 344.622 144.9C345.405 145.417 346.347 145.675 347.447 145.675C348.697 145.675 349.714 145.283 350.497 144.5C351.297 143.717 351.697 142.617 351.697 141.2V138.325C351.247 139.125 350.58 139.792 349.697 140.325C348.814 140.858 347.78 141.125 346.597 141.125C345.38 141.125 344.272 140.825 343.272 140.225C342.289 139.625 341.514 138.783 340.947 137.7C340.38 136.617 340.097 135.383 340.097 134C340.097 132.6 340.38 131.375 340.947 130.325C341.514 129.258 342.289 128.433 343.272 127.85C344.272 127.267 345.38 126.975 346.597 126.975ZM351.697 134.025C351.697 132.992 351.489 132.092 351.072 131.325C350.655 130.558 350.089 129.975 349.372 129.575C348.672 129.158 347.897 128.95 347.047 128.95C346.197 128.95 345.422 129.15 344.722 129.55C344.022 129.95 343.464 130.533 343.047 131.3C342.63 132.067 342.422 132.967 342.422 134C342.422 135.05 342.63 135.967 343.047 136.75C343.464 137.517 344.022 138.108 344.722 138.525C345.422 138.925 346.197 139.125 347.047 139.125C347.897 139.125 348.672 138.925 349.372 138.525C350.089 138.108 350.655 137.517 351.072 136.75C351.489 135.967 351.697 135.058 351.697 134.025Z" fill="white"/>
<path d="M363.656 134C363.656 132.6 363.94 131.375 364.506 130.325C365.073 129.258 365.848 128.433 366.831 127.85C367.831 127.267 368.94 126.975 370.156 126.975C371.356 126.975 372.398 127.233 373.281 127.75C374.165 128.267 374.823 128.917 375.256 129.7V127.2H377.556V140.9H375.256V138.35C374.806 139.15 374.131 139.817 373.231 140.35C372.348 140.867 371.315 141.125 370.131 141.125C368.915 141.125 367.815 140.825 366.831 140.225C365.848 139.625 365.073 138.783 364.506 137.7C363.94 136.617 363.656 135.383 363.656 134ZM375.256 134.025C375.256 132.992 375.048 132.092 374.631 131.325C374.215 130.558 373.648 129.975 372.931 129.575C372.231 129.158 371.456 128.95 370.606 128.95C369.756 128.95 368.981 129.15 368.281 129.55C367.581 129.95 367.023 130.533 366.606 131.3C366.19 132.067 365.981 132.967 365.981 134C365.981 135.05 366.19 135.967 366.606 136.75C367.023 137.517 367.581 138.108 368.281 138.525C368.981 138.925 369.756 139.125 370.606 139.125C371.456 139.125 372.231 138.925 372.931 138.525C373.648 138.108 374.215 137.517 374.631 136.75C375.048 135.967 375.256 135.058 375.256 134.025Z" fill="white"/>
<path d="M390.341 129.425C390.741 128.642 391.308 128.033 392.041 127.6C392.791 127.167 393.699 126.95 394.766 126.95V129.3H394.166C391.616 129.3 390.341 130.683 390.341 133.45V140.9H388.066V127.2H390.341V129.425Z" fill="white"/>
<path d="M409.892 133.525C409.892 133.958 409.867 134.417 409.817 134.9H398.867C398.951 136.25 399.409 137.308 400.242 138.075C401.092 138.825 402.117 139.2 403.317 139.2C404.301 139.2 405.117 138.975 405.767 138.525C406.434 138.058 406.901 137.442 407.167 136.675H409.617C409.251 137.992 408.517 139.067 407.417 139.9C406.317 140.717 404.951 141.125 403.317 141.125C402.017 141.125 400.851 140.833 399.817 140.25C398.801 139.667 398.001 138.842 397.417 137.775C396.834 136.692 396.542 135.442 396.542 134.025C396.542 132.608 396.826 131.367 397.392 130.3C397.959 129.233 398.751 128.417 399.767 127.85C400.801 127.267 401.984 126.975 403.317 126.975C404.617 126.975 405.767 127.258 406.767 127.825C407.767 128.392 408.534 129.175 409.067 130.175C409.617 131.158 409.892 132.275 409.892 133.525ZM407.542 133.05C407.542 132.183 407.351 131.442 406.967 130.825C406.584 130.192 406.059 129.717 405.392 129.4C404.742 129.067 404.017 128.9 403.217 128.9C402.067 128.9 401.084 129.267 400.267 130C399.467 130.733 399.009 131.75 398.892 133.05H407.542Z" fill="white"/>
<path d="M412.045 134C412.045 132.6 412.328 131.375 412.895 130.325C413.462 129.258 414.237 128.433 415.22 127.85C416.22 127.267 417.337 126.975 418.57 126.975C419.753 126.975 420.787 127.242 421.67 127.775C422.57 128.292 423.228 128.933 423.645 129.7V127.2H425.945V147.4H423.645V138.375C423.212 139.142 422.545 139.792 421.645 140.325C420.745 140.858 419.695 141.125 418.495 141.125C417.295 141.125 416.203 140.825 415.22 140.225C414.237 139.625 413.462 138.783 412.895 137.7C412.328 136.617 412.045 135.383 412.045 134ZM423.645 134.025C423.645 132.992 423.437 132.092 423.02 131.325C422.603 130.558 422.037 129.975 421.32 129.575C420.62 129.158 419.845 128.95 418.995 128.95C418.145 128.95 417.37 129.15 416.67 129.55C415.97 129.95 415.412 130.533 414.995 131.3C414.578 132.067 414.37 132.967 414.37 134C414.37 135.05 414.578 135.967 414.995 136.75C415.412 137.517 415.97 138.108 416.67 138.525C417.37 138.925 418.145 139.125 418.995 139.125C419.845 139.125 420.62 138.925 421.32 138.525C422.037 138.108 422.603 137.517 423.02 136.75C423.437 135.967 423.645 135.058 423.645 134.025Z" fill="white"/>
<path d="M441.94 127.2V140.9H439.665V138.875C439.231 139.575 438.623 140.125 437.84 140.525C437.073 140.908 436.223 141.1 435.29 141.1C434.223 141.1 433.265 140.883 432.415 140.45C431.565 140 430.89 139.333 430.39 138.45C429.906 137.567 429.665 136.492 429.665 135.225V127.2H431.915V134.925C431.915 136.275 432.256 137.317 432.94 138.05C433.623 138.767 434.556 139.125 435.74 139.125C436.956 139.125 437.915 138.75 438.615 138C439.315 137.25 439.665 136.158 439.665 134.725V127.2H441.94Z" fill="white"/>
<path d="M458.281 133.525C458.281 133.958 458.256 134.417 458.206 134.9H447.256C447.339 136.25 447.798 137.308 448.631 138.075C449.481 138.825 450.506 139.2 451.706 139.2C452.689 139.2 453.506 138.975 454.156 138.525C454.823 138.058 455.289 137.442 455.556 136.675H458.006C457.639 137.992 456.906 139.067 455.806 139.9C454.706 140.717 453.339 141.125 451.706 141.125C450.406 141.125 449.239 140.833 448.206 140.25C447.189 139.667 446.389 138.842 445.806 137.775C445.223 136.692 444.931 135.442 444.931 134.025C444.931 132.608 445.214 131.367 445.781 130.3C446.348 129.233 447.139 128.417 448.156 127.85C449.189 127.267 450.373 126.975 451.706 126.975C453.006 126.975 454.156 127.258 455.156 127.825C456.156 128.392 456.923 129.175 457.456 130.175C458.006 131.158 458.281 132.275 458.281 133.525ZM455.931 133.05C455.931 132.183 455.739 131.442 455.356 130.825C454.973 130.192 454.448 129.717 453.781 129.4C453.131 129.067 452.406 128.9 451.606 128.9C450.456 128.9 449.473 129.267 448.656 130C447.856 130.733 447.398 131.75 447.281 133.05H455.931Z" fill="white"/>
<path d="M466.134 141.125C465.084 141.125 464.142 140.95 463.309 140.6C462.475 140.233 461.817 139.733 461.334 139.1C460.85 138.45 460.584 137.708 460.534 136.875H462.884C462.95 137.558 463.267 138.117 463.834 138.55C464.417 138.983 465.175 139.2 466.109 139.2C466.975 139.2 467.659 139.008 468.159 138.625C468.659 138.242 468.909 137.758 468.909 137.175C468.909 136.575 468.642 136.133 468.109 135.85C467.575 135.55 466.75 135.258 465.634 134.975C464.617 134.708 463.784 134.442 463.134 134.175C462.5 133.892 461.95 133.483 461.484 132.95C461.034 132.4 460.809 131.683 460.809 130.8C460.809 130.1 461.017 129.458 461.434 128.875C461.85 128.292 462.442 127.833 463.209 127.5C463.975 127.15 464.85 126.975 465.834 126.975C467.35 126.975 468.575 127.358 469.509 128.125C470.442 128.892 470.942 129.942 471.009 131.275H468.734C468.684 130.558 468.392 129.983 467.859 129.55C467.342 129.117 466.642 128.9 465.759 128.9C464.942 128.9 464.292 129.075 463.809 129.425C463.325 129.775 463.084 130.233 463.084 130.8C463.084 131.25 463.225 131.625 463.509 131.925C463.809 132.208 464.175 132.442 464.609 132.625C465.059 132.792 465.675 132.983 466.459 133.2C467.442 133.467 468.242 133.733 468.859 134C469.475 134.25 470 134.633 470.434 135.15C470.884 135.667 471.117 136.342 471.134 137.175C471.134 137.925 470.925 138.6 470.509 139.2C470.092 139.8 469.5 140.275 468.734 140.625C467.984 140.958 467.117 141.125 466.134 141.125Z" fill="white"/>
<path d="M477.12 129.075V137.15C477.12 137.817 477.262 138.292 477.545 138.575C477.829 138.842 478.32 138.975 479.02 138.975H480.695V140.9H478.645C477.379 140.9 476.429 140.608 475.795 140.025C475.162 139.442 474.845 138.483 474.845 137.15V129.075H473.07V127.2H474.845V123.75H477.12V127.2H480.695V129.075H477.12Z" fill="white"/>
<path d="M250 164.95C251.067 164.95 252.017 165.175 252.85 165.625C253.683 166.058 254.342 166.717 254.825 167.6C255.308 168.483 255.55 169.558 255.55 170.825V178.9H253.3V171.15C253.3 169.783 252.958 168.742 252.275 168.025C251.608 167.292 250.7 166.925 249.55 166.925C248.367 166.925 247.425 167.308 246.725 168.075C246.025 168.825 245.675 169.917 245.675 171.35V178.9H243.425V171.15C243.425 169.783 243.083 168.742 242.4 168.025C241.733 167.292 240.825 166.925 239.675 166.925C238.492 166.925 237.55 167.308 236.85 168.075C236.15 168.825 235.8 169.917 235.8 171.35V178.9H233.525V165.2H235.8V167.175C236.25 166.458 236.85 165.908 237.6 165.525C238.367 165.142 239.208 164.95 240.125 164.95C241.275 164.95 242.292 165.208 243.175 165.725C244.058 166.242 244.717 167 245.15 168C245.533 167.033 246.167 166.283 247.05 165.75C247.933 165.217 248.917 164.95 250 164.95Z" fill="white"/>
<path d="M258.432 172C258.432 170.6 258.715 169.375 259.282 168.325C259.849 167.258 260.624 166.433 261.607 165.85C262.607 165.267 263.715 164.975 264.932 164.975C266.132 164.975 267.174 165.233 268.057 165.75C268.94 166.267 269.599 166.917 270.032 167.7V165.2H272.332V178.9H270.032V176.35C269.582 177.15 268.907 177.817 268.007 178.35C267.124 178.867 266.09 179.125 264.907 179.125C263.69 179.125 262.59 178.825 261.607 178.225C260.624 177.625 259.849 176.783 259.282 175.7C258.715 174.617 258.432 173.383 258.432 172ZM270.032 172.025C270.032 170.992 269.824 170.092 269.407 169.325C268.99 168.558 268.424 167.975 267.707 167.575C267.007 167.158 266.232 166.95 265.382 166.95C264.532 166.95 263.757 167.15 263.057 167.55C262.357 167.95 261.799 168.533 261.382 169.3C260.965 170.067 260.757 170.967 260.757 172C260.757 173.05 260.965 173.967 261.382 174.75C261.799 175.517 262.357 176.108 263.057 176.525C263.757 176.925 264.532 177.125 265.382 177.125C266.232 177.125 267.007 176.925 267.707 176.525C268.424 176.108 268.99 175.517 269.407 174.75C269.824 173.967 270.032 173.058 270.032 172.025Z" fill="white"/>
<path d="M282.851 164.95C284.518 164.95 285.868 165.458 286.901 166.475C287.935 167.475 288.451 168.925 288.451 170.825V178.9H286.201V171.15C286.201 169.783 285.86 168.742 285.176 168.025C284.493 167.292 283.56 166.925 282.376 166.925C281.176 166.925 280.218 167.3 279.501 168.05C278.801 168.8 278.451 169.892 278.451 171.325V178.9H276.176V165.2H278.451V167.15C278.901 166.45 279.51 165.908 280.276 165.525C281.06 165.142 281.918 164.95 282.851 164.95Z" fill="white"/>
<path d="M291.318 172C291.318 170.6 291.601 169.375 292.168 168.325C292.734 167.258 293.509 166.433 294.493 165.85C295.493 165.267 296.601 164.975 297.818 164.975C299.018 164.975 300.059 165.233 300.943 165.75C301.826 166.267 302.484 166.917 302.918 167.7V165.2H305.218V178.9H302.918V176.35C302.468 177.15 301.793 177.817 300.893 178.35C300.009 178.867 298.976 179.125 297.793 179.125C296.576 179.125 295.476 178.825 294.493 178.225C293.509 177.625 292.734 176.783 292.168 175.7C291.601 174.617 291.318 173.383 291.318 172ZM302.918 172.025C302.918 170.992 302.709 170.092 302.293 169.325C301.876 168.558 301.309 167.975 300.593 167.575C299.893 167.158 299.118 166.95 298.268 166.95C297.418 166.95 296.643 167.15 295.943 167.55C295.243 167.95 294.684 168.533 294.268 169.3C293.851 170.067 293.643 170.967 293.643 172C293.643 173.05 293.851 173.967 294.268 174.75C294.684 175.517 295.243 176.108 295.943 176.525C296.643 176.925 297.418 177.125 298.268 177.125C299.118 177.125 299.893 176.925 300.593 176.525C301.309 176.108 301.876 175.517 302.293 174.75C302.709 173.967 302.918 173.058 302.918 172.025Z" fill="white"/>
<path d="M314.712 164.975C315.895 164.975 316.929 165.233 317.812 165.75C318.712 166.267 319.379 166.917 319.812 167.7V165.2H322.112V179.2C322.112 180.45 321.845 181.558 321.312 182.525C320.779 183.508 320.012 184.275 319.012 184.825C318.029 185.375 316.879 185.65 315.562 185.65C313.762 185.65 312.262 185.225 311.062 184.375C309.862 183.525 309.154 182.367 308.937 180.9H311.187C311.437 181.733 311.954 182.4 312.737 182.9C313.52 183.417 314.462 183.675 315.562 183.675C316.812 183.675 317.829 183.283 318.612 182.5C319.412 181.717 319.812 180.617 319.812 179.2V176.325C319.362 177.125 318.695 177.792 317.812 178.325C316.929 178.858 315.895 179.125 314.712 179.125C313.495 179.125 312.387 178.825 311.387 178.225C310.404 177.625 309.629 176.783 309.062 175.7C308.495 174.617 308.212 173.383 308.212 172C308.212 170.6 308.495 169.375 309.062 168.325C309.629 167.258 310.404 166.433 311.387 165.85C312.387 165.267 313.495 164.975 314.712 164.975ZM319.812 172.025C319.812 170.992 319.604 170.092 319.187 169.325C318.77 168.558 318.204 167.975 317.487 167.575C316.787 167.158 316.012 166.95 315.162 166.95C314.312 166.95 313.537 167.15 312.837 167.55C312.137 167.95 311.579 168.533 311.162 169.3C310.745 170.067 310.537 170.967 310.537 172C310.537 173.05 310.745 173.967 311.162 174.75C311.579 175.517 312.137 176.108 312.837 176.525C313.537 176.925 314.312 177.125 315.162 177.125C316.012 177.125 316.787 176.925 317.487 176.525C318.204 176.108 318.77 175.517 319.187 174.75C319.604 173.967 319.812 173.058 319.812 172.025Z" fill="white"/>
<path d="M338.457 171.525C338.457 171.958 338.432 172.417 338.382 172.9H327.432C327.515 174.25 327.973 175.308 328.807 176.075C329.657 176.825 330.682 177.2 331.882 177.2C332.865 177.2 333.682 176.975 334.332 176.525C334.998 176.058 335.465 175.442 335.732 174.675H338.182C337.815 175.992 337.082 177.067 335.982 177.9C334.882 178.717 333.515 179.125 331.882 179.125C330.582 179.125 329.415 178.833 328.382 178.25C327.365 177.667 326.565 176.842 325.982 175.775C325.398 174.692 325.107 173.442 325.107 172.025C325.107 170.608 325.39 169.367 325.957 168.3C326.523 167.233 327.315 166.417 328.332 165.85C329.365 165.267 330.548 164.975 331.882 164.975C333.182 164.975 334.332 165.258 335.332 165.825C336.332 166.392 337.098 167.175 337.632 168.175C338.182 169.158 338.457 170.275 338.457 171.525ZM336.107 171.05C336.107 170.183 335.915 169.442 335.532 168.825C335.148 168.192 334.623 167.717 333.957 167.4C333.307 167.067 332.582 166.9 331.782 166.9C330.632 166.9 329.648 167.267 328.832 168C328.032 168.733 327.573 169.75 327.457 171.05H336.107Z" fill="white"/>
<path d="M357.935 164.95C359.001 164.95 359.951 165.175 360.785 165.625C361.618 166.058 362.276 166.717 362.76 167.6C363.243 168.483 363.485 169.558 363.485 170.825V178.9H361.235V171.15C361.235 169.783 360.893 168.742 360.21 168.025C359.543 167.292 358.635 166.925 357.485 166.925C356.301 166.925 355.36 167.308 354.66 168.075C353.96 168.825 353.61 169.917 353.61 171.35V178.9H351.36V171.15C351.36 169.783 351.018 168.742 350.335 168.025C349.668 167.292 348.76 166.925 347.61 166.925C346.426 166.925 345.485 167.308 344.785 168.075C344.085 168.825 343.735 169.917 343.735 171.35V178.9H341.46V165.2H343.735V167.175C344.185 166.458 344.785 165.908 345.535 165.525C346.301 165.142 347.143 164.95 348.06 164.95C349.21 164.95 350.226 165.208 351.11 165.725C351.993 166.242 352.651 167 353.085 168C353.468 167.033 354.101 166.283 354.985 165.75C355.868 165.217 356.851 164.95 357.935 164.95Z" fill="white"/>
<path d="M379.716 171.525C379.716 171.958 379.691 172.417 379.641 172.9H368.691C368.775 174.25 369.233 175.308 370.066 176.075C370.916 176.825 371.941 177.2 373.141 177.2C374.125 177.2 374.941 176.975 375.591 176.525C376.258 176.058 376.725 175.442 376.991 174.675H379.441C379.075 175.992 378.341 177.067 377.241 177.9C376.141 178.717 374.775 179.125 373.141 179.125C371.841 179.125 370.675 178.833 369.641 178.25C368.625 177.667 367.825 176.842 367.241 175.775C366.658 174.692 366.366 173.442 366.366 172.025C366.366 170.608 366.65 169.367 367.216 168.3C367.783 167.233 368.575 166.417 369.591 165.85C370.625 165.267 371.808 164.975 373.141 164.975C374.441 164.975 375.591 165.258 376.591 165.825C377.591 166.392 378.358 167.175 378.891 168.175C379.441 169.158 379.716 170.275 379.716 171.525ZM377.366 171.05C377.366 170.183 377.175 169.442 376.791 168.825C376.408 168.192 375.883 167.717 375.216 167.4C374.566 167.067 373.841 166.9 373.041 166.9C371.891 166.9 370.908 167.267 370.091 168C369.291 168.733 368.833 169.75 368.716 171.05H377.366Z" fill="white"/>
<path d="M389.394 164.95C391.061 164.95 392.411 165.458 393.444 166.475C394.478 167.475 394.994 168.925 394.994 170.825V178.9H392.744V171.15C392.744 169.783 392.403 168.742 391.719 168.025C391.036 167.292 390.103 166.925 388.919 166.925C387.719 166.925 386.761 167.3 386.044 168.05C385.344 168.8 384.994 169.892 384.994 171.325V178.9H382.719V165.2H384.994V167.15C385.444 166.45 386.053 165.908 386.819 165.525C387.603 165.142 388.461 164.95 389.394 164.95Z" fill="white"/>
<path d="M401.486 167.075V175.15C401.486 175.817 401.627 176.292 401.911 176.575C402.194 176.842 402.686 176.975 403.386 176.975H405.061V178.9H403.011C401.744 178.9 400.794 178.608 400.161 178.025C399.527 177.442 399.211 176.483 399.211 175.15V167.075H397.436V165.2H399.211V161.75H401.486V165.2H405.061V167.075H401.486Z" fill="white"/>
<path d="M419.332 179.125C418.282 179.125 417.34 178.95 416.507 178.6C415.674 178.233 415.015 177.733 414.532 177.1C414.049 176.45 413.782 175.708 413.732 174.875H416.082C416.149 175.558 416.465 176.117 417.032 176.55C417.615 176.983 418.374 177.2 419.307 177.2C420.174 177.2 420.857 177.008 421.357 176.625C421.857 176.242 422.107 175.758 422.107 175.175C422.107 174.575 421.84 174.133 421.307 173.85C420.774 173.55 419.949 173.258 418.832 172.975C417.815 172.708 416.982 172.442 416.332 172.175C415.699 171.892 415.149 171.483 414.682 170.95C414.232 170.4 414.007 169.683 414.007 168.8C414.007 168.1 414.215 167.458 414.632 166.875C415.049 166.292 415.64 165.833 416.407 165.5C417.174 165.15 418.049 164.975 419.032 164.975C420.549 164.975 421.774 165.358 422.707 166.125C423.64 166.892 424.14 167.942 424.207 169.275H421.932C421.882 168.558 421.59 167.983 421.057 167.55C420.54 167.117 419.84 166.9 418.957 166.9C418.14 166.9 417.49 167.075 417.007 167.425C416.524 167.775 416.282 168.233 416.282 168.8C416.282 169.25 416.424 169.625 416.707 169.925C417.007 170.208 417.374 170.442 417.807 170.625C418.257 170.792 418.874 170.983 419.657 171.2C420.64 171.467 421.44 171.733 422.057 172C422.674 172.25 423.199 172.633 423.632 173.15C424.082 173.667 424.315 174.342 424.332 175.175C424.332 175.925 424.124 176.6 423.707 177.2C423.29 177.8 422.699 178.275 421.932 178.625C421.182 178.958 420.315 179.125 419.332 179.125Z" fill="white"/>
<path d="M439.344 165.2L431.094 185.35H428.744L431.444 178.75L425.919 165.2H428.444L432.744 176.3L436.994 165.2H439.344Z" fill="white"/>
<path d="M446.48 179.125C445.43 179.125 444.489 178.95 443.655 178.6C442.822 178.233 442.164 177.733 441.68 177.1C441.197 176.45 440.93 175.708 440.88 174.875H443.23C443.297 175.558 443.614 176.117 444.18 176.55C444.764 176.983 445.522 177.2 446.455 177.2C447.322 177.2 448.005 177.008 448.505 176.625C449.005 176.242 449.255 175.758 449.255 175.175C449.255 174.575 448.989 174.133 448.455 173.85C447.922 173.55 447.097 173.258 445.98 172.975C444.964 172.708 444.13 172.442 443.48 172.175C442.847 171.892 442.297 171.483 441.83 170.95C441.38 170.4 441.155 169.683 441.155 168.8C441.155 168.1 441.364 167.458 441.78 166.875C442.197 166.292 442.789 165.833 443.555 165.5C444.322 165.15 445.197 164.975 446.18 164.975C447.697 164.975 448.922 165.358 449.855 166.125C450.789 166.892 451.289 167.942 451.355 169.275H449.08C449.03 168.558 448.739 167.983 448.205 167.55C447.689 167.117 446.989 166.9 446.105 166.9C445.289 166.9 444.639 167.075 444.155 167.425C443.672 167.775 443.43 168.233 443.43 168.8C443.43 169.25 443.572 169.625 443.855 169.925C444.155 170.208 444.522 170.442 444.955 170.625C445.405 170.792 446.022 170.983 446.805 171.2C447.789 171.467 448.589 171.733 449.205 172C449.822 172.25 450.347 172.633 450.78 173.15C451.23 173.667 451.464 174.342 451.48 175.175C451.48 175.925 451.272 176.6 450.855 177.2C450.439 177.8 449.847 178.275 449.08 178.625C448.33 178.958 447.464 179.125 446.48 179.125Z" fill="white"/>
<path d="M457.467 167.075V175.15C457.467 175.817 457.609 176.292 457.892 176.575C458.175 176.842 458.667 176.975 459.367 176.975H461.042V178.9H458.992C457.725 178.9 456.775 178.608 456.142 178.025C455.509 177.442 455.192 176.483 455.192 175.15V167.075H453.417V165.2H455.192V161.75H457.467V165.2H461.042V167.075H457.467Z" fill="white"/>
<path d="M476.298 171.525C476.298 171.958 476.273 172.417 476.223 172.9H465.273C465.357 174.25 465.815 175.308 466.648 176.075C467.498 176.825 468.523 177.2 469.723 177.2C470.707 177.2 471.523 176.975 472.173 176.525C472.84 176.058 473.307 175.442 473.573 174.675H476.023C475.657 175.992 474.923 177.067 473.823 177.9C472.723 178.717 471.357 179.125 469.723 179.125C468.423 179.125 467.257 178.833 466.223 178.25C465.207 177.667 464.407 176.842 463.823 175.775C463.24 174.692 462.948 173.442 462.948 172.025C462.948 170.608 463.232 169.367 463.798 168.3C464.365 167.233 465.157 166.417 466.173 165.85C467.207 165.267 468.39 164.975 469.723 164.975C471.023 164.975 472.173 165.258 473.173 165.825C474.173 166.392 474.94 167.175 475.473 168.175C476.023 169.158 476.298 170.275 476.298 171.525ZM473.948 171.05C473.948 170.183 473.757 169.442 473.373 168.825C472.99 168.192 472.465 167.717 471.798 167.4C471.148 167.067 470.423 166.9 469.623 166.9C468.473 166.9 467.49 167.267 466.673 168C465.873 168.733 465.415 169.75 465.298 171.05H473.948Z" fill="white"/>
<path d="M495.776 164.95C496.843 164.95 497.793 165.175 498.626 165.625C499.46 166.058 500.118 166.717 500.601 167.6C501.085 168.483 501.326 169.558 501.326 170.825V178.9H499.076V171.15C499.076 169.783 498.735 168.742 498.051 168.025C497.385 167.292 496.476 166.925 495.326 166.925C494.143 166.925 493.201 167.308 492.501 168.075C491.801 168.825 491.451 169.917 491.451 171.35V178.9H489.201V171.15C489.201 169.783 488.86 168.742 488.176 168.025C487.51 167.292 486.601 166.925 485.451 166.925C484.268 166.925 483.326 167.308 482.626 168.075C481.926 168.825 481.576 169.917 481.576 171.35V178.9H479.301V165.2H481.576V167.175C482.026 166.458 482.626 165.908 483.376 165.525C484.143 165.142 484.985 164.95 485.901 164.95C487.051 164.95 488.068 165.208 488.951 165.725C489.835 166.242 490.493 167 490.926 168C491.31 167.033 491.943 166.283 492.826 165.75C493.71 165.217 494.693 164.95 495.776 164.95Z" fill="white"/>
<path d="M130.7 138.1C132.7 136.5 134.4 135.1 135.7 134C137 132.9 138.1 131.7 139 130.4C139.9 129.2 140.3 128 140.3 126.9C140.3 126.2 140.1 125.7 139.8 125.3C139.5 124.9 139.1 124.7 138.5 124.7C137.9 124.7 137.4 125 137.1 125.5C136.8 126 136.6 126.8 136.6 127.7H130.6C130.7 125.8 131.1 124.3 131.8 123.1C132.6 121.9 133.5 121 134.8 120.4C136 119.8 137.4 119.5 138.9 119.5C141.5 119.5 143.4 120.1 144.7 121.4C146 122.7 146.6 124.3 146.6 126.4C146.6 128.6 145.9 130.6 144.4 132.6C142.9 134.5 141.1 136.2 138.9 137.7H146.8V142.7H130.7V138.1Z" fill="white"/>
<path d="M139 186C168.823 186 193 161.823 193 132C193 102.177 168.823 78 139 78C109.177 78 85 102.177 85 132C85 161.823 109.177 186 139 186Z" stroke="white" stroke-width="2"/>
</svg>
