<?xml version="1.0" encoding="utf-8"?>
<!-- Generator: Adobe Illustrator 24.1.0, SVG Export Plug-In . SVG Version: 6.00 Build 0)  -->
<svg version="1.1" id="Layer_1" xmlns="http://www.w3.org/2000/svg" xmlns:xlink="http://www.w3.org/1999/xlink" x="0px" y="0px"
	 viewBox="0 0 379 255" style="enable-background:new 0 0 379 255;" xml:space="preserve">
<style type="text/css">
	.st0{fill:#F2F2F2;}
</style>
<path class="st0" d="M8,169.1c-5,0-8,4-8,8.3c0,5,3.7,8.6,8.1,8.6c3.3,0,5.3-2.4,5.3-2.4v1.8h5.2v-15.8h-5.2v2
	C13.4,171.7,11.6,169.1,8,169.1z M9.6,173.5c2.4,0,4,2.3,4,4.1c0,2.4-1.9,4-4,4c-2,0-4.1-1.4-4.1-4C5.4,175.5,7.2,173.5,9.6,173.5z"
	/>
<path class="st0" d="M22.3,185.5v-15.8h5.2v2.1c0,0,1.7-2.7,5.6-2.7c4.3,0,5.8,2.7,5.8,6.2v10.2h-5.2v-8.4c0-2.7-1-3.8-2.8-3.8
	c-2,0-3.4,1.7-3.4,4.4v7.8H22.3z"/>
<path class="st0" d="M42.4,185.5v-15.8h5.3v15.8H42.4z"/>
<path class="st0" d="M45.1,166.9c1.7,0,3.1-1.4,3.1-3.1c0-1.7-1.4-3.1-3.1-3.1c-1.7,0-3.1,1.4-3.1,3.1
	C42,165.5,43.4,166.9,45.1,166.9z"/>
<path class="st0" d="M68,178v7.5h-5.2v-8.4c0-2.7-1-3.8-2.8-3.8c-2,0-3.4,1.7-3.4,4.4v7.8h-5.2v-15.8h5.2v2.1c0,0,1.7-2.7,5.6-2.7
	c2.7,0,4.2,1,5.1,2.6c0,0,1.7-2.6,6.1-2.6c4.1,0,6.1,2.5,6.1,5.9v10.5h-5.2v-8.4c0-2.1-0.8-3.8-2.8-3.8C69.5,173.3,68,175,68,178z"
	/>
<path class="st0" d="M89.6,169.1c-5,0-8,4-8,8.3c0,5,3.7,8.6,8.1,8.6c3.3,0,5.3-2.4,5.3-2.4v1.8h5.2v-15.8H95v2
	C95,171.7,93.2,169.1,89.6,169.1z M91.1,173.5c2.4,0,4,2.3,4,4.1c0,2.4-1.9,4-4,4c-2,0-4.1-1.4-4.1-4
	C87,175.5,88.7,173.5,91.1,173.5L91.1,173.5z"/>
<path class="st0" d="M103.9,185.5v-22.1h5.3v22.1H103.9z"/>
<path class="st0" d="M156,169.1c-4.9,0-8,4-8,8.3c0,5,3.7,8.6,8.1,8.6c3.3,0,5.3-2.4,5.3-2.4v1.8h5.2v-15.8h-5.2v2
	C161.3,171.7,159.6,169.1,156,169.1L156,169.1z M157.5,173.5c2.4,0,4,2.3,4,4.1c0,2.4-1.9,4-4,4c-2,0-4.1-1.4-4.1-4
	C153.4,175.5,155.1,173.5,157.5,173.5z"/>
<path class="st0" d="M140.4,185.5v-22.1h5.3v22.1H140.4z"/>
<path class="st0" d="M130.3,169.1c5,0,8,4,8,8.3c0,5-3.7,8.6-8.1,8.6c-3.3,0-5.3-2.4-5.3-2.4v8.1h-5.2v-22.1h5.2v2
	C124.9,171.7,126.7,169.1,130.3,169.1L130.3,169.1z M128.8,173.5c-2.4,0-4,2.3-4,4.1c0,2.4,1.9,4,4,4c2,0,4.1-1.4,4.1-4
	C132.9,175.5,131.1,173.5,128.8,173.5L128.8,173.5z"/>
<path class="st0" d="M170.3,185.5v-15.8h5.2v2.1c0,0,1.7-2.7,5.6-2.7c4.3,0,5.8,2.7,5.8,6.2v10.2h-5.2v-8.4c0-2.7-1-3.8-2.8-3.8
	c-2,0-3.4,1.7-3.4,4.4v7.8H170.3z"/>
<path class="st0" d="M197.5,169.1c-5,0-8.5,3.2-8.5,8.5c0,5.2,3.6,8.5,9.5,8.5c2.9,0,5.8-1.3,5.8-1.3l-1.2-3.7c0,0-2,1-4.2,1
	c-2.8,0-4.1-1.6-4.4-3H206C206.1,173.6,203.9,169.1,197.5,169.1L197.5,169.1z M197.8,172.9c1.8,0,3.2,1.3,3.4,3h-6.8
	C194.6,174.1,196.3,172.9,197.8,172.9z"/>
<path class="st0" d="M214.8,165.9v3.8h3.6v4.1h-3.6v6.3c0,1.3,0.5,1.9,2.1,1.9c0.7,0,1.6-0.2,1.6-0.2l0.5,3.8c0,0-1.2,0.5-3.3,0.5
	c-4,0-6.1-2-6.1-5.6v-6.6h-2.4v-4.1h2.4v-3.8H214.8z"/>
<path class="st0" d="M122.5,64v25.1c0,0,3.9,3.2,5.8,5.7c-9.6-6.2-19.8-8.8-32.2-8.8c-20.4,0-39,9.4-48.1,24.9l1.2,2.2
	c0,0,4-4.8,13.2-9.4c-10.1,9.9-14.3,17.7-20.5,35.9l9.8,9.7c12.8-14.3,31.7-23.7,53.1-23.7c20.2,0,38.8,9,50.4,20.9l10.6-10.5
	c-5.9-10.1-13.6-19.4-19.7-25.8c6.3,3.6,16.4,5.6,26.1,5.6c16.9,0,29.3-9,29.3-21.3c0-15.2-13.1-24.4-34.4-27.9l-3.4,5.8
	c10.7,1.9,27.4,8.1,27.4,19.2c0,6.1-4.7,11.2-11.6,11.2c-8.4,0-15.4-9.3-19.7-17.6l-6.5-0.2C145.8,75.7,133.7,66.7,122.5,64
	L122.5,64z"/>
</svg>
