<svg width="540" height="255" viewBox="0 0 540 255" fill="none" xmlns="http://www.w3.org/2000/svg">
<path d="M169.027 169.106C164.076 169.106 161 173.078 161 177.451C161 182.488 164.668 186.05 169.112 186.05C172.386 186.05 174.415 183.682 174.415 183.682V185.486H179.615V169.698H174.415V171.653C174.415 171.653 172.648 169.106 169.027 169.106ZM170.558 173.467C172.91 173.467 174.567 175.785 174.567 177.536C174.567 179.933 172.687 181.568 170.558 181.568C168.532 181.568 166.436 180.205 166.436 177.564C166.436 175.473 168.171 173.467 170.558 173.467Z" fill="#F2F2F2"/>
<path d="M183.34 185.483V169.695H188.574V171.766C188.574 171.766 190.313 169.093 194.158 169.093C198.502 169.093 199.979 171.83 199.979 175.258V185.483H194.745V177.063C194.745 174.401 193.712 173.305 191.99 173.305C190.018 173.305 188.574 175 188.574 177.664V185.483H183.34Z" fill="#F2F2F2"/>
<path d="M203.398 185.483V169.695H208.693V185.483H203.398Z" fill="#F2F2F2"/>
<path d="M206.089 166.898C207.788 166.898 209.166 165.528 209.166 163.839C209.166 162.149 207.788 160.779 206.089 160.779C204.389 160.779 203.011 162.149 203.011 163.839C203.011 165.528 204.389 166.898 206.089 166.898Z" fill="#F2F2F2"/>
<path d="M229.023 177.965V185.483H223.789V177.062C223.789 174.401 222.756 173.305 221.033 173.305C219.061 173.305 217.618 175 217.618 177.664V185.483H212.384V169.695H217.618V171.765C217.618 171.765 219.357 169.093 223.202 169.093C225.866 169.093 227.452 170.123 228.28 171.71C228.28 171.71 229.99 169.076 234.384 169.076C238.505 169.076 240.519 171.569 240.519 174.957V185.483H235.285V177.062C235.285 175.009 234.472 173.256 232.528 173.256C230.541 173.256 229.023 175.037 229.023 177.965Z" fill="#F2F2F2"/>
<path d="M250.604 169.106C245.653 169.106 242.577 173.078 242.577 177.451C242.577 182.488 246.245 186.05 250.689 186.05C253.963 186.05 255.993 183.682 255.993 183.682V185.486H261.192V169.698H255.993V171.653C255.993 171.653 254.225 169.106 250.604 169.106ZM252.135 173.467C254.487 173.467 256.144 175.785 256.144 177.536C256.144 179.933 254.264 181.568 252.135 181.568C250.109 181.568 248.013 180.205 248.013 177.564C248.013 175.473 249.748 173.467 252.135 173.467V173.467Z" fill="#F2F2F2"/>
<path d="M264.906 185.483V163.379H270.201V185.483H264.906Z" fill="#F2F2F2"/>
<path d="M316.956 169.106C312.006 169.106 308.93 173.078 308.93 177.451C308.93 182.488 312.598 186.05 317.041 186.05C320.316 186.05 322.345 183.682 322.345 183.682V185.486H327.545V169.698H322.345V171.653C322.345 171.653 320.577 169.106 316.956 169.106V169.106ZM318.488 173.467C320.84 173.467 322.496 175.785 322.496 177.536C322.496 179.933 320.617 181.568 318.488 181.568C316.461 181.568 314.366 180.205 314.366 177.564C314.366 175.473 316.101 173.467 318.488 173.467Z" fill="#F2F2F2"/>
<path d="M301.411 185.483V163.379H306.705V185.483H301.411Z" fill="#F2F2F2"/>
<path d="M291.288 169.106C296.238 169.106 299.314 173.078 299.314 177.451C299.314 182.488 295.646 186.05 291.203 186.05C287.928 186.05 285.899 183.682 285.899 183.682V191.798H280.699V169.698H285.899V171.653C285.899 171.653 287.667 169.106 291.288 169.106V169.106ZM289.756 173.467C287.404 173.467 285.748 175.785 285.748 177.536C285.748 179.933 287.627 181.568 289.756 181.568C291.783 181.568 293.878 180.205 293.878 177.564C293.878 175.473 292.143 173.467 289.756 173.467V173.467Z" fill="#F2F2F2"/>
<path d="M331.277 185.483V169.695H336.511V171.766C336.511 171.766 338.251 169.093 342.095 169.093C346.439 169.093 347.917 171.83 347.917 175.258V185.483H342.683V177.063C342.683 174.401 341.649 173.305 339.927 173.305C337.955 173.305 336.511 175 336.511 177.664V185.483H331.277Z" fill="#F2F2F2"/>
<path d="M358.534 169.106C353.581 169.106 350.016 172.29 350.016 177.574C350.016 182.742 353.618 186.031 359.498 186.031C362.399 186.031 365.265 184.744 365.265 184.744L364.102 181.004C364.102 181.004 362.147 182 359.923 182C357.13 182 355.829 180.438 355.48 179.021H366.976C367.139 173.626 364.894 169.106 358.534 169.106V169.106ZM358.761 172.903C360.596 172.903 361.921 174.182 362.158 175.863H355.395C355.584 174.057 357.258 172.903 358.761 172.903Z" fill="#F2F2F2"/>
<path d="M375.75 165.936V169.695H379.38V173.755H375.75V180.07C375.75 181.361 376.279 181.991 377.824 181.991C378.517 181.991 379.41 181.76 379.41 181.76L379.861 185.518C379.861 185.518 378.697 185.987 376.559 185.987C372.571 185.987 370.455 184.033 370.455 180.37V173.755H368.096V169.695H370.455V165.936H375.75Z" fill="#F2F2F2"/>
<path d="M283.533 64V89.0533C283.533 89.0533 287.447 92.2376 289.309 94.7946C279.721 88.5763 269.534 85.9644 257.147 85.9644C236.756 85.9644 218.191 95.3554 209.025 110.899L210.208 113.109C210.208 113.109 214.196 108.343 223.411 103.668C213.346 113.538 209.13 121.411 202.941 139.565L212.758 149.284C225.603 134.998 244.501 125.559 265.835 125.559C286.022 125.559 304.61 134.54 316.231 146.478L326.806 135.935C320.877 125.85 313.179 116.549 307.061 110.091C313.391 113.685 323.499 115.741 333.154 115.741C350.044 115.741 362.455 106.701 362.455 94.3923C362.455 79.2299 349.377 70.0022 328.046 66.4937L324.596 72.2462C335.331 74.1491 352.032 80.36 352.032 91.4549C352.032 97.5411 347.295 102.646 340.471 102.646C332.037 102.646 325.032 93.2965 320.776 85.0406L314.262 84.8848C306.786 75.6886 294.699 66.7144 283.533 64V64Z" fill="#F2F2F2"/>
</svg>
