<?xml version="1.0" encoding="utf-8"?>
<!-- Generator: Adobe Illustrator 24.1.0, SVG Export Plug-In . SVG Version: 6.00 Build 0)  -->
<svg version="1.1" id="Layer_1" xmlns="http://www.w3.org/2000/svg" xmlns:xlink="http://www.w3.org/1999/xlink" x="0px" y="0px"
	 viewBox="0 0 428 255" style="enable-background:new 0 0 428 255;" xml:space="preserve">
<style type="text/css">
	.st0{fill:#F2F2F2;}
</style>
<path class="st0" d="M50,100.2c0,2.9,2.3,5.2,5.1,5.2c2.9,0,5.3-2.3,5.3-5.2c0-2.9-2.3-5.2-5.3-5.2C52.3,95,50,97.3,50,100.2z
	 M60.7,110.2H49.6v36.3h11.1V110.2z M293.6,160.4l22.3-50.2h-11.7l-8,19.4l-8.8-19.4H275l15.2,31.4l-8.2,18.8H293.6z M273.4,110.2
	c-0.7-0.2-1.8-0.4-2.9-0.4c-2.9,0-7.5,1.2-9.4,5.3v-4.9h-10.7v36.3h11.1v-15.8c0-7.2,4-9.8,8.5-9.8c1.1,0,2.3,0.1,3.5,0.4V110.2z
	 M221,124c0.2-2.7,2.6-6.1,7.2-6.1c5.3,0,7.2,3.4,7.3,6.1H221z M236.3,133.4c-1,2.9-3.3,4.7-7.3,4.7c-4.3,0-8-2.9-8.2-7H246
	c0.1-0.2,0.2-1.9,0.2-3.4c0-11.7-6.9-18.6-18.2-18.6c-9.4,0-18.1,7.4-18.1,19.1c0,12.2,8.9,19.3,18.9,19.3c9.2,0,15-5.3,16.7-11.5
	L236.3,133.4z M211.3,110.2h-11.7l-7.7,22.5l-8.4-22.5h-12l14.9,36.3h11.2L211.3,110.2z M154.1,137.3c-4.2,0-8.2-3-8.2-9
	c0-6.1,4-9,8.2-9c4.2,0,8.2,2.8,8.2,9C162.2,134.4,158.3,137.3,154.1,137.3z M154.1,109.1c-10.8,0-19.3,7.9-19.3,19.2
	s8.5,19.3,19.3,19.3c10.9,0,19.3-8,19.3-19.3S164.9,109.1,154.1,109.1L154.1,109.1z M115.6,119.3c4.3,0,6.5,2.6,7.3,5.4l9.9-3
	c-1.6-6.5-7.4-12.6-17.4-12.6c-10.7,0-19.1,7.9-19.1,19.3c0,11.2,8.7,19.2,19.5,19.2c9.7,0,15.7-6.3,17.3-12.6l-9.8-3
	c-0.8,2.7-3.2,5.4-7.5,5.4c-4.6,0-8.5-3.2-8.5-9C107.2,122.5,111,119.3,115.6,119.3L115.6,119.3z M63.9,136.2
	c0.3,4,3.9,11.4,15.3,11.4c9.7,0,14.4-6.1,14.4-12.3c0-5.3-3.6-9.8-11.2-11.4l-4.8-0.9c-1.6-0.3-2.8-1.2-2.8-2.7
	c0-1.9,1.8-3.1,3.9-3.1c3.4,0,4.9,2,5.2,4.5l9.2-1.7c-0.4-4.2-4-10.8-14.5-10.8c-8.1,0-13.9,5.4-13.9,12c0,5.1,3.1,9.5,10.8,11.2
	l4.2,0.9c2.7,0.6,3.6,1.7,3.6,3c0,1.6-1.4,3.1-4.2,3.1c-3.8,0-5.5-2.4-5.7-4.9L63.9,136.2z"/>
<path class="st0" d="M14.7,122.8c0,0.1,0,0.2,0.1,0.3c0,0,0.1,0.1,0.1,0.2c0,0,0,0.1,0.1,0.1c0,0,0,0,0-0.2
	C14.8,123,14.7,122.9,14.7,122.8C14.7,122.6,14.7,122.5,14.7,122.8L14.7,122.8z M14.2,115.9c-0.1,0-0.1,0-0.1,0
	C14.1,116,14.1,116,14.2,115.9C14.2,116,14.3,116,14.2,115.9C14.3,116,14.3,115.9,14.2,115.9L14.2,115.9z M14.3,113.2
	c0.1,0,0.1-0.1,0-0.2c-0.1-0.1-0.1-0.1-0.1,0C14.1,113.1,14.2,113.2,14.3,113.2L14.3,113.2z M14.6,113.1c0,0,0-0.1,0-0.1
	c0-0.1-0.1-0.1-0.1,0c0,0,0,0,0,0C14.4,112.9,14.4,113,14.6,113.1C14.6,113.1,14.6,113.1,14.6,113.1L14.6,113.1z M17.2,115.6
	c0-0.1,0-0.1,0-0.1c0-0.1,0-0.1,0-0.1c0-0.1,0-0.1,0-0.1c-0.1,0-0.2,0.1-0.2,0.3c0,0.1,0,0.1,0.2,0.1c0.1,0,0.1,0,0.1,0
	C17.2,115.6,17.1,115.6,17.2,115.6L17.2,115.6z M15,121.9C15,121.8,15,121.8,15,121.9C15,121.8,14.9,121.8,15,121.9
	C14.9,121.9,14.9,121.9,15,121.9C14.9,121.9,14.9,121.9,15,121.9z M16.7,116.2C16.7,116.2,16.7,116.2,16.7,116.2
	c-0.1,0-0.1-0.1-0.1-0.1c0,0,0-0.1,0-0.1c0,0,0.1,0,0.1,0c0,0,0,0,0-0.1c-0.1-0.1-0.1-0.1-0.1,0c0,0,0,0,0,0c0,0,0-0.1,0-0.1
	c0,0-0.1-0.1-0.1-0.1c-0.1-0.1-0.1-0.1-0.1-0.1c0,0,0,0,0.1-0.1c0,0,0-0.1,0.1,0c0,0,0.1,0,0-0.1c0-0.1-0.2-0.1-0.3,0
	c-0.2,0.1-0.2,0.2-0.1,0.3c0,0.1,0.1,0.1,0.1,0.1c0,0,0.1,0.1,0.1,0.2c0.1,0.1,0.1,0.1,0.1,0.2c0,0.1,0,0.1,0,0.1c0,0.1,0,0.2,0,0.2
	c0.1,0.1,0.3,0.3,0.5,0.2C16.8,116.6,16.7,116.3,16.7,116.2C16.7,116.3,16.7,116.3,16.7,116.2L16.7,116.2z M14.7,116.3
	C14.7,116.3,14.7,116.3,14.7,116.3C14.7,116.3,14.8,116.3,14.7,116.3C14.8,116.3,14.8,116.3,14.7,116.3
	C14.8,116.3,14.8,116.3,14.7,116.3z M14.9,113.5C14.9,113.5,14.8,113.4,14.9,113.5c-0.1-0.1-0.1-0.1-0.1-0.1
	C14.8,113.5,14.9,113.6,14.9,113.5L14.9,113.5z M15.8,114C15.9,114,15.9,114,15.8,114C15.8,113.9,15.8,114,15.8,114c0,0,0,0.2,0,0.2
	C15.9,114.2,15.9,114.2,15.8,114C15.8,114.1,15.8,114.1,15.8,114L15.8,114z M15.9,116.4C15.9,116.4,15.9,116.4,15.9,116.4
	c0,0.1,0.1,0.1,0.1,0.1C16,116.5,16,116.5,15.9,116.4C16,116.4,15.9,116.4,15.9,116.4z M16.3,113.5
	C16.3,113.5,16.3,113.5,16.3,113.5C16.3,113.5,16.3,113.5,16.3,113.5C16.3,113.5,16.2,113.5,16.3,113.5
	C16.2,113.5,16.3,113.5,16.3,113.5z M15.7,116.3C15.7,116.3,15.7,116.3,15.7,116.3C15.7,116.4,15.7,116.4,15.7,116.3
	C15.8,116.3,15.7,116.3,15.7,116.3L15.7,116.3z M15.1,115.5c-0.1,0-0.1-0.1-0.1-0.1c0,0,0,0,0,0c0,0,0.1-0.1,0-0.1c0,0,0,0,0-0.1
	c0,0,0,0,0.1-0.1c0,0,0,0-0.1,0c0,0-0.1,0-0.1,0c0,0-0.1,0.1-0.2,0.1c-0.1,0-0.1,0.1-0.1,0.1c0,0,0.1,0,0.1,0c0,0,0.1,0,0,0
	c0,0,0,0-0.1,0c0,0-0.1,0-0.1,0c0,0-0.1,0-0.1,0c-0.1-0.1-0.1-0.1,0-0.1c0,0,0,0,0,0c-0.1,0-0.1,0-0.1,0c0-0.1-0.2,0-0.2,0.2
	c0,0,0,0.1,0,0c0,0-0.1,0.3-0.1,0.4c0,0.1,0.3,0.2,0.5,0.1c0.1-0.1,0.2-0.1,0.4,0c0.1,0.1,0.5,0.1,0.5,0.1
	C15.6,115.8,15.2,115.5,15.1,115.5L15.1,115.5z M19.9,112.6C19.9,112.6,19.9,112.6,19.9,112.6C19.8,112.5,19.8,112.5,19.9,112.6
	C19.8,112.5,19.8,112.5,19.9,112.6C19.8,112.6,19.9,112.6,19.9,112.6L19.9,112.6z M19.6,114.8C19.6,114.8,19.6,114.9,19.6,114.8
	C19.6,114.9,19.6,114.9,19.6,114.8C19.6,114.9,19.6,114.9,19.6,114.8L19.6,114.8z M19.2,114.9C19.1,114.9,19.1,114.9,19.2,114.9
	C19.2,114.9,19.2,115,19.2,114.9C19.2,115,19.2,114.9,19.2,114.9C19.2,114.9,19.2,114.9,19.2,114.9L19.2,114.9z M23.8,122.5
	C23.8,122.5,23.8,122.5,23.8,122.5C23.8,122.5,23.8,122.5,23.8,122.5C23.8,122.6,23.8,122.6,23.8,122.5
	C23.8,122.6,23.8,122.6,23.8,122.5z M23.7,122.7C23.7,122.6,23.7,122.7,23.7,122.7C23.7,122.7,23.7,122.7,23.7,122.7
	C23.7,122.7,23.7,122.6,23.7,122.7L23.7,122.7z M23.6,121.9C23.6,121.9,23.6,122,23.6,121.9C23.6,122,23.6,122,23.6,121.9
	C23.6,121.9,23.6,121.9,23.6,121.9L23.6,121.9z M23.6,122C23.6,122,23.6,122,23.6,122C23.6,122,23.6,122,23.6,122
	C23.6,122,23.6,122,23.6,122C23.6,122,23.6,122,23.6,122L23.6,122z M23.5,121.7C23.5,121.7,23.5,121.6,23.5,121.7
	C23.5,121.7,23.5,121.8,23.5,121.7C23.5,121.8,23.6,121.7,23.5,121.7L23.5,121.7z M23.5,121.5C23.5,121.5,23.5,121.5,23.5,121.5
	C23.5,121.5,23.5,121.6,23.5,121.5C23.5,121.6,23.5,121.6,23.5,121.5C23.5,121.5,23.5,121.5,23.5,121.5z M23.5,121.6
	C23.4,121.7,23.4,121.7,23.5,121.6c-0.1,0.1-0.1,0.1-0.1,0.1c0,0,0,0,0,0c0,0,0,0,0,0C23.4,121.7,23.5,121.6,23.5,121.6
	C23.5,121.5,23.5,121.6,23.5,121.6L23.5,121.6z M23.3,123.2C23.3,123.1,23.3,123.1,23.3,123.2C23.3,123.3,23.3,123.3,23.3,123.2
	C23.3,123.3,23.3,123.3,23.3,123.2L23.3,123.2z M23.3,122.2C23.3,122.2,23.3,122.2,23.3,122.2C23.3,122.2,23.3,122.2,23.3,122.2
	c0-0.1,0-0.1,0-0.1c0,0,0,0,0,0c0,0,0-0.1,0-0.1c0-0.1,0-0.1,0-0.2c0,0,0,0,0-0.1c0,0,0-0.1,0-0.1c0-0.1,0-0.1-0.1-0.2
	c0,0-0.1-0.1-0.1-0.1c0,0,0,0-0.1,0.1c-0.1,0.1-0.1,0.1-0.1,0.1c0,0,0-0.1,0-0.1c0,0,0-0.1,0-0.1c0,0-0.1,0-0.1,0c0,0,0,0,0,0
	c0,0,0,0,0,0c0,0,0,0,0,0.1c0,0,0,0,0,0c0,0,0,0,0,0c0,0,0,0,0,0c0,0,0,0,0,0.1c0,0,0,0,0,0c0,0,0,0,0,0c0,0,0,0,0.1,0
	c0,0,0.1,0.1,0.1,0.1c0,0,0,0.2,0,0.2c0,0,0,0,0,0c0,0,0,0,0,0.1c0,0,0,0,0,0c0,0,0,0,0.1,0c0,0.1,0.1,0,0.1,0c0,0,0-0.1,0-0.1
	C23.2,122,23.2,122,23.3,122.2C23.2,122.2,23.2,122.2,23.3,122.2L23.3,122.2z M22.8,122c0-0.1,0-0.1,0-0.1
	C22.9,121.9,22.9,121.9,22.8,122C22.8,121.9,22.8,122,22.8,122C22.8,122,22.8,122,22.8,122L22.8,122z M22.7,122.7
	C22.7,122.7,22.7,122.8,22.7,122.7C22.7,122.8,22.7,122.8,22.7,122.7C22.7,122.8,22.7,122.8,22.7,122.7
	C22.7,122.8,22.7,122.7,22.7,122.7L22.7,122.7z M23,122.5c0-0.2,0-0.2,0-0.1c0,0-0.1,0.2-0.1,0.4c0,0.1-0.1,0.2-0.1,0.2
	c0,0.1-0.1,0.1-0.1,0.1c0,0,0-0.1,0-0.1c-0.1-0.1-0.1-0.1,0-0.2c0-0.1,0-0.1,0-0.1c0,0,0,0,0-0.1c0,0,0,0,0,0c0,0-0.1,0-0.1,0
	c0,0-0.1,0,0,0c0,0,0,0.1,0,0.1c0,0-0.1,0.1-0.1,0.1c0,0,0,0.1,0,0.1c0,0,0,0.1,0,0.1c0,0,0,0,0,0.1c0,0,0,0,0,0c0,0,0-0.1,0-0.1
	c0,0-0.1,0-0.1,0.1c0,0,0,0,0,0c0,0-0.1,0.1-0.1,0.2c0,0,0,0,0,0c0,0,0,0,0,0.1c0,0,0,0,0,0c0,0,0,0,0,0c0-0.1,0,0-0.1,0.1
	c0,0.1-0.1,0.2-0.1,0.2c0,0-0.1,0.1-0.2,0.1c-0.1,0.1-0.1,0.1-0.2,0.2c0,0-0.1,0.1-0.1,0.1c0,0,0,0,0,0c0,0,0,0,0,0
	c0,0-0.1,0.3-0.1,0.4c0,0.1,0,0.1,0,0.1c0,0,0,0.1-0.1,0.2c0,0.1,0,0.2,0,0.2c0,0,0,0.1,0,0.1c0,0-0.1,0.2-0.1,0.3
	c0,0-0.1,0.1,0,0.1c0,0,0.1,0,0.2-0.1c0.1-0.1,0.1-0.1,0.2-0.1c0.1,0,0.1,0,0.1-0.1c0-0.1,0.1-0.2,0.3-0.3c0,0,0.1,0,0.1,0
	c0,0,0,0,0,0c0,0,0,0.2,0,0.2c0,0.1,0,0,0.1-0.1c0.1-0.1,0.1-0.1,0,0c-0.1,0.1-0.1,0.2,0,0.1c0-0.1,0,0,0,0.1c0,0,0,0.1,0,0
	c0,0,0,0,0,0.1c0,0.1,0,0.1,0,0.1c0,0,0,0,0,0c0,0,0,0,0.1,0c0-0.1,0-0.1,0,0c0,0,0,0,0.1,0c0-0.1,0.1-0.1,0.1-0.1c0,0,0,0,0.1-0.1
	c0-0.1,0.2-0.5,0.3-0.5c0,0,0.1-0.1,0.1-0.2c0,0,0.1-0.1,0.1-0.2c0-0.1,0.1-0.1,0.1-0.2c0,0,0-0.1,0-0.2c0-0.1,0-0.1,0-0.2
	c0-0.1,0-0.1,0-0.1c0,0,0,0,0-0.1c0,0,0-0.1,0-0.1c0-0.1,0-0.1,0-0.2c0,0,0-0.1,0-0.1c0,0,0-0.1,0-0.1c0,0,0-0.1,0-0.1
	c0-0.1,0-0.1,0-0.1C23,122.7,23,122.7,23,122.5L23,122.5z M23,124.8C23,124.8,23,124.8,23,124.8C23,124.9,23,124.9,23,124.8
	C23,124.8,23,124.8,23,124.8c-0.1,0-0.1-0.1,0-0.1c0,0,0-0.1,0-0.1c0,0,0,0,0,0c0,0,0,0.1,0,0.1c0,0,0,0.2-0.1,0.2c0,0,0,0.1,0,0.1
	c0,0,0,0.1,0,0.1c0,0,0,0,0,0.1c0,0,0,0.1,0,0.1c0,0,0.1-0.2,0.1-0.2c0,0,0,0,0-0.1C22.9,125,23,124.9,23,124.8L23,124.8z
	 M22.7,125.3C22.7,125.3,22.7,125.3,22.7,125.3C22.7,125.2,22.7,125.3,22.7,125.3c-0.1,0.2-0.2,0.3-0.2,0.3
	c-0.1,0.1-0.2,0.2-0.2,0.3c0,0,0,0,0,0c0,0,0.1-0.1,0.2-0.2c0-0.1,0.1-0.2,0.1-0.2c0,0,0,0,0,0c0,0,0-0.1,0.1-0.1
	C22.7,125.3,22.8,125.3,22.7,125.3L22.7,125.3z M22.1,125.6C22.1,125.6,22.1,125.6,22.1,125.6c-0.1,0.1-0.1,0.1-0.1,0.1
	c0,0.1,0,0.2,0,0.1c0,0,0,0,0,0c0,0,0,0,0-0.1C22.2,125.6,22.2,125.6,22.1,125.6L22.1,125.6z M22,125.2
	C21.9,125.2,21.9,125.2,22,125.2C21.9,125.2,22,125.2,22,125.2C22,125.2,22,125.2,22,125.2L22,125.2z M21.3,114.8
	C21.3,114.7,21.3,114.7,21.3,114.8C21.3,114.7,21.3,114.7,21.3,114.8C21.3,114.8,21.3,114.8,21.3,114.8
	C21.3,114.8,21.3,114.8,21.3,114.8z M22,114.6C21.9,114.6,21.9,114.5,22,114.6C21.9,114.5,21.9,114.5,22,114.6
	C21.9,114.6,21.9,114.6,22,114.6C22,114.6,22,114.6,22,114.6L22,114.6z M13.5,113.4C13.5,113.4,13.5,113.4,13.5,113.4
	C13.4,113.4,13.4,113.4,13.5,113.4C13.4,113.5,13.4,113.5,13.5,113.4L13.5,113.4z M13.1,113.6C13.1,113.6,13.1,113.6,13.1,113.6
	C13.1,113.5,13.1,113.5,13.1,113.6C13.1,113.5,13.1,113.5,13.1,113.6C13,113.6,13,113.6,13.1,113.6L13.1,113.6z M12.4,113.9
	C12.5,113.9,12.5,113.8,12.4,113.9c0.1-0.1,0.1-0.1,0-0.1C12.4,113.8,12.4,113.8,12.4,113.9L12.4,113.9z M12.3,113.8
	C12.3,113.8,12.3,113.8,12.3,113.8C12.3,113.9,12.3,113.9,12.3,113.8C12.4,113.8,12.4,113.8,12.3,113.8L12.3,113.8z M14.8,116.9
	C14.8,116.9,14.8,116.9,14.8,116.9C14.9,116.8,14.8,116.8,14.8,116.9C14.8,116.8,14.7,116.8,14.8,116.9
	C14.7,116.9,14.7,116.9,14.8,116.9L14.8,116.9z M13.9,116.8c0,0,0.1,0,0.1,0C14,116.8,14,116.8,13.9,116.8
	C13.9,116.8,13.8,116.8,13.9,116.8L13.9,116.8z M12.6,116.5c0.1,0,0.1,0.1,0.1,0.1c0,0,0,0,0-0.1c0-0.1,0-0.1-0.1-0.1
	c-0.1,0-0.2,0-0.2,0C12.4,116.4,12.5,116.4,12.6,116.5L12.6,116.5z M12.1,115.8C12.1,115.8,12.1,115.8,12.1,115.8c0-0.2,0-0.2,0-0.1
	C12,115.7,12,115.8,12.1,115.8L12.1,115.8z M12,116.1c0,0.1,0,0.1,0,0.1c0.1,0,0.1-0.1,0.1-0.2c0-0.1,0-0.2-0.1-0.1
	C12,115.9,12,116,12,116.1L12,116.1z M11.4,116.1C11.4,116.2,11.4,116.2,11.4,116.1C11.5,116.1,11.5,116.1,11.4,116.1
	C11.4,116.1,11.4,116.1,11.4,116.1L11.4,116.1z M20.9,119.6c0,0.1,0.1,0.2,0.1,0.3c0,0.1,0.1,0.2,0.1,0.4c0,0.2,0.1,0.3,0.1,0.3
	c0,0,0.2,0.3,0.2,0.3c0,0.2,0.1,0.5,0.2,0.5c0,0,0,0,0-0.1c0-0.1,0-0.1,0-0.2c0-0.1-0.1-0.3-0.2-0.3c0,0-0.1,0-0.1-0.1
	c0,0,0-0.1-0.1-0.2c-0.1-0.1-0.1-0.1-0.1-0.4c0-0.2,0-0.3,0-0.2c0,0,0,0.1,0,0.1c0,0,0.1,0.1,0.1,0.1c0.1,0.1,0.1,0.1,0.1,0.2
	c0,0,0,0.1,0.1,0.1c0,0.1,0,0.1,0,0.1c0,0,0.1-0.1,0-0.2c0,0,0,0,0,0c0,0,0,0,0.1-0.1c0-0.1,0-0.1,0-0.3c-0.1-0.2-0.1-0.3-0.3-0.5
	c-0.1-0.2-0.2-0.3-0.1-0.5c0-0.1,0.1-0.2,0.1-0.1c0,0,0,0.1,0.1,0.1c0,0,0,0,0,0c-0.1,0-0.1,0.2,0,0.2c0,0,0.1,0,0.1-0.1
	c0-0.1,0-0.1,0-0.1c-0.1-0.1-0.1-0.2,0-0.2c0,0,0.1-0.1,0-0.1c0,0,0,0,0,0c0,0.1,0.1,0,0.2-0.1c0-0.1,0-0.2,0-0.3c0,0,0,0,0-0.1
	c0,0,0-0.1,0-0.1c0-0.2,0-0.3-0.1-0.3c0,0,0,0,0,0c0,0,0,0,0,0c0,0,0-0.2-0.1-0.3c-0.1-0.2-0.1-0.2-0.2-0.2c0,0,0-0.2,0-0.3
	c0,0,0-0.1,0-0.1c0,0-0.1,0-0.1,0c0,0.1,0,0-0.1,0c0,0,0-0.1-0.1-0.1c0,0-0.1-0.1,0-0.1c0,0,0-0.1,0.1-0.1c0-0.1,0-0.1,0.1-0.1
	c0,0,0,0,0,0.1c0,0.1,0,0.1,0.1,0.1c0,0,0,0,0.1,0c0.1,0,0.1,0,0.1,0.1c0,0.1,0,0.1,0.1,0.1c0,0,0.1,0.1,0.1,0.1
	c0,0,0.1,0.2,0.1,0.3c0,0,0,0,0.1,0c0,0,0,0,0-0.2c0-0.1-0.1-0.2-0.1-0.3c-0.1-0.1-0.1-0.2-0.1-0.2c0,0,0-0.1,0-0.2c0,0,0-0.1,0-0.1
	c0-0.1,0-0.1,0.1,0c0.1,0.1,0.1,0,0.1-0.4c0-0.3,0-0.3-0.1-0.4c0-0.1-0.1-0.2-0.1-0.2c0-0.2-0.2-0.4-0.2-0.3c0,0,0,0.1,0,0
	c0-0.1,0-0.1,0,0c0,0,0,0,0,0c0,0,0-0.1-0.1-0.1c0,0,0,0,0,0c0,0,0,0,0-0.1c0,0,0-0.1,0-0.1c0-0.3-0.1-0.3,0.1-0.3c0,0,0.1,0,0.1,0
	c0,0,0.1,0,0.1,0.1c0,0,0,0,0.1,0c0,0,0,0,0.1,0c0,0,0,0,0,0c0,0,0,0,0-0.1c0-0.1,0-0.1,0.1-0.1c0,0,0.1,0,0.1,0.1
	c0,0.1,0.1,0.1,0.1,0c0,0,0,0,0,0c0,0,0,0,0,0c0,0,0-0.1,0-0.1c0,0,0.1,0.2,0.1,0.2c0,0,0,0.1,0,0.1c0,0,0,0.1,0,0.1
	c0,0,0,0.2,0.1,0.3c0,0.1,0.1,0.2,0.1,0.3c0,0.1,0.1,0.2,0.1,0.2c0,0.1,0-0.1,0-0.1c0,0,0-0.1,0-0.1c0,0,0,0,0-0.1c0,0,0-0.1,0-0.1
	c0,0,0,0,0-0.1c0-0.1,0-0.1,0-0.1c0,0,0,0,0,0c0,0,0,0,0,0c0,0,0,0,0-0.1c0,0,0-0.1,0-0.1c0,0,0,0-0.1-0.1c0-0.1,0-0.1,0-0.1
	c0,0,0,0,0,0c0,0,0,0,0,0c0,0,0,0,0,0c0,0,0,0,0.1,0c0,0,0,0,0,0c-0.2-0.4-0.5-0.7-0.8-1.1c0,0,0,0,0,0c0,0,0,0,0,0c0,0,0,0,0,0
	c0,0,0,0,0,0c0,0,0,0,0,0c0,0,0,0,0,0c0,0,0-0.1-0.1-0.1c0,0-0.1,0-0.1-0.1c-0.1-0.1-0.1,0-0.1-0.1c-0.1-0.1-0.2-0.1-0.2-0.1
	c0,0,0,0,0,0c0,0,0-0.1-0.1-0.1c0,0-0.1,0-0.1-0.1c0,0,0,0-0.1,0c0,0,0,0,0,0.1c0,0.1,0,0.1,0,0c0,0,0,0,0,0c0,0,0,0,0,0
	c0,0-0.1,0-0.1-0.1c-0.1,0-0.1,0-0.1,0c0,0,0,0-0.1-0.1c0-0.1,0-0.1,0-0.1c0,0,0-0.1-0.1-0.1c0,0,0,0,0,0c0,0,0,0,0,0
	c0,0-0.1-0.1-0.1-0.1c-0.1,0-0.1,0-0.1,0c0,0,0,0-0.1,0c-0.1,0-0.1,0-0.1-0.1c0,0-0.1-0.1-0.2-0.1c-0.1,0-0.2-0.1-0.2-0.1
	c-0.1,0-0.1,0-0.1,0c0,0,0,0,0,0c-0.1,0-0.1,0-0.1,0c0,0,0.1,0,0.1,0c0,0,0.1,0,0.1,0c0,0,0,0,0-0.1c0,0,0,0,0,0c0,0,0,0-0.1-0.1
	c0,0-0.1,0-0.1-0.1c-0.1,0-0.2-0.1-0.2-0.1c0-0.1-0.1-0.1-0.2-0.1c0,0,0,0,0,0c0,0,0,0,0,0c0,0,0,0,0,0c0,0,0,0-0.1,0
	c-0.2,0-0.5,0-0.5,0c0,0,0,0,0,0l0.1,0c0,0,0,0-0.1,0c-0.1,0-0.2,0-0.2,0c0,0,0.1,0.1,0.1,0.2c0.1,0,0.1,0,0,0c0,0-0.1,0-0.1,0
	c0,0-0.1-0.1-0.2-0.1c-0.1,0-0.1,0,0,0c0.1,0.1,0.1,0.1,0,0c-0.1,0-0.1,0,0,0.1c0,0,0,0,0,0c-0.1,0-0.1,0-0.1-0.1c0,0,0-0.1-0.1-0.1
	c0,0,0,0,0,0c0,0,0,0.1,0,0.1c0,0,0,0,0,0c0,0,0,0,0,0.1c0,0,0.1,0.1,0,0.1c0,0.1,0,0.1,0.1,0.2c0.1,0,0.2,0.1,0.2,0.2c0,0,0,0,0,0
	c0-0.1-0.1-0.1-0.2-0.1c0,0,0,0,0,0.1c0,0.1,0,0.1,0,0.1c-0.1,0.1-0.2,0.1-0.3,0c0,0,0,0,0.1,0c0.1,0,0.1,0,0.1-0.1
	c0-0.1,0-0.1,0-0.2c0,0-0.1-0.1-0.1-0.2c0-0.1,0-0.1-0.1-0.2c0,0,0,0,0-0.1c0-0.1,0-0.1-0.1-0.1c0,0-0.1,0,0,0c0,0,0,0,0,0
	c0,0,0,0,0,0c0,0,0,0,0,0c0,0,0,0,0,0.1c0,0,0,0.1,0,0.1c0,0,0,0,0,0.1c0,0,0,0,0,0.1c0,0,0,0.1,0,0.1c0,0,0,0,0.1,0.1
	c0.2,0.1,0.1,0.2-0.1,0.1c-0.1-0.1-0.2-0.1-0.3-0.1c-0.1,0-0.2-0.1-0.2-0.1c0,0,0,0,0,0c0.1,0.1,0.1,0.1,0.1,0.2c0,0,0,0-0.1,0
	c0,0-0.1,0-0.2,0c-0.1,0-0.2,0-0.2,0c0,0,0,0-0.1,0c0,0-0.1,0-0.1,0c-0.1,0-0.2,0.1-0.2,0.1c0,0.1-0.1,0.1-0.2,0c0,0,0-0.1,0-0.1
	c0,0,0-0.1,0-0.1c-0.1,0-0.2,0-0.2,0c0,0,0,0.1,0,0.1c0,0,0,0.1,0,0.1c0.1,0.1,0,0.1-0.1,0.1c0,0-0.1,0-0.1,0
	c-0.1,0.1-0.1,0.1,0,0.1c0,0.1,0,0.1-0.1,0c-0.1,0-0.1,0-0.2-0.1c0,0-0.1,0,0,0c0,0,0,0.1,0.1,0.1c0.1,0,0.1,0.1,0,0.1
	c-0.1,0-0.2-0.1-0.2-0.2c0,0,0-0.1,0-0.1c0,0,0-0.1-0.1-0.1c-0.1-0.1,0-0.1,0.2,0c0.2,0,0.2,0,0.3,0c0,0,0.1-0.1,0.1-0.1
	c0,0-0.1-0.1-0.2-0.2c-0.2-0.1-0.3-0.1-0.6-0.2c-0.1,0-0.1,0-0.1-0.1c0.1,0,0,0,0-0.1c0,0-0.1,0-0.1,0c0,0,0,0,0,0c0,0,0,0,0,0
	c0,0-0.1,0-0.1,0c0,0-0.1,0-0.1,0.1c0,0,0,0,0,0c0,0,0-0.1,0-0.1c0,0,0,0-0.1,0c0,0-0.1,0.1-0.1,0.1c0,0,0,0-0.1,0c0,0-0.1,0-0.1,0
	c0,0-0.1,0-0.1,0c-0.1,0-0.1,0-0.1,0c0,0,0,0,0,0c0,0-0.1,0-0.1,0c0,0-0.1,0,0,0c0.1,0.1,0,0.1-0.1,0c0,0,0,0,0,0c0,0,0,0,0,0
	c0,0,0,0,0,0c0,0,0.1,0,0.1,0c0.1,0,0,0-0.1,0.1c-0.1,0.1-0.2,0.2-0.2,0.2c0,0.1-0.1,0.1-0.1,0.1c0,0,0,0,0,0c0,0,0,0,0,0
	c0,0-0.1,0-0.1,0.1c0,0-0.1,0.1-0.1,0.1c0,0,0,0,0,0c0,0,0,0.1,0,0.1c0,0-0.1,0-0.1,0.1c-0.1,0.1-0.2,0.2-0.1,0.3c0,0,0,0.1,0,0.1
	c0,0,0,0,0,0c0.1,0,0.1,0,0,0c-0.1,0.1,0,0.1,0.1,0.1c0.1,0,0.1,0,0.2-0.1c0.1,0,0.1-0.1,0.1-0.1c0,0,0,0,0,0c0,0,0,0.1,0,0.1
	c0,0,0,0.1,0,0.1c0,0,0,0,0,0.1c0,0,0,0.1,0,0.1c0,0,0,0.1,0,0.1c0,0,0,0.1,0,0.1c0,0.1,0.1,0.1,0.1,0c0,0,0,0,0.1,0
	c0.1,0,0.2-0.1,0.2-0.2c0-0.1,0-0.1,0.1-0.2c0,0,0.1-0.1,0.1-0.1c0,0,0-0.1,0-0.1c0,0-0.1-0.1-0.1-0.1c0,0,0,0,0-0.1
	c0-0.1,0.1-0.2,0.2-0.3c0.1-0.1,0.2-0.1,0.2-0.2c0-0.1,0.1-0.2,0.2-0.1c0.1,0,0.2,0.1,0.1,0.1c-0.3,0.2-0.3,0.3-0.3,0.3
	c0,0,0,0.1,0,0.1c0,0.1,0.1,0.2,0.3,0.2c0.1,0,0.2,0,0.2,0c0.1,0,0.2,0,0.1,0.1c0,0-0.1,0-0.2,0c-0.2,0-0.3,0-0.3,0.1
	c0,0,0,0.1,0.1,0.1c0,0,0,0,0,0.1c0,0.1,0,0.1-0.1,0.1c-0.1-0.1-0.2,0-0.2,0.2c0,0.1,0,0.1,0,0.1c0,0-0.1,0-0.1,0c0,0.1-0.1,0-0.2,0
	c0,0-0.1,0-0.2,0c-0.1,0-0.2,0.1-0.2,0c0,0-0.1,0-0.2,0c-0.2,0-0.2-0.1-0.2-0.2c0,0,0-0.1,0.1-0.1c0,0,0.1,0,0-0.1c0,0,0-0.1,0-0.1
	c0-0.1-0.1,0-0.1,0c0,0-0.1,0-0.1,0c0,0,0,0,0,0.1c0,0.3,0,0.3-0.1,0.3c-0.2,0-0.2,0-0.2,0.1c0,0.1,0,0.1,0,0c0,0,0,0-0.1,0.1
	c0,0.1-0.1,0.1-0.2,0.2c0,0-0.1,0.1-0.1,0.1c0,0-0.1,0.1-0.1,0.1c-0.1,0.1-0.1,0.1-0.1,0c0,0-0.1,0-0.1,0c0,0.1,0,0.1-0.1,0.1
	c-0.1,0-0.2,0-0.2,0.1c0,0,0,0.1,0,0.1c0.1,0,0.2,0.2,0.2,0.3c0,0.1,0,0.2-0.1,0.2c0,0.1,0,0.1-0.3,0.1c-0.1,0-0.3,0-0.3,0
	c0,0-0.1,0-0.1,0c-0.1,0-0.1,0.1-0.1,0.2c0,0.1,0,0.2-0.1,0.3c0,0.1-0.1,0.1,0,0.2c0,0,0,0.1,0,0.1c0,0.1,0,0.1,0.1,0.1
	c0.1,0,0.1,0,0.1,0.1c0,0.1,0.1,0.1,0.1,0c0,0,0.1,0,0.2,0c0.1,0,0.1,0,0.1-0.1c0,0,0-0.1,0.1-0.1c0.1,0,0.1-0.2,0.1-0.3
	c0-0.1,0.1-0.3,0.3-0.3c0.1,0,0.1-0.1,0.1-0.2c0-0.1,0.1-0.2,0.2-0.1c0,0,0.1,0,0.2-0.1c0.1-0.1,0.2-0.1,0.2-0.1
	c0,0,0.1,0.1,0.2,0.2c0.1,0.1,0.2,0.2,0.3,0.3c0.2,0.1,0.3,0.2,0.2,0.4c0,0.1,0,0.1,0.1,0c0.1-0.1,0.1-0.1,0-0.2c0,0,0-0.1,0-0.1
	c0,0,0.1,0,0.1,0c0,0,0.1,0,0.1,0c0,0-0.2-0.2-0.2-0.2c0,0,0,0,0,0c0,0,0,0-0.1,0c0,0-0.1-0.1-0.2-0.2c-0.1-0.1-0.1-0.2-0.1-0.2
	c0,0,0,0,0-0.1c0-0.1,0.1-0.2,0.1-0.1c0,0,0,0,0.1,0c0,0,0.1,0,0.1,0.1c0,0.1,0.1,0.1,0.1,0.1c0,0,0.1,0.1,0.2,0.1
	c0.1,0.1,0.1,0.1,0.1,0.2c0,0.1,0,0.2,0.1,0.3c0.1,0.1,0.1,0.2,0.1,0.2c0,0,0.1,0.2,0.2,0.2c0,0,0,0,0-0.1c0,0,0-0.1,0.1-0.1
	c0.1-0.1,0.1-0.2-0.1-0.1c0,0,0,0,0-0.1c0,0,0-0.1,0-0.1c-0.1,0,0-0.1,0-0.1c0,0,0.1,0,0.1,0c0.1-0.1,0.3,0,0.3,0.1c0,0,0,0.1,0,0.1
	c0,0,0,0,0,0.1c0,0.1,0,0.1,0,0.1c0,0,0,0,0,0.1c0,0,0,0.1,0.1,0.1c0,0,0.1,0.1,0.2,0.1c0.1,0,0.1,0,0.1,0c0-0.1,0.1-0.1,0.1,0
	c0.1,0.1,0.2,0.1,0.2,0c0,0,0.1,0,0.1-0.1c0,0,0.1,0,0.1,0c0,0.1,0,0.1,0,0.2c0,0.1,0,0.3,0,0.4c-0.1,0.3-0.2,0.3-0.3,0.2
	c-0.1-0.1-0.1-0.1-0.2,0c-0.1,0.1-0.2,0.1-0.3,0c-0.1,0-0.2-0.1-0.3-0.1c-0.1,0-0.2-0.1-0.2-0.1c0,0,0,0-0.1-0.1
	c-0.1,0-0.3,0.1-0.3,0.2c0,0,0,0.1,0,0.2c0,0.1-0.1,0.1-0.2,0c-0.1,0-0.2-0.1-0.2-0.1c0,0-0.1,0-0.1-0.1c0-0.1-0.3-0.2-0.3-0.2
	c0,0-0.3-0.1-0.3-0.2c0,0,0-0.1,0.1-0.1c0.1-0.1,0.1-0.1,0-0.1c0-0.1,0-0.1,0-0.1c0-0.1,0-0.1,0,0c0,0-0.1,0-0.1,0c0,0,0,0-0.1,0
	c-0.1,0-0.3,0-0.5,0.1c-0.2,0-0.6,0.1-0.7,0.2c0,0-0.4,0-0.4,0c0-0.1-0.1,0-0.1,0.1c0,0.1-0.1,0.2-0.2,0.2c-0.1,0.1-0.3,0.3-0.3,0.5
	c0,0.1-0.1,0.2-0.3,0.4c-0.1,0.1-0.4,0.4-0.4,0.5c0,0,0,0.1-0.1,0.1c0,0.1-0.1,0.2-0.2,0.3c-0.1,0.2-0.1,0.2-0.1,0.3
	c0,0.1,0,0.2,0,0.4c0,0.1-0.1,0.4-0.2,0.5c0,0,0,0,0,0.1c0,0.1,0,0.1,0,0.2c0,0.1,0,0.1,0,0.1c0,0,0.1,0,0.1,0.1c0,0,0,0.1,0.1,0.2
	c0.1,0.1,0.1,0.2,0.1,0.3c0,0.2,0.3,0.4,0.4,0.5c0.1,0.1,0.1,0.1,0.4,0c0.1,0,0.2,0,0.3,0c0.1,0,0.2,0,0.4-0.1
	c0.2-0.1,0.5-0.2,0.7-0.1c0.1,0,0.1,0.1,0.1,0.1c0,0.1,0.1,0.1,0.3,0.1c0.2,0,0.2,0,0.3,0.1c0.1,0.1,0.1,0.1,0.1,0.2
	c0,0,0,0.2,0,0.3c0,0.1,0,0.2,0,0.2c0,0.1,0,0.2,0.2,0.4c0.2,0.2,0.3,0.5,0.4,0.8c0,0.1,0,0.2,0.1,0.3c0,0.1,0,0.2,0,0.2
	c-0.1,0.1-0.2,0.4-0.2,0.6c0,0.2,0.2,0.4,0.3,0.6c0,0,0.1,0.2,0.1,0.3c0,0.2,0.1,0.4,0.2,0.5c0.1,0.1,0.3,0.4,0.3,0.5
	c0,0.1,0,0.2,0.1,0.2c0.1,0,0.1,0,0.1,0c0,0,0.2,0,0.3-0.1c0.3,0,0.6-0.1,0.8-0.4c0.1-0.1,0.1-0.2,0.2-0.2c0.1-0.1,0.1-0.1,0.1-0.3
	c0-0.2,0-0.2,0.2-0.2c0.1-0.1,0.1-0.1,0.2-0.2c0-0.1,0-0.2,0-0.3c0-0.1,0-0.1,0.1-0.2c0,0,0.1-0.1,0.2-0.2c0-0.1,0.1-0.1,0.2-0.2
	c0.1,0,0.1-0.1,0.2-0.1c0.1-0.1,0.1-0.1,0.1-0.4c0-0.2,0-0.3,0-0.4c0,0,0-0.1,0-0.2c0-0.1,0-0.2,0-0.3c0-0.1,0-0.1,0.1-0.3
	c0.1-0.1,0.2-0.3,0.2-0.3c0.1-0.1,0.2-0.2,0.3-0.3c0.1-0.1,0.2-0.2,0.3-0.3c0.2-0.2,0.3-0.4,0.4-0.7c0-0.1,0.1-0.3,0.1-0.3
	c0,0,0-0.1,0-0.2c0-0.2,0-0.2-0.1-0.2c0,0-0.2,0.1-0.4,0.1c-0.1,0-0.2,0.1-0.3,0.1c0,0-0.1-0.1-0.1-0.1c-0.1-0.1-0.1-0.1-0.1-0.1
	c0,0-0.2-0.3-0.4-0.4c-0.1-0.1-0.1-0.1-0.2-0.3c0-0.1-0.1-0.2-0.1-0.3c-0.1-0.1-0.1-0.1-0.1-0.3c0-0.1-0.1-0.2-0.1-0.3
	c-0.1-0.1-0.1-0.1-0.1-0.2c0,0-0.1-0.1-0.1-0.2c-0.1-0.1-0.1-0.2-0.2-0.3c0-0.1-0.1-0.2-0.1-0.3c0-0.1-0.1-0.1-0.1-0.1
	c0,0,0.1,0.1,0.1,0.1c0.1,0.2,0.2,0.2,0.2,0.1c0-0.1,0-0.1,0,0c0,0,0.1,0.2,0.2,0.3c0.1,0.1,0.1,0.2,0.2,0.3c0,0,0,0.1,0.1,0.1
	c0.1,0.1,0.2,0.2,0.2,0.4c0,0.1,0.1,0.1,0.1,0.2c0.1,0.1,0.1,0.1,0.1,0.2c0,0,0.1,0.1,0.1,0.2c0.1,0.1,0.1,0.2,0.1,0.3
	c0,0.2,0.1,0.5,0.2,0.5c0,0,0.1,0,0.1,0c0,0,0.1-0.1,0.1-0.1c0,0,0.1,0,0.1,0c0,0,0.1,0,0.1,0c0,0,0,0,0.1-0.1c0,0,0.1-0.1,0.2-0.1
	c0.1,0,0.1-0.1,0.2-0.2c0-0.1,0.1-0.1,0.2-0.1c0.1,0,0.1-0.1,0.1-0.1c0,0,0-0.1,0-0.1c0,0,0.1,0,0,0c0,0,0-0.1,0.1-0.1
	c0,0,0-0.1,0-0.1c0,0,0-0.2,0-0.2c0,0,0-0.1,0.1-0.1c0-0.1,0-0.1,0-0.1c0,0,0-0.1-0.1-0.1c0-0.1-0.1-0.1-0.2-0.1
	c-0.1,0-0.1-0.1-0.2-0.2c0,0,0-0.1,0-0.1c0,0.1,0,0.1-0.1,0.1c-0.1,0.2-0.4,0.2-0.4,0c0-0.1-0.1-0.2-0.1,0c0,0.1,0,0.1-0.1-0.1
	c0-0.1-0.1-0.2-0.1-0.2c0,0-0.1-0.1-0.1-0.2c-0.1-0.2-0.1-0.2,0-0.2c0.1-0.1,0.2,0,0.2,0.1c0.1,0.2,0.3,0.4,0.5,0.4c0,0,0.1,0,0.1,0
	c0,0,0,0,0,0c0-0.1,0-0.1,0.1,0.1c0,0.1,0.1,0.1,0.1,0.1c0.2,0.1,0.5,0.1,0.8,0.1c0,0,0.1,0,0.1,0.1c0.1,0.2,0.3,0.3,0.3,0.3
	c0,0,0,0,0,0c0,0,0,0,0,0c-0.1,0,0,0,0,0.1c0.1,0.1,0.2,0.1,0.2,0c0-0.1,0-0.1,0.1,0c0,0.1,0.1,0.1,0,0.2c0,0.3,0.2,0.5,0.3,0.8
	c0.1,0.1,0.1,0.2,0.1,0.2c0,0,0.1,0.1,0.1,0.2c0.1,0.1,0.1,0.2,0.2,0.3c0.1,0.2,0.1,0.2,0.2,0c0.1-0.2,0-0.5,0-0.7
	c0-0.2,0-0.2,0-0.2c0,0,0,0,0-0.1c0,0,0,0,0,0c0,0,0.1-0.1,0.1-0.3c0-0.1,0-0.1,0.1-0.1c0,0,0.1-0.1,0-0.2c0,0,0-0.1,0-0.1
	c0,0,0.1,0,0.1,0c0,0,0.1,0,0.1,0c0,0,0,0,0-0.1c0-0.1,0,0,0.1,0.1c0,0.1,0.1,0.2,0.1,0.2c0,0,0.1,0.1,0.1,0.1c0,0,0,0.1,0,0.1
	c0,0,0.1,0.2,0.1,0.3c0,0.1,0,0.1,0,0.1C20.8,119.6,20.8,119.6,20.9,119.6c-0.1-0.1-0.1-0.1-0.1-0.2
	C20.9,119.5,20.9,119.5,20.9,119.6L20.9,119.6z M20,120.7c-0.1-0.2-0.1-0.2-0.1-0.1c0,0.1,0.1,0.3,0.1,0.4c0,0,0,0,0.1,0
	C20.1,120.9,20.1,120.8,20,120.7L20,120.7z M18.5,129.4C18.5,129.4,18.5,129.4,18.5,129.4C18.6,129.4,18.5,129.4,18.5,129.4
	C18.5,129.4,18.5,129.4,18.5,129.4L18.5,129.4z M17.4,120.2C17.4,120.2,17.5,120.2,17.4,120.2C17.5,120.2,17.5,120.1,17.4,120.2
	C17.4,120.1,17.4,120.2,17.4,120.2L17.4,120.2z M17.3,124.7C17.3,124.7,17.3,124.7,17.3,124.7C17.3,124.7,17.3,124.6,17.3,124.7
	C17.3,124.6,17.3,124.7,17.3,124.7C17.3,124.7,17.3,124.7,17.3,124.7L17.3,124.7z M17.2,128.4C17.2,128.5,17.2,128.5,17.2,128.4
	C17.3,128.4,17.3,128.4,17.2,128.4C17.2,128.4,17.2,128.4,17.2,128.4L17.2,128.4z M16.2,124.8c-0.1,0.1-0.1,0.1-0.1,0.3
	c0,0.2,0.1,0.3,0.2,0.2c0.1,0,0.1,0,0.1-0.1c0.2-0.2,0.3-0.6,0.4-0.9c0,0,0-0.1,0-0.1c0,0,0-0.1,0-0.1c0-0.1,0-0.1,0-0.1
	c0,0,0,0,0-0.1c0-0.1,0-0.3-0.1-0.3c0,0,0,0,0,0c0,0,0,0.1,0,0.1c0,0,0,0.1-0.1,0.1c0,0-0.1,0.1-0.1,0.1c0,0-0.1,0.1-0.2,0.1
	c-0.2,0.1-0.2,0.2-0.2,0.4C16.2,124.6,16.2,124.7,16.2,124.8L16.2,124.8z M11.8,131.6C11.8,131.6,11.8,131.5,11.8,131.6
	C11.8,131.5,11.8,131.5,11.8,131.6C11.8,131.5,11.8,131.5,11.8,131.6C11.8,131.5,11.8,131.6,11.8,131.6z M10.7,131.8
	C10.7,131.8,10.7,131.8,10.7,131.8C10.7,131.8,10.7,131.8,10.7,131.8C10.7,131.8,10.7,131.7,10.7,131.8
	C10.7,131.7,10.7,131.7,10.7,131.8L10.7,131.8z M19.2,130.2c-0.1,0-0.1,0-0.1,0c0,0,0,0-0.1,0c0,0,0,0,0,0c0,0,0,0,0,0
	c0,0,0,0-0.1,0c0,0,0,0,0,0c0,0,0,0,0,0c-0.1,0-0.1,0-0.1,0c0,0,0,0,0,0c0,0-0.1,0-0.2,0c-0.1,0-0.1,0-0.1,0c0,0,0,0,0,0
	c0,0,0,0,0,0c0,0,0,0,0,0.1c0,0,0,0-0.1,0.1c-0.1,0-0.1,0-0.1,0.1c-0.1,0.1-0.1,0.1-0.1,0c0,0,0,0,0,0c0,0-0.2,0.1-0.3,0.1
	c-0.1,0-0.1,0-0.2,0c0,0-0.1,0-0.2,0.1c0,0-0.1,0-0.2,0c-0.1,0-0.2,0-0.2,0c0,0,0,0,0,0c0,0,0,0,0,0c0,0-0.1,0.1-0.1,0.1
	c-0.1,0-0.2,0.1-0.3,0.1c0,0-0.1,0-0.1,0c0,0-0.1,0-0.1,0.1c-0.1,0-0.2,0.1-0.2,0.1c-0.1,0-0.1,0.1-0.2,0.1c0,0,0,0,0,0
	c0,0,0,0-0.1,0.1c-0.1,0.1-0.2,0.1-0.2,0.1c0,0,0-0.1,0-0.1c0,0,0,0,0.1,0c0,0,0,0,0,0c0,0-0.1,0,0,0c0,0,0,0,0,0
	c0,0,0.1-0.1,0.1-0.1c0,0-0.1,0-0.1,0c-0.2,0-0.5,0-0.5,0c0,0,0,0,0,0c-0.1,0-0.3,0-0.3,0.1c0,0,0,0-0.1,0c0,0-0.1,0-0.1,0
	c0,0,0,0-0.1,0c0,0-0.1,0-0.1,0c0,0-0.1,0-0.1,0c-0.1,0-0.2,0.1-0.3,0.1c0,0-0.1,0.1-0.1,0c0,0,0,0,0,0c0,0-0.1,0-0.1,0
	c0,0-0.1-0.1-0.1,0c-0.1,0.1-0.1,0.1-0.4,0.1c-0.2,0-0.3,0-0.4,0c-0.2,0-0.4,0-0.5,0c0,0,0,0-0.1,0c-0.1,0-0.4,0-0.5,0
	c-0.1,0-0.2,0.1-0.3,0c-0.1,0-0.2,0-0.2,0c0,0-0.1,0-0.1,0c0,0,0,0.1-0.1,0c0,0,0,0-0.1,0c0,0-0.1,0-0.1,0c0,0,0,0,0,0
	c0,0,0,0,0,0.1c0,0-0.1,0-0.1,0c0,0,0,0,0,0c0,0,0,0-0.1,0c0,0-0.1,0-0.1,0c0,0,0,0,0.1,0c0.1,0,0.1,0,0,0c-0.1,0-0.1,0.1-0.1,0.1
	c0,0,0,0-0.1,0c-0.2,0-0.9,0-0.9,0.1c0,0,0.2,0.1,0.2,0.1c0,0,0.1,0,0.1,0c0.1,0,0.1,0,0.1,0c0,0,0,0,0,0c0,0,0,0,0.1,0
	c0,0,0.1,0,0.1,0c0,0,0,0,0,0c0.7,0.1,1.4,0.2,2.1,0.2C14.9,132.4,17.3,131.6,19.2,130.2L19.2,130.2z M9.6,129
	C9.6,129,9.5,129,9.6,129C9.4,129,9.4,129,9.6,129C9.6,129.1,9.6,129.1,9.6,129L9.6,129z M9.4,132C9.4,131.9,9.4,131.9,9.4,132
	c-0.1-0.1-0.2-0.2-0.4-0.2c0,0-0.1,0-0.1,0.1c0,0,0,0.1-0.1,0.1c0,0,0,0,0,0c0.2,0,0.3,0.1,0.5,0.1C9.4,132,9.4,132,9.4,132
	C9.5,132,9.5,132,9.4,132L9.4,132z M8.8,113.1C8.9,113.1,8.9,113.1,8.8,113.1C8.9,113.1,8.9,113.1,8.8,113.1
	C8.9,113.1,8.9,113.1,8.8,113.1c0.1,0.1,0.1,0.1,0.1,0.1c0,0,0.1,0,0.1-0.1c0-0.1,0.1-0.2,0.1-0.2c0,0,0-0.1,0.1-0.1
	c0.1-0.1,0.1-0.1,0.1-0.1c0,0,0,0,0,0c0,0,0,0,0-0.1c0,0,0-0.1,0.1-0.1c0.1,0,0.1-0.1,0.2-0.1c0.1-0.1,0.1-0.1,0,0c0,0.1,0,0.1,0,0
	c0,0,0.1-0.1,0.1-0.1c0.1,0,0.1-0.1,0.2-0.1c0.1-0.1-0.3-0.1-0.3-0.1c0,0,0.5,0,0.5-0.1c0-0.1,0-0.1,0,0c0,0.1,0.3,0,0.6-0.1
	c0.1-0.1,0.2-0.1,0.1-0.1c0,0-0.1,0-0.1,0c-0.1,0-0.1,0,0,0c0,0,0.1,0,0.1-0.1c0,0,0-0.1,0,0c0,0,0,0,0,0.1c0,0,0.2,0.1,0.2,0
	c0-0.1-0.1-0.2-0.1-0.2c-0.1,0-0.1-0.1-0.1-0.1c0,0,0,0,0,0c0,0,0.1,0.1,0.1,0.1c0,0,0-0.1,0-0.1c0,0-0.1-0.1-0.1-0.1c0,0,0,0,0.1,0
	c0.1,0,0.2,0,0.2-0.1c0,0,0,0,0.1-0.1c0,0,0,0,0.1,0c0,0,0,0-0.1,0c-0.1,0-0.1-0.1,0-0.1c0,0,0.1,0,0.1,0c0-0.1,0-0.1-0.1-0.1
	c-0.1,0-0.1-0.1,0-0.1c0,0,0,0,0,0c0,0,0,0,0,0c0.1,0,0.1,0,0.1,0c0,0,0,0,0,0c0.1-0.1,0-0.1,0-0.1c0,0-0.1,0-0.1,0c0,0,0,0-0.1,0
	c0,0,0,0,0,0c0,0,0,0,0.1-0.1c0,0,0.1-0.1,0.1-0.1c0,0,0,0,0.1-0.1c0,0,0-0.1,0.1-0.1s0.1,0,0.1,0c0.1-0.1,0.2-0.1,0.3-0.2
	c0,0,0.1,0,0.1,0c0,0-0.1,0-0.1,0c-0.1,0-0.2,0-0.2,0c-0.1,0-0.1,0-0.2,0c0,0-0.1,0-0.2,0c-0.1,0-0.1,0-0.1,0c0,0,0,0,0,0
	c0,0,0,0,0.1-0.1c0-0.1,0-0.1-0.1,0c-0.1,0-0.1,0-0.1,0c0,0,0.1,0,0.1,0c0,0,0.1,0,0.1,0c0,0,0,0-0.1,0c0,0-0.1,0-0.1,0
	c-0.2-0.1-0.5,0-0.7,0c-0.1,0-0.1,0-0.1,0.1c0,0-0.1,0-0.2,0c-0.1,0-0.2,0-0.2,0c0.1,0,0.1,0.1,0,0.1c0,0,0,0,0,0c0,0,0,0-0.2,0
	c-0.2,0-0.2,0-0.2,0c0,0.1,0,0.1-0.1,0c0,0-0.1,0-0.1,0c0,0,0,0,0,0c0-0.1-0.4,0.1-0.5,0.1c0,0,0,0-0.1,0.1c-0.1,0-0.3,0.1-0.3,0.2
	c0,0,0,0,0,0c0,0,0.1,0,0.1,0c0,0-0.1,0.1-0.2,0.1C8.1,110.9,8,111,8,111c0,0,0.2,0.1,0.2,0c0,0,0,0,0,0c0,0-0.1,0-0.1,0.1
	c-0.1,0-0.1,0-0.1,0c0,0,0,0,0.1,0.1c0,0,0.1,0,0.2,0c0.2,0,0.4,0,0.4,0.1c0,0,0,0,0,0c0,0,0,0.1,0,0.1c0,0.1,0,0.1,0,0.2
	c-0.1,0.1-0.1,0.1,0,0.1c0.1,0,0.1,0,0.1,0c0,0.1,0,0.1,0,0.1c0,0-0.1,0-0.1,0c0,0-0.1,0,0,0c0,0,0,0,0,0c0,0,0,0,0,0.1c0,0,0,0,0,0
	c0,0,0,0,0,0.1c0,0.1,0,0.1,0.1,0.1c0,0,0,0,0.1,0c0,0,0,0,0,0c0,0,0,0,0,0c0,0,0.1,0,0.1,0.1c0,0,0,0,0,0c0,0,0,0,0,0.1
	c0,0.1-0.1,0.1-0.1,0.1c0,0-0.1,0-0.1,0.1c-0.1,0.1-0.1,0.1-0.1,0.1c0,0,0,0,0,0.1c0,0,0,0,0,0.1c0,0,0,0.1,0,0.1c0,0.1,0,0.1,0.1,0
	c0.1,0,0.1,0,0,0c-0.1,0.1-0.1,0.1,0,0.3C8.7,113.1,8.7,113.1,8.8,113.1L8.8,113.1z M8.4,131.8C8.4,131.7,8.4,131.7,8.4,131.8
	C8.4,131.7,8.4,131.7,8.4,131.8c-0.1,0-0.1,0-0.1,0C8.4,131.7,8.4,131.7,8.4,131.8L8.4,131.8z M8.1,130.3C8,130.3,8,130.3,8.1,130.3
	C8,130.4,8.1,130.4,8.1,130.3C8.1,130.4,8.1,130.4,8.1,130.3C8.1,130.3,8.1,130.3,8.1,130.3L8.1,130.3z M8.2,131.1
	C8.2,131.1,8.2,131.1,8.2,131.1c-0.1-0.1-0.1-0.1-0.1-0.1c0,0,0,0,0,0c0,0,0,0,0-0.1c0,0,0-0.1-0.1-0.1c0,0,0,0,0,0
	c0,0-0.2-0.2-0.2-0.2c0,0,0,0-0.1-0.1c0,0,0-0.1,0-0.1c0-0.1,0.1-0.1,0.1-0.1c0,0,0,0,0,0c0-0.1,0.1-0.1,0.1-0.1c0,0,0,0,0,0
	c0,0,0,0,0,0c0,0,0,0,0.1,0c0,0,0,0-0.1,0c0,0-0.1,0-0.1,0c0,0,0,0-0.1,0c-0.1,0-0.2,0.1-0.2,0.1c0,0-0.1,0-0.1,0.1
	s-0.1,0.1-0.1,0.1c0,0,0,0,0,0c0,0,0,0,0,0.1c0,0.1,0,0.1,0,0.1c-0.1,0-0.1,0,0.1,0.2c0,0,0.1,0.1,0.1,0.1c0,0,0,0.1-0.2,0
	c-0.2,0-0.2,0-0.2-0.1c0,0,0,0-0.1,0c0,0,0,0,0,0c0,0,0,0,0,0c0,0,0,0-0.1,0c0,0-0.1,0-0.1-0.1c0,0-0.1,0-0.1-0.1c0,0-0.1,0-0.1,0
	c0,0,0,0-0.1,0c-0.1,0-0.1-0.1-0.1-0.1c0,0-0.1,0-0.1,0c0,0-0.1,0-0.1,0c0,0,0,0-0.1,0c-0.2-0.1-0.5-0.2-0.7-0.3c0,0-0.1,0,0,0
	c0,0,0,0,0.1,0.1c0.1,0,0.1,0,0.1,0.1c0,0,0,0-0.1,0c0,0-0.1,0,0,0c0,0,0,0,0.1,0.1c0,0,0,0,0,0c0,0,0,0,0,0
	c0.4,0.3,0.9,0.6,1.4,0.8c0,0,0,0,0,0c0,0-0.1,0-0.1-0.1c0,0-0.1,0-0.1-0.1c0,0,0,0,0.1,0c0.2,0.1,0.4,0.2,0.4,0.1c0,0,0,0-0.1-0.1
	c-0.1-0.1-0.3-0.2-0.3-0.2c0,0,0.1,0,0.1,0.1c0.1,0.1,0.3,0.1,0.4,0.1c0,0,0.1,0,0.2,0c0.1,0,0.1,0,0.1,0c0,0,0,0,0,0
	C8.1,131.2,8.1,131.2,8.2,131.1C8.2,131.2,8.2,131.2,8.2,131.1c-0.1,0-0.1,0-0.1,0C8.1,131.1,8.1,131.1,8.2,131.1
	C8.2,131.1,8.2,131.1,8.2,131.1L8.2,131.1z M7.8,131.5C7.8,131.5,7.7,131.5,7.8,131.5C7.8,131.5,7.8,131.5,7.8,131.5
	C7.8,131.5,7.9,131.5,7.8,131.5C8,131.5,7.9,131.5,7.8,131.5L7.8,131.5z M5.8,130.3C5.8,130.2,5.7,130.2,5.8,130.3
	C5.8,130.3,5.8,130.3,5.8,130.3C5.8,130.3,5.8,130.3,5.8,130.3c0,0,0.1,0.1,0.1,0.1C6.1,130.4,6,130.3,5.8,130.3L5.8,130.3z
	 M5.9,127.5C5.9,127.5,5.8,127.5,5.9,127.5C5.9,127.5,5.9,127.6,5.9,127.5C5.9,127.6,5.9,127.5,5.9,127.5
	C5.9,127.5,5.9,127.5,5.9,127.5L5.9,127.5z M6.3,130.5C6.3,130.5,6.3,130.5,6.3,130.5C6.3,130.5,6.3,130.5,6.3,130.5
	C6.3,130.5,6.3,130.5,6.3,130.5C6.3,130.5,6.3,130.5,6.3,130.5L6.3,130.5z M6.5,128.6C6.5,128.6,6.5,128.6,6.5,128.6
	C6.5,128.6,6.5,128.6,6.5,128.6C6.5,128.6,6.6,128.6,6.5,128.6L6.5,128.6z M6.6,128.6C6.6,128.6,6.6,128.6,6.6,128.6
	C6.6,128.7,6.6,128.7,6.6,128.6C6.7,128.6,6.7,128.6,6.6,128.6L6.6,128.6z M7.1,130.7C7,130.7,7,130.7,7.1,130.7
	C7,130.8,7.1,130.8,7.1,130.7C7.1,130.8,7.1,130.8,7.1,130.7C7.1,130.8,7.1,130.7,7.1,130.7L7.1,130.7z M7.5,130.5
	C7.5,130.5,7.5,130.5,7.5,130.5C7.5,130.4,7.5,130.4,7.5,130.5C7.4,130.5,7.5,130.5,7.5,130.5L7.5,130.5z M7.2,130.6
	C7.2,130.6,7.2,130.6,7.2,130.6C7.2,130.6,7.2,130.6,7.2,130.6C7.1,130.6,7.1,130.6,7.2,130.6L7.2,130.6z M7.1,130.6
	C7.1,130.7,7.2,130.7,7.1,130.6C7.3,130.7,7.3,130.7,7.1,130.6C7.2,130.6,7.1,130.6,7.1,130.6L7.1,130.6z M7.5,130.8
	C7.4,130.9,7.4,130.9,7.5,130.8c0.2,0.1,0.3,0,0.1-0.2c-0.1-0.1-0.1-0.1-0.2-0.1c0,0,0,0,0,0.1c0,0,0,0.1,0,0.1c0,0,0,0,0,0
	c0.1,0,0.1,0,0,0c0,0-0.1,0-0.1,0c0,0,0,0-0.1,0c0,0,0,0,0,0c0,0,0,0,0.1,0C7.4,130.8,7.4,130.8,7.5,130.8
	C7.5,130.8,7.5,130.8,7.5,130.8L7.5,130.8z M7.7,130.3C7.7,130.3,7.7,130.3,7.7,130.3C7.7,130.3,7.7,130.3,7.7,130.3
	C7.7,130.3,7.7,130.3,7.7,130.3L7.7,130.3z M4.5,119.3c0,0,0.2,0.1,0.2,0.1c0,0,0.1,0,0.1,0c0.1,0,0.1,0,0.1,0c0,0,0-0.1-0.1-0.1
	c-0.1-0.1-0.3-0.1-0.3-0.1C4.7,119.2,4.6,119.3,4.5,119.3C4.5,119.2,4.5,119.2,4.5,119.3L4.5,119.3z M4.5,118.4
	C4.5,118.4,4.5,118.4,4.5,118.4C4.5,118.3,4.5,118.3,4.5,118.4C4.5,118.3,4.5,118.3,4.5,118.4C4.5,118.4,4.5,118.4,4.5,118.4
	L4.5,118.4z M4.3,119.3c0-0.1-0.1-0.1-0.1,0C4.2,119.3,4.2,119.3,4.3,119.3C4.3,119.3,4.3,119.3,4.3,119.3L4.3,119.3z M4.3,119
	C4.3,119,4.3,119,4.3,119c0.2,0.1,0.3,0,0.2,0c0,0-0.1-0.1-0.1-0.1c-0.2-0.3-0.3-0.3-0.4-0.3c0,0-0.1,0.1-0.1,0.1c0,0.1,0,0.1,0,0
	c0,0,0.1,0,0.1-0.1c0,0,0.1,0,0.1,0c0,0,0,0,0,0c0,0,0.1,0,0,0c0,0,0,0,0,0c0,0,0,0,0,0.1C4.3,118.9,4.3,118.9,4.3,119
	C4.4,118.9,4.4,118.9,4.3,119L4.3,119z M5.1,119.3C5.1,119.3,5,119.3,5.1,119.3C5,119.4,5,119.4,5.1,119.3
	C5.1,119.4,5.1,119.4,5.1,119.3C5.2,119.3,5.1,119.3,5.1,119.3L5.1,119.3z M5.2,120.5C5.2,120.5,5.2,120.5,5.2,120.5
	C5.2,120.5,5.2,120.5,5.2,120.5C5.2,120.5,5.2,120.5,5.2,120.5C5.2,120.5,5.2,120.5,5.2,120.5z M6.9,115.3
	C6.9,115.3,6.9,115.3,6.9,115.3C6.8,115.2,6.8,115.3,6.9,115.3C6.8,115.3,6.9,115.4,6.9,115.3C6.9,115.3,6.9,115.3,6.9,115.3
	L6.9,115.3z M7.1,114.9C7.1,114.8,7,114.8,7.1,114.9C7,114.9,7.1,114.9,7.1,114.9C7.2,115,7.2,115,7.1,114.9L7.1,114.9z M7.8,114.9
	C7.7,114.9,7.7,114.9,7.8,114.9c-0.1-0.1-0.1-0.1-0.1-0.1c0,0,0,0,0.1-0.2c0.1-0.1,0-0.1-0.1,0c-0.1,0.1-0.1,0.1-0.1,0.2
	c0,0-0.1,0.1-0.1,0.1c0,0,0,0,0,0.1c0,0,0,0.1,0,0.1c0,0,0,0,0,0c0,0,0.1,0,0.2,0c0.1,0,0.2,0,0.1,0c-0.1,0.1,0,0.1,0.1-0.1
	c0.1-0.1,0.1-0.1,0.1-0.1C7.7,115,7.8,115,7.8,114.9C7.8,114.9,7.8,114.9,7.8,114.9L7.8,114.9z M7.8,115.1
	C7.8,115.1,7.8,115.1,7.8,115.1c-0.1,0.1-0.1,0.1-0.1,0.1c0,0,0,0,0.1,0C7.8,115.2,7.8,115.2,7.8,115.1
	C7.8,115.2,7.8,115.1,7.8,115.1L7.8,115.1z M6,114.4C6,114.4,6,114.4,6,114.4C6,114.4,6,114.4,6,114.4C6,114.5,6,114.5,6,114.4
	C6,114.4,6,114.4,6,114.4L6,114.4z M6.4,114C6.3,114,6.3,114,6.4,114C6.3,114,6.3,114,6.4,114C6.4,114,6.4,114,6.4,114
	C6.4,114,6.4,114,6.4,114z M6.6,113.1C6.6,113.1,6.5,113.2,6.6,113.1C6.5,113.2,6.5,113.2,6.6,113.1C6.6,113.2,6.6,113.2,6.6,113.1
	C6.6,113.2,6.6,113.1,6.6,113.1L6.6,113.1z M6.7,113.2C6.7,113.2,6.7,113.2,6.7,113.2C6.7,113.3,6.7,113.3,6.7,113.2
	C6.7,113.3,6.7,113.3,6.7,113.2C6.8,113.2,6.8,113.2,6.7,113.2L6.7,113.2z M6.8,113C6.8,113,6.8,113,6.8,113
	C6.7,113,6.7,113,6.8,113c0-0.1-0.1-0.2-0.1-0.2c0,0,0,0,0,0c0,0,0,0,0,0c0,0,0,0,0,0c0,0-0.1,0.1-0.1,0.1c0,0.1-0.1,0.1-0.1,0.1
	c-0.1,0-0.1,0,0,0c0,0,0.1,0,0.1,0c0,0,0,0,0.1,0c0.1-0.1,0.1-0.1,0.1,0C6.7,113.1,6.8,113.1,6.8,113L6.8,113z M6.9,113
	C6.9,113.1,6.9,113.1,6.9,113C6.9,113.1,6.9,113.1,6.9,113C7,113.1,6.9,113,6.9,113L6.9,113z M7.3,112.3
	C7.2,112.3,7.2,112.4,7.3,112.3C7.2,112.4,7.3,112.3,7.3,112.3C7.4,112.2,7.4,112.2,7.3,112.3L7.3,112.3z M7.4,112.5
	C7.5,112.5,7.5,112.5,7.4,112.5C7.5,112.5,7.5,112.4,7.4,112.5C7.4,112.4,7.4,112.5,7.4,112.5L7.4,112.5z M7.5,112.4
	C7.5,112.4,7.4,112.4,7.5,112.4c-0.2,0.1-0.3,0.2-0.2,0.2C7.3,112.6,7.4,112.5,7.5,112.4C7.4,112.4,7.5,112.4,7.5,112.4L7.5,112.4z
	 M3.2,114.8C3.2,114.8,3.2,114.8,3.2,114.8c0.1-0.1,0.1-0.2,0.1-0.2c0,0,0,0,0,0C3.2,114.7,3.2,114.8,3.2,114.8L3.2,114.8z M3,114.3
	C3,114.3,3,114.3,3,114.3C3,114.3,3,114.3,3,114.3C2.9,114.4,2.9,114.4,3,114.3c-0.1,0.1-0.2,0.2-0.1,0.1C2.9,114.4,3,114.4,3,114.3
	C2.9,114.4,3,114.4,3,114.3L3,114.3z M5.7,128.6C5.7,128.6,5.7,128.5,5.7,128.6C5.7,128.5,5.7,128.5,5.7,128.6
	C5.7,128.6,5.7,128.6,5.7,128.6C5.8,128.6,5.8,128.6,5.7,128.6c0.1,0.1,0.1,0.1,0.1,0.1c0,0,0,0,0,0c0,0,0,0,0.1,0c0,0,0.1,0,0.1,0
	c0,0,0,0,0.1,0c0,0,0.1,0,0,0c0,0,0,0,0,0c0,0,0.1,0,0.1,0c0.1,0,0.1,0,0-0.1c-0.1,0-0.2-0.2-0.3-0.2c0,0,0-0.1-0.1-0.1
	c0,0-0.1,0,0,0c0,0,0,0,0-0.1c-0.1-0.1-0.1-0.1,0-0.1c0,0,0,0,0-0.1c0,0,0-0.1,0-0.1c0.1,0,0.1-0.1,0-0.1c-0.1,0-0.2-0.2-0.1-0.2
	c0,0,0.1,0,0.1,0c0-0.1,0-0.2,0-0.2c0,0,0,0,0,0c0,0,0,0,0,0c0,0,0-0.1-0.1-0.1c0-0.1,0-0.1,0.1,0c0.1,0,0.1,0,0.1,0
	c0,0,0-0.1,0-0.1c0,0,0,0,0.1,0c0.2,0,0.3,0,0.3-0.1c0-0.1,0-0.2,0-0.2c0,0,0,0,0-0.1c0,0,0-0.1-0.1-0.1c0,0-0.1-0.1-0.1-0.1
	c0,0,0,0,0,0c0,0,0.1,0.1,0.2,0.1c0.1,0,0.2,0,0.2,0c0,0,0.1-0.1,0.1-0.2c0-0.1,0.1-0.2,0.1-0.2c0,0,0,0,0,0.1c0,0,0,0,0,0
	c0,0,0.1-0.1,0.1-0.2c0-0.1,0-0.2,0-0.3c0-0.1,0-0.2,0-0.2c0.1-0.1,0.3-0.2,0.4-0.2c0.1,0,0.2-0.1,0.2-0.1c0,0,0-0.1,0-0.2
	c0-0.1,0-0.1,0-0.2c0,0,0-0.1,0-0.2c0-0.1,0-0.2,0-0.4c0-0.2,0-0.2,0-0.3c0.1-0.2,0.3-0.4,0.3-0.6c0-0.1,0-0.2,0-0.3
	c0-0.1-0.1-0.2-0.1-0.2c0,0-0.2-0.1-0.3-0.2c-0.2-0.2-0.2-0.2-0.3-0.2c-0.1,0-0.2,0-0.2-0.1c0,0-0.1,0-0.1,0c-0.1,0-0.1,0-0.1-0.1
	c0-0.1,0-0.1-0.2-0.2c-0.1,0-0.1-0.1-0.2-0.1c0,0,0,0.1-0.1,0.1c0,0.1-0.1,0.1-0.1,0.1c0,0,0-0.1,0-0.1c0.1-0.1,0-0.2-0.1-0.2
	c-0.1,0-0.1,0-0.1,0.1c0,0.1,0,0.1-0.1,0c0,0,0-0.1,0.1-0.2c0.1-0.1,0.1-0.1,0-0.2c0,0-0.1-0.1-0.1-0.2c0-0.1-0.1-0.2-0.1-0.3
	c-0.1-0.1-0.1-0.2-0.3-0.2c-0.2,0-0.2-0.1-0.3-0.2c0-0.1-0.1-0.2-0.1-0.2c-0.1,0-0.1,0,0-0.1c0-0.1,0-0.1,0-0.1c0,0-0.1-0.1-0.1-0.1
	c0-0.1,0-0.1-0.1,0c-0.1,0-0.1,0-0.1,0c0,0-0.1,0-0.1,0c-0.1,0-0.1,0-0.1-0.1c0-0.1,0-0.1-0.1-0.1c0,0,0,0,0,0c0,0,0,0,0,0
	c0,0,0,0.1,0,0c0,0-0.1,0-0.1,0c-0.1,0.1-0.1,0,0-0.1c0.1-0.1,0.1-0.1,0,0c-0.1,0-0.1,0.1-0.1,0.1c0,0,0,0-0.1,0c0,0,0,0-0.1,0
	c0,0,0,0,0,0c0,0,0,0,0,0.1c0,0-0.1,0.1-0.1,0.2c-0.1,0.1-0.1,0.1-0.1,0c0-0.1-0.1-0.1-0.2-0.1c-0.1,0.1-0.1,0-0.1,0
	c0,0,0-0.1,0-0.2c0-0.1,0-0.1,0.1-0.4c0.1-0.2,0.1-0.3,0.1-0.3c0-0.1,0-0.1-0.2-0.1c-0.2,0-0.2,0-0.1-0.1c0,0,0.1-0.1,0.1-0.2
	c0-0.1,0.1-0.1,0.1-0.1c0,0,0,0,0.1-0.1s0.1-0.1,0.1-0.2c0.1-0.1,0.1-0.2,0-0.1c-0.1,0-0.2,0.1-0.2,0.2c0,0.1-0.1,0.2-0.2,0.2
	c0,0,0,0-0.1,0c-0.1,0-0.2,0-0.1-0.3c0-0.2,0-0.2,0.1-0.4c0.1-0.1,0.1-0.2,0.1-0.3c0,0,0-0.1,0.1-0.1c0-0.1,0.2-0.3,0.2-0.3
	c0,0,0.1,0,0.1-0.1c0.1-0.1,0.2-0.1,0.3,0c0.1,0,0.1,0,0.1-0.1c0-0.1,0-0.1,0.1-0.1c0.1,0,0.1,0,0.1,0.1c0,0,0,0,0.1,0
	c0.1,0,0.1,0.1,0,0.2c0,0,0,0.1,0,0.2c0,0.1,0,0.1,0,0.1c0,0,0,0.1,0,0.1c0,0,0,0,0.1-0.1c0-0.1,0.1-0.2,0.1-0.5c0-0.1,0-0.1,0-0.2
	c0-0.1,0.1-0.2,0.2-0.2c0,0,0.1,0,0.1-0.1c0-0.1,0.1-0.1,0.1-0.1c0,0,0,0,0.1-0.1c0,0,0.1-0.1,0.1-0.1c0,0,0,0,0.1-0.1
	c0,0,0-0.1,0,0c0,0,0,0,0,0c0,0,0,0,0,0c0,0,0,0,0-0.1c0,0,0-0.1,0-0.1c0-0.1,0.1-0.2,0.1-0.3c0,0,0,0,0,0.1c0,0.1,0,0.1,0,0.1
	c0,0,0.1-0.1,0.1-0.1c0,0,0-0.1,0.1-0.1c0,0,0.1,0,0.1-0.1c0-0.1,0.1-0.1,0.1-0.1c0,0,0.1,0,0,0c0,0,0,0,0.1-0.1
	c0.1,0,0.1,0,0.1-0.1c0-0.1,0.1-0.2,0.2-0.3c0.1,0,0.1-0.1,0.2-0.1c0,0,0.1,0,0.1,0c0,0,0.1,0,0.1,0c0.1,0,0.1,0,0,0
	c0,0-0.1,0.1-0.1,0.1c0,0-0.1,0.1-0.1,0.1c0,0,0.1,0,0.1,0c0,0,0.1-0.1,0.1-0.1c0.1,0,0.2-0.1,0.3-0.2c0,0,0,0,0,0c0,0,0,0,0,0
	c0,0,0,0,0,0c0,0,0,0,0-0.1c0-0.1,0-0.1-0.1,0c-0.1,0.1-0.1,0.1-0.2,0.1c-0.1,0-0.1-0.1-0.1-0.2c0-0.1,0-0.1,0-0.1c0,0,0,0,0,0
	c0,0,0.1-0.1,0.1-0.1c0,0,0-0.1-0.1-0.1c-0.1,0-0.3,0.1-0.4,0.2c-0.1,0.1-0.1,0.1,0-0.1c0.1-0.1,0.2-0.2,0.2-0.2
	c0,0,0.1-0.1,0.2-0.1c0.1,0,0.1-0.1,0.3,0c0.2,0,0.2,0,0.3-0.1c0.1,0,0.2-0.1,0.2-0.1c0.1,0,0.1-0.1,0.2-0.2c0-0.1,0-0.1,0-0.2
	c0,0-0.1-0.1,0-0.1c0,0,0,0,0,0c0,0-0.1,0-0.1,0c0,0,0,0,0,0c0,0,0,0,0,0c0,0,0-0.1,0-0.1c0,0,0-0.1,0-0.1c0,0,0-0.2,0-0.3
	c0-0.1,0-0.1,0-0.2c0,0-0.1,0.1-0.1,0.1c-0.1,0.1-0.2,0.2-0.2,0.1c0,0,0,0-0.1,0c0,0,0,0,0-0.1c0.1-0.1,0.1-0.1,0-0.2c0,0-0.1,0,0,0
	c0,0,0-0.1-0.1-0.1c0,0-0.1,0-0.1,0c0,0-0.1,0-0.1,0c0,0-0.1,0.1-0.1,0.2c-0.1,0.1-0.1,0.2-0.1,0.2c-0.1,0.1-0.1,0.1,0,0.1
	c0,0,0,0.2-0.1,0.3c0,0-0.1,0.1-0.2,0.1c0,0-0.1,0-0.1,0.1c0,0.1,0,0.1,0,0.1c-0.1,0.2-0.1,0.2-0.2,0.3c-0.1,0-0.1,0-0.1-0.1
	c0-0.1,0-0.1,0-0.2c0.1-0.3,0.1-0.3,0-0.3c-0.1,0-0.1,0-0.1,0c0,0,0,0,0,0c0,0,0,0-0.1-0.1c0,0-0.1-0.1-0.1-0.1
	c-0.1,0-0.1,0-0.1-0.1c0-0.1,0-0.1,0-0.1c0,0,0-0.1,0.1-0.3c0.1-0.1,0.3-0.3,0.3-0.3c0,0,0,0,0,0c0,0,0.1-0.1,0.2-0.1
	c0.1,0,0.3-0.3,0.3-0.3c0,0,0,0,0,0c0,0,0.1,0,0.1,0c0,0,0,0,0,0c0,0,0-0.1,0.1-0.1c0,0,0.1,0,0.1-0.1c0,0,0,0,0.1,0c0,0,0,0,0,0
	c0,0,0-0.1,0-0.1c0,0,0,0,0,0c0,0,0-0.1,0-0.1c0,0-0.1,0-0.1,0c0,0,0.1,0,0.2,0c0.1,0,0.2,0,0.2-0.1c0-0.1,0-0.1,0.1,0
	c0,0,0,0.1,0,0.1c0,0,0,0,0,0c0,0,0,0,0,0c0,0,0,0,0,0.1c0.1,0.1,0.1,0.2-0.1,0.3c0,0-0.1,0-0.1,0.1c0,0,0,0.1-0.1,0.1
	c0,0-0.1,0-0.1,0c0,0-0.1,0-0.1,0.1c0,0,0,0,0.1,0c0.1,0,0.2,0,0.2,0c0,0,0,0,0,0c0,0,0,0,0,0c0,0,0,0.1,0.1,0.1c0,0,0,0,0,0
	c0,0,0,0,0.1,0.1c0,0,0.1,0,0.1,0c0.1,0,0.1-0.1,0-0.1c-0.1-0.1,0-0.1,0.1,0c0.1,0.1,0.1,0.1,0.1,0c0-0.1,0.1-0.1,0.1-0.1
	c0,0,0-0.1,0-0.1c0,0,0,0,0-0.1c0-0.1,0-0.1,0-0.1c0.1-0.1,0.1,0,0.1,0.1c0,0.1,0.1,0.1,0.1,0c0,0,0,0,0,0c0,0,0.1,0,0.1-0.1
	c0,0,0.1-0.1,0.1-0.1c0,0,0,0-0.1,0c0,0-0.1,0-0.1-0.1c0,0,0,0-0.1-0.1c-0.1,0-0.2-0.1-0.1-0.2c0,0,0,0,0,0c0,0,0,0,0,0
	c0,0,0,0,0.1,0c0,0,0,0,0,0c0,0,0,0,0,0c0,0,0,0-0.1,0c0,0,0,0,0,0c0,0-0.1-0.1-0.1,0c0,0,0,0-0.1,0c0,0,0-0.1-0.1-0.1c0,0,0,0,0,0
	c0-0.1,0-0.1-0.1-0.1c-0.1,0-0.1,0-0.1,0.1c0,0,0,0,0,0c0,0,0,0-0.1,0c-0.1,0-0.2,0.1-0.2,0.2c0,0,0,0.1,0,0.1c0,0,0,0,0,0
	c0,0,0,0-0.1,0c0,0,0-0.1,0-0.1c0,0,0-0.1,0-0.1c0,0,0,0,0.1-0.1c0.1,0,0.1,0,0,0c-0.1,0-0.2,0.1-0.3,0.2c-0.1,0.1-0.1,0.1-0.1,0.2
	c0,0.1,0,0.1,0.1,0.1c0.1,0,0.1,0,0.1,0c0,0-0.1,0.1-0.1,0.1c0,0,0,0-0.1,0.1c0,0-0.1,0.1-0.1,0.1c0,0,0,0,0,0c0,0.1-0.1,0.1-0.1,0
	c0,0,0-0.1,0-0.1c0,0,0,0,0-0.1c0,0,0,0-0.1,0c-0.1,0.1-0.1,0.1-0.1,0c0,0,0-0.1,0-0.1c0,0,0,0,0-0.1c0,0,0-0.2,0-0.2
	c0,0,0,0,0.1-0.1c0,0,0.1-0.1,0.1-0.1c0,0,0.2-0.1,0.2-0.2c0,0-0.3,0-0.3,0.1c0,0,0,0-0.1,0.1c0,0.1-0.1,0.1-0.1,0.2
	c0,0-0.1,0.1-0.1,0.1c0,0.1,0,0.1,0,0.1c0,0,0,0,0,0c0,0,0,0,0,0c0,0,0,0.1-0.1,0.1c0,0-0.1,0-0.1,0.1c0,0,0,0.1-0.1,0
	c0,0,0,0,0-0.1c0,0,0-0.1,0-0.1c0,0,0,0,0,0c0,0,0,0,0.1,0c0,0,0,0,0-0.1c0-0.1-0.1-0.1-0.1,0c-0.1,0.1-0.1,0.1,0,0.1c0,0,0,0,0,0.1
	c-0.1,0.1-0.3,0.1-0.3,0c0,0-0.2,0-0.2,0c0,0,0,0,0.1,0c0,0,0.1,0,0.1,0c0,0,0,0-0.1,0c-0.1,0-0.1,0-0.1,0.1c0,0,0,0.1-0.1,0.1
	c0,0,0,0,0,0c0-0.1,0-0.1-0.2,0c-0.1,0-0.1,0-0.1,0c0,0,0,0,0.1,0c0.1,0,0-0.1-0.1,0c0,0-0.1,0-0.1,0c0,0-0.1,0-0.1,0
	c0,0-0.1,0-0.1,0c0,0,0,0,0,0c-0.1,0.1-0.1,0.1-0.1,0c0,0,0,0,0,0c0,0-0.1,0.1-0.1,0.1c-0.1,0-0.2,0.1-0.3,0.2c0,0-0.1,0-0.1,0
	c-0.1,0,0-0.1-0.2,0c0,0-0.1,0-0.1,0c0,0,0,0-0.1,0c0,0,0,0,0,0c0,0,0,0,0,0c0,0-0.1,0-0.1,0.1c-0.1,0-0.1,0.1-0.1,0.1
	c-0.1,0.1-0.2,0.2-0.3,0.3c0,0,0,0,0,0c0,0,0,0,0,0.1c0,0,0,0,0,0l-0.1,0.1c0,0,0,0,0,0c0,0,0,0,0,0c0,0,0,0.1,0,0.1
	c0,0-0.1,0.1-0.1,0.1c-0.1,0.1-0.2,0.2-0.2,0.4c0,0,0,0,0,0.1c0,0.1,0,0.1,0,0c0,0,0,0,0,0c0,0,0,0,0,0c0,0,0,0,0,0c0,0,0,0,0,0.1
	c0,0-0.1,0.1-0.2,0.2c0,0-0.1,0.1-0.1,0.1c0,0,0,0,0,0c0,0,0,0,0,0c0,0,0,0,0,0c0,0,0,0,0.1,0c0,0,0.1-0.1,0.1-0.1
	c0,0,0.1-0.1,0.1-0.1c0,0,0,0,0,0c0,0,0-0.1,0.1-0.1c0,0,0.1-0.1,0.1-0.1c0,0,0,0,0,0c0,0,0-0.1,0.1-0.1c0,0,0,0,0.1,0
	c0,0,0.2-0.1,0.2-0.2c0,0,0,0,0,0c0,0-0.2,0.2-0.1,0.2c0,0,0,0,0,0c-0.1,0.1,0,0,0.1,0c0,0,0.1-0.1,0.1-0.1c0,0,0,0,0.1-0.1
	c0-0.1,0-0.1,0.1,0c0,0,0,0,0,0c0,0,0,0.1,0,0.1c0,0,0,0,0.1,0c0,0,0,0,0,0c0,0.1-0.1,0.2-0.1,0.2c0,0,0.1-0.2,0.1-0.2c0,0,0,0,0,0
	c0,0,0,0,0,0c0,0,0,0,0,0c0,0,0,0.1,0,0.1c0,0,0,0,0,0.1c0,0,0,0,0,0c0,0,0,0,0-0.1c0,0,0,0,0,0c0,0-0.1,0.1-0.1,0.1c0,0,0,0,0,0
	c0,0,0,0,0,0c0,0,0,0,0,0c0,0,0,0.1,0,0.1c0,0,0,0,0,0c0,0,0-0.1,0,0c0,0,0,0,0,0c0-0.1,0-0.1,0-0.1c0,0,0,0,0,0c0,0,0,0.2,0,0.1
	c0,0,0,0-0.1,0.1c-0.1,0.1-0.1,0.1,0,0.1c0,0,0,0,0,0c0,0.1-0.1,0.1,0,0.1c0,0,0,0,0,0c0,0,0,0.1,0,0.1c0,0,0,0.1,0,0.1c0,0,0,0,0,0
	c0,0,0,0-0.1,0c0,0,0,0,0,0c0,0,0,0.3,0.1,0.2c0,0,0,0,0-0.1c0-0.1,0-0.1,0-0.1c0,0,0,0,0,0c0,0,0,0,0,0c0,0,0,0.1,0,0.2
	c0,0.1,0,0.1-0.1,0c0,0,0,0,0,0.1c0,0.1-0.1,0.1-0.2,0.3c-0.1,0.2-0.3,0.4-0.3,0.7c0,0,0,0,0,0.1c0,0.1-0.1,0.2,0,0.2c0,0,0,0,0,0
	c0,0-0.1,0.1-0.1,0.2c0,0.1,0,0.2,0,0.2c0,0,0,0,0,0c0.1,0,0.1,0.1,0,0.3c0,0.1-0.1,0.3-0.1,0.3c0,0.1,0,0.1,0,0.1c0,0-0.1,0,0,0.2
	c0,0,0,0.1,0,0.1c0,0.1,0,0.3,0,0.3c0,0,0-0.1,0-0.1c0,0,0-0.1,0-0.2c0-0.1,0-0.2,0-0.2c0,0,0-0.1,0-0.2c0-0.1,0-0.2,0-0.2
	c0,0,0-0.1,0-0.2c0-0.1,0-0.1,0.1-0.1c0,0,0,0.1,0,0.2c0,0.1,0,0.2,0,0.3c0,0.1,0,0.2,0,0.2c0,0,0,0.1,0,0.2c0,0.2,0,0.4-0.1,0.5
	c0,0,0,0.1,0,0.1c0,0.1,0,0.2,0.1,0.3c0,0,0,0.1,0,0.1c0,0,0.1,0.1,0.1,0.2c0.1,0.1,0.1,0.1,0.2,0.1c0.1-0.1,0.1,0,0.1,0.1
	c0,0.1,0.1,0.3,0.2,0.3c0,0,0,0,0,0c0,0,0,0.1,0,0.2c0,0.1,0,0.2,0,0.2c0,0.1,0,0.1,0,0.1c0.1,0,0.1,0.1,0.1,0.2
	c0,0.1,0,0.1,0.1,0.1c0,0,0.1,0,0.1,0.1c0,0.1,0.1,0.1,0.1,0c0-0.1,0.1-0.2,0.1-0.2c0,0,0,0.1,0,0.2c0,0.2-0.1,0.7-0.1,0.7
	c0,0,0,0,0,0.1c0,0.1,0,0.1,0,0.1c0,0-0.1,0.3-0.1,0.4c0,0,0,0.1,0.1,0.1c0,0,0.1,0.1,0,0.2c-0.1,0.1,0,0.3,0.1,0.4
	c0,0.1,0.1,0.2,0.2,0.4c0.1,0.2,0.2,0.4,0.2,0.5c0,0.1,0.1,0.2,0.1,0.2c0,0.1,0.1,0.3,0.3,0.4c0.2,0.1,0.3,0.3,0.3,0.6
	c0.1,0.3,0.1,0.6,0.1,0.9c0,0.1,0,0.2,0,0.2c0,0,0,0.1,0,0.1c0,0,0,0.1,0,0.2c0.1,0.1,0.1,0.3,0,0.5c0,0.1,0,0.2,0,0.3
	c0,0.1,0,0.1,0,0.1c0,0,0,0.1,0,0.2c0,0.1,0,0.1,0,0.2c0,0,0,0.1,0,0c0,0,0,0,0-0.1c0-0.1,0-0.1,0-0.1c0,0,0.1,0.1,0.1,0.3
	c0,0,0,0.1,0,0.1c0,0.1,0,0.1,0,0.1c0,0-0.1,0-0.1,0c0,0,0,0,0,0c0.1,0,0.1,0,0.2,0.2c0,0,0,0-0.1,0c0,0-0.1-0.1-0.1,0c0,0,0,0,0,0
	c0,0,0,0.1,0.1,0.1c0,0.1,0,0.1,0,0c0,0,0,0,0,0c0,0,0,0.1,0,0.2c0,0,0,0,0,0c0,0,0.1,0,0.1,0.1c0,0.1,0.1,0.1,0.1,0.1c0,0,0,0,0,0
	s0,0,0.1,0C5.6,128.6,5.6,128.6,5.7,128.6C5.6,128.7,5.6,128.7,5.7,128.6C5.7,128.7,5.7,128.6,5.7,128.6L5.7,128.6z M2.7,121.8
	C2.7,121.7,2.7,121.7,2.7,121.8C2.7,121.7,2.7,121.7,2.7,121.8C2.7,121.8,2.7,121.8,2.7,121.8C2.7,121.8,2.7,121.8,2.7,121.8
	L2.7,121.8z M1.1,118.7C1.1,118.7,1.1,118.7,1.1,118.7c0,0.1,0,0.1,0,0.1C1.1,118.8,1.1,118.8,1.1,118.7
	C1.1,118.7,1.1,118.7,1.1,118.7L1.1,118.7z M4.7,112.4C4.8,112.4,4.8,112.4,4.7,112.4c0.1,0.1,0.2,0,0.2,0c0,0,0.1-0.1,0.2-0.1
	c0,0,0,0,0.1,0c0,0,0,0-0.1,0.1c0,0,0,0-0.1,0.1c0,0,0,0,0,0c0.1,0,0.1,0,0,0c0,0-0.1,0-0.1,0c0,0,0,0,0.1,0c0.1,0,0.1,0,0.1,0
	c0,0,0,0-0.1,0c0,0-0.1,0-0.1,0c0,0,0,0-0.1,0c0,0,0,0,0,0c0,0,0,0,0.1,0c0,0,0,0,0,0c0,0,0.3-0.1,0.3-0.1c0,0,0.1,0,0.1,0
	c0.1,0,0.2,0,0.2-0.1c0,0,0,0,0,0c0,0,0,0,0.1,0c0,0,0,0,0,0c0,0,0,0-0.1,0c0,0,0,0,0-0.1c0-0.1,0-0.1,0.1-0.2c0,0,0.1-0.1,0.1-0.1
	c0,0-0.1,0-0.1,0c0,0,0,0-0.1,0c0,0,0,0-0.1,0.1c0,0.1-0.1,0.1-0.1,0c0-0.1,0-0.1-0.1,0c0,0,0,0,0,0c0,0,0,0-0.1,0c-0.1,0-0.1,0,0,0
	c0,0,0,0,0,0c0,0,0,0,0,0c0,0,0-0.1-0.1-0.1c0,0-0.1,0-0.1,0c0,0-0.1,0-0.1,0c0,0-0.1,0-0.1,0.1c0,0,0,0-0.1,0.1
	C4.8,112.4,4.8,112.4,4.7,112.4L4.7,112.4z M5.2,111.9C5.2,111.9,5.2,111.9,5.2,111.9c0.1,0,0.1,0,0.1,0c0,0,0,0,0,0c0,0,0,0,0.1,0
	c0,0,0.1,0,0,0c0,0,0.1,0,0.1-0.1c0.1-0.1-0.1,0-0.3,0.1C5.3,111.9,5.2,111.9,5.2,111.9L5.2,111.9z M5.4,111.9
	C5.4,111.9,5.4,111.9,5.4,111.9C5.4,111.9,5.3,111.9,5.4,111.9C5.3,112,5.3,112,5.4,111.9L5.4,111.9z M5.6,111.8
	c-0.1,0-0.1,0-0.2,0.1L5.4,112c0,0,0,0,0,0c0,0,0,0,0.1,0c0,0,0,0,0.1,0c0,0,0,0,0,0c0,0,0,0,0,0c0,0,0,0,0,0c0,0,0,0,0.1-0.1
	c0.1,0,0.2-0.1,0.2-0.1c0.1,0,0.1-0.1,0.2-0.1c0,0,0,0,0,0c-0.1,0-0.1,0-0.1,0c0-0.1,0-0.1-0.1,0c0,0,0,0,0,0.1c0,0,0,0-0.1,0.1
	C5.7,111.8,5.7,111.8,5.6,111.8C5.7,111.8,5.6,111.8,5.6,111.8L5.6,111.8z M5.7,111.6C5.7,111.6,5.7,111.6,5.7,111.6
	C5.7,111.6,5.7,111.6,5.7,111.6C5.7,111.6,5.7,111.6,5.7,111.6L5.7,111.6z M5.8,111.6C5.8,111.6,5.9,111.6,5.8,111.6
	C5.9,111.5,5.9,111.5,5.8,111.6C5.8,111.6,5.8,111.6,5.8,111.6C5.7,111.6,5.8,111.6,5.8,111.6L5.8,111.6z M5.9,111.5
	C6,111.5,6,111.5,5.9,111.5C6,111.5,6,111.5,5.9,111.5C6,111.5,5.9,111.5,5.9,111.5C5.8,111.5,5.8,111.5,5.9,111.5z M6,111.8
	C6.1,111.7,6.1,111.7,6,111.8C6,111.7,6,111.7,6,111.8C6,111.8,6,111.8,6,111.8L6,111.8z M6.1,111.9C6.1,111.9,6.1,111.9,6.1,111.9
	C6,112,6,112,6.1,111.9C6,112,6,112,6,112c0,0,0,0,0,0c0,0,0,0,0.1,0.1c0,0,0,0,0.1,0c0,0,0,0,0.1,0c0.1,0,0.1-0.1,0.1-0.1
	c0,0,0,0,0-0.1c0,0,0.1-0.1,0-0.1C6.3,111.8,6.2,111.8,6.1,111.9C6.1,111.9,6,111.9,6.1,111.9L6.1,111.9z M6.1,111.6
	C6.1,111.6,6.1,111.7,6.1,111.6C6.1,111.6,6.1,111.7,6.1,111.6c0,0.1,0.1,0.1,0.1,0c0.1,0,0.1,0,0,0c0,0,0,0.1,0,0
	c0.1,0,0.1-0.1,0.2-0.2c0-0.1,0-0.1,0,0c-0.1,0-0.1,0-0.1,0c0,0,0,0,0,0c0,0,0,0,0,0C6.2,111.6,6.2,111.6,6.1,111.6
	C6.1,111.6,6.1,111.6,6.1,111.6L6.1,111.6z M6.1,111.5C6.1,111.5,6.2,111.5,6.1,111.5C6.1,111.5,6.1,111.5,6.1,111.5
	C6.1,111.5,6.1,111.6,6.1,111.5L6.1,111.5z M6.3,111.4C6.3,111.3,6.3,111.3,6.3,111.4C6.2,111.4,6.2,111.4,6.3,111.4
	c0.1,0,0.1,0,0.1,0c0,0,0.1,0,0.1,0c0,0,0-0.1-0.1-0.1C6.4,111.3,6.4,111.3,6.3,111.4C6.3,111.3,6.3,111.3,6.3,111.4
	C6.2,111.4,6.2,111.4,6.3,111.4L6.3,111.4z M6.6,111.6c0,0,0,0-0.1,0c0,0,0,0-0.1,0c0,0,0,0,0,0C6.5,111.7,6.6,111.6,6.6,111.6
	L6.6,111.6z M6.6,111.5C6.7,111.5,6.7,111.5,6.6,111.5C6.7,111.5,6.7,111.6,6.6,111.5c0,0.1,0,0.1,0,0.1c0,0,0.1,0,0.3,0
	c0.2,0,0.3-0.1,0.4-0.1c0,0,0,0,0.1,0c0,0,0,0,0,0c0,0-0.1,0-0.3,0c-0.2,0.1-0.2,0.1-0.3,0C6.8,111.4,6.8,111.4,6.6,111.5
	C6.7,111.4,6.6,111.4,6.6,111.5C6.6,111.4,6.6,111.4,6.6,111.5C6.5,111.5,6.6,111.5,6.6,111.5L6.6,111.5z M6.6,111.3
	C6.6,111.3,6.6,111.4,6.6,111.3C6.6,111.4,6.7,111.4,6.6,111.3c0.2,0,0.2,0,0.1,0C6.7,111.3,6.7,111.3,6.6,111.3
	C6.7,111.3,6.7,111.2,6.6,111.3C6.7,111.3,6.7,111.3,6.6,111.3C6.6,111.3,6.6,111.3,6.6,111.3C6.6,111.3,6.6,111.3,6.6,111.3
	L6.6,111.3z M6.6,111.2C6.6,111.2,6.6,111.2,6.6,111.2C6.6,111.2,6.6,111.1,6.6,111.2C6.6,111.2,6.6,111.2,6.6,111.2L6.6,111.2z
	 M6.9,111.4C6.9,111.4,6.9,111.4,6.9,111.4C6.9,111.4,6.9,111.4,6.9,111.4C6.9,111.4,6.9,111.4,6.9,111.4
	C6.9,111.4,6.9,111.4,6.9,111.4L6.9,111.4z M6.9,111.3C6.9,111.3,7,111.3,6.9,111.3C6.9,111.3,6.9,111.3,6.9,111.3
	C6.9,111.3,6.9,111.3,6.9,111.3L6.9,111.3z M6.9,111.1C6.9,111.1,6.9,111.1,6.9,111.1C6.8,111.2,6.8,111.2,6.9,111.1
	c0.1,0.1,0.1,0.1,0.3,0c0,0,0,0,0,0c-0.1,0,0,0.1,0,0c0,0,0.1,0,0,0c0,0,0,0,0,0c0,0,0,0-0.1,0c-0.1,0-0.1,0-0.1,0c0,0,0,0-0.1,0.1
	c-0.2,0.1-0.1,0.1,0.2,0c0.4-0.1,0.4-0.1,0.4-0.1c0,0,0,0,0,0c0,0,0.1,0,0.1-0.1c0,0,0,0,0.1,0c0,0,0.1,0,0.1-0.1
	c0.1-0.1,0.1-0.1,0,0c-0.1,0,0,0,0-0.1c0.1,0,0.3-0.1,0.4-0.2c0.1,0,0.2-0.1,0.2-0.1c0.1,0,0.1,0,0.1-0.1c0,0,0.1,0,0.1-0.1
	c0.1,0,0.1-0.1,0.2-0.1c-0.3-0.1-0.7,0.1-1,0.1c-0.1,0-0.2,0.1-0.2,0.1c0,0-0.1,0-0.1,0c0,0-0.1,0-0.1,0c0,0-0.1,0.1-0.2,0.1
	c-0.1,0-0.1,0.1-0.1,0.1c0,0,0.1,0,0.1,0c0,0,0,0,0.1,0c0,0,0,0,0,0c0,0,0,0,0,0c0.2,0,0.2-0.1,0.2,0c0,0-0.1,0-0.2,0.1
	c-0.1,0-0.2,0-0.2,0.1c0,0,0,0,0,0c0,0,0,0,0,0c0,0,0,0,0,0c0,0-0.1-0.1-0.2,0c-0.1,0-0.1,0-0.1,0.1c0,0,0,0,0,0
	C6.8,111,6.8,111.1,6.9,111.1C6.8,111.1,6.8,111.2,6.9,111.1L6.9,111.1z M9.7,110.1c0,0,0.1,0,0.1,0C9.8,110.1,9.8,110.1,9.7,110.1
	C9.7,110.1,9.7,110.1,9.7,110.1L9.7,110.1z M12,112.5c0,0-0.2-0.2-0.2-0.2c0,0,0,0,0,0c0,0-0.1,0-0.1,0.1c-0.1,0-0.2,0-0.2,0
	c0,0-0.1,0-0.1,0c0,0,0-0.1-0.1,0c-0.1,0-0.1,0.1,0,0.1c0.1,0,0.1,0,0,0.1c0,0,0,0.1,0,0.1c0,0,0,0.1,0,0.1c0,0,0,0,0.1,0
	C11.6,112.7,12,112.6,12,112.5L12,112.5z M10.8,113.5C10.8,113.5,10.8,113.5,10.8,113.5C10.9,113.5,10.9,113.4,10.8,113.5
	C10.8,113.4,10.8,113.5,10.8,113.5C10.8,113.5,10.8,113.5,10.8,113.5L10.8,113.5z M10.8,114.1C10.8,114.1,10.8,114.1,10.8,114.1
	c0-0.1,0.1-0.1,0.1-0.2c0-0.1-0.2-0.1-0.2,0c0,0-0.1,0.1-0.1,0.1c0,0-0.1,0-0.1,0.1c0,0,0,0.1,0,0.1c0,0,0,0,0,0.1
	c-0.1,0.1-0.1,0.1,0,0.1c0,0,0.1,0,0.1,0c0,0,0.1,0,0.1-0.1C10.7,114.3,10.8,114.2,10.8,114.1L10.8,114.1z M11.4,114.3
	c0.1-0.1,0-0.1,0-0.1c0,0-0.1,0-0.1-0.1c0-0.1,0-0.1-0.1-0.1c0,0,0-0.1,0-0.1c0,0,0-0.1-0.1-0.1c0,0,0,0,0-0.1
	c0.1-0.1,0.1-0.2,0-0.2c-0.1,0-0.1,0,0-0.1c0,0,0-0.1,0-0.1c0,0-0.1,0-0.1,0c0,0-0.1,0.1-0.1,0.2c0,0.1-0.1,0.1,0,0.1c0,0,0,0,0,0.1
	c0,0,0,0.1,0,0c0-0.1,0.1-0.1,0,0.1c0,0.1,0,0.1,0,0.1c0.1,0,0.1,0,0.1,0c0,0,0,0.1,0,0.1c0,0,0,0,0,0.1c0,0-0.1,0.1-0.1,0.1
	c-0.1,0-0.1,0,0,0.1c0,0.1,0,0.1,0,0.1c0,0-0.1,0-0.1,0.1c0,0,0,0,0,0c0,0,0.1,0,0.1,0c0.1,0,0.1,0,0,0c0,0-0.1,0-0.1,0.1
	c-0.1,0.1-0.1,0.1,0,0.1c0,0,0.1,0,0.2-0.1c0.1,0,0.2,0,0.2,0c0,0,0.1,0,0.1,0C11.4,114.5,11.4,114.5,11.4,114.3
	C11.4,114.4,11.4,114.4,11.4,114.3L11.4,114.3z M12.1,110.4C12.1,110.4,12.1,110.4,12.1,110.4C12.2,110.4,12.2,110.4,12.1,110.4
	c0,0.1,0.2,0.2,0.2,0.1c0,0,0.1,0,0.1,0c0,0,0,0-0.1,0.1c-0.1,0-0.1,0-0.1,0.1c0,0,0,0,0,0c0,0,0,0,0.1,0.1c0.1,0.1,0.1,0.1,0.1,0
	c0,0,0-0.1,0-0.1c0,0,0,0,0.1-0.1c0,0,0.1-0.1,0.1-0.1c0.1,0,0.1,0.1,0.1,0.1c0,0.1,0.2,0.1,0.2,0c0,0,0,0,0,0c0,0-0.1,0-0.1-0.1
	c-0.1,0-0.1-0.1-0.2-0.1c0,0-0.1,0-0.1-0.1c0,0,0,0,0,0c0,0,0,0,0,0c0,0-0.1-0.1-0.1,0c0,0,0,0,0,0.1c0,0,0,0,0,0
	C12.4,110.3,12.1,110.3,12.1,110.4L12.1,110.4z M12.8,110.4c0.1,0,0.1,0,0.2,0c0.1,0,0.3,0,0.3-0.1c0,0-0.3-0.1-0.3-0.1
	C12.9,110.3,12.8,110.3,12.8,110.4C12.6,110.3,12.6,110.3,12.8,110.4L12.8,110.4z M15,110.6c0,0.1,0,0.1,0.1,0c0,0,0.1,0,0.1,0
	c0,0-0.1,0-0.1,0C15,110.6,15,110.6,15,110.6L15,110.6z M15.3,112.1C15.3,112.1,15.3,112.1,15.3,112.1c0.1,0.1,0.1,0.1,0.1,0
	C15.4,112,15.3,112,15.3,112.1L15.3,112.1z M15.6,111.8C15.6,111.8,15.6,111.8,15.6,111.8c0.1,0.1,0.2,0.1,0.2,0.1c0,0,0.1,0,0.1,0
	c0,0-0.1,0-0.1-0.1c-0.1,0-0.1-0.1-0.1-0.1c0-0.1,0.1-0.3,0.2-0.3c0,0,0,0,0,0c0,0,0.1-0.1,0.3-0.1c0.1,0,0.1,0,0.1,0
	c0,0-0.1-0.1-0.2,0c0,0-0.1,0-0.1,0c-0.2,0-0.4,0.1-0.4,0.1c0,0-0.1,0.1-0.1,0.1c0,0,0,0,0,0.1c0,0,0,0.1,0,0.1c0,0,0,0,0,0.1
	C15.5,111.7,15.5,111.7,15.6,111.8C15.4,111.7,15.5,111.8,15.6,111.8L15.6,111.8z M15.6,110.7C15.6,110.7,15.6,110.7,15.6,110.7
	C15.6,110.7,15.6,110.7,15.6,110.7C15.6,110.7,15.6,110.7,15.6,110.7L15.6,110.7z M15.7,110.7c0,0,0.2,0,0.2,0
	C15.8,110.7,15.8,110.7,15.7,110.7C15.7,110.7,15.7,110.7,15.7,110.7L15.7,110.7z M15.9,110.7C15.9,110.7,16,110.7,15.9,110.7
	C16,110.7,16,110.7,15.9,110.7C16,110.7,15.9,110.7,15.9,110.7C15.9,110.7,15.9,110.7,15.9,110.7z M17.7,111.2
	C17.7,111.2,17.8,111.2,17.7,111.2c0.1,0.1,0.1,0.1,0.3,0.2c0.1,0.1,0.1,0,0.1,0c0-0.1,0-0.1-0.1-0.1c0,0-0.1,0-0.1-0.1
	C17.9,111.1,17.7,111,17.7,111.2C17.6,111.1,17.6,111.1,17.7,111.2C17.6,111.1,17.6,111.1,17.7,111.2
	C17.6,111.2,17.6,111.2,17.7,111.2L17.7,111.2z M18.1,111.5c0.1,0,0.1,0,0.1,0c0.1,0,0.1,0,0.1,0c0,0,0-0.1-0.1-0.1c0,0-0.1,0-0.1,0
	C18.3,111.4,18.2,111.4,18.1,111.5C18.2,111.4,18.1,111.5,18.1,111.5L18.1,111.5z M19,112.1C19,112.1,19,112.1,19,112.1
	C19,112.1,19,112.1,19,112.1C19.1,112.1,19.1,112.1,19,112.1C19.1,112.1,19,112.1,19,112.1L19,112.1z M20.2,112.4
	c0,0,0.3,0.1,0.3,0.1c0,0,0-0.1-0.1-0.1C20.2,112.4,20.2,112.4,20.2,112.4c0-0.1,0-0.1-0.1-0.1C20.1,112.3,20.1,112.4,20.2,112.4
	L20.2,112.4z M20.4,112.6C20.4,112.6,20.4,112.7,20.4,112.6c0.1,0.1,0.1,0.1,0.1,0.1C20.5,112.6,20.4,112.6,20.4,112.6L20.4,112.6z
	 M20.5,112.6C20.5,112.6,20.6,112.6,20.5,112.6C20.6,112.6,20.6,112.6,20.5,112.6C20.5,112.6,20.5,112.6,20.5,112.6
	C20.5,112.5,20.5,112.5,20.5,112.6L20.5,112.6z M22.1,115.5C22.1,115.5,22.1,115.5,22.1,115.5C22.1,115.5,22.1,115.4,22.1,115.5
	C22.1,115.4,22.1,115.4,22.1,115.5L22.1,115.5z M22.1,116.2C22.1,116.1,22,116.1,22.1,116.2c-0.2-0.2-0.2-0.2-0.1-0.1
	C22,116.2,22,116.2,22.1,116.2c-0.1,0.1-0.1,0.2-0.1,0.2c0,0,0,0,0,0c0,0,0,0,0,0c0,0,0,0,0,0c0,0,0,0,0.1,0c0,0,0,0,0,0
	c0,0,0,0,0,0C22.2,116.3,22.1,116.2,22.1,116.2L22.1,116.2z M22.2,116.8c0-0.1,0-0.1-0.1-0.2c0-0.1-0.1-0.1-0.1-0.1c0,0,0,0,0,0
	c0,0,0,0,0,0c0,0,0,0,0,0.2c0,0.1,0.1,0.2,0,0.3c0,0,0,0,0,0c0-0.1,0-0.1,0,0c0,0.2,0,0.2,0,0.2c-0.1,0-0.1,0.1-0.1,0.2
	c0,0.1,0,0.1,0,0.1c0,0,0,0,0,0.1c0,0.1,0.1,0.1,0.1,0c0-0.1,0-0.1-0.1-0.2c0-0.1,0-0.1,0-0.1c0,0,0,0,0,0c0,0,0,0,0,0
	c0,0,0,0,0,0.1c0,0,0,0,0,0.1c0,0.1,0,0.1,0,0c0,0,0,0,0,0c0,0,0,0,0-0.1c0,0,0-0.1,0-0.1c0,0,0,0,0,0.1c0,0.1,0.1,0.1,0,0
	c0-0.1,0-0.1,0-0.1c0,0,0,0,0,0c0,0,0,0,0,0c0,0.1,0,0,0-0.1C22.2,116.9,22.2,116.9,22.2,116.8L22.2,116.8z M22.3,119.8
	c-0.1,0-0.1-0.2-0.1-0.3c0,0,0-0.1,0-0.2c0-0.1,0-0.1-0.1-0.1c0,0,0,0,0,0.1c0,0,0,0.1,0,0.1c0,0,0,0.1,0,0.1c0,0,0,0,0,0.1
	c0,0.1,0,0.1,0,0.1C22.2,119.7,22.2,119.7,22.3,119.8C22.2,119.8,22.2,119.8,22.3,119.8C22.2,119.8,22.3,119.8,22.3,119.8
	C22.3,119.9,22.3,119.9,22.3,119.8C22.3,119.8,22.3,119.8,22.3,119.8C22.4,119.9,22.4,119.9,22.3,119.8
	C22.3,119.8,22.3,119.8,22.3,119.8L22.3,119.8z M22.4,120C22.4,120,22.4,120,22.4,120C22.4,120,22.4,120,22.4,120
	C22.4,120,22.4,120,22.4,120L22.4,120z M22.4,120C22.5,120.1,22.5,120.1,22.4,120c0,0.1,0,0.1,0,0.2c0,0.1,0,0.1,0,0
	C22.5,120,22.5,120,22.4,120C22.4,120,22.4,120,22.4,120L22.4,120z M22.1,122.4C22.1,122.4,22.2,122.4,22.1,122.4
	C22.2,122.4,22.3,122.4,22.1,122.4C22.2,122.4,22.1,122.4,22.1,122.4L22.1,122.4z M22.4,120.2C22.4,120.3,22.4,120.3,22.4,120.2
	C22.5,120.2,22.5,120.3,22.4,120.2C22.5,120.3,22.5,120.3,22.4,120.2C22.5,120.3,22.5,120.2,22.4,120.2
	C22.4,120.2,22.4,120.2,22.4,120.2L22.4,120.2z M22.4,120.3c0-0.1,0-0.2-0.1-0.2c0,0,0,0,0,0.1c0,0.1,0,0.1,0,0
	C22.4,120.1,22.4,120.1,22.4,120.3C22.4,120.3,22.4,120.3,22.4,120.3C22.4,120.4,22.4,120.4,22.4,120.3L22.4,120.3z M22.3,120
	C22.3,120,22.3,120,22.3,120c0,0,0-0.1,0-0.1C22.2,119.9,22.2,119.9,22.3,120C22.2,119.9,22.2,119.9,22.3,120L22.3,120z M22.2,120.3
	c0-0.1,0-0.1,0-0.1C22.2,120.2,22.2,120.2,22.2,120.3C22.2,120.5,22.2,120.5,22.2,120.3L22.2,120.3z M21.9,118.4
	C21.9,118.4,21.8,118.4,21.9,118.4c0,0,0,0.1,0,0.1c0,0.1,0,0.1,0,0.2c0,0,0,0,0,0.1v-0.1C21.9,118.6,21.9,118.4,21.9,118.4
	L21.9,118.4z M21.5,115c0,0,0,0.2,0.1,0.2c0,0,0.1,0.2,0.2,0.4c0.1,0.3,0.1,0.3,0.1,0.3c0,0,0,0,0,0c0,0,0,0,0-0.1
	c0,0-0.1-0.1-0.1-0.1c0-0.1,0-0.2,0-0.2c0,0,0,0,0-0.1c0-0.1-0.2-0.3-0.2-0.3C21.6,115.1,21.6,115,21.5,115
	C21.5,114.9,21.5,114.9,21.5,115C21.5,115,21.6,115,21.5,115L21.5,115z M21.8,122.3C21.8,122.3,21.9,122.3,21.8,122.3
	C21.9,122.3,21.9,122.3,21.8,122.3C21.8,122.3,21.8,122.3,21.8,122.3L21.8,122.3z M21.7,121.9C21.7,121.9,21.7,121.8,21.7,121.9
	C21.7,121.9,21.6,121.9,21.7,121.9C21.7,121.9,21.7,121.9,21.7,121.9L21.7,121.9z M21.6,121.9C21.6,121.9,21.6,121.9,21.6,121.9
	c0-0.2,0-0.2,0-0.1C21.5,121.8,21.6,121.9,21.6,121.9L21.6,121.9z M21.6,122.4c0,0,0.1,0,0.1,0c0.1,0,0.2,0,0.3,0c0,0,0,0-0.1,0
	c0,0-0.1,0-0.1-0.1c0,0,0,0-0.1,0c-0.1,0-0.1,0-0.1,0c0,0-0.1,0-0.1,0C21.4,122.4,21.5,122.4,21.6,122.4L21.6,122.4z M21.2,121.5
	C21.2,121.5,21.2,121.5,21.2,121.5C21.1,121.5,21.1,121.5,21.2,121.5C21.1,121.5,21.1,121.5,21.2,121.5
	C21.2,121.5,21.2,121.5,21.2,121.5z M21.2,121.8C21.2,121.8,21.2,121.8,21.2,121.8C21.2,121.8,21.2,121.8,21.2,121.8
	C21.2,121.7,21.2,121.7,21.2,121.8C21.2,121.8,21.2,121.8,21.2,121.8L21.2,121.8z M21.2,121.5c0,0,0,0.1,0,0.1c0,0.1,0,0.2,0,0.2
	c0,0.1,0.1,0.4,0.2,0.4c0,0,0,0,0.1-0.2c0-0.1,0-0.2,0-0.3c0-0.1,0-0.2,0-0.2c0,0,0-0.1,0-0.1c0,0,0-0.1-0.1-0.1c0,0,0-0.1,0-0.1
	c0,0,0-0.1-0.1-0.2c0-0.1-0.2-0.2-0.2-0.2c0,0-0.1,0-0.1,0c0,0,0,0,0,0c0,0,0.1,0.1,0.1,0.3C21.2,121.4,21.2,121.5,21.2,121.5
	L21.2,121.5z M22,122.4C22,122.4,22,122.4,22,122.4C21.9,122.5,21.9,122.5,22,122.4C22,122.5,22,122.5,22,122.4
	C22,122.4,22,122.4,22,122.4L22,122.4z M22.1,121.7C22.1,121.7,22.2,121.6,22.1,121.7c0.1-0.1,0.1-0.2,0.1-0.2c0-0.1,0-0.1,0.1-0.1
	c0,0,0.1-0.1,0-0.1c0,0,0-0.1,0-0.1c0-0.1,0-0.1,0-0.1c0,0,0,0,0,0c0,0,0,0,0,0c0,0,0,0,0-0.1c0,0,0-0.1,0-0.1c0,0,0,0,0,0
	c0,0,0-0.1-0.1-0.1c0-0.1-0.1-0.1-0.1,0.1c0,0.1,0,0.1,0,0.1c0,0,0,0,0,0.1c0,0-0.1,0.1-0.1,0.1c0,0-0.1,0.1-0.1,0.1
	c0,0,0,0.1-0.1,0c0,0-0.1,0-0.1,0c0,0.1,0,0.3,0,0.3c0,0,0,0.1,0,0.1c0,0.1,0,0.1,0,0.1c0,0,0,0,0,0c0,0,0,0,0.1,0c0,0,0.1,0,0.1,0
	c0,0,0,0,0,0C22.1,121.9,22.1,121.7,22.1,121.7L22.1,121.7z M22.1,122.4C22.1,122.4,22.1,122.4,22.1,122.4
	C22.1,122.4,22,122.4,22.1,122.4C22,122.4,22,122.4,22.1,122.4c-0.1,0.1-0.1,0.1-0.1,0.1C22,122.5,22,122.5,22.1,122.4
	C22.1,122.4,22.1,122.4,22.1,122.4L22.1,122.4z M22.1,122.5C22.1,122.5,22.1,122.5,22.1,122.5C22.1,122.6,22.1,122.6,22.1,122.5
	C22.1,122.5,22.1,122.5,22.1,122.5C22.1,122.5,22.1,122.5,22.1,122.5L22.1,122.5z M22.4,122.3c-0.1,0.1-0.1,0.1-0.1,0.2
	c0,0.1,0,0.1,0.1,0C22.4,122.4,22.4,122.4,22.4,122.3C22.4,122.3,22.5,122.3,22.4,122.3C22.5,122.3,22.5,122.3,22.4,122.3
	L22.4,122.3z M22.6,121.3c0,0-0.1,0.1-0.1,0c0,0-0.1,0.1-0.1,0.2c0,0,0,0.1,0,0.1c0,0-0.1,0.3-0.1,0.3c0,0,0,0.1,0,0.1
	c0,0.1,0,0.1,0,0.1c0,0,0-0.1,0.1-0.2c0-0.1,0-0.1,0.1-0.1c0,0,0,0,0,0c0,0,0,0.1,0,0.1c0,0.1,0,0.1,0,0c0-0.1,0.1-0.1,0,0
	c0,0,0,0.1,0,0.1c0,0,0-0.1,0-0.2c0,0,0-0.1,0-0.1c0,0,0-0.1,0-0.1c0,0,0,0,0.1-0.1c0-0.1,0.1-0.1,0-0.1c0,0,0,0-0.1,0.1
	c0,0,0,0-0.1,0c0,0,0-0.1,0-0.1c0,0,0-0.1,0.1-0.1C22.5,121.4,22.6,121.3,22.6,121.3C22.6,121.2,22.6,121.2,22.6,121.3L22.6,121.3z
	 M22.6,122.5C22.6,122.5,22.6,122.6,22.6,122.5C22.5,122.6,22.5,122.6,22.6,122.5C22.6,122.6,22.6,122.6,22.6,122.5
	C22.6,122.6,22.6,122.5,22.6,122.5L22.6,122.5z M22.6,121.7C22.6,121.7,22.6,121.7,22.6,121.7C22.6,121.7,22.6,121.7,22.6,121.7
	C22.6,121.8,22.6,121.8,22.6,121.7C22.6,121.8,22.6,121.8,22.6,121.7L22.6,121.7z M22.5,120.4C22.5,120.4,22.5,120.4,22.5,120.4
	c0,0.1-0.1,0.1,0,0.1c0,0,0,0,0,0C22.5,120.6,22.5,120.5,22.5,120.4c0,0.1,0,0.1,0,0.2c0,0.1,0.1,0.1,0.1,0.1c0,0,0,0,0-0.1
	c0-0.1,0-0.1,0,0c0,0,0,0,0,0c0,0-0.1-0.3-0.1-0.3C22.6,120.3,22.5,120.3,22.5,120.4C22.5,120.5,22.5,120.5,22.5,120.4L22.5,120.4z
	 M22.7,122.1C22.7,122.1,22.7,122.2,22.7,122.1C22.7,122.2,22.7,122.2,22.7,122.1C22.7,122.1,22.7,122.1,22.7,122.1
	C22.7,122.1,22.7,122.1,22.7,122.1z M22.7,121.7C22.7,121.7,22.7,121.7,22.7,121.7C22.7,121.7,22.7,121.7,22.7,121.7
	c0.1,0,0.1,0,0.1,0C22.8,121.7,22.7,121.7,22.7,121.7C22.7,121.7,22.6,121.7,22.7,121.7L22.7,121.7z M22.7,121.4
	c0,0,0.1-0.2,0.1-0.3c0,0,0,0,0,0c0,0,0,0,0,0c0,0,0-0.1,0,0C22.7,121.2,22.7,121.4,22.7,121.4L22.7,121.4z M22.8,121.4
	C22.8,121.4,22.8,121.4,22.8,121.4C22.8,121.3,22.8,121.3,22.8,121.4C22.8,121.3,22.8,121.4,22.8,121.4L22.8,121.4z M23.6,121.9
	C23.6,121.9,23.6,121.9,23.6,121.9C23.6,121.9,23.6,121.8,23.6,121.9C23.6,121.8,23.6,121.8,23.6,121.9L23.6,121.9z M24.7,120.8
	c0,6.8-5.5,12.4-12.4,12.4c-6.8,0-12.4-5.5-12.4-12.4c0-6.8,5.5-12.4,12.4-12.4C19.2,108.4,24.7,114,24.7,120.8z M20.2,116.8
	C20.2,116.8,20.2,116.8,20.2,116.8C20.2,116.8,20.3,116.8,20.2,116.8C20.3,116.8,20.3,116.8,20.2,116.8
	C20.3,116.8,20.2,116.8,20.2,116.8L20.2,116.8z M19.9,114.4c0,0,0,0.1,0,0.1c0,0.1,0,0.3-0.1,0.4c0,0,0,0,0,0c0,0,0.1,0,0.1-0.1
	c0,0,0-0.1,0-0.1c0,0,0-0.2,0-0.3C19.9,114.4,19.9,114.4,19.9,114.4L19.9,114.4z M18.4,115.4C18.4,115.4,18.4,115.4,18.4,115.4
	C18.4,115.4,18.4,115.4,18.4,115.4C18.3,115.3,18.3,115.4,18.4,115.4L18.4,115.4z M18.4,112C18.5,112,18.5,112,18.4,112
	C18.4,111.9,18.4,111.9,18.4,112C18.4,111.9,18.4,111.9,18.4,112L18.4,112z M18.2,115.3C18.2,115.3,18.2,115.3,18.2,115.3
	c-0.1,0.1-0.1,0.1-0.1,0.2c0,0.1,0,0.1,0.1,0C18.1,115.4,18.2,115.4,18.2,115.3C18.2,115.4,18.2,115.3,18.2,115.3
	C18.2,115.3,18.2,115.3,18.2,115.3L18.2,115.3z M18.5,115.9C18.5,115.9,18.4,115.9,18.5,115.9C18.4,116,18.5,116,18.5,115.9
	C18.5,116,18.5,116,18.5,115.9C18.5,115.9,18.5,115.9,18.5,115.9L18.5,115.9z M17.5,112.1C17.5,112.1,17.5,112.1,17.5,112.1
	c0,0.1,0,0.1,0.1,0.1c0,0,0,0,0,0C17.6,112.2,17.6,112.2,17.5,112.1C17.6,112,17.5,112,17.5,112.1L17.5,112.1z M18.6,111.9
	C18.6,111.9,18.6,111.9,18.6,111.9C18.6,111.9,18.6,112,18.6,111.9C18.6,112,18.6,111.9,18.6,111.9
	C18.6,111.9,18.6,111.9,18.6,111.9z M18.7,115.1C18.7,115.1,18.7,115.2,18.7,115.1C18.7,115.2,18.7,115.2,18.7,115.1
	C18.8,115.2,18.7,115.2,18.7,115.1C18.7,115.2,18.7,115.1,18.7,115.1L18.7,115.1z M7.8,110.8C7.8,110.7,7.8,110.7,7.8,110.8
	c-0.1,0-0.1,0-0.1,0C7.7,110.8,7.7,110.8,7.8,110.8C7.8,110.8,7.8,110.8,7.8,110.8L7.8,110.8z M5.6,115.8c0.1,0,0.1,0,0.2-0.1
	c0-0.1,0.1-0.1,0-0.1C5.7,115.6,5.7,115.7,5.6,115.8C5.5,115.7,5.5,115.8,5.6,115.8L5.6,115.8z M4.7,113.1
	C4.7,113.1,4.6,113.2,4.7,113.1c-0.1,0.1-0.1,0.1-0.2,0.2c0,0,0,0,0,0c0,0,0.1,0,0.1,0C4.6,113.2,4.7,113.2,4.7,113.1
	c0,0.1,0,0.1-0.1,0.1c0,0,0,0,0,0c0,0,0.1-0.1,0.1-0.1c0.1,0,0.1-0.1,0-0.1c-0.1,0-0.1,0,0,0C4.9,113,4.8,113,4.7,113.1
	c-0.1,0-0.1,0.1-0.2,0.1C4.5,113.2,4.6,113.2,4.7,113.1C4.6,113.1,4.7,113.1,4.7,113.1L4.7,113.1z M4.9,115C4.9,115,4.9,115,4.9,115
	C4.9,115,4.9,115,4.9,115C5,114.9,5,114.9,4.9,115C5,114.9,4.9,114.9,4.9,115L4.9,115z M4.8,114.7c0,0-0.1,0.2,0,0.2
	C4.8,114.8,4.8,114.8,4.8,114.7C4.8,114.7,4.8,114.7,4.8,114.7L4.8,114.7z M5,114.4C5,114.4,5,114.4,5,114.4
	C5,114.4,4.9,114.4,5,114.4c-0.1,0.1-0.1,0.2-0.1,0.3c0,0,0,0.1,0,0.1c0,0.1,0,0.1,0,0c0,0,0.1-0.1,0.1-0.2C5,114.5,5,114.4,5,114.4
	L5,114.4z M4.9,114.5C4.8,114.5,4.8,114.5,4.9,114.5c0,0.1,0,0.1-0.1,0.2c0,0,0,0,0,0.1c0,0,0,0,0-0.1
	C4.9,114.5,4.9,114.5,4.9,114.5C4.9,114.4,4.9,114.4,4.9,114.5L4.9,114.5z M5,114C5,114,5,114,5,114c-0.1,0.1-0.1,0.1-0.1,0.1
	c0,0,0.1-0.1,0.2-0.2C5.1,113.9,5.1,113.9,5,114C5,114,5,114,5,114L5,114z M4.7,113.5C4.7,113.5,4.7,113.5,4.7,113.5
	c0,0.1-0.1,0.1-0.1,0.1c0,0-0.1,0-0.1,0.1c0,0,0,0,0.1,0c0,0,0.1,0,0.1,0C4.7,113.6,4.8,113.6,4.7,113.5c0.1,0,0.2,0,0.2,0
	s0,0,0.1,0c0-0.1,0,0-0.1,0C4.8,113.5,4.8,113.5,4.7,113.5L4.7,113.5z M4.8,113.8c0,0-0.1,0-0.1,0.1C4.6,113.9,4.6,113.9,4.8,113.8
	C4.9,113.8,4.9,113.8,4.8,113.8L4.8,113.8z M5.5,113.2C5.6,113.2,5.5,113.2,5.5,113.2C5.5,113.3,5.5,113.3,5.5,113.2
	C5.5,113.3,5.5,113.3,5.5,113.2L5.5,113.2z M5.1,115.5c-0.1,0.1-0.3,0.5-0.3,0.5c0,0.1,0.1,0,0.2-0.2C5.1,115.6,5.1,115.6,5.1,115.5
	c0.2-0.1,0.2-0.1,0.2,0c0,0.1,0,0.1,0,0.1c0,0-0.1,0.1-0.1,0.1c0,0,0,0,0,0c0,0,0,0,0,0c0,0,0,0.1,0,0.1c0-0.1,0.1-0.1,0.1-0.1
	c0-0.1,0.1-0.2,0.1-0.2c0,0,0,0,0,0c0,0.1,0.1,0,0.1-0.1c0-0.1-0.1-0.1-0.1,0c0,0,0,0,0,0c0,0,0,0,0,0
	C5.5,115.3,5.2,115.4,5.1,115.5L5.1,115.5z M5.1,115.2C5.2,115.2,5.2,115.2,5.1,115.2c0,0,0.1,0.1,0.2,0.1c0,0,0.1,0,0.1,0
	c0,0,0-0.1,0-0.1c0-0.1,0-0.1,0-0.1c0,0,0,0,0,0c0-0.1-0.1-0.1-0.3,0c-0.1,0.1-0.2,0.1-0.2,0.2C4.9,115.3,5,115.3,5.1,115.2
	L5.1,115.2z M5.4,114.9C5.4,114.8,5.4,114.8,5.4,114.9C5.3,114.9,5.3,114.9,5.4,114.9C5.3,114.9,5.4,114.9,5.4,114.9L5.4,114.9z
	 M5.2,115.9C5.2,115.9,5.1,116,5.2,115.9c0,0.1,0.2,0,0.3-0.1C5.5,115.8,5.5,115.8,5.2,115.9L5.2,115.9z M7.6,114.3
	C7.6,114.3,7.6,114.3,7.6,114.3C7.7,114.2,7.7,114.2,7.6,114.3C7.6,114.3,7.5,114.3,7.6,114.3L7.6,114.3z M6.8,114.7
	C6.8,114.7,6.8,114.7,6.8,114.7C6.8,114.6,6.8,114.6,6.8,114.7C6.7,114.6,6.7,114.7,6.8,114.7L6.8,114.7z M7.3,114.3
	C7.3,114.3,7.3,114.3,7.3,114.3C7.3,114.2,7.3,114.2,7.3,114.3C7.3,114.2,7.3,114.2,7.3,114.3C7.3,114.3,7.3,114.3,7.3,114.3z
	 M7.6,110.9C7.6,110.9,7.6,110.9,7.6,110.9C7.6,110.9,7.6,110.9,7.6,110.9C7.6,110.9,7.6,110.9,7.6,110.9L7.6,110.9z M6.1,112.7
	C6.1,112.7,6.1,112.6,6.1,112.7C6.1,112.6,6,112.7,6.1,112.7C6,112.7,6,112.7,6.1,112.7C6,112.7,6.1,112.7,6.1,112.7z M6.6,126.6
	C6.6,126.6,6.6,126.5,6.6,126.6C6.5,126.5,6.5,126.6,6.6,126.6C6.5,126.6,6.5,126.6,6.6,126.6L6.6,126.6z M7.3,111.1
	C7.4,111.1,7.4,111,7.3,111.1C7.4,111,7.4,111,7.3,111.1C7.3,111,7.3,111.1,7.3,111.1C7.3,111.1,7.3,111.1,7.3,111.1L7.3,111.1z
	 M6.4,114.7C6.4,114.7,6.4,114.7,6.4,114.7C6.3,114.8,6.3,114.8,6.4,114.7C6.5,114.7,6.5,114.7,6.4,114.7L6.4,114.7z M6.4,112.9
	C6.4,112.9,6.4,112.9,6.4,112.9C6.4,112.8,6.4,112.8,6.4,112.9C6.4,112.9,6.3,112.9,6.4,112.9C6.4,112.9,6.4,112.9,6.4,112.9
	L6.4,112.9z M6.8,112.2C6.8,112.2,6.8,112.2,6.8,112.2C6.8,112.2,6.8,112.2,6.8,112.2C6.9,112.2,6.9,112.2,6.8,112.2L6.8,112.2z
	 M7.4,112C7.4,112,7.5,112,7.4,112c0.1,0,0.1-0.1,0.1-0.1c0,0,0,0,0,0c0,0-0.1,0-0.1,0C7.4,111.9,7.4,111.9,7.4,112
	C7.4,111.9,7.4,111.9,7.4,112C7.3,112,7.4,112,7.4,112L7.4,112z M7.8,112.1C7.8,112.1,7.9,112.1,7.8,112.1
	C7.9,112,7.8,112,7.8,112.1C7.8,112.1,7.8,112.1,7.8,112.1L7.8,112.1z M7.6,112.7C7.6,112.7,7.6,112.6,7.6,112.7
	C7.7,112.6,7.7,112.6,7.6,112.7C7.6,112.6,7.6,112.6,7.6,112.7C7.5,112.7,7.5,112.7,7.6,112.7L7.6,112.7z M13.8,112.8
	C13.8,112.8,13.8,112.8,13.8,112.8C13.8,112.9,13.8,112.9,13.8,112.8C13.8,112.9,13.8,112.8,13.8,112.8
	C13.8,112.8,13.8,112.8,13.8,112.8L13.8,112.8z M13.8,112C13.8,112,13.8,112,13.8,112C13.8,112,13.8,112,13.8,112
	C13.8,112,13.8,112,13.8,112C13.8,112,13.8,112,13.8,112z M15.1,122.4c0,0,0.1,0,0.1,0c0,0,0,0,0,0c0,0,0-0.1,0.1-0.2
	c0.1-0.1,0.1-0.1,0-0.2c-0.1,0-0.2,0-0.3,0c0,0,0,0.1-0.1,0.2C15,122.5,15,122.5,15.1,122.4L15.1,122.4z M14,112.9
	C14,112.9,14,112.9,14,112.9C14,112.9,14,112.9,14,112.9C14,112.9,13.9,112.9,14,112.9c-0.1,0.1-0.1,0.1-0.1,0.1c0,0,0,0,0,0
	c0,0,0,0,0,0C14,113.1,14,113,14,112.9C14,112.9,14,112.9,14,112.9L14,112.9z M3,114.2C3,114.2,3,114.2,3,114.2
	C2.9,114.3,2.9,114.3,3,114.2C3,114.2,3,114.2,3,114.2L3,114.2z M12.6,113.3C12.6,113.3,12.5,113.4,12.6,113.3
	C12.5,113.4,12.6,113.4,12.6,113.3C12.7,113.3,12.6,113.3,12.6,113.3L12.6,113.3z M21.6,116C21.6,116,21.6,116,21.6,116
	C21.6,115.9,21.6,115.9,21.6,116C21.5,115.9,21.5,115.9,21.6,116C21.6,116,21.6,116,21.6,116L21.6,116z M13.7,113
	C13.7,113,13.7,113,13.7,113C13.7,113,13.7,113,13.7,113C13.7,112.9,13.7,112.9,13.7,113L13.7,113z M15.3,123.5c0,0,0-0.1,0-0.1
	C15.2,123.4,15.2,123.5,15.3,123.5c-0.1,0.2-0.1,0.3-0.1,0.3c0,0,0,0.1,0,0.1c0,0,0,0,0-0.1c0-0.1,0-0.2,0-0.2
	C15.3,123.6,15.3,123.6,15.3,123.5L15.3,123.5z M15.6,121.5c0,0.1,0,0.1,0,0.2c0,0,0.1,0,0,0C15.7,121.6,15.6,121.6,15.6,121.5
	c0,0,0-0.1,0-0.1C15.6,121.4,15.6,121.5,15.6,121.5L15.6,121.5z M15.7,120.3C15.7,120.3,15.7,120.3,15.7,120.3
	C15.7,120.3,15.7,120.3,15.7,120.3C15.6,120.3,15.6,120.3,15.7,120.3C15.6,120.3,15.6,120.3,15.7,120.3L15.7,120.3z M10.6,120.9
	C10.6,120.9,10.6,120.9,10.6,120.9C10.6,120.9,10.6,120.9,10.6,120.9C10.6,121,10.7,121,10.6,120.9C10.7,121,10.6,120.9,10.6,120.9z
	 M10.6,121.1C10.6,121.1,10.6,121.1,10.6,121.1C10.6,121.1,10.7,121.1,10.6,121.1C10.7,121.1,10.6,121.1,10.6,121.1
	C10.6,121.1,10.6,121.1,10.6,121.1L10.6,121.1z M12.6,120.1C12.5,120,12.4,120,12.6,120.1C12.5,120.2,12.7,120.2,12.6,120.1
	C12.7,120.1,12.6,120.1,12.6,120.1L12.6,120.1z M17.2,112C17.2,112,17.2,112,17.2,112C17.3,112.1,17.3,112.1,17.2,112
	C17.3,112.1,17.3,112.1,17.2,112C17.3,112,17.2,112,17.2,112L17.2,112z M5.4,128.4C5.4,128.4,5.4,128.4,5.4,128.4
	C5.5,128.4,5.5,128.4,5.4,128.4C5.5,128.4,5.5,128.4,5.4,128.4C5.4,128.4,5.4,128.4,5.4,128.4z M5.2,127.9
	C5.2,127.9,5.2,127.9,5.2,127.9C5.2,128,5.3,128,5.2,127.9C5.3,128,5.3,128,5.2,127.9C5.3,128,5.2,127.9,5.2,127.9L5.2,127.9z
	 M4.6,124.2C4.6,124.2,4.7,124.2,4.6,124.2C4.7,124.3,4.7,124.3,4.6,124.2C4.7,124.1,4.6,124.1,4.6,124.2L4.6,124.2z M4.3,120.4
	c0,0,0,0.2,0,0.2c0,0,0,0,0-0.1C4.4,120.5,4.3,120.4,4.3,120.4L4.3,120.4z M3.3,116.1C3.3,116.1,3.4,116.1,3.3,116.1
	C3.4,116.1,3.3,116.1,3.3,116.1C3.3,116.1,3.3,116.1,3.3,116.1C3.3,116.2,3.3,116.2,3.3,116.1z M3.3,120.1
	C3.3,120.1,3.3,120.1,3.3,120.1C3.3,120.2,3.4,120.2,3.3,120.1C3.4,120.1,3.3,120.1,3.3,120.1L3.3,120.1z M5.6,128.6
	C5.5,128.6,5.5,128.6,5.6,128.6C5.6,128.6,5.6,128.6,5.6,128.6C5.6,128.5,5.6,128.5,5.6,128.6L5.6,128.6z M8.8,112.1
	C8.8,112.1,8.8,112.1,8.8,112.1C8.8,112.1,8.8,112.1,8.8,112.1C8.8,112.1,8.8,112.1,8.8,112.1L8.8,112.1z M9.3,131.9
	C9.3,131.9,9.3,131.9,9.3,131.9C9.3,131.9,9.4,131.9,9.3,131.9C9.4,131.9,9.4,131.9,9.3,131.9L9.3,131.9z M8.3,111
	C8.3,111,8.3,111,8.3,111C8.3,111.1,8.3,111.1,8.3,111C8.4,111,8.3,111,8.3,111C8.3,111,8.3,111,8.3,111z M11.5,110.5
	C11.5,110.5,11.5,110.5,11.5,110.5C11.5,110.5,11.5,110.5,11.5,110.5C11.4,110.5,11.5,110.5,11.5,110.5L11.5,110.5z M21.4,120
	C21.4,120,21.4,120,21.4,120C21.4,119.9,21.4,119.9,21.4,120C21.4,120,21.4,120,21.4,120L21.4,120z M10.6,111.8
	C10.7,111.7,10.7,111.7,10.6,111.8C10.7,111.7,10.7,111.7,10.6,111.8C10.6,111.8,10.6,111.8,10.6,111.8L10.6,111.8z M45.3,120.8
	c0,14.9-11.8,25.8-26.8,25.8H3.1v-10.3h15.5c8.6,0,15.4-6.9,15.4-15.5c0-8.5-6.9-15.5-15.4-15.5H3.1V95l15.5,0
	C33.5,95,45.3,105.9,45.3,120.8"/>
</svg>
