<?xml version="1.0" encoding="utf-8"?>
<!-- Generator: Adobe Illustrator 24.1.0, SVG Export Plug-In . SVG Version: 6.00 Build 0)  -->
<svg version="1.1" id="Layer_1" xmlns="http://www.w3.org/2000/svg" xmlns:xlink="http://www.w3.org/1999/xlink" x="0px" y="0px"
	 viewBox="0 0 428 160" style="enable-background:new 0 0 428 160;" xml:space="preserve">
<style type="text/css">
	.st0{fill:#F2F2F2;}
</style>
<path class="st0" d="M50,5.2c0,2.9,2.3,5.2,5.1,5.2c2.9,0,5.3-2.3,5.3-5.2c0-2.9-2.3-5.2-5.3-5.2C52.3,0,50,2.3,50,5.2z M60.7,15.2
	H49.6v36.3h11.1C60.7,51.5,60.7,15.2,60.7,15.2z M293.6,65.4l22.3-50.2h-11.7l-8,19.4l-8.8-19.4H275l15.2,31.4L282,65.4H293.6z
	 M273.4,15.2c-0.7-0.2-1.8-0.4-2.9-0.4c-2.9,0-7.5,1.2-9.4,5.3v-4.9h-10.7v36.3h11.1V35.7c0-7.2,4-9.8,8.5-9.8
	c1.1,0,2.3,0.1,3.5,0.4V15.2H273.4z M221,29c0.2-2.7,2.6-6.1,7.2-6.1c5.3,0,7.2,3.4,7.3,6.1H221z M236.3,38.4
	c-1,2.9-3.3,4.7-7.3,4.7c-4.3,0-8-2.9-8.2-7H246c0.1-0.2,0.2-1.9,0.2-3.4c0-11.7-6.9-18.6-18.2-18.6c-9.4,0-18.1,7.4-18.1,19.1
	c0,12.2,8.9,19.3,18.9,19.3c9.2,0,15-5.3,16.7-11.5L236.3,38.4z M211.3,15.2h-11.7l-7.7,22.5l-8.4-22.5h-12l14.9,36.3h11.2
	L211.3,15.2z M154.1,42.3c-4.2,0-8.2-3-8.2-9c0-6.1,4-9,8.2-9s8.2,2.8,8.2,9C162.2,39.4,158.3,42.3,154.1,42.3z M154.1,14.1
	c-10.8,0-19.3,7.9-19.3,19.2s8.5,19.3,19.3,19.3c10.9,0,19.3-8,19.3-19.3S164.9,14.1,154.1,14.1L154.1,14.1z M115.6,24.3
	c4.3,0,6.5,2.6,7.3,5.4l9.9-3c-1.6-6.5-7.4-12.6-17.4-12.6c-10.7,0-19.1,7.9-19.1,19.3c0,11.2,8.7,19.2,19.5,19.2
	c9.7,0,15.7-6.3,17.3-12.6l-9.8-3c-0.8,2.7-3.2,5.4-7.5,5.4c-4.6,0-8.5-3.2-8.5-9C107.2,27.5,111,24.3,115.6,24.3L115.6,24.3z
	 M63.9,41.2c0.3,4,3.9,11.4,15.3,11.4c9.7,0,14.4-6.1,14.4-12.3c0-5.3-3.6-9.8-11.2-11.4L77.6,28c-1.6-0.3-2.8-1.2-2.8-2.7
	c0-1.9,1.8-3.1,3.9-3.1c3.4,0,4.9,2,5.2,4.5l9.2-1.7c-0.4-4.2-4-10.8-14.5-10.8c-8.1,0-13.9,5.4-13.9,12c0,5.1,3.1,9.5,10.8,11.2
	l4.2,0.9c2.7,0.6,3.6,1.7,3.6,3c0,1.6-1.4,3.1-4.2,3.1c-3.8,0-5.5-2.4-5.7-4.9L63.9,41.2z"/>
<path class="st0" d="M14.7,27.8c0,0.1,0,0.2,0.1,0.3c0,0,0.1,0.1,0.1,0.2c0,0,0,0.1,0.1,0.1c0,0,0,0,0-0.2
	C14.8,28,14.7,27.9,14.7,27.8C14.7,27.6,14.7,27.5,14.7,27.8L14.7,27.8z M14.2,20.9c-0.1,0-0.1,0-0.1,0C14.1,21,14.1,21,14.2,20.9
	C14.2,21,14.3,21,14.2,20.9C14.3,21,14.3,20.9,14.2,20.9L14.2,20.9z M14.3,18.2c0.1,0,0.1-0.1,0-0.2s-0.1-0.1-0.1,0
	C14.1,18.1,14.2,18.2,14.3,18.2L14.3,18.2z M14.6,18.1L14.6,18.1c0-0.2-0.1-0.2-0.1-0.1l0,0C14.4,17.9,14.4,18,14.6,18.1L14.6,18.1
	L14.6,18.1z M17.2,20.6C17.2,20.5,17.2,20.5,17.2,20.6c0-0.2,0-0.2,0-0.2c0-0.1,0-0.1,0-0.1c-0.1,0-0.2,0.1-0.2,0.3
	c0,0.1,0,0.1,0.2,0.1c0.1,0,0.1,0,0.1,0C17.2,20.6,17.1,20.6,17.2,20.6L17.2,20.6z M15,26.9C15,26.8,15,26.8,15,26.9
	C15,26.8,14.9,26.8,15,26.9C14.9,26.9,14.9,26.9,15,26.9C14.9,26.9,14.9,26.9,15,26.9z M16.7,21.2L16.7,21.2c-0.1,0-0.1-0.1-0.1-0.1
	V21h0.1c0,0,0,0,0-0.1c-0.1-0.1-0.1-0.1-0.1,0l0,0v-0.1l-0.1-0.1c-0.1-0.1-0.1-0.1-0.1-0.1s0,0,0.1-0.1c0,0,0-0.1,0.1,0
	c0,0,0.1,0,0-0.1c0-0.1-0.2-0.1-0.3,0c-0.2,0.1-0.2,0.2-0.1,0.3c0,0.1,0.1,0.1,0.1,0.1s0.1,0.1,0.1,0.2c0.1,0.1,0.1,0.1,0.1,0.2
	s0,0.1,0,0.1c0,0.1,0,0.2,0,0.2c0.1,0.1,0.3,0.3,0.5,0.2C16.8,21.6,16.7,21.3,16.7,21.2C16.7,21.3,16.7,21.3,16.7,21.2L16.7,21.2z
	 M14.7,21.3L14.7,21.3C14.7,21.3,14.8,21.3,14.7,21.3C14.8,21.3,14.8,21.3,14.7,21.3C14.8,21.3,14.8,21.3,14.7,21.3z M14.9,18.5
	C14.9,18.5,14.8,18.4,14.9,18.5c-0.1-0.1-0.1-0.1-0.1-0.1C14.8,18.5,14.9,18.6,14.9,18.5L14.9,18.5z M15.8,19
	C15.9,19,15.9,19,15.8,19C15.8,18.9,15.8,19,15.8,19v0.2C15.9,19.2,15.9,19.2,15.8,19C15.8,19.1,15.8,19.1,15.8,19L15.8,19z
	 M15.9,21.4L15.9,21.4c0,0.1,0.1,0.1,0.1,0.1S16,21.5,15.9,21.4C16,21.4,15.9,21.4,15.9,21.4z M16.3,18.5L16.3,18.5L16.3,18.5
	C16.3,18.5,16.2,18.5,16.3,18.5C16.2,18.5,16.3,18.5,16.3,18.5z M15.7,21.3L15.7,21.3C15.7,21.4,15.7,21.4,15.7,21.3
	C15.8,21.3,15.7,21.3,15.7,21.3L15.7,21.3z M15.1,20.5c-0.1,0-0.1-0.1-0.1-0.1l0,0c0,0,0.1-0.1,0-0.1c0,0,0,0,0-0.1c0,0,0,0,0.1-0.1
	c0,0,0,0-0.1,0h-0.1c0,0-0.1,0.1-0.2,0.1c-0.1,0-0.1,0.1-0.1,0.1h0.1c0,0,0.1,0,0,0c0,0,0,0-0.1,0h-0.1h-0.1c-0.1-0.1-0.1-0.1,0-0.1
	l0,0c-0.1,0-0.1,0-0.1,0c0-0.1-0.2,0-0.2,0.2c0,0,0,0.1,0,0c0,0-0.1,0.3-0.1,0.4s0.3,0.2,0.5,0.1c0.1-0.1,0.2-0.1,0.4,0
	C15,21,15.4,21,15.4,21C15.6,20.8,15.2,20.5,15.1,20.5L15.1,20.5z M19.9,17.6L19.9,17.6C19.8,17.5,19.8,17.5,19.9,17.6
	C19.8,17.5,19.8,17.5,19.9,17.6C19.8,17.6,19.9,17.6,19.9,17.6L19.9,17.6z M19.6,19.8C19.6,19.8,19.6,19.9,19.6,19.8
	C19.6,19.9,19.6,19.9,19.6,19.8C19.6,19.9,19.6,19.9,19.6,19.8L19.6,19.8z M19.2,19.9C19.1,19.9,19.1,19.9,19.2,19.9
	C19.2,19.9,19.2,20,19.2,19.9C19.2,20,19.2,19.9,19.2,19.9L19.2,19.9L19.2,19.9z M23.8,27.5L23.8,27.5L23.8,27.5
	C23.8,27.6,23.8,27.6,23.8,27.5C23.8,27.6,23.8,27.6,23.8,27.5z M23.7,27.7C23.7,27.6,23.7,27.7,23.7,27.7L23.7,27.7
	C23.7,27.7,23.7,27.6,23.7,27.7L23.7,27.7z M23.6,26.9C23.6,26.9,23.6,27,23.6,26.9C23.6,27,23.6,27,23.6,26.9L23.6,26.9L23.6,26.9z
	 M23.6,27L23.6,27L23.6,27L23.6,27L23.6,27L23.6,27z M23.5,26.7C23.5,26.7,23.5,26.6,23.5,26.7C23.5,26.7,23.5,26.8,23.5,26.7
	C23.5,26.8,23.6,26.7,23.5,26.7L23.5,26.7z M23.5,26.5L23.5,26.5C23.5,26.5,23.5,26.6,23.5,26.5C23.5,26.6,23.5,26.6,23.5,26.5
	L23.5,26.5z M23.5,26.6C23.4,26.7,23.4,26.7,23.5,26.6c-0.1,0.1-0.1,0.1-0.1,0.1l0,0l0,0L23.5,26.6C23.5,26.5,23.5,26.6,23.5,26.6
	L23.5,26.6z M23.3,28.2C23.3,28.1,23.3,28.1,23.3,28.2C23.3,28.3,23.3,28.3,23.3,28.2C23.3,28.3,23.3,28.3,23.3,28.2L23.3,28.2z
	 M23.3,27.2L23.3,27.2L23.3,27.2C23.3,27.1,23.3,27.1,23.3,27.2L23.3,27.2V27c0-0.1,0-0.1,0-0.2c0,0,0,0,0-0.1v-0.1
	c0-0.1,0-0.1-0.1-0.2l-0.1-0.1c0,0,0,0-0.1,0.1s-0.1,0.1-0.1,0.1v-0.1v-0.1h-0.1l0,0l0,0c0,0,0,0,0,0.1l0,0l0,0l0,0c0,0,0,0,0,0.1
	l0,0l0,0c0,0,0,0,0.1,0l0.1,0.1v0.2l0,0c0,0,0,0,0,0.1l0,0c0,0,0,0,0.1,0c0,0.1,0.1,0,0.1,0v-0.1C23.2,27,23.2,27,23.3,27.2
	C23.2,27.2,23.2,27.2,23.3,27.2L23.3,27.2z M22.8,27C22.8,26.9,22.8,26.9,22.8,27C22.9,26.9,22.9,26.9,22.8,27
	C22.8,26.9,22.8,27,22.8,27L22.8,27L22.8,27z M22.7,27.7C22.7,27.7,22.7,27.8,22.7,27.7C22.7,27.8,22.7,27.8,22.7,27.7
	C22.7,27.8,22.7,27.8,22.7,27.7C22.7,27.8,22.7,27.7,22.7,27.7L22.7,27.7z M23,27.5C23,27.3,23,27.3,23,27.5c0-0.1-0.1,0.1-0.1,0.3
	c0,0.1-0.1,0.2-0.1,0.2c0,0.1-0.1,0.1-0.1,0.1V28c-0.1-0.1-0.1-0.1,0-0.2c0-0.1,0-0.1,0-0.1s0,0,0-0.1l0,0h-0.1c0,0-0.1,0,0,0v0.1
	l-0.1,0.1v0.1V28c0,0,0,0,0,0.1l0,0V28c0,0-0.1,0-0.1,0.1l0,0c0,0-0.1,0.1-0.1,0.2l0,0c0,0,0,0,0,0.1l0,0l0,0c0-0.1,0,0-0.1,0.1
	c0,0.1-0.1,0.2-0.1,0.2s-0.1,0.1-0.2,0.1c-0.1,0.1-0.1,0.1-0.2,0.2l-0.1,0.1l0,0l0,0c0,0-0.1,0.3-0.1,0.4s0,0.1,0,0.1s0,0.1-0.1,0.2
	c0,0.1,0,0.2,0,0.2v0.1c0,0-0.1,0.2-0.1,0.3c0,0-0.1,0.1,0,0.1c0,0,0.1,0,0.2-0.1s0.1-0.1,0.2-0.1s0.1,0,0.1-0.1s0.1-0.2,0.3-0.3
	h0.1l0,0v0.2c0,0.1,0,0,0.1-0.1s0.1-0.1,0,0s-0.1,0.2,0,0.1c0-0.1,0,0,0,0.1c0,0,0,0.1,0,0c0,0,0,0,0,0.1s0,0.1,0,0.1l0,0
	c0,0,0,0,0.1,0c0-0.1,0-0.1,0,0c0,0,0,0,0.1,0c0-0.1,0.1-0.1,0.1-0.1s0,0,0.1-0.1c0-0.1,0.2-0.5,0.3-0.5c0,0,0.1-0.1,0.1-0.2
	c0,0,0.1-0.1,0.1-0.2s0.1-0.1,0.1-0.2c0,0,0-0.1,0-0.2s0-0.1,0-0.2s0-0.1,0-0.1s0,0,0-0.1v-0.1c0-0.1,0-0.1,0-0.2v-0.1V28v-0.1
	c0-0.1,0-0.1,0-0.1C23,27.7,23,27.7,23,27.5L23,27.5z M23,29.8L23,29.8C23,29.9,23,29.9,23,29.8L23,29.8
	C22.9,29.8,22.9,29.7,23,29.8v-0.2l0,0V29.8c0-0.1,0,0.1-0.1,0.1V30v0.1c0,0,0,0,0,0.1v0.1l0.1-0.2c0,0,0,0,0-0.1
	C22.9,30,23,29.9,23,29.8L23,29.8z M22.7,30.3L22.7,30.3C22.7,30.2,22.7,30.3,22.7,30.3c-0.1,0.2-0.2,0.3-0.2,0.3
	c-0.1,0.1-0.2,0.2-0.2,0.3l0,0c0,0,0.1-0.1,0.2-0.2c0-0.1,0.1-0.2,0.1-0.2l0,0c0,0,0-0.1,0.1-0.1C22.7,30.3,22.8,30.3,22.7,30.3
	L22.7,30.3z M22.1,30.6L22.1,30.6C22,30.7,22,30.7,22,30.7c0,0.1,0,0.2,0,0.1l0,0c0,0,0,0,0-0.1C22.2,30.6,22.2,30.6,22.1,30.6
	L22.1,30.6z M22,30.2C21.9,30.2,21.9,30.2,22,30.2C21.9,30.2,22,30.2,22,30.2L22,30.2L22,30.2z M21.3,19.8
	C21.3,19.7,21.3,19.7,21.3,19.8C21.3,19.7,21.3,19.7,21.3,19.8L21.3,19.8L21.3,19.8z M22,19.6C21.9,19.6,21.9,19.5,22,19.6
	C21.9,19.5,21.9,19.5,22,19.6C21.9,19.6,21.9,19.6,22,19.6L22,19.6L22,19.6z M13.5,18.4L13.5,18.4C13.4,18.4,13.4,18.4,13.5,18.4
	C13.4,18.5,13.4,18.5,13.5,18.4L13.5,18.4z M13.1,18.6L13.1,18.6C13.1,18.5,13.1,18.5,13.1,18.6C13.1,18.5,13.1,18.5,13.1,18.6
	C13,18.6,13,18.6,13.1,18.6L13.1,18.6z M12.4,18.9C12.5,18.9,12.5,18.8,12.4,18.9C12.5,18.8,12.5,18.8,12.4,18.9
	C12.4,18.8,12.4,18.8,12.4,18.9L12.4,18.9z M12.3,18.8L12.3,18.8C12.3,18.9,12.3,18.9,12.3,18.8C12.4,18.8,12.4,18.8,12.3,18.8
	L12.3,18.8z M14.8,21.9L14.8,21.9C14.9,21.8,14.8,21.8,14.8,21.9C14.8,21.8,14.7,21.8,14.8,21.9C14.7,21.9,14.7,21.9,14.8,21.9
	L14.8,21.9z M13.9,21.8H14C14,21.8,14,21.8,13.9,21.8C13.9,21.8,13.8,21.8,13.9,21.8L13.9,21.8z M12.6,21.5c0.1,0,0.1,0.1,0.1,0.1
	s0,0,0-0.1S12.7,21.4,12.6,21.5c-0.1-0.1-0.2-0.1-0.2-0.1C12.4,21.4,12.5,21.4,12.6,21.5L12.6,21.5z M12.1,20.8L12.1,20.8
	C12.1,20.6,12.1,20.6,12.1,20.8C12,20.7,12,20.8,12.1,20.8L12.1,20.8z M12,21.1C12,21.2,12,21.2,12,21.1c0.1,0.1,0.1,0,0.1-0.1
	s0-0.2-0.1-0.1C12,20.9,12,21,12,21.1L12,21.1z M11.4,21.1C11.4,21.2,11.4,21.2,11.4,21.1C11.5,21.1,11.5,21.1,11.4,21.1L11.4,21.1
	L11.4,21.1z M20.9,24.6c0,0.1,0.1,0.2,0.1,0.3c0,0.1,0.1,0.2,0.1,0.4c0,0.2,0.1,0.3,0.1,0.3l0.2,0.3c0,0.2,0.1,0.5,0.2,0.5
	c0,0,0,0,0-0.1s0-0.1,0-0.2s-0.1-0.3-0.2-0.3c0,0-0.1,0-0.1-0.1c0,0,0-0.1-0.1-0.2s-0.1-0.1-0.1-0.4c0-0.2,0-0.3,0-0.2V25l0.1,0.1
	c0.1,0.1,0.1,0.1,0.1,0.2c0,0,0,0.1,0.1,0.1c0,0.1,0,0.1,0,0.1s0.1-0.1,0-0.2l0,0c0,0,0,0,0.1-0.1c0-0.1,0-0.1,0-0.3
	c-0.1-0.2-0.1-0.3-0.3-0.5c-0.1-0.2-0.2-0.3-0.1-0.5c0-0.1,0.1-0.2,0.1-0.1c0,0,0,0.1,0.1,0.1l0,0c-0.1,0-0.1,0.2,0,0.2
	c0,0,0.1,0,0.1-0.1s0-0.1,0-0.1c-0.1-0.1-0.1-0.2,0-0.2c0,0,0.1-0.1,0-0.1l0,0c0,0.1,0.1,0,0.2-0.1c0-0.1,0-0.2,0-0.3c0,0,0,0,0-0.1
	V23c0-0.2,0-0.3-0.1-0.3l0,0l0,0c0,0,0-0.2-0.1-0.3c-0.1-0.2-0.1-0.2-0.2-0.2c0,0,0-0.2,0-0.3v-0.1h-0.1c0,0.1,0,0-0.1,0
	c0,0,0-0.1-0.1-0.1c0,0-0.1-0.1,0-0.1c0,0,0-0.1,0.1-0.1c0-0.1,0-0.1,0.1-0.1c0,0,0,0,0,0.1s0,0.1,0.1,0.1c0,0,0,0,0.1,0
	s0.1,0,0.1,0.1s0,0.1,0.1,0.1l0.1,0.1c0,0,0.1,0.2,0.1,0.3c0,0,0,0,0.1,0c0,0,0,0,0-0.2c0-0.1-0.1-0.2-0.1-0.3
	c-0.1-0.1-0.1-0.2-0.1-0.2s0-0.1,0-0.2v-0.1c0-0.1,0-0.1,0.1,0s0.1,0,0.1-0.4c0-0.3,0-0.3-0.1-0.4c0-0.1-0.1-0.2-0.1-0.2
	c0-0.2-0.2-0.4-0.2-0.3c0,0,0,0.1,0,0s0-0.1,0,0l0,0c0,0,0-0.1-0.1-0.1l0,0c0,0,0,0,0-0.1v-0.1c0-0.3-0.1-0.3,0.1-0.3h0.1
	c0,0,0.1,0,0.1,0.1c0,0,0,0,0.1,0c0,0,0,0,0.1,0l0,0c0,0,0,0,0-0.1s0-0.1,0.1-0.1c0,0,0.1,0,0.1,0.1s0.1,0.1,0.1,0l0,0l0,0v-0.1
	l0.1,0.2v0.1v0.1c0,0,0,0.2,0.1,0.3c0,0.1,0.1,0.2,0.1,0.3c0,0.1,0.1,0.2,0.1,0.2c0,0.1,0-0.1,0-0.1v-0.1c0,0,0,0,0-0.1V20
	c0,0,0,0,0-0.1s0-0.1,0-0.1l0,0l0,0c0,0,0,0,0-0.1v-0.1c0,0,0,0-0.1-0.1c0-0.1,0-0.1,0-0.1l0,0l0,0l0,0c0,0,0,0,0.1,0l0,0
	c-0.2-0.4-0.5-0.7-0.8-1.1l0,0l0,0l0,0l0,0l0,0l0,0c0,0,0-0.1-0.1-0.1c0,0-0.1,0-0.1-0.1c-0.1-0.1-0.1,0-0.1-0.1
	c-0.1-0.1-0.2-0.1-0.2-0.1l0,0c0,0,0-0.1-0.1-0.1c0,0-0.1,0-0.1-0.1c0,0,0,0-0.1,0c0,0,0,0,0,0.1s0,0.1,0,0l0,0l0,0
	c0,0-0.1,0-0.1-0.1c-0.1,0-0.1,0-0.1,0s0,0-0.1-0.1c0-0.1,0-0.1,0-0.1s0-0.1-0.1-0.1l0,0l0,0l-0.1-0.1c-0.1,0-0.1,0-0.1,0s0,0-0.1,0
	s-0.1,0-0.1-0.1c0,0-0.1-0.1-0.2-0.1S19.7,17,19.7,17c-0.1,0-0.1,0-0.1,0l0,0c-0.1,0-0.1,0-0.1,0h0.1h0.1c0,0,0,0,0-0.1l0,0
	c0,0,0,0-0.1-0.1c0,0-0.1,0-0.1-0.1c-0.1,0-0.2-0.1-0.2-0.1c0-0.1-0.1-0.1-0.2-0.1l0,0l0,0l0,0c0,0,0,0-0.1,0c-0.2,0-0.5,0-0.5,0
	l0,0h0.1c0,0,0,0-0.1,0s-0.2,0-0.2,0s0.1,0.1,0.1,0.2c0.1,0,0.1,0,0,0h-0.1c0,0-0.1-0.1-0.2-0.1s-0.1,0,0,0c0.1,0.1,0.1,0.1,0,0
	c-0.1,0-0.1,0,0,0.1l0,0c-0.1,0-0.1,0-0.1-0.1c0,0,0-0.1-0.1-0.1l0,0v0.1l0,0c0,0,0,0,0,0.1c0,0,0.1,0.1,0,0.1c0,0.1,0,0.1,0.1,0.2
	c0.1,0,0.2,0.1,0.2,0.2l0,0c0-0.1-0.1-0.1-0.2-0.1c0,0,0,0,0,0.1s0,0.1,0,0.1c-0.1,0.1-0.2,0.1-0.3,0c0,0,0,0,0.1,0s0.1,0,0.1-0.1
	s0-0.1,0-0.2c0,0-0.1-0.1-0.1-0.2s0-0.1-0.1-0.2c0,0,0,0,0-0.1s0-0.1-0.1-0.1c0,0-0.1,0,0,0l0,0l0,0l0,0c0,0,0,0,0,0.1v0.1
	c0,0,0,0,0,0.1c0,0,0,0,0,0.1v0.1c0,0,0,0,0.1,0.1c0.2,0.1,0.1,0.2-0.1,0.1C17.5,17,17.4,17,17.3,17c-0.1,0-0.2-0.1-0.2-0.1l0,0
	c0.1,0.1,0.1,0.1,0.1,0.2c0,0,0,0-0.1,0c0,0-0.1,0-0.2,0s-0.2,0-0.2,0s0,0-0.1,0h-0.1c-0.1,0-0.2,0.1-0.2,0.1c0,0.1-0.1,0.1-0.2,0
	v-0.1V17c-0.1,0-0.2,0-0.2,0v0.1v0.1c0.1,0.1,0,0.1-0.1,0.1h-0.1c-0.1,0.1-0.1,0.1,0,0.1c0,0.1,0,0.1-0.1,0c-0.1,0-0.1,0-0.2-0.1
	c0,0-0.1,0,0,0c0,0,0,0.1,0.1,0.1s0.1,0.1,0,0.1s-0.2-0.1-0.2-0.2v-0.1c0,0,0-0.1-0.1-0.1c-0.1-0.1,0-0.1,0.2,0c0.2,0,0.2,0,0.3,0
	l0.1-0.1c0,0-0.1-0.1-0.2-0.2c-0.2-0.1-0.3-0.1-0.6-0.2c-0.1,0-0.1,0-0.1-0.1c0.1,0,0,0,0-0.1h-0.1l0,0l0,0h-0.1c0,0-0.1,0-0.1,0.1
	l0,0v-0.1c0,0,0,0-0.1,0l-0.1,0.1c0,0,0,0-0.1,0h-0.1h-0.1c-0.1,0-0.1,0-0.1,0l0,0h-0.1c0,0-0.1,0,0,0c0.1,0.1,0,0.1-0.1,0l0,0l0,0
	l0,0h0.1c0.1,0,0,0-0.1,0.1s-0.2,0.2-0.2,0.2c0,0.1-0.1,0.1-0.1,0.1l0,0l0,0c0,0-0.1,0-0.1,0.1l-0.1,0.1l0,0v0.1c0,0-0.1,0-0.1,0.1
	c-0.1,0.1-0.2,0.2-0.1,0.3v0.1l0,0c0.1,0,0.1,0,0,0c-0.1,0.1,0,0.1,0.1,0.1s0.1,0,0.2-0.1c0.1,0,0.1-0.1,0.1-0.1l0,0v0.1v0.1
	c0,0,0,0,0,0.1V18v0.1v0.1c0,0.1,0.1,0.1,0.1,0c0,0,0,0,0.1,0s0.2-0.1,0.2-0.2s0-0.1,0.1-0.2l0.1-0.1v-0.1L14,17.5c0,0,0,0,0-0.1
	s0.1-0.2,0.2-0.3c0.1-0.1,0.2-0.1,0.2-0.2s0.1-0.2,0.2-0.1c0.1,0,0.2,0.1,0.1,0.1c-0.3,0.2-0.3,0.3-0.3,0.3v0.1
	c0,0.1,0.1,0.2,0.3,0.2c0.1,0,0.2,0,0.2,0c0.1,0,0.2,0,0.1,0.1c0,0-0.1,0-0.2,0c-0.2,0-0.3,0-0.3,0.1c0,0,0,0.1,0.1,0.1
	c0,0,0,0,0,0.1s0,0.1-0.1,0.1c-0.1-0.1-0.2,0-0.2,0.2c0,0.1,0,0.1,0,0.1h-0.1c0,0.1-0.1,0-0.2,0c0,0-0.1,0-0.2,0
	c-0.1,0-0.2,0.1-0.2,0c0,0-0.1,0-0.2,0c-0.2,0-0.2-0.1-0.2-0.2c0,0,0-0.1,0.1-0.1c0,0,0.1,0,0-0.1v-0.1c0-0.1-0.1,0-0.1,0h-0.1
	c0,0,0,0,0,0.1c0,0.3,0,0.3-0.1,0.3c-0.2,0-0.2,0-0.2,0.1s0,0.1,0,0c0,0,0,0-0.1,0.1c0,0.1-0.1,0.1-0.2,0.2l-0.1,0.1l-0.1,0.1
	c-0.1,0.1-0.1,0.1-0.1,0h-0.1c0,0.1,0,0.1-0.1,0.1s-0.2,0-0.2,0.1v0.1c0.1,0,0.2,0.2,0.2,0.3c0,0.1,0,0.2-0.1,0.2
	c0,0.1,0,0.1-0.3,0.1c-0.1,0-0.3,0-0.3,0h-0.1c-0.1,0-0.1,0.1-0.1,0.2s0,0.2-0.1,0.3c0,0.1-0.1,0.1,0,0.2v0.1c0,0.1,0,0.1,0.1,0.1
	s0.1,0,0.1,0.1s0.1,0.1,0.1,0c0,0,0.1,0,0.2,0c0.1,0,0.1,0,0.1-0.1c0,0,0-0.1,0.1-0.1s0.1-0.2,0.1-0.3c0-0.1,0.1-0.3,0.3-0.3
	c0.1,0,0.1-0.1,0.1-0.2s0.1-0.2,0.2-0.1c0,0,0.1,0,0.2-0.1c0.1-0.1,0.2-0.1,0.2-0.1s0.1,0.1,0.2,0.2c0.1,0.1,0.2,0.2,0.3,0.3
	c0.2,0.1,0.3,0.2,0.2,0.4c0,0.1,0,0.1,0.1,0s0.1-0.1,0-0.2V20h0.1h0.1l-0.2-0.2l0,0c0,0,0,0-0.1,0c0,0-0.1-0.1-0.2-0.2
	c-0.1-0.1-0.1-0.2-0.1-0.2s0,0,0-0.1s0.1-0.2,0.1-0.1c0,0,0,0,0.1,0c0,0,0.1,0,0.1,0.1s0.1,0.1,0.1,0.1s0.1,0.1,0.2,0.1
	c0.1,0.1,0.1,0.1,0.1,0.2s0,0.2,0.1,0.3c0.1,0.1,0.1,0.2,0.1,0.2s0.1,0.2,0.2,0.2c0,0,0,0,0-0.1c0,0,0-0.1,0.1-0.1
	c0.1-0.1,0.1-0.2-0.1-0.1c0,0,0,0,0-0.1v-0.1c-0.1,0,0-0.1,0-0.1h0.1c0.1-0.1,0.3,0,0.3,0.1V20c0,0,0,0,0,0.1s0,0.1,0,0.1s0,0,0,0.1
	c0,0,0,0.1,0.1,0.1c0,0,0.1,0.1,0.2,0.1c0.1,0,0.1,0,0.1,0c0-0.1,0.1-0.1,0.1,0c0.1,0.1,0.2,0.1,0.2,0c0,0,0.1,0,0.1-0.1h0.1
	c0,0.1,0,0.1,0,0.2s0,0.3,0,0.4c-0.1,0.3-0.2,0.3-0.3,0.2c-0.1-0.1-0.1-0.1-0.2,0c-0.1,0.1-0.2,0.1-0.3,0c-0.1,0-0.2-0.1-0.3-0.1
	S14.3,21,14.3,21s0,0-0.1-0.1c-0.1,0-0.3,0.1-0.3,0.2c0,0,0,0.1,0,0.2s-0.1,0.1-0.2,0c-0.1,0-0.2-0.1-0.2-0.1s-0.1,0-0.1-0.1
	s-0.3-0.2-0.3-0.2s-0.3-0.1-0.3-0.2c0,0,0-0.1,0.1-0.1c0.1-0.1,0.1-0.1,0-0.1c0-0.1,0-0.1,0-0.1c0-0.1,0-0.1,0,0h-0.1c0,0,0,0-0.1,0
	s-0.3,0-0.5,0.1c-0.2,0-0.6,0.1-0.7,0.2h-0.4c0-0.1-0.1,0-0.1,0.1S10.9,21,10.8,21c-0.1,0.1-0.3,0.3-0.3,0.5c0,0.1-0.1,0.2-0.3,0.4
	c-0.1,0.1-0.4,0.4-0.4,0.5c0,0,0,0.1-0.1,0.1c0,0.1-0.1,0.2-0.2,0.3C9.4,23,9.4,23,9.4,23.1c0,0.1,0,0.2,0,0.4
	c0,0.1-0.1,0.4-0.2,0.5c0,0,0,0,0,0.1s0,0.1,0,0.2s0,0.1,0,0.1s0.1,0,0.1,0.1c0,0,0,0.1,0.1,0.2s0.1,0.2,0.1,0.3
	c0,0.2,0.3,0.4,0.4,0.5c0.1,0.1,0.1,0.1,0.4,0c0.1,0,0.2,0,0.3,0s0.2,0,0.4-0.1s0.5-0.2,0.7-0.1c0.1,0,0.1,0.1,0.1,0.1
	c0,0.1,0.1,0.1,0.3,0.1s0.2,0,0.3,0.1s0.1,0.1,0.1,0.2c0,0,0,0.2,0,0.3c0,0.1,0,0.2,0,0.2c0,0.1,0,0.2,0.2,0.4
	c0.2,0.2,0.3,0.5,0.4,0.8c0,0.1,0,0.2,0.1,0.3c0,0.1,0,0.2,0,0.2c-0.1,0.1-0.2,0.4-0.2,0.6s0.2,0.4,0.3,0.6c0,0,0.1,0.2,0.1,0.3
	c0,0.2,0.1,0.4,0.2,0.5c0.1,0.1,0.3,0.4,0.3,0.5s0,0.2,0.1,0.2s0.1,0,0.1,0s0.2,0,0.3-0.1c0.3,0,0.6-0.1,0.8-0.4
	c0.1-0.1,0.1-0.2,0.2-0.2c0.1-0.1,0.1-0.1,0.1-0.3c0-0.2,0-0.2,0.2-0.2c0.1-0.1,0.1-0.1,0.2-0.2c0-0.1,0-0.2,0-0.3
	c0-0.1,0-0.1,0.1-0.2c0,0,0.1-0.1,0.2-0.2c0-0.1,0.1-0.1,0.2-0.2c0.1,0,0.1-0.1,0.2-0.1c0.1-0.1,0.1-0.1,0.1-0.4c0-0.2,0-0.3,0-0.4
	c0,0,0-0.1,0-0.2s0-0.2,0-0.3c0-0.1,0-0.1,0.1-0.3c0.1-0.1,0.2-0.3,0.2-0.3c0.1-0.1,0.2-0.2,0.3-0.3c0.1-0.1,0.2-0.2,0.3-0.3
	c0.2-0.2,0.3-0.4,0.4-0.7c0-0.1,0.1-0.3,0.1-0.3s0-0.1,0-0.2c0-0.2,0-0.2-0.1-0.2c0,0-0.2,0.1-0.4,0.1c-0.1,0-0.2,0.1-0.3,0.1
	l-0.1-0.1c-0.1-0.1-0.1-0.1-0.1-0.1s-0.2-0.3-0.4-0.4c-0.1-0.1-0.1-0.1-0.2-0.3c0-0.1-0.1-0.2-0.1-0.3c-0.1-0.1-0.1-0.1-0.1-0.3
	c0-0.1-0.1-0.2-0.1-0.3c-0.1-0.1-0.1-0.1-0.1-0.2c0,0-0.1-0.1-0.1-0.2c-0.1-0.1-0.1-0.2-0.2-0.3c0-0.1-0.1-0.2-0.1-0.3
	c0-0.1-0.1-0.1-0.1-0.1l0.1,0.1c0.1,0.2,0.2,0.2,0.2,0.1s0-0.1,0,0c0,0,0.1,0.2,0.2,0.3c0.1,0.1,0.1,0.2,0.2,0.3c0,0,0,0.1,0.1,0.1
	c0.1,0.1,0.2,0.2,0.2,0.4c0,0.1,0.1,0.1,0.1,0.2c0.1,0.1,0.1,0.1,0.1,0.2c0,0,0.1,0.1,0.1,0.2c0.1,0.1,0.1,0.2,0.1,0.3
	c0,0.2,0.1,0.5,0.2,0.5h0.1l0.1-0.1h0.1h0.1c0,0,0,0,0.1-0.1c0,0,0.1-0.1,0.2-0.1s0.1-0.1,0.2-0.2c0-0.1,0.1-0.1,0.2-0.1
	s0.1-0.1,0.1-0.1v-0.1c0,0,0.1,0,0,0c0,0,0-0.1,0.1-0.1v-0.1v-0.2c0,0,0-0.1,0.1-0.1c0-0.1,0-0.1,0-0.1s0-0.1-0.1-0.1
	c0-0.1-0.1-0.1-0.2-0.1s-0.1-0.1-0.2-0.2v-0.1c0,0.1,0,0.1-0.1,0.1c-0.1,0.2-0.4,0.2-0.4,0c0-0.1-0.1-0.2-0.1,0c0,0.1,0,0.1-0.1-0.1
	c0-0.1-0.1-0.2-0.1-0.2s-0.1-0.1-0.1-0.2c-0.1-0.2-0.1-0.2,0-0.2c0.1-0.1,0.2,0,0.2,0.1c0.1,0.2,0.3,0.4,0.5,0.4H18l0,0
	c0-0.1,0-0.1,0.1,0.1c0,0.1,0.1,0.1,0.1,0.1c0.2,0.1,0.5,0.1,0.8,0.1c0,0,0.1,0,0.1,0.1c0.1,0.2,0.3,0.3,0.3,0.3l0,0l0,0
	c-0.1,0,0,0,0,0.1c0.1,0.1,0.2,0.1,0.2,0s0-0.1,0.1,0c0,0.1,0.1,0.1,0,0.2c0,0.3,0.2,0.5,0.3,0.8c0.1,0.1,0.1,0.2,0.1,0.2
	s0.1,0.1,0.1,0.2c0.1,0.1,0.1,0.2,0.2,0.3c0.1,0.2,0.1,0.2,0.2,0s0-0.5,0-0.7s0-0.2,0-0.2s0,0,0-0.1l0,0c0,0,0.1-0.1,0.1-0.3
	c0-0.1,0-0.1,0.1-0.1c0,0,0.1-0.1,0-0.2v-0.1h0.1H21c0,0,0,0,0-0.1s0,0,0.1,0.1c0,0.1,0.1,0.2,0.1,0.2l0.1,0.1v0.1
	c0,0,0.1,0.2,0.1,0.3c0,0.1,0,0.1,0,0.1C20.8,24.6,20.8,24.6,20.9,24.6c-0.1-0.1-0.1-0.1-0.1-0.2C20.9,24.5,20.9,24.5,20.9,24.6
	L20.9,24.6z M20,25.7c-0.1-0.2-0.1-0.2-0.1-0.1S20,25.9,20,26c0,0,0,0,0.1,0C20.1,25.9,20.1,25.8,20,25.7L20,25.7z M18.5,34.4
	L18.5,34.4C18.6,34.4,18.5,34.4,18.5,34.4L18.5,34.4L18.5,34.4z M17.4,25.2C17.4,25.2,17.5,25.2,17.4,25.2
	C17.5,25.2,17.5,25.1,17.4,25.2C17.4,25.1,17.4,25.2,17.4,25.2L17.4,25.2z M17.3,29.7L17.3,29.7C17.3,29.7,17.3,29.6,17.3,29.7
	C17.3,29.6,17.3,29.7,17.3,29.7L17.3,29.7L17.3,29.7z M17.2,33.4C17.2,33.5,17.2,33.5,17.2,33.4C17.3,33.4,17.3,33.4,17.2,33.4
	L17.2,33.4L17.2,33.4z M16.2,29.8c-0.1,0.1-0.1,0.1-0.1,0.3c0,0.2,0.1,0.3,0.2,0.2c0.1,0,0.1,0,0.1-0.1c0.2-0.2,0.3-0.6,0.4-0.9
	v-0.1v-0.1c0-0.1,0-0.1,0-0.1s0,0,0-0.1s0-0.3-0.1-0.3l0,0v0.1c0,0,0,0.1-0.1,0.1l-0.1,0.1c0,0-0.1,0.1-0.2,0.1
	c-0.2,0.1-0.2,0.2-0.2,0.4C16.2,29.6,16.2,29.7,16.2,29.8L16.2,29.8z M11.8,36.6C11.8,36.6,11.8,36.5,11.8,36.6
	C11.8,36.5,11.8,36.5,11.8,36.6C11.8,36.5,11.8,36.5,11.8,36.6C11.8,36.5,11.8,36.6,11.8,36.6z M10.7,36.8L10.7,36.8L10.7,36.8
	C10.7,36.8,10.7,36.7,10.7,36.8C10.7,36.7,10.7,36.7,10.7,36.8L10.7,36.8z M19.2,35.2c-0.1,0-0.1,0-0.1,0s0,0-0.1,0l0,0l0,0
	c0,0,0,0-0.1,0l0,0l0,0c-0.1,0-0.1,0-0.1,0l0,0c0,0-0.1,0-0.2,0s-0.1,0-0.1,0l0,0l0,0c0,0,0,0,0,0.1c0,0,0,0-0.1,0.1
	c-0.1,0-0.1,0-0.1,0.1c-0.1,0.1-0.1,0.1-0.1,0l0,0c0,0-0.2,0.1-0.3,0.1c-0.1,0-0.1,0-0.2,0c0,0-0.1,0-0.2,0.1c0,0-0.1,0-0.2,0
	s-0.2,0-0.2,0l0,0l0,0L17,35.8c-0.1,0-0.2,0.1-0.3,0.1h-0.1c0,0-0.1,0-0.1,0.1c-0.1,0-0.2,0.1-0.2,0.1c-0.1,0-0.1,0.1-0.2,0.1l0,0
	c0,0,0,0-0.1,0.1s-0.2,0.1-0.2,0.1v-0.1c0,0,0,0,0.1,0l0,0c0,0-0.1,0,0,0l0,0l0.1-0.1h-0.1c-0.2,0-0.5,0-0.5,0l0,0
	c-0.1,0-0.3,0-0.3,0.1c0,0,0,0-0.1,0h-0.1c0,0,0,0-0.1,0h-0.1h-0.1c-0.1,0-0.2,0.1-0.3,0.1c0,0-0.1,0.1-0.1,0l0,0h-0.1
	c0,0-0.1-0.1-0.1,0c-0.1,0.1-0.1,0.1-0.4,0.1c-0.2,0-0.3,0-0.4,0c-0.2,0-0.4,0-0.5,0c0,0,0,0-0.1,0s-0.4,0-0.5,0s-0.2,0.1-0.3,0
	c-0.1,0-0.2,0-0.2,0h-0.1c0,0,0,0.1-0.1,0c0,0,0,0-0.1,0h-0.1l0,0c0,0,0,0,0,0.1h-0.1l0,0c0,0,0,0-0.1,0h-0.1c0,0,0,0,0.1,0
	s0.1,0,0,0s-0.1,0.1-0.1,0.1s0,0-0.1,0c-0.2,0-0.9,0-0.9,0.1l0.2,0.1h0.1c0.1,0,0.1,0,0.1,0l0,0c0,0,0,0,0.1,0h0.1l0,0
	c0.7,0.1,1.4,0.2,2.1,0.2C14.9,37.4,17.3,36.6,19.2,35.2L19.2,35.2z M9.6,34C9.6,34,9.5,34,9.6,34C9.4,34,9.4,34,9.6,34
	C9.6,34.1,9.6,34.1,9.6,34L9.6,34z M9.4,37C9.4,36.9,9.4,36.9,9.4,37c-0.1-0.1-0.2-0.2-0.4-0.2c0,0-0.1,0-0.1,0.1c0,0,0,0.1-0.1,0.1
	l0,0c0.2,0,0.3,0.1,0.5,0.1C9.4,37,9.4,37,9.4,37C9.5,37,9.5,37,9.4,37L9.4,37z M8.8,18.1C8.9,18.1,8.9,18.1,8.8,18.1
	C8.9,18.1,8.9,18.1,8.8,18.1C8.9,18.1,8.9,18.1,8.8,18.1c0.1,0.1,0.1,0.1,0.1,0.1s0.1,0,0.1-0.1s0.1-0.2,0.1-0.2s0-0.1,0.1-0.1
	c0.1-0.1,0.1-0.1,0.1-0.1l0,0c0,0,0,0,0-0.1c0,0,0-0.1,0.1-0.1s0.1-0.1,0.2-0.1c0.1-0.1,0.1-0.1,0,0c0,0.1,0,0.1,0,0l0.1-0.1
	c0.1,0,0.1-0.1,0.2-0.1c0.1-0.1-0.3-0.1-0.3-0.1s0.5,0,0.5-0.1s0-0.1,0,0s0.3,0,0.6-0.1c0.1-0.1,0.2-0.1,0.1-0.1h-0.1
	c-0.1,0-0.1,0,0,0c0,0,0.1,0,0.1-0.1c0,0,0-0.1,0,0c0,0,0,0,0,0.1c0,0,0.2,0.1,0.2,0s-0.1-0.2-0.1-0.2c-0.1,0-0.1-0.1-0.1-0.1l0,0
	l0.1,0.1v-0.1l-0.1-0.1c0,0,0,0,0.1,0s0.2,0,0.2-0.1c0,0,0,0,0.1-0.1c0,0,0,0,0.1,0c0,0,0,0-0.1,0s-0.1-0.1,0-0.1h0.1
	c0-0.1,0-0.1-0.1-0.1s-0.1-0.1,0-0.1l0,0l0,0c0.1,0,0.1,0,0.1,0l0,0c0.1-0.1,0-0.1,0-0.1h-0.1c0,0,0,0-0.1,0l0,0c0,0,0,0,0.1-0.1
	l0.1-0.1c0,0,0,0,0.1-0.1c0,0,0-0.1,0.1-0.1s0.1,0,0.1,0c0.1-0.1,0.2-0.1,0.3-0.2H12h-0.1c-0.1,0-0.2,0-0.2,0c-0.1,0-0.1,0-0.2,0
	c0,0-0.1,0-0.2,0c-0.1,0-0.1,0-0.1,0l0,0c0,0,0,0,0.1-0.1c0-0.1,0-0.1-0.1,0c-0.1,0-0.1,0-0.1,0h0.1h0.1c0,0,0,0-0.1,0h-0.1
	c-0.2-0.1-0.5,0-0.7,0c-0.1,0-0.1,0-0.1,0.1c0,0-0.1,0-0.2,0c-0.1,0-0.2,0-0.2,0c0.1,0,0.1,0.1,0,0.1l0,0c0,0,0,0-0.2,0
	s-0.2,0-0.2,0c0,0.1,0,0.1-0.1,0H9.3l0,0c0-0.1-0.4,0.1-0.5,0.1c0,0,0,0-0.1,0.1c-0.1,0-0.3,0.1-0.3,0.2l0,0h0.1
	c0,0-0.1,0.1-0.2,0.1C8.1,15.9,8,16,8,16s0.2,0.1,0.2,0l0,0c0,0-0.1,0-0.1,0.1c-0.1,0-0.1,0-0.1,0s0,0,0.1,0.1c0,0,0.1,0,0.2,0
	c0.2,0,0.4,0,0.4,0.1l0,0v0.1c0,0.1,0,0.1,0,0.2c-0.1,0.1-0.1,0.1,0,0.1s0.1,0,0.1,0c0,0.1,0,0.1,0,0.1H8.7c0,0-0.1,0,0,0l0,0
	c0,0,0,0,0,0.1l0,0c0,0,0,0,0,0.1s0,0.1,0.1,0.1c0,0,0,0,0.1,0l0,0l0,0c0,0,0.1,0,0.1,0.1l0,0c0,0,0,0,0,0.1s-0.1,0.1-0.1,0.1
	s-0.1,0-0.1,0.1c-0.1,0.1-0.1,0.1-0.1,0.1s0,0,0,0.1c0,0,0,0,0,0.1v0.1c0,0.1,0,0.1,0.1,0c0.1,0,0.1,0,0,0C8.7,18,8.7,18,8.8,18.1
	C8.7,18.1,8.7,18.1,8.8,18.1L8.8,18.1z M8.4,36.8C8.4,36.7,8.4,36.7,8.4,36.8C8.4,36.7,8.4,36.7,8.4,36.8c-0.1,0-0.1,0-0.1,0
	C8.4,36.7,8.4,36.7,8.4,36.8L8.4,36.8z M8.1,35.3C8,35.3,8,35.3,8.1,35.3C8,35.4,8.1,35.4,8.1,35.3C8.1,35.4,8.1,35.4,8.1,35.3
	L8.1,35.3L8.1,35.3z M8.2,36.1L8.2,36.1C8.1,36,8.1,36,8.1,36l0,0c0,0,0,0,0-0.1c0,0,0-0.1-0.1-0.1l0,0l-0.2-0.2c0,0,0,0-0.1-0.1
	v-0.1c0-0.1,0.1-0.1,0.1-0.1l0,0c0-0.1,0.1-0.1,0.1-0.1l0,0l0,0c0,0,0,0,0.1,0c0,0,0,0-0.1,0H7.8c0,0,0,0-0.1,0s-0.2,0.1-0.2,0.1
	s-0.1,0-0.1,0.1s-0.1,0.1-0.1,0.1l0,0c0,0,0,0,0,0.1s0,0.1,0,0.1c-0.1,0-0.1,0,0.1,0.2L7.5,36c0,0,0,0.1-0.2,0c-0.2,0-0.2,0-0.2-0.1
	c0,0,0,0-0.1,0l0,0l0,0c0,0,0,0-0.1,0c0,0-0.1,0-0.1-0.1c0,0-0.1,0-0.1-0.1H6.6c0,0,0,0-0.1,0s-0.1-0.1-0.1-0.1H6.3H6.2
	c0,0,0,0-0.1,0c-0.2-0.1-0.5-0.2-0.7-0.3c0,0-0.1,0,0,0c0,0,0,0,0.1,0.1c0.1,0,0.1,0,0.1,0.1c0,0,0,0-0.1,0c0,0-0.1,0,0,0
	c0,0,0,0,0.1,0.1l0,0l0,0C6,35.9,6.5,36.2,7,36.4l0,0c0,0-0.1,0-0.1-0.1c0,0-0.1,0-0.1-0.1c0,0,0,0,0.1,0c0.2,0.1,0.4,0.2,0.4,0.1
	c0,0,0,0-0.1-0.1S6.9,36,6.9,36S7,36,7,36.1c0.1,0.1,0.3,0.1,0.4,0.1c0,0,0.1,0,0.2,0s0.1,0,0.1,0l0,0C8.1,36.2,8.1,36.2,8.2,36.1
	C8.2,36.2,8.2,36.2,8.2,36.1c-0.1,0-0.1,0-0.1,0C8.1,36.1,8.1,36.1,8.2,36.1L8.2,36.1L8.2,36.1z M7.8,36.5
	C7.8,36.5,7.7,36.5,7.8,36.5L7.8,36.5C7.8,36.5,7.9,36.5,7.8,36.5C8,36.5,7.9,36.5,7.8,36.5L7.8,36.5z M5.8,35.3
	C5.8,35.2,5.7,35.2,5.8,35.3L5.8,35.3L5.8,35.3l0.1,0.1C6.1,35.4,6,35.3,5.8,35.3L5.8,35.3z M5.9,32.5C5.9,32.5,5.8,32.5,5.9,32.5
	C5.9,32.5,5.9,32.6,5.9,32.5C5.9,32.6,5.9,32.5,5.9,32.5L5.9,32.5L5.9,32.5z M6.3,35.5L6.3,35.5L6.3,35.5L6.3,35.5L6.3,35.5
	L6.3,35.5z M6.5,33.6L6.5,33.6L6.5,33.6C6.5,33.6,6.6,33.6,6.5,33.6L6.5,33.6z M6.6,33.6L6.6,33.6C6.6,33.7,6.6,33.7,6.6,33.6
	C6.7,33.6,6.7,33.6,6.6,33.6L6.6,33.6z M7.1,35.7C7,35.7,7,35.7,7.1,35.7C7,35.8,7.1,35.8,7.1,35.7C7.1,35.8,7.1,35.8,7.1,35.7
	C7.1,35.8,7.1,35.7,7.1,35.7L7.1,35.7z M7.5,35.5L7.5,35.5C7.5,35.4,7.5,35.4,7.5,35.5C7.4,35.5,7.5,35.5,7.5,35.5L7.5,35.5z
	 M7.2,35.6L7.2,35.6L7.2,35.6C7.1,35.6,7.1,35.6,7.2,35.6L7.2,35.6z M7.1,35.6C7.1,35.7,7.2,35.7,7.1,35.6
	C7.3,35.7,7.3,35.7,7.1,35.6C7.2,35.6,7.1,35.6,7.1,35.6L7.1,35.6z M7.5,35.8C7.4,35.9,7.4,35.9,7.5,35.8c0.2,0.1,0.3,0,0.1-0.2
	c-0.1-0.1-0.1-0.1-0.2-0.1c0,0,0,0,0,0.1L7.5,35.8L7.5,35.8C7.5,35.7,7.5,35.7,7.5,35.8l-0.2-0.1c0,0,0,0-0.1,0l0,0c0,0,0,0,0.1,0
	C7.4,35.8,7.4,35.8,7.5,35.8L7.5,35.8L7.5,35.8z M7.7,35.3L7.7,35.3L7.7,35.3L7.7,35.3L7.7,35.3z M4.5,24.3l0.2,0.1h0.1
	c0.1,0,0.1,0,0.1,0s0-0.1-0.1-0.1C4.7,24.2,4.5,24.2,4.5,24.3C4.7,24.2,4.6,24.3,4.5,24.3C4.5,24.2,4.5,24.2,4.5,24.3L4.5,24.3z
	 M4.5,23.4L4.5,23.4C4.5,23.3,4.5,23.3,4.5,23.4C4.5,23.3,4.5,23.3,4.5,23.4L4.5,23.4L4.5,23.4z M4.3,24.3
	C4.3,24.2,4.2,24.2,4.3,24.3C4.2,24.3,4.2,24.3,4.3,24.3L4.3,24.3L4.3,24.3z M4.3,24L4.3,24c0.2,0.1,0.3,0,0.2,0H4.3
	c-0.1-0.4-0.2-0.4-0.3-0.4l-0.1,0.1c0,0.1,0,0.1,0,0c0,0,0.1,0,0.1-0.1h0.1l0,0c0,0,0.1,0,0,0l0,0c0,0,0,0,0,0.1
	C4.3,23.9,4.3,23.9,4.3,24C4.4,23.9,4.4,23.9,4.3,24L4.3,24z M5.1,24.3C5.1,24.3,5,24.3,5.1,24.3C5,24.4,5,24.4,5.1,24.3
	C5.1,24.4,5.1,24.4,5.1,24.3C5.2,24.3,5.1,24.3,5.1,24.3L5.1,24.3z M5.2,25.5L5.2,25.5L5.2,25.5L5.2,25.5L5.2,25.5z M6.9,20.3
	L6.9,20.3C6.8,20.2,6.8,20.3,6.9,20.3C6.8,20.3,6.9,20.4,6.9,20.3L6.9,20.3L6.9,20.3z M7.1,19.9C7.1,19.8,7,19.8,7.1,19.9
	C7,19.9,7.1,19.9,7.1,19.9C7.2,20,7.2,20,7.1,19.9L7.1,19.9z M7.8,19.9C7.7,19.9,7.7,19.9,7.8,19.9C7.7,19.8,7.7,19.8,7.8,19.9
	c-0.1-0.1-0.1-0.1,0-0.3c0.1-0.1,0-0.1-0.1,0s-0.1,0.1-0.1,0.2l-0.1,0.1c0,0,0,0,0,0.1v0.1l0,0c0,0,0.1,0,0.2,0s0.2,0,0.1,0
	C7.7,20.2,7.8,20.2,7.8,19.9c0.2,0,0.2,0,0.2,0C7.7,20,7.8,20,7.8,19.9L7.8,19.9L7.8,19.9z M7.8,20.1L7.8,20.1
	C7.7,20.2,7.7,20.2,7.8,20.1C7.7,20.2,7.7,20.2,7.8,20.1C7.8,20.2,7.8,20.2,7.8,20.1C7.8,20.2,7.8,20.1,7.8,20.1L7.8,20.1z M6,19.4
	L6,19.4L6,19.4C6,19.5,6,19.5,6,19.4L6,19.4L6,19.4z M6.4,19C6.3,19,6.3,19,6.4,19C6.3,19,6.3,19,6.4,19L6.4,19L6.4,19z M6.6,18.1
	C6.6,18.1,6.5,18.2,6.6,18.1C6.5,18.2,6.5,18.2,6.6,18.1C6.6,18.2,6.6,18.2,6.6,18.1C6.6,18.2,6.6,18.1,6.6,18.1L6.6,18.1z
	 M6.7,18.2L6.7,18.2C6.7,18.3,6.7,18.3,6.7,18.2C6.7,18.3,6.7,18.3,6.7,18.2C6.8,18.2,6.8,18.2,6.7,18.2L6.7,18.2z M6.8,18L6.8,18
	C6.7,18,6.7,18,6.8,18c0-0.1-0.1-0.2-0.1-0.2l0,0l0,0l0,0l-0.1,0.1C6.6,18,6.5,18,6.5,18c-0.1,0-0.1,0,0,0h0.1C6.6,18,6.6,18,6.8,18
	C6.8,17.9,6.8,17.9,6.8,18C6.7,18.1,6.8,18.1,6.8,18L6.8,18z M6.9,18C6.9,18.1,6.9,18.1,6.9,18C6.9,18.1,6.9,18.1,6.9,18
	C7,18.1,6.9,18,6.9,18L6.9,18z M7.3,17.3C7.2,17.3,7.2,17.4,7.3,17.3C7.2,17.4,7.3,17.3,7.3,17.3C7.4,17.2,7.4,17.2,7.3,17.3
	L7.3,17.3z M7.4,17.5C7.5,17.5,7.5,17.5,7.4,17.5C7.5,17.5,7.5,17.4,7.4,17.5C7.4,17.4,7.4,17.5,7.4,17.5L7.4,17.5z M7.5,17.4
	C7.5,17.4,7.4,17.4,7.5,17.4c-0.2,0.1-0.3,0.2-0.2,0.2C7.3,17.6,7.4,17.5,7.5,17.4C7.4,17.4,7.5,17.4,7.5,17.4L7.5,17.4z M3.2,19.8
	L3.2,19.8c0.1-0.1,0.1-0.2,0.1-0.2l0,0C3.2,19.7,3.2,19.8,3.2,19.8L3.2,19.8z M3,19.3L3,19.3L3,19.3C2.9,19.4,2.9,19.4,3,19.3
	C2.9,19.4,2.8,19.5,3,19.3C2.9,19.4,3,19.4,3,19.3C2.9,19.4,3,19.4,3,19.3L3,19.3z M5.7,33.6C5.7,33.6,5.7,33.5,5.7,33.6
	C5.7,33.5,5.7,33.5,5.7,33.6L5.7,33.6C5.8,33.6,5.8,33.6,5.7,33.6c0.1,0.1,0.1,0.1,0.1,0.1l0,0c0,0,0,0,0.1,0H6c0,0,0,0,0.1,0
	c0,0,0.1,0,0,0l0,0h0.1c0.1,0,0.1,0,0-0.1c-0.1,0-0.2-0.2-0.3-0.2c0,0,0-0.1-0.1-0.1c0,0-0.1,0,0,0c0,0,0,0,0-0.1
	c-0.1-0.1-0.1-0.1,0-0.1c0,0,0,0,0-0.1v-0.1c0.1,0,0.1-0.1,0-0.1s-0.2-0.2-0.1-0.2h0.1c0-0.1,0-0.2,0-0.2l0,0l0,0c0,0,0-0.1-0.1-0.1
	c0-0.1,0-0.1,0.1,0c0.1,0,0.1,0,0.1,0v-0.1c0,0,0,0,0.1,0c0.2,0,0.3,0,0.3-0.1s0-0.2,0-0.2s0,0,0-0.1c0,0,0-0.1-0.1-0.1l-0.1-0.1
	l0,0c0,0,0.1,0.1,0.2,0.1s0.2,0,0.2,0s0.1-0.1,0.1-0.2s0.1-0.2,0.1-0.2s0,0,0,0.1l0,0c0,0,0.1-0.1,0.1-0.2s0-0.2,0-0.3
	c0-0.1,0-0.2,0-0.2c0.1-0.1,0.3-0.2,0.4-0.2s0.2-0.1,0.2-0.1s0-0.1,0-0.2s0-0.1,0-0.2c0,0,0-0.1,0-0.2s0-0.2,0-0.4
	c0-0.2,0-0.2,0-0.3c0.1-0.2,0.3-0.4,0.3-0.6c0-0.1,0-0.2,0-0.3c0-0.1-0.1-0.2-0.1-0.2s-0.2-0.1-0.3-0.2c-0.2-0.2-0.2-0.2-0.3-0.2
	c-0.1,0-0.2,0-0.2-0.1H6.7c-0.1,0-0.1,0-0.1-0.1s0-0.1-0.2-0.2c-0.1,0-0.1-0.1-0.2-0.1c0,0,0,0.1-0.1,0.1c0,0.1-0.1,0.1-0.1,0.1
	v-0.1C6.1,27.1,6,27,5.9,27s-0.1,0-0.1,0.1s0,0.1-0.1,0c0,0,0-0.1,0.1-0.2s0.1-0.1,0-0.2c0,0-0.1-0.1-0.1-0.2s-0.1-0.2-0.1-0.3
	C5.5,26.1,5.5,26,5.3,26c-0.2,0-0.2-0.1-0.3-0.2c0-0.1-0.1-0.2-0.1-0.2c-0.1,0-0.1,0,0-0.1c0-0.1,0-0.1,0-0.1l-0.1-0.1
	c0-0.1,0-0.1-0.1,0c-0.1,0-0.1,0-0.1,0H4.5c-0.1,0-0.1,0-0.1-0.1s0-0.1-0.1-0.1l0,0l0,0c0,0,0,0.1,0,0H4.2c-0.1,0.1-0.1,0,0-0.1
	s0.1-0.1,0,0c-0.1,0-0.1,0.1-0.1,0.1s0,0-0.1,0c0,0,0,0-0.1,0l0,0c0,0,0,0,0,0.1c0,0-0.1,0.1-0.1,0.2c-0.1,0.1-0.1,0.1-0.1,0
	s-0.1-0.1-0.2-0.1c-0.1,0.1-0.1,0-0.1,0s0-0.1,0-0.2s0-0.1,0.1-0.4c0.1-0.2,0.1-0.3,0.1-0.3c0-0.1,0-0.1-0.2-0.1s-0.2,0-0.1-0.1
	c0,0,0.1-0.1,0.1-0.2s0.1-0.1,0.1-0.1s0,0,0.1-0.1s0.1-0.1,0.1-0.2c0.1-0.1,0.1-0.2,0-0.1c-0.1,0-0.2,0.1-0.2,0.2s-0.1,0.2-0.2,0.2
	c0,0,0,0-0.1,0s-0.2,0-0.1-0.3c0-0.2,0-0.2,0.1-0.4c0.1-0.1,0.1-0.2,0.1-0.3c0,0,0-0.1,0.1-0.1c0-0.1,0.2-0.3,0.2-0.3s0.1,0,0.1-0.1
	c0.1-0.1,0.2-0.1,0.3,0c0.1,0,0.1,0,0.1-0.1s0-0.1,0.1-0.1s0.1,0,0.1,0.1c0,0,0,0,0.1,0s0.1,0.1,0,0.2c0,0,0,0.1,0,0.2s0,0.1,0,0.1
	v0.1c0,0,0,0,0.1-0.1c0-0.1,0.1-0.2,0.1-0.5c0-0.1,0-0.1,0-0.2s0.1-0.2,0.2-0.2c0,0,0.1,0,0.1-0.1S5,21.7,5,21.7s0,0,0.1-0.1
	l0.1-0.1c0,0,0,0,0.1-0.1c0,0,0-0.1,0,0l0,0l0,0c0,0,0,0,0-0.1v-0.1c0-0.1,0.1-0.2,0.1-0.3c0,0,0,0,0,0.1s0,0.1,0,0.1L5.5,21
	c0,0,0-0.1,0.1-0.1c0,0,0.1,0,0.1-0.1s0.1-0.1,0.1-0.1s0.1,0,0,0c0,0,0,0,0.1-0.1c0.1,0,0.1,0,0.1-0.1s0.1-0.2,0.2-0.3
	c0.1,0,0.1-0.1,0.2-0.1h0.1h0.1c0.1,0,0.1,0,0,0l-0.1,0.1l-0.1,0.1h0.1l0.1-0.1c0.1,0,0.2-0.1,0.3-0.2l0,0l0,0l0,0c0,0,0,0,0-0.1
	s0-0.1-0.1,0S6.7,20,6.6,20s-0.1-0.1-0.1-0.2s0-0.1,0-0.1l0,0l0.1-0.1c0,0,0-0.1-0.1-0.1s-0.3,0.1-0.4,0.2s-0.1,0.1,0-0.1
	c0.1-0.1,0.2-0.2,0.2-0.2s0.1-0.1,0.2-0.1s0.1-0.1,0.3,0c0.2,0,0.2,0,0.3-0.1c0.1,0,0.2-0.1,0.2-0.1c0.1,0,0.1-0.1,0.2-0.2
	c0-0.1,0-0.1,0-0.2c0,0-0.1-0.1,0-0.1l0,0H7.4l0,0l0,0v-0.1v-0.1c0,0,0-0.2,0-0.3c0-0.1,0-0.1,0-0.2L7.3,18
	c-0.1,0.1-0.2,0.2-0.2,0.1c0,0,0,0-0.1,0c0,0,0,0,0-0.1c0.1-0.1,0.1-0.1,0-0.2c0,0-0.1,0,0,0c0,0,0-0.1-0.1-0.1H6.8H6.7
	c0,0-0.1,0.1-0.1,0.2c-0.1,0.1-0.1,0.2-0.1,0.2c-0.1,0.1-0.1,0.1,0,0.1c0,0,0,0.2-0.1,0.3c0,0-0.1,0.1-0.2,0.1c0,0-0.1,0-0.1,0.1
	s0,0.1,0,0.1C6,19,6,19,5.9,19.1c-0.1,0-0.1,0-0.1-0.1s0-0.1,0-0.2c0.1-0.3,0.1-0.3,0-0.3s-0.1,0-0.1,0l0,0c0,0,0,0-0.1-0.1
	l-0.1-0.1c-0.1,0-0.1,0-0.1-0.1s0-0.1,0-0.1s0-0.1,0.1-0.3c0.1-0.1,0.3-0.3,0.3-0.3l0,0c0,0,0.1-0.1,0.2-0.1s0.3-0.3,0.3-0.3l0,0
	h0.1l0,0c0,0,0-0.1,0.1-0.1c0,0,0.1,0,0.1-0.1c0,0,0,0,0.1,0l0,0v-0.1l0,0v-0.1H6.6c0,0,0.1,0,0.2,0s0.2,0,0.2-0.1s0-0.1,0.1,0v0.1
	l0,0l0,0c0,0,0,0,0,0.1C7.2,16.9,7.2,17,7,17.1c0,0-0.1,0-0.1,0.1c0,0,0,0.1-0.1,0.1H6.7c0,0-0.1,0-0.1,0.1c0,0,0,0,0.1,0
	s0.2,0,0.2,0l0,0l0,0c0,0,0,0.1,0.1,0.1l0,0c0,0,0,0,0.1,0.1h0.1c0.1,0,0.1-0.1,0-0.1c-0.1-0.1,0-0.1,0.1,0s0.1,0.1,0.1,0
	s0.1-0.1,0.1-0.1v-0.1c0,0,0,0,0-0.1s0-0.1,0-0.1c0.1-0.1,0.1,0,0.1,0.1s0.1,0.1,0.1,0l0,0c0,0,0.1,0,0.1-0.1L7.9,17c0,0,0,0-0.1,0
	c0,0-0.1,0-0.1-0.1c0,0,0,0-0.1-0.1c-0.1,0-0.2-0.1-0.1-0.2l0,0l0,0c0,0,0,0,0.1,0l0,0l0,0c0,0,0,0-0.1,0l0,0c0,0-0.1-0.1-0.1,0
	c0,0,0,0-0.1,0c0,0,0-0.1-0.1-0.1l0,0c0-0.1,0-0.1-0.1-0.1S7,16.4,7,16.5l0,0c0,0,0,0-0.1,0s-0.2,0.1-0.2,0.2v0.1l0,0c0,0,0,0-0.1,0
	v-0.1v-0.1c0,0,0,0,0.1-0.1c0.1,0,0.1,0,0,0s-0.2,0.1-0.3,0.2c-0.1,0.1-0.1,0.1-0.1,0.2s0,0.1,0.1,0.1s0.1,0,0.1,0l-0.1,0.1
	c0,0,0,0-0.1,0.1l-0.1,0.1l0,0c0,0.1-0.1,0.1-0.1,0v-0.1c0,0,0,0,0-0.1c0,0,0,0-0.1,0c-0.1,0.1-0.1,0.1-0.1,0V17c0,0,0,0,0-0.1v-0.2
	c0,0,0,0,0.1-0.1l0.1-0.1c0,0,0.2-0.1,0.2-0.2c0,0-0.3,0-0.3,0.1c0,0,0,0-0.1,0.1c0,0.1-0.1,0.1-0.1,0.2l-0.1,0.1c0,0.1,0,0.1,0,0.1
	l0,0l0,0c0,0,0,0.1-0.1,0.1c0,0-0.1,0-0.1,0.1c0,0,0,0.1-0.1,0c0,0,0,0,0-0.1v-0.1l0,0c0,0,0,0,0.1,0c0,0,0,0,0-0.1s-0.1-0.1-0.1,0
	c-0.1,0.1-0.1,0.1,0,0.1c0,0,0,0,0,0.1c-0.1,0.1-0.3,0.1-0.3,0H4.9c0,0,0,0,0.1,0h0.1c0,0,0,0-0.1,0s-0.1,0-0.1,0.1
	c0,0,0,0.1-0.1,0.1l0,0c0-0.1,0-0.1-0.2,0c-0.1,0-0.1,0-0.1,0s0,0,0.1,0s0-0.1-0.1,0H4.4H4.3H4.2l0,0c-0.1,0.1-0.1,0.1-0.1,0l0,0
	L4,17.3c-0.1,0-0.2,0.1-0.3,0.2H3.6c-0.1,0,0-0.1-0.2,0H3.3c0,0,0,0-0.1,0l0,0l0,0c0,0-0.1,0-0.1,0.1C3,17.6,3,17.7,3,17.7
	c-0.1,0.1-0.2,0.2-0.3,0.3l0,0c0,0,0,0,0,0.1l0,0l-0.1,0.1l0,0l0,0v0.1l-0.1,0.1c-0.1,0.1-0.2,0.2-0.2,0.4c0,0,0,0,0,0.1s0,0.1,0,0
	l0,0l0,0l0,0c0,0,0,0,0,0.1c0,0-0.1,0.1-0.2,0.2L2,19.3l0,0l0,0l0,0c0,0,0,0,0.1,0l0.1-0.1l0.1-0.1l0,0c0,0,0-0.1,0.1-0.1l0.1-0.1
	l0,0c0,0,0-0.1,0.1-0.1c0,0,0,0,0.1,0c0,0,0.2-0.1,0.2-0.2l0,0c0,0-0.2,0.2-0.1,0.2l0,0c-0.1,0.1,0,0,0.1,0L3,18.7c0,0,0,0,0.1-0.1
	c0-0.1,0-0.1,0.1,0l0,0v0.1c0,0,0,0,0.1,0l0,0c0,0.1-0.1,0.2-0.1,0.2l0.1-0.2l0,0l0,0l0,0v0.1c0,0,0,0,0,0.1l0,0c0,0,0,0,0-0.1l0,0
	l-0.1,0.1l0,0l0,0l0,0V19l0,0c0,0,0-0.1,0,0l0,0c0-0.1,0-0.1,0-0.1l0,0c0,0,0,0.2,0,0.1c0,0,0,0-0.1,0.1s-0.1,0.1,0,0.1l0,0
	c0,0.1-0.1,0.1,0,0.1l0,0v0.1v0.1l0,0c0,0,0,0-0.1,0l0,0c0,0,0,0.3,0.1,0.2c0,0,0,0,0-0.1s0-0.1,0-0.1l0,0l0,0c0,0,0,0.1,0,0.2
	s0,0.1-0.1,0c0,0,0,0,0,0.1s-0.1,0.1-0.2,0.3c-0.1,0.2-0.3,0.4-0.3,0.7c0,0,0,0,0,0.1s-0.1,0.2,0,0.2l0,0c0,0-0.1,0.1-0.1,0.2
	s0,0.2,0,0.2l0,0c0.1,0,0.1,0.1,0,0.3c0,0.1-0.1,0.3-0.1,0.3c0,0.1,0,0.1,0,0.1s-0.1,0,0,0.2v0.1c0,0.1,0,0.3,0,0.3v-0.1
	c0,0,0-0.1,0-0.2s0-0.2,0-0.2s0-0.1,0-0.2s0-0.2,0-0.2s0-0.1,0-0.2s0-0.1,0.1-0.1c0,0,0,0.1,0,0.2s0,0.2,0,0.3c0,0.1,0,0.2,0,0.2
	s0,0.1,0,0.2c0,0.2,0,0.4-0.1,0.5v0.1c0,0.1,0,0.2,0.1,0.3v0.1c0,0,0.1,0.1,0.1,0.2c0.1,0.1,0.1,0.1,0.2,0.1c0.1-0.1,0.1,0,0.1,0.1
	s0.1,0.3,0.2,0.3l0,0c0,0,0,0.1,0,0.2s0,0.2,0,0.2c0,0.1,0,0.1,0,0.1c0.1,0,0.1,0.1,0.1,0.2s0,0.1,0.1,0.1c0,0,0.1,0,0.1,0.1
	s0.1,0.1,0.1,0s0.1-0.2,0.1-0.2s0,0.1,0,0.2c0,0.2-0.1,0.7-0.1,0.7s0,0,0,0.1s0,0.1,0,0.1s-0.1,0.3-0.1,0.4c0,0,0,0.1,0.1,0.1
	c0,0,0.1,0.1,0,0.2s0,0.3,0.1,0.4c0,0.1,0.1,0.2,0.2,0.4c0.1,0.2,0.2,0.4,0.2,0.5S4,28.2,4,28.2c0,0.1,0.1,0.3,0.3,0.4
	c0.2,0.1,0.3,0.3,0.3,0.6c0.1,0.3,0.1,0.6,0.1,0.9c0,0.1,0,0.2,0,0.2v0.1c0,0,0,0.1,0,0.2c0.1,0.1,0.1,0.3,0,0.5c0,0.1,0,0.2,0,0.3
	c0,0.1,0,0.1,0,0.1s0,0.1,0,0.2s0,0.1,0,0.2c0,0,0,0.1,0,0c0,0,0,0,0-0.1s0-0.1,0-0.1s0.1,0.1,0.1,0.3v0.1c0,0.1,0,0.1,0,0.1H4.7
	l0,0c0.1,0,0.1,0,0.2,0.2c0,0,0,0-0.1,0c0,0-0.1-0.1-0.1,0l0,0c0,0,0,0.1,0.1,0.1c0,0.1,0,0.1,0,0l0,0c0,0,0,0.1,0,0.2l0,0
	c0,0,0.1,0,0.1,0.1S5,32.9,5,32.9l0,0c0,0,0,0,0.1,0C5.6,33.6,5.6,33.6,5.7,33.6C5.6,33.7,5.6,33.7,5.7,33.6
	C5.7,33.7,5.7,33.6,5.7,33.6L5.7,33.6z M2.7,26.8C2.7,26.7,2.7,26.7,2.7,26.8C2.7,26.7,2.7,26.7,2.7,26.8L2.7,26.8L2.7,26.8
	L2.7,26.8z M1.1,23.7L1.1,23.7C1.1,23.8,1.1,23.8,1.1,23.7C1.1,23.8,1.1,23.8,1.1,23.7L1.1,23.7L1.1,23.7z M4.7,17.4
	C4.8,17.4,4.8,17.4,4.7,17.4c0.1,0.1,0.2,0,0.2,0s0.1-0.1,0.2-0.1c0,0,0,0,0.1,0c0,0,0,0-0.1,0.1c0,0,0,0-0.1,0.1l0,0
	c0.1,0,0.1,0,0,0H4.9c0,0,0,0,0.1,0s0.1,0,0.1,0s0,0-0.1,0H4.9C4.9,17.5,4.9,17.5,4.7,17.4L4.7,17.4c0.1,0.1,0.1,0.1,0.2,0.1l0,0
	l0.3-0.1h0.1c0.1,0,0.2,0,0.2-0.1l0,0c0,0,0,0,0.1,0l0,0c0,0,0,0-0.1,0c0,0,0,0,0-0.1s0-0.1,0.1-0.2l0.1-0.1H5.6c0,0,0,0-0.1,0
	c0,0,0,0-0.1,0.1c0,0.1-0.1,0.1-0.1,0s0-0.1-0.1,0l0,0c0,0,0,0-0.1,0s-0.1,0,0,0l0,0l0,0c0,0,0-0.1-0.1-0.1H4.9H4.8
	c0,0-0.1,0-0.1,0.1c0,0,0,0-0.1,0.1C4.8,17.4,4.8,17.4,4.7,17.4L4.7,17.4z M5.2,16.9L5.2,16.9C5.3,16.9,5.3,16.9,5.2,16.9L5.2,16.9
	c0.1,0,0.1,0,0.2,0c0,0,0.1,0,0,0c0,0,0.1,0,0.1-0.1C5.6,16.7,5.4,16.8,5.2,16.9C5.3,16.9,5.2,16.9,5.2,16.9L5.2,16.9z M5.4,16.9
	L5.4,16.9C5.4,16.9,5.3,16.9,5.4,16.9C5.3,17,5.3,17,5.4,16.9L5.4,16.9z M5.6,16.8c-0.1,0-0.1,0-0.2,0.1V17l0,0c0,0,0,0,0.1,0
	c0,0,0,0,0.1,0l0,0l0,0l0,0C5.6,17,5.6,17,5.6,16.8c0.2,0.1,0.3,0,0.3,0c0.1,0,0.1-0.1,0.2-0.1l0,0c-0.1,0-0.1,0-0.1,0
	c0-0.1,0-0.1-0.1,0c0,0,0,0,0,0.1c0,0,0,0-0.1,0.1C5.7,16.8,5.7,16.8,5.6,16.8C5.7,16.8,5.6,16.8,5.6,16.8L5.6,16.8z M5.7,16.6
	L5.7,16.6L5.7,16.6L5.7,16.6L5.7,16.6z M5.8,16.6C5.8,16.6,5.9,16.6,5.8,16.6C5.9,16.5,5.9,16.5,5.8,16.6L5.8,16.6
	C5.7,16.6,5.8,16.6,5.8,16.6L5.8,16.6z M5.9,16.5C6,16.5,6,16.5,5.9,16.5C6,16.5,6,16.5,5.9,16.5C6,16.5,5.9,16.5,5.9,16.5
	C5.8,16.5,5.8,16.5,5.9,16.5z M6,16.8C6.1,16.7,6.1,16.7,6,16.8C6,16.7,6,16.7,6,16.8L6,16.8L6,16.8z M6.1,16.9L6.1,16.9
	C6,17,6,17,6.1,16.9C6,17,6,17,6.1,16.9L6.1,16.9C6,17,6,17,6.1,17.1c0,0,0,0,0.1,0c0,0,0,0,0.1,0S6.4,17,6.4,17s0,0,0-0.1
	c0,0,0.1-0.1,0-0.1C6.3,16.8,6.2,16.8,6.1,16.9C6.1,16.9,6,16.9,6.1,16.9L6.1,16.9z M6.1,16.6C6.1,16.6,6.1,16.7,6.1,16.6
	C6.1,16.6,6.1,16.7,6.1,16.6C6.1,16.7,6.2,16.7,6.1,16.6C6.3,16.6,6.3,16.6,6.1,16.6C6.2,16.6,6.2,16.7,6.1,16.6
	c0.2,0,0.2-0.1,0.3-0.2c0-0.1,0-0.1,0,0c-0.1,0-0.1,0-0.1,0l0,0l0,0C6.2,16.6,6.2,16.6,6.1,16.6L6.1,16.6L6.1,16.6z M6.1,16.5
	C6.1,16.5,6.2,16.5,6.1,16.5L6.1,16.5C6.1,16.5,6.1,16.6,6.1,16.5L6.1,16.5z M6.3,16.4C6.3,16.3,6.3,16.3,6.3,16.4
	C6.2,16.4,6.2,16.4,6.3,16.4C6.4,16.4,6.4,16.4,6.3,16.4h0.2C6.5,16.4,6.5,16.3,6.3,16.4C6.4,16.3,6.4,16.3,6.3,16.4
	C6.3,16.3,6.3,16.3,6.3,16.4C6.2,16.4,6.2,16.4,6.3,16.4L6.3,16.4z M6.6,16.6C6.6,16.6,6.6,16.6,6.6,16.6c-0.1,0-0.1,0-0.2,0l0,0
	C6.5,16.7,6.6,16.6,6.6,16.6L6.6,16.6z M6.6,16.5C6.7,16.5,6.7,16.5,6.6,16.5C6.7,16.5,6.7,16.6,6.6,16.5
	C6.6,16.6,6.6,16.6,6.6,16.5c0,0.1,0.1,0.1,0.3,0.1c0.2,0,0.3-0.1,0.4-0.1c0,0,0,0,0.1,0l0,0c0,0-0.1,0-0.3,0
	c-0.2,0.1-0.2,0.1-0.3,0C6.8,16.4,6.8,16.4,6.6,16.5C6.7,16.4,6.6,16.4,6.6,16.5C6.6,16.4,6.6,16.4,6.6,16.5
	C6.5,16.5,6.6,16.5,6.6,16.5L6.6,16.5z M6.6,16.3C6.6,16.3,6.6,16.4,6.6,16.3C6.6,16.4,6.7,16.4,6.6,16.3
	C6.8,16.3,6.8,16.3,6.6,16.3C6.7,16.3,6.7,16.3,6.6,16.3C6.7,16.3,6.7,16.2,6.6,16.3C6.7,16.3,6.7,16.3,6.6,16.3L6.6,16.3L6.6,16.3
	L6.6,16.3z M6.6,16.2L6.6,16.2C6.6,16.2,6.6,16.1,6.6,16.2L6.6,16.2L6.6,16.2z M6.9,16.4L6.9,16.4L6.9,16.4L6.9,16.4L6.9,16.4
	L6.9,16.4z M6.9,16.3C6.9,16.3,7,16.3,6.9,16.3L6.9,16.3L6.9,16.3L6.9,16.3z M6.9,16.1L6.9,16.1C6.8,16.2,6.8,16.2,6.9,16.1
	c0.1,0.1,0.1,0.1,0.3,0l0,0c-0.1,0,0,0.1,0,0c0,0,0.1,0,0,0l0,0c0,0,0,0-0.1,0s-0.1,0-0.1,0S7,16.1,6.9,16.1
	c-0.2,0.2-0.1,0.2,0.2,0.1c0.4-0.1,0.4-0.1,0.4-0.1l0,0c0,0,0.1,0,0.1-0.1c0,0,0,0,0.1,0c0,0,0.1,0,0.1-0.1c0.1-0.1,0.1-0.1,0,0
	c-0.1,0,0,0,0-0.1c0.1,0,0.3-0.1,0.4-0.2c0.1,0,0.2-0.1,0.2-0.1c0.1,0,0.1,0,0.1-0.1c0,0,0.1,0,0.1-0.1c0.1,0,0.1-0.1,0.2-0.1
	c-0.3-0.1-0.7,0.1-1,0.1c-0.1,0-0.2,0.1-0.2,0.1H7.5H7.4c0,0-0.1,0.1-0.2,0.1s-0.1,0.1-0.1,0.1h0.1c0,0,0,0,0.1,0l0,0l0,0
	c0.2,0,0.2-0.1,0.2,0c0,0-0.1,0-0.2,0.1c-0.1,0-0.2,0-0.2,0.1l0,0l0,0l0,0c0,0-0.1-0.1-0.2,0c-0.1,0-0.1,0-0.1,0.1l0,0
	C6.8,16,6.8,16.1,6.9,16.1C6.8,16.1,6.8,16.2,6.9,16.1L6.9,16.1z M9.7,15.1h0.1C9.8,15.1,9.8,15.1,9.7,15.1L9.7,15.1L9.7,15.1z
	 M12,17.5l-0.2-0.2l0,0c0,0-0.1,0-0.1,0.1c-0.1,0-0.2,0-0.2,0h-0.1c0,0,0-0.1-0.1,0c-0.1,0-0.1,0.1,0,0.1s0.1,0,0,0.1v0.1v0.1
	c0,0,0,0,0.1,0C11.6,17.7,12,17.6,12,17.5L12,17.5z M10.8,18.5L10.8,18.5C10.9,18.5,10.9,18.4,10.8,18.5
	C10.8,18.4,10.8,18.5,10.8,18.5L10.8,18.5L10.8,18.5z M10.8,19.1L10.8,19.1c0-0.1,0.1-0.1,0.1-0.2s-0.2-0.1-0.2,0L10.6,19
	c0,0-0.1,0-0.1,0.1v0.1c0,0,0,0,0,0.1c-0.1,0.1-0.1,0.1,0,0.1h0.1c0,0,0.1,0,0.1-0.1C10.7,19.3,10.8,19.2,10.8,19.1L10.8,19.1z
	 M11.4,19.3C11.5,19.2,11.4,19.2,11.4,19.3c0-0.1-0.1-0.1-0.1-0.2s0-0.1-0.1-0.1v-0.1c0,0,0-0.1-0.1-0.1c0,0,0,0,0-0.1
	c0.1-0.1,0.1-0.2,0-0.2s-0.1,0,0-0.1v-0.1H11c0,0-0.1,0.1-0.1,0.2s-0.1,0.1,0,0.1c0,0,0,0,0,0.1c0,0,0,0.1,0,0s0.1-0.1,0,0.1
	c0,0.1,0,0.1,0,0.1c0.1,0,0.1,0,0.1,0V19c0,0,0,0,0,0.1l-0.1,0.1c-0.1,0-0.1,0,0,0.1c0,0.1,0,0.1,0,0.1s-0.1,0-0.1,0.1l0,0h0.1
	c0.1,0,0.1,0,0,0c0,0-0.1,0-0.1,0.1c-0.1,0.1-0.1,0.1,0,0.1c0,0,0.1,0,0.2-0.1c0.1,0,0.2,0,0.2,0h0.1C11.4,19.5,11.4,19.5,11.4,19.3
	C11.4,19.4,11.4,19.4,11.4,19.3L11.4,19.3z M12.1,15.4L12.1,15.4C12.2,15.4,12.2,15.4,12.1,15.4c0,0.1,0.2,0.2,0.2,0.1h0.1
	c0,0,0,0-0.1,0.1c-0.1,0-0.1,0-0.1,0.1l0,0c0,0,0,0,0.1,0.1s0.1,0.1,0.1,0v-0.1c0,0,0,0,0.1-0.1l0.1-0.1c0.1,0,0.1,0.1,0.1,0.1
	c0,0.1,0.2,0.1,0.2,0l0,0c0,0-0.1,0-0.1-0.1c-0.1,0-0.1-0.1-0.2-0.1c0,0-0.1,0-0.1-0.1l0,0l0,0c0,0-0.1-0.1-0.1,0c0,0,0,0,0,0.1l0,0
	C12.4,15.3,12.1,15.3,12.1,15.4L12.1,15.4z M12.8,15.4c0.1,0,0.1,0,0.2,0c0.1,0,0.3,0,0.3-0.1L13,15.2
	C12.9,15.3,12.8,15.3,12.8,15.4C12.6,15.3,12.6,15.3,12.8,15.4L12.8,15.4z M15,15.6c0,0.1,0,0.1,0.1,0h0.1h-0.1
	C15,15.6,15,15.6,15,15.6L15,15.6z M15.3,17.1L15.3,17.1c0.1,0.1,0.1,0.1,0.1,0C15.4,17,15.3,17,15.3,17.1L15.3,17.1z M15.6,16.8
	L15.6,16.8c0.1,0.1,0.2,0.1,0.2,0.1h0.1c0,0-0.1,0-0.1-0.1C15.7,16.8,15.7,16.7,15.6,16.8c0.1-0.2,0.2-0.4,0.3-0.4l0,0
	c0,0,0.1-0.1,0.3-0.1c0.1,0,0.1,0,0.1,0s-0.1-0.1-0.2,0H16c-0.2,0-0.4,0.1-0.4,0.1l-0.1,0.1c0,0,0,0,0,0.1v0.1c0,0,0,0,0,0.1
	C15.5,16.7,15.5,16.7,15.6,16.8C15.4,16.7,15.5,16.8,15.6,16.8L15.6,16.8z M15.6,15.7L15.6,15.7L15.6,15.7L15.6,15.7L15.6,15.7z
	 M15.7,15.7h0.2C15.8,15.7,15.8,15.7,15.7,15.7L15.7,15.7L15.7,15.7z M15.9,15.7C15.9,15.7,16,15.7,15.9,15.7
	C16,15.7,16,15.7,15.9,15.7C16,15.7,15.9,15.7,15.9,15.7L15.9,15.7z M17.7,16.2C17.7,16.2,17.8,16.2,17.7,16.2
	c0.1,0.1,0.1,0.1,0.3,0.2c0.1,0.1,0.1,0,0.1,0c0-0.1,0-0.1-0.1-0.1c0,0-0.1,0-0.1-0.1S17.7,16,17.7,16.2
	C17.6,16.1,17.6,16.1,17.7,16.2C17.6,16.1,17.6,16.1,17.7,16.2C17.6,16.2,17.6,16.2,17.7,16.2L17.7,16.2z M18.1,16.5
	c0.1,0,0.1,0,0.1,0c0.1,0,0.1,0,0.1,0s0-0.1-0.1-0.1L18.1,16.5C18.3,16.4,18.2,16.4,18.1,16.5C18.2,16.4,18.1,16.5,18.1,16.5
	L18.1,16.5z M19,17.1L19,17.1L19,17.1C19.1,17.1,19.1,17.1,19,17.1C19.1,17.1,19,17.1,19,17.1L19,17.1z M20.2,17.4l0.3,0.1
	c0,0,0-0.1-0.1-0.1C20.2,17.4,20.2,17.4,20.2,17.4c0-0.1,0-0.1-0.1-0.1C20.1,17.3,20.1,17.4,20.2,17.4L20.2,17.4z M20.4,17.6
	C20.4,17.6,20.4,17.7,20.4,17.6c0.1,0.1,0.1,0.1,0.1,0.1C20.5,17.6,20.4,17.6,20.4,17.6L20.4,17.6z M20.5,17.6
	C20.5,17.6,20.6,17.6,20.5,17.6C20.6,17.6,20.6,17.6,20.5,17.6L20.5,17.6C20.5,17.5,20.5,17.5,20.5,17.6L20.5,17.6z M22.1,20.5
	L22.1,20.5C22.1,20.5,22.1,20.4,22.1,20.5C22.1,20.4,22.1,20.4,22.1,20.5L22.1,20.5z M22.1,21.2C22.1,21.1,22,21.1,22.1,21.2
	C21.9,21,21.9,21,22,21.1C22,21.2,22,21.2,22.1,21.2C22,21.3,22,21.4,22,21.4l0,0l0,0l0,0c0,0,0,0,0.1,0l0,0l0,0
	C22.2,21.3,22.1,21.2,22.1,21.2L22.1,21.2z M22.2,21.8c0-0.1,0-0.1-0.1-0.2c0-0.1-0.1-0.1-0.1-0.1l0,0l0,0c0,0,0,0,0,0.2
	c0,0.1,0.1,0.2,0,0.3l0,0c0-0.1,0-0.1,0,0c0,0.2,0,0.2,0,0.2c-0.1,0-0.1,0.1-0.1,0.2s0,0.1,0,0.1s0,0,0,0.1s0.1,0.1,0.1,0
	s0-0.1-0.1-0.2c0-0.1,0-0.1,0-0.1l0,0l0,0c0,0,0,0,0,0.1c0,0,0,0,0,0.1s0,0.1,0,0l0,0c0,0,0,0,0-0.1v-0.1c0,0,0,0,0,0.1s0.1,0.1,0,0
	c0-0.1,0-0.1,0-0.1l0,0l0,0c0,0.1,0,0,0-0.1C22.2,21.9,22.2,21.9,22.2,21.8L22.2,21.8z M22.3,24.8c-0.1,0-0.1-0.2-0.1-0.3
	c0,0,0-0.1,0-0.2s0-0.1-0.1-0.1c0,0,0,0,0,0.1v0.1v0.1c0,0,0,0,0,0.1s0,0.1,0,0.1C22.2,24.7,22.2,24.7,22.3,24.8
	C22.2,24.8,22.2,24.8,22.3,24.8C22.2,24.8,22.3,24.8,22.3,24.8C22.3,24.9,22.3,24.9,22.3,24.8L22.3,24.8
	C22.4,24.9,22.4,24.9,22.3,24.8L22.3,24.8L22.3,24.8z M22.4,25L22.4,25L22.4,25L22.4,25L22.4,25z M22.4,25
	C22.5,25.1,22.5,25.1,22.4,25c0,0.1,0,0.1,0,0.2s0,0.1,0,0C22.5,25,22.5,25,22.4,25L22.4,25L22.4,25z M22.1,27.4
	C22.1,27.4,22.2,27.4,22.1,27.4C22.2,27.4,22.3,27.4,22.1,27.4C22.2,27.4,22.1,27.4,22.1,27.4L22.1,27.4z M22.4,25.2
	C22.4,25.3,22.4,25.3,22.4,25.2C22.5,25.2,22.5,25.3,22.4,25.2C22.5,25.3,22.5,25.3,22.4,25.2C22.5,25.3,22.5,25.2,22.4,25.2
	L22.4,25.2L22.4,25.2z M22.4,25.3c0-0.1,0-0.2-0.1-0.2c0,0,0,0,0,0.1s0,0.1,0,0C22.4,25.1,22.4,25.1,22.4,25.3L22.4,25.3
	C22.4,25.4,22.4,25.4,22.4,25.3L22.4,25.3z M22.3,25L22.3,25L22.3,25C22.2,24.9,22.2,24.9,22.3,25C22.2,24.9,22.2,24.9,22.3,25
	L22.3,25z M22.2,25.3C22.2,25.2,22.2,25.2,22.2,25.3C22.2,25.2,22.2,25.2,22.2,25.3C22.2,25.5,22.2,25.5,22.2,25.3L22.2,25.3z
	 M21.9,23.4C21.9,23.4,21.8,23.4,21.9,23.4L21.9,23.4c0,0.2,0,0.2,0,0.3c0,0,0,0,0,0.1v-0.1C21.9,23.6,21.9,23.4,21.9,23.4
	L21.9,23.4z M21.5,20c0,0,0,0.2,0.1,0.2c0,0,0.1,0.2,0.2,0.4c0.1,0.3,0.1,0.3,0.1,0.3l0,0c0,0,0,0,0-0.1l-0.1-0.1c0-0.1,0-0.2,0-0.2
	s0,0,0-0.1s-0.2-0.3-0.2-0.3C21.6,20.1,21.6,20,21.5,20C21.5,19.9,21.5,19.9,21.5,20C21.5,20,21.6,20,21.5,20L21.5,20z M21.8,27.3
	C21.8,27.3,21.9,27.3,21.8,27.3C21.9,27.3,21.9,27.3,21.8,27.3L21.8,27.3L21.8,27.3z M21.7,26.9C21.7,26.9,21.7,26.8,21.7,26.9
	C21.7,26.9,21.6,26.9,21.7,26.9L21.7,26.9L21.7,26.9z M21.6,26.9L21.6,26.9C21.6,26.7,21.6,26.7,21.6,26.9
	C21.5,26.8,21.6,26.9,21.6,26.9L21.6,26.9z M21.6,27.4h0.1c0.1,0,0.2,0,0.3,0c0,0,0,0-0.1,0c0,0-0.1,0-0.1-0.1
	C21.8,27.3,21.8,27.3,21.6,27.4C21.6,27.3,21.6,27.3,21.6,27.4l-0.1-0.1C21.4,27.4,21.5,27.4,21.6,27.4L21.6,27.4z M21.2,26.5
	L21.2,26.5C21.1,26.5,21.1,26.5,21.2,26.5C21.1,26.5,21.1,26.5,21.2,26.5L21.2,26.5z M21.2,26.8L21.2,26.8L21.2,26.8
	C21.2,26.7,21.2,26.7,21.2,26.8L21.2,26.8L21.2,26.8z M21.2,26.5L21.2,26.5c0,0.2,0,0.3,0,0.3c0,0.1,0.1,0.4,0.2,0.4
	c0,0,0,0,0.1-0.2c0-0.1,0-0.2,0-0.3c0-0.1,0-0.2,0-0.2v-0.1c0,0,0-0.1-0.1-0.1v-0.1c0,0,0-0.1-0.1-0.2c0-0.1-0.2-0.2-0.2-0.2H21l0,0
	c0,0,0.1,0.1,0.1,0.3C21.2,26.4,21.2,26.5,21.2,26.5L21.2,26.5z M22,27.4L22,27.4C21.9,27.5,21.9,27.5,22,27.4
	C22,27.5,22,27.5,22,27.4L22,27.4L22,27.4z M22.1,26.7C22.1,26.7,22.2,26.6,22.1,26.7c0.1-0.1,0.1-0.2,0.1-0.2c0-0.1,0-0.1,0.1-0.1
	c0,0,0.1-0.1,0-0.1v-0.1c0-0.1,0-0.1,0-0.1l0,0l0,0c0,0,0,0,0-0.1v-0.1l0,0c0,0,0-0.1-0.1-0.1c0-0.1-0.1-0.1-0.1,0.1
	c0,0.1,0,0.1,0,0.1s0,0,0,0.1L22,26.2l-0.1,0.1c0,0,0,0.1-0.1,0h-0.1c0,0.1,0,0.3,0,0.3v0.1c0,0.1,0,0.1,0,0.1l0,0c0,0,0,0,0.1,0
	h0.1l0,0C22.1,26.9,22.1,26.7,22.1,26.7L22.1,26.7z M22.1,27.4L22.1,27.4C22.1,27.4,22,27.4,22.1,27.4C22,27.4,22,27.4,22.1,27.4
	C22,27.5,22,27.5,22,27.5S22,27.5,22.1,27.4L22.1,27.4L22.1,27.4z M22.1,27.5L22.1,27.5C22.1,27.6,22.1,27.6,22.1,27.5L22.1,27.5
	L22.1,27.5L22.1,27.5z M22.4,27.3c-0.1,0.1-0.1,0.1-0.1,0.2s0,0.1,0.1,0C22.4,27.4,22.4,27.4,22.4,27.3
	C22.4,27.3,22.5,27.3,22.4,27.3C22.5,27.3,22.5,27.3,22.4,27.3L22.4,27.3z M22.6,26.3c0,0-0.1,0.1-0.1,0c0,0-0.1,0.1-0.1,0.2v0.1
	l-0.1,0.3V27c0,0.1,0,0.1,0,0.1s0-0.1,0.1-0.2c0-0.1,0-0.1,0.1-0.1l0,0v0.1c0,0.1,0,0.1,0,0s0.1-0.1,0,0V27c0,0,0-0.1,0-0.2v-0.1
	v-0.1c0,0,0,0,0.1-0.1c0-0.1,0.1-0.1,0-0.1c0,0,0,0-0.1,0.1c0,0,0,0-0.1,0v-0.1c0,0,0-0.1,0.1-0.1C22.5,26.4,22.6,26.3,22.6,26.3
	C22.6,26.2,22.6,26.2,22.6,26.3L22.6,26.3z M22.6,27.5C22.6,27.5,22.6,27.6,22.6,27.5C22.5,27.6,22.5,27.6,22.6,27.5
	C22.6,27.6,22.6,27.6,22.6,27.5C22.6,27.6,22.6,27.5,22.6,27.5L22.6,27.5z M22.6,26.7L22.6,26.7L22.6,26.7
	C22.6,26.8,22.6,26.8,22.6,26.7C22.6,26.8,22.6,26.8,22.6,26.7L22.6,26.7z M22.5,25.4L22.5,25.4C22.5,25.5,22.4,25.5,22.5,25.4
	L22.5,25.4C22.5,25.6,22.5,25.5,22.5,25.4c0,0.1,0,0.1,0,0.2s0.1,0.1,0.1,0.1s0,0,0-0.1s0-0.1,0,0l0,0l-0.1-0.3
	C22.6,25.3,22.5,25.3,22.5,25.4S22.5,25.5,22.5,25.4L22.5,25.4z M22.7,27.1C22.7,27.1,22.7,27.2,22.7,27.1
	C22.7,27.2,22.7,27.2,22.7,27.1L22.7,27.1L22.7,27.1z M22.7,26.7L22.7,26.7L22.7,26.7c0.1,0,0.1,0,0.1,0
	C22.8,26.7,22.7,26.7,22.7,26.7S22.6,26.7,22.7,26.7L22.7,26.7z M22.7,26.4c0,0,0.1-0.2,0.1-0.3l0,0l0,0c0,0,0-0.1,0,0
	C22.7,26.2,22.7,26.4,22.7,26.4L22.7,26.4z M22.8,26.4L22.8,26.4C22.8,26.3,22.8,26.3,22.8,26.4C22.8,26.3,22.8,26.4,22.8,26.4
	L22.8,26.4z M23.6,26.9L23.6,26.9C23.6,26.9,23.6,26.8,23.6,26.9C23.6,26.8,23.6,26.8,23.6,26.9L23.6,26.9z M24.7,25.8
	c0,6.8-5.5,12.4-12.4,12.4c-6.8,0-12.4-5.5-12.4-12.4c0-6.8,5.5-12.4,12.4-12.4C19.2,13.4,24.7,19,24.7,25.8z M20.2,21.8L20.2,21.8
	C20.2,21.8,20.3,21.8,20.2,21.8C20.3,21.8,20.3,21.8,20.2,21.8C20.3,21.8,20.2,21.8,20.2,21.8L20.2,21.8z M19.9,19.4L19.9,19.4
	c0,0.2,0,0.4-0.1,0.5l0,0c0,0,0.1,0,0.1-0.1v-0.1C19.9,19.7,19.9,19.5,19.9,19.4L19.9,19.4L19.9,19.4z M18.4,20.4L18.4,20.4
	L18.4,20.4C18.3,20.3,18.3,20.4,18.4,20.4L18.4,20.4z M18.4,17C18.5,17,18.5,17,18.4,17C18.4,16.9,18.4,16.9,18.4,17
	C18.4,16.9,18.4,16.9,18.4,17L18.4,17z M18.2,20.3L18.2,20.3c-0.1,0.1-0.1,0.1-0.1,0.2s0,0.1,0.1,0C18.1,20.4,18.2,20.4,18.2,20.3
	C18.2,20.4,18.2,20.3,18.2,20.3L18.2,20.3L18.2,20.3z M18.5,20.9C18.5,20.9,18.4,20.9,18.5,20.9C18.4,21,18.5,21,18.5,20.9
	C18.5,21,18.5,21,18.5,20.9L18.5,20.9L18.5,20.9z M17.5,17.1L17.5,17.1c0,0.1,0,0.1,0.1,0.1l0,0C17.6,17.2,17.6,17.2,17.5,17.1
	C17.6,17,17.5,17,17.5,17.1L17.5,17.1z M18.6,16.9L18.6,16.9C18.6,16.9,18.6,17,18.6,16.9C18.6,17,18.6,16.9,18.6,16.9L18.6,16.9z
	 M18.7,20.1C18.7,20.1,18.7,20.2,18.7,20.1C18.7,20.2,18.7,20.2,18.7,20.1C18.8,20.2,18.7,20.2,18.7,20.1
	C18.7,20.2,18.7,20.1,18.7,20.1L18.7,20.1z M7.8,15.8C7.8,15.7,7.8,15.7,7.8,15.8C7.7,15.8,7.7,15.8,7.8,15.8
	C7.7,15.8,7.7,15.8,7.8,15.8L7.8,15.8L7.8,15.8z M5.6,20.8c0.1,0,0.1,0,0.2-0.1c0-0.1,0.1-0.1,0-0.1C5.7,20.6,5.7,20.7,5.6,20.8
	C5.5,20.7,5.5,20.8,5.6,20.8L5.6,20.8z M4.7,18.1C4.7,18.1,4.6,18.2,4.7,18.1c-0.1,0.1-0.1,0.1-0.2,0.2l0,0h0.1
	C4.6,18.2,4.7,18.2,4.7,18.1C4.7,18.2,4.7,18.2,4.7,18.1L4.7,18.1L4.7,18.1C4.8,18.1,4.8,18,4.7,18.1C4.6,18,4.6,18,4.7,18.1
	C4.9,18,4.8,18,4.7,18.1c-0.1,0-0.1,0.1-0.2,0.1C4.5,18.2,4.6,18.2,4.7,18.1C4.6,18.1,4.7,18.1,4.7,18.1L4.7,18.1z M4.9,20L4.9,20
	L4.9,20C5,19.9,5,19.9,4.9,20C5,19.9,4.9,19.9,4.9,20L4.9,20z M4.8,19.7c0,0-0.1,0.2,0,0.2C4.8,19.8,4.8,19.8,4.8,19.7L4.8,19.7
	L4.8,19.7z M5,19.4L5,19.4C5,19.4,4.9,19.4,5,19.4c-0.1,0.1-0.1,0.2-0.1,0.3v0.1c0,0.1,0,0.1,0,0c0,0,0.1-0.1,0.1-0.2
	C5,19.5,5,19.4,5,19.4L5,19.4z M4.9,19.5C4.8,19.5,4.8,19.5,4.9,19.5c0,0.1,0,0.1-0.1,0.2c0,0,0,0,0,0.1c0,0,0,0,0-0.1
	C4.9,19.5,4.9,19.5,4.9,19.5C4.9,19.4,4.9,19.4,4.9,19.5L4.9,19.5z M5,19L5,19C4.9,19.1,4.9,19.1,5,19C4.9,19.1,5,19,5,19
	C5.1,18.9,5.1,18.9,5,19L5,19L5,19z M4.7,18.5L4.7,18.5C4.7,18.6,4.6,18.6,4.7,18.5c-0.1,0.1-0.2,0.1-0.2,0.2c0,0,0,0,0.1,0h0.1
	C4.7,18.6,4.8,18.6,4.7,18.5c0.1,0,0.2,0,0.2,0s0,0,0.1,0c0-0.1,0,0-0.1,0C4.8,18.5,4.8,18.5,4.7,18.5L4.7,18.5z M4.8,18.8
	C4.8,18.8,4.7,18.8,4.8,18.8C4.6,18.9,4.6,18.9,4.8,18.8C4.9,18.8,4.9,18.8,4.8,18.8L4.8,18.8z M5.5,18.2
	C5.6,18.2,5.5,18.2,5.5,18.2C5.5,18.3,5.5,18.3,5.5,18.2C5.5,18.3,5.5,18.3,5.5,18.2L5.5,18.2z M5.1,20.5C5,20.6,4.8,21,4.8,21
	c0,0.1,0.1,0,0.2-0.2C5.1,20.6,5.1,20.6,5.1,20.5c0.2-0.1,0.2-0.1,0.2,0s0,0.1,0,0.1l-0.1,0.1l0,0l0,0v0.1c0-0.1,0.1-0.1,0.1-0.1
	c0-0.1,0.1-0.2,0.1-0.2l0,0c0,0.1,0.1,0,0.1-0.1s-0.1-0.1-0.1,0l0,0l0,0C5.5,20.3,5.2,20.4,5.1,20.5L5.1,20.5z M5.1,20.2
	C5.2,20.2,5.2,20.2,5.1,20.2c0,0,0.1,0.1,0.2,0.1h0.1v-0.1c0-0.1,0-0.1,0-0.1l0,0C5.4,20,5.3,20,5.1,20.2c-0.1,0-0.2,0-0.2,0.1
	C4.9,20.3,5,20.3,5.1,20.2L5.1,20.2z M5.4,19.9C5.4,19.8,5.4,19.8,5.4,19.9C5.3,19.9,5.3,19.9,5.4,19.9C5.3,19.9,5.4,19.9,5.4,19.9
	L5.4,19.9z M5.2,20.9C5.2,20.9,5.1,21,5.2,20.9c0,0.1,0.2,0,0.3-0.1C5.5,20.8,5.5,20.8,5.2,20.9L5.2,20.9z M7.6,19.3L7.6,19.3
	C7.7,19.2,7.7,19.2,7.6,19.3C7.6,19.3,7.5,19.3,7.6,19.3L7.6,19.3z M6.8,19.7L6.8,19.7C6.8,19.6,6.8,19.6,6.8,19.7
	C6.7,19.6,6.7,19.7,6.8,19.7L6.8,19.7z M7.3,19.3L7.3,19.3C7.3,19.2,7.3,19.2,7.3,19.3C7.3,19.2,7.3,19.2,7.3,19.3L7.3,19.3z
	 M7.6,15.9L7.6,15.9L7.6,15.9L7.6,15.9L7.6,15.9z M6.1,17.7C6.1,17.7,6.1,17.6,6.1,17.7C6.1,17.6,6,17.7,6.1,17.7
	C6,17.7,6,17.7,6.1,17.7C6,17.7,6.1,17.7,6.1,17.7z M6.6,31.6C6.6,31.6,6.6,31.5,6.6,31.6C6.5,31.5,6.5,31.6,6.6,31.6
	C6.5,31.6,6.5,31.6,6.6,31.6L6.6,31.6z M7.3,16.1C7.4,16.1,7.4,16,7.3,16.1C7.4,16,7.4,16,7.3,16.1C7.3,16,7.3,16.1,7.3,16.1
	L7.3,16.1L7.3,16.1z M6.4,19.7L6.4,19.7C6.3,19.8,6.3,19.8,6.4,19.7C6.5,19.7,6.5,19.7,6.4,19.7L6.4,19.7z M6.4,17.9L6.4,17.9
	C6.4,17.8,6.4,17.8,6.4,17.9C6.4,17.9,6.3,17.9,6.4,17.9L6.4,17.9L6.4,17.9z M6.8,17.2L6.8,17.2L6.8,17.2
	C6.9,17.2,6.9,17.2,6.8,17.2L6.8,17.2z M7.4,17C7.4,17,7.5,17,7.4,17C7.5,17,7.5,16.9,7.4,17L7.4,17L7.4,17
	C7.4,16.9,7.4,16.9,7.4,17C7.4,16.9,7.4,16.9,7.4,17C7.3,17,7.4,17,7.4,17L7.4,17z M7.8,17.1C7.8,17.1,7.9,17.1,7.8,17.1
	C7.9,17,7.8,17,7.8,17.1L7.8,17.1L7.8,17.1z M7.6,17.7C7.6,17.7,7.6,17.6,7.6,17.7C7.7,17.6,7.7,17.6,7.6,17.7
	C7.6,17.6,7.6,17.6,7.6,17.7C7.5,17.7,7.5,17.7,7.6,17.7L7.6,17.7z M13.8,17.8L13.8,17.8C13.8,17.9,13.8,17.9,13.8,17.8
	C13.8,17.9,13.8,17.8,13.8,17.8L13.8,17.8L13.8,17.8z M13.8,17L13.8,17L13.8,17L13.8,17L13.8,17z M15.1,27.4h0.1l0,0
	c0,0,0-0.1,0.1-0.2s0.1-0.1,0-0.2c-0.1,0-0.2,0-0.3,0c0,0,0,0.1-0.1,0.2C15,27.5,15,27.5,15.1,27.4L15.1,27.4z M14,17.9L14,17.9
	L14,17.9C14,17.9,13.9,17.9,14,17.9C13.9,18,13.9,18,13.9,18l0,0l0,0C14,18.1,14,18,14,17.9L14,17.9L14,17.9z M3,19.2L3,19.2
	C2.9,19.3,2.9,19.3,3,19.2L3,19.2L3,19.2z M12.6,18.3C12.6,18.3,12.5,18.4,12.6,18.3C12.5,18.4,12.6,18.4,12.6,18.3
	C12.7,18.3,12.6,18.3,12.6,18.3L12.6,18.3z M21.6,21L21.6,21C21.6,20.9,21.6,20.9,21.6,21C21.5,20.9,21.5,20.9,21.6,21L21.6,21
	L21.6,21z M13.7,18L13.7,18L13.7,18C13.7,17.9,13.7,17.9,13.7,18L13.7,18z M15.3,28.5L15.3,28.5C15.2,28.4,15.2,28.5,15.3,28.5
	c-0.1,0.2-0.1,0.3-0.1,0.3v0.1c0,0,0,0,0-0.1s0-0.2,0-0.2C15.3,28.6,15.3,28.6,15.3,28.5L15.3,28.5z M15.6,26.5c0,0.1,0,0.1,0,0.2
	c0,0,0.1,0,0,0C15.7,26.6,15.6,26.6,15.6,26.5L15.6,26.5L15.6,26.5L15.6,26.5z M15.7,25.3L15.7,25.3L15.7,25.3
	C15.6,25.3,15.6,25.3,15.7,25.3C15.6,25.3,15.6,25.3,15.7,25.3L15.7,25.3z M10.6,25.9L10.6,25.9L10.6,25.9
	C10.6,26,10.7,26,10.6,25.9C10.7,26,10.6,25.9,10.6,25.9z M10.6,26.1L10.6,26.1C10.6,26.1,10.7,26.1,10.6,26.1
	C10.7,26.1,10.6,26.1,10.6,26.1L10.6,26.1L10.6,26.1z M12.6,25.1C12.5,25,12.4,25,12.6,25.1C12.5,25.2,12.7,25.2,12.6,25.1
	C12.7,25.1,12.6,25.1,12.6,25.1L12.6,25.1z M17.2,17L17.2,17C17.3,17.1,17.3,17.1,17.2,17C17.3,17.1,17.3,17.1,17.2,17
	C17.3,17,17.2,17,17.2,17L17.2,17z M5.4,33.4L5.4,33.4C5.5,33.4,5.5,33.4,5.4,33.4C5.5,33.4,5.5,33.4,5.4,33.4L5.4,33.4z M5.2,32.9
	L5.2,32.9C5.2,33,5.3,33,5.2,32.9C5.3,33,5.3,33,5.2,32.9C5.3,33,5.2,32.9,5.2,32.9L5.2,32.9z M4.6,29.2C4.6,29.2,4.7,29.2,4.6,29.2
	C4.7,29.3,4.7,29.3,4.6,29.2C4.7,29.1,4.6,29.1,4.6,29.2L4.6,29.2z M4.3,25.4v0.2C4.3,25.6,4.3,25.6,4.3,25.4
	C4.4,25.5,4.3,25.4,4.3,25.4L4.3,25.4z M3.3,21.1C3.3,21.1,3.4,21.1,3.3,21.1C3.4,21.1,3.3,21.1,3.3,21.1L3.3,21.1
	C3.3,21.2,3.3,21.2,3.3,21.1z M3.3,25.1L3.3,25.1C3.3,25.2,3.4,25.2,3.3,25.1C3.4,25.1,3.3,25.1,3.3,25.1L3.3,25.1z M5.6,33.6
	C5.5,33.6,5.5,33.6,5.6,33.6L5.6,33.6C5.6,33.5,5.6,33.5,5.6,33.6L5.6,33.6z M8.8,17.1L8.8,17.1L8.8,17.1L8.8,17.1L8.8,17.1z
	 M9.3,36.9L9.3,36.9C9.3,36.9,9.4,36.9,9.3,36.9C9.4,36.9,9.4,36.9,9.3,36.9L9.3,36.9z M8.3,16L8.3,16C8.3,16.1,8.3,16.1,8.3,16
	C8.4,16,8.3,16,8.3,16L8.3,16z M11.5,15.5L11.5,15.5L11.5,15.5C11.4,15.5,11.5,15.5,11.5,15.5L11.5,15.5z M21.4,25L21.4,25
	C21.4,24.9,21.4,24.9,21.4,25L21.4,25L21.4,25z M10.6,16.8C10.7,16.7,10.7,16.7,10.6,16.8C10.7,16.7,10.7,16.7,10.6,16.8L10.6,16.8
	L10.6,16.8z M45.3,25.8c0,14.9-11.8,25.8-26.8,25.8H3.1V41.3h15.5c8.6,0,15.4-6.9,15.4-15.5c0-8.5-6.9-15.5-15.4-15.5H3.1V0h15.5
	C33.5,0,45.3,10.9,45.3,25.8"/>
</svg>
