<svg width="540" height="255" viewBox="0 0 540 255" fill="none" xmlns="http://www.w3.org/2000/svg">
<path d="M210.518 153.954H219.651V102.01H210.518V153.954Z" fill="#F2F2F2"/>
<path d="M360.018 115.357C360.018 108.734 355.817 102.01 345.593 102.01H326.328C323.195 102.01 322.105 103.304 321.822 105.972C321.701 107.066 321.297 110.875 321.297 110.875H344.041C348.859 110.875 350.74 113.144 350.74 116.791V119.812L331.511 125.048C321.231 127.875 316.277 132.346 316.277 140.169C316.277 148.627 322.863 153.954 330.596 153.954H360.018V115.357ZM331.174 145.088C327.724 145.088 325.859 142.879 325.859 140.146C325.859 137.631 327.44 135.616 331.19 134.586L350.74 129.208V145.088H331.174Z" fill="#F2F2F2"/>
<path d="M292.96 116.791C292.96 113.144 294.841 110.875 299.658 110.875H315.064C315.064 110.875 314.657 107.066 314.54 105.972C314.252 103.304 313.163 102.01 310.034 102.01H298.107C287.883 102.01 283.685 108.734 283.685 115.357V153.954H292.96V116.791" fill="#F2F2F2"/>
<path d="M257.186 110.875C262.004 110.875 263.886 113.144 263.886 116.791V153.954H273.162V115.357C273.162 108.734 268.963 102.01 258.736 102.01H230.476V153.954H239.611V110.875H257.186Z" fill="#F2F2F2"/>
<path d="M198.012 126.641C197.726 123.968 196.636 122.678 193.508 122.678H175.276V116.791C175.276 113.144 177.157 110.875 181.975 110.875H203.911C203.911 110.875 203.505 107.066 203.387 105.972C203.1 103.304 202.01 102.011 198.88 102.011H180.425C170.198 102.011 166 108.734 166 115.357V153.954H175.276V131.539H198.538C198.538 131.539 198.13 127.734 198.012 126.641Z" fill="#F2F2F2"/>
<path d="M368.77 149.645H369.64C370.059 149.645 370.34 149.582 370.494 149.456C370.644 149.336 370.722 149.17 370.722 148.964C370.722 148.832 370.685 148.715 370.61 148.609C370.54 148.506 370.438 148.429 370.305 148.379C370.177 148.326 369.939 148.3 369.586 148.3H368.77V149.645ZM368.053 152.153V147.699H369.58C370.105 147.699 370.483 147.738 370.715 147.82C370.949 147.903 371.136 148.046 371.276 148.252C371.414 148.458 371.48 148.673 371.48 148.905C371.48 149.228 371.368 149.513 371.136 149.755C370.902 149.995 370.595 150.13 370.21 150.161C370.368 150.226 370.496 150.305 370.589 150.397C370.765 150.573 370.987 150.867 371.248 151.281L371.787 152.153H370.913L370.517 151.451C370.208 150.898 369.956 150.551 369.766 150.412C369.636 150.31 369.443 150.261 369.192 150.261H368.77V152.153H368.053ZM369.866 146.408C369.284 146.408 368.721 146.558 368.169 146.856C367.62 147.154 367.189 147.581 366.879 148.134C366.569 148.688 366.415 149.266 366.415 149.865C366.415 150.46 366.568 151.031 366.873 151.578C367.177 152.128 367.6 152.553 368.148 152.858C368.697 153.163 369.273 153.317 369.866 153.317C370.461 153.317 371.033 153.163 371.583 152.858C372.131 152.553 372.556 152.128 372.859 151.578C373.162 151.031 373.314 150.46 373.314 149.865C373.314 149.266 373.159 148.688 372.85 148.134C372.542 147.581 372.11 147.154 371.559 146.856C371.007 146.558 370.443 146.408 369.866 146.408ZM369.866 145.721C370.561 145.721 371.239 145.901 371.899 146.257C372.559 146.615 373.076 147.123 373.444 147.787C373.813 148.451 373.998 149.142 373.998 149.865C373.998 150.577 373.816 151.262 373.451 151.921C373.091 152.58 372.58 153.093 371.925 153.454C371.265 153.817 370.583 154 369.866 154C369.15 154 368.466 153.817 367.809 153.454C367.153 153.093 366.64 152.58 366.278 151.921C365.913 151.262 365.729 150.577 365.729 149.865C365.729 149.142 365.913 148.451 366.284 147.787C366.656 147.123 367.171 146.615 367.835 146.257C368.495 145.901 369.172 145.721 369.866 145.721" fill="#F2F2F2"/>
</svg>
