<?xml version="1.0" encoding="utf-8"?>
<!-- Generator: Adobe Illustrator 24.1.0, SVG Export Plug-In . SVG Version: 6.00 Build 0)  -->
<svg version="1.1" id="Layer_1" xmlns="http://www.w3.org/2000/svg" xmlns:xlink="http://www.w3.org/1999/xlink" x="0px" y="0px"
	 viewBox="0 0 374 255" style="enable-background:new 0 0 374 255;" xml:space="preserve">
<style type="text/css">
	.st0{fill:#F2F2F2;}
</style>
<path class="st0" d="M44.5,154h9.1V102h-9.1V154z"/>
<path class="st0" d="M194,115.4c0-6.6-4.2-13.3-14.4-13.3h-19.3c-3.1,0-4.2,1.3-4.5,4c-0.1,1.1-0.5,4.9-0.5,4.9H178
	c4.8,0,6.7,2.3,6.7,5.9v3l-19.2,5.2c-10.3,2.8-15.2,7.3-15.2,15.1c0,8.5,6.6,13.8,14.3,13.8H194V115.4z M165.2,145.1
	c-3.5,0-5.3-2.2-5.3-4.9c0-2.5,1.6-4.5,5.3-5.6l19.5-5.4v15.9H165.2z"/>
<path class="st0" d="M127,116.8c0-3.6,1.9-5.9,6.7-5.9h15.4c0,0-0.4-3.8-0.5-4.9c-0.3-2.7-1.4-4-4.5-4h-11.9
	c-10.2,0-14.4,6.7-14.4,13.3V154h9.3V116.8"/>
<path class="st0" d="M91.2,110.9c4.8,0,6.7,2.3,6.7,5.9V154h9.3v-38.6c0-6.6-4.2-13.3-14.4-13.3H64.5V154h9.1v-43.1H91.2z"/>
<path class="st0" d="M32,126.6c-0.3-2.7-1.4-4-4.5-4H9.3v-5.9c0-3.6,1.9-5.9,6.7-5.9h21.9c0,0-0.4-3.8-0.5-4.9c-0.3-2.7-1.4-4-4.5-4
	H14.4C4.2,102,0,108.7,0,115.4V154h9.3v-22.4h23.3C32.5,131.5,32.1,127.7,32,126.6z"/>
<path class="st0" d="M202.8,149.6h0.9c0.4,0,0.7-0.1,0.9-0.2c0.2-0.1,0.2-0.3,0.2-0.5c0-0.1,0-0.2-0.1-0.4c-0.1-0.1-0.2-0.2-0.3-0.2
	c-0.1-0.1-0.4-0.1-0.7-0.1h-0.8V149.6z M202.1,152.2v-4.5h1.5c0.5,0,0.9,0,1.1,0.1c0.2,0.1,0.4,0.2,0.6,0.4c0.1,0.2,0.2,0.4,0.2,0.7
	c0,0.3-0.1,0.6-0.3,0.9c-0.2,0.2-0.5,0.4-0.9,0.4c0.2,0.1,0.3,0.1,0.4,0.2c0.2,0.2,0.4,0.5,0.7,0.9l0.5,0.9h-0.9l-0.4-0.7
	c-0.3-0.6-0.6-0.9-0.8-1c-0.1-0.1-0.3-0.2-0.6-0.2h-0.4v1.9H202.1z M203.9,146.4c-0.6,0-1.1,0.1-1.7,0.4c-0.5,0.3-1,0.7-1.3,1.3
	c-0.3,0.6-0.5,1.1-0.5,1.7c0,0.6,0.2,1.2,0.5,1.7c0.3,0.6,0.7,1,1.3,1.3c0.5,0.3,1.1,0.5,1.7,0.5c0.6,0,1.2-0.2,1.7-0.5
	c0.5-0.3,1-0.7,1.3-1.3c0.3-0.5,0.5-1.1,0.5-1.7c0-0.6-0.2-1.2-0.5-1.7c-0.3-0.6-0.7-1-1.3-1.3C205,146.6,204.4,146.4,203.9,146.4z
	 M203.9,145.7c0.7,0,1.4,0.2,2,0.5c0.7,0.4,1.2,0.9,1.5,1.5c0.4,0.7,0.6,1.4,0.6,2.1c0,0.7-0.2,1.4-0.5,2.1
	c-0.4,0.7-0.9,1.2-1.5,1.5c-0.7,0.4-1.3,0.5-2.1,0.5c-0.7,0-1.4-0.2-2.1-0.5c-0.7-0.4-1.2-0.9-1.5-1.5c-0.4-0.7-0.5-1.3-0.5-2.1
	c0-0.7,0.2-1.4,0.6-2.1c0.4-0.7,0.9-1.2,1.6-1.5C202.5,145.9,203.2,145.7,203.9,145.7"/>
</svg>
