<?xml version="1.0" encoding="utf-8"?>
<!-- Generator: Adobe Illustrator 24.1.0, SVG Export Plug-In . SVG Version: 6.00 Build 0)  -->
<svg version="1.1" id="Layer_1" xmlns="http://www.w3.org/2000/svg" xmlns:xlink="http://www.w3.org/1999/xlink" x="0px" y="0px"
	 viewBox="0 0 340 255" style="enable-background:new 0 0 340 255;" xml:space="preserve">
<style type="text/css">
	.st0{fill:#F2F2F2;}
</style>
<path class="st0" d="M30,189l2.2-0.6l2.5,9.7l-2.1,0.6L30,189z M34.1,187.6l8.1,4.2l-1.4-5.5l2.1-0.6l2.6,10.1l-8.1-4.1l1.4,5.5
	l-2.1,0.6L34.1,187.6z M43.9,185.4l2.3-0.6l4.2,5l1.2-6.4l2.3-0.6l-2.3,11.5L43.9,185.4z M55.1,182.4l6.6-1.7l0.5,2l-4.5,1.1
	l0.5,1.9l4.2-1.1l0.5,1.9l-4.2,1.1l0.5,2.1l4.6-1.2l0.5,1.9l-6.7,1.8L55.1,182.4z M64.9,187.1c0.9,0.4,2.1,0.7,3.6,0.3
	c1.1-0.3,1.6-0.9,1.4-1.4c-0.2-0.6-0.9-0.8-2.6-0.9c-1.6-0.1-3-0.6-3.4-2.2c-0.5-1.8,0.9-3.1,2.8-3.6c1.1-0.3,2.1-0.3,2.9,0l0.6,2.1
	c-0.8-0.4-1.7-0.5-2.9-0.2c-0.9,0.2-1.3,0.7-1.2,1.1c0.2,0.7,1.5,0.7,2.6,0.9c2,0.2,3,0.8,3.3,2.3c0.4,1.6-0.5,3.2-3,3.9
	c-1.4,0.4-2.6,0.3-3.6,0L64.9,187.1z M73.5,179.7l-2.6,0.7l-0.5-2l7.4-1.9l0.5,1.9l-2.6,0.7l2.1,7.8l-2.2,0.6L73.5,179.7z
	 M78.9,176.2l2.2-0.6l2.6,9.7l-2.2,0.6L78.9,176.2z M87.8,173.7c1.1-0.3,2.2-0.3,3.2,0.1l0.5,2.1c-0.9-0.4-2.1-0.5-3.2-0.2
	c-1.7,0.5-2.7,2.1-2.3,3.9c0.5,1.7,2.2,2.7,3.9,2.2c0.8-0.2,1.5-0.7,1.9-1.3l-0.3-1.3l-2.6,0.6l-0.5-1.9l4.6-1.2l1,3.9
	c-0.6,1.4-1.9,2.6-3.6,3.1c-2.9,0.8-5.8-0.7-6.5-3.6C83.1,177.2,84.9,174.4,87.8,173.7L87.8,173.7z M97.5,170.7l7.8,8.9l-2.3,0.6
	l-1.2-1.4l-4,1.1l-0.3,1.8l-2.3,0.6L97.5,170.7z M100.5,177.3l-1.9-2.2l-0.6,2.9L100.5,177.3z M105,171.5l-2.7,0.7l-0.5-1.9l7.4-1.9
	l0.5,1.9l-2.6,0.7l2,7.8l-2.1,0.6L105,171.5z M110.4,167.9l2.2-0.6l2.6,9.7l-2.2,0.6L110.4,167.9z M119.2,165.5
	c2.9-0.8,5.8,0.9,6.5,3.7c0.7,2.8-1,5.6-3.9,6.4c-2.9,0.8-5.8-0.8-6.5-3.7C114.5,169,116.3,166.2,119.2,165.5L119.2,165.5z
	 M121.3,173.6c1.7-0.4,2.7-2.2,2.2-3.9c-0.4-1.7-2.1-2.7-3.9-2.3c-1.7,0.5-2.7,2.2-2.2,3.9C117.9,173,119.6,174,121.3,173.6z
	 M125.8,163.5l8.1,4.2l-1.4-5.5l2.1-0.6l2.6,10.1l-8.1-4.2l1.4,5.5l-2.1,0.6L125.8,163.5z M61.8,195.7l3.7-0.9
	c3.4-0.9,5.7,0.7,6.4,3.5c0.8,2.9-0.5,5.3-3.9,6.2l-3.7,1L61.8,195.7z M67.4,202.6c2.5-0.6,2.8-2.1,2.4-3.7
	c-0.4-1.6-1.4-2.8-3.9-2.1l-1.4,0.4l1.5,5.8L67.4,202.6z M72.2,193l2.1-0.6l2.6,9.7l-2.1,0.5L72.2,193z M77.6,198.8
	c0.9,0.5,2.1,0.7,3.6,0.3c1.1-0.3,1.6-0.9,1.4-1.4c-0.2-0.7-0.9-0.8-2.6-0.9c-1.6-0.1-3-0.6-3.4-2.2c-0.5-1.7,0.9-3.1,2.8-3.6
	c1.1-0.3,2.1-0.3,3,0l0.6,2.1c-0.8-0.4-1.7-0.5-2.9-0.2c-0.9,0.2-1.3,0.7-1.2,1.1c0.2,0.7,1.4,0.7,2.6,0.9c2,0.2,2.9,0.8,3.3,2.3
	c0.4,1.6-0.5,3.2-3,3.9c-1.4,0.4-2.6,0.3-3.6,0L77.6,198.8z M89,188.4c1.1-0.3,2.3-0.2,3.3,0.2l0.6,2.2c-1-0.6-2.2-0.8-3.4-0.5
	c-1.7,0.4-2.7,2.1-2.3,3.9c0.5,1.8,2.2,2.7,3.9,2.2c1.2-0.3,2.1-1.1,2.7-2.1l0.6,2.3c-0.7,0.9-1.6,1.5-2.8,1.8
	c-2.9,0.7-5.8-0.8-6.5-3.6C84.4,191.9,86.1,189.2,89,188.4z M98.4,185.9c2.9-0.7,5.8,0.9,6.5,3.7c0.7,2.8-1,5.6-3.9,6.4
	c-2.9,0.8-5.8-0.9-6.5-3.7C93.8,189.5,95.6,186.7,98.4,185.9z M100.6,194.1c1.7-0.5,2.7-2.2,2.2-3.9c-0.5-1.7-2.1-2.7-3.9-2.3
	c-1.7,0.4-2.7,2.2-2.2,3.9C97.2,193.5,98.9,194.5,100.6,194.1L100.6,194.1z M103.6,184.7l2.3-0.6l4.2,5l1.2-6.4l2.3-0.6l-2.3,11.5
	L103.6,184.7z M114.7,181.8l6.6-1.7l0.5,1.9l-4.5,1.2l0.5,1.8l4.2-1.1l0.5,1.9l-4.2,1.1l0.6,2.1l4.6-1.2l0.5,1.9l-6.7,1.8
	L114.7,181.8z M123,179.6l4.1-1.1c1.8-0.5,3.7,0.5,4.1,2.3c0.3,1.3-0.1,2.5-1,3.2l3.4,3.1l-2.4,0.6l-2.9-2.7h0l-1.4,0.4l0.9,3.2
	l-2.1,0.6L123,179.6z M128.1,183.2c0.8-0.2,1.2-0.9,1-1.7c-0.2-0.8-0.9-1.1-1.5-1l-1.9,0.5l0.7,2.6L128.1,183.2z M135.9,182.8
	l-5.2-5.2l2.3-0.6l3.4,3.5l1.2-4.6l2.3-0.6l-2,7l1,3.6l-2.2,0.6L135.9,182.8z M123.5,120.3c-1.6,11.8-9.1,20.4-21.6,23.7
	c0,0-29.1,7.7-31.4,8.4c-0.5,0.1-1,0.2-1.4,0.2c-0.1,0-0.2,0-0.3,0c-0.2,0-0.3,0-0.4-0.1h0c-0.1,0-0.2-0.1-0.3-0.1
	c-0.1-0.1-0.2-0.1-0.3-0.2l0,0c-0.1-0.1-0.2-0.2-0.2-0.3h0c0-0.1-0.1-0.1-0.1-0.2c0-0.1-0.1-0.1-0.1-0.2c0,0,0,0,0,0
	c0-0.1-0.1-0.1-0.1-0.2c0-0.1-0.1-0.1-0.1-0.2c0,0,0,0,0,0c0-0.1-0.1-0.1-0.1-0.2c0-0.1,0-0.2-0.1-0.3c0,0,0,0,0-0.1
	c0-0.1-0.1-0.1-0.1-0.2c-0.1-0.5-1.1-4-2.4-9.1c-1.4-5.1-3.2-11.8-5-18.7c0,0,0,0,0-0.1c-4.1-15.3-8.4-31.5-8.9-33.2
	c-0.6-2.5-0.2-3.2,2.3-3.9c2.5-0.7,30.9-8.2,30.9-8.2c12.6-3.3,23.8,0.9,31.3,11l-10-38L0,77.8L28.4,184l104.4-28.1L123.5,120.3z
	 M57.6,154.2C57.6,154.2,57.6,154.2,57.6,154.2l0,0.1c0,0,0,0.1,0,0.1c0,0,0,0.1,0,0.1c0,0,0,0.1,0,0.1c0,0,0,0,0,0
	c0,0.1,0,0.1-0.1,0.1c0,0,0,0,0,0c0,0,0,0.1,0,0.1c0,0,0,0,0,0c0,0,0,0.1,0,0.1c0,0,0,0,0,0c0,0,0,0.1-0.1,0.1c0,0,0,0,0,0
	c0,0,0,0.1-0.1,0.1c0,0,0,0,0,0c0,0-0.1,0.1-0.1,0.1v0c-0.4,0.4-1.1,0.6-2.2,0.9c-3.4,0.9-7.5,2-9.9,2.7c-0.4,0.1-0.8,0.2-1.2,0.2
	c-0.1,0-0.2,0-0.3,0h0c-0.2,0-0.3,0-0.5,0h0c-0.1,0-0.1,0-0.2,0c0,0,0,0,0,0c-0.1,0-0.2-0.1-0.4-0.1c0,0,0,0,0,0c0,0-0.1,0-0.1-0.1
	c0,0,0,0,0,0c-0.1-0.1-0.2-0.1-0.3-0.2c0,0,0,0,0,0c0,0-0.1-0.1-0.1-0.1c0,0,0,0,0,0c0,0-0.1-0.1-0.1-0.1c0,0,0,0,0,0
	c0-0.1-0.1-0.1-0.1-0.2c0,0,0,0,0,0c0-0.1-0.1-0.1-0.1-0.2c0-0.1-0.1-0.1-0.1-0.2c0,0,0,0,0,0c0-0.1,0-0.1-0.1-0.2c0,0,0,0,0-0.1
	c0-0.1,0-0.1-0.1-0.2c0,0,0-0.1-0.1-0.3c0-0.1,0-0.2-0.1-0.3c0-0.1,0-0.2-0.1-0.4c-0.1-0.2-0.1-0.4-0.2-0.7c0,0,0-0.1,0-0.1
	c-1-4-3.8-14.3-6.7-25.3c0,0,0-0.1,0-0.1c-4.2-15.8-8.7-33-9.1-34.7c-0.7-2.6-0.2-3,2.3-3.7c1.7-0.4,7.1-1.9,9.9-2.6
	c0.1,0,0.2-0.1,0.3-0.1c0,0,0.1,0,0.1,0c0.1,0,0.1,0,0.2-0.1c0,0,0.1,0,0.1,0c0.1,0,0.1,0,0.2,0c0,0,0,0,0.1,0c0,0,0.1,0,0.2,0
	c0,0,0,0,0.1,0c0.1,0,0.1,0,0.2,0h0c0.1,0,0.1,0,0.2,0c0.1,0,0.2,0,0.4,0h0h0.1c0,0,0,0,0,0c0.1,0,0.1,0,0.1,0h0c0.1,0,0.1,0,0.1,0
	c0.8,0.2,1.2,0.9,1.5,2.4c0.3,1.3,4.9,18.4,9,34.3c0,0,0,0,0,0.1c1.8,6.9,3.6,13.5,4.9,18.6c1.3,5,2.2,8.4,2.3,8.9
	c0,0.1,0,0.1,0.1,0.2c0,0,0,0,0,0.1c0,0.1,0,0.1,0,0.1c0,0,0,0,0,0.1c0,0,0,0.1,0,0.1c0,0,0,0,0,0.1c0,0,0,0.1,0,0.1c0,0,0,0,0,0.1
	c0,0,0,0.1,0,0.1v0c0,0,0,0.1,0,0.1L57.6,154.2L57.6,154.2z M104.4,106.5c0-0.1-0.1-0.2-0.1-0.3c-0.5-1.6-1.1-3.1-1.8-4.7
	c-3.9-8.2-10.4-11.9-18.3-9.8c0,0-10.7,2.9-12.2,3.2c-1.1,0.3-1.7,0.8-1.7,1.7c0,0.2,0,0.4,0.1,0.6c0.2,0.6,2.6,9.6,4.9,18.4
	c1.6,6,3.2,11.9,4,14.9c0,0.1,0.1,0.3,0.1,0.4c0.1,0.3,0.1,0.5,0.2,0.8c0.1,0.5,0.2,0.8,0.2,0.9c0.3,1.1,1.1,1.8,2.5,1.5
	c0.9-0.2,10.5-2.8,10.5-2.8c11.2-3,15.1-10.9,11.7-23.7c-0.1-0.3-0.1-0.5-0.2-0.7C104.5,106.7,104.5,106.6,104.4,106.5"/>
</svg>
