<?xml version="1.0" encoding="UTF-8" standalone="no"?>
<!-- Generator: Adobe Illustrator 16.0.0, SVG Export Plug-In . SVG Version: 6.00 Build 0)  -->

<svg
   xmlns:dc="http://purl.org/dc/elements/1.1/"
   xmlns:cc="http://creativecommons.org/ns#"
   xmlns:rdf="http://www.w3.org/1999/02/22-rdf-syntax-ns#"
   xmlns:svg="http://www.w3.org/2000/svg"
   xmlns="http://www.w3.org/2000/svg"
   xmlns:sodipodi="http://sodipodi.sourceforge.net/DTD/sodipodi-0.dtd"
   xmlns:inkscape="http://www.inkscape.org/namespaces/inkscape"
   version="1.1"
   id="Layer_1"
   x="0px"
   y="0px"
   width="900.62799"
   height="1000"
   viewBox="0 0 900.628 1000"
   enable-background="new 0 0 954.774 1000"
   xml:space="preserve"
   sodipodi:docname="Investigation Discovery (Print).svg"
   inkscape:version="0.92.2 (5c3e80d, 2017-08-06)"><metadata
     id="metadata15"><rdf:RDF><cc:Work
         rdf:about=""><dc:format>image/svg+xml</dc:format><dc:type
           rdf:resource="http://purl.org/dc/dcmitype/StillImage" /><dc:title></dc:title></cc:Work></rdf:RDF></metadata><defs
     id="defs13" /><sodipodi:namedview
     pagecolor="#ffffff"
     bordercolor="#666666"
     borderopacity="1"
     objecttolerance="10"
     gridtolerance="10"
     guidetolerance="10"
     inkscape:pageopacity="0"
     inkscape:pageshadow="2"
     inkscape:window-width="1360"
     inkscape:window-height="706"
     id="namedview11"
     showgrid="false"
     inkscape:zoom="0.3337544"
     inkscape:cx="829.59345"
     inkscape:cy="528.34979"
     inkscape:window-x="-8"
     inkscape:window-y="-8"
     inkscape:window-maximized="1"
     inkscape:current-layer="Layer_1" /><path
     inkscape:connector-curvature="0"
     style="fill:#000000;stroke-width:1.07080483"
     id="path2"
     d="m 193.25564,894.43149 13.85622,-3.59469 16.36404,62.43328 -13.76413,3.59576 z m 25.87172,-9.45734 51.88478,27.05174 -9.2721,-35.56786 13.67096,-3.59147 17.0258,64.8897 -51.93189,-26.67482 9.316,35.37832 -13.66775,3.59576 z m 63.42484,-14.00185 14.70857,-3.97161 27.05389,32.16055 7.9443,-41.24205 14.70857,-3.78422 -14.99233,73.97334 z m 71.60686,-18.91791 42.70905,-11.16314 3.26488,12.67619 -28.94813,7.37892 3.12246,11.9202 27.00784,-7.19046 3.30879,12.29605 -27.05174,7.19046 3.49939,13.43324 29.55956,-7.75905 3.26489,12.48773 -43.37295,11.3516 z m 63.14108,30.08105 c 6.00721,2.83871 13.47929,4.54021 23.03301,1.89104 7.09408,-1.70151 10.26366,-5.48573 9.31814,-9.08042 -1.18217,-4.16115 -5.62708,-4.91714 -16.5525,-5.86266 -10.45534,-0.94873 -19.11065,-4.16436 -21.71057,-14.1903 -3.02716,-11.35161 5.53499,-20.24357 17.73574,-23.4592 6.95274,-1.89318 13.24479,-1.7015 18.96824,0 l 3.59255,13.62171 c -5.24801,-2.45857 -11.06677,-3.21562 -18.77656,-1.13719 -5.91192,1.51412 -8.46686,4.35175 -7.66054,7.19152 1.27533,4.72868 9.4113,4.54022 16.74096,5.48574 13.006,1.51304 19.01428,5.2962 21.52211,14.75783 2.69414,10.59454 -2.93401,20.80895 -19.29805,24.97224 -8.79666,2.45857 -16.46041,2.07843 -23.12831,0.18846 z m 55.71504,-47.8639 -16.97868,4.54021 -3.31093,-12.67619 47.48698,-12.29712 3.31093,12.48558 -16.69491,4.35175 13.19552,49.94555 -13.85942,3.5947 z m 34.85898,-22.51367 13.85729,-3.78423 16.45934,62.62174 -13.85943,3.78315 z m 56.9454,-16.08028 c 7.18832,-1.89318 14.13998,-1.70472 20.4331,0.37799 l 3.49939,13.43325 c -6.00721,-2.65024 -13.19446,-3.21563 -20.62156,-1.32459 -11.16207,3.0261 -17.64258,13.8091 -14.66146,25.16071 2.9308,11.16314 13.85836,17.2164 25.01936,14.37876 5.2962,-1.32244 9.69506,-4.34961 12.39135,-8.5129 l -2.22406,-8.32336 -16.4572,4.16329 -3.21777,-12.10759 29.37432,-7.75905 6.66897,25.35237 c -3.78315,9.26996 -12.10759,16.83734 -23.26966,19.67604 -18.5881,4.91714 -37.1762,-4.72975 -42.09441,-23.45919 -4.96853,-18.5442 6.57046,-36.13859 25.15963,-41.05573 m 62.19556,-19.10958 49.99267,57.51292 -14.75462,3.97483 -7.47422,-8.70457 -26.01092,6.81139 -2.22406,11.3516 -14.66146,3.78315 z m 19.62892,42.3771 -12.29926,-14.3777 -3.54543,18.54099 z m 28.56586,-37.64522 -17.12109,4.34961 -3.31093,-12.48558 47.58228,-12.48666 3.312,12.48666 -16.74525,4.35175 13.14842,50.13401 -13.8091,3.59469 z m 34.71657,-22.7032 13.90547,-3.59469 16.4572,62.62173 -13.90226,3.59148 z m 56.66056,-15.89182 c 18.54099,-4.92034 37.17621,5.48574 42.00125,23.64766 4.72868,18.16299 -6.33809,36.32491 -24.97224,41.05358 -18.54098,4.92035 -37.0809,-5.29727 -41.90487,-23.64765 -4.82505,-17.97453 6.33702,-36.32384 24.87586,-41.05359 m 13.81125,52.21566 c 10.87723,-2.8387 17.2164,-14.00184 14.28453,-24.97331 -2.74233,-10.97361 -13.71701,-17.59654 -24.78378,-14.75676 -11.06783,3.02609 -17.31063,14.18923 -14.28346,24.97224 2.93186,11.16314 13.62171,17.59332 24.78271,14.75783 m 28.568,-64.89184 51.83873,26.86328 -9.26996,-35.56678 13.62171,-3.59255 17.0258,65.0803 -51.83659,-26.86649 9.26995,35.37939 -13.62278,3.59469 z M 397.53094,937.37826 421.27175,931.325 c 21.80694,-5.86587 36.70398,4.54022 41.43265,22.51367 4.87109,18.53885 -3.07321,34.2422 -24.97331,39.9164 L 413.98814,1000 Z m 36.04008,44.08075 c 15.79544,-4.16114 17.9242,-13.6217 15.22791,-23.83718 -2.83549,-10.59454 -9.22284,-17.78393 -25.11465,-13.62171 l -8.98513,2.45857 9.74218,37.45782 z m 30.60039,-61.48561 13.76412,-3.59469 16.45934,62.62067 -13.76305,3.40516 z m 35.18771,37.26829 c 6.10359,3.02717 13.52855,4.54021 23.12939,2.08165 7.09515,-2.08165 10.26366,-5.67741 9.31814,-9.26889 -1.18217,-4.35175 -5.62815,-4.92142 -16.60176,-5.86694 -10.45212,-0.75599 -19.06032,-4.16329 -21.75661,-14.18923 -2.93186,-11.16314 5.48788,-20.24357 17.6897,-23.4592 7.09408,-1.89104 13.3872,-1.70258 19.10958,0 l 3.59255,13.8091 c -5.24694,-2.64703 -11.06784,-3.40409 -18.82261,-1.32137 -5.91191,1.51305 -8.41974,4.34961 -7.61449,7.18831 1.13398,4.72868 9.26996,4.54022 16.74096,5.48574 12.96102,1.51304 18.96824,5.10881 21.51997,14.75676 2.69735,10.59561 -2.9308,20.81002 -19.29591,25.16177 -8.79773,2.27011 -16.46041,1.89318 -23.27073,0 z m 73.40582,-66.97134 c 7.37891,-1.89319 14.52011,-1.51305 21.09592,1.51411 l 3.78316,14.37877 c -6.57582,-3.78422 -14.04789,-5.29727 -21.56923,-3.21884 -11.15992,2.83763 -17.64044,13.62171 -14.66253,24.97224 3.02717,11.3516 13.85943,17.2164 25.0215,14.37877 7.51812,-1.89104 13.33794,-6.81032 17.21747,-13.43004 l 3.78315,14.56723 c -4.35068,5.6742 -10.36003,9.45735 -17.73788,11.539 -18.4928,4.72867 -37.17406,-4.91714 -42.09441,-23.4592 -4.87002,-18.72944 6.57582,-36.32384 25.16285,-41.24204 m 60.54223,-15.89075 c 18.63415,-4.73188 37.0809,5.48574 41.90273,23.64766 4.73189,18.16299 -6.24172,36.32491 -24.87693,41.24204 -18.4928,4.92035 -37.17621,-5.48573 -41.90488,-23.64765 -4.77686,-18.16299 6.38307,-36.32491 24.87908,-41.24205 m 13.7138,52.40412 c 10.97468,-3.02717 17.2164,-14.00077 14.37769,-25.16177 -2.92972,-10.78515 -13.8091,-17.59654 -24.78377,-14.5683 -11.06784,2.83763 -17.26352,14.00077 -14.37877,24.97224 2.93507,11.16314 13.76412,17.59546 24.78485,14.75783 m 19.29911,-59.9715 14.75462,-3.78422 27.05496,31.97209 7.75584,-41.24526 14.75783,-3.78315 -14.94629,73.97334 z m 71.51156,-18.91897 42.75724,-11.16315 3.40516,12.48452 -29.0413,7.75905 3.12247,11.72745 27.05495,-6.99878 3.21563,12.29606 -27.05389,6.99878 3.5947,13.43324 29.51245,-7.75584 3.2167,12.48559 -43.3237,11.3516 z m 53.63662,-14.00185 26.20152,-6.81032 c 11.72852,-3.21562 23.64765,3.4073 26.67482,14.94737 2.1748,8.32336 -0.56753,16.08027 -6.43126,20.80895 l 21.56708,20.0551 -15.60805,4.16115 -18.44675,-17.40593 h -0.18846 l -9.08043,2.46178 5.48573,20.81002 -13.71701,3.59469 z m 32.44431,23.08334 c 5.29727,-1.51412 8.04067,-5.86587 6.71502,-10.97468 -1.22822,-4.91713 -5.57782,-7.37891 -9.92958,-6.24172 l -12.10866,3.21563 4.35175,16.83733 z m 50.13401,-2.83977 -33.29774,-33.29668 15.04266,-3.97269 21.84977,22.32307 7.94752,-29.89044 15.03945,-3.97483 -12.67726,45.21687 6.14963,23.27074 -13.90547,3.59469 z m -79.6486,-402.16646 c -10.21655,76.00894 -58.83752,131.44023 -138.67351,152.62931 0,0 -187.39192,49.75709 -202.10049,53.7287 -3.40409,0.75706 -6.28884,1.13506 -8.93908,1.13506 -0.47223,0 -1.04082,0 -1.70151,0 -0.99478,0 -1.75077,-0.18953 -2.55494,-0.56539 h -0.0953 c -0.75706,-0.19167 -1.41775,-0.56859 -2.22085,-0.94873 v 0 c -0.75706,-0.37692 -1.32459,-0.94552 -1.84714,-1.32137 l -0.18846,-0.19168 c -0.47223,-0.56538 -1.04082,-1.13398 -1.51412,-1.89104 h -0.14242 c -0.28376,-0.37906 -0.47222,-0.75706 -0.66068,-1.13719 -0.18846,-0.37693 -0.47223,-0.75599 -0.66069,-1.13399 -0.0953,0 -0.0953,-0.18846 -0.0953,-0.18846 -0.18846,-0.37906 -0.42618,-0.94873 -0.61464,-1.32458 -0.18846,-0.5686 -0.37907,-0.94552 -0.5686,-1.51412 -0.0953,0 -0.0953,-0.18846 -0.0953,-0.18846 -0.18846,-0.56753 -0.37692,-0.94766 -0.56539,-1.51305 -0.19167,-0.5686 -0.28483,-1.13719 -0.47222,-1.70472 -0.0953,0 -0.0953,-0.18953 -0.0953,-0.378 -0.23772,-0.56752 -0.42618,-0.94552 -0.51934,-1.51304 -0.85236,-3.4073 -6.85958,-25.91776 -15.65731,-58.83752 -8.84271,-32.91761 -20.47914,-76.05177 -32.25586,-120.46554 -0.14241,-0.0921 -0.14241,-0.28376 -0.23771,-0.37692 -26.34394,-98.47228 -54.202,-202.90467 -57.04071,-213.31075 -4.16114,-15.89181 -1.3717,-20.52733 14.80495,-24.78485 16.17558,-4.25645 198.79063,-52.78104 198.79063,-52.78104 80.87575,-21.38076 153.00516,5.6742 201.05753,70.7545 L 675.21098,0 0,178.68841 182.99198,861.89081 854.75068,681.21605 Z M 370.5231,670.24565 c 0,0.18846 -0.0953,0.378 -0.0953,0.56539 v 0.37906 c -0.0921,0.18846 -0.0921,0.37693 -0.0921,0.56753 0,0.18953 0,0.37799 -0.0953,0.37799 0,0.18847 -0.0932,0.37907 -0.0932,0.56753 0,0.18953 0,0.18953 -0.0953,0.18953 -0.14134,0.37907 -0.23771,0.56753 -0.33087,0.75599 0,0.18846 0,0.18846 -0.0953,0.18846 0,0.19168 -0.18846,0.38014 -0.18846,0.5686 -0.0953,0.18846 -0.18846,0.18846 -0.18846,0.18846 0,0.19168 -0.1906,0.37907 -0.1906,0.5686 -0.0932,0 -0.18846,0 -0.18846,0.18846 -0.18847,0.19167 -0.18847,0.37907 -0.37693,0.56753 0,0 -0.0953,0.18846 -0.19167,0.18846 -0.0932,0.19167 -0.18846,0.38013 -0.42404,0.38013 0,0.18847 -0.0953,0.18847 -0.19167,0.18847 -0.18847,0.18846 -0.37693,0.37906 -0.56539,0.56752 v 0.18954 c -2.79159,2.2701 -7.28575,4.16328 -14.04789,5.86586 -21.71057,5.86587 -48.05558,13.05204 -63.80497,17.2164 -2.83871,0.75706 -5.34332,1.13399 -7.66054,1.51305 -0.61786,0 -1.09008,0 -1.65547,0 h -0.1906 c -1.08794,0.18846 -2.12876,0 -3.02716,0 h -0.0921 c -0.47223,-0.18846 -0.94767,-0.18846 -1.22929,-0.18846 -0.0953,0 -0.23772,0 -0.23772,-0.19167 -0.85236,0 -1.60942,-0.37693 -2.31722,-0.56539 0,0 -0.0953,-0.19167 -0.19167,-0.19167 -0.28162,0 -0.56539,-0.18846 -0.94552,-0.37693 0,-0.18846 0,-0.18846 -0.0921,-0.18846 -0.71102,-0.5686 -1.27854,-0.94873 -1.84714,-1.51412 0,0 0,0 0,-0.19167 -0.28162,-0.18846 -0.56539,-0.56431 -0.8031,-0.75599 0,0 -0.0953,0 -0.0953,-0.18953 -0.28162,-0.18846 -0.47222,-0.56753 -0.66068,-0.94445 0,0 0,0 -0.0953,0 -0.18847,-0.38014 -0.37693,-0.75706 -0.56539,-1.1372 -0.0953,-0.18953 -0.0953,-0.18953 -0.0953,-0.18953 -0.18846,-0.37692 -0.42618,-0.75599 -0.61464,-1.32458 v 0 c -0.18846,-0.56432 -0.37693,-0.94552 -0.5686,-1.32138 0,-0.19167 0,-0.19167 -0.0921,-0.19167 -0.0953,-0.56539 -0.28483,-0.94552 -0.38013,-1.51305 -0.0921,-0.18953 -0.0921,-0.18953 -0.18847,-0.37799 -0.0953,-0.37907 -0.18846,-0.94552 -0.37906,-1.51305 -0.0932,-0.18846 -0.18846,-0.75706 -0.51934,-1.70472 -0.0953,-0.56539 -0.28484,-1.13505 -0.47223,-1.70258 -0.0953,-0.56753 -0.28483,-1.32459 -0.47222,-2.27011 -0.37907,-1.32458 -0.80525,-2.6481 -1.27854,-4.54021 0,-0.18846 -0.0932,-0.37799 -0.18846,-0.75706 -6.66898,-25.7293 -24.21625,-92.13526 -42.80436,-163.07822 -0.0932,-0.19167 -0.0932,-0.37906 -0.18846,-0.56753 -26.72407,-101.92669 -55.81142,-212.5055 -58.69616,-223.4791 -4.35176,-16.55251 -1.18217,-19.57967 14.90024,-23.83612 11.15993,-2.8387 45.73515,-12.29926 63.84781,-16.93264 0.5686,-0.18846 1.1372,-0.37906 1.75077,-0.47222 0.18846,-0.0953 0.37692,-0.0953 0.47222,-0.0953 0.47223,-0.18847 0.85237,-0.18847 1.22929,-0.378 0.23772,0 0.33088,0 0.52148,-0.0953 0.37799,-0.0953 0.75706,-0.0953 1.13398,-0.18846 0.0953,-0.0953 0.28377,-0.0953 0.52148,-0.0953 0.28163,-0.0953 0.66069,-0.0953 1.03761,-0.18846 0.0953,0 0.19168,-0.0953 0.38014,-0.0953 0.37692,0 0.8031,-0.0932 1.08687,-0.18846 h 0.28483 c 0.47223,0 0.85236,-0.0953 1.3717,-0.18846 0.85236,0 1.60835,-0.0953 2.41145,-0.0953 h 0.0953 0.94552 c 0.0953,0 0.18846,0.0953 0.18846,0.0953 0.33088,0 0.61464,0 0.8984,0.0921 h 0.0953 c 0.37692,0 0.56538,0.0953 0.94552,0.19167 5.34331,1.22929 7.47207,5.86266 9.88352,15.13476 2.22407,8.13276 31.21825,118.42994 58.12757,220.87598 0,0.18846 0,0.28484 0.0953,0.47223 11.63536,44.22209 22.84455,86.9804 31.4067,119.52002 8.41653,32.35115 14.32951,54.2973 14.99234,57.32446 0.18846,0.37693 0.28483,0.75599 0.37692,1.13399 0,0.18846 0,0.18846 0,0.37906 0.0953,0.37693 0.18846,0.56539 0.18846,0.94552 0.0953,0 0.0953,0.18846 0.23772,0.37693 0,0.19167 0,0.38013 0.0953,0.75706 0,0 0.0932,0.19167 0.0932,0.37906 0,0.18739 0,0.37799 0.0953,0.75706 0,0 0,0.18846 0,0.37692 0,0.19168 0.0921,0.38014 0.0921,0.94874 v 0.18846 c 0.0953,0.18846 0.0953,0.56859 0.0953,0.94552 v 1.13826 z M 671.80582,363.61962 c -0.18847,-0.6639 -0.38014,-1.2325 -0.5686,-1.79788 -3.21456,-10.59454 -6.80925,-20.14826 -11.3516,-30.08212 -25.30312,-52.97272 -67.06665,-76.43191 -117.91061,-62.9055 0,0 -68.86453,18.35359 -78.18267,20.81216 -7.3757,1.89104 -10.73589,5.39043 -10.73589,10.6877 0.0953,1.23143 0.28377,2.36541 0.5686,3.69107 1.04082,3.97161 16.55571,61.86468 31.69047,118.14832 10.35682,38.59395 20.52518,76.66748 25.7293,96.15399 0.23557,0.94552 0.42404,1.70258 0.7078,2.45857 0.47222,1.89425 0.94766,3.4073 1.32565,4.92142 0.70995,3.02609 1.27533,4.91713 1.46701,5.86265 2.03238,7.37892 7.09408,11.73067 16.1745,9.46056 6.00508,-1.51304 67.82478,-17.97346 67.82478,-17.97346 72.12513,-19.2959 97.28905,-70.13985 75.06021,-152.72139 -0.37907,-1.60942 -0.85236,-3.12354 -1.22929,-4.63659 -0.19381,-0.75706 -0.3812,-1.41881 -0.56966,-2.0795" /></svg>