<svg width="540" height="255" viewBox="0 0 540 255" fill="none" xmlns="http://www.w3.org/2000/svg">
<path d="M230.041 189.037L232.195 188.478L234.739 198.183L232.599 198.742L230.041 189.037ZM234.063 187.567L242.128 191.772L240.687 186.243L242.812 185.685L245.458 195.771L237.386 191.625L238.834 197.124L236.709 197.683L234.063 187.567ZM243.922 185.39L246.208 184.773L250.414 189.772L251.649 183.361L253.935 182.773L251.605 194.272L243.922 185.39ZM255.053 182.449L261.692 180.714L262.199 182.685L257.7 183.832L258.185 185.685L262.383 184.567L262.898 186.478L258.692 187.596L259.236 189.684L263.831 188.478L264.339 190.419L257.597 192.184L255.053 182.449ZM264.868 187.125C265.802 187.567 266.963 187.831 268.448 187.419C269.551 187.155 270.044 186.567 269.897 186.008C269.713 185.361 269.022 185.243 267.324 185.096C265.699 184.949 264.353 184.449 263.949 182.891C263.479 181.126 264.809 179.744 266.706 179.244C267.787 178.95 268.765 178.979 269.655 179.244L270.213 181.361C269.397 180.979 268.493 180.862 267.294 181.185C266.375 181.42 265.978 181.861 266.103 182.303C266.302 183.038 267.566 183.008 268.706 183.155C270.728 183.39 271.662 183.979 272.051 185.449C272.47 187.096 271.595 188.684 269.052 189.331C267.684 189.713 266.493 189.654 265.456 189.36L264.868 187.125ZM273.529 179.685L270.89 180.391L270.375 178.42L277.757 176.509L278.271 178.45L275.676 179.126L277.727 186.89L275.573 187.449L273.529 179.685ZM278.948 176.185L281.102 175.597L283.66 185.331L281.506 185.92L278.948 176.185ZM287.8 173.686C288.917 173.391 289.998 173.421 290.976 173.744L291.52 175.833C290.586 175.421 289.469 175.333 288.314 175.627C286.579 176.097 285.572 177.773 286.035 179.538C286.491 181.273 288.189 182.214 289.924 181.773C290.748 181.567 291.431 181.097 291.851 180.45L291.505 179.156L288.947 179.803L288.446 177.921L293.013 176.715L294.049 180.656C293.461 182.097 292.167 183.273 290.432 183.714C287.543 184.479 284.653 182.979 283.889 180.068C283.116 177.185 284.91 174.45 287.8 173.686V173.686ZM297.468 170.715L305.239 179.655L302.945 180.273L301.783 178.92L297.74 179.979L297.394 181.744L295.115 182.332L297.468 170.715ZM300.519 177.303L298.607 175.068L298.056 177.95L300.519 177.303ZM304.959 171.451L302.298 172.127L301.783 170.186L309.18 168.245L309.695 170.186L307.092 170.863L309.136 178.656L306.989 179.214L304.959 171.451ZM310.356 167.922L312.518 167.363L315.076 177.097L312.915 177.655L310.356 167.922ZM319.164 165.451C322.046 164.686 324.943 166.304 325.693 169.127C326.428 171.951 324.707 174.774 321.811 175.509C318.929 176.274 316.047 174.685 315.297 171.833C314.547 169.039 316.282 166.187 319.164 165.451V165.451ZM321.311 173.568C323.001 173.127 323.987 171.392 323.531 169.686C323.105 167.98 321.399 166.951 319.679 167.392C317.958 167.863 316.988 169.598 317.458 171.274C317.914 173.009 319.576 174.009 321.311 173.568ZM325.751 163.481L333.81 167.657L332.369 162.128L334.486 161.569L337.133 171.686L329.075 167.51L330.516 173.009L328.398 173.568L325.751 163.481ZM261.795 195.713L265.485 194.772C268.875 193.86 271.191 195.477 271.926 198.271C272.683 201.153 271.448 203.594 268.044 204.476L264.353 205.447L261.795 195.713ZM267.397 202.565C269.853 201.918 270.184 200.447 269.764 198.859C269.324 197.213 268.331 196.095 265.86 196.742L264.464 197.124L265.978 202.947L267.397 202.565ZM272.154 193.007L274.294 192.448L276.852 202.183L274.713 202.712L272.154 193.007ZM277.624 198.8C278.573 199.271 279.727 199.506 281.219 199.124C282.322 198.8 282.815 198.241 282.668 197.683C282.484 197.007 281.793 196.918 280.087 196.771C278.462 196.654 277.124 196.124 276.705 194.565C276.249 192.83 277.558 191.419 279.455 190.919C280.558 190.625 281.536 190.654 282.425 190.919L282.984 193.065C282.168 192.654 281.263 192.536 280.058 192.86C279.139 193.095 278.749 193.536 278.874 193.977C279.051 194.712 280.315 194.683 281.477 194.83C283.491 195.065 284.425 195.624 284.822 197.124C285.241 198.771 284.366 200.359 281.822 201.035C280.455 201.388 279.264 201.33 278.205 201.035L277.624 198.8ZM289.035 188.39C290.182 188.096 291.292 188.155 292.314 188.625L292.902 190.86C291.88 190.272 290.718 190.037 289.549 190.36C287.814 190.801 286.807 192.477 287.27 194.242C287.74 196.006 289.424 196.918 291.159 196.477C292.328 196.183 293.233 195.418 293.836 194.389L294.424 196.654C293.748 197.536 292.813 198.124 291.667 198.448C288.792 199.183 285.888 197.683 285.123 194.801C284.366 191.889 286.145 189.154 289.035 188.39ZM298.446 185.92C301.342 185.184 304.21 186.772 304.959 189.596C305.695 192.419 303.989 195.242 301.092 196.007C298.218 196.771 295.313 195.154 294.578 192.331C293.836 189.507 295.571 186.684 298.446 185.92ZM300.578 194.066C302.283 193.595 303.254 191.889 302.812 190.154C302.357 188.478 300.666 187.419 298.96 187.89C297.239 188.331 296.276 190.066 296.725 191.772C297.181 193.507 298.864 194.507 300.578 194.066V194.066ZM303.577 184.743L305.871 184.155L310.077 189.125L311.282 182.714L313.576 182.126L311.253 193.625L303.577 184.743ZM314.694 181.803L321.34 180.067L321.87 182.008L317.355 183.214L317.841 185.037L322.046 183.949L322.546 185.86L318.341 186.948L318.899 189.037L323.487 187.831L323.987 189.772L317.252 191.536L314.694 181.803ZM323.031 179.626L327.104 178.567C328.928 178.067 330.78 179.097 331.251 180.891C331.589 182.185 331.163 183.39 330.251 184.126L333.604 187.243L331.177 187.89L328.31 185.184H328.281L326.869 185.567L327.722 188.802L325.59 189.36L323.031 179.626ZM328.075 183.214C328.898 182.979 329.325 182.302 329.119 181.508C328.928 180.744 328.252 180.361 327.575 180.538L325.693 181.038L326.369 183.655L328.075 183.214ZM335.868 182.773L330.692 177.597L333.03 176.979L336.427 180.449L337.662 175.803L340 175.185L338.029 182.214L338.985 185.831L336.824 186.39L335.868 182.773ZM323.487 120.257C321.899 132.073 314.341 140.689 301.93 143.983C301.93 143.983 272.801 151.718 270.515 152.335C269.985 152.453 269.537 152.511 269.125 152.511C269.052 152.511 268.963 152.511 268.86 152.511C268.706 152.511 268.588 152.482 268.463 152.423H268.448C268.331 152.394 268.228 152.335 268.103 152.276C267.986 152.217 267.897 152.129 267.816 152.071L267.787 152.041C267.713 151.953 267.625 151.865 267.551 151.747H267.529C267.485 151.688 267.456 151.629 267.427 151.57C267.397 151.511 267.353 151.453 267.324 151.394C267.309 151.394 267.309 151.364 267.309 151.364C267.28 151.306 267.243 151.217 267.214 151.159C267.184 151.07 267.155 151.012 267.125 150.923C267.11 150.923 267.11 150.894 267.11 150.894C267.081 150.806 267.052 150.747 267.022 150.659C266.993 150.57 266.978 150.482 266.949 150.394C266.934 150.394 266.934 150.364 266.934 150.335C266.897 150.247 266.868 150.188 266.854 150.1C266.721 149.57 265.787 146.071 264.42 140.954C263.045 135.837 261.236 129.132 259.406 122.228C259.383 122.213 259.383 122.184 259.369 122.169C255.274 106.862 250.943 90.6281 250.502 89.0105C249.855 86.5402 250.289 85.8196 252.803 85.1578C255.318 84.4961 283.705 76.9531 283.705 76.9531C296.277 73.6296 307.489 77.8352 314.958 87.9517L304.96 50L200 77.7766L228.446 183.978L332.868 155.893L323.487 120.257ZM257.597 154.188C257.597 154.217 257.582 154.246 257.582 154.276V154.335C257.568 154.364 257.568 154.393 257.568 154.423C257.568 154.452 257.568 154.481 257.553 154.481C257.553 154.511 257.538 154.54 257.538 154.57C257.538 154.599 257.538 154.599 257.523 154.599C257.502 154.658 257.487 154.687 257.472 154.717C257.472 154.746 257.472 154.746 257.457 154.746C257.457 154.776 257.428 154.805 257.428 154.834C257.413 154.864 257.399 154.864 257.399 154.864C257.399 154.893 257.369 154.923 257.369 154.952C257.355 154.952 257.34 154.952 257.34 154.981C257.31 155.011 257.31 155.04 257.281 155.07C257.281 155.07 257.266 155.099 257.251 155.099C257.237 155.129 257.222 155.158 257.185 155.158C257.185 155.187 257.171 155.187 257.156 155.187C257.126 155.217 257.097 155.246 257.068 155.275V155.305C256.634 155.658 255.935 155.952 254.884 156.217C251.509 157.129 247.414 158.246 244.966 158.893C244.524 159.011 244.135 159.069 243.775 159.128C243.679 159.128 243.605 159.128 243.518 159.128H243.488C243.319 159.158 243.157 159.128 243.017 159.128H243.003C242.93 159.099 242.856 159.099 242.812 159.099C242.797 159.099 242.775 159.099 242.775 159.069C242.643 159.069 242.525 159.011 242.415 158.981C242.415 158.981 242.4 158.951 242.385 158.951C242.341 158.951 242.297 158.922 242.238 158.893C242.238 158.864 242.238 158.864 242.224 158.864C242.113 158.775 242.025 158.716 241.937 158.628C241.937 158.628 241.937 158.628 241.937 158.598C241.893 158.569 241.849 158.511 241.812 158.481C241.812 158.481 241.797 158.481 241.797 158.451C241.753 158.422 241.724 158.363 241.694 158.305C241.694 158.305 241.694 158.305 241.679 158.305C241.65 158.246 241.621 158.187 241.592 158.128C241.577 158.098 241.577 158.098 241.577 158.098C241.547 158.04 241.51 157.981 241.481 157.892C241.452 157.805 241.423 157.745 241.393 157.687C241.393 157.657 241.393 157.657 241.378 157.657C241.364 157.569 241.334 157.51 241.319 157.422C241.305 157.393 241.305 157.393 241.29 157.363C241.275 157.304 241.261 157.216 241.231 157.128C241.217 157.099 241.202 157.01 241.15 156.863C241.136 156.775 241.106 156.687 241.077 156.598C241.062 156.51 241.033 156.393 241.004 156.246C240.945 156.04 240.878 155.834 240.805 155.54C240.805 155.511 240.79 155.481 240.776 155.422C239.739 151.423 237.011 141.1 234.122 130.072C234.107 130.042 234.107 130.013 234.092 129.984C229.938 114.14 225.417 96.9505 224.968 95.2447C224.292 92.6717 224.785 92.2011 227.285 91.5395C229.019 91.0982 234.394 89.6276 237.209 88.9073C237.298 88.878 237.386 88.8484 237.482 88.8339C237.511 88.8191 237.54 88.8191 237.555 88.8191C237.628 88.7898 237.688 88.7898 237.746 88.7604C237.783 88.7604 237.798 88.7603 237.827 88.7455C237.886 88.7307 237.945 88.7307 238.003 88.7162C238.018 88.7014 238.048 88.7014 238.085 88.7014C238.128 88.6866 238.187 88.6866 238.246 88.6721C238.261 88.6721 238.276 88.6573 238.305 88.6573C238.364 88.6573 238.43 88.6428 238.474 88.628H238.518C238.592 88.628 238.651 88.6132 238.731 88.5987C238.864 88.5987 238.981 88.5839 239.106 88.5839H239.121H239.268C239.283 88.5839 239.297 88.5987 239.297 88.5987C239.349 88.5987 239.393 88.5987 239.437 88.613H239.452C239.51 88.613 239.54 88.6279 239.599 88.6428C240.429 88.8339 240.76 89.5542 241.135 90.9955C241.481 92.2597 245.988 109.405 250.171 125.33C250.171 125.359 250.171 125.374 250.186 125.403C251.994 132.278 253.737 138.924 255.068 143.982C256.376 149.011 257.295 152.423 257.398 152.893C257.428 152.952 257.443 153.011 257.457 153.07C257.457 153.099 257.457 153.099 257.457 153.129C257.472 153.187 257.486 153.216 257.486 153.276C257.501 153.276 257.501 153.305 257.523 153.334C257.523 153.364 257.523 153.393 257.538 153.452C257.538 153.452 257.552 153.482 257.552 153.511C257.552 153.54 257.552 153.57 257.567 153.628C257.567 153.628 257.567 153.658 257.567 153.687C257.567 153.717 257.582 153.746 257.582 153.835V153.864C257.596 153.893 257.596 153.952 257.596 154.011V154.188H257.597ZM304.43 106.524C304.401 106.42 304.371 106.332 304.342 106.244C303.842 104.597 303.283 103.112 302.577 101.568C298.644 93.3335 292.152 89.6868 284.248 91.7895C284.248 91.7895 273.544 94.6425 272.095 95.0247C270.949 95.3186 270.426 95.8626 270.426 96.686C270.441 96.8775 270.47 97.0537 270.515 97.2598C270.676 97.8772 273.088 106.876 275.441 115.626C277.051 121.625 278.631 127.543 279.44 130.572C279.477 130.719 279.506 130.837 279.55 130.955C279.624 131.249 279.698 131.484 279.757 131.72C279.867 132.19 279.955 132.484 279.985 132.631C280.3 133.778 281.087 134.454 282.499 134.102C283.432 133.866 293.042 131.308 293.042 131.308C304.254 128.308 308.165 120.405 304.71 107.568C304.651 107.317 304.577 107.082 304.519 106.847C304.489 106.729 304.46 106.626 304.43 106.524" fill="#F2F2F2"/>
</svg>
