<?xml version="1.0" encoding="utf-8"?>
<!-- Generator: Adobe Illustrator 24.1.0, SVG Export Plug-In . SVG Version: 6.00 Build 0)  -->
<svg version="1.1" id="Layer_1" xmlns="http://www.w3.org/2000/svg" xmlns:xlink="http://www.w3.org/1999/xlink" x="0px" y="0px"
	 viewBox="0 0 424 255" style="enable-background:new 0 0 424 255;" xml:space="preserve">
<style type="text/css">
	.st0{fill-rule:evenodd;clip-rule:evenodd;fill:#F2F2F2;}
</style>
<path class="st0" d="M0,82h63.1v90.4H0V82z M9.1,163.3H54V91.1H9.1V163.3z"/>
<path class="st0" d="M105,122.6h-3.9c-5.1-7.2-10.2-14.4-15.3-22.6h0v22.6h-4.3V91.1h3.9c5.1,7.2,10.2,14.3,15.2,22.4h0.1V91.1h4.3
	L105,122.6L105,122.6z M115.3,110.1c1.3-4.1,2.5-8,3.6-12.8h0.1c1.3,4.9,2.4,8.7,3.6,12.8H115.3L115.3,110.1z M117.4,91.1
	l-10.9,31.5h4.7l2.7-8.6h9.5l2.5,8.6h6l-10-31.5H117.4L117.4,91.1z M137,122.6V95.3h-8.3v-4.2h21.9v4.2h-8.3v27.3H137z M152.4,91.1
	h5.4v31.5h-5.4V91.1z M174.4,118.6c-5.6,0-7.6-6.2-7.6-12.2c0-5.8,2.2-11.3,7.6-11.3c5.4,0,7.6,5.5,7.6,11.3
	C182,112.4,180,118.6,174.4,118.6z M174.4,123.1c8.2,0,13.4-7.3,13.4-16.7c0-8.8-5.7-15.8-13.4-15.8c-7.7,0-13.4,7-13.4,15.8
	C161,115.8,166.1,123.1,174.4,123.1z M214.6,122.6h-3.9c-5.1-7.2-10.2-14.4-15.3-22.6h0v22.6H191V91.1h3.9
	c5.1,7.2,10.2,14.3,15.2,22.4h0.1V91.1h4.3L214.6,122.6L214.6,122.6z M224.8,110.1c1.3-4.1,2.5-8,3.6-12.8h0.1
	c1.3,4.9,2.4,8.7,3.5,12.8H224.8z M226.9,91.1L216,122.6h4.7l2.7-8.6h9.5l2.5,8.6h6l-10-31.5H226.9z M243,91.1h5.4v27.2H259v4.2h-16
	V91.1z M101.7,148.9v13c-2.9,1.1-5.9,1.9-8.9,1.9c-9.3,0-15.1-7.2-15.1-16.5c0-8.6,5.8-16.1,15.3-16.1c2.9,0,5.8,1.1,7.6,2.4
	l-1.8,3.7c-1.4-0.9-3.7-1.7-5.8-1.7c-5.8,0-9.7,4.5-9.7,11.7c0,7.5,4.5,11.9,9.1,11.9c1.4,0,2.7-0.2,3.8-0.8v-9.7H101.7L101.7,148.9
	z M121,136h-9v8.6h8.8v4.2H112v10.2h10.6v4.2h-16v-31.5H121V136z M137.6,159.3c-5.6,0-7.6-6.2-7.6-12.2c0-5.8,2.2-11.3,7.6-11.3
	c5.3,0,7.6,5.5,7.6,11.3C145.2,153.1,143.3,159.3,137.6,159.3z M137.6,163.8c8.2,0,13.3-7.3,13.3-16.7c0-8.8-5.7-15.8-13.3-15.8
	c-7.7,0-13.4,7-13.4,15.8C124.3,156.5,129.4,163.8,137.6,163.8L137.6,163.8z M176.9,148.9v13c-2.9,1.1-5.9,1.9-8.9,1.9
	c-9.3,0-15.1-7.2-15.1-16.5c0-8.6,5.9-16.1,15.3-16.1c2.9,0,5.8,1.1,7.6,2.4l-1.8,3.7c-1.4-0.9-3.7-1.7-5.7-1.7
	c-5.8,0-9.7,4.5-9.7,11.7c0,7.5,4.5,11.9,9.1,11.9c1.4,0,2.7-0.2,3.8-0.8v-9.7H176.9L176.9,148.9z M187.2,136h2.4c3.2,0,5,1.8,5,5.1
	c0,4.2-2.6,6.1-5.1,6.2c-0.5,0.1-1.8,0.1-2.2,0.1V136L187.2,136z M200.9,163.3l-6.4-13c3.5-1.8,5.5-5.6,5.5-9.4
	c0-6.1-3.7-9.1-9.8-9.1h-8.4v31.5h5.4v-11.9h2.4l5.1,11.9H200.9L200.9,163.3z M209.8,150.8c1.3-4.1,2.5-8,3.6-12.8h0.1
	c1.3,4.9,2.4,8.7,3.6,12.8H209.8z M211.9,131.8L201,163.3h4.7l2.7-8.6h9.5l2.5,8.6h6l-10-31.5H211.9L211.9,131.8z M236.5,131.8h-8.4
	v31.5h5.4v-11.9h2.4c6.4,0,10.4-5.2,10.4-10.5C246.3,134.8,242.5,131.8,236.5,131.8z M235.8,147.4c-0.6,0.1-1.9,0.1-2.3,0.1V136h2.4
	c3.1,0,5,1.8,5,5.1C240.9,145.3,238.3,147.2,235.8,147.4z M271.3,163.3h-5.4v-15.1h-11.2v15.1h-5.3v-31.5h5.3v12.1h11.2v-12h5.4
	V163.3z M276.4,131.8h5.4v31.5h-5.4V131.8z M306.1,137.5c-1.3-0.8-3.5-1.8-5.5-1.8c-5.5,0-9.5,4.5-9.5,11.7c0,7.5,4.4,11.9,9.6,11.9
	c1.9,0,3.8-0.6,5.4-1.6l1.5,3.9c-1.6,1.1-4.5,2.2-7.1,2.2c-9.3,0-15.1-7.2-15.1-16.5c0-8.6,5.8-16.1,15.2-16.1
	c2.8,0,5.4,1.2,7.2,2.4L306.1,137.5L306.1,137.5z"/>
</svg>
