<?xml version="1.0" encoding="utf-8"?>
<!-- Generator: Adobe Illustrator 24.1.0, SVG Export Plug-In . SVG Version: 6.00 Build 0)  -->
<svg version="1.1" id="Layer_1" xmlns="http://www.w3.org/2000/svg" xmlns:xlink="http://www.w3.org/1999/xlink" x="0px" y="0px"
	 viewBox="0 0 424 173" style="enable-background:new 0 0 424 173;" xml:space="preserve">
<style type="text/css">
	.st0{fill-rule:evenodd;clip-rule:evenodd;fill:#F2F2F2;}
</style>
<path class="st0" d="M0,0h63.1v90.4H0V0z M9.1,81.3H54V9.1H9.1V81.3z"/>
<path class="st0" d="M105,40.6h-3.9C96,33.4,90.9,26.2,85.8,18l0,0v22.6h-4.3V9.1h3.9c5.1,7.2,10.2,14.3,15.2,22.4h0.1V9.1h4.3
	L105,40.6L105,40.6z M115.3,28.1c1.3-4.1,2.5-8,3.6-12.8h0.1c1.3,4.9,2.4,8.7,3.6,12.8H115.3L115.3,28.1z M117.4,9.1l-10.9,31.5h4.7
	l2.7-8.6h9.5l2.5,8.6h6l-10-31.5H117.4L117.4,9.1z M137,40.6V13.3h-8.3V9.1h21.9v4.2h-8.3v27.3C142.3,40.6,137,40.6,137,40.6z
	 M152.4,9.1h5.4v31.5h-5.4V9.1z M174.4,36.6c-5.6,0-7.6-6.2-7.6-12.2c0-5.8,2.2-11.3,7.6-11.3c5.4,0,7.6,5.5,7.6,11.3
	C182,30.4,180,36.6,174.4,36.6z M174.4,41.1c8.2,0,13.4-7.3,13.4-16.7c0-8.8-5.7-15.8-13.4-15.8s-13.4,7-13.4,15.8
	C161,33.8,166.1,41.1,174.4,41.1z M214.6,40.6h-3.9c-5.1-7.2-10.2-14.4-15.3-22.6l0,0v22.6H191V9.1h3.9c5.1,7.2,10.2,14.3,15.2,22.4
	h0.1V9.1h4.3L214.6,40.6L214.6,40.6z M224.8,28.1c1.3-4.1,2.5-8,3.6-12.8h0.1c1.3,4.9,2.4,8.7,3.5,12.8H224.8z M226.9,9.1L216,40.6
	h4.7l2.7-8.6h9.5l2.5,8.6h6l-10-31.5H226.9z M243,9.1h5.4v27.2H259v4.2h-16V9.1z M101.7,66.9v13c-2.9,1.1-5.9,1.9-8.9,1.9
	c-9.3,0-15.1-7.2-15.1-16.5c0-8.6,5.8-16.1,15.3-16.1c2.9,0,5.8,1.1,7.6,2.4l-1.8,3.7c-1.4-0.9-3.7-1.7-5.8-1.7
	c-5.8,0-9.7,4.5-9.7,11.7c0,7.5,4.5,11.9,9.1,11.9c1.4,0,2.7-0.2,3.8-0.8v-9.7h5.5V66.9z M121,54h-9v8.6h8.8v4.2H112V77h10.6v4.2
	h-16V49.7H121V54z M137.6,77.3c-5.6,0-7.6-6.2-7.6-12.2c0-5.8,2.2-11.3,7.6-11.3c5.3,0,7.6,5.5,7.6,11.3
	C145.2,71.1,143.3,77.3,137.6,77.3z M137.6,81.8c8.2,0,13.3-7.3,13.3-16.7c0-8.8-5.7-15.8-13.3-15.8c-7.7,0-13.4,7-13.4,15.8
	C124.3,74.5,129.4,81.8,137.6,81.8L137.6,81.8z M176.9,66.9v13c-2.9,1.1-5.9,1.9-8.9,1.9c-9.3,0-15.1-7.2-15.1-16.5
	c0-8.6,5.9-16.1,15.3-16.1c2.9,0,5.8,1.1,7.6,2.4l-1.8,3.7c-1.4-0.9-3.7-1.7-5.7-1.7c-5.8,0-9.7,4.5-9.7,11.7
	c0,7.5,4.5,11.9,9.1,11.9c1.4,0,2.7-0.2,3.8-0.8v-9.7h5.4V66.9z M187.2,54h2.4c3.2,0,5,1.8,5,5.1c0,4.2-2.6,6.1-5.1,6.2
	c-0.5,0.1-1.8,0.1-2.2,0.1L187.2,54L187.2,54z M200.9,81.3l-6.4-13c3.5-1.8,5.5-5.6,5.5-9.4c0-6.1-3.7-9.1-9.8-9.1h-8.4v31.5h5.4
	V69.4h2.4l5.1,11.9H200.9L200.9,81.3z M209.8,68.8c1.3-4.1,2.5-8,3.6-12.8h0.1c1.3,4.9,2.4,8.7,3.6,12.8H209.8z M211.9,49.8
	L201,81.3h4.7l2.7-8.6h9.5l2.5,8.6h6l-10-31.5H211.9L211.9,49.8z M236.5,49.8h-8.4v31.5h5.4V69.4h2.4c6.4,0,10.4-5.2,10.4-10.5
	C246.3,52.8,242.5,49.8,236.5,49.8z M235.8,65.4c-0.6,0.1-1.9,0.1-2.3,0.1V54h2.4c3.1,0,5,1.8,5,5.1
	C240.9,63.3,238.3,65.2,235.8,65.4z M271.3,81.3h-5.4V66.2h-11.2v15.1h-5.3V49.8h5.3v12.1h11.2v-12h5.4V81.3z M276.4,49.8h5.4v31.5
	h-5.4V49.8z M306.1,55.5c-1.3-0.8-3.5-1.8-5.5-1.8c-5.5,0-9.5,4.5-9.5,11.7c0,7.5,4.4,11.9,9.6,11.9c1.9,0,3.8-0.6,5.4-1.6l1.5,3.9
	c-1.6,1.1-4.5,2.2-7.1,2.2c-9.3,0-15.1-7.2-15.1-16.5c0-8.6,5.8-16.1,15.2-16.1c2.8,0,5.4,1.2,7.2,2.4L306.1,55.5L306.1,55.5z"/>
</svg>
