<svg width="540" height="255" viewBox="0 0 540 255" fill="none" xmlns="http://www.w3.org/2000/svg">
<path fill-rule="evenodd" clip-rule="evenodd" d="M116 82H179.11V172.426H116V82ZM125.096 163.323H169.982V91.1067H125.096V163.323Z" fill="#F2F2F2"/>
<path fill-rule="evenodd" clip-rule="evenodd" d="M221.03 122.57H217.127C211.999 115.327 206.913 108.129 201.834 99.9945H201.797V122.57H197.482V91.0927H201.389C206.517 98.2853 211.596 105.432 216.627 113.525H216.717V91.0927H221.032V122.57H221.03ZM231.288 110.112C232.54 105.973 233.801 102.152 234.927 97.294H235.018C236.275 102.152 237.401 105.975 238.569 110.112H231.288V110.112ZM233.351 91.0927L222.475 122.57H227.151L229.886 113.979H239.38L241.851 122.57H247.881L237.85 91.0927H233.351V91.0927ZM252.958 122.57V95.3151H244.681V91.0927H266.623V95.3151H258.354V122.57H252.958ZM268.373 91.0927H273.732V122.57H268.373V91.0927ZM290.369 118.607C284.742 118.607 282.765 112.402 282.765 106.376C282.765 100.578 285.012 95.0454 290.369 95.0454C295.719 95.0454 297.959 100.578 297.959 106.376C297.959 112.402 295.986 118.607 290.369 118.607ZM290.369 123.103C298.595 123.103 303.719 115.777 303.719 106.375C303.719 97.5637 298.063 90.5498 290.369 90.5498C282.683 90.5498 277.002 97.5637 277.002 106.375C277.003 115.779 282.136 123.103 290.369 123.103ZM330.563 122.57H326.654C321.523 115.327 316.441 108.129 311.366 99.9945H311.322V122.57H307.012V91.0927H310.921C316.042 98.2853 321.124 105.432 326.152 113.525H326.245V91.0927H330.565V122.57H330.563ZM340.815 110.112C342.078 105.973 343.33 102.152 344.462 97.294H344.551C345.81 102.152 346.931 105.975 348.097 110.112H340.815ZM342.889 91.0927L332.008 122.57H336.688L339.423 113.979H348.915L351.388 122.57H357.411L347.381 91.0927H342.889ZM358.978 91.0927H364.339V118.341H374.99V122.57H358.978V91.0927ZM217.713 148.899V161.891C214.832 163.02 211.818 163.824 208.769 163.824C199.503 163.824 193.659 156.63 193.659 147.365C193.659 138.774 199.503 131.267 208.946 131.267C211.864 131.267 214.789 132.351 216.589 133.698L214.834 137.43C213.398 136.539 211.144 135.774 209.079 135.774C203.328 135.774 199.412 140.316 199.412 147.467C199.412 154.926 203.911 159.328 208.543 159.328C209.976 159.328 211.197 159.157 212.326 158.567V148.899H217.713V148.899ZM237.013 136.043H228.009V144.672H236.822V148.899H228.009V159.055H238.62V163.288H222.61V131.809H237.013V136.043ZM253.648 159.327C248.021 159.327 246.04 153.127 246.04 147.097C246.04 141.302 248.289 135.772 253.648 135.772C258.995 135.772 261.238 141.302 261.238 147.097C261.238 153.127 259.256 159.327 253.648 159.327ZM253.648 163.824C261.872 163.824 266.995 156.495 266.995 147.096C266.995 138.285 261.333 131.266 253.648 131.266C245.949 131.266 240.291 138.285 240.291 147.096C240.289 156.497 245.406 163.824 253.648 163.824V163.824ZM292.891 148.899V161.891C290.01 163.02 287.005 163.824 283.944 163.824C274.685 163.824 268.835 156.63 268.835 147.365C268.835 138.774 274.685 131.267 284.128 131.267C287.052 131.267 289.97 132.351 291.765 133.698L290.01 137.43C288.571 136.539 286.336 135.774 284.264 135.774C278.501 135.774 274.588 140.316 274.588 147.467C274.588 154.926 279.089 159.328 283.721 159.328C285.164 159.328 286.373 159.157 287.501 158.567V148.899H292.891V148.899ZM303.245 136.043H305.621C308.805 136.043 310.609 137.879 310.609 141.12C310.609 145.343 308.05 147.229 305.485 147.364C304.944 147.418 303.683 147.463 303.245 147.502V136.043V136.043ZM316.91 163.288L310.558 150.253C314.021 148.414 316.01 144.672 316.01 140.894C316.01 134.774 312.271 131.809 306.245 131.809H297.837V163.288H303.245V151.418H305.67L310.742 163.288H316.91V163.288ZM325.81 150.831C327.066 146.688 328.325 142.87 329.453 138.013H329.542C330.801 142.87 331.922 146.688 333.092 150.831H325.81ZM327.875 131.809L316.991 163.288H321.667L324.413 154.696H333.905L336.364 163.288H342.4L332.367 131.809H327.875V131.809ZM352.514 131.809H344.106V163.288H349.504V151.418H351.926C358.36 151.418 362.276 146.201 362.276 140.894C362.276 134.772 358.54 131.809 352.514 131.809ZM351.757 147.365C351.197 147.416 349.88 147.458 349.504 147.495V136.043H351.926C355.073 136.043 356.878 137.879 356.878 141.12C356.878 145.343 354.323 147.231 351.757 147.365ZM387.272 163.288H381.878V148.139H370.673V163.288H365.337V131.809H370.673V143.905H381.878V131.898H387.272V163.288ZM392.438 131.809H397.801V163.288H392.438V131.809ZM422.072 137.523C420.766 136.712 418.617 135.772 416.538 135.772C411.044 135.772 407.056 140.315 407.056 147.465C407.056 154.924 411.459 159.327 416.678 159.327C418.588 159.318 420.457 158.772 422.072 157.751L423.561 161.666C421.932 162.789 419.063 163.824 416.459 163.824C407.193 163.824 401.344 156.63 401.344 147.365C401.344 138.774 407.142 131.267 416.538 131.267C419.333 131.267 421.932 132.444 423.787 133.698L422.072 137.523V137.523Z" fill="#F2F2F2"/>
</svg>
