<svg width="540" height="255" viewBox="0 0 540 255" fill="none" xmlns="http://www.w3.org/2000/svg">
<path d="M216.132 90.3446H220.871C223.378 90.3446 225.884 89.4791 225.884 86.4706C225.884 83.1446 222.512 82.6885 219.778 82.6885H216.132V90.3446ZM209.023 76.6741H221.008C227.707 76.6741 233.266 78.8158 233.266 86.4706C233.266 94.0359 228.117 96.3597 221.327 96.3597H216.132V108.936H209.023V76.6741" fill="#F2F2F2"/>
<path d="M243.612 102.922H249.992C252.225 102.922 254.732 101.965 254.732 99.1395C254.732 96.0869 251.314 95.5849 248.99 95.5849H243.612V102.922ZM243.612 89.5704H248.762C250.949 89.5704 253.228 88.6577 253.228 86.0611C253.228 83.372 250.676 82.6885 248.443 82.6885H243.612V89.5704ZM236.504 76.6741H248.534C254.185 76.6741 260.336 77.8589 260.336 84.8756C260.336 88.4762 258.103 90.9373 254.777 91.9849V92.0762C259.016 92.623 261.84 95.7669 261.84 99.9597C261.84 106.704 255.461 108.936 249.719 108.936H236.504V76.6741Z" fill="#F2F2F2"/>
<path d="M281.665 84.5574C280.526 83.0992 278.248 82.4157 276.516 82.4157C274.511 82.4157 271.731 83.3266 271.731 85.7417C271.731 91.6195 286.586 87.838 286.586 99.1394C286.586 106.339 280.799 109.756 274.146 109.756C270 109.756 266.355 108.526 263.301 105.701L268.358 100.142C269.817 102.056 272.187 103.194 274.557 103.194C276.881 103.194 279.478 102.101 279.478 99.8229C279.478 93.8991 264.349 97.0884 264.349 86.3338C264.349 79.4538 270.318 75.8538 276.653 75.8538C280.299 75.8538 283.807 76.81 286.54 79.2252L281.665 84.5574" fill="#F2F2F2"/>
<path d="M209 114.684H218.055L230.913 135.7H230.999V114.684H237.662V144.927H228.948L215.749 123.397H215.664V144.927H209V114.684" fill="#F2F2F2"/>
<path d="M241.507 114.684H262.054V120.834H248.171V126.473H261.284V132.624H248.171V138.775H262.822V144.927H241.507V114.684" fill="#F2F2F2"/>
<path d="M263.72 114.684H270.982L275.809 134.076H275.894L282.217 114.684H288.41L294.689 134.589H294.775L299.858 114.684H306.608L297.765 144.927H291.828L285.164 123.996H285.078L278.414 144.927H272.691L263.72 114.684" fill="#F2F2F2"/>
<path d="M323.267 122.073C322.2 120.706 320.064 120.066 318.44 120.066C316.561 120.066 313.955 120.92 313.955 123.185C313.955 128.694 327.881 125.149 327.881 135.743C327.881 142.492 322.456 145.695 316.218 145.695C312.332 145.695 308.914 144.542 306.053 141.893L310.794 136.683C312.161 138.476 314.382 139.544 316.604 139.544C318.782 139.544 321.217 138.519 321.217 136.384C321.217 130.83 307.035 133.82 307.035 123.74C307.035 117.289 312.631 113.915 318.568 113.915C321.986 113.915 325.276 114.812 327.837 117.076L323.267 122.073" fill="#F2F2F2"/>
<path d="M209 150.522H215.664V161.799H228.606V150.522H235.27V180.765H228.606V167.694H215.664V180.765H209V150.522Z" fill="#F2F2F2"/>
<path d="M253.98 175.384C259.662 175.384 263.379 171.282 263.379 165.645C263.379 160.006 259.662 155.905 253.98 155.905C248.3 155.905 244.583 160.006 244.583 165.645C244.583 171.282 248.3 175.384 253.98 175.384V175.384ZM253.98 149.754C263.421 149.754 270.298 155.947 270.298 165.645C270.298 175.341 263.421 181.534 253.98 181.534C244.54 181.534 237.663 175.341 237.663 165.645C237.663 155.947 244.54 149.754 253.98 149.754Z" fill="#F2F2F2"/>
<path d="M298.192 169.105C298.192 176.237 293.836 181.534 285.462 181.534C277.048 181.534 272.69 176.237 272.69 169.105V150.522H279.354V168.849C279.354 172.564 281.917 175.384 285.462 175.384C288.965 175.384 291.528 172.564 291.528 168.849V150.522H298.192V169.105" fill="#F2F2F2"/>
<path d="M308.443 163.038H312.373C314.807 163.038 317.969 162.954 317.969 159.663C317.969 156.631 315.235 156.161 312.801 156.161H308.443V163.038ZM301.779 150.522H313.483C319.677 150.522 324.889 152.659 324.889 159.707C324.889 163.935 322.625 167.225 318.353 167.994L326.042 180.765H318.054L311.733 168.677H308.443V180.765H301.779V150.522Z" fill="#F2F2F2"/>
<path d="M324.497 91.2485C324.497 99.889 317.494 106.892 308.857 106.892C300.219 106.892 293.215 99.889 293.215 91.2485C293.215 82.6118 300.219 75.6079 308.857 75.6079C317.494 75.6079 324.497 82.6118 324.497 91.2485Z" fill="#080E0C"/>
<path d="M309.501 90.2954C310.486 90.2954 311.285 89.4961 311.285 88.5105C311.285 87.5254 310.486 86.7255 309.501 86.7255C308.515 86.7255 307.715 87.5254 307.715 88.5105C307.715 89.4961 308.515 90.2954 309.501 90.2954ZM305.677 81.9106C301.426 81.9106 297.929 84.8792 297.929 89.2828C297.929 92.9846 300.158 95.6289 303.485 96.1334V101.282H310.409V96.3332H311.37C312.492 96.2229 313.253 95.4806 313.267 94.4404V91.579H315.151L310.859 81.9106C310.859 81.9106 308.329 81.9106 305.677 81.9106V81.9106ZM319.007 91.579H320.893L316.658 81.9106H313.883L318.134 91.579H316.196V94.1412C316.202 95.6976 315.551 96.3596 313.44 96.3332V101.282H316.19V96.3332H317.098C317.904 96.3559 318.993 95.7025 319.007 94.4306V91.579ZM291.553 91.4509C291.553 81.8131 299.364 74.0002 309.003 74.0002C318.641 74.0002 326.454 81.8131 326.454 91.4509C326.454 101.089 318.641 108.902 309.003 108.902C299.364 108.902 291.553 101.089 291.553 91.4509Z" fill="#F2F2F2"/>
</svg>
