<?xml version="1.0" encoding="utf-8"?>
<!-- Generator: Adobe Illustrator 24.1.0, SVG Export Plug-In . SVG Version: 6.00 Build 0)  -->
<svg version="1.1" id="Layer_1" xmlns="http://www.w3.org/2000/svg" xmlns:xlink="http://www.w3.org/1999/xlink" x="0px" y="0px"
	 viewBox="0 0 331 255" style="enable-background:new 0 0 331 255;" xml:space="preserve">
<style type="text/css">
	.st0{fill:#F2F2F2;}
	.st1{fill:#080E0C;}
</style>
<path class="st0" d="M7.1,90.3h4.7c2.5,0,5-0.9,5-3.9c0-3.3-3.4-3.8-6.1-3.8H7.1V90.3z M0,76.7h12c6.7,0,12.3,2.1,12.3,9.8
	c0,7.6-5.1,9.9-11.9,9.9H7.1v12.6H0V76.7"/>
<path class="st0" d="M34.6,102.9H41c2.2,0,4.7-1,4.7-3.8c0-3.1-3.4-3.6-5.7-3.6h-5.4V102.9z M34.6,89.6h5.1c2.2,0,4.5-0.9,4.5-3.5
	c0-2.7-2.6-3.4-4.8-3.4h-4.8V89.6z M27.5,76.7h12c5.7,0,11.8,1.2,11.8,8.2c0,3.6-2.2,6.1-5.6,7.1v0.1c4.2,0.5,7.1,3.7,7.1,7.9
	c0,6.7-6.4,9-12.1,9H27.5V76.7z"/>
<path class="st0" d="M72.6,84.6c-1.1-1.5-3.4-2.1-5.1-2.1c-2,0-4.8,0.9-4.8,3.3c0,5.9,14.9,2.1,14.9,13.4c0,7.2-5.8,10.6-12.4,10.6
	c-4.1,0-7.8-1.2-10.8-4.1l5.1-5.6c1.5,1.9,3.8,3.1,6.2,3.1c2.3,0,4.9-1.1,4.9-3.4c0-5.9-15.1-2.7-15.1-13.5c0-6.9,6-10.5,12.3-10.5
	c3.6,0,7.2,1,9.9,3.4L72.6,84.6"/>
<path class="st0" d="M0,114.7H9l12.9,21H22v-21h6.7v30.2h-8.7L6.7,123.4H6.6v21.5H0V114.7"/>
<path class="st0" d="M32.5,114.7H53v6.2H39.1v5.6h13.1v6.2H39.1v6.2h14.7v6.2H32.5V114.7"/>
<path class="st0" d="M54.7,114.7H62l4.8,19.4h0.1l6.3-19.4h6.2l6.3,19.9h0.1l5.1-19.9h6.8l-8.8,30.2h-5.9L76.1,124h-0.1l-6.7,20.9
	h-5.7L54.7,114.7"/>
<path class="st0" d="M114.2,122.1c-1.1-1.4-3.2-2-4.8-2c-1.9,0-4.5,0.9-4.5,3.1c0,5.5,13.9,2,13.9,12.6c0,6.7-5.4,10-11.7,10
	c-3.9,0-7.3-1.2-10.2-3.8l4.7-5.2c1.4,1.8,3.6,2.9,5.8,2.9c2.2,0,4.6-1,4.6-3.2c0-5.6-14.2-2.6-14.2-12.6c0-6.5,5.6-9.8,11.5-9.8
	c3.4,0,6.7,0.9,9.3,3.2L114.2,122.1"/>
<path class="st0" d="M0,150.5h6.7v11.3h12.9v-11.3h6.7v30.2h-6.7v-13.1H6.6v13.1H0V150.5z"/>
<path class="st0" d="M45,175.4c5.7,0,9.4-4.1,9.4-9.7c0-5.6-3.7-9.7-9.4-9.7c-5.7,0-9.4,4.1-9.4,9.7C35.6,171.3,39.3,175.4,45,175.4
	L45,175.4z M45,149.8c9.4,0,16.3,6.2,16.3,15.9c0,9.7-6.9,15.9-16.3,15.9c-9.4,0-16.3-6.2-16.3-15.9C28.6,155.9,35.5,149.8,45,149.8
	z"/>
<path class="st0" d="M89.2,169.1c0,7.1-4.4,12.4-12.7,12.4c-8.4,0-12.8-5.3-12.8-12.4v-18.6h6.7v18.3c0,3.7,2.6,6.5,6.1,6.5
	c3.5,0,6.1-2.8,6.1-6.5v-18.3h6.7V169.1"/>
<path class="st0" d="M99.4,163h3.9c2.4,0,5.6-0.1,5.6-3.4c0-3-2.7-3.5-5.2-3.5h-4.4V163z M92.8,150.5h11.7c6.2,0,11.4,2.1,11.4,9.2
	c0,4.2-2.3,7.5-6.5,8.3l7.7,12.8h-8l-6.3-12.1h-3.3v12.1h-6.7V150.5z"/>
<path class="st1" d="M115.5,91.2c0,8.6-7,15.6-15.6,15.6c-8.6,0-15.6-7-15.6-15.6c0-8.6,7-15.6,15.6-15.6
	C108.5,75.6,115.5,82.6,115.5,91.2z"/>
<path class="st0" d="M100.5,90.3c1,0,1.8-0.8,1.8-1.8c0-1-0.8-1.8-1.8-1.8c-1,0-1.8,0.8-1.8,1.8C98.7,89.5,99.5,90.3,100.5,90.3z
	 M96.7,81.9c-4.3,0-7.7,3-7.7,7.4c0,3.7,2.2,6.3,5.6,6.9v5.1h6.9v-4.9h1c1.1-0.1,1.9-0.9,1.9-1.9v-2.9h1.9l-4.3-9.7
	C101.8,81.9,99.3,81.9,96.7,81.9L96.7,81.9z M110,91.6h1.9l-4.2-9.7h-2.8l4.3,9.7h-1.9v2.6c0,1.6-0.6,2.2-2.8,2.2v4.9h2.8v-4.9h0.9
	c0.8,0,1.9-0.6,1.9-1.9V91.6z M82.5,91.5c0-9.6,7.8-17.5,17.4-17.5c9.6,0,17.5,7.8,17.5,17.5c0,9.6-7.8,17.5-17.5,17.5
	C90.3,108.9,82.5,101.1,82.5,91.5z"/>
</svg>
