<svg width="540" height="255" viewBox="0 0 540 255" fill="none" xmlns="http://www.w3.org/2000/svg">
<path fill-rule="evenodd" clip-rule="evenodd" d="M307.123 197.281H200L200.108 90.5118L233.619 57H340.634V163.771L307.123 197.281ZM257.009 71.4399C267.827 71.4399 275.038 80.1366 275.038 88.5143H275.039V93.8171H264.222V91.3786C264.222 86.3943 262.1 82.2581 256.585 82.2581C250.647 82.2581 249.268 87.0307 249.268 92.0153C249.268 97.8468 249.798 99.863 255.419 102.09L263.692 105.377C273.236 108.984 275.038 115.029 275.038 126.058C275.038 138.784 270.372 148.222 256.373 148.222C245.874 148.222 237.919 140.482 237.919 130.299V126.269H248.737V129.664C248.737 133.588 250.859 137.406 256.373 137.406C263.691 137.406 264.221 133.057 264.221 126.163C264.221 118.103 263.267 116.831 257.964 114.71L250.222 111.528C240.889 107.71 238.449 101.559 238.449 92.1205C238.449 80.6662 244.601 71.4399 257.009 71.4399ZM315.328 126.057H304.511V129.77C304.511 135.709 300.692 137.406 297.723 137.406C292.844 137.406 291.148 134.011 291.148 129.664V91.0605C291.148 85.9685 292.42 82.2579 297.829 82.2579C301.965 82.2579 304.51 85.8626 304.51 90.1062V93.711H315.328V89.4692C315.328 78.9692 307.904 71.4403 297.935 71.4403C287.435 71.4403 280.33 78.9692 280.33 88.8322V130.405C280.33 144.192 289.874 148.222 298.147 148.222C307.797 148.222 315.328 140.056 315.328 130.725V126.057ZM331.56 147.587H320.742V72.0751H331.56V147.587Z" fill="white"/>
</svg>
