<?xml version="1.0" encoding="utf-8"?>
<!-- Generator: Adobe Illustrator 24.1.0, SVG Export Plug-In . SVG Version: 6.00 Build 0)  -->
<svg version="1.1" id="Layer_1" xmlns="http://www.w3.org/2000/svg" xmlns:xlink="http://www.w3.org/1999/xlink" x="0px" y="0px"
	 viewBox="0 0 340 255" style="enable-background:new 0 0 340 255;" xml:space="preserve">
<style type="text/css">
	.st0{fill-rule:evenodd;clip-rule:evenodd;fill:#F2F2F2;}
</style>
<path class="st0" d="M107.1,197.3H0L0.1,90.5L33.6,57h107v106.8L107.1,197.3z M57,71.4c10.8,0,18,8.7,18,17.1l0,0v5.3H64.2v-2.4
	c0-5-2.1-9.1-7.6-9.1c-5.9,0-7.3,4.8-7.3,9.8c0,5.8,0.5,7.8,6.2,10.1l8.3,3.3C73.2,109,75,115,75,126.1c0,12.7-4.7,22.2-18.7,22.2
	c-10.5,0-18.5-7.7-18.5-17.9v-4h10.8v3.4c0,3.9,2.1,7.7,7.6,7.7c7.3,0,7.8-4.3,7.8-11.2c0-8.1-1-9.3-6.3-11.5l-7.7-3.2
	c-9.3-3.8-11.8-10-11.8-19.4C38.4,80.7,44.6,71.4,57,71.4z M115.3,126.1h-10.8v3.7c0,5.9-3.8,7.6-6.8,7.6c-4.9,0-6.6-3.4-6.6-7.7
	V91.1c0-5.1,1.3-8.8,6.7-8.8c4.1,0,6.7,3.6,6.7,7.8v3.6h10.8v-4.2c0-10.5-7.4-18-17.4-18c-10.5,0-17.6,7.5-17.6,17.4v41.6
	c0,13.8,9.5,17.8,17.8,17.8c9.6,0,17.2-8.2,17.2-17.5L115.3,126.1L115.3,126.1z M131.6,147.6h-10.8V72.1h10.8V147.6z"/>
</svg>
