<?xml version="1.0" encoding="utf-8"?>
<!-- Generator: Adobe Illustrator 24.1.0, SVG Export Plug-In . SVG Version: 6.00 Build 0)  -->
<svg version="1.1" id="Layer_1" xmlns="http://www.w3.org/2000/svg" xmlns:xlink="http://www.w3.org/1999/xlink" x="0px" y="0px"
	 viewBox="0 0 428 255" style="enable-background:new 0 0 428 255;" xml:space="preserve">
<style type="text/css">
	.st0{fill:#F2F2F2;}
</style>
<path class="st0" d="M53.9,128c0,5.3-1.6,10.5-4.5,15s-7.2,7.9-12.1,9.9c-4.9,2-10.3,2.6-15.6,1.5c-5.2-1-10-3.6-13.8-7.4
	c-3.8-3.8-6.3-8.6-7.4-13.8c-1-5.2-0.5-10.6,1.5-15.6c2-4.9,5.5-9.1,9.9-12.1c4.4-3,9.6-4.5,15-4.5c7.2,0,14,2.8,19.1,7.9
	C51.1,114,53.9,120.8,53.9,128L53.9,128z"/>
<path class="st0" d="M80.3,136.7c0.7,0,1.4-0.1,2.1-0.3c0.7-0.3,1.3-0.6,1.8-1.1c1-1.2,1.5-2.7,1.4-4.2v-18.2h8.3v18.2
	c0,4-1.2,7.1-3.5,9.3c-2.3,2.2-5.6,3.3-9.9,3.3c-4.3,0-7.6-1.1-9.9-3.3c-2.3-2.2-3.5-5.3-3.5-9.3v-18.2h8.3v18.2
	c-0.1,1.5,0.4,3,1.4,4.2c0.5,0.5,1.1,0.9,1.8,1.1C78.9,136.7,79.6,136.8,80.3,136.7L80.3,136.7z"/>
<path class="st0" d="M110.3,143.6c-2.4,0-4.8-0.4-7.1-1.3c-2.2-0.8-4.2-2-5.9-3.6l4-5c1.2,1.1,2.5,1.9,4,2.5
	c1.6,0.6,3.2,0.9,4.9,0.9c1,0.1,1.9-0.2,2.8-0.6c0.3-0.2,0.6-0.5,0.8-0.8c0.2-0.3,0.3-0.7,0.2-1.1c0-0.4-0.1-0.8-0.3-1.1
	c-0.2-0.3-0.5-0.6-0.9-0.8c-1.3-0.7-2.8-1.2-4.2-1.5l-1.9-0.5c-2.3-0.5-4.5-1.6-6.2-3.3c-0.7-0.7-1.3-1.6-1.6-2.6
	c-0.4-1-0.5-2-0.5-3c0-1.8,0.5-3.6,1.5-5.1c1.1-1.5,2.5-2.6,4.2-3.3c2-0.8,4.1-1.2,6.2-1.2c2.3,0,4.5,0.4,6.6,1.3
	c2,0.8,3.9,2,5.6,3.4l-4.1,5.2c-1.1-1-2.4-1.8-3.7-2.4c-1.3-0.7-2.8-1-4.3-1c-0.9-0.1-1.9,0.2-2.7,0.6c-0.3,0.2-0.6,0.4-0.7,0.7
	s-0.2,0.7-0.2,1c0,0.4,0.1,0.7,0.3,1c0.2,0.3,0.4,0.6,0.7,0.8c1,0.7,2.2,1.2,3.4,1.4l2.3,0.6c3.3,0.9,5.6,2.1,6.9,3.6
	c1.3,1.5,2,3.4,2,5.4c0,1.8-0.5,3.6-1.5,5c-1.1,1.5-2.5,2.6-4.2,3.3C114.6,143.3,112.5,143.7,110.3,143.6L110.3,143.6z"/>
<path class="st0" d="M147.2,143l-1.9-5.6H134l-1.9,5.6h-8.2l11-30.2h9.6l11,30.2H147.2z M136.1,131.3h7.1l-3.5-10.6L136.1,131.3z"/>
<path class="st0" d="M174.5,143v-23.5h-9v-6.7h26.2v6.7h-9V143H174.5z"/>
<path class="st0" d="M209,143.6c-2.8,0.1-5.6-0.6-8.1-2c-2.3-1.3-4.2-3.2-5.6-5.5c-1.4-2.5-2.1-5.3-2-8.1c0-2.2,0.4-4.3,1.2-6.3
	c0.7-1.9,1.9-3.6,3.3-5c1.4-1.4,3.1-2.5,5-3.3c4-1.5,8.5-1.5,12.5,0c1.9,0.7,3.5,1.9,5,3.3c1.4,1.4,2.5,3.1,3.3,5
	c0.8,2,1.2,4.2,1.2,6.3c0.1,2.8-0.6,5.6-2,8.1c-1.3,2.3-3.2,4.2-5.6,5.5C214.6,143,211.8,143.7,209,143.6L209,143.6z M209,136.8
	c1.3,0,2.7-0.4,3.8-1.1c1.1-0.8,2-1.8,2.6-3.1c0.6-1.4,1-3,0.9-4.6c0-1.6-0.3-3.2-0.9-4.6c-0.6-1.3-1.4-2.3-2.6-3.1
	c-1.1-0.7-2.4-1.1-3.8-1.1c-1.3,0-2.7,0.4-3.8,1.1c-1.1,0.8-2,1.9-2.6,3.1c-0.6,1.5-1,3-0.9,4.6c0,1.6,0.3,3.1,0.9,4.6
	c0.6,1.2,1.4,2.3,2.6,3.1C206.3,136.4,207.6,136.8,209,136.8L209,136.8z"/>
<path class="st0" d="M229.4,143v-30.2h11.9c2.8-0.1,5.5,0.6,7.9,1.9c2.3,1.2,4.1,3.1,5.4,5.3c1.3,2.4,2,5.1,2,7.8
	c0.1,2.7-0.6,5.4-2,7.8c-1.3,2.2-3.1,4.1-5.4,5.3c-2.4,1.3-5.2,2-7.9,1.9H229.4z M237.5,136.5h3.8c1,0,2-0.2,2.8-0.6
	c0.9-0.4,1.7-1,2.3-1.8c1.3-1.8,2-4,1.9-6.2c0.1-2.2-0.6-4.4-1.9-6.2c-0.6-0.8-1.4-1.4-2.3-1.8c-0.9-0.4-1.9-0.6-2.8-0.6h-3.8V136.5
	z"/>
<path class="st0" d="M280.9,143l-1.9-5.6h-11.3l-1.9,5.6h-8.2l11-30.2h9.6l11,30.2H280.9z M269.8,131.3h7.1l-3.5-10.6L269.8,131.3z"
	/>
<path class="st0" d="M305.3,132.2V143h-8.4v-10.9l-10.7-19.3h9.3l5.6,12l5.5-12h9.3L305.3,132.2z"/>
</svg>
