<svg width="540" height="255" viewBox="0 0 540 255" fill="none" xmlns="http://www.w3.org/2000/svg">
<path d="M165.916 127.958C165.916 133.29 164.335 138.502 161.373 142.935C158.411 147.368 154.201 150.823 149.275 152.864C144.349 154.904 138.929 155.438 133.699 154.398C128.47 153.358 123.667 150.791 119.896 147.021C116.126 143.251 113.559 138.447 112.518 133.218C111.478 127.989 112.011 122.569 114.052 117.643C116.092 112.717 119.547 108.506 123.98 105.544C128.413 102.582 133.625 101 138.956 101C146.106 101 152.963 103.841 158.019 108.896C163.074 113.952 165.915 120.808 165.916 127.958V127.958Z" fill="#F2F2F2"/>
<path d="M192.347 136.746C193.055 136.789 193.763 136.681 194.425 136.429C195.087 136.176 195.687 135.785 196.186 135.281C197.153 134.115 197.637 132.623 197.538 131.111V112.878H205.789V131.067C205.789 135.06 204.621 138.15 202.285 140.339C199.948 142.528 196.636 143.622 192.347 143.621C188.059 143.621 184.747 142.527 182.411 140.339C180.074 138.15 178.906 135.06 178.906 131.067V112.878H187.158V131.111C187.058 132.623 187.542 134.115 188.51 135.281C189.008 135.785 189.608 136.176 190.27 136.429C190.932 136.681 191.64 136.789 192.347 136.746V136.746Z" fill="#F2F2F2"/>
<path d="M222.291 143.621C219.883 143.629 217.493 143.201 215.238 142.357C213.062 141.559 211.07 140.329 209.382 138.741L213.375 133.729C214.55 134.789 215.901 135.637 217.367 136.235C218.918 136.855 220.576 137.164 222.247 137.145C223.218 137.195 224.184 136.98 225.042 136.523C225.366 136.337 225.634 136.064 225.814 135.735C225.994 135.407 226.08 135.035 226.062 134.66C226.057 134.26 225.943 133.869 225.732 133.529C225.521 133.188 225.221 132.912 224.865 132.73C223.531 132.041 222.115 131.527 220.649 131.2L218.787 130.712C216.457 130.213 214.309 129.085 212.576 127.451C211.867 126.712 211.314 125.839 210.948 124.883C210.582 123.927 210.412 122.907 210.446 121.884C210.41 120.082 210.937 118.314 211.954 116.826C213.004 115.342 214.449 114.182 216.124 113.477C218.075 112.659 220.176 112.258 222.291 112.301C224.555 112.293 226.8 112.723 228.901 113.566C230.95 114.378 232.842 115.542 234.491 117.004L230.365 122.195C229.228 121.232 227.968 120.426 226.617 119.799C225.284 119.143 223.821 118.794 222.335 118.778C221.388 118.723 220.444 118.931 219.607 119.378C219.304 119.556 219.056 119.813 218.888 120.122C218.72 120.431 218.639 120.779 218.654 121.13C218.661 121.494 218.756 121.851 218.929 122.172C219.103 122.492 219.351 122.766 219.652 122.971C220.7 123.657 221.865 124.145 223.089 124.412L225.352 125.034C228.605 125.921 230.905 127.134 232.251 128.671C233.572 130.144 234.292 132.06 234.27 134.039C234.308 135.831 233.789 137.591 232.783 139.074C231.727 140.561 230.274 141.722 228.59 142.424C226.598 143.259 224.452 143.667 222.291 143.621V143.621Z" fill="#F2F2F2"/>
<path d="M259.201 143.045L257.293 137.411H245.981L244.073 143.045H235.911L246.957 112.878H256.539L267.586 143.045H259.201ZM248.066 131.289H255.208L251.659 120.731L248.066 131.289Z" fill="#F2F2F2"/>
<path d="M286.527 143.045V119.533H277.565V112.878H303.739V119.533H294.777V143.045H286.527Z" fill="#F2F2F2"/>
<path d="M320.996 143.621C318.183 143.672 315.406 142.984 312.943 141.625C310.621 140.323 308.697 138.414 307.376 136.102C305.985 133.634 305.281 130.839 305.336 128.006C305.309 125.844 305.7 123.697 306.489 121.684C307.229 119.819 308.347 118.128 309.771 116.716C311.194 115.309 312.884 114.201 314.741 113.455C318.769 111.917 323.223 111.917 327.251 113.455C329.107 114.201 330.796 115.31 332.219 116.716C333.644 118.128 334.761 119.819 335.502 121.684C336.29 123.697 336.681 125.844 336.655 128.006C336.709 130.839 336.005 133.634 334.615 136.102C333.294 138.414 331.37 140.323 329.047 141.625C326.584 142.984 323.808 143.672 320.996 143.621V143.621ZM320.996 136.79C322.344 136.819 323.668 136.432 324.788 135.681C325.901 134.902 326.782 133.837 327.339 132.598C327.987 131.155 328.305 129.587 328.27 128.006C328.303 126.418 327.985 124.843 327.339 123.392C326.783 122.141 325.902 121.061 324.788 120.264C323.661 119.526 322.343 119.133 320.995 119.133C319.648 119.133 318.33 119.526 317.203 120.264C316.089 121.061 315.208 122.141 314.651 123.392C314.006 124.843 313.688 126.419 313.72 128.006C313.686 129.587 314.004 131.155 314.651 132.598C315.208 133.837 316.09 134.902 317.203 135.681C318.323 136.432 319.647 136.82 320.996 136.79V136.79Z" fill="#F2F2F2"/>
<path d="M341.403 143.045V112.878H353.292C356.054 112.823 358.783 113.488 361.21 114.808C363.462 116.054 365.327 117.896 366.601 120.132C367.934 122.522 368.607 125.224 368.552 127.961C368.607 130.698 367.934 133.401 366.601 135.791C365.326 138.027 363.461 139.869 361.21 141.115C358.783 142.435 356.054 143.1 353.292 143.045L341.403 143.045ZM349.521 136.523H353.292C354.271 136.563 355.245 136.37 356.136 135.962C357.026 135.553 357.807 134.94 358.415 134.172C359.744 132.382 360.41 130.187 360.301 127.961C360.41 125.735 359.744 123.541 358.415 121.751C357.807 120.983 357.026 120.37 356.136 119.961C355.245 119.553 354.271 119.36 353.292 119.4H349.521V136.523Z" fill="#F2F2F2"/>
<path d="M392.906 143.045L390.998 137.411H379.686L377.778 143.045H369.616L380.662 112.878H390.244L401.291 143.045H392.906ZM381.772 131.289H388.913L385.365 120.731L381.772 131.289Z" fill="#F2F2F2"/>
<path d="M417.26 132.177V143.045H408.876V132.177L398.185 112.878H407.501L413.09 124.857L418.636 112.878H427.952L417.26 132.177Z" fill="#F2F2F2"/>
</svg>
