<?xml version="1.0" encoding="utf-8"?>
<!-- Generator: Adobe Illustrator 24.1.0, SVG Export Plug-In . SVG Version: 6.00 Build 0)  -->
<svg version="1.1" id="Layer_1" xmlns="http://www.w3.org/2000/svg" xmlns:xlink="http://www.w3.org/1999/xlink" x="0px" y="0px"
	 viewBox="0 0 428 154" style="enable-background:new 0 0 428 154;" xml:space="preserve">
<style type="text/css">
	.st0{fill:#F2F2F2;}
</style>
<path class="st0" d="M53.9,27c0,5.3-1.6,10.5-4.5,15s-7.2,7.9-12.1,9.9S27,54.5,21.7,53.4c-5.2-1-10-3.6-13.8-7.4
	c-3.8-3.8-6.3-8.6-7.4-13.8C-0.5,27,0,21.6,2,16.6c2-4.9,5.5-9.1,9.9-12.1S21.5,0,26.9,0c7.2,0,14,2.8,19.1,7.9S53.9,19.8,53.9,27
	L53.9,27z"/>
<path class="st0" d="M80.3,35.7c0.7,0,1.4-0.1,2.1-0.3c0.7-0.3,1.3-0.6,1.8-1.1c1-1.2,1.5-2.7,1.4-4.2V11.9h8.3v18.2
	c0,4-1.2,7.1-3.5,9.3s-5.6,3.3-9.9,3.3s-7.6-1.1-9.9-3.3s-3.5-5.3-3.5-9.3V11.9h8.3v18.2c-0.1,1.5,0.4,3,1.4,4.2
	c0.5,0.5,1.1,0.9,1.8,1.1C78.9,35.7,79.6,35.8,80.3,35.7L80.3,35.7z"/>
<path class="st0" d="M110.3,42.6c-2.4,0-4.8-0.4-7.1-1.3c-2.2-0.8-4.2-2-5.9-3.6l4-5c1.2,1.1,2.5,1.9,4,2.5c1.6,0.6,3.2,0.9,4.9,0.9
	c1,0.1,1.9-0.2,2.8-0.6c0.3-0.2,0.6-0.5,0.8-0.8c0.2-0.3,0.3-0.7,0.2-1.1c0-0.4-0.1-0.8-0.3-1.1c-0.2-0.3-0.5-0.6-0.9-0.8
	c-1.3-0.7-2.8-1.2-4.2-1.5l-1.9-0.5c-2.3-0.5-4.5-1.6-6.2-3.3c-0.7-0.7-1.3-1.6-1.6-2.6c-0.4-1-0.5-2-0.5-3c0-1.8,0.5-3.6,1.5-5.1
	c1.1-1.5,2.5-2.6,4.2-3.3c2-0.8,4.1-1.2,6.2-1.2c2.3,0,4.5,0.4,6.6,1.3c2,0.8,3.9,2,5.6,3.4l-4.1,5.2c-1.1-1-2.4-1.8-3.7-2.4
	c-1.3-0.7-2.8-1-4.3-1c-0.9-0.1-1.9,0.2-2.7,0.6c-0.3,0.2-0.6,0.4-0.7,0.7s-0.2,0.7-0.2,1c0,0.4,0.1,0.7,0.3,1
	c0.2,0.3,0.4,0.6,0.7,0.8c1,0.7,2.2,1.2,3.4,1.4l2.3,0.6c3.3,0.9,5.6,2.1,6.9,3.6s2,3.4,2,5.4c0,1.8-0.5,3.6-1.5,5
	c-1.1,1.5-2.5,2.6-4.2,3.3C114.6,42.3,112.5,42.7,110.3,42.6L110.3,42.6z"/>
<path class="st0" d="M147.2,42l-1.9-5.6H134l-1.9,5.6h-8.2l11-30.2h9.6l11,30.2H147.2z M136.1,30.3h7.1l-3.5-10.6L136.1,30.3z"/>
<path class="st0" d="M174.5,42V18.5h-9v-6.7h26.2v6.7h-9V42H174.5z"/>
<path class="st0" d="M209,42.6c-2.8,0.1-5.6-0.6-8.1-2c-2.3-1.3-4.2-3.2-5.6-5.5c-1.4-2.5-2.1-5.3-2-8.1c0-2.2,0.4-4.3,1.2-6.3
	c0.7-1.9,1.9-3.6,3.3-5c1.4-1.4,3.1-2.5,5-3.3c4-1.5,8.5-1.5,12.5,0c1.9,0.7,3.5,1.9,5,3.3c1.4,1.4,2.5,3.1,3.3,5
	c0.8,2,1.2,4.2,1.2,6.3c0.1,2.8-0.6,5.6-2,8.1c-1.3,2.3-3.2,4.2-5.6,5.5C214.6,42,211.8,42.7,209,42.6L209,42.6z M209,35.8
	c1.3,0,2.7-0.4,3.8-1.1c1.1-0.8,2-1.8,2.6-3.1c0.6-1.4,1-3,0.9-4.6c0-1.6-0.3-3.2-0.9-4.6c-0.6-1.3-1.4-2.3-2.6-3.1
	c-1.1-0.7-2.4-1.1-3.8-1.1c-1.3,0-2.7,0.4-3.8,1.1c-1.1,0.8-2,1.9-2.6,3.1c-0.6,1.5-1,3-0.9,4.6c0,1.6,0.3,3.1,0.9,4.6
	c0.6,1.2,1.4,2.3,2.6,3.1C206.3,35.4,207.6,35.8,209,35.8L209,35.8z"/>
<path class="st0" d="M229.4,42V11.8h11.9c2.8-0.1,5.5,0.6,7.9,1.9c2.3,1.2,4.1,3.1,5.4,5.3c1.3,2.4,2,5.1,2,7.8
	c0.1,2.7-0.6,5.4-2,7.8c-1.3,2.2-3.1,4.1-5.4,5.3c-2.4,1.3-5.2,2-7.9,1.9h-11.9V42z M237.5,35.5h3.8c1,0,2-0.2,2.8-0.6
	c0.9-0.4,1.7-1,2.3-1.8c1.3-1.8,2-4,1.9-6.2c0.1-2.2-0.6-4.4-1.9-6.2c-0.6-0.8-1.4-1.4-2.3-1.8c-0.9-0.4-1.9-0.6-2.8-0.6h-3.8V35.5z
	"/>
<path class="st0" d="M280.9,42l-1.9-5.6h-11.3l-1.9,5.6h-8.2l11-30.2h9.6l11,30.2H280.9z M269.8,30.3h7.1l-3.5-10.6L269.8,30.3z"/>
<path class="st0" d="M305.3,31.2V42h-8.4V31.1l-10.7-19.3h9.3l5.6,12l5.5-12h9.3L305.3,31.2z"/>
</svg>
