<svg width="400" height="1367" viewBox="0 0 400 1367" fill="none" xmlns="http://www.w3.org/2000/svg">
<path d="M5 0H395C397.8 0 400 2.2 400 5V1362C400 1364.8 397.8 1367 395 1367H5C2.2 1367 0 1364.8 0 1362V5C0 2.2 2.2 0 5 0Z" fill="#1D1E26"/>
<path d="M41 429H359C361.8 429 364 431.2 364 434V1329C364 1331.8 361.8 1334 359 1334H41C38.2 1334 36 1331.8 36 1329V434C36 431.2 38.2 429 41 429Z" fill="#252633"/>
<path d="M200 1199.4C222.091 1199.4 240 1181.63 240 1159.7C240 1137.77 222.091 1120 200 1120C177.909 1120 160 1137.77 160 1159.7C160 1181.63 177.909 1199.4 200 1199.4Z" stroke="white" stroke-width="2"/>
<path d="M185.6 1158.2L196.6 1172.7L212.9 1145.4" stroke="white" stroke-width="2"/>
<path d="M259 111.6L247.3 99.9L253.3 93.9C254.3 92.9 255.8 92.9 256.8 93.9L265 102.1C266 103.1 266 104.6 265 105.6L259 111.6Z" fill="#1D1E26"/>
<path d="M259 111.6L247.3 99.9L253.3 93.9C254.3 92.9 255.8 92.9 256.8 93.9L265 102.1C266 103.1 266 104.6 265 105.6L259 111.6Z" stroke="white" stroke-width="2" stroke-linecap="round" stroke-linejoin="round"/>
<path d="M197.4 573.2C197.4 575.3 199.1 577 201.2 577H224.7L197.4 550V573.2Z" stroke="white" stroke-width="2" stroke-linecap="round" stroke-linejoin="round"/>
<path d="M197.4 550H143.4C141.3 550 139.4 551.7 139.4 553.8V654.8C139.4 657.2 141.3 658.8 143.4 658.8H220.7C222.8 658.8 224.5 657.1 224.5 655V577.2L197.4 550Z" stroke="white" stroke-width="2" stroke-linecap="round" stroke-linejoin="round"/>
<path d="M150.5 590.9H210" stroke="white" stroke-width="2" stroke-linecap="round" stroke-linejoin="round"/>
<path d="M150.5 603.9H210" stroke="white" stroke-width="2" stroke-linecap="round" stroke-linejoin="round"/>
<path d="M150.5 616.9H210" stroke="white" stroke-width="2" stroke-linecap="round" stroke-linejoin="round"/>
<path d="M150.5 630.2H210" stroke="white" stroke-width="2" stroke-linecap="round" stroke-linejoin="round"/>
<path d="M150.5 643.2H184" stroke="white" stroke-width="2" stroke-linecap="round" stroke-linejoin="round"/>
<path d="M212.1 78.4C212.1 80.5 213.8 82.2 215.9 82.2H239.4L212.1 55.2V78.4Z" stroke="white" stroke-width="2" stroke-linecap="round" stroke-linejoin="round"/>
<path d="M212.1 55.2H158.1C156 55.2 154.1 56.9 154.1 59V160C154.1 162.4 156 164 158.1 164H235.4C237.5 164 239.2 162.3 239.2 160.2V82.4L212.1 55.2Z" stroke="white" stroke-width="2" stroke-linecap="round" stroke-linejoin="round"/>
<path d="M165.2 96.1H224.7" stroke="white" stroke-width="2" stroke-linecap="round" stroke-linejoin="round"/>
<path d="M165.2 109.1H224.7" stroke="white" stroke-width="2" stroke-linecap="round" stroke-linejoin="round"/>
<path d="M165.2 122.1H224.7" stroke="white" stroke-width="2" stroke-linecap="round" stroke-linejoin="round"/>
<path d="M165.2 135.4H224.7" stroke="white" stroke-width="2" stroke-linecap="round" stroke-linejoin="round"/>
<path d="M165.2 148.4H198.7" stroke="white" stroke-width="2" stroke-linecap="round" stroke-linejoin="round"/>
<path d="M222.7 147.8L208.8 150.2L211.2 136.2L247.5 100L259 111.7L222.7 147.8Z" fill="#1D1E26"/>
<path d="M222.7 147.8L208.8 150.2L211.2 136.2L247.5 100L259 111.7L222.7 147.8Z" stroke="white" stroke-width="2" stroke-linecap="round" stroke-linejoin="round"/>
<path d="M211.2 136.2L222.7 147.9" stroke="white" stroke-width="2" stroke-linecap="round" stroke-linejoin="round"/>
<path d="M200 902.8C222.091 902.8 240 884.712 240 862.4C240 840.088 222.091 822 200 822C177.909 822 160 840.088 160 862.4C160 884.712 177.909 902.8 200 902.8Z" stroke="white" stroke-width="2"/>
<path d="M210.7 873.7L189 851.2" stroke="white" stroke-width="2" stroke-linecap="square"/>
<path d="M210.5 851.3L188.7 873.8" stroke="white" stroke-width="2" stroke-linecap="square"/>
<path d="M132.2 196.7H267.7C270.5 196.7 272.7 198.8 272.7 201.3V252.4C272.7 254.9 270.5 257 267.7 257H132.2C129.4 257 127.2 254.9 127.2 252.4V201.3C127.2 198.7 129.5 196.7 132.2 196.7Z" fill="#7000FF"/>
<path d="M237.3 637L260.7 660.2" stroke="white" stroke-width="2" stroke-linecap="round" stroke-linejoin="round"/>
<path d="M207.561 607.132C199.399 615.294 199.431 628.559 207.632 636.76C215.833 644.961 229.098 644.992 237.26 636.83C245.422 628.668 245.39 615.404 237.189 607.203C228.988 599.002 215.723 598.97 207.561 607.132Z" fill="#252633"/>
<path d="M207.561 607.132C199.399 615.294 199.431 628.559 207.632 636.76C215.833 644.961 229.098 644.992 237.26 636.83C245.422 628.668 245.39 615.404 237.189 607.203C228.988 599.002 215.723 598.97 207.561 607.132Z" stroke="white" stroke-width="2" stroke-linecap="round" stroke-linejoin="round"/>
<path d="M189 380L205 380L197 390L189 380Z" fill="#7000FF"/>
<path d="M196.3 379.8L196.3 307" stroke="#7000FF" stroke-width="2"/>
<path d="M192 787L208 787L200 797L192 787Z" fill="#7000FF"/>
<path d="M200 787.39L200 735.69" stroke="#7000FF" stroke-width="2"/>
<path d="M61.3 445H338.8C341.6 445 343.8 447.2 343.8 450V488C343.8 490.8 341.6 493 338.8 493H61.3C58.5 493 56.3 490.8 56.3 488V450C56.3 447.2 58.5 445 61.3 445Z" fill="#1D1E26"/>
<path d="M171.612 213.146V216.818H175.932V218.492H171.612V222.326H176.472V224H169.56V211.472H176.472V213.146H171.612Z" fill="white"/>
<path d="M189.277 224H187.225L181.051 214.658V224H178.999V211.472H181.051L187.225 220.796V211.472H189.277V224Z" fill="white"/>
<path d="M202.754 211.49L198.056 224H195.68L190.964 211.49H193.16L196.868 221.894L200.594 211.49H202.754Z" fill="white"/>
<path d="M206.522 211.49V224H204.47V211.49H206.522Z" fill="white"/>
<path d="M216.758 221.444H211.52L210.62 224H208.478L212.96 211.472H215.336L219.818 224H217.658L216.758 221.444ZM216.182 219.77L214.148 213.956L212.096 219.77H216.182Z" fill="white"/>
<path d="M228.265 224L225.385 218.996H223.819V224H221.767V211.49H226.087C227.047 211.49 227.857 211.658 228.517 211.994C229.189 212.33 229.687 212.78 230.011 213.344C230.347 213.908 230.515 214.538 230.515 215.234C230.515 216.05 230.275 216.794 229.795 217.466C229.327 218.126 228.601 218.576 227.617 218.816L230.713 224H228.265ZM223.819 217.358H226.087C226.855 217.358 227.431 217.166 227.815 216.782C228.211 216.398 228.409 215.882 228.409 215.234C228.409 214.586 228.217 214.082 227.833 213.722C227.449 213.35 226.867 213.164 226.087 213.164H223.819V217.358Z" fill="white"/>
<path d="M159.602 242.126C158.762 242.126 158.006 241.982 157.334 241.694C156.662 241.394 156.134 240.974 155.75 240.434C155.366 239.894 155.174 239.264 155.174 238.544H157.37C157.418 239.084 157.628 239.528 158 239.876C158.384 240.224 158.918 240.398 159.602 240.398C160.31 240.398 160.862 240.23 161.258 239.894C161.654 239.546 161.852 239.102 161.852 238.562C161.852 238.142 161.726 237.8 161.474 237.536C161.234 237.272 160.928 237.068 160.556 236.924C160.196 236.78 159.692 236.624 159.044 236.456C158.228 236.24 157.562 236.024 157.046 235.808C156.542 235.58 156.11 235.232 155.75 234.764C155.39 234.296 155.21 233.672 155.21 232.892C155.21 232.172 155.39 231.542 155.75 231.002C156.11 230.462 156.614 230.048 157.262 229.76C157.91 229.472 158.66 229.328 159.512 229.328C160.724 229.328 161.714 229.634 162.482 230.246C163.262 230.846 163.694 231.674 163.778 232.73H161.51C161.474 232.274 161.258 231.884 160.862 231.56C160.466 231.236 159.944 231.074 159.296 231.074C158.708 231.074 158.228 231.224 157.856 231.524C157.484 231.824 157.298 232.256 157.298 232.82C157.298 233.204 157.412 233.522 157.64 233.774C157.88 234.014 158.18 234.206 158.54 234.35C158.9 234.494 159.392 234.65 160.016 234.818C160.844 235.046 161.516 235.274 162.032 235.502C162.56 235.73 163.004 236.084 163.364 236.564C163.736 237.032 163.922 237.662 163.922 238.454C163.922 239.09 163.748 239.69 163.4 240.254C163.064 240.818 162.566 241.274 161.906 241.622C161.258 241.958 160.49 242.126 159.602 242.126Z" fill="white"/>
<path d="M172.049 242.126C170.885 242.126 169.811 241.856 168.827 241.316C167.855 240.764 167.081 240.002 166.505 239.03C165.941 238.046 165.659 236.942 165.659 235.718C165.659 234.494 165.941 233.396 166.505 232.424C167.081 231.452 167.855 230.696 168.827 230.156C169.811 229.604 170.885 229.328 172.049 229.328C173.225 229.328 174.299 229.604 175.271 230.156C176.255 230.696 177.029 231.452 177.593 232.424C178.157 233.396 178.439 234.494 178.439 235.718C178.439 236.942 178.157 238.046 177.593 239.03C177.029 240.002 176.255 240.764 175.271 241.316C174.299 241.856 173.225 242.126 172.049 242.126ZM172.049 240.344C172.877 240.344 173.615 240.158 174.263 239.786C174.911 239.402 175.415 238.862 175.775 238.166C176.147 237.458 176.333 236.642 176.333 235.718C176.333 234.794 176.147 233.984 175.775 233.288C175.415 232.592 174.911 232.058 174.263 231.686C173.615 231.314 172.877 231.128 172.049 231.128C171.221 231.128 170.483 231.314 169.835 231.686C169.187 232.058 168.677 232.592 168.305 233.288C167.945 233.984 167.765 234.794 167.765 235.718C167.765 236.642 167.945 237.458 168.305 238.166C168.677 238.862 169.187 239.402 169.835 239.786C170.483 240.158 171.221 240.344 172.049 240.344Z" fill="white"/>
<path d="M182.51 240.344H186.74V242H180.458V229.49H182.51V240.344Z" fill="white"/>
<path d="M190.508 229.49V242H188.456V229.49H190.508Z" fill="white"/>
<path d="M192.518 235.718C192.518 234.494 192.8 233.396 193.364 232.424C193.94 231.452 194.714 230.696 195.686 230.156C196.67 229.604 197.744 229.328 198.908 229.328C200.24 229.328 201.422 229.658 202.454 230.318C203.498 230.966 204.254 231.89 204.722 233.09H202.256C201.932 232.43 201.482 231.938 200.906 231.614C200.33 231.29 199.664 231.128 198.908 231.128C198.08 231.128 197.342 231.314 196.694 231.686C196.046 232.058 195.536 232.592 195.164 233.288C194.804 233.984 194.624 234.794 194.624 235.718C194.624 236.642 194.804 237.452 195.164 238.148C195.536 238.844 196.046 239.384 196.694 239.768C197.342 240.14 198.08 240.326 198.908 240.326C199.664 240.326 200.33 240.164 200.906 239.84C201.482 239.516 201.932 239.024 202.256 238.364H204.722C204.254 239.564 203.498 240.488 202.454 241.136C201.422 241.784 200.24 242.108 198.908 242.108C197.732 242.108 196.658 241.838 195.686 241.298C194.714 240.746 193.94 239.984 193.364 239.012C192.8 238.04 192.518 236.942 192.518 235.718Z" fill="white"/>
<path d="M209.176 229.49V242H207.124V229.49H209.176Z" fill="white"/>
<path d="M219.952 229.49V231.164H216.622V242H214.57V231.164H211.222V229.49H219.952Z" fill="white"/>
<path d="M224.065 229.49V237.464C224.065 238.412 224.311 239.126 224.803 239.606C225.307 240.086 226.003 240.326 226.891 240.326C227.791 240.326 228.487 240.086 228.979 239.606C229.483 239.126 229.735 238.412 229.735 237.464V229.49H231.787V237.428C231.787 238.448 231.565 239.312 231.121 240.02C230.677 240.728 230.083 241.256 229.339 241.604C228.595 241.952 227.773 242.126 226.873 242.126C225.973 242.126 225.151 241.952 224.407 241.604C223.675 241.256 223.093 240.728 222.661 240.02C222.229 239.312 222.013 238.448 222.013 237.428V229.49H224.065Z" fill="white"/>
<path d="M238.544 229.49C239.876 229.49 241.04 229.748 242.036 230.264C243.044 230.768 243.818 231.5 244.358 232.46C244.91 233.408 245.186 234.518 245.186 235.79C245.186 237.062 244.91 238.166 244.358 239.102C243.818 240.038 243.044 240.758 242.036 241.262C241.04 241.754 239.876 242 238.544 242H234.458V229.49H238.544ZM238.544 240.326C240.008 240.326 241.13 239.93 241.91 239.138C242.69 238.346 243.08 237.23 243.08 235.79C243.08 234.338 242.69 233.204 241.91 232.388C241.13 231.572 240.008 231.164 238.544 231.164H236.51V240.326H238.544Z" fill="white"/>
<path d="M164.67 464.146V467.818H168.99V469.492H164.67V473.326H169.53V475H162.618V462.472H169.53V464.146H164.67ZM176.179 475.126C175.339 475.126 174.583 474.982 173.911 474.694C173.239 474.394 172.711 473.974 172.327 473.434C171.943 472.894 171.751 472.264 171.751 471.544H173.947C173.995 472.084 174.205 472.528 174.577 472.876C174.961 473.224 175.495 473.398 176.179 473.398C176.887 473.398 177.439 473.23 177.835 472.894C178.231 472.546 178.429 472.102 178.429 471.562C178.429 471.142 178.303 470.8 178.051 470.536C177.811 470.272 177.505 470.068 177.133 469.924C176.773 469.78 176.269 469.624 175.621 469.456C174.805 469.24 174.139 469.024 173.623 468.808C173.119 468.58 172.687 468.232 172.327 467.764C171.967 467.296 171.787 466.672 171.787 465.892C171.787 465.172 171.967 464.542 172.327 464.002C172.687 463.462 173.191 463.048 173.839 462.76C174.487 462.472 175.237 462.328 176.089 462.328C177.301 462.328 178.291 462.634 179.059 463.246C179.839 463.846 180.271 464.674 180.355 465.73H178.087C178.051 465.274 177.835 464.884 177.439 464.56C177.043 464.236 176.521 464.074 175.873 464.074C175.285 464.074 174.805 464.224 174.433 464.524C174.061 464.824 173.875 465.256 173.875 465.82C173.875 466.204 173.989 466.522 174.217 466.774C174.457 467.014 174.757 467.206 175.117 467.35C175.477 467.494 175.969 467.65 176.593 467.818C177.421 468.046 178.093 468.274 178.609 468.502C179.137 468.73 179.581 469.084 179.941 469.564C180.313 470.032 180.499 470.662 180.499 471.454C180.499 472.09 180.325 472.69 179.977 473.254C179.641 473.818 179.143 474.274 178.483 474.622C177.835 474.958 177.067 475.126 176.179 475.126ZM191.002 462.49V464.164H187.672V475H185.62V464.164H182.272V462.49H191.002ZM200.622 472.444H195.384L194.484 475H192.342L196.824 462.472H199.2L203.682 475H201.522L200.622 472.444ZM200.046 470.77L198.012 464.956L195.96 470.77H200.046ZM213.713 462.49V464.164H210.383V475H208.331V464.164H204.983V462.49H213.713ZM217.825 462.49V470.464C217.825 471.412 218.071 472.126 218.563 472.606C219.067 473.086 219.763 473.326 220.651 473.326C221.551 473.326 222.247 473.086 222.739 472.606C223.243 472.126 223.495 471.412 223.495 470.464V462.49H225.547V470.428C225.547 471.448 225.325 472.312 224.881 473.02C224.437 473.728 223.843 474.256 223.099 474.604C222.355 474.952 221.533 475.126 220.633 475.126C219.733 475.126 218.911 474.952 218.167 474.604C217.435 474.256 216.853 473.728 216.421 473.02C215.989 472.312 215.773 471.448 215.773 470.428V462.49H217.825ZM232.341 475.126C231.501 475.126 230.745 474.982 230.073 474.694C229.401 474.394 228.873 473.974 228.489 473.434C228.105 472.894 227.913 472.264 227.913 471.544H230.109C230.157 472.084 230.367 472.528 230.739 472.876C231.123 473.224 231.657 473.398 232.341 473.398C233.049 473.398 233.601 473.23 233.997 472.894C234.393 472.546 234.591 472.102 234.591 471.562C234.591 471.142 234.465 470.8 234.213 470.536C233.973 470.272 233.667 470.068 233.295 469.924C232.935 469.78 232.431 469.624 231.783 469.456C230.967 469.24 230.301 469.024 229.785 468.808C229.281 468.58 228.849 468.232 228.489 467.764C228.129 467.296 227.949 466.672 227.949 465.892C227.949 465.172 228.129 464.542 228.489 464.002C228.849 463.462 229.353 463.048 230.001 462.76C230.649 462.472 231.399 462.328 232.251 462.328C233.463 462.328 234.453 462.634 235.221 463.246C236.001 463.846 236.433 464.674 236.517 465.73H234.249C234.213 465.274 233.997 464.884 233.601 464.56C233.205 464.236 232.683 464.074 232.035 464.074C231.447 464.074 230.967 464.224 230.595 464.524C230.223 464.824 230.037 465.256 230.037 465.82C230.037 466.204 230.151 466.522 230.379 466.774C230.619 467.014 230.919 467.206 231.279 467.35C231.639 467.494 232.131 467.65 232.755 467.818C233.583 468.046 234.255 468.274 234.771 468.502C235.299 468.73 235.743 469.084 236.103 469.564C236.475 470.032 236.661 470.662 236.661 471.454C236.661 472.09 236.487 472.69 236.139 473.254C235.803 473.818 235.305 474.274 234.645 474.622C233.997 474.958 233.229 475.126 232.341 475.126Z" fill="white"/>
<path d="M141.249 697.574C141.921 697.694 142.491 698.048 142.959 698.636C143.427 699.224 143.661 699.89 143.661 700.634C143.661 701.27 143.493 701.846 143.157 702.362C142.833 702.866 142.359 703.268 141.735 703.568C141.111 703.856 140.385 704 139.557 704H134.553V691.49H139.323C140.175 691.49 140.907 691.634 141.519 691.922C142.131 692.21 142.593 692.6 142.905 693.092C143.217 693.572 143.373 694.112 143.373 694.712C143.373 695.432 143.181 696.032 142.797 696.512C142.413 696.992 141.897 697.346 141.249 697.574ZM136.605 696.746H139.143C139.815 696.746 140.337 696.596 140.709 696.296C141.093 695.984 141.285 695.54 141.285 694.964C141.285 694.4 141.093 693.962 140.709 693.65C140.337 693.326 139.815 693.164 139.143 693.164H136.605V696.746ZM139.377 702.326C140.073 702.326 140.619 702.158 141.015 701.822C141.411 701.486 141.609 701.018 141.609 700.418C141.609 699.806 141.399 699.32 140.979 698.96C140.559 698.6 140.001 698.42 139.305 698.42H136.605V702.326H139.377Z" fill="white"/>
<path d="M153.433 701.444H148.195L147.295 704H145.153L149.635 691.472H152.011L156.493 704H154.333L153.433 701.444ZM152.857 699.77L150.823 693.956L148.771 699.77H152.857Z" fill="white"/>
<path d="M165.264 691.49V700.508C165.264 701.624 164.922 702.506 164.238 703.154C163.566 703.802 162.678 704.126 161.574 704.126C160.47 704.126 159.576 703.802 158.892 703.154C158.22 702.506 157.884 701.624 157.884 700.508H159.954C159.966 701.06 160.104 701.498 160.368 701.822C160.644 702.146 161.046 702.308 161.574 702.308C162.102 702.308 162.504 702.146 162.78 701.822C163.056 701.486 163.194 701.048 163.194 700.508V691.49H165.264Z" fill="white"/>
<path d="M174.308 704.126C173.144 704.126 172.07 703.856 171.086 703.316C170.114 702.764 169.34 702.002 168.764 701.03C168.2 700.046 167.918 698.942 167.918 697.718C167.918 696.494 168.2 695.396 168.764 694.424C169.34 693.452 170.114 692.696 171.086 692.156C172.07 691.604 173.144 691.328 174.308 691.328C175.484 691.328 176.558 691.604 177.53 692.156C178.514 692.696 179.288 693.452 179.852 694.424C180.416 695.396 180.698 696.494 180.698 697.718C180.698 698.942 180.416 700.046 179.852 701.03C179.288 702.002 178.514 702.764 177.53 703.316C176.558 703.856 175.484 704.126 174.308 704.126ZM174.308 702.344C175.136 702.344 175.874 702.158 176.522 701.786C177.17 701.402 177.674 700.862 178.034 700.166C178.406 699.458 178.592 698.642 178.592 697.718C178.592 696.794 178.406 695.984 178.034 695.288C177.674 694.592 177.17 694.058 176.522 693.686C175.874 693.314 175.136 693.128 174.308 693.128C173.48 693.128 172.742 693.314 172.094 693.686C171.446 694.058 170.936 694.592 170.564 695.288C170.204 695.984 170.024 696.794 170.024 697.718C170.024 698.642 170.204 699.458 170.564 700.166C170.936 700.862 171.446 701.402 172.094 701.786C172.742 702.158 173.48 702.344 174.308 702.344Z" fill="white"/>
<path d="M193.891 704L191.011 698.996H189.445V704H187.393V691.49H191.713C192.673 691.49 193.483 691.658 194.143 691.994C194.815 692.33 195.313 692.78 195.637 693.344C195.973 693.908 196.141 694.538 196.141 695.234C196.141 696.05 195.901 696.794 195.421 697.466C194.953 698.126 194.227 698.576 193.243 698.816L196.339 704H193.891ZM189.445 697.358H191.713C192.481 697.358 193.057 697.166 193.441 696.782C193.837 696.398 194.035 695.882 194.035 695.234C194.035 694.586 193.843 694.082 193.459 693.722C193.075 693.35 192.493 693.164 191.713 693.164H189.445V697.358Z" fill="white"/>
<path d="M200.818 693.146V696.818H205.138V698.492H200.818V702.326H205.678V704H198.766V691.472H205.678V693.146H200.818Z" fill="white"/>
<path d="M218.988 691.49L214.29 704H211.914L207.198 691.49H209.394L213.102 701.894L216.828 691.49H218.988Z" fill="white"/>
<path d="M222.756 691.49V704H220.704V691.49H222.756Z" fill="white"/>
<path d="M229.572 704.126C228.732 704.126 227.976 703.982 227.304 703.694C226.632 703.394 226.104 702.974 225.72 702.434C225.336 701.894 225.144 701.264 225.144 700.544H227.34C227.388 701.084 227.598 701.528 227.97 701.876C228.354 702.224 228.888 702.398 229.572 702.398C230.28 702.398 230.832 702.23 231.228 701.894C231.624 701.546 231.822 701.102 231.822 700.562C231.822 700.142 231.696 699.8 231.444 699.536C231.204 699.272 230.898 699.068 230.526 698.924C230.166 698.78 229.662 698.624 229.014 698.456C228.198 698.24 227.532 698.024 227.016 697.808C226.512 697.58 226.08 697.232 225.72 696.764C225.36 696.296 225.18 695.672 225.18 694.892C225.18 694.172 225.36 693.542 225.72 693.002C226.08 692.462 226.584 692.048 227.232 691.76C227.88 691.472 228.63 691.328 229.482 691.328C230.694 691.328 231.684 691.634 232.452 692.246C233.232 692.846 233.664 693.674 233.748 694.73H231.48C231.444 694.274 231.228 693.884 230.832 693.56C230.436 693.236 229.914 693.074 229.266 693.074C228.678 693.074 228.198 693.224 227.826 693.524C227.454 693.824 227.268 694.256 227.268 694.82C227.268 695.204 227.382 695.522 227.61 695.774C227.85 696.014 228.15 696.206 228.51 696.35C228.87 696.494 229.362 696.65 229.986 696.818C230.814 697.046 231.486 697.274 232.002 697.502C232.53 697.73 232.974 698.084 233.334 698.564C233.706 699.032 233.892 699.662 233.892 700.454C233.892 701.09 233.718 701.69 233.37 702.254C233.034 702.818 232.536 703.274 231.876 703.622C231.228 703.958 230.46 704.126 229.572 704.126Z" fill="white"/>
<path d="M238.365 691.49V704H236.313V691.49H238.365Z" fill="white"/>
<path d="M246.765 704.126C245.601 704.126 244.527 703.856 243.543 703.316C242.571 702.764 241.797 702.002 241.221 701.03C240.657 700.046 240.375 698.942 240.375 697.718C240.375 696.494 240.657 695.396 241.221 694.424C241.797 693.452 242.571 692.696 243.543 692.156C244.527 691.604 245.601 691.328 246.765 691.328C247.941 691.328 249.015 691.604 249.987 692.156C250.971 692.696 251.745 693.452 252.309 694.424C252.873 695.396 253.155 696.494 253.155 697.718C253.155 698.942 252.873 700.046 252.309 701.03C251.745 702.002 250.971 702.764 249.987 703.316C249.015 703.856 247.941 704.126 246.765 704.126ZM246.765 702.344C247.593 702.344 248.331 702.158 248.979 701.786C249.627 701.402 250.131 700.862 250.491 700.166C250.863 699.458 251.049 698.642 251.049 697.718C251.049 696.794 250.863 695.984 250.491 695.288C250.131 694.592 249.627 694.058 248.979 693.686C248.331 693.314 247.593 693.128 246.765 693.128C245.937 693.128 245.199 693.314 244.551 693.686C243.903 694.058 243.393 694.592 243.021 695.288C242.661 695.984 242.481 696.794 242.481 697.718C242.481 698.642 242.661 699.458 243.021 700.166C243.393 700.862 243.903 701.402 244.551 701.786C245.199 702.158 245.937 702.344 246.765 702.344ZM248.619 688.808L244.641 690.77V689.258L248.619 687.062V688.808Z" fill="white"/>
<path d="M265.452 704H263.4L257.226 694.658V704H255.174V691.472H257.226L263.4 700.796V691.472H265.452V704Z" fill="white"/>
<path d="M157.737 953.49C159.069 953.49 160.233 953.748 161.229 954.264C162.237 954.768 163.011 955.5 163.551 956.46C164.103 957.408 164.379 958.518 164.379 959.79C164.379 961.062 164.103 962.166 163.551 963.102C163.011 964.038 162.237 964.758 161.229 965.262C160.233 965.754 159.069 966 157.737 966H153.651V953.49H157.737ZM157.737 964.326C159.201 964.326 160.323 963.93 161.103 963.138C161.883 962.346 162.273 961.23 162.273 959.79C162.273 958.338 161.883 957.204 161.103 956.388C160.323 955.572 159.201 955.164 157.737 955.164H155.703V964.326H157.737Z" fill="white"/>
<path d="M168.465 955.146V958.818H172.785V960.492H168.465V964.326H173.325V966H166.413V953.472H173.325V955.146H168.465Z" fill="white"/>
<path d="M186.13 966H184.078L177.904 956.658V966H175.852V953.472H177.904L184.078 962.796V953.472H186.13V966Z" fill="white"/>
<path d="M190.877 955.146V958.818H195.197V960.492H190.877V964.326H195.737V966H188.825V953.472H195.737V955.146H190.877Z" fill="white"/>
<path d="M207.318 957.09C206.994 956.466 206.544 955.998 205.968 955.686C205.392 955.362 204.726 955.2 203.97 955.2C203.142 955.2 202.404 955.386 201.756 955.758C201.108 956.13 200.598 956.658 200.226 957.342C199.866 958.026 199.686 958.818 199.686 959.718C199.686 960.618 199.866 961.416 200.226 962.112C200.598 962.796 201.108 963.324 201.756 963.696C202.404 964.068 203.142 964.254 203.97 964.254C205.086 964.254 205.992 963.942 206.688 963.318C207.384 962.694 207.81 961.848 207.966 960.78H203.268V959.142H210.162V960.744C210.03 961.716 209.682 962.61 209.118 963.426C208.566 964.242 207.84 964.896 206.94 965.388C206.052 965.868 205.062 966.108 203.97 966.108C202.794 966.108 201.72 965.838 200.748 965.298C199.776 964.746 199.002 963.984 198.426 963.012C197.862 962.04 197.58 960.942 197.58 959.718C197.58 958.494 197.862 957.396 198.426 956.424C199.002 955.452 199.776 954.696 200.748 954.156C201.732 953.604 202.806 953.328 203.97 953.328C205.302 953.328 206.484 953.658 207.516 954.318C208.56 954.966 209.316 955.89 209.784 957.09H207.318Z" fill="white"/>
<path d="M219.728 963.444H214.49L213.59 966H211.448L215.93 953.472H218.306L222.788 966H220.628L219.728 963.444ZM219.152 961.77L217.118 955.956L215.066 961.77H219.152Z" fill="white"/>
<path d="M228.823 953.49C230.155 953.49 231.319 953.748 232.315 954.264C233.323 954.768 234.097 955.5 234.637 956.46C235.189 957.408 235.465 958.518 235.465 959.79C235.465 961.062 235.189 962.166 234.637 963.102C234.097 964.038 233.323 964.758 232.315 965.262C231.319 965.754 230.155 966 228.823 966H224.737V953.49H228.823ZM228.823 964.326C230.287 964.326 231.409 963.93 232.189 963.138C232.969 962.346 233.359 961.23 233.359 959.79C233.359 958.338 232.969 957.204 232.189 956.388C231.409 955.572 230.287 955.164 228.823 955.164H226.789V964.326H228.823Z" fill="white"/>
<path d="M245.041 963.444H239.803L238.903 966H236.761L241.243 953.472H243.619L248.101 966H245.941L245.041 963.444ZM244.465 961.77L242.431 955.956L240.379 961.77H244.465Z" fill="white"/>
<path d="M159.919 1259.44H154.681L153.781 1262H151.639L156.121 1249.47H158.497L162.979 1262H160.819L159.919 1259.44ZM159.343 1257.77L157.309 1251.96L155.257 1257.77H159.343Z" fill="white"/>
<path d="M173.676 1253.22C173.676 1253.85 173.526 1254.45 173.226 1255.02C172.926 1255.58 172.446 1256.04 171.786 1256.4C171.126 1256.75 170.28 1256.92 169.248 1256.92H166.98V1262H164.928V1249.49H169.248C170.208 1249.49 171.018 1249.66 171.678 1249.99C172.35 1250.32 172.848 1250.76 173.172 1251.33C173.508 1251.89 173.676 1252.52 173.676 1253.22ZM169.248 1255.25C170.028 1255.25 170.61 1255.08 170.994 1254.73C171.378 1254.37 171.57 1253.86 171.57 1253.22C171.57 1251.85 170.796 1251.16 169.248 1251.16H166.98V1255.25H169.248Z" fill="white"/>
<path d="M182.131 1262L179.251 1257H177.685V1262H175.633V1249.49H179.953C180.913 1249.49 181.723 1249.66 182.383 1249.99C183.055 1250.33 183.553 1250.78 183.877 1251.34C184.213 1251.91 184.381 1252.54 184.381 1253.23C184.381 1254.05 184.141 1254.79 183.661 1255.47C183.193 1256.13 182.467 1256.58 181.483 1256.82L184.579 1262H182.131ZM177.685 1255.36H179.953C180.721 1255.36 181.297 1255.17 181.681 1254.78C182.077 1254.4 182.275 1253.88 182.275 1253.23C182.275 1252.59 182.083 1252.08 181.699 1251.72C181.315 1251.35 180.733 1251.16 179.953 1251.16H177.685V1255.36Z" fill="white"/>
<path d="M192.712 1262.13C191.548 1262.13 190.474 1261.86 189.49 1261.32C188.518 1260.76 187.744 1260 187.168 1259.03C186.604 1258.05 186.322 1256.94 186.322 1255.72C186.322 1254.49 186.604 1253.4 187.168 1252.42C187.744 1251.45 188.518 1250.7 189.49 1250.16C190.474 1249.6 191.548 1249.33 192.712 1249.33C193.888 1249.33 194.962 1249.6 195.934 1250.16C196.918 1250.7 197.692 1251.45 198.256 1252.42C198.82 1253.4 199.102 1254.49 199.102 1255.72C199.102 1256.94 198.82 1258.05 198.256 1259.03C197.692 1260 196.918 1260.76 195.934 1261.32C194.962 1261.86 193.888 1262.13 192.712 1262.13ZM192.712 1260.34C193.54 1260.34 194.278 1260.16 194.926 1259.79C195.574 1259.4 196.078 1258.86 196.438 1258.17C196.81 1257.46 196.996 1256.64 196.996 1255.72C196.996 1254.79 196.81 1253.98 196.438 1253.29C196.078 1252.59 195.574 1252.06 194.926 1251.69C194.278 1251.31 193.54 1251.13 192.712 1251.13C191.884 1251.13 191.146 1251.31 190.498 1251.69C189.85 1252.06 189.34 1252.59 188.968 1253.29C188.608 1253.98 188.428 1254.79 188.428 1255.72C188.428 1256.64 188.608 1257.46 188.968 1258.17C189.34 1258.86 189.85 1259.4 190.498 1259.79C191.146 1260.16 191.884 1260.34 192.712 1260.34Z" fill="white"/>
<path d="M207.818 1255.57C208.49 1255.69 209.06 1256.05 209.528 1256.64C209.996 1257.22 210.23 1257.89 210.23 1258.63C210.23 1259.27 210.062 1259.85 209.726 1260.36C209.402 1260.87 208.928 1261.27 208.304 1261.57C207.68 1261.86 206.954 1262 206.126 1262H201.122V1249.49H205.892C206.744 1249.49 207.476 1249.63 208.088 1249.92C208.7 1250.21 209.162 1250.6 209.474 1251.09C209.786 1251.57 209.942 1252.11 209.942 1252.71C209.942 1253.43 209.75 1254.03 209.366 1254.51C208.982 1254.99 208.466 1255.35 207.818 1255.57ZM203.174 1254.75H205.712C206.384 1254.75 206.906 1254.6 207.278 1254.3C207.662 1253.98 207.854 1253.54 207.854 1252.96C207.854 1252.4 207.662 1251.96 207.278 1251.65C206.906 1251.33 206.384 1251.16 205.712 1251.16H203.174V1254.75ZM205.946 1260.33C206.642 1260.33 207.188 1260.16 207.584 1259.82C207.98 1259.49 208.178 1259.02 208.178 1258.42C208.178 1257.81 207.968 1257.32 207.548 1256.96C207.128 1256.6 206.57 1256.42 205.874 1256.42H203.174V1260.33H205.946Z" fill="white"/>
<path d="M220.001 1259.44H214.763L213.863 1262H211.721L216.203 1249.47H218.579L223.061 1262H220.901L220.001 1259.44ZM219.425 1257.77L217.391 1251.96L215.339 1257.77H219.425Z" fill="white"/>
<path d="M229.096 1249.49C230.428 1249.49 231.592 1249.75 232.588 1250.26C233.596 1250.77 234.37 1251.5 234.91 1252.46C235.462 1253.41 235.738 1254.52 235.738 1255.79C235.738 1257.06 235.462 1258.17 234.91 1259.1C234.37 1260.04 233.596 1260.76 232.588 1261.26C231.592 1261.75 230.428 1262 229.096 1262H225.01V1249.49H229.096ZM229.096 1260.33C230.56 1260.33 231.682 1259.93 232.462 1259.14C233.242 1258.35 233.632 1257.23 233.632 1255.79C233.632 1254.34 233.242 1253.2 232.462 1252.39C231.682 1251.57 230.56 1251.16 229.096 1251.16H227.062V1260.33H229.096Z" fill="white"/>
<path d="M245.314 1259.44H240.076L239.176 1262H237.034L241.516 1249.47H243.892L248.374 1262H246.214L245.314 1259.44ZM244.738 1257.77L242.704 1251.96L240.652 1257.77H244.738Z" fill="white"/>
<path d="M186.218 1039.62V1041.35H176.588V1039.62H186.218Z" fill="white"/>
<path d="M199.498 1047.13C198.334 1047.13 197.26 1046.86 196.276 1046.32C195.304 1045.76 194.53 1045 193.954 1044.03C193.39 1043.05 193.108 1041.94 193.108 1040.72C193.108 1039.49 193.39 1038.4 193.954 1037.42C194.53 1036.45 195.304 1035.7 196.276 1035.16C197.26 1034.6 198.334 1034.33 199.498 1034.33C200.674 1034.33 201.748 1034.6 202.72 1035.16C203.704 1035.7 204.478 1036.45 205.042 1037.42C205.606 1038.4 205.888 1039.49 205.888 1040.72C205.888 1041.94 205.606 1043.05 205.042 1044.03C204.478 1045 203.704 1045.76 202.72 1046.32C201.748 1046.86 200.674 1047.13 199.498 1047.13ZM199.498 1045.34C200.326 1045.34 201.064 1045.16 201.712 1044.79C202.36 1044.4 202.864 1043.86 203.224 1043.17C203.596 1042.46 203.782 1041.64 203.782 1040.72C203.782 1039.79 203.596 1038.98 203.224 1038.29C202.864 1037.59 202.36 1037.06 201.712 1036.69C201.064 1036.31 200.326 1036.13 199.498 1036.13C198.67 1036.13 197.932 1036.31 197.284 1036.69C196.636 1037.06 196.126 1037.59 195.754 1038.29C195.394 1038.98 195.214 1039.79 195.214 1040.72C195.214 1041.64 195.394 1042.46 195.754 1043.17C196.126 1043.86 196.636 1044.4 197.284 1044.79C197.932 1045.16 198.67 1045.34 199.498 1045.34Z" fill="white"/>
<path d="M222.429 1039.62V1041.35H212.799V1039.62H222.429Z" fill="white"/>
</svg>
