<?xml version="1.0" encoding="utf-8"?>
<!-- Generator: Adobe Illustrator 22.0.1, SVG Export Plug-In . SVG Version: 6.00 Build 0)  -->
<svg version="1.1" id="Layer_1" xmlns="http://www.w3.org/2000/svg" xmlns:xlink="http://www.w3.org/1999/xlink" x="0px" y="0px"
	 viewBox="0 0 400 1367" style="enable-background:new 0 0 400 1367;" xml:space="preserve">
<style type="text/css">
	.st0{fill:#1D1E26;}
	.st1{fill:#7000FF;}
	.st2{fill-opacity:0;stroke:#7000FF;stroke-width:2;}
	.st3{fill-opacity:0;stroke:#FFFFFF;stroke-width:2;stroke-linecap:round;stroke-linejoin:round;}
	.st4{fill-opacity:0;stroke:#FFFFFF;stroke-width:2;}
	.st5{fill-opacity:0;stroke:#FFFFFF;stroke-width:2;stroke-linecap:square;}
	.st6{fill:#252633;}
	.st7{fill:#F2F2F2;}
	.st8{font-family:'EzzoBlack';}
	.st9{font-size:18px;}
	.st10{font-size:25px;}
	.st11{filter:url(#Adobe_OpacityMaskFilter);}
	.st12{fill:#FFFFFF;}
	.st13{mask:url(#mask-31_2_);}
	.st14{fill-opacity:0;stroke:#FFFFFF;stroke-width:1.5;stroke-linecap:round;stroke-linejoin:round;}
</style>
<g>
	<g>
		<path class="st0" d="M5,0h390c2.8,0,5,2.2,5,5v1357c0,2.8-2.2,5-5,5H5c-2.8,0-5-2.2-5-5V5C0,2.2,2.2,0,5,0z"/>
	</g>
	<g>
		<path class="st6" d="M41,429h318c2.8,0,5,2.2,5,5v895c0,2.8-2.2,5-5,5H41c-2.8,0-5-2.2-5-5V434C36,431.2,38.2,429,41,429z"/>
	</g>
	<g transform="translate(160, 1120)">
		<g>
			<ellipse class="st4" cx="40" cy="39.7" rx="40" ry="39.7"/>
		</g>
		<g>
			<path class="st4" d="M25.6,38.2l11,14.5l16.3-27.3"/>
		</g>
	</g>
	<g>
		<g>
			<path id="path-5" class="st0" d="M259,111.6l-11.7-11.7l6-6c1-1,2.5-1,3.5,0l8.2,8.2c1,1,1,2.5,0,3.5L259,111.6L259,111.6z"/>
		</g>
		<g>
			<path id="path-5_1_" class="st3" d="M259,111.6l-11.7-11.7l6-6c1-1,2.5-1,3.5,0l8.2,8.2c1,1,1,2.5,0,3.5L259,111.6L259,111.6z"/>
		</g>
	</g>
	<g>
		<path class="st3" d="M197.4,573.2c0,2.1,1.7,3.8,3.8,3.8h23.5l-27.3-27V573.2L197.4,573.2z"/>
	</g>
	<g>
		<path class="st3" d="M197.4,550h-54c-2.1,0-4,1.7-4,3.8v101c0,2.4,1.9,4,4,4h77.3c2.1,0,3.8-1.7,3.8-3.8v-77.8L197.4,550
			L197.4,550z"/>
	</g>
	<g>
		<path class="st3" d="M150.5,590.9h59.5"/>
	</g>
	<g>
		<path class="st3" d="M150.5,603.9h59.5"/>
	</g>
	<g>
		<path class="st3" d="M150.5,616.9h59.5"/>
	</g>
	<g>
		<path class="st3" d="M150.5,630.2h59.5"/>
	</g>
	<g>
		<path class="st3" d="M150.5,643.2H184"/>
	</g>
	<g>
		<path class="st3" d="M212.1,78.4c0,2.1,1.7,3.8,3.8,3.8h23.5l-27.3-27V78.4L212.1,78.4z"/>
	</g>
	<g>
		<path class="st3" d="M212.1,55.2h-54c-2.1,0-4,1.7-4,3.8v101c0,2.4,1.9,4,4,4h77.3c2.1,0,3.8-1.7,3.8-3.8V82.4L212.1,55.2
			L212.1,55.2z"/>
	</g>
	<g>
		<path class="st3" d="M165.2,96.1h59.5"/>
	</g>
	<g>
		<path class="st3" d="M165.2,109.1h59.5"/>
	</g>
	<g>
		<path class="st3" d="M165.2,122.1h59.5"/>
	</g>
	<g>
		<path class="st3" d="M165.2,135.4h59.5"/>
	</g>
	<g>
		<path class="st3" d="M165.2,148.4h33.5"/>
	</g>
	<g>
		<g>
			<path id="path-20" class="st0" d="M222.7,147.8l-13.9,2.4l2.4-14l36.3-36.2l11.5,11.7L222.7,147.8z"/>
		</g>
		<g>
			<path id="path-20_1_" class="st3" d="M222.7,147.8l-13.9,2.4l2.4-14l36.3-36.2l11.5,11.7L222.7,147.8z"/>
		</g>
	</g>
	<g>
		<path class="st3" d="M211.2,136.2l11.5,11.7"/>
	</g>
	<g transform="translate(160.00000999999975, 822)">
		<g>
			<ellipse class="st4" cx="40" cy="40.4" rx="40" ry="40.4"/>
		</g>
		<g>
			<path class="st5" d="M50.7,51.7L29,29.2"/>
		</g>
		<g>
			<path class="st5" d="M50.5,29.3L28.7,51.8"/>
		</g>
	</g>
	<g>
		<path class="st1" d="M132.2,196.7h135.5c2.8,0,5,2.1,5,4.6v51.1c0,2.5-2.2,4.6-5,4.6H132.2c-2.8,0-5-2.1-5-4.6v-51.1
			C127.2,198.7,129.5,196.7,132.2,196.7z"/>
	</g>
	<g>
		<text transform="matrix(1 0 0 1 177.528 224.0001)" class="st7 st8 st9">FILES</text>
		<text transform="matrix(1 0 0 1 160.5 240.0001)" class="st7 st8 st9">REQUEST</text>
	</g>
	<g>
		<path class="st3" d="M237.3,637l23.4,23.2"/>
	</g>
	
		<g transform="translate(222.41993190259188, 622.0759009462163) rotate(-45.00001609038752) translate(-222.41993190259188, -622.0759009462163)">
		<g>
			
				<ellipse id="ellipse-28" transform="matrix(-1 2.535182e-06 -2.535182e-06 -1 444.8416 1244.1508)" class="st6" cx="222.4" cy="622.1" rx="20.9" ry="21"/>
		</g>
		<g>
			
				<ellipse id="ellipse-28_1_" transform="matrix(-1 2.535182e-06 -2.535182e-06 -1 444.8416 1244.1508)" class="st3" cx="222.4" cy="622.1" rx="20.9" ry="21"/>
		</g>
	</g>
	<g transform="translate(197, 385) rotate(90.00003218077504) translate(-197, -385)">
		<path class="st1" d="M192,393v-16l10,8L192,393z"/>
	</g>
	
		<g transform="translate(196.25000000000003, 353.99999999996976) rotate(180.00006436155007) translate(-196.25000000000003, -353.99999999996976)">
		<path class="st2" d="M196.2,328.2V401"/>
	</g>
	<g transform="translate(200.00000999999975, 792) rotate(90.00003218077504) translate(-200.00000999999975, -792)">
		<path class="st1" d="M195,800l0-16l10,8L195,800z"/>
	</g>
	
		<g transform="translate(200.00000999999978, 761.5949999999691) rotate(180.00006436155007) translate(-200.00000999999978, -761.5949999999691)">
		<path class="st2" d="M200,735.8v51.7"/>
	</g>
	<g>
		<path class="st0" d="M61.3,445h277.5c2.8,0,5,2.2,5,5v38c0,2.8-2.2,5-5,5H61.3c-2.8,0-5-2.2-5-5v-38C56.3,447.2,58.5,445,61.3,445
			z"/>
	</g>
	<g>
		<text transform="matrix(1 0 0 1 159 474)" class="st7 st8 st9">STATUSES</text>
	</g>
	<g>
		<text transform="matrix(1 0 0 1 136 705)" class="st7 st8 st9">UNDER REVIEW</text>
	</g>
	<g>
		<text transform="matrix(1 0 0 1 157.5 957)" class="st7 st8 st9">REJECTED</text>
	</g>
	<g>
		<text transform="matrix(1 0 0 1 153.5 1255)" class="st7 st8 st9">APPROVED</text>
	</g>
	<g>
		<text transform="matrix(1 0 0 1 159.5 1039.5)" class="st7 st8 st10">- OR -</text>
	</g>
</g>
</svg>
