<?xml version="1.0" encoding="utf-8"?>
<!-- Generator: Adobe Illustrator 22.0.1, SVG Export Plug-In . SVG Version: 6.00 Build 0)  -->
<svg version="1.1" id="Layer_1" xmlns="http://www.w3.org/2000/svg" xmlns:xlink="http://www.w3.org/1999/xlink" x="0px" y="0px"
	 viewBox="0 0 400 1367" style="enable-background:new 0 0 400 1367;" xml:space="preserve">
<style type="text/css">
	.st0{fill:#1D1E26;}
	.st1{fill:#252633;}
	.st2{fill-opacity:0;stroke:#FFFFFF;stroke-width:2;}
	.st3{fill-opacity:0;stroke:#FFFFFF;stroke-width:2;stroke-linecap:round;stroke-linejoin:round;}
	.st4{fill-opacity:0;stroke:#FFFFFF;stroke-width:2;stroke-linecap:square;}
	.st5{fill:#7000FF;}
	.st6{enable-background:new    ;}
	.st7{fill:#F2F2F2;}
	.st8{fill-opacity:0;stroke:#7000FF;stroke-width:2;}
</style>
<g>
	<g>
		<path class="st0" d="M5,0h390c2.8,0,5,2.2,5,5v1357c0,2.8-2.2,5-5,5H5c-2.8,0-5-2.2-5-5V5C0,2.2,2.2,0,5,0z"/>
	</g>
	<g>
		<path class="st1" d="M41,429h318c2.8,0,5,2.2,5,5v895c0,2.8-2.2,5-5,5H41c-2.8,0-5-2.2-5-5V434C36,431.2,38.2,429,41,429z"/>
	</g>
	<g transform="translate(160, 1120)">
		<g>
			<ellipse class="st2" cx="40" cy="39.7" rx="40" ry="39.7"/>
		</g>
		<g>
			<path class="st2" d="M25.6,38.2l11,14.5l16.3-27.3"/>
		</g>
	</g>
	<g>
		<g>
			<path id="path-5" class="st0" d="M259,111.6l-11.7-11.7l6-6c1-1,2.5-1,3.5,0l8.2,8.2c1,1,1,2.5,0,3.5L259,111.6L259,111.6z"/>
		</g>
		<g>
			<path id="path-5_1_" class="st3" d="M259,111.6l-11.7-11.7l6-6c1-1,2.5-1,3.5,0l8.2,8.2c1,1,1,2.5,0,3.5L259,111.6L259,111.6z"/>
		</g>
	</g>
	<g>
		<path class="st3" d="M197.4,573.2c0,2.1,1.7,3.8,3.8,3.8h23.5l-27.3-27V573.2L197.4,573.2z"/>
	</g>
	<g>
		<path class="st3" d="M197.4,550h-54c-2.1,0-4,1.7-4,3.8v101c0,2.4,1.9,4,4,4h77.3c2.1,0,3.8-1.7,3.8-3.8v-77.8L197.4,550
			L197.4,550z"/>
	</g>
	<g>
		<path class="st3" d="M150.5,590.9H210"/>
	</g>
	<g>
		<path class="st3" d="M150.5,603.9H210"/>
	</g>
	<g>
		<path class="st3" d="M150.5,616.9H210"/>
	</g>
	<g>
		<path class="st3" d="M150.5,630.2H210"/>
	</g>
	<g>
		<path class="st3" d="M150.5,643.2H184"/>
	</g>
	<g>
		<path class="st3" d="M212.1,78.4c0,2.1,1.7,3.8,3.8,3.8h23.5l-27.3-27V78.4L212.1,78.4z"/>
	</g>
	<g>
		<path class="st3" d="M212.1,55.2h-54c-2.1,0-4,1.7-4,3.8v101c0,2.4,1.9,4,4,4h77.3c2.1,0,3.8-1.7,3.8-3.8V82.4L212.1,55.2
			L212.1,55.2z"/>
	</g>
	<g>
		<path class="st3" d="M165.2,96.1h59.5"/>
	</g>
	<g>
		<path class="st3" d="M165.2,109.1h59.5"/>
	</g>
	<g>
		<path class="st3" d="M165.2,122.1h59.5"/>
	</g>
	<g>
		<path class="st3" d="M165.2,135.4h59.5"/>
	</g>
	<g>
		<path class="st3" d="M165.2,148.4h33.5"/>
	</g>
	<g>
		<g>
			<path id="path-20" class="st0" d="M222.7,147.8l-13.9,2.4l2.4-14l36.3-36.2l11.5,11.7L222.7,147.8z"/>
		</g>
		<g>
			<path id="path-20_1_" class="st3" d="M222.7,147.8l-13.9,2.4l2.4-14l36.3-36.2l11.5,11.7L222.7,147.8z"/>
		</g>
	</g>
	<g>
		<path class="st3" d="M211.2,136.2l11.5,11.7"/>
	</g>
	<g transform="translate(160.00000999999975, 822)">
		<g>
			<ellipse class="st2" cx="40" cy="40.4" rx="40" ry="40.4"/>
		</g>
		<g>
			<path class="st4" d="M50.7,51.7L29,29.2"/>
		</g>
		<g>
			<path class="st4" d="M50.5,29.3L28.7,51.8"/>
		</g>
	</g>
	<g>
		<path class="st5" d="M132.2,196.7h135.5c2.8,0,5,2.1,5,4.6v51.1c0,2.5-2.2,4.6-5,4.6H132.2c-2.8,0-5-2.1-5-4.6v-51.1
			C127.2,198.7,129.5,196.7,132.2,196.7z"/>
	</g>
	<g>
		<g class="st6">
			<path class="st7" d="M181,216.9h5.3v2.2H181v5h-2.6v-12.1h8.7v2.2H181V216.9z"/>
			<path class="st7" d="M190.8,224h-2.6v-12.1h2.6V224z"/>
			<path class="st7" d="M195.3,221.8h6.2v2.2h-8.8v-12.1h2.6V221.8z"/>
			<path class="st7" d="M205.5,216.7h5.3v2.2h-5.3v3h6.2v2.2h-8.8v-12.1h8.7v2.2h-6.1V216.7z"/>
			<path class="st7" d="M216.9,219c-2.1-0.6-3.9-1.4-3.9-3.8c0-2.6,2.2-3.4,4.4-3.4c1.9,0,3.2,0.3,4.3,0.8l-0.5,2.2
				c-1.5-0.6-2.7-0.9-4.1-0.9c-0.7,0-1.4,0.2-1.4,1c0,0.7,0.4,1.1,2.1,1.6c3.1,1,4.1,2.2,4.1,4c0,3.1-2.7,3.8-4.6,3.8
				c-1.9,0-3.4-0.5-4.5-1l0.3-2.1c1.5,0.6,2.9,1,4.2,1c1.6,0,1.8-0.7,1.8-1.4C219.1,219.9,218.8,219.5,216.9,219z"/>
		</g>
		<g class="st6">
			<path class="st7" d="M171.7,240h-3.1l-3-4.7H164v4.7h-2.6v-12.1h5.9c2.7,0,4,1.6,4,3.7c0,1.8-1,3.2-2.9,3.6L171.7,240z
				 M164,230.1v3.1h2.7c1,0,1.9-0.2,1.9-1.5c0-1.4-1-1.5-1.9-1.5H164z"/>
			<path class="st7" d="M175.5,232.7h5.3v2.2h-5.3v3h6.2v2.2h-8.8v-12.1h8.7v2.2h-6.1V232.7z"/>
			<path class="st7" d="M189.4,227.8c4.5,0,6.6,2.8,6.6,6.2c0,2.6-1.2,4.9-3.8,5.8l3.2,3l-1.9,1.9l-4.4-4.5
				c-4.3-0.1-6.2-2.9-6.2-6.2C182.8,230.6,184.9,227.8,189.4,227.8z M189.4,238.1c2.3,0,4-1.5,4-4.1c0-2.6-1.6-4.1-4-4.1
				c-2.3,0-4,1.5-4,4.1C185.4,236.7,187.1,238.1,189.4,238.1z"/>
			<path class="st7" d="M207.5,235.9c0,2.6-1.4,4.3-5,4.3c-3.6,0-5-1.7-5-4.3v-7.9h2.6v7.9c0,1.9,1.5,2.3,2.4,2.3s2.4-0.3,2.4-2.3
				v-7.9h2.6V235.9z"/>
			<path class="st7" d="M211.9,232.7h5.3v2.2h-5.3v3h6.2v2.2h-8.8v-12.1h8.7v2.2h-6.1V232.7z"/>
			<path class="st7" d="M223.3,235c-2.1-0.6-3.9-1.4-3.9-3.8c0-2.6,2.2-3.4,4.4-3.4c1.9,0,3.2,0.3,4.3,0.8l-0.5,2.2
				c-1.5-0.6-2.7-0.9-4.1-0.9c-0.7,0-1.4,0.2-1.4,1c0,0.7,0.4,1.1,2.1,1.6c3.1,1,4.1,2.2,4.1,4c0,3.1-2.7,3.8-4.6,3.8
				c-1.9,0-3.4-0.5-4.5-1l0.3-2.1c1.5,0.6,2.9,1,4.2,1c1.6,0,1.8-0.7,1.8-1.4C225.5,235.9,225.1,235.5,223.3,235z"/>
			<path class="st7" d="M235.3,240h-2.6v-9.9H229v-2.2h10v2.2h-3.7V240z"/>
		</g>
	</g>
	<g>
		<path class="st3" d="M237.3,637l23.4,23.2"/>
	</g>
	
		<g transform="translate(222.41993190259188, 622.0759009462163) rotate(-45.00001609038752) translate(-222.41993190259188, -622.0759009462163)">
		<g>
			
				<ellipse id="ellipse-28" transform="matrix(-1 2.535182e-06 -2.535182e-06 -1 444.8818 1244.1016)" class="st1" cx="222.4" cy="622.1" rx="20.9" ry="21"/>
		</g>
		<g>
			
				<ellipse id="ellipse-28_1_" transform="matrix(-1 2.535182e-06 -2.535182e-06 -1 444.8818 1244.1016)" class="st3" cx="222.4" cy="622.1" rx="20.9" ry="21"/>
		</g>
	</g>
	<g transform="translate(197, 385) rotate(90.00003218077504) translate(-197, -385)">
		<path class="st5" d="M192,393v-16l10,8L192,393z"/>
	</g>
	
		<g transform="translate(196.25000000000003, 353.99999999996976) rotate(180.00006436155007) translate(-196.25000000000003, -353.99999999996976)">
		<path class="st8" d="M196.2,328.2V401"/>
	</g>
	<g transform="translate(200.00000999999975, 792) rotate(90.00003218077504) translate(-200.00000999999975, -792)">
		<path class="st5" d="M195,800l0-16l10,8L195,800z"/>
	</g>
	
		<g transform="translate(200.00000999999978, 761.5949999999691) rotate(180.00006436155007) translate(-200.00000999999978, -761.5949999999691)">
		<path class="st8" d="M200,735.8v51.7"/>
	</g>
	<g>
		<path class="st0" d="M61.3,445h277.5c2.8,0,5,2.2,5,5v38c0,2.8-2.2,5-5,5H61.3c-2.8,0-5-2.2-5-5v-38C56.3,447.2,58.5,445,61.3,445
			z"/>
	</g>
	<g>
		<g class="st6">
			<path class="st7" d="M163.7,469c-2.1-0.6-3.9-1.4-3.9-3.8c0-2.6,2.2-3.4,4.4-3.4c1.9,0,3.2,0.3,4.3,0.8l-0.5,2.2
				c-1.5-0.6-2.7-0.9-4.1-0.9c-0.7,0-1.4,0.2-1.4,1c0,0.7,0.4,1.1,2.1,1.6c3.1,1,4.1,2.2,4.1,4c0,3.1-2.7,3.8-4.6,3.8
				c-1.9,0-3.4-0.5-4.5-1l0.3-2.1c1.5,0.6,2.9,1,4.2,1c1.6,0,1.8-0.7,1.8-1.4C165.8,469.9,165.5,469.5,163.7,469z"/>
			<path class="st7" d="M175.7,474h-2.6v-9.9h-3.7v-2.2h10v2.2h-3.7V474z"/>
			<path class="st7" d="M182.2,461.8h3l4.5,12.2h-2.9l-0.9-2.8h-4.4l-1,2.8h-2.9L182.2,461.8z M182.2,469h2.9l-1.4-4.1L182.2,469z"
				/>
			<path class="st7" d="M194.2,474h-2.6v-9.9h-3.7v-2.2h10v2.2h-3.7V474z"/>
			<path class="st7" d="M209.1,469.9c0,2.6-1.4,4.3-5,4.3c-3.6,0-5-1.7-5-4.3v-7.9h2.6v7.9c0,1.9,1.5,2.3,2.4,2.3
				c0.9,0,2.4-0.3,2.4-2.3v-7.9h2.6V469.9z"/>
			<path class="st7" d="M214.6,469c-2.1-0.6-3.9-1.4-3.9-3.8c0-2.6,2.2-3.4,4.4-3.4c1.9,0,3.2,0.3,4.3,0.8l-0.5,2.2
				c-1.5-0.6-2.7-0.9-4.1-0.9c-0.7,0-1.4,0.2-1.4,1c0,0.7,0.4,1.1,2.1,1.6c3.1,1,4.1,2.2,4.1,4c0,3.1-2.7,3.8-4.6,3.8
				c-1.9,0-3.4-0.5-4.5-1l0.3-2.1c1.5,0.6,2.9,1,4.2,1c1.6,0,1.8-0.7,1.8-1.4C216.8,469.9,216.4,469.5,214.6,469z"/>
			<path class="st7" d="M223.6,466.7h5.3v2.2h-5.3v3h6.2v2.2H221v-12.1h8.7v2.2h-6.1V466.7z"/>
			<path class="st7" d="M235.1,469c-2.1-0.6-3.9-1.4-3.9-3.8c0-2.6,2.2-3.4,4.4-3.4c1.9,0,3.2,0.3,4.3,0.8l-0.5,2.2
				c-1.5-0.6-2.7-0.9-4.1-0.9c-0.7,0-1.4,0.2-1.4,1c0,0.7,0.4,1.1,2.1,1.6c3.1,1,4.1,2.2,4.1,4c0,3.1-2.7,3.8-4.6,3.8
				c-1.9,0-3.4-0.5-4.5-1l0.3-2.1c1.5,0.6,2.9,1,4.2,1c1.6,0,1.8-0.7,1.8-1.4C237.2,469.9,236.9,469.5,235.1,469z"/>
		</g>
	</g>
	<g>
		<g class="st6">
			<path class="st7" d="M147,700.9c0,2.6-1.4,4.3-5,4.3s-5-1.7-5-4.3v-7.9h2.6v7.9c0,1.9,1.5,2.3,2.4,2.3c0.9,0,2.4-0.3,2.4-2.3
				v-7.9h2.6V700.9z"/>
			<path class="st7" d="M151.4,697.2v7.8h-2.6v-12.1h3.2l4.7,8v-8h2.6V705h-3.2L151.4,697.2z"/>
			<path class="st7" d="M161,705v-12.1h4.2c4.5,0,6.8,2.7,6.8,6c0,3.4-2.3,6-6.8,6H161z M165.3,702.8c2.3,0,4.1-1.2,4.1-3.9
				c0-2.6-1.8-3.9-4.1-3.9h-1.6v7.7H165.3z"/>
			<path class="st7" d="M176.1,697.7h5.3v2.2h-5.3v3h6.2v2.2h-8.8v-12.1h8.7v2.2h-6.1V697.7z"/>
			<path class="st7" d="M194,705h-3.1l-3-4.7h-1.6v4.7h-2.6v-12.1h5.9c2.7,0,4,1.6,4,3.7c0,1.8-1,3.2-2.9,3.6L194,705z M186.3,695.1
				v3.1h2.7c1,0,1.9-0.2,1.9-1.5c0-1.4-1-1.5-1.9-1.5H186.3z"/>
			<path class="st7" d="M210,705h-3.1l-3-4.7h-1.6v4.7h-2.6v-12.1h5.9c2.7,0,4,1.6,4,3.7c0,1.8-1,3.2-2.9,3.6L210,705z M202.3,695.1
				v3.1h2.7c1,0,1.9-0.2,1.9-1.5c0-1.4-1-1.5-1.9-1.5H202.3z"/>
			<path class="st7" d="M213.9,697.7h5.3v2.2h-5.3v3h6.2v2.2h-8.8v-12.1h8.7v2.2h-6.1V697.7z"/>
			<path class="st7" d="M220.2,692.9h2.9l3.2,9.1l3.1-9.1h2.9l-4.6,12.1h-2.8L220.2,692.9z"/>
			<path class="st7" d="M235.5,705h-2.6v-12.1h2.6V705z"/>
			<path class="st7" d="M239.9,697.7h5.3v2.2h-5.3v3h6.2v2.2h-8.8v-12.1h8.7v2.2h-6.1V697.7z"/>
			<path class="st7" d="M260.2,705h-3l-2.2-7.1l-2.2,7.1h-3l-3.6-12.1h2.9l2.3,9.1l2.4-9.2h2.5l2.3,9.2l2.3-9.1h2.9L260.2,705z"/>
		</g>
	</g>
	<g>
		<g class="st6">
			<path class="st7" d="M168.7,957h-3.1l-3-4.7H161v4.7h-2.6v-12.1h5.9c2.7,0,4,1.6,4,3.7c0,1.8-1,3.2-2.9,3.6L168.7,957z
				 M161,947.1v3.1h2.7c1,0,1.9-0.2,1.9-1.5c0-1.4-1-1.5-1.9-1.5H161z"/>
			<path class="st7" d="M172.5,949.7h5.3v2.2h-5.3v3h6.2v2.2h-8.8v-12.1h8.7v2.2h-6.1V949.7z"/>
			<path class="st7" d="M185.5,953.6c0,2.3-0.3,3.6-3.5,3.6c-1.1,0-2.1-0.3-2.7-0.5l0.5-2c0.5,0.1,1.4,0.4,1.8,0.4
				c1,0,1.3-0.3,1.3-1.5v-8.6h2.6V953.6z"/>
			<path class="st7" d="M189.9,949.7h5.3v2.2h-5.3v3h6.2v2.2h-8.8v-12.1h8.7v2.2h-6.1V949.7z"/>
			<path class="st7" d="M199.8,951c0,2.7,1.8,4.1,4.1,4.1c1.4,0,2.5-0.2,3.9-0.7l0.5,2.1c-1.1,0.4-2.6,0.7-4.3,0.7
				c-4.5,0-6.8-2.8-6.8-6.2c0-3.4,2.3-6.2,6.8-6.2c1.7,0,3.2,0.3,4.3,0.7l-0.4,2c-1.4-0.5-2.5-0.7-3.8-0.7
				C201.6,946.8,199.8,948.3,199.8,951z"/>
			<path class="st7" d="M215.1,957h-2.6v-9.9h-3.7v-2.2h10v2.2h-3.7V957z"/>
			<path class="st7" d="M222.5,949.7h5.3v2.2h-5.3v3h6.2v2.2h-8.8v-12.1h8.7v2.2h-6.1V949.7z"/>
			<path class="st7" d="M230.2,957v-12.1h4.2c4.5,0,6.8,2.7,6.8,6c0,3.4-2.2,6-6.8,6H230.2z M234.4,954.8c2.3,0,4.1-1.2,4.1-3.9
				c0-2.6-1.8-3.9-4.1-3.9h-1.6v7.7H234.4z"/>
		</g>
	</g>
	<g>
		<g class="st6">
			<path class="st7" d="M157.7,1242.8h3l4.5,12.2h-2.9l-0.9-2.8H157l-1,2.8h-2.9L157.7,1242.8z M157.8,1250h2.9l-1.4-4.1L157.8,1250
				z"/>
			<path class="st7" d="M168.4,1250.5v4.5h-2.6v-12.1h5.9c2.7,0,4,1.7,4,3.8c0,2.1-1.3,3.8-4,3.8H168.4z M168.4,1245.1v3.2h2.7
				c1,0,1.9-0.1,1.9-1.6c0-1.5-1-1.6-1.9-1.6H168.4z"/>
			<path class="st7" d="M179.5,1250.5v4.5h-2.6v-12.1h5.9c2.7,0,4,1.7,4,3.8c0,2.1-1.3,3.8-4,3.8H179.5z M179.5,1245.1v3.2h2.7
				c1,0,1.9-0.1,1.9-1.6c0-1.5-1-1.6-1.9-1.6H179.5z"/>
			<path class="st7" d="M198.3,1255h-3.1l-3-4.7h-1.6v4.7h-2.6v-12.1h5.9c2.7,0,4,1.6,4,3.7c0,1.8-1,3.2-2.9,3.6L198.3,1255z
				 M190.7,1245.1v3.1h2.7c1,0,1.9-0.2,1.9-1.5c0-1.4-1-1.5-1.9-1.5H190.7z"/>
			<path class="st7" d="M205.8,1242.8c4.5,0,6.6,2.8,6.6,6.2c0,3.4-2.1,6.2-6.6,6.2s-6.6-2.8-6.6-6.2
				C199.2,1245.6,201.3,1242.8,205.8,1242.8z M205.8,1253.1c2.3,0,4-1.5,4-4.1c0-2.6-1.6-4.1-4-4.1c-2.3,0-4,1.5-4,4.1
				C201.8,1251.7,203.5,1253.1,205.8,1253.1z"/>
			<path class="st7" d="M211.9,1242.9h2.9l3.2,9.1l3.1-9.1h2.9l-4.6,12.1h-2.8L211.9,1242.9z"/>
			<path class="st7" d="M227.1,1247.7h5.3v2.2h-5.3v3h6.2v2.2h-8.8v-12.1h8.7v2.2h-6.1V1247.7z"/>
			<path class="st7" d="M234.8,1255v-12.1h4.2c4.5,0,6.8,2.7,6.8,6c0,3.4-2.3,6-6.8,6H234.8z M239,1252.8c2.3,0,4.1-1.2,4.1-3.9
				c0-2.6-1.8-3.9-4.1-3.9h-1.6v7.7H239z"/>
		</g>
	</g>
	<g>
		<g class="st6">
			<path class="st7" d="M173.6,1031.9v2.8h-11.9v-2.8H173.6z"/>
			<path class="st7" d="M192,1022.5c6.2,0,9.1,3.9,9.1,8.6c0,4.7-2.9,8.6-9.1,8.6s-9.1-3.9-9.1-8.6
				C182.9,1026.5,185.7,1022.5,192,1022.5z M192,1036.9c3.2,0,5.5-2,5.5-5.7c0-3.7-2.3-5.7-5.5-5.7c-3.2,0-5.5,2.1-5.5,5.7
				C186.5,1034.9,188.7,1036.9,192,1036.9z"/>
			<path class="st7" d="M217.4,1039.5h-4.2l-4.2-6.5h-2.2v6.5h-3.6v-16.7h8.2c3.7,0,5.5,2.2,5.5,5.1c0,2.4-1.4,4.4-4,5L217.4,1039.5
				z M206.7,1025.8v4.2h3.8c1.3,0,2.7-0.2,2.7-2.1c0-1.9-1.4-2.1-2.7-2.1H206.7z"/>
			<path class="st7" d="M238.2,1031.9v2.8h-11.9v-2.8H238.2z"/>
		</g>
	</g>
</g>
</svg>
