<?xml version="1.0" encoding="utf-8"?>
<!-- Generator: Adobe Illustrator 22.0.1, SVG Export Plug-In . SVG Version: 6.00 Build 0)  -->
<svg version="1.1" id="Layer_1" xmlns="http://www.w3.org/2000/svg" xmlns:xlink="http://www.w3.org/1999/xlink" x="0px" y="0px"
	 viewBox="0 0 400 1295" style="enable-background:new 0 0 400 1295;" xml:space="preserve">
<style type="text/css">
	.st0{fill:#1D1E26;}
	.st1{enable-background:new    ;}
	.st2{fill:#F2F2F2;}
	.st3{fill:#7000FF;}
	.st4{fill-opacity:0;stroke:#7000FF;stroke-width:2;}
	.st5{fill-opacity:0;stroke:#FFFFFF;stroke-width:2;stroke-linecap:round;stroke-linejoin:round;}
	.st6{fill-opacity:0;stroke:#FFFFFF;stroke-width:2;}
	.st7{fill-opacity:0;stroke:#FFFFFF;stroke-width:2;stroke-linecap:square;}
</style>
<g>
	<g>
		<path class="st0" d="M5,0h390c2.8,0,5,2.2,5,5v1285c0,2.8-2.2,5-5,5H5c-2.8,0-5-2.2-5-5V5C0,2.2,2.2,0,5,0z"/>
	</g>
	<g>
		<g>
			<g class="st1">
				<path class="st2" d="M111.5,815.8h3L119,828h-2.9l-0.9-2.8h-4.4l-1,2.8H107L111.5,815.8z M111.6,823h2.9l-1.4-4.1L111.6,823z"/>
				<path class="st2" d="M122.2,823.5v4.5h-2.6v-12.1h5.9c2.7,0,4,1.7,4,3.8c0,2.1-1.3,3.8-4,3.8H122.2z M122.2,818.1v3.2h2.7
					c1,0,1.9-0.1,1.9-1.6c0-1.5-1-1.6-1.9-1.6H122.2z"/>
				<path class="st2" d="M133.3,823.5v4.5h-2.6v-12.1h5.9c2.7,0,4,1.7,4,3.8c0,2.1-1.3,3.8-4,3.8H133.3z M133.3,818.1v3.2h2.7
					c1,0,1.9-0.1,1.9-1.6c0-1.5-1-1.6-1.9-1.6H133.3z"/>
				<path class="st2" d="M152.1,828h-3.1l-3-4.7h-1.6v4.7h-2.6v-12.1h5.9c2.7,0,4,1.6,4,3.7c0,1.8-1,3.2-2.9,3.6L152.1,828z
					 M144.5,818.1v3.1h2.7c1,0,1.9-0.2,1.9-1.5c0-1.4-1-1.5-1.9-1.5H144.5z"/>
				<path class="st2" d="M159.6,815.8c4.5,0,6.6,2.8,6.6,6.2c0,3.4-2.1,6.2-6.6,6.2c-4.5,0-6.6-2.8-6.6-6.2
					C153,818.6,155.1,815.8,159.6,815.8z M159.6,826.1c2.3,0,4-1.5,4-4.1c0-2.6-1.6-4.1-4-4.1c-2.3,0-4,1.5-4,4.1
					C155.6,824.7,157.3,826.1,159.6,826.1z"/>
				<path class="st2" d="M165.7,815.9h2.9l3.2,9.1l3.1-9.1h2.9l-4.6,12.1h-2.8L165.7,815.9z"/>
				<path class="st2" d="M180.3,815.8h3l4.5,12.2h-2.9l-0.9-2.8h-4.4l-1,2.8h-2.9L180.3,815.8z M180.4,823h2.9l-1.4-4.1L180.4,823z"
					/>
				<path class="st2" d="M190.9,825.8h6.2v2.2h-8.8v-12.1h2.6V825.8z"/>
				<path class="st2" d="M205.7,828h-2.6v-12.1h2.6V828z"/>
				<path class="st2" d="M211.2,823c-2.1-0.6-3.9-1.4-3.9-3.8c0-2.6,2.2-3.4,4.4-3.4c1.9,0,3.2,0.3,4.3,0.8l-0.5,2.2
					c-1.5-0.6-2.7-0.9-4.1-0.9c-0.7,0-1.4,0.2-1.4,1c0,0.7,0.4,1.1,2.1,1.6c3.1,1,4.1,2.2,4.1,4c0,3.1-2.7,3.8-4.6,3.8
					c-1.9,0-3.4-0.5-4.5-1l0.3-2.1c1.5,0.6,2.9,1,4.2,1c1.6,0,1.8-0.7,1.8-1.4C213.4,823.9,213.1,823.5,211.2,823z"/>
				<path class="st2" d="M225.9,823c-2.1-0.6-3.9-1.4-3.9-3.8c0-2.6,2.2-3.4,4.4-3.4c1.9,0,3.2,0.3,4.3,0.8l-0.5,2.2
					c-1.5-0.6-2.7-0.9-4.1-0.9c-0.7,0-1.4,0.2-1.4,1c0,0.7,0.4,1.1,2.1,1.6c3.1,1,4.1,2.2,4.1,4c0,3.1-2.7,3.8-4.6,3.8
					c-1.9,0-3.4-0.5-4.5-1l0.3-2.1c1.5,0.6,2.9,1,4.2,1c1.6,0,1.8-0.7,1.8-1.4C228.1,823.9,227.7,823.5,225.9,823z"/>
				<path class="st2" d="M234.9,820.7h5.3v2.2h-5.3v3h6.2v2.2h-8.8v-12.1h8.7v2.2h-6.1V820.7z"/>
				<path class="st2" d="M245.2,820.2v7.8h-2.6v-12.1h3.2l4.7,8v-8h2.6V828h-3.2L245.2,820.2z"/>
				<path class="st2" d="M260.4,828h-2.6v-9.9h-3.7v-2.2h10v2.2h-3.7V828z"/>
				<path class="st2" d="M275.3,828h-2.6v-9.9H269v-2.2h10v2.2h-3.7V828z"/>
				<path class="st2" d="M285.7,815.8c4.5,0,6.6,2.8,6.6,6.2c0,3.4-2.1,6.2-6.6,6.2c-4.5,0-6.6-2.8-6.6-6.2
					C279.1,818.6,281.2,815.8,285.7,815.8z M285.7,826.1c2.3,0,4-1.5,4-4.1c0-2.6-1.6-4.1-4-4.1c-2.3,0-4,1.5-4,4.1
					C281.8,824.7,283.4,826.1,285.7,826.1z"/>
			</g>
			<g class="st1">
				<path class="st2" d="M99.2,843c-2.1-0.6-3.9-1.4-3.9-3.8c0-2.6,2.2-3.4,4.4-3.4c1.9,0,3.2,0.3,4.3,0.8l-0.5,2.2
					c-1.5-0.6-2.7-0.9-4.1-0.9c-0.7,0-1.4,0.2-1.4,1c0,0.7,0.4,1.1,2.1,1.6c3.1,1,4.1,2.2,4.1,4c0,3.1-2.7,3.8-4.6,3.8
					c-1.9,0-3.4-0.5-4.5-1l0.3-2.1c1.5,0.6,2.9,1,4.2,1c1.6,0,1.8-0.7,1.8-1.4C101.3,843.9,101,843.5,99.2,843z"/>
				<path class="st2" d="M115.7,843.9c0,2.6-1.4,4.3-5,4.3s-5-1.7-5-4.3v-7.9h2.6v7.9c0,1.9,1.5,2.3,2.4,2.3c0.9,0,2.4-0.3,2.4-2.3
					v-7.9h2.6V843.9z"/>
				<path class="st2" d="M120.1,843.5v4.5h-2.6v-12.1h5.9c2.7,0,4,1.7,4,3.8c0,2.1-1.3,3.8-4,3.8H120.1z M120.1,838.1v3.2h2.7
					c1,0,1.9-0.1,1.9-1.6c0-1.5-1-1.6-1.9-1.6H120.1z"/>
				<path class="st2" d="M131.2,840.7h5.3v2.2h-5.3v3h6.2v2.2h-8.8v-12.1h8.7v2.2h-6.1V840.7z"/>
				<path class="st2" d="M149.1,848h-3.1l-3-4.7h-1.6v4.7h-2.6v-12.1h5.9c2.7,0,4,1.6,4,3.7c0,1.8-1,3.2-2.9,3.6L149.1,848z
					 M141.5,838.1v3.1h2.7c1,0,1.9-0.2,1.9-1.5c0-1.4-1-1.5-1.9-1.5H141.5z"/>
				<path class="st2" d="M149.1,835.9h2.9l3.2,9.1l3.1-9.1h2.9l-4.6,12.1h-2.8L149.1,835.9z"/>
				<path class="st2" d="M164.3,848h-2.6v-12.1h2.6V848z"/>
				<path class="st2" d="M169.9,843c-2.1-0.6-3.9-1.4-3.9-3.8c0-2.6,2.2-3.4,4.4-3.4c1.9,0,3.2,0.3,4.3,0.8l-0.5,2.2
					c-1.5-0.6-2.7-0.9-4.1-0.9c-0.7,0-1.4,0.2-1.4,1c0,0.7,0.4,1.1,2.1,1.6c3.1,1,4.1,2.2,4.1,4c0,3.1-2.7,3.8-4.6,3.8
					c-1.9,0-3.4-0.5-4.5-1l0.3-2.1c1.5,0.6,2.9,1,4.2,1c1.6,0,1.8-0.7,1.8-1.4C172.1,843.9,171.7,843.5,169.9,843z"/>
				<path class="st2" d="M182.5,835.8c4.5,0,6.6,2.8,6.6,6.2c0,3.4-2.1,6.2-6.6,6.2c-4.5,0-6.6-2.8-6.6-6.2
					C175.9,838.6,178,835.8,182.5,835.8z M182.5,846.1c2.3,0,4-1.5,4-4.1c0-2.6-1.6-4.1-4-4.1c-2.3,0-4,1.5-4,4.1
					C178.6,844.7,180.2,846.1,182.5,846.1z"/>
				<path class="st2" d="M200.8,848h-3.1l-3-4.7h-1.6v4.7h-2.6v-12.1h5.9c2.7,0,4,1.6,4,3.7c0,1.8-1,3.2-2.9,3.6L200.8,848z
					 M193.1,838.1v3.1h2.7c1,0,1.9-0.2,1.9-1.5c0-1.4-1-1.5-1.9-1.5H193.1z"/>
				<path class="st2" d="M206.2,844.9c0-1.6,1.2-2.6,2.8-3.6c-0.8-0.7-1.4-1.7-1.4-2.6c0-1.9,1.5-3,3.8-3c1.8,0,3.2,0.9,3.2,2.6
					c0,1.2-1,2.2-2.4,2.9l3,2.6c0.5-0.7,0.6-1.9,0.7-3.1h2.5c-0.2,1.7-0.8,3.5-1.5,4.6l2.9,2.6l-1.7,1.9L215,847
					c-1.1,0.7-2.3,1.1-4.2,1.1C207.8,848.2,206.2,847,206.2,844.9z M210,842.5c-0.9,0.6-1.4,1-1.4,1.9c0,0.7,0.5,1.7,2.2,1.7
					c1,0,1.9-0.3,2.5-0.6L210,842.5z M210.1,838.7c0,0.3,0.3,0.8,0.9,1.4c0.4-0.2,1.2-0.7,1.2-1.5c0-0.5-0.5-0.8-0.9-0.8
					C210.3,837.8,210.1,838.3,210.1,838.7z"/>
				<path class="st2" d="M228.7,835.8h3l4.5,12.2h-2.9l-0.9-2.8H228l-1,2.8h-2.9L228.7,835.8z M228.8,843h2.9l-1.4-4.1L228.8,843z"
					/>
				<path class="st2" d="M240.3,843c-2.1-0.6-3.9-1.4-3.9-3.8c0-2.6,2.2-3.4,4.4-3.4c1.9,0,3.2,0.3,4.3,0.8l-0.5,2.2
					c-1.5-0.6-2.7-0.9-4.1-0.9c-0.7,0-1.4,0.2-1.4,1c0,0.7,0.4,1.1,2.1,1.6c3.1,1,4.1,2.2,4.1,4c0,3.1-2.7,3.8-4.6,3.8
					c-1.9,0-3.4-0.5-4.5-1l0.3-2.1c1.5,0.6,2.9,1,4.2,1c1.6,0,1.8-0.7,1.8-1.4C242.5,843.9,242.1,843.5,240.3,843z"/>
				<path class="st2" d="M250.5,843c-2.1-0.6-3.9-1.4-3.9-3.8c0-2.6,2.2-3.4,4.4-3.4c1.9,0,3.2,0.3,4.3,0.8l-0.5,2.2
					c-1.5-0.6-2.7-0.9-4.1-0.9c-0.7,0-1.4,0.2-1.4,1c0,0.7,0.4,1.1,2.1,1.6c3.1,1,4.1,2.2,4.1,4c0,3.1-2.7,3.8-4.6,3.8
					c-1.9,0-3.4-0.5-4.5-1l0.3-2.1c1.5,0.6,2.9,1,4.2,1c1.6,0,1.8-0.7,1.8-1.4C252.6,843.9,252.3,843.5,250.5,843z"/>
				<path class="st2" d="M259.5,848h-2.6v-12.1h2.6V848z"/>
				<path class="st2" d="M272.3,842.2v5.2c-1.3,0.5-2.9,0.7-4.6,0.7c-4.5,0-6.8-2.8-6.8-6.2c0-3.4,2.3-6.2,6.8-6.2
					c1.7,0,3.4,0.3,4.5,0.7l-0.5,2c-1.4-0.5-2.7-0.7-4-0.7c-2.3,0-4.1,1.5-4.1,4.1c0,2.7,1.8,4.1,4.1,4.1c0.5,0,1.5,0,2-0.1v-3.8
					H272.3z"/>
				<path class="st2" d="M276.5,840.2v7.8h-2.6v-12.1h3.2l4.7,8v-8h2.6V848h-3.2L276.5,840.2z"/>
				<path class="st2" d="M288.7,840.7h5.3v2.2h-5.3v3h6.2v2.2h-8.8v-12.1h8.7v2.2h-6.1V840.7z"/>
				<path class="st2" d="M299,840.7h5.3v2.2H299v3h6.2v2.2h-8.8v-12.1h8.7v2.2H299V840.7z"/>
			</g>
		</g>
		<g>
			<path class="st3" d="M96,1157h208c2.8,0,5,2.2,5,5v50c0,2.8-2.2,5-5,5H96c-2.8,0-5-2.2-5-5v-50C91,1159.2,93.2,1157,96,1157z"/>
		</g>
		<g>
			<g class="st1">
				<path class="st2" d="M156.5,1181.5v4.5h-2.6v-12.1h5.9c2.7,0,4,1.7,4,3.8c0,2.1-1.3,3.8-4,3.8H156.5z M156.5,1176.1v3.2h2.7
					c1,0,1.9-0.1,1.9-1.6c0-1.5-1-1.6-1.9-1.6H156.5z"/>
				<path class="st2" d="M175.3,1186h-3.1l-3-4.7h-1.6v4.7h-2.6v-12.1h5.9c2.7,0,4,1.6,4,3.7c0,1.8-1,3.2-2.9,3.6L175.3,1186z
					 M167.7,1176.1v3.1h2.7c1,0,1.9-0.2,1.9-1.5c0-1.4-1-1.5-1.9-1.5H167.7z"/>
				<path class="st2" d="M182.8,1173.8c4.5,0,6.6,2.8,6.6,6.2c0,3.4-2.1,6.2-6.6,6.2c-4.5,0-6.6-2.8-6.6-6.2
					C176.2,1176.6,178.3,1173.8,182.8,1173.8z M182.8,1184.1c2.3,0,4-1.5,4-4.1c0-2.6-1.6-4.1-4-4.1c-2.3,0-4,1.5-4,4.1
					C178.8,1182.7,180.5,1184.1,182.8,1184.1z"/>
				<path class="st2" d="M193.4,1181.5v4.5h-2.6v-12.1h5.9c2.7,0,4,1.7,4,3.8c0,2.1-1.3,3.8-4,3.8H193.4z M193.4,1176.1v3.2h2.7
					c1,0,1.9-0.1,1.9-1.6c0-1.5-1-1.6-1.9-1.6H193.4z"/>
				<path class="st2" d="M208.2,1173.8c4.5,0,6.6,2.8,6.6,6.2c0,3.4-2.1,6.2-6.6,6.2c-4.5,0-6.6-2.8-6.6-6.2
					C201.6,1176.6,203.7,1173.8,208.2,1173.8z M208.2,1184.1c2.3,0,4-1.5,4-4.1c0-2.6-1.6-4.1-4-4.1c-2.3,0-4,1.5-4,4.1
					C204.2,1182.7,205.8,1184.1,208.2,1184.1z"/>
				<path class="st2" d="M219.9,1181c-2.1-0.6-3.9-1.4-3.9-3.8c0-2.6,2.2-3.4,4.4-3.4c1.9,0,3.2,0.3,4.3,0.8l-0.5,2.2
					c-1.5-0.6-2.7-0.9-4.1-0.9c-0.7,0-1.4,0.2-1.4,1c0,0.7,0.4,1.1,2.1,1.6c3.1,1,4.1,2.2,4.1,4c0,3.1-2.7,3.8-4.6,3.8
					c-1.9,0-3.4-0.5-4.5-1l0.3-2.1c1.5,0.6,2.9,1,4.2,1c1.6,0,1.8-0.7,1.8-1.4C222.1,1181.9,221.8,1181.5,219.9,1181z"/>
				<path class="st2" d="M229.5,1173.8h3l4.5,12.2h-2.9l-0.9-2.8h-4.4l-1,2.8h-2.9L229.5,1173.8z M229.6,1181h2.9l-1.4-4.1
					L229.6,1181z"/>
				<path class="st2" d="M240.1,1183.8h6.2v2.2h-8.8v-12.1h2.6V1183.8z"/>
			</g>
			<g class="st1">
				<path class="st2" d="M157.7,1189.8h3l4.5,12.2h-2.9l-0.9-2.8H157l-1,2.8h-2.9L157.7,1189.8z M157.8,1197h2.9l-1.4-4.1
					L157.8,1197z"/>
				<path class="st2" d="M168.4,1197.5v4.5h-2.6v-12.1h5.9c2.7,0,4,1.7,4,3.8c0,2.1-1.3,3.8-4,3.8H168.4z M168.4,1192.1v3.2h2.7
					c1,0,1.9-0.1,1.9-1.6c0-1.5-1-1.6-1.9-1.6H168.4z"/>
				<path class="st2" d="M179.5,1197.5v4.5h-2.6v-12.1h5.9c2.7,0,4,1.7,4,3.8c0,2.1-1.3,3.8-4,3.8H179.5z M179.5,1192.1v3.2h2.7
					c1,0,1.9-0.1,1.9-1.6c0-1.5-1-1.6-1.9-1.6H179.5z"/>
				<path class="st2" d="M198.3,1202h-3.1l-3-4.7h-1.6v4.7h-2.6v-12.1h5.9c2.7,0,4,1.6,4,3.7c0,1.8-1,3.2-2.9,3.6L198.3,1202z
					 M190.7,1192.1v3.1h2.7c1,0,1.9-0.2,1.9-1.5c0-1.4-1-1.5-1.9-1.5H190.7z"/>
				<path class="st2" d="M205.8,1189.8c4.5,0,6.6,2.8,6.6,6.2c0,3.4-2.1,6.2-6.6,6.2s-6.6-2.8-6.6-6.2
					C199.2,1192.6,201.3,1189.8,205.8,1189.8z M205.8,1200.1c2.3,0,4-1.5,4-4.1c0-2.6-1.6-4.1-4-4.1c-2.3,0-4,1.5-4,4.1
					C201.8,1198.7,203.5,1200.1,205.8,1200.1z"/>
				<path class="st2" d="M211.9,1189.9h2.9l3.2,9.1l3.1-9.1h2.9l-4.6,12.1h-2.8L211.9,1189.9z"/>
				<path class="st2" d="M227.1,1194.7h5.3v2.2h-5.3v3h6.2v2.2h-8.8v-12.1h8.7v2.2h-6.1V1194.7z"/>
				<path class="st2" d="M234.8,1202v-12.1h4.2c4.5,0,6.8,2.7,6.8,6c0,3.4-2.3,6-6.8,6H234.8z M239,1199.8c2.3,0,4.1-1.2,4.1-3.9
					c0-2.6-1.8-3.9-4.1-3.9h-1.6v7.7H239z"/>
			</g>
		</g>
		<g transform="translate(206.0000000000009, 937.5) rotate(90.00003218077504) translate(-206.0000000000009, -937.5)">
			<g>
				<path class="st3" d="M241.5,945.5l0-16l10,8L241.5,945.5z"/>
			</g>
			<g transform="translate(202.2500000000009, 937.5) rotate(90.00003218077504) translate(-202.2500000000009, -937.5)">
				<path class="st4" d="M202.3,895.7v83.5"/>
			</g>
		</g>
		<g>
			<g>
				<path class="st3" d="M132.2,197h135.6c2.8,0,5,2.2,5,5v50c0,2.8-2.2,5-5,5H132.2c-2.8,0-5-2.2-5-5v-50
					C127.2,199.2,129.4,197,132.2,197z"/>
			</g>
			<g>
				<g class="st1">
					<path class="st2" d="M156.5,219.5v4.5h-2.6v-12.1h5.9c2.7,0,4,1.7,4,3.8c0,2.1-1.3,3.8-4,3.8H156.5z M156.5,214.1v3.2h2.7
						c1,0,1.9-0.1,1.9-1.6c0-1.5-1-1.6-1.9-1.6H156.5z"/>
					<path class="st2" d="M175.3,224h-3.1l-3-4.7h-1.6v4.7h-2.6v-12.1h5.9c2.7,0,4,1.6,4,3.7c0,1.8-1,3.2-2.9,3.6L175.3,224z
						 M167.7,214.1v3.1h2.7c1,0,1.9-0.2,1.9-1.5c0-1.4-1-1.5-1.9-1.5H167.7z"/>
					<path class="st2" d="M182.8,211.8c4.5,0,6.6,2.8,6.6,6.2c0,3.4-2.1,6.2-6.6,6.2c-4.5,0-6.6-2.8-6.6-6.2
						C176.2,214.6,178.3,211.8,182.8,211.8z M182.8,222.1c2.3,0,4-1.5,4-4.1c0-2.6-1.6-4.1-4-4.1c-2.3,0-4,1.5-4,4.1
						C178.8,220.7,180.5,222.1,182.8,222.1z"/>
					<path class="st2" d="M193.4,219.5v4.5h-2.6v-12.1h5.9c2.7,0,4,1.7,4,3.8c0,2.1-1.3,3.8-4,3.8H193.4z M193.4,214.1v3.2h2.7
						c1,0,1.9-0.1,1.9-1.6c0-1.5-1-1.6-1.9-1.6H193.4z"/>
					<path class="st2" d="M208.2,211.8c4.5,0,6.6,2.8,6.6,6.2c0,3.4-2.1,6.2-6.6,6.2c-4.5,0-6.6-2.8-6.6-6.2
						C201.6,214.6,203.7,211.8,208.2,211.8z M208.2,222.1c2.3,0,4-1.5,4-4.1c0-2.6-1.6-4.1-4-4.1c-2.3,0-4,1.5-4,4.1
						C204.2,220.7,205.8,222.1,208.2,222.1z"/>
					<path class="st2" d="M219.9,219c-2.1-0.6-3.9-1.4-3.9-3.8c0-2.6,2.2-3.4,4.4-3.4c1.9,0,3.2,0.3,4.3,0.8l-0.5,2.2
						c-1.5-0.6-2.7-0.9-4.1-0.9c-0.7,0-1.4,0.2-1.4,1c0,0.7,0.4,1.1,2.1,1.6c3.1,1,4.1,2.2,4.1,4c0,3.1-2.7,3.8-4.6,3.8
						c-1.9,0-3.4-0.5-4.5-1l0.3-2.1c1.5,0.6,2.9,1,4.2,1c1.6,0,1.8-0.7,1.8-1.4C222.1,219.9,221.8,219.5,219.9,219z"/>
					<path class="st2" d="M229.5,211.8h3L237,224h-2.9l-0.9-2.8h-4.4l-1,2.8h-2.9L229.5,211.8z M229.6,219h2.9l-1.4-4.1L229.6,219z"
						/>
					<path class="st2" d="M240.1,221.8h6.2v2.2h-8.8v-12.1h2.6V221.8z"/>
				</g>
				<g class="st1">
					<path class="st2" d="M169.9,240h-3.1l-3-4.7h-1.6v4.7h-2.6v-12.1h5.9c2.7,0,4,1.6,4,3.7c0,1.8-1,3.2-2.9,3.6L169.9,240z
						 M162.3,230.1v3.1h2.7c1,0,1.9-0.2,1.9-1.5c0-1.4-1-1.5-1.9-1.5H162.3z"/>
					<path class="st2" d="M173.8,232.7h5.3v2.2h-5.3v3h6.2v2.2h-8.8v-12.1h8.7v2.2h-6.1V232.7z"/>
					<path class="st2" d="M183.7,234c0,2.7,1.8,4.1,4.1,4.1c1.4,0,2.5-0.2,3.9-0.7l0.5,2.1c-1.1,0.4-2.6,0.7-4.3,0.7
						c-4.5,0-6.8-2.8-6.8-6.2c0-3.4,2.3-6.2,6.8-6.2c1.7,0,3.2,0.3,4.3,0.7l-0.5,2c-1.4-0.5-2.5-0.7-3.8-0.7
						C185.5,229.8,183.7,231.3,183.7,234z"/>
					<path class="st2" d="M196,232.7h5.3v2.2H196v3h6.2v2.2h-8.8v-12.1h8.7v2.2H196V232.7z"/>
					<path class="st2" d="M206.3,240h-2.6v-12.1h2.6V240z"/>
					<path class="st2" d="M206.8,227.9h2.9l3.2,9.1l3.1-9.1h2.9l-4.6,12.1h-2.8L206.8,227.9z"/>
					<path class="st2" d="M222,232.7h5.3v2.2H222v3h6.2v2.2h-8.8v-12.1h8.7v2.2H222V232.7z"/>
					<path class="st2" d="M229.7,240v-12.1h4.2c4.5,0,6.8,2.7,6.8,6c0,3.4-2.2,6-6.8,6H229.7z M233.9,237.8c2.3,0,4.1-1.2,4.1-3.9
						c0-2.6-1.8-3.9-4.1-3.9h-1.6v7.7H233.9z"/>
				</g>
			</g>
		</g>
		<g>
			<g>
				<g>
					<path class="st5" d="M254.3,164.6H151.9c-4,0-6.8-4-5.4-8l15.8-53.4c0.8-2.6,3.1-4.3,5.4-4.3h102.7c4,0,6.8,4,5.4,8L260,160.3
						C259.1,162.9,256.9,164.6,254.3,164.6L254.3,164.6z"/>
				</g>
				<g>
					<path class="st5" d="M146.5,156.3l15.8-53.4c0.8-2.6,3.1-4.3,5.4-4.3h92.8V75.5c0-3.1-2.5-5.7-5.6-5.7h-65.2
						c-2.3,0-4.2-1.1-5.1-3.1l-4-8.3c-0.8-2-2.8-3.1-5.1-3.1h-23.7c-3.1,0-5.6,2.6-5.6,5.7v98c0,2.6,1.7,4.9,4.2,5.4
						C147.4,163.4,145.4,159.7,146.5,156.3L146.5,156.3z"/>
				</g>
			</g>
		</g>
		<g>
			<g>
				<path class="st5" d="M175,1036.6h-56.2"/>
			</g>
			<g>
				<path class="st5" d="M291.7,1027h-96.2c-2.5,0-5,1.8-5.7,4.3l-18.1,64.5c-0.7,2.5,0.7,4.3,3.2,4.3h96.2c2.5,0,5-1.8,5.7-4.3
					l18.1-64.5C295.2,1029.1,293.8,1027,291.7,1027L291.7,1027z"/>
			</g>
			<g>
				<path class="st5" d="M192,1028.4l35.5,38.3c2.1,2.5,6.4,2.5,9.6,0l56.8-38.3"/>
			</g>
			<g>
				<path class="st5" d="M168,1061h-56.2"/>
			</g>
			<g>
				<path class="st5" d="M161,1085.8h-56.2"/>
			</g>
		</g>
		<g>
			<g>
				<g>
					<ellipse id="ellipse-16" class="st0" cx="276.7" cy="1089.5" rx="26.7" ry="26.5"/>
				</g>
				<g>
					<ellipse id="ellipse-16_1_" class="st6" cx="276.7" cy="1089.5" rx="26.7" ry="26.5"/>
				</g>
			</g>
			<g>
				<path class="st6" d="M267.1,1088.5l7.3,9.7l10.9-18.2"/>
			</g>
		</g>
		<g>
			<g class="st1">
				<path class="st2" d="M278.7,538h-3.1l-3-4.7H271v4.7h-2.6v-12.1h5.9c2.7,0,4,1.6,4,3.7c0,1.8-1,3.2-2.9,3.6L278.7,538z
					 M271,528.1v3.1h2.7c1,0,1.9-0.2,1.9-1.5c0-1.4-1-1.5-1.9-1.5H271z"/>
				<path class="st2" d="M282.5,530.7h5.3v2.2h-5.3v3h6.2v2.2h-8.8v-12.1h8.7v2.2h-6.1V530.7z"/>
				<path class="st2" d="M295.5,534.6c0,2.3-0.3,3.6-3.5,3.6c-1.1,0-2.1-0.3-2.7-0.5l0.5-2c0.5,0.1,1.4,0.4,1.8,0.4
					c1,0,1.3-0.3,1.3-1.5v-8.6h2.6V534.6z"/>
				<path class="st2" d="M299.9,530.7h5.3v2.2h-5.3v3h6.2v2.2h-8.8v-12.1h8.7v2.2h-6.1V530.7z"/>
				<path class="st2" d="M309.8,532c0,2.7,1.8,4.1,4.1,4.1c1.4,0,2.5-0.2,3.9-0.7l0.5,2.1c-1.1,0.4-2.6,0.7-4.3,0.7
					c-4.5,0-6.8-2.8-6.8-6.2c0-3.4,2.3-6.2,6.8-6.2c1.7,0,3.2,0.3,4.3,0.7l-0.4,2c-1.4-0.5-2.5-0.7-3.8-0.7
					C311.6,527.8,309.8,529.3,309.8,532z"/>
				<path class="st2" d="M325.1,538h-2.6v-9.9h-3.7v-2.2h10v2.2h-3.7V538z"/>
				<path class="st2" d="M333.7,533c-2.1-0.6-3.9-1.4-3.9-3.8c0-2.6,2.2-3.4,4.4-3.4c1.9,0,3.2,0.3,4.3,0.8l-0.5,2.2
					c-1.5-0.6-2.7-0.9-4.1-0.9c-0.7,0-1.4,0.2-1.4,1c0,0.7,0.4,1.1,2.1,1.6c3.1,1,4.1,2.2,4.1,4c0,3.1-2.7,3.8-4.6,3.8
					c-1.9,0-3.4-0.5-4.5-1l0.3-2.1c1.5,0.6,2.9,1,4.2,1c1.6,0,1.8-0.7,1.8-1.4C335.8,533.9,335.5,533.5,333.7,533z"/>
			</g>
		</g>
		<g>
			<g class="st1">
				<path class="st2" d="M64.2,525.8h3l4.5,12.2h-2.9l-0.9-2.8h-4.4l-1,2.8h-2.9L64.2,525.8z M64.3,533h2.9l-1.4-4.1L64.3,533z"/>
				<path class="st2" d="M74.9,533.5v4.5h-2.6v-12.1h5.9c2.7,0,4,1.7,4,3.8c0,2.1-1.3,3.8-4,3.8H74.9z M74.9,528.1v3.2h2.7
					c1,0,1.9-0.1,1.9-1.6c0-1.5-1-1.6-1.9-1.6H74.9z"/>
				<path class="st2" d="M86,533.5v4.5h-2.6v-12.1h5.9c2.7,0,4,1.7,4,3.8c0,2.1-1.3,3.8-4,3.8H86z M86,528.1v3.2h2.7
					c1,0,1.9-0.1,1.9-1.6c0-1.5-1-1.6-1.9-1.6H86z"/>
				<path class="st2" d="M104.8,538h-3.1l-3-4.7h-1.6v4.7h-2.6v-12.1h5.9c2.7,0,4,1.6,4,3.7c0,1.8-1,3.2-2.9,3.6L104.8,538z
					 M97.2,528.1v3.1h2.7c1,0,1.9-0.2,1.9-1.5c0-1.4-1-1.5-1.9-1.5H97.2z"/>
				<path class="st2" d="M112.3,525.8c4.5,0,6.6,2.8,6.6,6.2c0,3.4-2.1,6.2-6.6,6.2c-4.5,0-6.6-2.8-6.6-6.2
					C105.7,528.6,107.8,525.8,112.3,525.8z M112.3,536.1c2.3,0,4-1.5,4-4.1c0-2.6-1.6-4.1-4-4.1c-2.3,0-4,1.5-4,4.1
					C108.3,534.7,110,536.1,112.3,536.1z"/>
				<path class="st2" d="M118.4,525.9h2.9l3.2,9.1l3.1-9.1h2.9l-4.6,12.1h-2.8L118.4,525.9z"/>
				<path class="st2" d="M133.6,530.7h5.3v2.2h-5.3v3h6.2v2.2H131v-12.1h8.7v2.2h-6.1V530.7z"/>
				<path class="st2" d="M145,533c-2.1-0.6-3.9-1.4-3.9-3.8c0-2.6,2.2-3.4,4.4-3.4c1.9,0,3.2,0.3,4.3,0.8l-0.5,2.2
					c-1.5-0.6-2.7-0.9-4.1-0.9c-0.7,0-1.4,0.2-1.4,1c0,0.7,0.4,1.1,2.1,1.6c3.1,1,4.1,2.2,4.1,4c0,3.1-2.7,3.8-4.6,3.8
					c-1.9,0-3.4-0.5-4.5-1l0.3-2.1c1.5,0.6,2.9,1,4.2,1c1.6,0,1.8-0.7,1.8-1.4C147.2,533.9,146.9,533.5,145,533z"/>
			</g>
		</g>
		<g transform="translate(78.81080743243365, 456.9999999999991)">
			<g>
				<ellipse class="st6" cx="26.7" cy="26.5" rx="26.7" ry="26.5"/>
			</g>
			<g>
				<path class="st6" d="M17.1,25.5l7.3,9.7L35.3,17"/>
			</g>
		</g>
		
			<g transform="translate(303.500000000001, 483.68919256756635) rotate(90.00003218077504) translate(-303.500000000001, -483.68919256756635)">
			<g transform="translate(276.81080743243365, 457.1891825675666)">
				<g>
					
						<ellipse transform="matrix(3.535182e-06 1 -1 3.535182e-06 53.1996 -0.1793)" class="st6" cx="26.7" cy="26.5" rx="26.5" ry="26.7"/>
				</g>
				<g>
					<path class="st7" d="M33.8,33.9L19.3,19.2"/>
				</g>
				<g>
					<path class="st7" d="M33.7,19.2L19.2,34"/>
				</g>
			</g>
		</g>
		
			<g transform="translate(255.0000000000009, 374.0000099999986) rotate(90.00003218077504) translate(-255.0000000000009, -374.0000099999986)">
			<g>
				<g>
					<path class="st4" d="M271,390.2l0-46.2c0-11,9-20,20-20l31,0"/>
				</g>
				
					<g transform="translate(229.49999000000116, 390.92308692307574) rotate(180.00006436155007) translate(-229.49999000000116, -390.92308692307574)">
					<path class="st4" d="M188,424l0-46.2c0-11,9-20,20-20l63,0"/>
				</g>
			</g>
		</g>
		
			<g transform="translate(155.0000200000004, 374.0000099999986) rotate(90.00003218077504) translate(-155.0000200000004, -374.0000099999986)">
			<g>
				<path class="st4" d="M171,353.8l0,50.2c0,11,9,20,20,20h31"/>
			</g>
			
				<g transform="translate(129.50001000000066, 356.0333329888907) rotate(180.00006436155007) translate(-129.50001000000066, -356.0333329888907)">
				<path class="st4" d="M88,324l0,44.1c0,11,9,20,20,20l63,0"/>
			</g>
		</g>
		
			<g transform="translate(155.5000000000024, 669.6879736507744) rotate(180.00006436155007) translate(-155.5000000000024, -669.6879736507744)">
			<g>
				<path class="st4" d="M105,553.9v164.5c0,11,9,20,20,20h37.9"/>
			</g>
			
				<g transform="translate(176.4668973333666, 761.8374542381066) rotate(180.00006436155007) translate(-176.4668973333666, -761.8374542381066)">
				<path class="st4" d="M146.9,738.2v27.4c0,11,9,20,20,20H206"/>
			</g>
		</g>
	</g>
</g>
</svg>
