<?xml version="1.0" encoding="utf-8"?>
<!-- Generator: Adobe Illustrator 22.0.1, SVG Export Plug-In . SVG Version: 6.00 Build 0)  -->
<svg version="1.1" id="Layer_1" xmlns="http://www.w3.org/2000/svg" xmlns:xlink="http://www.w3.org/1999/xlink" x="0px" y="0px"
	 viewBox="0 0 400 1295" style="enable-background:new 0 0 400 1295;" xml:space="preserve">
<style type="text/css">
	.st0{fill:#1D1E26;}
	.st1{fill:#F2F2F2;}
	.st2{font-family:'EzzoBlack';}
	.st3{font-size:18px;}
	.st4{font-family:'ArialMT';}
	.st5{font-size:12px;}
	.st6{fill:#7000FF;}
	.st7{fill-opacity:0;stroke:#7000FF;stroke-width:2;}
	.st8{fill-opacity:0;stroke:#FFFFFF;stroke-width:2;stroke-linecap:round;stroke-linejoin:round;}
	.st9{fill-opacity:0;stroke:#FFFFFF;stroke-width:2;}
	.st10{fill-opacity:0;stroke:#FFFFFF;stroke-width:2;stroke-linecap:square;}
	.st11{fill:#252633;}
	.st12{filter:url(#Adobe_OpacityMaskFilter);}
	.st13{fill:#FFFFFF;}
	.st14{mask:url(#mask-31_2_);}
	.st15{fill-opacity:0;stroke:#FFFFFF;stroke-width:1.5;stroke-linecap:round;stroke-linejoin:round;}
</style>
<g>
	<g>
		<path class="st0" d="M5,0h390c2.8,0,5,2.2,5,5v1285c0,2.8-2.2,5-5,5H5c-2.8,0-5-2.2-5-5V5C0,2.2,2.2,0,5,0z"/>
	</g>
	<g>
		<g>
			<text transform="matrix(1 0 0 1 107.316 828)" class="st1 st2 st3">APPROVAL IS SENT TO</text>
			<text transform="matrix(1 0 0 1 265.1393 828)" class="st4 st5"> </text>
			<text transform="matrix(1 0 0 1 94.5 848)" class="st1 st2 st3">SUPERVISOR &amp; ASSIGNEE</text>
		</g>
		<g>
			<path class="st6" d="M96,1157h208c2.8,0,5,2.2,5,5v50c0,2.8-2.2,5-5,5H96c-2.8,0-5-2.2-5-5v-50C91,1159.2,93.2,1157,96,1157z"/>
		</g>
		<g>
			<text transform="matrix(1 0 0 1 153 1186)" class="st1 st2 st3">PROPOSAL</text>
			<text transform="matrix(1 0 0 1 153.504 1202)" class="st1 st2 st3">APPROVED</text>
		</g>
		<g transform="translate(206.0000000000009, 937.5) rotate(90.00003218077504) translate(-206.0000000000009, -937.5)">
			<g>
				<path class="st6" d="M241.5,945.5l0-16l10,8L241.5,945.5z"/>
			</g>
			<g transform="translate(202.2500000000009, 937.5) rotate(90.00003218077504) translate(-202.2500000000009, -937.5)">
				<path class="st7" d="M202.3,895.7v83.5"/>
			</g>
		</g>
		<g>
			<g>
				<path class="st6" d="M132.2,197h135.6c2.8,0,5,2.2,5,5v50c0,2.8-2.2,5-5,5H132.2c-2.8,0-5-2.2-5-5v-50
					C127.2,199.2,129.4,197,132.2,197z"/>
			</g>
			<g>
				<text transform="matrix(1 0 0 1 153 224)" class="st1 st2 st3">PROPOSAL</text>
				<text transform="matrix(1 0 0 1 158.769 240)" class="st1 st2 st3">RECEIVED</text>
			</g>
		</g>
		<g>
			<g>
				<g>
					<path class="st8" d="M254.3,164.6H151.9c-4,0-6.8-4-5.4-8l15.8-53.4c0.8-2.6,3.1-4.3,5.4-4.3h102.7c4,0,6.8,4,5.4,8L260,160.3
						C259.1,162.9,256.9,164.6,254.3,164.6L254.3,164.6z"/>
				</g>
				<g>
					<path class="st8" d="M146.5,156.3l15.8-53.4c0.8-2.6,3.1-4.3,5.4-4.3h92.8V75.5c0-3.1-2.5-5.7-5.6-5.7h-65.2
						c-2.3,0-4.2-1.1-5.1-3.1l-4-8.3c-0.8-2-2.8-3.1-5.1-3.1h-23.7c-3.1,0-5.6,2.6-5.6,5.7v98c0,2.6,1.7,4.9,4.2,5.4
						C147.4,163.4,145.4,159.7,146.5,156.3L146.5,156.3z"/>
				</g>
			</g>
		</g>
		<g>
			<g>
				<path class="st8" d="M175,1036.6h-56.2"/>
			</g>
			<g>
				<path class="st8" d="M291.7,1027h-96.2c-2.5,0-5,1.8-5.7,4.3l-18.1,64.5c-0.7,2.5,0.7,4.3,3.2,4.3h96.2c2.5,0,5-1.8,5.7-4.3
					l18.1-64.5C295.2,1029.1,293.8,1027,291.7,1027L291.7,1027z"/>
			</g>
			<g>
				<path class="st8" d="M192,1028.4l35.5,38.3c2.1,2.5,6.4,2.5,9.6,0l56.8-38.3"/>
			</g>
			<g>
				<path class="st8" d="M168,1061h-56.2"/>
			</g>
			<g>
				<path class="st8" d="M161,1085.8h-56.2"/>
			</g>
		</g>
		<g>
			<g>
				<g>
					<ellipse id="ellipse-16" class="st0" cx="276.7" cy="1089.5" rx="26.7" ry="26.5"/>
				</g>
				<g>
					<ellipse id="ellipse-16_1_" class="st9" cx="276.7" cy="1089.5" rx="26.7" ry="26.5"/>
				</g>
			</g>
			<g>
				<path class="st9" d="M267.1,1088.5l7.3,9.7l10.9-18.2"/>
			</g>
		</g>
		<g>
			<text transform="matrix(1 0 0 1 267.5 538)" class="st1 st2 st3">REJECTS</text>
		</g>
		<g>
			<text transform="matrix(1 0 0 1 60 538)" class="st1 st2 st3">APPROVES</text>
		</g>
		<g transform="translate(78.81080743243365, 456.9999999999991)">
			<g>
				<ellipse class="st9" cx="26.7" cy="26.5" rx="26.7" ry="26.5"/>
			</g>
			<g>
				<path class="st9" d="M17.1,25.5l7.3,9.7L35.3,17"/>
			</g>
		</g>
		
			<g transform="translate(303.500000000001, 483.68919256756635) rotate(90.00003218077504) translate(-303.500000000001, -483.68919256756635)">
			<g transform="translate(276.81080743243365, 457.1891825675666)">
				<g>
					
						<ellipse transform="matrix(3.535182e-06 1 -1 3.535182e-06 53.1892 -0.1896)" class="st9" cx="26.7" cy="26.5" rx="26.5" ry="26.7"/>
				</g>
				<g>
					<path class="st10" d="M33.8,33.9L19.3,19.2"/>
				</g>
				<g>
					<path class="st10" d="M33.7,19.2L19.2,34"/>
				</g>
			</g>
		</g>
		
			<g transform="translate(255.0000000000009, 374.0000099999986) rotate(90.00003218077504) translate(-255.0000000000009, -374.0000099999986)">
			<g>
				<g>
					<path class="st7" d="M271,390.2l0-46.2c0-11,9-20,20-20l31,0"/>
				</g>
				
					<g transform="translate(229.49999000000116, 390.92308692307574) rotate(180.00006436155007) translate(-229.49999000000116, -390.92308692307574)">
					<path class="st7" d="M188,424l0-46.2c0-11,9-20,20-20l63,0"/>
				</g>
			</g>
		</g>
		
			<g transform="translate(155.0000200000004, 374.0000099999986) rotate(90.00003218077504) translate(-155.0000200000004, -374.0000099999986)">
			<g>
				<path class="st7" d="M171,353.8l0,50.2c0,11,9,20,20,20h31"/>
			</g>
			
				<g transform="translate(129.50001000000066, 356.0333329888907) rotate(180.00006436155007) translate(-129.50001000000066, -356.0333329888907)">
				<path class="st7" d="M88,324l0,44.1c0,11,9,20,20,20l63,0"/>
			</g>
		</g>
		
			<g transform="translate(155.5000000000024, 669.6879736507744) rotate(180.00006436155007) translate(-155.5000000000024, -669.6879736507744)">
			<g>
				<path class="st7" d="M105,553.9v164.5c0,11,9,20,20,20h37.9"/>
			</g>
			
				<g transform="translate(176.4668973333666, 761.8374542381066) rotate(180.00006436155007) translate(-176.4668973333666, -761.8374542381066)">
				<path class="st7" d="M146.9,738.2v27.4c0,11,9,20,20,20H206"/>
			</g>
		</g>
	</g>
</g>
</svg>
