<svg width="400" height="1295" viewBox="0 0 400 1295" fill="none" xmlns="http://www.w3.org/2000/svg">
<path d="M5 0H395C397.8 0 400 2.2 400 5V1290C400 1292.8 397.8 1295 395 1295H5C2.2 1295 0 1292.8 0 1290V5C0 2.2 2.2 0 5 0Z" fill="#1D1E26"/>
<path d="M111.5 815.8H114.5L119 828H116.1L115.2 825.2H110.8L109.8 828H107L111.5 815.8ZM111.6 823H114.5L113.1 818.9L111.6 823Z" fill="#F2F2F2"/>
<path d="M122.2 823.5V828H119.6V815.9H125.5C128.2 815.9 129.5 817.6 129.5 819.7C129.5 821.8 128.2 823.5 125.5 823.5H122.2V823.5ZM122.2 818.1V821.3H124.9C125.9 821.3 126.8 821.2 126.8 819.7C126.8 818.2 125.8 818.1 124.9 818.1H122.2Z" fill="#F2F2F2"/>
<path d="M133.3 823.5V828H130.7V815.9H136.6C139.3 815.9 140.6 817.6 140.6 819.7C140.6 821.8 139.3 823.5 136.6 823.5H133.3V823.5ZM133.3 818.1V821.3H136C137 821.3 137.9 821.2 137.9 819.7C137.9 818.2 136.9 818.1 136 818.1H133.3Z" fill="#F2F2F2"/>
<path d="M152.1 828H149L146 823.3H144.4V828H141.8V815.9H147.7C150.4 815.9 151.7 817.5 151.7 819.6C151.7 821.4 150.7 822.8 148.8 823.2L152.1 828ZM144.5 818.1V821.2H147.2C148.2 821.2 149.1 821 149.1 819.7C149.1 818.3 148.1 818.2 147.2 818.2H144.5V818.1Z" fill="#F2F2F2"/>
<path d="M159.6 815.8C164.1 815.8 166.2 818.6 166.2 822C166.2 825.4 164.1 828.2 159.6 828.2C155.1 828.2 153 825.4 153 822C153 818.6 155.1 815.8 159.6 815.8ZM159.6 826.1C161.9 826.1 163.6 824.6 163.6 822C163.6 819.4 162 817.9 159.6 817.9C157.3 817.9 155.6 819.4 155.6 822C155.6 824.7 157.3 826.1 159.6 826.1Z" fill="#F2F2F2"/>
<path d="M165.7 815.9H168.6L171.8 825L174.9 815.9H177.8L173.2 828H170.4L165.7 815.9Z" fill="#F2F2F2"/>
<path d="M180.3 815.8H183.3L187.8 828H184.9L184 825.2H179.6L178.6 828H175.7L180.3 815.8ZM180.4 823H183.3L181.9 818.9L180.4 823Z" fill="#F2F2F2"/>
<path d="M190.9 825.8H197.1V828H188.3V815.9H190.9V825.8V825.8Z" fill="#F2F2F2"/>
<path d="M205.7 828H203.1V815.9H205.7V828Z" fill="#F2F2F2"/>
<path d="M211.2 823C209.1 822.4 207.3 821.6 207.3 819.2C207.3 816.6 209.5 815.8 211.7 815.8C213.6 815.8 214.9 816.1 216 816.6L215.5 818.8C214 818.2 212.8 817.9 211.4 817.9C210.7 817.9 210 818.1 210 818.9C210 819.6 210.4 820 212.1 820.5C215.2 821.5 216.2 822.7 216.2 824.5C216.2 827.6 213.5 828.3 211.6 828.3C209.7 828.3 208.2 827.8 207.1 827.3L207.4 825.2C208.9 825.8 210.3 826.2 211.6 826.2C213.2 826.2 213.4 825.5 213.4 824.8C213.4 823.9 213.1 823.5 211.2 823Z" fill="#F2F2F2"/>
<path d="M225.9 823C223.8 822.4 222 821.6 222 819.2C222 816.6 224.2 815.8 226.4 815.8C228.3 815.8 229.6 816.1 230.7 816.6L230.2 818.8C228.7 818.2 227.5 817.9 226.1 817.9C225.4 817.9 224.7 818.1 224.7 818.9C224.7 819.6 225.1 820 226.8 820.5C229.9 821.5 230.9 822.7 230.9 824.5C230.9 827.6 228.2 828.3 226.3 828.3C224.4 828.3 222.9 827.8 221.8 827.3L222.1 825.2C223.6 825.8 225 826.2 226.3 826.2C227.9 826.2 228.1 825.5 228.1 824.8C228.1 823.9 227.7 823.5 225.9 823Z" fill="#F2F2F2"/>
<path d="M234.9 820.7H240.2V822.9H234.9V825.9H241.1V828.1H232.3V816H241V818.2H234.9V820.7V820.7Z" fill="#F2F2F2"/>
<path d="M245.2 820.2V828H242.6V815.9H245.8L250.5 823.9V815.9H253.1V828H249.9L245.2 820.2Z" fill="#F2F2F2"/>
<path d="M260.4 828H257.8V818.1H254.1V815.9H264.1V818.1H260.4V828Z" fill="#F2F2F2"/>
<path d="M275.3 828H272.7V818.1H269V815.9H279V818.1H275.3V828Z" fill="#F2F2F2"/>
<path d="M285.7 815.8C290.2 815.8 292.3 818.6 292.3 822C292.3 825.4 290.2 828.2 285.7 828.2C281.2 828.2 279.1 825.4 279.1 822C279.1 818.6 281.2 815.8 285.7 815.8ZM285.7 826.1C288 826.1 289.7 824.6 289.7 822C289.7 819.4 288.1 817.9 285.7 817.9C283.4 817.9 281.7 819.4 281.7 822C281.8 824.7 283.4 826.1 285.7 826.1Z" fill="#F2F2F2"/>
<path d="M99.2 843C97.1 842.4 95.3 841.6 95.3 839.2C95.3 836.6 97.5 835.8 99.7 835.8C101.6 835.8 102.9 836.1 104 836.6L103.5 838.8C102 838.2 100.8 837.9 99.4 837.9C98.7 837.9 98 838.1 98 838.9C98 839.6 98.4 840 100.1 840.5C103.2 841.5 104.2 842.7 104.2 844.5C104.2 847.6 101.5 848.3 99.6 848.3C97.7 848.3 96.2 847.8 95.1 847.3L95.4 845.2C96.9 845.8 98.3 846.2 99.6 846.2C101.2 846.2 101.4 845.5 101.4 844.8C101.3 843.9 101 843.5 99.2 843Z" fill="#F2F2F2"/>
<path d="M115.7 843.9C115.7 846.5 114.3 848.2 110.7 848.2C107.1 848.2 105.7 846.5 105.7 843.9V836H108.3V843.9C108.3 845.8 109.8 846.2 110.7 846.2C111.6 846.2 113.1 845.9 113.1 843.9V836H115.7V843.9Z" fill="#F2F2F2"/>
<path d="M120.1 843.5V848H117.5V835.9H123.4C126.1 835.9 127.4 837.6 127.4 839.7C127.4 841.8 126.1 843.5 123.4 843.5H120.1V843.5ZM120.1 838.1V841.3H122.8C123.8 841.3 124.7 841.2 124.7 839.7C124.7 838.2 123.7 838.1 122.8 838.1H120.1Z" fill="#F2F2F2"/>
<path d="M131.2 840.7H136.5V842.9H131.2V845.9H137.4V848.1H128.6V836H137.3V838.2H131.2V840.7V840.7Z" fill="#F2F2F2"/>
<path d="M149.1 848H146L143 843.3H141.4V848H138.8V835.9H144.7C147.4 835.9 148.7 837.5 148.7 839.6C148.7 841.4 147.7 842.8 145.8 843.2L149.1 848ZM141.5 838.1V841.2H144.2C145.2 841.2 146.1 841 146.1 839.7C146.1 838.3 145.1 838.2 144.2 838.2H141.5V838.1Z" fill="#F2F2F2"/>
<path d="M149.1 835.9H152L155.2 845L158.3 835.9H161.2L156.6 848H153.8L149.1 835.9Z" fill="#F2F2F2"/>
<path d="M164.3 848H161.7V835.9H164.3V848Z" fill="#F2F2F2"/>
<path d="M169.9 843C167.8 842.4 166 841.6 166 839.2C166 836.6 168.2 835.8 170.4 835.8C172.3 835.8 173.6 836.1 174.7 836.6L174.2 838.8C172.7 838.2 171.5 837.9 170.1 837.9C169.4 837.9 168.7 838.1 168.7 838.9C168.7 839.6 169.1 840 170.8 840.5C173.9 841.5 174.9 842.7 174.9 844.5C174.9 847.6 172.2 848.3 170.3 848.3C168.4 848.3 166.9 847.8 165.8 847.3L166.1 845.2C167.6 845.8 169 846.2 170.3 846.2C171.9 846.2 172.1 845.5 172.1 844.8C172.1 843.9 171.7 843.5 169.9 843Z" fill="#F2F2F2"/>
<path d="M182.5 835.8C187 835.8 189.1 838.6 189.1 842C189.1 845.4 187 848.2 182.5 848.2C178 848.2 175.9 845.4 175.9 842C175.9 838.6 178 835.8 182.5 835.8ZM182.5 846.1C184.8 846.1 186.5 844.6 186.5 842C186.5 839.4 184.9 837.9 182.5 837.9C180.2 837.9 178.5 839.4 178.5 842C178.6 844.7 180.2 846.1 182.5 846.1Z" fill="#F2F2F2"/>
<path d="M200.8 848H197.7L194.7 843.3H193.1V848H190.5V835.9H196.4C199.1 835.9 200.4 837.5 200.4 839.6C200.4 841.4 199.4 842.8 197.5 843.2L200.8 848ZM193.1 838.1V841.2H195.8C196.8 841.2 197.7 841 197.7 839.7C197.7 838.3 196.7 838.2 195.8 838.2H193.1V838.1Z" fill="#F2F2F2"/>
<path d="M206.2 844.9C206.2 843.3 207.4 842.3 209 841.3C208.2 840.6 207.6 839.6 207.6 838.7C207.6 836.8 209.1 835.7 211.4 835.7C213.2 835.7 214.6 836.6 214.6 838.3C214.6 839.5 213.6 840.5 212.2 841.2L215.2 843.8C215.7 843.1 215.8 841.9 215.9 840.7H218.4C218.2 842.4 217.6 844.2 216.9 845.3L219.8 847.9L218.1 849.8L215 847C213.9 847.7 212.7 848.1 210.8 848.1C207.8 848.2 206.2 847 206.2 844.9ZM210 842.5C209.1 843.1 208.6 843.5 208.6 844.4C208.6 845.1 209.1 846.1 210.8 846.1C211.8 846.1 212.7 845.8 213.3 845.5L210 842.5ZM210.1 838.7C210.1 839 210.4 839.5 211 840.1C211.4 839.9 212.2 839.4 212.2 838.6C212.2 838.1 211.7 837.8 211.3 837.8C210.3 837.8 210.1 838.3 210.1 838.7Z" fill="#F2F2F2"/>
<path d="M228.7 835.8H231.7L236.2 848H233.3L232.4 845.2H228L227 848H224.1L228.7 835.8ZM228.8 843H231.7L230.3 838.9L228.8 843Z" fill="#F2F2F2"/>
<path d="M240.3 843C238.2 842.4 236.4 841.6 236.4 839.2C236.4 836.6 238.6 835.8 240.8 835.8C242.7 835.8 244 836.1 245.1 836.6L244.6 838.8C243.1 838.2 241.9 837.9 240.5 837.9C239.8 837.9 239.1 838.1 239.1 838.9C239.1 839.6 239.5 840 241.2 840.5C244.3 841.5 245.3 842.7 245.3 844.5C245.3 847.6 242.6 848.3 240.7 848.3C238.8 848.3 237.3 847.8 236.2 847.3L236.5 845.2C238 845.8 239.4 846.2 240.7 846.2C242.3 846.2 242.5 845.5 242.5 844.8C242.5 843.9 242.1 843.5 240.3 843Z" fill="#F2F2F2"/>
<path d="M250.5 843C248.4 842.4 246.6 841.6 246.6 839.2C246.6 836.6 248.8 835.8 251 835.8C252.9 835.8 254.2 836.1 255.3 836.6L254.8 838.8C253.3 838.2 252.1 837.9 250.7 837.9C250 837.9 249.3 838.1 249.3 838.9C249.3 839.6 249.7 840 251.4 840.5C254.5 841.5 255.5 842.7 255.5 844.5C255.5 847.6 252.8 848.3 250.9 848.3C249 848.3 247.5 847.8 246.4 847.3L246.7 845.2C248.2 845.8 249.6 846.2 250.9 846.2C252.5 846.2 252.7 845.5 252.7 844.8C252.6 843.9 252.3 843.5 250.5 843Z" fill="#F2F2F2"/>
<path d="M259.5 848H256.9V835.9H259.5V848Z" fill="#F2F2F2"/>
<path d="M272.3 842.2V847.4C271 847.9 269.4 848.1 267.7 848.1C263.2 848.1 260.9 845.3 260.9 841.9C260.9 838.5 263.2 835.7 267.7 835.7C269.4 835.7 271.1 836 272.2 836.4L271.7 838.4C270.3 837.9 269 837.7 267.7 837.7C265.4 837.7 263.6 839.2 263.6 841.8C263.6 844.5 265.4 845.9 267.7 845.9C268.2 845.9 269.2 845.9 269.7 845.8V842H272.3V842.2Z" fill="#F2F2F2"/>
<path d="M276.5 840.2V848H273.9V835.9H277.1L281.8 843.9V835.9H284.4V848H281.2L276.5 840.2Z" fill="#F2F2F2"/>
<path d="M288.7 840.7H294V842.9H288.7V845.9H294.9V848.1H286.1V836H294.8V838.2H288.7V840.7V840.7Z" fill="#F2F2F2"/>
<path d="M299 840.7H304.3V842.9H299V845.9H305.2V848.1H296.4V836H305.1V838.2H299V840.7Z" fill="#F2F2F2"/>
<path d="M96 1157H304C306.8 1157 309 1159.2 309 1162V1212C309 1214.8 306.8 1217 304 1217H96C93.2 1217 91 1214.8 91 1212V1162C91 1159.2 93.2 1157 96 1157Z" fill="#7000FF"/>
<path d="M156.5 1181.5V1186H153.9V1173.9H159.8C162.5 1173.9 163.8 1175.6 163.8 1177.7C163.8 1179.8 162.5 1181.5 159.8 1181.5H156.5ZM156.5 1176.1V1179.3H159.2C160.2 1179.3 161.1 1179.2 161.1 1177.7C161.1 1176.2 160.1 1176.1 159.2 1176.1H156.5V1176.1Z" fill="#F2F2F2"/>
<path d="M175.3 1186H172.2L169.2 1181.3H167.6V1186H165V1173.9H170.9C173.6 1173.9 174.9 1175.5 174.9 1177.6C174.9 1179.4 173.9 1180.8 172 1181.2L175.3 1186ZM167.7 1176.1V1179.2H170.4C171.4 1179.2 172.3 1179 172.3 1177.7C172.3 1176.3 171.3 1176.2 170.4 1176.2H167.7V1176.1Z" fill="#F2F2F2"/>
<path d="M182.8 1173.8C187.3 1173.8 189.4 1176.6 189.4 1180C189.4 1183.4 187.3 1186.2 182.8 1186.2C178.3 1186.2 176.2 1183.4 176.2 1180C176.2 1176.6 178.3 1173.8 182.8 1173.8ZM182.8 1184.1C185.1 1184.1 186.8 1182.6 186.8 1180C186.8 1177.4 185.2 1175.9 182.8 1175.9C180.5 1175.9 178.8 1177.4 178.8 1180C178.8 1182.7 180.5 1184.1 182.8 1184.1Z" fill="#F2F2F2"/>
<path d="M193.4 1181.5V1186H190.8V1173.9H196.7C199.4 1173.9 200.7 1175.6 200.7 1177.7C200.7 1179.8 199.4 1181.5 196.7 1181.5H193.4ZM193.4 1176.1V1179.3H196.1C197.1 1179.3 198 1179.2 198 1177.7C198 1176.2 197 1176.1 196.1 1176.1H193.4V1176.1Z" fill="#F2F2F2"/>
<path d="M208.2 1173.8C212.7 1173.8 214.8 1176.6 214.8 1180C214.8 1183.4 212.7 1186.2 208.2 1186.2C203.7 1186.2 201.6 1183.4 201.6 1180C201.6 1176.6 203.7 1173.8 208.2 1173.8ZM208.2 1184.1C210.5 1184.1 212.2 1182.6 212.2 1180C212.2 1177.4 210.6 1175.9 208.2 1175.9C205.9 1175.9 204.2 1177.4 204.2 1180C204.2 1182.7 205.8 1184.1 208.2 1184.1Z" fill="#F2F2F2"/>
<path d="M219.9 1181C217.8 1180.4 216 1179.6 216 1177.2C216 1174.6 218.2 1173.8 220.4 1173.8C222.3 1173.8 223.6 1174.1 224.7 1174.6L224.2 1176.8C222.7 1176.2 221.5 1175.9 220.1 1175.9C219.4 1175.9 218.7 1176.1 218.7 1176.9C218.7 1177.6 219.1 1178 220.8 1178.5C223.9 1179.5 224.9 1180.7 224.9 1182.5C224.9 1185.6 222.2 1186.3 220.3 1186.3C218.4 1186.3 216.9 1185.8 215.8 1185.3L216.1 1183.2C217.6 1183.8 219 1184.2 220.3 1184.2C221.9 1184.2 222.1 1183.5 222.1 1182.8C222.1 1181.9 221.8 1181.5 219.9 1181Z" fill="#F2F2F2"/>
<path d="M229.5 1173.8H232.5L237 1186H234.1L233.2 1183.2H228.8L227.8 1186H224.9L229.5 1173.8ZM229.6 1181H232.5L231.1 1176.9L229.6 1181Z" fill="#F2F2F2"/>
<path d="M240.1 1183.8H246.3V1186H237.5V1173.9H240.1V1183.8V1183.8Z" fill="#F2F2F2"/>
<path d="M157.7 1189.8H160.7L165.2 1202H162.3L161.4 1199.2H157L156 1202H153.1L157.7 1189.8ZM157.8 1197H160.7L159.3 1192.9L157.8 1197Z" fill="#F2F2F2"/>
<path d="M168.4 1197.5V1202H165.8V1189.9H171.7C174.4 1189.9 175.7 1191.6 175.7 1193.7C175.7 1195.8 174.4 1197.5 171.7 1197.5H168.4ZM168.4 1192.1V1195.3H171.1C172.1 1195.3 173 1195.2 173 1193.7C173 1192.2 172 1192.1 171.1 1192.1H168.4V1192.1Z" fill="#F2F2F2"/>
<path d="M179.5 1197.5V1202H176.9V1189.9H182.8C185.5 1189.9 186.8 1191.6 186.8 1193.7C186.8 1195.8 185.5 1197.5 182.8 1197.5H179.5ZM179.5 1192.1V1195.3H182.2C183.2 1195.3 184.1 1195.2 184.1 1193.7C184.1 1192.2 183.1 1192.1 182.2 1192.1H179.5V1192.1Z" fill="#F2F2F2"/>
<path d="M198.3 1202H195.2L192.2 1197.3H190.6V1202H188V1189.9H193.9C196.6 1189.9 197.9 1191.5 197.9 1193.6C197.9 1195.4 196.9 1196.8 195 1197.2L198.3 1202ZM190.7 1192.1V1195.2H193.4C194.4 1195.2 195.3 1195 195.3 1193.7C195.3 1192.3 194.3 1192.2 193.4 1192.2H190.7V1192.1Z" fill="#F2F2F2"/>
<path d="M205.8 1189.8C210.3 1189.8 212.4 1192.6 212.4 1196C212.4 1199.4 210.3 1202.2 205.8 1202.2C201.3 1202.2 199.2 1199.4 199.2 1196C199.2 1192.6 201.3 1189.8 205.8 1189.8ZM205.8 1200.1C208.1 1200.1 209.8 1198.6 209.8 1196C209.8 1193.4 208.2 1191.9 205.8 1191.9C203.5 1191.9 201.8 1193.4 201.8 1196C201.8 1198.7 203.5 1200.1 205.8 1200.1Z" fill="#F2F2F2"/>
<path d="M211.9 1189.9H214.8L218 1199L221.1 1189.9H224L219.4 1202H216.6L211.9 1189.9Z" fill="#F2F2F2"/>
<path d="M227.1 1194.7H232.4V1196.9H227.1V1199.9H233.3V1202.1H224.5V1190H233.2V1192.2H227.1V1194.7V1194.7Z" fill="#F2F2F2"/>
<path d="M234.8 1202V1189.9H239C243.5 1189.9 245.8 1192.6 245.8 1195.9C245.8 1199.3 243.5 1201.9 239 1201.9H234.8V1202ZM239 1199.8C241.3 1199.8 243.1 1198.6 243.1 1195.9C243.1 1193.3 241.3 1192 239 1192H237.4V1199.7H239V1199.8Z" fill="#F2F2F2"/>
<path d="M198 973L214 973L206 983L198 973Z" fill="#7000FF"/>
<path d="M205.95 975.55L205.95 892.05" stroke="#7000FF" stroke-width="2"/>
<path d="M132.2 197H267.8C270.6 197 272.8 199.2 272.8 202V252C272.8 254.8 270.6 257 267.8 257H132.2C129.4 257 127.2 254.8 127.2 252V202C127.2 199.2 129.4 197 132.2 197Z" fill="#7000FF"/>
<path d="M156.5 219.5V224H153.9V211.9H159.8C162.5 211.9 163.8 213.6 163.8 215.7C163.8 217.8 162.5 219.5 159.8 219.5H156.5V219.5ZM156.5 214.1V217.3H159.2C160.2 217.3 161.1 217.2 161.1 215.7C161.1 214.2 160.1 214.1 159.2 214.1H156.5Z" fill="#F2F2F2"/>
<path d="M175.3 224H172.2L169.2 219.3H167.6V224H165V211.9H170.9C173.6 211.9 174.9 213.5 174.9 215.6C174.9 217.4 173.9 218.8 172 219.2L175.3 224ZM167.7 214.1V217.2H170.4C171.4 217.2 172.3 217 172.3 215.7C172.3 214.3 171.3 214.2 170.4 214.2H167.7V214.1Z" fill="#F2F2F2"/>
<path d="M182.8 211.8C187.3 211.8 189.4 214.6 189.4 218C189.4 221.4 187.3 224.2 182.8 224.2C178.3 224.2 176.2 221.4 176.2 218C176.2 214.6 178.3 211.8 182.8 211.8ZM182.8 222.1C185.1 222.1 186.8 220.6 186.8 218C186.8 215.4 185.2 213.9 182.8 213.9C180.5 213.9 178.8 215.4 178.8 218C178.8 220.7 180.5 222.1 182.8 222.1Z" fill="#F2F2F2"/>
<path d="M193.4 219.5V224H190.8V211.9H196.7C199.4 211.9 200.7 213.6 200.7 215.7C200.7 217.8 199.4 219.5 196.7 219.5H193.4V219.5ZM193.4 214.1V217.3H196.1C197.1 217.3 198 217.2 198 215.7C198 214.2 197 214.1 196.1 214.1H193.4Z" fill="#F2F2F2"/>
<path d="M208.2 211.8C212.7 211.8 214.8 214.6 214.8 218C214.8 221.4 212.7 224.2 208.2 224.2C203.7 224.2 201.6 221.4 201.6 218C201.6 214.6 203.7 211.8 208.2 211.8ZM208.2 222.1C210.5 222.1 212.2 220.6 212.2 218C212.2 215.4 210.6 213.9 208.2 213.9C205.9 213.9 204.2 215.4 204.2 218C204.2 220.7 205.8 222.1 208.2 222.1Z" fill="#F2F2F2"/>
<path d="M219.9 219C217.8 218.4 216 217.6 216 215.2C216 212.6 218.2 211.8 220.4 211.8C222.3 211.8 223.6 212.1 224.7 212.6L224.2 214.8C222.7 214.2 221.5 213.9 220.1 213.9C219.4 213.9 218.7 214.1 218.7 214.9C218.7 215.6 219.1 216 220.8 216.5C223.9 217.5 224.9 218.7 224.9 220.5C224.9 223.6 222.2 224.3 220.3 224.3C218.4 224.3 216.9 223.8 215.8 223.3L216.1 221.2C217.6 221.8 219 222.2 220.3 222.2C221.9 222.2 222.1 221.5 222.1 220.8C222.1 219.9 221.8 219.5 219.9 219Z" fill="#F2F2F2"/>
<path d="M229.5 211.8H232.5L237 224H234.1L233.2 221.2H228.8L227.8 224H224.9L229.5 211.8ZM229.6 219H232.5L231.1 214.9L229.6 219Z" fill="#F2F2F2"/>
<path d="M240.1 221.8H246.3V224H237.5V211.9H240.1V221.8V221.8Z" fill="#F2F2F2"/>
<path d="M169.9 240H166.8L163.8 235.3H162.2V240H159.6V227.9H165.5C168.2 227.9 169.5 229.5 169.5 231.6C169.5 233.4 168.5 234.8 166.6 235.2L169.9 240ZM162.3 230.1V233.2H165C166 233.2 166.9 233 166.9 231.7C166.9 230.3 165.9 230.2 165 230.2H162.3V230.1Z" fill="#F2F2F2"/>
<path d="M173.8 232.7H179.1V234.9H173.8V237.9H180V240.1H171.2V228H179.9V230.2H173.8V232.7V232.7Z" fill="#F2F2F2"/>
<path d="M183.7 234C183.7 236.7 185.5 238.1 187.8 238.1C189.2 238.1 190.3 237.9 191.7 237.4L192.2 239.5C191.1 239.9 189.6 240.2 187.9 240.2C183.4 240.2 181.1 237.4 181.1 234C181.1 230.6 183.4 227.8 187.9 227.8C189.6 227.8 191.1 228.1 192.2 228.5L191.7 230.5C190.3 230 189.2 229.8 187.9 229.8C185.5 229.8 183.7 231.3 183.7 234Z" fill="#F2F2F2"/>
<path d="M196 232.7H201.3V234.9H196V237.9H202.2V240.1H193.4V228H202.1V230.2H196V232.7Z" fill="#F2F2F2"/>
<path d="M206.3 240H203.7V227.9H206.3V240Z" fill="#F2F2F2"/>
<path d="M206.8 227.9H209.7L212.9 237L216 227.9H218.9L214.3 240H211.5L206.8 227.9Z" fill="#F2F2F2"/>
<path d="M222 232.7H227.3V234.9H222V237.9H228.2V240.1H219.4V228H228.1V230.2H222V232.7Z" fill="#F2F2F2"/>
<path d="M229.7 240V227.9H233.9C238.4 227.9 240.7 230.6 240.7 233.9C240.7 237.3 238.5 239.9 233.9 239.9H229.7V240ZM233.9 237.8C236.2 237.8 238 236.6 238 233.9C238 231.3 236.2 230 233.9 230H232.3V237.7H233.9V237.8Z" fill="#F2F2F2"/>
<path d="M254.3 164.6H151.9C147.9 164.6 145.1 160.6 146.5 156.6L162.3 103.2C163.1 100.6 165.4 98.9 167.7 98.9H270.4C274.4 98.9 277.2 102.9 275.8 106.9L260 160.3C259.1 162.9 256.9 164.6 254.3 164.6Z" stroke="white" stroke-width="2" stroke-linecap="round" stroke-linejoin="round"/>
<path d="M146.5 156.3L162.3 102.9C163.1 100.3 165.4 98.6 167.7 98.6H260.5V75.5C260.5 72.4 258 69.8 254.9 69.8H189.7C187.4 69.8 185.5 68.7 184.6 66.7L180.6 58.4C179.8 56.4 177.8 55.3 175.5 55.3H151.8C148.7 55.3 146.2 57.9 146.2 61V159C146.2 161.6 147.9 163.9 150.4 164.4C147.4 163.4 145.4 159.7 146.5 156.3Z" stroke="white" stroke-width="2" stroke-linecap="round" stroke-linejoin="round"/>
<path d="M175 1036.6H118.8" stroke="white" stroke-width="2" stroke-linecap="round" stroke-linejoin="round"/>
<path d="M291.7 1027H195.5C193 1027 190.5 1028.8 189.8 1031.3L171.7 1095.8C171 1098.3 172.4 1100.1 174.9 1100.1H271.1C273.6 1100.1 276.1 1098.3 276.8 1095.8L294.9 1031.3C295.2 1029.1 293.8 1027 291.7 1027Z" stroke="white" stroke-width="2" stroke-linecap="round" stroke-linejoin="round"/>
<path d="M192 1028.4L227.5 1066.7C229.6 1069.2 233.9 1069.2 237.1 1066.7L293.9 1028.4" stroke="white" stroke-width="2" stroke-linecap="round" stroke-linejoin="round"/>
<path d="M168 1061H111.8" stroke="white" stroke-width="2" stroke-linecap="round" stroke-linejoin="round"/>
<path d="M161 1085.8H104.8" stroke="white" stroke-width="2" stroke-linecap="round" stroke-linejoin="round"/>
<path d="M276.7 1116C291.446 1116 303.4 1104.14 303.4 1089.5C303.4 1074.86 291.446 1063 276.7 1063C261.954 1063 250 1074.86 250 1089.5C250 1104.14 261.954 1116 276.7 1116Z" fill="#1D1E26"/>
<path d="M276.7 1116C291.446 1116 303.4 1104.14 303.4 1089.5C303.4 1074.86 291.446 1063 276.7 1063C261.954 1063 250 1074.86 250 1089.5C250 1104.14 261.954 1116 276.7 1116Z" stroke="white" stroke-width="2"/>
<path d="M267.1 1088.5L274.4 1098.2L285.3 1080" stroke="white" stroke-width="2"/>
<path d="M278.7 538H275.6L272.6 533.3H271V538H268.4V525.9H274.3C277 525.9 278.3 527.5 278.3 529.6C278.3 531.4 277.3 532.8 275.4 533.2L278.7 538ZM271 528.1V531.2H273.7C274.7 531.2 275.6 531 275.6 529.7C275.6 528.3 274.6 528.2 273.7 528.2H271V528.1Z" fill="#F2F2F2"/>
<path d="M282.5 530.7H287.8V532.9H282.5V535.9H288.7V538.1H279.9V526H288.6V528.2H282.5V530.7V530.7Z" fill="#F2F2F2"/>
<path d="M295.5 534.6C295.5 536.9 295.2 538.2 292 538.2C290.9 538.2 289.9 537.9 289.3 537.7L289.8 535.7C290.3 535.8 291.2 536.1 291.6 536.1C292.6 536.1 292.9 535.8 292.9 534.6V526H295.5V534.6V534.6Z" fill="#F2F2F2"/>
<path d="M299.9 530.7H305.2V532.9H299.9V535.9H306.1V538.1H297.3V526H306V528.2H299.9V530.7V530.7Z" fill="#F2F2F2"/>
<path d="M309.8 532C309.8 534.7 311.6 536.1 313.9 536.1C315.3 536.1 316.4 535.9 317.8 535.4L318.3 537.5C317.2 537.9 315.7 538.2 314 538.2C309.5 538.2 307.2 535.4 307.2 532C307.2 528.6 309.5 525.8 314 525.8C315.7 525.8 317.2 526.1 318.3 526.5L317.9 528.5C316.5 528 315.4 527.8 314.1 527.8C311.6 527.8 309.8 529.3 309.8 532Z" fill="#F2F2F2"/>
<path d="M325.1 538H322.5V528.1H318.8V525.9H328.8V528.1H325.1V538Z" fill="#F2F2F2"/>
<path d="M333.7 533C331.6 532.4 329.8 531.6 329.8 529.2C329.8 526.6 332 525.8 334.2 525.8C336.1 525.8 337.4 526.1 338.5 526.6L338 528.8C336.5 528.2 335.3 527.9 333.9 527.9C333.2 527.9 332.5 528.1 332.5 528.9C332.5 529.6 332.9 530 334.6 530.5C337.7 531.5 338.7 532.7 338.7 534.5C338.7 537.6 336 538.3 334.1 538.3C332.2 538.3 330.7 537.8 329.6 537.3L329.9 535.2C331.4 535.8 332.8 536.2 334.1 536.2C335.7 536.2 335.9 535.5 335.9 534.8C335.8 533.9 335.5 533.5 333.7 533Z" fill="#F2F2F2"/>
<path d="M64.2 525.8H67.2L71.7 538H68.8L67.9 535.2H63.5L62.5 538H59.6L64.2 525.8ZM64.3 533H67.2L65.8 528.9L64.3 533Z" fill="#F2F2F2"/>
<path d="M74.8999 533.5V538H72.2999V525.9H78.1999C80.8999 525.9 82.1999 527.6 82.1999 529.7C82.1999 531.8 80.8999 533.5 78.1999 533.5H74.8999V533.5ZM74.8999 528.1V531.3H77.5999C78.5999 531.3 79.4999 531.2 79.4999 529.7C79.4999 528.2 78.4999 528.1 77.5999 528.1H74.8999Z" fill="#F2F2F2"/>
<path d="M86 533.5V538H83.4V525.9H89.3C92 525.9 93.3 527.6 93.3 529.7C93.3 531.8 92 533.5 89.3 533.5H86V533.5ZM86 528.1V531.3H88.7C89.7 531.3 90.6 531.2 90.6 529.7C90.6 528.2 89.6 528.1 88.7 528.1H86Z" fill="#F2F2F2"/>
<path d="M104.8 538H101.7L98.7 533.3H97.1V538H94.5V525.9H100.4C103.1 525.9 104.4 527.5 104.4 529.6C104.4 531.4 103.4 532.8 101.5 533.2L104.8 538ZM97.2 528.1V531.2H99.9C100.9 531.2 101.8 531 101.8 529.7C101.8 528.3 100.8 528.2 99.9 528.2H97.2V528.1Z" fill="#F2F2F2"/>
<path d="M112.3 525.8C116.8 525.8 118.9 528.6 118.9 532C118.9 535.4 116.8 538.2 112.3 538.2C107.8 538.2 105.7 535.4 105.7 532C105.7 528.6 107.8 525.8 112.3 525.8ZM112.3 536.1C114.6 536.1 116.3 534.6 116.3 532C116.3 529.4 114.7 527.9 112.3 527.9C110 527.9 108.3 529.4 108.3 532C108.3 534.7 110 536.1 112.3 536.1Z" fill="#F2F2F2"/>
<path d="M118.4 525.9H121.3L124.5 535L127.6 525.9H130.5L125.9 538H123.1L118.4 525.9Z" fill="#F2F2F2"/>
<path d="M133.6 530.7H138.9V532.9H133.6V535.9H139.8V538.1H131V526H139.7V528.2H133.6V530.7Z" fill="#F2F2F2"/>
<path d="M145 533C142.9 532.4 141.1 531.6 141.1 529.2C141.1 526.6 143.3 525.8 145.5 525.8C147.4 525.8 148.7 526.1 149.8 526.6L149.3 528.8C147.8 528.2 146.6 527.9 145.2 527.9C144.5 527.9 143.8 528.1 143.8 528.9C143.8 529.6 144.2 530 145.9 530.5C149 531.5 150 532.7 150 534.5C150 537.6 147.3 538.3 145.4 538.3C143.5 538.3 142 537.8 140.9 537.3L141.2 535.2C142.7 535.8 144.1 536.2 145.4 536.2C147 536.2 147.2 535.5 147.2 534.8C147.2 533.9 146.9 533.5 145 533Z" fill="#F2F2F2"/>
<path d="M105.511 510C120.257 510 132.211 498.136 132.211 483.5C132.211 468.864 120.257 457 105.511 457C90.7648 457 78.8108 468.864 78.8108 483.5C78.8108 498.136 90.7648 510 105.511 510Z" stroke="white" stroke-width="2"/>
<path d="M95.9108 482.5L103.211 492.2L114.111 474" stroke="white" stroke-width="2"/>
<path d="M303.479 457C288.844 457 276.979 468.954 276.979 483.7C276.979 498.446 288.844 510.4 303.479 510.4C318.115 510.4 329.979 498.446 329.979 483.7C329.979 468.954 318.115 457 303.479 457Z" stroke="white" stroke-width="2"/>
<path d="M296.1 490.8L310.8 476.3" stroke="white" stroke-width="2" stroke-linecap="square"/>
<path d="M310.8 490.7L296 476.2" stroke="white" stroke-width="2" stroke-linecap="square"/>
<path d="M238.8 390L285 390C296 390 305 399 305 410L305 441" stroke="#7000FF" stroke-width="2"/>
<path d="M297 434L313 434L305 444L297 434Z" fill="#7000FF"/>
<path d="M96.9998 434L113 434L105 444L96.9998 434Z" fill="#7000FF"/>
<path d="M271.154 390L224.954 390C213.954 390 204.954 381 204.954 370L204.954 307" stroke="#7000FF" stroke-width="2"/>
<path d="M175.2 390L125 390C114 390 105 399 105 410L105 441" stroke="#7000FF" stroke-width="2"/>
<path d="M140.933 390L185.033 390C196.033 390 205.033 381 205.033 370L205.033 307" stroke="#7000FF" stroke-width="2"/>
<path d="M206 785.476L206 620.976C206 609.976 197 600.976 186 600.976L148.1 600.976" stroke="#7000FF" stroke-width="2"/>
<path d="M104.966 553.901L104.966 581.301C104.966 592.301 113.966 601.301 124.966 601.301L164.066 601.301" stroke="#7000FF" stroke-width="2"/>
</svg>
