<?xml version="1.0" encoding="utf-8"?>
<svg version="1.1" xmlns="http://www.w3.org/2000/svg" xmlns:xlink="http://www.w3.org/1999/xlink" height="400" width="400">
  <defs>
    <rect id="rect-1" opacity="1" x="0" y="0" width="400" height="400"/>
    <path id="path-12" opacity="1" fill-rule="evenodd" d="M100.00000000000023 90.24730044325042L299.9999999999997 90.24730044325042L299.9999999999997 309.75269955675145L100.00000000000023 309.75269955675145L100.00000000000023 90.24730044325042Z"/>
    <mask id="mask-13" maskUnits="userSpaceOnUse" maskContentUnits="userSpaceOnUse">
      <rect opacity="1" x="0" y="0" width="400" height="400" fill="Black"/>
      <use xlink:href="#path-12" fill="White"/>
    </mask>
  </defs>
  <g opacity="1">
    <g opacity="1"/>
    <g opacity="1">
      <g opacity="1">
        <path fill="rgb(112,0,255)" fill-opacity="1" opacity="1" fill-rule="evenodd" d="M153.95700706869138 249.6717529296875L165.10581077962888 249.6717529296875C168.73850120931638 249.6717529296875 171.69345726400388 246.706787109375 171.69345726400388 243.062744140625L171.69345726400388 236.84765625C171.69345726400388 233.20263671875 168.73850120931638 230.2366943359375 165.10581077962888 230.2366943359375L153.95700706869138 230.2366943359375C150.32419456869138 230.2366943359375 147.36923851400388 233.20263671875 147.36923851400388 236.84765625L147.36923851400388 243.062744140625C147.36923851400388 246.706787109375 150.32419456869138 249.6717529296875 153.95700706869138 249.6717529296875ZM149.46591820150388 236.84765625C149.46591820150388 234.3634033203125 151.48105492025388 232.3414306640625 153.95688499837888 232.3414306640625L165.10581077962888 232.3414306640625C167.58066429525388 232.3414306640625 169.59677757650388 234.3634033203125 169.59677757650388 236.84765625L169.59677757650388 243.062744140625C169.59677757650388 245.5460205078125 167.58066429525388 247.56884765625 165.10581077962888 247.56884765625L153.95688499837888 247.56884765625C151.48105492025388 247.56884765625 149.46591820150388 245.5460205078125 149.46591820150388 243.062744140625L149.46591820150388 236.84765625Z"/>
      </g>
      <g opacity="1">
        <path fill="rgb(112,0,255)" fill-opacity="1" opacity="1" fill-rule="evenodd" d="M175.47739851291527 263.2480788740267L148.4180159076848 263.2480788740267C147.83815828001292 263.2480788740267 147.36966403778797 262.77800051691787 147.36966403778797 262.1952189471416C147.36966403778797 261.61436392800914 147.83815828001292 261.1433222955784 148.4180159076848 261.1433222955784L175.47739851291527 261.1433222955784C176.05725614058713 261.1433222955784 176.52575038281208 261.61436392800914 176.52575038281208 262.1952189471416C176.52575038281208 262.77800051691787 176.05725614058713 263.2480788740267 175.47739851291527 263.2480788740267"/>
      </g>
      <g opacity="1">
        <path fill="rgb(112,0,255)" fill-opacity="1" opacity="1" fill-rule="evenodd" d="M173.79033922631336 292.71072154351515L148.41772789892914 292.71072154351515C147.83787027125726 292.71072154351515 147.3693760290323 292.2406431864064 147.3693760290323 291.65882489195207C147.3693760290323 291.07796987281966 147.83787027125726 290.60596496506696 148.41772789892914 290.60596496506696L173.79033922631336 290.60596496506696C174.37019685398525 290.60596496506696 174.8386910962102 291.07796987281966 174.8386910962102 291.65882489195207C174.8386910962102 292.2406431864064 174.37019685398525 292.71072154351515 173.79033922631336 292.71072154351515"/>
      </g>
      <g opacity="1">
        <path fill="rgb(112,0,255)" fill-opacity="1" opacity="1" fill-rule="evenodd" d="M185.12175570137458 292.71072154351515L178.35739006465914 292.71072154351515C177.77753243698726 292.71072154351515 177.3080781655774 292.2406431864064 177.3080781655774 291.65882489195207C177.3080781655774 291.07796987281966 177.77753243698726 290.60596496506696 178.35739006465914 290.60596496506696L185.12175570137458 290.60596496506696C185.70161332904647 290.60596496506696 186.17010757127144 291.07796987281966 186.17010757127144 291.65882489195207C186.17010757127144 292.2406431864064 185.70161332904647 292.71072154351515 185.12175570137458 292.71072154351515"/>
      </g>
      <g opacity="1">
        <path fill="rgb(112,0,255)" fill-opacity="1" opacity="1" fill-rule="evenodd" d="M221.53815876002596 292.71072154351515L188.81748405151484 292.71072154351515C188.23858645302784 292.71072154351515 187.7700922108029 292.2406431864064 187.7700922108029 291.65882489195207C187.7700922108029 291.07796987281966 188.23858645302784 290.60596496506696 188.81748405151484 290.60596496506696L221.53815876002596 290.60596496506696C222.11801638769785 290.60596496506696 222.5865106299228 291.07796987281966 222.5865106299228 291.65882489195207C222.5865106299228 292.2406431864064 222.11801638769785 292.71072154351515 221.53815876002596 292.71072154351515"/>
      </g>
      <g opacity="1">
        <path fill="rgb(112,0,255)" fill-opacity="1" opacity="1" fill-rule="evenodd" d="M161.30765575273605 277.98782886784454L147.77796445012066 277.98782886784454C147.19810682244878 277.98782886784454 146.72961258022383 277.5167872354138 146.72961258022383 276.9349689409595C146.72961258022383 276.35411392182704 147.19810682244878 275.8830722893963 147.77796445012066 275.8830722893963L161.30765575273605 275.8830722893963C161.8875133804079 275.8830722893963 162.3560076226329 276.35411392182704 162.3560076226329 276.9349689409595C162.3560076226329 277.5167872354138 161.8875133804079 277.98782886784454 161.30765575273605 277.98782886784454"/>
      </g>
      <g opacity="1">
        <path fill="rgb(112,0,255)" fill-opacity="1" opacity="1" fill-rule="evenodd" d="M231.3920903195462 261.14370760573L185.33181008702743 261.14370760573C184.75195245935555 261.14370760573 184.2834582171306 261.61378596283885 184.2834582171306 262.19560425729316C184.2834582171306 262.7774225517475 184.75195245935555 263.24846418417826 185.33181008702743 263.24846418417826L231.3920903195462 263.24846418417826C231.9719479472181 263.24846418417826 232.44044218944308 262.7774225517475 232.44044218944308 262.19560425729316C232.44044218944308 261.61378596283885 231.9719479472181 261.14370760573 231.3920903195462 261.14370760573"/>
      </g>
      <g opacity="1">
        <path fill="rgb(112,0,255)" fill-opacity="1" opacity="1" fill-rule="evenodd" d="M237.94748558431638 232.007568359375C239.59677757650388 230.89111328125 241.58798851400388 230.237060546875 243.41684593587888 230.237060546875C248.43869652181638 230.237060546875 252.52561058431638 234.3377685546875 252.52561058431638 239.3765869140625C252.52561058431638 244.41650390625 248.43869652181638 248.51708984375 243.41684593587888 248.51708984375C241.58798851400388 248.51708984375 239.59677757650388 247.863037109375 237.94748558431638 246.74658203125C236.29819359212888 247.863037109375 234.30612816244138 248.51708984375 232.47727074056638 248.51708984375C227.45529808431638 248.51708984375 223.36850609212888 244.41650390625 223.36850609212888 239.3765869140625C223.36850609212888 234.3377685546875 227.45529808431638 230.237060546875 232.47727074056638 230.237060546875C234.30612816244138 230.237060546875 236.29819359212888 230.89111328125 237.94748558431638 232.007568359375ZM225.46616234212888 239.3765869140625C225.46616234212888 235.4974365234375 228.61118187337888 232.341796875 232.47727074056638 232.341796875C234.08237327962888 232.341796875 235.86521019369138 233.0015869140625 237.24094261556638 234.094970703125C238.60800804525388 235.4869384765625 239.48935570150388 237.5531005859375 239.48935570150388 239.3765869140625C239.48935570150388 241.2010498046875 238.61093773275388 243.266357421875 237.24667992025388 244.658203125C235.85654320150388 245.75634765625 234.07761253744138 246.412353515625 232.47727074056638 246.412353515625C228.61118187337888 246.412353515625 225.46616234212888 243.2567138671875 225.46616234212888 239.3765869140625ZM243.41684593587888 246.412353515625C242.15439476400388 246.412353515625 240.78159202962888 246.00390625 239.57480492025388 245.2930908203125C240.86508812337888 243.744140625 241.58603538900388 241.6566162109375 241.58603538900388 239.3765869140625C241.58603538900388 236.992431640625 240.90634788900388 235.017822265625 239.57578148275388 233.4669189453125C240.78159202962888 232.753173828125 242.15439476400388 232.341796875 243.41684593587888 232.341796875C247.28293480306638 232.341796875 250.42893089681638 235.4974365234375 250.42893089681638 239.3765869140625C250.42893089681638 243.2567138671875 247.28293480306638 246.412353515625 243.41684593587888 246.412353515625Z"/>
      </g>
      <g opacity="1">
        <path fill="rgb(112,0,255)" fill-opacity="1" opacity="1" fill-rule="evenodd" d="M251.47724490824675 261.43249754724275L237.40513711616978 261.43249754724275C236.82623951768278 261.43249754724275 236.35678524627292 261.9025759043516 236.35678524627292 262.4843941988059C236.35678524627292 263.0652492179383 236.82623951768278 263.537254125691 237.40513711616978 263.537254125691L251.47724490824675 263.537254125691C252.05710253591863 263.537254125691 252.5255967781436 263.0652492179383 252.5255967781436 262.4843941988059C252.5255967781436 261.9025759043516 252.05710253591863 261.43249754724275 251.47724490824675 261.43249754724275"/>
      </g>
      <g opacity="1">
        <path fill="rgb(112,0,255)" fill-opacity="1" opacity="1" fill-rule="evenodd" d="M214.10275902181638 169.8544921875C214.10275902181638 170.4364013671875 213.63327659994138 170.9073486328125 213.05441917806638 170.9073486328125L200.99643577962888 170.9073486328125L200.99643577962888 185.4259033203125L204.77036156087888 185.4259033203125C210.00339378744138 185.4259033203125 214.10275902181638 189.5390625 214.10275902181638 194.7879638671875C214.10275902181638 200.038818359375 210.00339378744138 204.1510009765625 204.77036156087888 204.1510009765625L200.99643577962888 204.1510009765625L200.99643577962888 210.67431640625C200.99643577962888 211.255126953125 200.52792992025388 211.7261962890625 199.94809593587888 211.7261962890625C199.36826195150388 211.7261962890625 198.89975609212888 211.255126953125 198.89975609212888 210.67431640625L198.89975609212888 204.1510009765625L186.94638695150388 204.1510009765625C186.36655296712888 204.1510009765625 185.89804710775388 203.680908203125 185.89804710775388 203.10009765625C185.89804710775388 202.5181884765625 186.36655296712888 202.0472412109375 186.94638695150388 202.0472412109375L198.89975609212888 202.0472412109375L198.89975609212888 187.5296630859375L195.22959007650388 187.5296630859375C189.99643577962888 187.5296630859375 185.89804710775388 183.41748046875 185.89804710775388 178.1666259765625C185.89804710775388 172.915771484375 189.99643577962888 168.8026123046875 195.22959007650388 168.8026123046875L198.89975609212888 168.8026123046875L198.89975609212888 162.28125C198.89975609212888 161.699462890625 199.36826195150388 161.2293701171875 199.94809593587888 161.2293701171875C200.52792992025388 161.2293701171875 200.99643577962888 161.699462890625 200.99643577962888 162.28125L200.99643577962888 168.8026123046875L213.05441917806638 168.8026123046875C213.63327659994138 168.8026123046875 214.10275902181638 169.272705078125 214.10275902181638 169.8544921875ZM198.89975609212888 185.4259033203125L195.22946800619138 185.4259033203125C191.17343773275388 185.4259033203125 187.99472679525388 182.236572265625 187.99472679525388 178.166748046875C187.99472679525388 174.095947265625 191.17343773275388 170.907470703125 195.22946800619138 170.907470703125L198.89975609212888 170.907470703125L198.89975609212888 185.4259033203125ZM204.77036156087888 187.52978515625C208.82736839681638 187.52978515625 212.00510277181638 190.71728515625 212.00510277181638 194.7880859375C212.00510277181638 198.85791015625 208.82736839681638 202.04736328125 204.77036156087888 202.04736328125L200.99643577962888 202.04736328125L200.99643577962888 187.52978515625L204.77036156087888 187.52978515625Z"/>
      </g>
      <g opacity="1">
        <g opacity="1"/>
        <g mask="url(#mask-13)">
          <g opacity="1">
            <path fill="rgb(112,0,255)" fill-opacity="1" opacity="1" fill-rule="evenodd" d="M299.2586428108789 142.7958984375C299.5245119515039 142.8768310546875 299.7472902718164 143.061767578125 299.8769289436914 143.309326171875C300.0083986702539 143.554931640625 300.0362307015039 143.843017578125 299.9537111702539 144.10986328125L290.4292971077539 175.32666015625L290.4292971077539 232.7003173828125C290.4292971077539 233.2830810546875 289.9607912483789 233.753173828125 289.3808351936914 233.753173828125L267.2081057015039 233.753173828125L267.2081057015039 300.902099609375C267.2081057015039 305.7821044921875 263.2498537483789 309.752685546875 258.3863283577539 309.752685546875L141.50852074056638 309.752685546875C136.64499534994138 309.752685546875 132.68784202962888 305.7821044921875 132.68784202962888 300.902099609375L132.68784202962888 233.753173828125L110.61862816244138 233.753173828125C110.03879417806638 233.753173828125 109.56931175619138 233.2830810546875 109.56931175619138 232.7003173828125L109.56931175619138 183.414306640625L100.74191917806638 180.7027587890625C100.18796409994138 180.533203125 99.87692894369138 179.944580078125 100.04587425619138 179.3887939453125L109.56931175619138 148.1719970703125L109.56931175619138 140.2547607421875C109.56931175619138 139.6729736328125 110.03879417806638 139.201904296875 110.61862816244138 139.201904296875L112.30734886556638 139.201904296875L127.01499046712888 90.990966796875C127.09567894369138 90.72509765625 127.28085960775388 90.5006103515625 127.52573265462888 90.37060546875C127.77048363119138 90.2376708984375 128.05954613119138 90.212646484375 128.32443870931638 90.2935791015625L287.5568605843164 139.201904296875L289.3808351936914 139.201904296875C289.8964601936914 139.201904296875 290.3044191780664 139.5823974609375 290.3936525765039 140.07373046875L299.2586428108789 142.7958984375ZM128.71225609212888 92.6131591796875L280.3930422249414 139.2020263671875L261.4900881233789 139.2020263671875L151.55332054525388 105.433349609375C150.99643577962888 105.259033203125 150.41367210775388 105.576904296875 150.24375023275388 106.130859375C148.18637718587888 112.873779296875 141.04868187337888 116.6805419921875 134.32553734212888 114.6163330078125C134.05966820150388 114.534423828125 133.77158226400388 114.5604248046875 133.52683128744138 114.693359375C133.28195824056638 114.8243408203125 133.09665550619138 115.0478515625 133.01608909994138 115.313720703125L125.72849144369138 139.2020263671875L114.49997581869138 139.2020263671875L128.71225609212888 92.6131591796875ZM127.92221702962888 139.201904296875L254.32639183431638 139.201904296875L151.90561546712888 107.7423095703125C149.59201683431638 113.7801513671875 143.67246117025388 117.535888671875 137.41684593587888 117.2672119140625C136.52316917806638 117.2296142578125 135.62265648275388 117.1092529296875 134.72495140462888 116.901123046875L127.92221702962888 139.201904296875ZM267.2079836311914 231.6492919921875L288.3324953499414 231.6492919921875L288.3324953499414 141.306640625L111.66696800619138 141.306640625L111.66696800619138 231.6492919921875L132.68771995931638 231.6492919921875L132.68771995931638 224.068359375C132.68771995931638 222.1119384765625 133.32614769369138 220.232666015625 134.49545921712888 218.6951904296875C132.22214378744138 214.710205078125 128.05368675619138 212.2576904296875 123.45322288900388 212.2576904296875C122.87338890462888 212.2576904296875 122.40390648275388 211.78759765625 122.40390648275388 211.205810546875L122.40390648275388 161.750244140625C122.40390648275388 161.16845703125 122.87338890462888 160.6973876953125 123.45322288900388 160.6973876953125C130.47971214681638 160.6973876953125 136.19760765462888 154.9610595703125 136.19760765462888 147.909912109375C136.19760765462888 147.328125 136.66611351400388 146.8570556640625 137.24594749837888 146.8570556640625L262.7544924202539 146.8570556640625C263.3333498421289 146.8570556640625 263.8028322640039 147.328125 263.8028322640039 147.909912109375C263.8028322640039 154.9610595703125 269.5207277718164 160.6973876953125 276.5472170296289 160.6973876953125C277.1270510140039 160.6973876953125 277.5955568733789 161.16845703125 277.5955568733789 161.750244140625L277.5955568733789 211.205810546875C277.5955568733789 211.78759765625 277.1270510140039 212.2576904296875 276.5472170296289 212.2576904296875C271.9092775765039 212.2576904296875 267.7234865608789 214.740966796875 265.4607912483789 218.777099609375C266.5896974983789 220.298095703125 267.2079836311914 222.1505126953125 267.2079836311914 224.068359375L267.2079836311914 231.6492919921875ZM290.4291750374414 142.284423828125L290.4291750374414 168.1396484375L297.6418215218164 144.4990234375L290.4291750374414 142.284423828125ZM263.9487062874414 217.1934814453125C262.3906008186914 215.9248046875 260.4283205452539 215.216796875 258.3863283577539 215.216796875L141.50852074056638 215.216796875C139.50302757650388 215.216796875 137.56564964681638 215.9046630859375 136.01621117025388 217.1375732421875C133.49606956869138 213.0927734375 129.24509300619138 210.5208740234375 124.50156273275388 210.1904296875L124.50156273275388 162.7655029296875C131.85056175619138 162.248291015625 137.74228538900388 156.335693359375 138.25778831869138 148.9617919921875L261.7425295296289 148.9617919921875C262.2580324593164 156.335693359375 268.1487795296289 162.248291015625 275.4987551155664 162.7655029296875L275.4987551155664 210.189453125C270.7283693733789 210.5218505859375 266.4649416390039 213.114013671875 263.9487062874414 217.1934814453125ZM109.56931175619138 155.36083984375L109.56931175619138 181.2142333984375L102.35849632650388 178.9986572265625L109.56931175619138 155.36083984375ZM258.3862062874414 307.64892578125C262.0938478890039 307.64892578125 265.1103273811914 304.622314453125 265.1103273811914 300.9022216796875L265.1103273811914 224.0684814453125C265.1103273811914 222.41455078125 264.5102297249414 220.8231201171875 263.4235598030664 219.5902099609375C263.4225832405664 219.5902099609375 263.4216066780664 219.5892333984375 263.4206301155664 219.5882568359375C262.1485353890039 218.147216796875 260.3139406624414 217.3216552734375 258.3862062874414 217.3216552734375L141.50839867025388 217.3216552734375C139.58737816244138 217.3216552734375 137.82004417806638 218.1029052734375 136.53256859212888 219.523681640625C135.40463890462888 220.766357421875 134.78439964681638 222.3807373046875 134.78439964681638 224.0684814453125L134.78439964681638 300.9022216796875C134.78439964681638 304.622314453125 137.80075706869138 307.64892578125 141.50839867025388 307.64892578125L258.3862062874414 307.64892578125Z"/>
          </g>
        </g>
      </g>
    </g>
  </g>
</svg>