<svg width="400" height="1295" viewBox="0 0 400 1295" fill="none" xmlns="http://www.w3.org/2000/svg">
<path d="M5 0H395C397.8 0 400 2.2 400 5V1290C400 1292.8 397.8 1295 395 1295H5C2.2 1295 0 1292.8 0 1290V5C0 2.2 2.2 0 5 0Z" fill="#1D1E26"/>
<path d="M96 1157H304C306.8 1157 309 1159.2 309 1162V1212C309 1214.8 306.8 1217 304 1217H96C93.2 1217 91 1214.8 91 1212V1162C91 1159.2 93.2 1157 96 1157Z" fill="#7000FF"/>
<path d="M198 973L214 973L206 983L198 973Z" fill="#7000FF"/>
<path d="M205.95 975.55L205.95 892.05" stroke="#7000FF" stroke-width="2"/>
<path d="M132 197H267.6C270.4 197 272.6 199.2 272.6 202V252C272.6 254.8 270.4 257 267.6 257H132C129.2 257 127 254.8 127 252V202C127 199.2 129.2 197 132 197Z" fill="#7000FF"/>
<path d="M158.748 215.888C158.748 216.524 158.598 217.124 158.298 217.688C157.998 218.252 157.518 218.714 156.858 219.074C156.198 219.422 155.352 219.596 154.32 219.596H152.052V224.672H150V212.162H154.32C155.28 212.162 156.09 212.33 156.75 212.666C157.422 212.99 157.92 213.434 158.244 213.998C158.58 214.562 158.748 215.192 158.748 215.888ZM154.32 217.922C155.1 217.922 155.682 217.748 156.066 217.4C156.45 217.04 156.642 216.536 156.642 215.888C156.642 214.52 155.868 213.836 154.32 213.836H152.052V217.922H154.32Z" fill="white"/>
<path d="M167.203 224.672L164.323 219.668H162.757V224.672H160.705V212.162H165.025C165.985 212.162 166.795 212.33 167.455 212.666C168.127 213.002 168.625 213.452 168.949 214.016C169.285 214.58 169.453 215.21 169.453 215.906C169.453 216.722 169.213 217.466 168.733 218.138C168.265 218.798 167.539 219.248 166.555 219.488L169.651 224.672H167.203ZM162.757 218.03H165.025C165.793 218.03 166.369 217.838 166.753 217.454C167.149 217.07 167.347 216.554 167.347 215.906C167.347 215.258 167.155 214.754 166.771 214.394C166.387 214.022 165.805 213.836 165.025 213.836H162.757V218.03Z" fill="white"/>
<path d="M177.784 224.798C176.62 224.798 175.546 224.528 174.562 223.988C173.59 223.436 172.816 222.674 172.24 221.702C171.676 220.718 171.394 219.614 171.394 218.39C171.394 217.166 171.676 216.068 172.24 215.096C172.816 214.124 173.59 213.368 174.562 212.828C175.546 212.276 176.62 212 177.784 212C178.96 212 180.034 212.276 181.006 212.828C181.99 213.368 182.764 214.124 183.328 215.096C183.892 216.068 184.174 217.166 184.174 218.39C184.174 219.614 183.892 220.718 183.328 221.702C182.764 222.674 181.99 223.436 181.006 223.988C180.034 224.528 178.96 224.798 177.784 224.798ZM177.784 223.016C178.612 223.016 179.35 222.83 179.998 222.458C180.646 222.074 181.15 221.534 181.51 220.838C181.882 220.13 182.068 219.314 182.068 218.39C182.068 217.466 181.882 216.656 181.51 215.96C181.15 215.264 180.646 214.73 179.998 214.358C179.35 213.986 178.612 213.8 177.784 213.8C176.956 213.8 176.218 213.986 175.57 214.358C174.922 214.73 174.412 215.264 174.04 215.96C173.68 216.656 173.5 217.466 173.5 218.39C173.5 219.314 173.68 220.13 174.04 220.838C174.412 221.534 174.922 222.074 175.57 222.458C176.218 222.83 176.956 223.016 177.784 223.016Z" fill="white"/>
<path d="M194.941 215.888C194.941 216.524 194.791 217.124 194.491 217.688C194.191 218.252 193.711 218.714 193.051 219.074C192.391 219.422 191.545 219.596 190.513 219.596H188.245V224.672H186.193V212.162H190.513C191.473 212.162 192.283 212.33 192.943 212.666C193.615 212.99 194.113 213.434 194.437 213.998C194.773 214.562 194.941 215.192 194.941 215.888ZM190.513 217.922C191.293 217.922 191.875 217.748 192.259 217.4C192.643 217.04 192.835 216.536 192.835 215.888C192.835 214.52 192.061 213.836 190.513 213.836H188.245V217.922H190.513Z" fill="white"/>
<path d="M198.932 212.162V220.136C198.932 221.084 199.178 221.798 199.67 222.278C200.174 222.758 200.87 222.998 201.758 222.998C202.658 222.998 203.354 222.758 203.846 222.278C204.35 221.798 204.602 221.084 204.602 220.136V212.162H206.654V220.1C206.654 221.12 206.432 221.984 205.988 222.692C205.544 223.4 204.95 223.928 204.206 224.276C203.462 224.624 202.64 224.798 201.74 224.798C200.84 224.798 200.018 224.624 199.274 224.276C198.542 223.928 197.96 223.4 197.528 222.692C197.096 221.984 196.88 221.12 196.88 220.1V212.162H198.932Z" fill="white"/>
<path d="M211.378 213.818V217.49H215.698V219.164H211.378V222.998H216.238V224.672H209.326V212.144H216.238V213.818H211.378Z" fill="white"/>
<path d="M222.888 224.798C222.048 224.798 221.292 224.654 220.62 224.366C219.948 224.066 219.42 223.646 219.036 223.106C218.652 222.566 218.46 221.936 218.46 221.216H220.656C220.704 221.756 220.914 222.2 221.286 222.548C221.67 222.896 222.204 223.07 222.888 223.07C223.596 223.07 224.148 222.902 224.544 222.566C224.94 222.218 225.138 221.774 225.138 221.234C225.138 220.814 225.012 220.472 224.76 220.208C224.52 219.944 224.214 219.74 223.842 219.596C223.482 219.452 222.978 219.296 222.33 219.128C221.514 218.912 220.848 218.696 220.332 218.48C219.828 218.252 219.396 217.904 219.036 217.436C218.676 216.968 218.496 216.344 218.496 215.564C218.496 214.844 218.676 214.214 219.036 213.674C219.396 213.134 219.9 212.72 220.548 212.432C221.196 212.144 221.946 212 222.798 212C224.01 212 225 212.306 225.768 212.918C226.548 213.518 226.98 214.346 227.064 215.402H224.796C224.76 214.946 224.544 214.556 224.148 214.232C223.752 213.908 223.23 213.746 222.582 213.746C221.994 213.746 221.514 213.896 221.142 214.196C220.77 214.496 220.584 214.928 220.584 215.492C220.584 215.876 220.698 216.194 220.926 216.446C221.166 216.686 221.466 216.878 221.826 217.022C222.186 217.166 222.678 217.322 223.302 217.49C224.13 217.718 224.802 217.946 225.318 218.174C225.846 218.402 226.29 218.756 226.65 219.236C227.022 219.704 227.208 220.334 227.208 221.126C227.208 221.762 227.034 222.362 226.686 222.926C226.35 223.49 225.852 223.946 225.192 224.294C224.544 224.63 223.776 224.798 222.888 224.798Z" fill="white"/>
<path d="M237.711 212.162V213.836H234.381V224.672H232.329V213.836H228.981V212.162H237.711Z" fill="white"/>
<path d="M247.331 222.116H242.093L241.193 224.672H239.051L243.533 212.144H245.909L250.391 224.672H248.231L247.331 222.116ZM246.755 220.442L244.721 214.628L242.669 220.442H246.755Z" fill="white"/>
<path d="M167.229 242.672L164.349 237.668H162.783V242.672H160.731V230.162H165.051C166.011 230.162 166.821 230.33 167.481 230.666C168.153 231.002 168.651 231.452 168.975 232.016C169.311 232.58 169.479 233.21 169.479 233.906C169.479 234.722 169.239 235.466 168.759 236.138C168.291 236.798 167.565 237.248 166.581 237.488L169.677 242.672H167.229ZM162.783 236.03H165.051C165.819 236.03 166.395 235.838 166.779 235.454C167.175 235.07 167.373 234.554 167.373 233.906C167.373 233.258 167.181 232.754 166.797 232.394C166.413 232.022 165.831 231.836 165.051 231.836H162.783V236.03Z" fill="white"/>
<path d="M174.156 231.818V235.49H178.476V237.164H174.156V240.998H179.016V242.672H172.104V230.144H179.016V231.818H174.156Z" fill="white"/>
<path d="M180.86 236.39C180.86 235.166 181.142 234.068 181.706 233.096C182.282 232.124 183.056 231.368 184.028 230.828C185.012 230.276 186.086 230 187.25 230C188.582 230 189.764 230.33 190.796 230.99C191.84 231.638 192.596 232.562 193.064 233.762H190.598C190.274 233.102 189.824 232.61 189.248 232.286C188.672 231.962 188.006 231.8 187.25 231.8C186.422 231.8 185.684 231.986 185.036 232.358C184.388 232.73 183.878 233.264 183.506 233.96C183.146 234.656 182.966 235.466 182.966 236.39C182.966 237.314 183.146 238.124 183.506 238.82C183.878 239.516 184.388 240.056 185.036 240.44C185.684 240.812 186.422 240.998 187.25 240.998C188.006 240.998 188.672 240.836 189.248 240.512C189.824 240.188 190.274 239.696 190.598 239.036H193.064C192.596 240.236 191.84 241.16 190.796 241.808C189.764 242.456 188.582 242.78 187.25 242.78C186.074 242.78 185 242.51 184.028 241.97C183.056 241.418 182.282 240.656 181.706 239.684C181.142 238.712 180.86 237.614 180.86 236.39Z" fill="white"/>
<path d="M197.518 230.162V242.672H195.466V230.162H197.518Z" fill="white"/>
<path d="M206.908 236.246C207.58 236.366 208.15 236.72 208.618 237.308C209.086 237.896 209.32 238.562 209.32 239.306C209.32 239.942 209.152 240.518 208.816 241.034C208.492 241.538 208.018 241.94 207.394 242.24C206.77 242.528 206.044 242.672 205.216 242.672H200.212V230.162H204.982C205.834 230.162 206.566 230.306 207.178 230.594C207.79 230.882 208.252 231.272 208.564 231.764C208.876 232.244 209.032 232.784 209.032 233.384C209.032 234.104 208.84 234.704 208.456 235.184C208.072 235.664 207.556 236.018 206.908 236.246ZM202.264 235.418H204.802C205.474 235.418 205.996 235.268 206.368 234.968C206.752 234.656 206.944 234.212 206.944 233.636C206.944 233.072 206.752 232.634 206.368 232.322C205.996 231.998 205.474 231.836 204.802 231.836H202.264V235.418ZM205.036 240.998C205.732 240.998 206.278 240.83 206.674 240.494C207.07 240.158 207.268 239.69 207.268 239.09C207.268 238.478 207.058 237.992 206.638 237.632C206.218 237.272 205.66 237.092 204.964 237.092H202.264V240.998H205.036Z" fill="white"/>
<path d="M213.602 230.162V242.672H211.55V230.162H213.602Z" fill="white"/>
<path d="M220.382 230.162C221.714 230.162 222.878 230.42 223.874 230.936C224.882 231.44 225.656 232.172 226.196 233.132C226.748 234.08 227.024 235.19 227.024 236.462C227.024 237.734 226.748 238.838 226.196 239.774C225.656 240.71 224.882 241.43 223.874 241.934C222.878 242.426 221.714 242.672 220.382 242.672H216.296V230.162H220.382ZM220.382 240.998C221.846 240.998 222.968 240.602 223.748 239.81C224.528 239.018 224.918 237.902 224.918 236.462C224.918 235.01 224.528 233.876 223.748 233.06C222.968 232.244 221.846 231.836 220.382 231.836H218.348V240.998H220.382Z" fill="white"/>
<path d="M236.6 240.116H231.362L230.462 242.672H228.32L232.802 230.144H235.178L239.66 242.672H237.5L236.6 240.116ZM236.024 238.442L233.99 232.628L231.938 238.442H236.024Z" fill="white"/>
<path d="M254.3 164.6H151.9C147.9 164.6 145.1 160.6 146.5 156.6L162.3 103.2C163.1 100.6 165.4 98.9 167.7 98.9H270.4C274.4 98.9 277.2 102.9 275.8 106.9L260 160.3C259.1 162.9 256.9 164.6 254.3 164.6Z" stroke="white" stroke-width="2" stroke-linecap="round" stroke-linejoin="round"/>
<path d="M146.5 156.3L162.3 102.9C163.1 100.3 165.4 98.6 167.7 98.6H260.5V75.5C260.5 72.4 258 69.8 254.9 69.8H189.7C187.4 69.8 185.5 68.7 184.6 66.7L180.6 58.4C179.8 56.4 177.8 55.3 175.5 55.3H151.8C148.7 55.3 146.2 57.9 146.2 61V159C146.2 161.6 147.9 163.9 150.4 164.4C147.4 163.4 145.4 159.7 146.5 156.3Z" stroke="white" stroke-width="2" stroke-linecap="round" stroke-linejoin="round"/>
<path d="M175 1036.6H118.8" stroke="white" stroke-width="2" stroke-linecap="round" stroke-linejoin="round"/>
<path d="M291.7 1027H195.5C193 1027 190.5 1028.8 189.8 1031.3L171.7 1095.8C171 1098.3 172.4 1100.1 174.9 1100.1H271.1C273.6 1100.1 276.1 1098.3 276.8 1095.8L294.9 1031.3C295.2 1029.1 293.8 1027 291.7 1027Z" stroke="white" stroke-width="2" stroke-linecap="round" stroke-linejoin="round"/>
<path d="M192 1028.4L227.5 1066.7C229.6 1069.2 233.9 1069.2 237.1 1066.7L293.9 1028.4" stroke="white" stroke-width="2" stroke-linecap="round" stroke-linejoin="round"/>
<path d="M168 1061H111.8" stroke="white" stroke-width="2" stroke-linecap="round" stroke-linejoin="round"/>
<path d="M161 1085.8H104.8" stroke="white" stroke-width="2" stroke-linecap="round" stroke-linejoin="round"/>
<path d="M276.7 1116C291.446 1116 303.4 1104.14 303.4 1089.5C303.4 1074.86 291.446 1063 276.7 1063C261.954 1063 250 1074.86 250 1089.5C250 1104.14 261.954 1116 276.7 1116Z" fill="#1D1E26"/>
<path d="M276.7 1116C291.446 1116 303.4 1104.14 303.4 1089.5C303.4 1074.86 291.446 1063 276.7 1063C261.954 1063 250 1074.86 250 1089.5C250 1104.14 261.954 1116 276.7 1116Z" stroke="white" stroke-width="2"/>
<path d="M267.1 1088.5L274.4 1098.2L285.3 1080" stroke="white" stroke-width="2"/>
<path d="M105.511 510C120.257 510 132.211 498.136 132.211 483.5C132.211 468.864 120.257 457 105.511 457C90.7648 457 78.8108 468.864 78.8108 483.5C78.8108 498.136 90.7648 510 105.511 510Z" stroke="white" stroke-width="2"/>
<path d="M95.9108 482.5L103.211 492.2L114.111 474" stroke="white" stroke-width="2"/>
<path d="M303.479 457C288.844 457 276.979 468.954 276.979 483.7C276.979 498.446 288.844 510.4 303.479 510.4C318.115 510.4 329.979 498.446 329.979 483.7C329.979 468.954 318.115 457 303.479 457Z" stroke="white" stroke-width="2"/>
<path d="M296.1 490.8L310.8 476.3" stroke="white" stroke-width="2" stroke-linecap="square"/>
<path d="M310.8 490.7L296 476.2" stroke="white" stroke-width="2" stroke-linecap="square"/>
<path d="M238.8 390L285 390C296 390 305 399 305 410L305 441" stroke="#7000FF" stroke-width="2"/>
<path d="M297 434L313 434L305 444L297 434Z" fill="#7000FF"/>
<path d="M96.9998 434L113 434L105 444L96.9998 434Z" fill="#7000FF"/>
<path d="M271.154 390L224.954 390C213.954 390 204.954 381 204.954 370L204.954 307" stroke="#7000FF" stroke-width="2"/>
<path d="M175.2 390L125 390C114 390 105 399 105 410L105 441" stroke="#7000FF" stroke-width="2"/>
<path d="M140.933 390L185.033 390C196.033 390 205.033 381 205.033 370L205.033 307" stroke="#7000FF" stroke-width="2"/>
<path d="M206 785.476L206 620.976C206 609.976 197 600.976 186 600.976L148.1 600.976" stroke="#7000FF" stroke-width="2"/>
<path d="M104.966 553.901L104.966 581.301C104.966 592.301 113.966 601.301 124.966 601.301L164.066 601.301" stroke="#7000FF" stroke-width="2"/>
<path d="M98.0868 838H96.0348L89.8608 828.658V838H87.8088V825.472H89.8608L96.0348 834.796V825.472H98.0868V838Z" fill="white"/>
<path d="M106.487 838.126C105.323 838.126 104.249 837.856 103.265 837.316C102.293 836.764 101.519 836.002 100.943 835.03C100.379 834.046 100.097 832.942 100.097 831.718C100.097 830.494 100.379 829.396 100.943 828.424C101.519 827.452 102.293 826.696 103.265 826.156C104.249 825.604 105.323 825.328 106.487 825.328C107.663 825.328 108.737 825.604 109.709 826.156C110.693 826.696 111.467 827.452 112.031 828.424C112.595 829.396 112.877 830.494 112.877 831.718C112.877 832.942 112.595 834.046 112.031 835.03C111.467 836.002 110.693 836.764 109.709 837.316C108.737 837.856 107.663 838.126 106.487 838.126ZM106.487 836.344C107.315 836.344 108.053 836.158 108.701 835.786C109.349 835.402 109.853 834.862 110.213 834.166C110.585 833.458 110.771 832.642 110.771 831.718C110.771 830.794 110.585 829.984 110.213 829.288C109.853 828.592 109.349 828.058 108.701 827.686C108.053 827.314 107.315 827.128 106.487 827.128C105.659 827.128 104.921 827.314 104.273 827.686C103.625 828.058 103.115 828.592 102.743 829.288C102.383 829.984 102.203 830.794 102.203 831.718C102.203 832.642 102.383 833.458 102.743 834.166C103.115 834.862 103.625 835.402 104.273 835.786C104.921 836.158 105.659 836.344 106.487 836.344Z" fill="white"/>
<path d="M122.979 825.49V827.164H119.649V838H117.597V827.164H114.249V825.49H122.979Z" fill="white"/>
<path d="M127.109 825.49V838H125.057V825.49H127.109Z" fill="white"/>
<path d="M137.165 825.49V827.164H131.855V830.854H135.995V832.528H131.855V838H129.803V825.49H137.165Z" fill="white"/>
<path d="M141.119 825.49V838H139.067V825.49H141.119Z" fill="white"/>
<path d="M143.129 831.718C143.129 830.494 143.411 829.396 143.975 828.424C144.551 827.452 145.325 826.696 146.297 826.156C147.281 825.604 148.355 825.328 149.519 825.328C150.851 825.328 152.033 825.658 153.065 826.318C154.109 826.966 154.865 827.89 155.333 829.09H152.867C152.543 828.43 152.093 827.938 151.517 827.614C150.941 827.29 150.275 827.128 149.519 827.128C148.691 827.128 147.953 827.314 147.305 827.686C146.657 828.058 146.147 828.592 145.775 829.288C145.415 829.984 145.235 830.794 145.235 831.718C145.235 832.642 145.415 833.452 145.775 834.148C146.147 834.844 146.657 835.384 147.305 835.768C147.953 836.14 148.691 836.326 149.519 836.326C150.275 836.326 150.941 836.164 151.517 835.84C152.093 835.516 152.543 835.024 152.867 834.364H155.333C154.865 835.564 154.109 836.488 153.065 837.136C152.033 837.784 150.851 838.108 149.519 838.108C148.343 838.108 147.269 837.838 146.297 837.298C145.325 836.746 144.551 835.984 143.975 835.012C143.411 834.04 143.129 832.942 143.129 831.718Z" fill="white"/>
<path d="M165.277 835.444H160.039L159.139 838H156.997L161.479 825.472H163.855L168.337 838H166.177L165.277 835.444ZM164.701 833.77L162.667 827.956L160.615 833.77H164.701Z" fill="white"/>
<path d="M169.601 831.718C169.601 830.494 169.883 829.396 170.447 828.424C171.023 827.452 171.797 826.696 172.769 826.156C173.753 825.604 174.827 825.328 175.991 825.328C177.323 825.328 178.505 825.658 179.537 826.318C180.581 826.966 181.337 827.89 181.805 829.09H179.339C179.015 828.43 178.565 827.938 177.989 827.614C177.413 827.29 176.747 827.128 175.991 827.128C175.163 827.128 174.425 827.314 173.777 827.686C173.129 828.058 172.619 828.592 172.247 829.288C171.887 829.984 171.707 830.794 171.707 831.718C171.707 832.642 171.887 833.452 172.247 834.148C172.619 834.844 173.129 835.384 173.777 835.768C174.425 836.14 175.163 836.326 175.991 836.326C176.747 836.326 177.413 836.164 177.989 835.84C178.565 835.516 179.015 835.024 179.339 834.364H181.805C181.337 835.564 180.581 836.488 179.537 837.136C178.505 837.784 177.323 838.108 175.991 838.108C174.815 838.108 173.741 837.838 172.769 837.298C171.797 836.746 171.023 835.984 170.447 835.012C169.883 834.04 169.601 832.942 169.601 831.718Z" fill="white"/>
<path d="M186.259 825.49V838H184.207V825.49H186.259Z" fill="white"/>
<path d="M194.659 838.126C193.495 838.126 192.421 837.856 191.437 837.316C190.465 836.764 189.691 836.002 189.115 835.03C188.551 834.046 188.269 832.942 188.269 831.718C188.269 830.494 188.551 829.396 189.115 828.424C189.691 827.452 190.465 826.696 191.437 826.156C192.421 825.604 193.495 825.328 194.659 825.328C195.835 825.328 196.909 825.604 197.881 826.156C198.865 826.696 199.639 827.452 200.203 828.424C200.767 829.396 201.049 830.494 201.049 831.718C201.049 832.942 200.767 834.046 200.203 835.03C199.639 836.002 198.865 836.764 197.881 837.316C196.909 837.856 195.835 838.126 194.659 838.126ZM194.659 836.344C195.487 836.344 196.225 836.158 196.873 835.786C197.521 835.402 198.025 834.862 198.385 834.166C198.757 833.458 198.943 832.642 198.943 831.718C198.943 830.794 198.757 829.984 198.385 829.288C198.025 828.592 197.521 828.058 196.873 827.686C196.225 827.314 195.487 827.128 194.659 827.128C193.831 827.128 193.093 827.314 192.445 827.686C191.797 828.058 191.287 828.592 190.915 829.288C190.555 829.984 190.375 830.794 190.375 831.718C190.375 832.642 190.555 833.458 190.915 834.166C191.287 834.862 191.797 835.402 192.445 835.786C193.093 836.158 193.831 836.344 194.659 836.344ZM196.513 822.808L192.535 824.77V823.258L196.513 821.062V822.808Z" fill="white"/>
<path d="M213.347 838H211.295L205.121 828.658V838H203.069V825.472H205.121L211.295 834.796V825.472H213.347V838Z" fill="white"/>
<path d="M222.769 827.146V830.818H227.089V832.492H222.769V836.326H227.629V838H220.717V825.472H227.629V827.146H222.769Z" fill="white"/>
<path d="M234.278 838.126C233.438 838.126 232.682 837.982 232.01 837.694C231.338 837.394 230.81 836.974 230.426 836.434C230.042 835.894 229.85 835.264 229.85 834.544H232.046C232.094 835.084 232.304 835.528 232.676 835.876C233.06 836.224 233.594 836.398 234.278 836.398C234.986 836.398 235.538 836.23 235.934 835.894C236.33 835.546 236.528 835.102 236.528 834.562C236.528 834.142 236.402 833.8 236.15 833.536C235.91 833.272 235.604 833.068 235.232 832.924C234.872 832.78 234.368 832.624 233.72 832.456C232.904 832.24 232.238 832.024 231.722 831.808C231.218 831.58 230.786 831.232 230.426 830.764C230.066 830.296 229.886 829.672 229.886 828.892C229.886 828.172 230.066 827.542 230.426 827.002C230.786 826.462 231.29 826.048 231.938 825.76C232.586 825.472 233.336 825.328 234.188 825.328C235.4 825.328 236.39 825.634 237.158 826.246C237.938 826.846 238.37 827.674 238.454 828.73H236.186C236.15 828.274 235.934 827.884 235.538 827.56C235.142 827.236 234.62 827.074 233.972 827.074C233.384 827.074 232.904 827.224 232.532 827.524C232.16 827.824 231.974 828.256 231.974 828.82C231.974 829.204 232.088 829.522 232.316 829.774C232.556 830.014 232.856 830.206 233.216 830.35C233.576 830.494 234.068 830.65 234.692 830.818C235.52 831.046 236.192 831.274 236.708 831.502C237.236 831.73 237.68 832.084 238.04 832.564C238.412 833.032 238.598 833.662 238.598 834.454C238.598 835.09 238.424 835.69 238.076 836.254C237.74 836.818 237.242 837.274 236.582 837.622C235.934 837.958 235.166 838.126 234.278 838.126Z" fill="white"/>
<path d="M247.748 827.146V830.818H252.068V832.492H247.748V836.326H252.608V838H245.696V825.472H252.608V827.146H247.748Z" fill="white"/>
<path d="M265.413 838H263.361L257.187 828.658V838H255.135V825.472H257.187L263.361 834.796V825.472H265.413V838Z" fill="white"/>
<path d="M278.89 825.49L274.192 838H271.816L267.1 825.49H269.296L273.004 835.894L276.73 825.49H278.89Z" fill="white"/>
<path d="M282.658 825.49V838H280.606V825.49H282.658Z" fill="white"/>
<path d="M292.894 835.444H287.656L286.756 838H284.614L289.096 825.472H291.472L295.954 838H293.794L292.894 835.444ZM292.318 833.77L290.284 827.956L288.232 833.77H292.318Z" fill="white"/>
<path d="M301.989 825.49C303.321 825.49 304.485 825.748 305.481 826.264C306.489 826.768 307.263 827.5 307.803 828.46C308.355 829.408 308.631 830.518 308.631 831.79C308.631 833.062 308.355 834.166 307.803 835.102C307.263 836.038 306.489 836.758 305.481 837.262C304.485 837.754 303.321 838 301.989 838H297.903V825.49H301.989ZM301.989 836.326C303.453 836.326 304.575 835.93 305.355 835.138C306.135 834.346 306.525 833.23 306.525 831.79C306.525 830.338 306.135 829.204 305.355 828.388C304.575 827.572 303.453 827.164 301.989 827.164H299.955V836.326H301.989Z" fill="white"/>
<path d="M318.206 835.444H312.968L312.068 838H309.926L314.408 825.472H316.784L321.266 838H319.106L318.206 835.444ZM317.63 833.77L315.596 827.956L313.544 833.77H317.63Z" fill="white"/>
<path d="M77.2278 853.444H71.9898L71.0898 856H68.9478L73.4298 843.472H75.8058L80.2878 856H78.1278L77.2278 853.444ZM76.6518 851.77L74.6178 845.956L72.5658 851.77H76.6518Z" fill="white"/>
<path d="M84.2885 854.344H88.5185V856H82.2365V843.49H84.2885V854.344Z" fill="white"/>
<path d="M99.0324 856.126C98.1924 856.126 97.4364 855.982 96.7644 855.694C96.0924 855.394 95.5644 854.974 95.1804 854.434C94.7964 853.894 94.6044 853.264 94.6044 852.544H96.8004C96.8484 853.084 97.0584 853.528 97.4304 853.876C97.8144 854.224 98.3484 854.398 99.0324 854.398C99.7404 854.398 100.292 854.23 100.688 853.894C101.084 853.546 101.282 853.102 101.282 852.562C101.282 852.142 101.156 851.8 100.904 851.536C100.664 851.272 100.358 851.068 99.9864 850.924C99.6264 850.78 99.1224 850.624 98.4744 850.456C97.6584 850.24 96.9924 850.024 96.4764 849.808C95.9724 849.58 95.5404 849.232 95.1804 848.764C94.8204 848.296 94.6404 847.672 94.6404 846.892C94.6404 846.172 94.8204 845.542 95.1804 845.002C95.5404 844.462 96.0444 844.048 96.6924 843.76C97.3404 843.472 98.0904 843.328 98.9424 843.328C100.154 843.328 101.144 843.634 101.912 844.246C102.692 844.846 103.124 845.674 103.208 846.73H100.94C100.904 846.274 100.688 845.884 100.292 845.56C99.8964 845.236 99.3744 845.074 98.7264 845.074C98.1384 845.074 97.6584 845.224 97.2864 845.524C96.9144 845.824 96.7284 846.256 96.7284 846.82C96.7284 847.204 96.8424 847.522 97.0704 847.774C97.3104 848.014 97.6104 848.206 97.9704 848.35C98.3304 848.494 98.8224 848.65 99.4464 848.818C100.274 849.046 100.946 849.274 101.462 849.502C101.99 849.73 102.434 850.084 102.794 850.564C103.166 851.032 103.352 851.662 103.352 852.454C103.352 853.09 103.178 853.69 102.83 854.254C102.494 854.818 101.996 855.274 101.336 855.622C100.688 855.958 99.9204 856.126 99.0324 856.126Z" fill="white"/>
<path d="M107.808 843.49V851.464C107.808 852.412 108.054 853.126 108.546 853.606C109.05 854.086 109.746 854.326 110.634 854.326C111.534 854.326 112.23 854.086 112.722 853.606C113.226 853.126 113.478 852.412 113.478 851.464V843.49H115.53V851.428C115.53 852.448 115.308 853.312 114.864 854.02C114.42 854.728 113.826 855.256 113.082 855.604C112.338 855.952 111.516 856.126 110.616 856.126C109.716 856.126 108.894 855.952 108.15 855.604C107.418 855.256 106.836 854.728 106.404 854.02C105.972 853.312 105.756 852.448 105.756 851.428V843.49H107.808Z" fill="white"/>
<path d="M126.949 847.216C126.949 847.852 126.799 848.452 126.499 849.016C126.199 849.58 125.719 850.042 125.059 850.402C124.399 850.75 123.553 850.924 122.521 850.924H120.253V856H118.201V843.49H122.521C123.481 843.49 124.291 843.658 124.951 843.994C125.623 844.318 126.121 844.762 126.445 845.326C126.781 845.89 126.949 846.52 126.949 847.216ZM122.521 849.25C123.301 849.25 123.883 849.076 124.267 848.728C124.651 848.368 124.843 847.864 124.843 847.216C124.843 845.848 124.069 845.164 122.521 845.164H120.253V849.25H122.521Z" fill="white"/>
<path d="M130.958 845.146V848.818H135.278V850.492H130.958V854.326H135.818V856H128.906V843.472H135.818V845.146H130.958Z" fill="white"/>
<path d="M144.844 856L141.964 850.996H140.398V856H138.346V843.49H142.666C143.626 843.49 144.436 843.658 145.096 843.994C145.768 844.33 146.266 844.78 146.59 845.344C146.926 845.908 147.094 846.538 147.094 847.234C147.094 848.05 146.854 848.794 146.374 849.466C145.906 850.126 145.18 850.576 144.196 850.816L147.292 856H144.844ZM140.398 849.358H142.666C143.434 849.358 144.01 849.166 144.394 848.782C144.79 848.398 144.988 847.882 144.988 847.234C144.988 846.586 144.796 846.082 144.412 845.722C144.028 845.35 143.446 845.164 142.666 845.164H140.398V849.358Z" fill="white"/>
<path d="M160.501 843.49L155.803 856H153.427L148.711 843.49H150.907L154.615 853.894L158.341 843.49H160.501Z" fill="white"/>
<path d="M164.269 843.49V856H162.217V843.49H164.269Z" fill="white"/>
<path d="M171.085 856.126C170.245 856.126 169.489 855.982 168.817 855.694C168.145 855.394 167.617 854.974 167.233 854.434C166.849 853.894 166.657 853.264 166.657 852.544H168.853C168.901 853.084 169.111 853.528 169.483 853.876C169.867 854.224 170.401 854.398 171.085 854.398C171.793 854.398 172.345 854.23 172.741 853.894C173.137 853.546 173.335 853.102 173.335 852.562C173.335 852.142 173.209 851.8 172.957 851.536C172.717 851.272 172.411 851.068 172.039 850.924C171.679 850.78 171.175 850.624 170.527 850.456C169.711 850.24 169.045 850.024 168.529 849.808C168.025 849.58 167.593 849.232 167.233 848.764C166.873 848.296 166.693 847.672 166.693 846.892C166.693 846.172 166.873 845.542 167.233 845.002C167.593 844.462 168.097 844.048 168.745 843.76C169.393 843.472 170.143 843.328 170.995 843.328C172.207 843.328 173.197 843.634 173.965 844.246C174.745 844.846 175.177 845.674 175.261 846.73H172.993C172.957 846.274 172.741 845.884 172.345 845.56C171.949 845.236 171.427 845.074 170.779 845.074C170.191 845.074 169.711 845.224 169.339 845.524C168.967 845.824 168.781 846.256 168.781 846.82C168.781 847.204 168.895 847.522 169.123 847.774C169.363 848.014 169.663 848.206 170.023 848.35C170.383 848.494 170.875 848.65 171.499 848.818C172.327 849.046 172.999 849.274 173.515 849.502C174.043 849.73 174.487 850.084 174.847 850.564C175.219 851.032 175.405 851.662 175.405 852.454C175.405 853.09 175.231 853.69 174.883 854.254C174.547 854.818 174.049 855.274 173.389 855.622C172.741 855.958 171.973 856.126 171.085 856.126Z" fill="white"/>
<path d="M183.532 856.126C182.368 856.126 181.294 855.856 180.31 855.316C179.338 854.764 178.564 854.002 177.988 853.03C177.424 852.046 177.142 850.942 177.142 849.718C177.142 848.494 177.424 847.396 177.988 846.424C178.564 845.452 179.338 844.696 180.31 844.156C181.294 843.604 182.368 843.328 183.532 843.328C184.708 843.328 185.782 843.604 186.754 844.156C187.738 844.696 188.512 845.452 189.076 846.424C189.64 847.396 189.922 848.494 189.922 849.718C189.922 850.942 189.64 852.046 189.076 853.03C188.512 854.002 187.738 854.764 186.754 855.316C185.782 855.856 184.708 856.126 183.532 856.126ZM183.532 854.344C184.36 854.344 185.098 854.158 185.746 853.786C186.394 853.402 186.898 852.862 187.258 852.166C187.63 851.458 187.816 850.642 187.816 849.718C187.816 848.794 187.63 847.984 187.258 847.288C186.898 846.592 186.394 846.058 185.746 845.686C185.098 845.314 184.36 845.128 183.532 845.128C182.704 845.128 181.966 845.314 181.318 845.686C180.67 846.058 180.16 846.592 179.788 847.288C179.428 847.984 179.248 848.794 179.248 849.718C179.248 850.642 179.428 851.458 179.788 852.166C180.16 852.862 180.67 853.402 181.318 853.786C181.966 854.158 182.704 854.344 183.532 854.344Z" fill="white"/>
<path d="M198.44 856L195.56 850.996H193.994V856H191.942V843.49H196.262C197.222 843.49 198.032 843.658 198.692 843.994C199.364 844.33 199.862 844.78 200.186 845.344C200.522 845.908 200.69 846.538 200.69 847.234C200.69 848.05 200.45 848.794 199.97 849.466C199.502 850.126 198.776 850.576 197.792 850.816L200.888 856H198.44ZM193.994 849.358H196.262C197.03 849.358 197.606 849.166 197.99 848.782C198.386 848.398 198.584 847.882 198.584 847.234C198.584 846.586 198.392 846.082 198.008 845.722C197.624 845.35 197.042 845.164 196.262 845.164H193.994V849.358Z" fill="white"/>
<path d="M217.26 843.49L213.12 851.464V856H211.068V851.464L206.91 843.49H209.196L212.094 849.628L214.992 843.49H217.26Z" fill="white"/>
<path d="M227.687 856.126C226.847 856.126 226.091 855.982 225.419 855.694C224.747 855.394 224.219 854.974 223.835 854.434C223.451 853.894 223.259 853.264 223.259 852.544H225.455C225.503 853.084 225.713 853.528 226.085 853.876C226.469 854.224 227.003 854.398 227.687 854.398C228.395 854.398 228.947 854.23 229.343 853.894C229.739 853.546 229.937 853.102 229.937 852.562C229.937 852.142 229.811 851.8 229.559 851.536C229.319 851.272 229.013 851.068 228.641 850.924C228.281 850.78 227.777 850.624 227.129 850.456C226.313 850.24 225.647 850.024 225.131 849.808C224.627 849.58 224.195 849.232 223.835 848.764C223.475 848.296 223.295 847.672 223.295 846.892C223.295 846.172 223.475 845.542 223.835 845.002C224.195 844.462 224.699 844.048 225.347 843.76C225.995 843.472 226.745 843.328 227.597 843.328C228.809 843.328 229.799 843.634 230.567 844.246C231.347 844.846 231.779 845.674 231.863 846.73H229.595C229.559 846.274 229.343 845.884 228.947 845.56C228.551 845.236 228.029 845.074 227.381 845.074C226.793 845.074 226.313 845.224 225.941 845.524C225.569 845.824 225.383 846.256 225.383 846.82C225.383 847.204 225.497 847.522 225.725 847.774C225.965 848.014 226.265 848.206 226.625 848.35C226.985 848.494 227.477 848.65 228.101 848.818C228.929 849.046 229.601 849.274 230.117 849.502C230.645 849.73 231.089 850.084 231.449 850.564C231.821 851.032 232.007 851.662 232.007 852.454C232.007 853.09 231.833 853.69 231.485 854.254C231.149 854.818 230.651 855.274 229.991 855.622C229.343 855.958 228.575 856.126 227.687 856.126Z" fill="white"/>
<path d="M236.462 843.49V851.464C236.462 852.412 236.708 853.126 237.2 853.606C237.704 854.086 238.4 854.326 239.288 854.326C240.188 854.326 240.884 854.086 241.376 853.606C241.88 853.126 242.132 852.412 242.132 851.464V843.49H244.184V851.428C244.184 852.448 243.962 853.312 243.518 854.02C243.074 854.728 242.48 855.256 241.736 855.604C240.992 855.952 240.17 856.126 239.27 856.126C238.37 856.126 237.548 855.952 236.804 855.604C236.072 855.256 235.49 854.728 235.058 854.02C234.626 853.312 234.41 852.448 234.41 851.428V843.49H236.462Z" fill="white"/>
<path d="M259.073 853.444H253.835L252.935 856H250.793L255.275 843.472H257.651L262.133 856H259.973L259.073 853.444ZM258.497 851.77L256.463 845.956L254.411 851.77H258.497Z" fill="white"/>
<path d="M268.204 856.126C267.364 856.126 266.608 855.982 265.936 855.694C265.264 855.394 264.736 854.974 264.352 854.434C263.968 853.894 263.776 853.264 263.776 852.544H265.972C266.02 853.084 266.23 853.528 266.602 853.876C266.986 854.224 267.52 854.398 268.204 854.398C268.912 854.398 269.464 854.23 269.86 853.894C270.256 853.546 270.454 853.102 270.454 852.562C270.454 852.142 270.328 851.8 270.076 851.536C269.836 851.272 269.53 851.068 269.158 850.924C268.798 850.78 268.294 850.624 267.646 850.456C266.83 850.24 266.164 850.024 265.648 849.808C265.144 849.58 264.712 849.232 264.352 848.764C263.992 848.296 263.812 847.672 263.812 846.892C263.812 846.172 263.992 845.542 264.352 845.002C264.712 844.462 265.216 844.048 265.864 843.76C266.512 843.472 267.262 843.328 268.114 843.328C269.326 843.328 270.316 843.634 271.084 844.246C271.864 844.846 272.296 845.674 272.38 846.73H270.112C270.076 846.274 269.86 845.884 269.464 845.56C269.068 845.236 268.546 845.074 267.898 845.074C267.31 845.074 266.83 845.224 266.458 845.524C266.086 845.824 265.9 846.256 265.9 846.82C265.9 847.204 266.014 847.522 266.242 847.774C266.482 848.014 266.782 848.206 267.142 848.35C267.502 848.494 267.994 848.65 268.618 848.818C269.446 849.046 270.118 849.274 270.634 849.502C271.162 849.73 271.606 850.084 271.966 850.564C272.338 851.032 272.524 851.662 272.524 852.454C272.524 853.09 272.35 853.69 272.002 854.254C271.666 854.818 271.168 855.274 270.508 855.622C269.86 855.958 269.092 856.126 268.204 856.126Z" fill="white"/>
<path d="M276.998 843.49V856H274.946V843.49H276.998Z" fill="white"/>
<path d="M288.746 847.09C288.422 846.466 287.972 845.998 287.396 845.686C286.82 845.362 286.154 845.2 285.398 845.2C284.57 845.2 283.832 845.386 283.184 845.758C282.536 846.13 282.026 846.658 281.654 847.342C281.294 848.026 281.114 848.818 281.114 849.718C281.114 850.618 281.294 851.416 281.654 852.112C282.026 852.796 282.536 853.324 283.184 853.696C283.832 854.068 284.57 854.254 285.398 854.254C286.514 854.254 287.42 853.942 288.116 853.318C288.812 852.694 289.238 851.848 289.394 850.78H284.696V849.142H291.59V850.744C291.458 851.716 291.11 852.61 290.546 853.426C289.994 854.242 289.268 854.896 288.368 855.388C287.48 855.868 286.49 856.108 285.398 856.108C284.222 856.108 283.148 855.838 282.176 855.298C281.204 854.746 280.43 853.984 279.854 853.012C279.29 852.04 279.008 850.942 279.008 849.718C279.008 848.494 279.29 847.396 279.854 846.424C280.43 845.452 281.204 844.696 282.176 844.156C283.16 843.604 284.234 843.328 285.398 843.328C286.73 843.328 287.912 843.658 288.944 844.318C289.988 844.966 290.744 845.89 291.212 847.09H288.746Z" fill="white"/>
<path d="M303.891 856H301.839L295.665 846.658V856H293.613V843.472H295.665L301.839 852.796V843.472H303.891V856Z" fill="white"/>
<path d="M314.128 853.444H308.89L307.99 856H305.848L310.33 843.472H312.706L317.188 856H315.028L314.128 853.444ZM313.552 851.77L311.518 845.956L309.466 851.77H313.552Z" fill="white"/>
<path d="M323.223 843.49C324.555 843.49 325.719 843.748 326.715 844.264C327.723 844.768 328.497 845.5 329.037 846.46C329.589 847.408 329.865 848.518 329.865 849.79C329.865 851.062 329.589 852.166 329.037 853.102C328.497 854.038 327.723 854.758 326.715 855.262C325.719 855.754 324.555 856 323.223 856H319.137V843.49H323.223ZM323.223 854.326C324.687 854.326 325.809 853.93 326.589 853.138C327.369 852.346 327.759 851.23 327.759 849.79C327.759 848.338 327.369 847.204 326.589 846.388C325.809 845.572 324.687 845.164 323.223 845.164H321.189V854.326H323.223Z" fill="white"/>
<path d="M337.605 856.126C336.441 856.126 335.367 855.856 334.383 855.316C333.411 854.764 332.637 854.002 332.061 853.03C331.497 852.046 331.215 850.942 331.215 849.718C331.215 848.494 331.497 847.396 332.061 846.424C332.637 845.452 333.411 844.696 334.383 844.156C335.367 843.604 336.441 843.328 337.605 843.328C338.781 843.328 339.855 843.604 340.827 844.156C341.811 844.696 342.585 845.452 343.149 846.424C343.713 847.396 343.995 848.494 343.995 849.718C343.995 850.942 343.713 852.046 343.149 853.03C342.585 854.002 341.811 854.764 340.827 855.316C339.855 855.856 338.781 856.126 337.605 856.126ZM337.605 854.344C338.433 854.344 339.171 854.158 339.819 853.786C340.467 853.402 340.971 852.862 341.331 852.166C341.703 851.458 341.889 850.642 341.889 849.718C341.889 848.794 341.703 847.984 341.331 847.288C340.971 846.592 340.467 846.058 339.819 845.686C339.171 845.314 338.433 845.128 337.605 845.128C336.777 845.128 336.039 845.314 335.391 845.686C334.743 846.058 334.233 846.592 333.861 847.288C333.501 847.984 333.321 848.794 333.321 849.718C333.321 850.642 333.501 851.458 333.861 852.166C334.233 852.862 334.743 853.402 335.391 853.786C336.039 854.158 336.777 854.344 337.605 854.344Z" fill="white"/>
<path d="M260.737 528.49C262.069 528.49 263.233 528.748 264.229 529.264C265.237 529.768 266.011 530.5 266.551 531.46C267.103 532.408 267.379 533.518 267.379 534.79C267.379 536.062 267.103 537.166 266.551 538.102C266.011 539.038 265.237 539.758 264.229 540.262C263.233 540.754 262.069 541 260.737 541H256.651V528.49H260.737ZM260.737 539.326C262.201 539.326 263.323 538.93 264.103 538.138C264.883 537.346 265.273 536.23 265.273 534.79C265.273 533.338 264.883 532.204 264.103 531.388C263.323 530.572 262.201 530.164 260.737 530.164H258.703V539.326H260.737Z" fill="white"/>
<path d="M271.465 530.146V533.818H275.785V535.492H271.465V539.326H276.325V541H269.413V528.472H276.325V530.146H271.465Z" fill="white"/>
<path d="M289.13 541H287.078L280.904 531.658V541H278.852V528.472H280.904L287.078 537.796V528.472H289.13V541Z" fill="white"/>
<path d="M293.877 530.146V533.818H298.197V535.492H293.877V539.326H298.737V541H291.825V528.472H298.737V530.146H293.877Z" fill="white"/>
<path d="M310.318 532.09C309.994 531.466 309.544 530.998 308.968 530.686C308.392 530.362 307.726 530.2 306.97 530.2C306.142 530.2 305.404 530.386 304.756 530.758C304.108 531.13 303.598 531.658 303.226 532.342C302.866 533.026 302.686 533.818 302.686 534.718C302.686 535.618 302.866 536.416 303.226 537.112C303.598 537.796 304.108 538.324 304.756 538.696C305.404 539.068 306.142 539.254 306.97 539.254C308.086 539.254 308.992 538.942 309.688 538.318C310.384 537.694 310.81 536.848 310.966 535.78H306.268V534.142H313.162V535.744C313.03 536.716 312.682 537.61 312.118 538.426C311.566 539.242 310.84 539.896 309.94 540.388C309.052 540.868 308.062 541.108 306.97 541.108C305.794 541.108 304.72 540.838 303.748 540.298C302.776 539.746 302.002 538.984 301.426 538.012C300.862 537.04 300.58 535.942 300.58 534.718C300.58 533.494 300.862 532.396 301.426 531.424C302.002 530.452 302.776 529.696 303.748 529.156C304.732 528.604 305.806 528.328 306.97 528.328C308.302 528.328 309.484 528.658 310.516 529.318C311.56 529.966 312.316 530.89 312.784 532.09H310.318Z" fill="white"/>
<path d="M322.728 538.444H317.49L316.59 541H314.448L318.93 528.472H321.306L325.788 541H323.628L322.728 538.444ZM322.152 536.77L320.118 530.956L318.066 536.77H322.152Z" fill="white"/>
<path d="M331.823 528.49C333.155 528.49 334.319 528.748 335.315 529.264C336.323 529.768 337.097 530.5 337.637 531.46C338.189 532.408 338.465 533.518 338.465 534.79C338.465 536.062 338.189 537.166 337.637 538.102C337.097 539.038 336.323 539.758 335.315 540.262C334.319 540.754 333.155 541 331.823 541H327.737V528.49H331.823ZM331.823 539.326C333.287 539.326 334.409 538.93 335.189 538.138C335.969 537.346 336.359 536.23 336.359 534.79C336.359 533.338 335.969 532.204 335.189 531.388C334.409 530.572 333.287 530.164 331.823 530.164H329.789V539.326H331.823Z" fill="white"/>
<path d="M348.041 538.444H342.803L341.903 541H339.761L344.243 528.472H346.619L351.101 541H348.941L348.041 538.444ZM347.465 536.77L345.431 530.956L343.379 536.77H347.465Z" fill="white"/>
<path d="M64.9192 538.444H59.6812L58.7812 541H56.6392L61.1212 528.472H63.4972L67.9792 541H65.8192L64.9192 538.444ZM64.3432 536.77L62.3092 530.956L60.2572 536.77H64.3432Z" fill="white"/>
<path d="M78.6759 532.216C78.6759 532.852 78.5259 533.452 78.2259 534.016C77.9259 534.58 77.4459 535.042 76.7859 535.402C76.1259 535.75 75.2799 535.924 74.2479 535.924H71.9799V541H69.9279V528.49H74.2479C75.2079 528.49 76.0179 528.658 76.6779 528.994C77.3499 529.318 77.8479 529.762 78.1719 530.326C78.5079 530.89 78.6759 531.52 78.6759 532.216ZM74.2479 534.25C75.0279 534.25 75.6099 534.076 75.9939 533.728C76.3779 533.368 76.5699 532.864 76.5699 532.216C76.5699 530.848 75.7959 530.164 74.2479 530.164H71.9799V534.25H74.2479Z" fill="white"/>
<path d="M87.131 541L84.251 535.996H82.685V541H80.633V528.49H84.953C85.913 528.49 86.723 528.658 87.383 528.994C88.055 529.33 88.553 529.78 88.877 530.344C89.213 530.908 89.381 531.538 89.381 532.234C89.381 533.05 89.141 533.794 88.661 534.466C88.193 535.126 87.467 535.576 86.483 535.816L89.579 541H87.131ZM82.685 534.358H84.953C85.721 534.358 86.297 534.166 86.681 533.782C87.077 533.398 87.275 532.882 87.275 532.234C87.275 531.586 87.083 531.082 86.699 530.722C86.315 530.35 85.733 530.164 84.953 530.164H82.685V534.358Z" fill="white"/>
<path d="M97.7121 541.126C96.5481 541.126 95.4741 540.856 94.4901 540.316C93.5181 539.764 92.7441 539.002 92.1681 538.03C91.6041 537.046 91.3221 535.942 91.3221 534.718C91.3221 533.494 91.6041 532.396 92.1681 531.424C92.7441 530.452 93.5181 529.696 94.4901 529.156C95.4741 528.604 96.5481 528.328 97.7121 528.328C98.8881 528.328 99.9621 528.604 100.934 529.156C101.918 529.696 102.692 530.452 103.256 531.424C103.82 532.396 104.102 533.494 104.102 534.718C104.102 535.942 103.82 537.046 103.256 538.03C102.692 539.002 101.918 539.764 100.934 540.316C99.9621 540.856 98.8881 541.126 97.7121 541.126ZM97.7121 539.344C98.5401 539.344 99.2781 539.158 99.9261 538.786C100.574 538.402 101.078 537.862 101.438 537.166C101.81 536.458 101.996 535.642 101.996 534.718C101.996 533.794 101.81 532.984 101.438 532.288C101.078 531.592 100.574 531.058 99.9261 530.686C99.2781 530.314 98.5401 530.128 97.7121 530.128C96.8841 530.128 96.1461 530.314 95.4981 530.686C94.8501 531.058 94.3401 531.592 93.9681 532.288C93.6081 532.984 93.4281 533.794 93.4281 534.718C93.4281 535.642 93.6081 536.458 93.9681 537.166C94.3401 537.862 94.8501 538.402 95.4981 538.786C96.1461 539.158 96.8841 539.344 97.7121 539.344Z" fill="white"/>
<path d="M112.817 534.574C113.489 534.694 114.059 535.048 114.527 535.636C114.995 536.224 115.229 536.89 115.229 537.634C115.229 538.27 115.061 538.846 114.725 539.362C114.401 539.866 113.927 540.268 113.303 540.568C112.679 540.856 111.953 541 111.125 541H106.121V528.49H110.891C111.743 528.49 112.475 528.634 113.087 528.922C113.699 529.21 114.161 529.6 114.473 530.092C114.785 530.572 114.941 531.112 114.941 531.712C114.941 532.432 114.749 533.032 114.365 533.512C113.981 533.992 113.465 534.346 112.817 534.574ZM108.173 533.746H110.711C111.383 533.746 111.905 533.596 112.277 533.296C112.661 532.984 112.853 532.54 112.853 531.964C112.853 531.4 112.661 530.962 112.277 530.65C111.905 530.326 111.383 530.164 110.711 530.164H108.173V533.746ZM110.945 539.326C111.641 539.326 112.187 539.158 112.583 538.822C112.979 538.486 113.177 538.018 113.177 537.418C113.177 536.806 112.967 536.32 112.547 535.96C112.127 535.6 111.569 535.42 110.873 535.42H108.173V539.326H110.945Z" fill="white"/>
<path d="M125.001 538.444H119.763L118.863 541H116.721L121.203 528.472H123.579L128.061 541H125.901L125.001 538.444ZM124.425 536.77L122.391 530.956L120.339 536.77H124.425Z" fill="white"/>
<path d="M134.096 528.49C135.428 528.49 136.592 528.748 137.588 529.264C138.596 529.768 139.37 530.5 139.91 531.46C140.462 532.408 140.738 533.518 140.738 534.79C140.738 536.062 140.462 537.166 139.91 538.102C139.37 539.038 138.596 539.758 137.588 540.262C136.592 540.754 135.428 541 134.096 541H130.01V528.49H134.096ZM134.096 539.326C135.56 539.326 136.682 538.93 137.462 538.138C138.242 537.346 138.632 536.23 138.632 534.79C138.632 533.338 138.242 532.204 137.462 531.388C136.682 530.572 135.56 530.164 134.096 530.164H132.062V539.326H134.096Z" fill="white"/>
<path d="M150.314 538.444H145.076L144.176 541H142.034L146.516 528.472H148.892L153.374 541H151.214L150.314 538.444ZM149.738 536.77L147.704 530.956L145.652 536.77H149.738Z" fill="white"/>
<path d="M158.428 1175.22C158.428 1175.85 158.278 1176.45 157.978 1177.02C157.678 1177.58 157.198 1178.04 156.538 1178.4C155.878 1178.75 155.032 1178.92 154 1178.92H151.732V1184H149.68V1171.49H154C154.96 1171.49 155.77 1171.66 156.43 1171.99C157.102 1172.32 157.6 1172.76 157.924 1173.33C158.26 1173.89 158.428 1174.52 158.428 1175.22ZM154 1177.25C154.78 1177.25 155.362 1177.08 155.746 1176.73C156.13 1176.37 156.322 1175.86 156.322 1175.22C156.322 1173.85 155.548 1173.16 154 1173.16H151.732V1177.25H154Z" fill="white"/>
<path d="M166.883 1184L164.003 1179H162.437V1184H160.385V1171.49H164.705C165.665 1171.49 166.475 1171.66 167.135 1171.99C167.807 1172.33 168.305 1172.78 168.629 1173.34C168.965 1173.91 169.133 1174.54 169.133 1175.23C169.133 1176.05 168.893 1176.79 168.413 1177.47C167.945 1178.13 167.219 1178.58 166.235 1178.82L169.331 1184H166.883ZM162.437 1177.36H164.705C165.473 1177.36 166.049 1177.17 166.433 1176.78C166.829 1176.4 167.027 1175.88 167.027 1175.23C167.027 1174.59 166.835 1174.08 166.451 1173.72C166.067 1173.35 165.485 1173.16 164.705 1173.16H162.437V1177.36Z" fill="white"/>
<path d="M177.464 1184.13C176.3 1184.13 175.226 1183.86 174.242 1183.32C173.27 1182.76 172.496 1182 171.92 1181.03C171.356 1180.05 171.074 1178.94 171.074 1177.72C171.074 1176.49 171.356 1175.4 171.92 1174.42C172.496 1173.45 173.27 1172.7 174.242 1172.16C175.226 1171.6 176.3 1171.33 177.464 1171.33C178.64 1171.33 179.714 1171.6 180.686 1172.16C181.67 1172.7 182.444 1173.45 183.008 1174.42C183.572 1175.4 183.854 1176.49 183.854 1177.72C183.854 1178.94 183.572 1180.05 183.008 1181.03C182.444 1182 181.67 1182.76 180.686 1183.32C179.714 1183.86 178.64 1184.13 177.464 1184.13ZM177.464 1182.34C178.292 1182.34 179.03 1182.16 179.678 1181.79C180.326 1181.4 180.83 1180.86 181.19 1180.17C181.562 1179.46 181.748 1178.64 181.748 1177.72C181.748 1176.79 181.562 1175.98 181.19 1175.29C180.83 1174.59 180.326 1174.06 179.678 1173.69C179.03 1173.31 178.292 1173.13 177.464 1173.13C176.636 1173.13 175.898 1173.31 175.25 1173.69C174.602 1174.06 174.092 1174.59 173.72 1175.29C173.36 1175.98 173.18 1176.79 173.18 1177.72C173.18 1178.64 173.36 1179.46 173.72 1180.17C174.092 1180.86 174.602 1181.4 175.25 1181.79C175.898 1182.16 176.636 1182.34 177.464 1182.34Z" fill="white"/>
<path d="M194.622 1175.22C194.622 1175.85 194.472 1176.45 194.172 1177.02C193.872 1177.58 193.392 1178.04 192.732 1178.4C192.072 1178.75 191.226 1178.92 190.194 1178.92H187.926V1184H185.874V1171.49H190.194C191.154 1171.49 191.964 1171.66 192.624 1171.99C193.296 1172.32 193.794 1172.76 194.118 1173.33C194.454 1173.89 194.622 1174.52 194.622 1175.22ZM190.194 1177.25C190.974 1177.25 191.556 1177.08 191.94 1176.73C192.324 1176.37 192.516 1175.86 192.516 1175.22C192.516 1173.85 191.742 1173.16 190.194 1173.16H187.926V1177.25H190.194Z" fill="white"/>
<path d="M198.613 1171.49V1179.46C198.613 1180.41 198.859 1181.13 199.351 1181.61C199.855 1182.09 200.551 1182.33 201.439 1182.33C202.339 1182.33 203.035 1182.09 203.527 1181.61C204.031 1181.13 204.283 1180.41 204.283 1179.46V1171.49H206.335V1179.43C206.335 1180.45 206.113 1181.31 205.669 1182.02C205.225 1182.73 204.631 1183.26 203.887 1183.6C203.143 1183.95 202.321 1184.13 201.421 1184.13C200.521 1184.13 199.699 1183.95 198.955 1183.6C198.223 1183.26 197.641 1182.73 197.209 1182.02C196.777 1181.31 196.561 1180.45 196.561 1179.43V1171.49H198.613Z" fill="white"/>
<path d="M211.058 1173.15V1176.82H215.378V1178.49H211.058V1182.33H215.918V1184H209.006V1171.47H215.918V1173.15H211.058Z" fill="white"/>
<path d="M222.568 1184.13C221.728 1184.13 220.972 1183.98 220.3 1183.69C219.628 1183.39 219.1 1182.97 218.716 1182.43C218.332 1181.89 218.14 1181.26 218.14 1180.54H220.336C220.384 1181.08 220.594 1181.53 220.966 1181.88C221.35 1182.22 221.884 1182.4 222.568 1182.4C223.276 1182.4 223.828 1182.23 224.224 1181.89C224.62 1181.55 224.818 1181.1 224.818 1180.56C224.818 1180.14 224.692 1179.8 224.44 1179.54C224.2 1179.27 223.894 1179.07 223.522 1178.92C223.162 1178.78 222.658 1178.62 222.01 1178.46C221.194 1178.24 220.528 1178.02 220.012 1177.81C219.508 1177.58 219.076 1177.23 218.716 1176.76C218.356 1176.3 218.176 1175.67 218.176 1174.89C218.176 1174.17 218.356 1173.54 218.716 1173C219.076 1172.46 219.58 1172.05 220.228 1171.76C220.876 1171.47 221.626 1171.33 222.478 1171.33C223.69 1171.33 224.68 1171.63 225.448 1172.25C226.228 1172.85 226.66 1173.67 226.744 1174.73H224.476C224.44 1174.27 224.224 1173.88 223.828 1173.56C223.432 1173.24 222.91 1173.07 222.262 1173.07C221.674 1173.07 221.194 1173.22 220.822 1173.52C220.45 1173.82 220.264 1174.26 220.264 1174.82C220.264 1175.2 220.378 1175.52 220.606 1175.77C220.846 1176.01 221.146 1176.21 221.506 1176.35C221.866 1176.49 222.358 1176.65 222.982 1176.82C223.81 1177.05 224.482 1177.27 224.998 1177.5C225.526 1177.73 225.97 1178.08 226.33 1178.56C226.702 1179.03 226.888 1179.66 226.888 1180.45C226.888 1181.09 226.714 1181.69 226.366 1182.25C226.03 1182.82 225.532 1183.27 224.872 1183.62C224.224 1183.96 223.456 1184.13 222.568 1184.13Z" fill="white"/>
<path d="M237.391 1171.49V1173.16H234.061V1184H232.009V1173.16H228.661V1171.49H237.391Z" fill="white"/>
<path d="M247.011 1181.44H241.773L240.873 1184H238.731L243.213 1171.47H245.589L250.071 1184H247.911L247.011 1181.44ZM246.435 1179.77L244.401 1173.96L242.349 1179.77H246.435Z" fill="white"/>
<path d="M159.419 1199.44H154.181L153.281 1202H151.139L155.621 1189.47H157.997L162.479 1202H160.319L159.419 1199.44ZM158.843 1197.77L156.809 1191.96L154.757 1197.77H158.843Z" fill="white"/>
<path d="M173.176 1193.22C173.176 1193.85 173.026 1194.45 172.726 1195.02C172.426 1195.58 171.946 1196.04 171.286 1196.4C170.626 1196.75 169.78 1196.92 168.748 1196.92H166.48V1202H164.428V1189.49H168.748C169.708 1189.49 170.518 1189.66 171.178 1189.99C171.85 1190.32 172.348 1190.76 172.672 1191.33C173.008 1191.89 173.176 1192.52 173.176 1193.22ZM168.748 1195.25C169.528 1195.25 170.11 1195.08 170.494 1194.73C170.878 1194.37 171.07 1193.86 171.07 1193.22C171.07 1191.85 170.296 1191.16 168.748 1191.16H166.48V1195.25H168.748Z" fill="white"/>
<path d="M181.631 1202L178.751 1197H177.185V1202H175.133V1189.49H179.453C180.413 1189.49 181.223 1189.66 181.883 1189.99C182.555 1190.33 183.053 1190.78 183.377 1191.34C183.713 1191.91 183.881 1192.54 183.881 1193.23C183.881 1194.05 183.641 1194.79 183.161 1195.47C182.693 1196.13 181.967 1196.58 180.983 1196.82L184.079 1202H181.631ZM177.185 1195.36H179.453C180.221 1195.36 180.797 1195.17 181.181 1194.78C181.577 1194.4 181.775 1193.88 181.775 1193.23C181.775 1192.59 181.583 1192.08 181.199 1191.72C180.815 1191.35 180.233 1191.16 179.453 1191.16H177.185V1195.36Z" fill="white"/>
<path d="M192.212 1202.13C191.048 1202.13 189.974 1201.86 188.99 1201.32C188.018 1200.76 187.244 1200 186.668 1199.03C186.104 1198.05 185.822 1196.94 185.822 1195.72C185.822 1194.49 186.104 1193.4 186.668 1192.42C187.244 1191.45 188.018 1190.7 188.99 1190.16C189.974 1189.6 191.048 1189.33 192.212 1189.33C193.388 1189.33 194.462 1189.6 195.434 1190.16C196.418 1190.7 197.192 1191.45 197.756 1192.42C198.32 1193.4 198.602 1194.49 198.602 1195.72C198.602 1196.94 198.32 1198.05 197.756 1199.03C197.192 1200 196.418 1200.76 195.434 1201.32C194.462 1201.86 193.388 1202.13 192.212 1202.13ZM192.212 1200.34C193.04 1200.34 193.778 1200.16 194.426 1199.79C195.074 1199.4 195.578 1198.86 195.938 1198.17C196.31 1197.46 196.496 1196.64 196.496 1195.72C196.496 1194.79 196.31 1193.98 195.938 1193.29C195.578 1192.59 195.074 1192.06 194.426 1191.69C193.778 1191.31 193.04 1191.13 192.212 1191.13C191.384 1191.13 190.646 1191.31 189.998 1191.69C189.35 1192.06 188.84 1192.59 188.468 1193.29C188.108 1193.98 187.928 1194.79 187.928 1195.72C187.928 1196.64 188.108 1197.46 188.468 1198.17C188.84 1198.86 189.35 1199.4 189.998 1199.79C190.646 1200.16 191.384 1200.34 192.212 1200.34Z" fill="white"/>
<path d="M207.318 1195.57C207.99 1195.69 208.56 1196.05 209.028 1196.64C209.496 1197.22 209.73 1197.89 209.73 1198.63C209.73 1199.27 209.562 1199.85 209.226 1200.36C208.902 1200.87 208.428 1201.27 207.804 1201.57C207.18 1201.86 206.454 1202 205.626 1202H200.622V1189.49H205.392C206.244 1189.49 206.976 1189.63 207.588 1189.92C208.2 1190.21 208.662 1190.6 208.974 1191.09C209.286 1191.57 209.442 1192.11 209.442 1192.71C209.442 1193.43 209.25 1194.03 208.866 1194.51C208.482 1194.99 207.966 1195.35 207.318 1195.57ZM202.674 1194.75H205.212C205.884 1194.75 206.406 1194.6 206.778 1194.3C207.162 1193.98 207.354 1193.54 207.354 1192.96C207.354 1192.4 207.162 1191.96 206.778 1191.65C206.406 1191.33 205.884 1191.16 205.212 1191.16H202.674V1194.75ZM205.446 1200.33C206.142 1200.33 206.688 1200.16 207.084 1199.82C207.48 1199.49 207.678 1199.02 207.678 1198.42C207.678 1197.81 207.468 1197.32 207.048 1196.96C206.628 1196.6 206.07 1196.42 205.374 1196.42H202.674V1200.33H205.446Z" fill="white"/>
<path d="M219.501 1199.44H214.263L213.363 1202H211.221L215.703 1189.47H218.079L222.561 1202H220.401L219.501 1199.44ZM218.925 1197.77L216.891 1191.96L214.839 1197.77H218.925Z" fill="white"/>
<path d="M228.596 1189.49C229.928 1189.49 231.092 1189.75 232.088 1190.26C233.096 1190.77 233.87 1191.5 234.41 1192.46C234.962 1193.41 235.238 1194.52 235.238 1195.79C235.238 1197.06 234.962 1198.17 234.41 1199.1C233.87 1200.04 233.096 1200.76 232.088 1201.26C231.092 1201.75 229.928 1202 228.596 1202H224.51V1189.49H228.596ZM228.596 1200.33C230.06 1200.33 231.182 1199.93 231.962 1199.14C232.742 1198.35 233.132 1197.23 233.132 1195.79C233.132 1194.34 232.742 1193.2 231.962 1192.39C231.182 1191.57 230.06 1191.16 228.596 1191.16H226.562V1200.33H228.596Z" fill="white"/>
<path d="M244.814 1199.44H239.576L238.676 1202H236.534L241.016 1189.47H243.392L247.874 1202H245.714L244.814 1199.44ZM244.238 1197.77L242.204 1191.96L240.152 1197.77H244.238Z" fill="white"/>
</svg>
