<?xml version="1.0" encoding="utf-8"?>
<svg version="1.1" xmlns="http://www.w3.org/2000/svg" xmlns:xlink="http://www.w3.org/1999/xlink" height="400" width="400">
  <defs>
    <rect id="rect-1" opacity="1" x="0" y="0" width="400" height="400"/>
    <path id="path-24" opacity="1" fill-rule="evenodd" d="M246.59057648420668 131.6049649502023C245.99779221805602 133.06124492701136 241.34989558385618 132.49992094029344 236.2090520335942 130.35028725031307C231.0689884626298 128.20065356033268 227.38280630232967 125.27781584357746 227.97559056848033 123.820745269604C228.56837483463102 122.36446529279495 233.21627146883085 122.92578927951287 238.35633503979525 125.07542296949326C243.49717859005722 127.22426606230923 247.18336075035734 130.14789437622886 246.59057648420668 131.6049649502023"/>
    <mask id="mask-25" maskUnits="userSpaceOnUse" maskContentUnits="userSpaceOnUse" x="0" y="0">
      <rect opacity="1" x="0" y="0" width="400" height="400" fill="black"/>
      <use xlink:href="#path-24" fill="white"/>
    </mask>
    <path id="path-26" opacity="1" fill-rule="evenodd" d="M246.1575319781978 150.27736783850062C245.56474771204716 148.8202972645271 240.9168510778476 149.38241184840945 235.77600752758593 151.53204553838992C230.63594395662182 153.6816792283704 226.94976179632192 156.60451694512574 227.54254606247255 158.0615875190993C228.1353303286232 159.5178674959084 232.78322696282277 158.95654350919048 237.92329053378688 156.80690981921C243.06413408404853 154.6572761292295 246.75031624434843 151.73364781530975 246.1575319781978 150.27736783850062"/>
    <mask id="mask-27" maskUnits="userSpaceOnUse" maskContentUnits="userSpaceOnUse" x="0" y="0">
      <rect opacity="1" x="0" y="0" width="400" height="400" fill="black"/>
      <use xlink:href="#path-26" fill="white"/>
    </mask>
    <path id="path-28" opacity="1" fill-rule="evenodd" d="M247.9288649629712 140.02782902019632C247.9288649629712 138.45216887156377 243.42136460233374 137.17456385390688 237.86011221068384 137.17456385390688C232.29963979833144 137.17456385390688 227.792139437694 138.45216887156377 227.792139437694 140.02782902019632C227.792139437694 141.60348916882887 232.29963979833144 142.88109418648577 237.86011221068384 142.88109418648577C243.42136460233374 142.88109418648577 247.9288649629712 141.60348916882887 247.9288649629712 140.02782902019632"/>
    <mask id="mask-29" maskUnits="userSpaceOnUse" maskContentUnits="userSpaceOnUse" x="0" y="0">
      <rect opacity="1" x="0" y="0" width="400" height="400" fill="black"/>
      <use xlink:href="#path-28" fill="white"/>
    </mask>
    <path id="path-33" opacity="1" fill-rule="evenodd" d="M79.20584925746562 109.99999999999818L101.46773169959539 109.99999999999818L101.46773169959539 128.37442681705227L79.20584925746562 128.37442681705227L79.20584925746562 109.99999999999818Z"/>
    <mask id="mask-34" maskUnits="userSpaceOnUse" maskContentUnits="userSpaceOnUse">
      <rect opacity="1" x="0" y="0" width="400" height="400" fill="Black"/>
      <use xlink:href="#path-33" fill="White"/>
    </mask>
  </defs>
  <g opacity="1">
    <g opacity="1"/>
    <g opacity="1">
      <g opacity="1">
        <path fill="rgb(112,0,255)" fill-opacity="1" opacity="1" fill-rule="evenodd" d="M212.9503702249567 165.1064453125L227.63191929722234 165.1064453125C240.9563211526911 165.1064453125 251.79647007847234 154.1187744140625 251.79647007847234 140.613037109375C251.79647007847234 127.107177734375 240.9563211526911 116.1195068359375 227.63191929722234 116.1195068359375L211.44579258823796 116.1195068359375L211.44579258823796 163.5814208984375C211.44579258823796 164.422607421875 212.12047520542546 165.1064453125 212.9503702249567 165.1064453125ZM227.63191929722234 163.5252685546875L213.0057596292536 163.5252685546875L213.0057596292536 117.70068359375L227.63191929722234 117.70068359375C240.0960001077692 117.70068359375 250.2365030374567 127.979248046875 250.2365030374567 140.613037109375C250.2365030374567 153.2467041015625 240.0960001077692 163.5252685546875 227.63191929722234 163.5252685546875Z"/>
      </g>
      <g opacity="1">
        <path fill="rgb(112,0,255)" fill-opacity="1" opacity="1" fill-rule="evenodd" d="M92.32494504667578 134.65342855637948L88.80567845605685 127.85271174828398L90.18780177134425 127.11903757972868L93.7062883826656 133.9189637906598L92.32494504667578 134.65342855637948Z"/>
      </g>
      <g opacity="1">
        <path fill="rgb(112,0,255)" fill-opacity="1" opacity="1" fill-rule="evenodd" d="M91.97379836691134 177.03418015073674C91.68910592329951 177.03418015073674 91.40363350039013 176.99623148684594 91.12206097396857 176.91875296473557C90.19856548564968 176.66418067780154 89.43730569122465 176.01272861434296 89.0340563943827 175.1327939703753L86.07793485660518 168.67756812311907C81.43159818100078 158.528672323826 81.10556683461793 146.74482158857137 85.18329860229626 136.3484688768238L85.28859580746776 136.0804564380951C85.78700257861283 134.809966794918 86.75027701110761 133.82646392241506 87.99980384580937 133.31020397406743C89.21345163282304 132.80975596900765 90.53863645938874 132.81687134348715 91.74214451553405 133.327597111684L92.33336882308954 133.40902861961635C96.41968036304112 133.9679808148411 100.36247571224042 131.50606124492614 101.7024801454599 127.54912243714692L102.73205281824784 124.50848574289739L115.41451619668123 124.50848574289739C115.845064768938 124.50848574289739 116.19449549424786 124.86188267538037 116.19449549424786 125.29908290728885C116.19449549424786 125.73549254203292 115.845064768938 126.08968007168029 115.41451619668123 126.08968007168029L103.84586325517299 126.08968007168029L103.17742099715839 128.06301059400136C101.5971829402884 132.7306962525685 96.94850632679129 135.64088441469343 92.12355439204413 134.97520160227583L91.21409853108143 134.81866336372633C90.37406082760218 134.43917672481842 89.44042560841493 134.42415537869496 88.5879082361746 134.7751805196848C87.73539086393427 135.12699625783898 87.07864829538318 135.79821325040731 86.73857732164412 136.66470774258036L86.63328011647262 136.93272018130907C82.71232418760518 146.9274495335458 83.02587586522696 158.25512570494655 87.49359728168862 168.01188531070147L90.44893884016858 174.46711115795767C90.65797329191643 174.92328572181157 91.05264281648515 175.2608707110067 91.53155010519106 175.39290043746007C92.01045739389697 175.52572076107785 92.51978387520798 175.4363832815016 92.92771304783533 175.14939651082753C95.58042263885943 173.28833078585004 98.68786016036488 172.30482791334705 101.91385453510046 172.30482791334705L144.09201503031346 172.30482791334705C144.52334358186783 172.30482791334705 144.8719943278801 172.65822484583003 144.8719943278801 173.09542507773853C144.8719943278801 173.53183471248258 144.52334358186783 173.88602224212997 144.09201503031346 173.88602224212997L101.91385453510046 173.88602224212997C99.00687169306963 173.88602224212997 96.20596603550786 174.7722816634128 93.81610946776371 176.44992884625145C93.26778402157437 176.8341590681457 92.62508108037947 177.03418015073674 91.97379836691134 177.03418015073674"/>
      </g>
      <g opacity="1">
        <path fill="rgb(112,0,255)" fill-opacity="1" opacity="1" fill-rule="evenodd" d="M250.23665562534734 132.4996337890625L250.23665562534734 147.0679931640625L256.7923807230036 143.9964599609375L256.7923807230036 135.571044921875L250.23665562534734 132.4996337890625ZM251.79662266636296 134.97265625L251.79662266636296 144.594970703125L255.2324441995661 142.984619140625L255.2324441995661 136.5831298828125L251.79662266636296 134.97265625Z"/>
      </g>
      <g opacity="1">
        <path fill="rgb(112,0,255)" fill-opacity="1" opacity="1" fill-rule="evenodd" d="M255.2324441995661 136.0419921875L255.2324441995661 143.536865234375L320.0085672464411 140.21875C320.4679178323786 140.196533203125 320.8258279886286 139.79736328125 320.82283726597234 139.3095703125C320.8198465433161 138.82177734375 320.45748082065984 138.42724609375 319.99739781284734 138.411376953125L255.2324441995661 136.0419921875ZM256.8676981058161 141.8836669921875L256.8676981058161 137.6737060546875L314.12374058628484 139.4281005859375L256.8676981058161 141.8836669921875Z"/>
      </g>
      <g opacity="1">
        <path fill="rgb(112,0,255)" fill-opacity="1" opacity="1" fill-rule="evenodd" d="M131.00053050823595 287.1588309703178C127.18331182594498 287.1588309703178 122.89186573073351 286.3706055974195 118.26658849616354 284.23520265639826C100.62657670239716 276.08888947450873 102.87525701728168 256.3026142412839 102.90021635480382 256.1041743530217C107.7048888278141 229.76622041848486 118.18625062851417 210.6835766615684 126.13345969142033 199.30451167448226C134.75847076391187 186.9561745638522 142.37496860464978 180.73259368576265 142.45062659651373 180.67171770410454C142.44828665862104 180.67171770410454 144.7476656278474 178.51259684815147 144.7734049446671 176.12973699467562C144.7851046341306 175.07587097454183 144.3545560618738 174.1429663205599 143.4583598489698 173.27805302271568C142.22131268302914 172.0834607073202 141.62384854109314 170.72837716755325 141.6807870298155 169.25075106730563C141.79466400726022 166.30024244979674 144.5417510932898 164.00276709007517 144.65874798792478 163.90710483318384L144.8732422947556 163.72922047119573L203.2858918895188 163.72922047119573L203.2858918895188 183.7170979813404L243.21303213195338 183.7170979813404C243.64358070421014 183.7170979813404 243.99301142952 184.07049491382338 243.99301142952 184.50769514573184C243.99301142952 184.9448953776403 243.64358070421014 185.2982923101233 243.21303213195338 185.2982923101233L201.72593329438558 185.2982923101233L201.72593329438558 165.31041479997864L145.4457470991695 165.31041479997864C144.88182206702885 165.83932430295653 143.30704386524187 167.4766510304112 143.2391856663536 169.31795182627891C143.20174666007037 170.33465977968632 143.62527541864904 171.25491487903795 144.53395130031413 172.13326832867688C145.74603912873266 173.30256153481182 146.3520830429419 174.65606388024997 146.3333635398003 176.15582670110058C146.29514455421955 179.23757444789845 143.57691670219992 181.76827597111546 143.46147976616004 181.8750065883083C143.12608866820642 182.14855320718775 113.51495461538777 206.6238602224183 104.44067546749787 256.3460970853254C104.35331778617041 257.06633110208605 102.33161144687776 275.1393822800746 118.91319133384624 282.79552522004144C135.54312993726387 290.47538607493993 147.59069016747767 279.81576450745 147.70924702070778 279.7074526959284L147.83872358410383 279.611790439037C147.9728800232853 279.5327307225979 161.31052601167428 271.3935329151879 167.8740518006973 244.21280240340982C174.82288736271818 215.43427502239663 190.83820227965333 198.41904285036384 203.50896596862287 192.08952195224586C212.23147445331023 187.73412217361337 223.2073431286675 187.1957255046628 230.8729796651521 187.50959257892617C239.15167992952405 187.8503399567789 245.48199190857466 189.23230380013516 245.54439025237997 189.2465345490942C245.96557907306595 189.339034417328 246.2323319928337 189.76121330311304 246.1410744150184 190.18734517472004C246.04903685790555 190.61426764349142 245.63330789230255 190.88781426237088 245.21289905091413 190.79057081115073C244.96564561358554 190.7368102039721 220.35807875465667 185.43743741105618 204.1984676676717 193.50864386232854C191.8428156149191 199.6800453275682 176.21047053308916 216.33871817846045 169.38955157586918 244.58754545933138C162.8190059731681 271.79752806619194 149.8557500476111 280.22845622726237 148.68656108055876 280.94078427237906C147.95338054084613 281.57247140672786 141.159760859041 287.1580403731534 131.00053050823595 287.1588309703178"/>
      </g>
      <g opacity="1">
        <path fill="rgb(112,0,255)" fill-opacity="1" opacity="1" fill-rule="evenodd" d="M135.8201785837587 169.19533020608878L112.1127078342214 169.19533020608878L115.11406817125773 167.69635798240253C116.92128020371958 166.79270542350307 118.47265902657958 165.55542086123037 119.72608575776913 164.01612818216017L120.92881383461685 165.02334896959493C120.13479490969404 165.9981552732896 119.23313884170702 166.8638591682983 118.23476534082177 167.6141358773058L135.8201785837587 167.6141358773058C137.45891508794614 167.6141358773058 138.79267968678505 166.26300532336077 138.79267968678505 164.60117008380985L138.79267968678505 164.51973857587754L140.35263828191827 164.51973857587754L140.35263828191827 164.60117008380985C140.35263828191827 167.13503399568458 138.3192322531621 169.19533020608878 135.8201785837587 169.19533020608878"/>
      </g>
      <g opacity="1">
        <path fill="rgb(112,0,255)" fill-opacity="1" opacity="1" fill-rule="evenodd" d="M94.33809605503484 169.1956787109375L105.82170811558171 169.1956787109375L102.81957188511296 167.6951904296875C98.01021519565984 165.2933349609375 95.02291050815984 160.438232421875 95.02291050815984 155.0250244140625C95.02291050815984 149.61181640625 98.01021519565984 144.7567138671875 102.81957188511296 142.3541259765625L105.82170811558171 140.8543701171875L94.33809605503484 140.8543701171875C91.83904209995671 140.8543701171875 89.80562535190984 142.9146728515625 89.80562535190984 145.448486328125L89.80562535190984 164.6015625C89.80562535190984 167.1346435546875 91.83904209995671 169.1956787109375 94.33809605503484 169.1956787109375ZM91.36556187534734 145.448486328125C91.36556187534734 143.78662109375 92.69933262730046 142.435546875 94.33806553745671 142.435546875L99.70198765659734 142.435546875C95.79741612339421 145.3670654296875 93.46291294956609 149.977783203125 93.46291294956609 155.0250244140625C93.46291294956609 160.0721435546875 95.79741612339421 164.68212890625 99.70198765659734 167.614501953125L94.33806553745671 167.614501953125C92.69933262730046 167.614501953125 91.36556187534734 166.2633056640625 91.36556187534734 164.6015625L91.36556187534734 145.448486328125Z"/>
      </g>
      <g opacity="1">
        <path fill="rgb(112,0,255)" fill-opacity="1" opacity="1" fill-rule="evenodd" d="M102.81925450371563 142.3540821167049L102.12975280466674 140.93575080378653C106.43133863074662 138.7869077109704 111.44426557620726 138.77662994783333 115.75677111245308 140.91282348601916L116.19433949838795 141.12944710906245L116.19433949838795 141.62357033680715L115.40890034573837 141.63384809994423L115.07194928918959 142.33352659043072C111.19155228379567 140.41158488379497 106.6887317989436 140.42028145260326 102.81925450371563 142.3540821167049"/>
      </g>
      <g opacity="1">
        <path fill="rgb(112,0,255)" fill-opacity="1" opacity="1" fill-rule="evenodd" d="M108.96689533127656 170.739524587567C106.58873845299593 170.739524587567 104.28779952517439 170.1932219469725 102.12959680880755 169.11326622041383L102.81987848715401 167.69572550466C106.70339540973822 169.63743214040534 111.22961527351734 169.63743214040534 115.11391217539912 167.69572550466L115.80419385374559 169.11326622041383C113.64521115808117 170.1932219469725 111.3450522095572 170.739524587567 108.96689533127656 170.739524587567"/>
      </g>
      <g opacity="1">
        <path fill="rgb(112,0,255)" fill-opacity="1" opacity="1" fill-rule="evenodd" d="M211.0070629519891 165.31033574027555L138.79267968678556 165.31033574027555L138.79267968678556 145.44816317926936C138.79267968678556 143.78711853688293 137.45891508794668 142.43519738577356 135.82017858375926 142.43519738577356L116.77308413718292 142.43519738577356L116.77308413718292 140.85400305699068L135.82017858375926 140.85400305699068C138.31923225316265 140.85400305699068 140.35263828191876 142.91508986455918 140.35263828191876 145.44816317926936L140.35263828191876 163.72914141149266L211.0070629519891 163.72914141149266C211.24495663774695 163.72914141149266 211.4461912965191 163.52516734307966 211.4461912965191 163.2840352079403L211.4461912965191 117.7005745006229L188.0811314586141 117.7005745006229L188.0811314586141 134.09044431562188C188.0811314586141 135.64871132663743 186.83082464461484 136.9160385811569 185.29348544911105 136.9160385811569L182.95822743219668 136.9160385811569C181.42088823669292 136.9160385811569 180.16980144339607 135.64871132663743 180.16980144339607 134.09044431562188L180.16980144339607 117.7005745006229L173.64605459854903 117.7005745006229L173.64605459854903 134.09044431562188C173.64605459854903 135.64871132663743 172.39574778454977 136.9160385811569 170.85762860974845 136.9160385811569L168.5231505721316 136.9160385811569C166.98581137662785 136.9160385811569 165.734724583331 135.64871132663743 165.734724583331 134.09044431562188L165.734724583331 117.7005745006229L158.20090454813524 117.7005745006229L158.20090454813524 134.09044431562188C158.20090454813524 135.64871132663743 156.94981775483842 136.9160385811569 155.41247855933466 136.9160385811569L153.07722054242026 136.9160385811569C151.5398813469165 136.9160385811569 150.28879455361968 135.64871132663743 150.28879455361968 134.09044431562188L150.28879455361968 117.7005745006229L145.35308555861823 117.7005745006229L145.35308555861823 134.09044431562188C145.35308555861823 135.64871132663743 144.10277874461897 136.9160385811569 142.56465956981765 136.9160385811569L140.23018153220082 136.9160385811569C138.69284233669703 136.9160385811569 137.44175554340023 135.64871132663743 137.44175554340023 134.09044431562188L137.44175554340023 117.7005745006229L119.16606062211724 117.7005745006229C117.58348262735461 117.7005745006229 116.1943394983885 119.20349971013103 116.1943394983885 120.91593316820291L116.1943394983885 140.88878933222392L114.6343809032553 140.88878933222392L114.6343809032553 120.91593316820291C114.6343809032553 118.31565909451945 116.70990581408003 116.11938017184002 119.16606062211724 116.11938017184002L139.00171413853343 116.11938017184002L139.00171413853343 134.09044431562188C139.00171413853343 134.77668265431365 139.553159501913 135.334844252374 140.23018153220082 135.334844252374L142.56465956981765 135.334844252374C143.24246157940303 135.334844252374 143.79312696348504 134.77668265431365 143.79312696348504 134.09044431562188L143.79312696348504 116.11938017184002L151.84875314875285 116.11938017184002L151.84875314875285 134.09044431562188C151.84875314875285 134.77668265431365 152.40019851213245 135.334844252374 153.07722054242026 135.334844252374L155.41247855933466 135.334844252374C156.08950058962247 135.334844252374 156.64094595300205 134.77668265431365 156.64094595300205 134.09044431562188L156.64094595300205 116.11938017184002L167.29468317846423 116.11938017184002L167.29468317846423 134.09044431562188C167.29468317846423 134.77668265431365 167.84612854184383 135.334844252374 168.5231505721316 135.334844252374L170.85762860974845 135.334844252374C171.53543061933382 135.334844252374 172.08609600341583 134.77668265431365 172.08609600341583 134.09044431562188L172.08609600341583 116.11938017184002L181.72976003852926 116.11938017184002L181.72976003852926 134.09044431562188C181.72976003852926 134.77668265431365 182.28042542261127 135.334844252374 182.95822743219668 135.334844252374L185.29348544911105 135.334844252374C185.97050747939886 135.334844252374 186.5211728634809 134.77668265431365 186.5211728634809 134.09044431562188L186.5211728634809 116.11938017184002L213.00614989165229 116.11938017184002L213.00614989165229 163.2840352079403C213.00614989165229 164.40114900122538 212.10917369945074 165.31033574027555 211.0070629519891 165.31033574027555"/>
      </g>
      <g opacity="1">
        <path fill="rgb(112,0,255)" fill-opacity="1" opacity="1" fill-rule="evenodd" d="M120.92857984082818 165.023111790446L119.72585176398047 164.01668160017573C121.77953725447335 161.4946766457671 122.91050723594492 158.30066410162573 122.91050723594492 155.02522004955208C122.91050723594492 149.6112106677996 119.92318652626483 144.7561534812719 115.11383417746914 142.35431929585073L112.11169386113528 140.8545564750002L135.81994458996982 140.8545564750002C138.31899825937322 140.8545564750002 140.35240428812935 142.91485268540424 140.35240428812935 145.44792600011436L140.35240428812935 164.51950139672866L138.79244569299615 164.51950139672866L138.79244569299615 145.44792600011436C138.79244569299615 143.786881357728 137.45868109415724 142.43575080378307 135.81994458996982 142.43575080378307L118.23141142984286 142.43575080378307C122.1359877934613 145.36728508934644 124.47046583107814 149.97804775207723 124.47046583107814 155.02522004955208C124.47046583107814 158.66750118590338 123.21235922410321 162.21807305118523 120.92857984082818 165.023111790446"/>
      </g>
      <g opacity="1">
        <path fill="rgb(112,0,255)" fill-opacity="1" opacity="1" fill-rule="evenodd" d="M116.2075991464463 162.61969641068433L115.12186796423374 161.48360828545373C117.34090906581041 159.30630369471956 118.28936389165125 156.1976756443322 117.65914061921752 153.16810731038396C117.27383084621968 151.31573815421467 116.31757622740317 149.6507405260062 114.8925540507492 148.35416117640412L115.9353863715956 147.17775259578957C117.60766198557815 148.7004427344076 118.73161215337146 150.65954250776974 119.18556010455515 152.84238127865467C119.92732041654088 156.40639329573153 118.81350997961593 160.06211458387781 116.2075991464463 162.61969641068433"/>
      </g>
      <g opacity="1">
        <path fill="rgb(112,0,255)" fill-opacity="1" opacity="1" fill-rule="evenodd" d="M120.92857984082885 165.02311179042772L119.72585176398117 164.01668160015743C121.77953725447401 161.4946766457487 122.91050723594554 158.30066410160725 122.91050723594554 155.0252200495335C122.91050723594554 149.61121066778085 119.92318652626551 144.756153481253 115.11383417746993 142.35431929583177L115.80333587651879 140.9359879829135C121.1493139820402 143.6066252042278 124.47046583107874 149.00482264269263 124.47046583107874 155.0252200495335C124.47046583107874 158.6675011858849 123.21235922410382 162.21807305116687 120.92857984082885 165.02311179042772"/>
      </g>
      <g opacity="1">
        <path fill="rgb(112,0,255)" fill-opacity="1" opacity="1" fill-rule="evenodd" d="M182.9581522073786 136.916748046875L185.29341832065984 136.916748046875C186.8307413187067 136.916748046875 188.0818399515192 135.6485595703125 188.0818399515192 134.09033203125L188.0818399515192 116.1192626953125L180.1697305765192 116.1192626953125L180.1697305765192 134.09033203125C180.1697305765192 135.6485595703125 181.4208292093317 136.916748046875 182.9581522073786 136.916748046875ZM181.7296670999567 134.09033203125L181.7296670999567 117.700439453125L186.5218729105036 117.700439453125L186.5218729105036 134.09033203125C186.5218729105036 134.7764892578125 185.97042027378484 135.33544921875 185.2933878030817 135.33544921875L182.95812168980046 135.33544921875C182.28111973667546 135.33544921875 181.7296670999567 134.7764892578125 181.7296670999567 134.09033203125Z"/>
      </g>
      <g opacity="1">
        <path fill="rgb(112,0,255)" fill-opacity="1" opacity="1" fill-rule="evenodd" d="M168.5232156839411 136.916748046875L170.8576883401911 136.916748046875C172.3958047952692 136.916748046875 173.64610997105046 135.6485595703125 173.64610997105046 134.09033203125L173.64610997105046 116.1192626953125L165.7347940530817 116.1192626953125L165.7347940530817 134.09033203125C165.7347940530817 135.6485595703125 166.9858926858942 136.916748046875 168.5232156839411 136.916748046875ZM167.29476109409734 134.09033203125L167.29476109409734 117.700439453125L172.08617344761296 117.700439453125L172.08617344761296 134.09033203125C172.08617344761296 134.7764892578125 171.53551426792546 135.33544921875 170.8577188577692 135.33544921875L168.5232156839411 135.33544921875C167.8462137308161 135.33544921875 167.29476109409734 134.7764892578125 167.29476109409734 134.09033203125Z"/>
      </g>
      <g opacity="1">
        <path fill="rgb(112,0,255)" fill-opacity="1" opacity="1" fill-rule="evenodd" d="M153.0774454202692 136.916748046875L155.4119180765192 136.916748046875C156.95003453159734 136.916748046875 158.20113316440984 135.6485595703125 158.20113316440984 134.09033203125L158.20113316440984 116.1192626953125L150.28902378940984 116.1192626953125L150.28902378940984 134.09033203125C150.28902378940984 135.6485595703125 151.54012242222234 136.916748046875 153.0774454202692 136.916748046875ZM151.84899083042546 134.09033203125L151.84899083042546 117.700439453125L156.64119664097234 117.700439453125L156.64119664097234 134.09033203125C156.64119664097234 134.7764892578125 156.0897440042536 135.33544921875 155.41194859409734 135.33544921875L153.0774454202692 135.33544921875C152.4004434671442 135.33544921875 151.84899083042546 134.7764892578125 151.84899083042546 134.09033203125Z"/>
      </g>
      <g opacity="1">
        <path fill="rgb(112,0,255)" fill-opacity="1" opacity="1" fill-rule="evenodd" d="M129.5746503543542 205.6778316555178C126.13104175559756 205.6778316555178 124.41196738376074 204.14802614242032 124.29809040631602 204.04287671955626C123.97985885290883 203.74798397723822 123.9572394532794 203.24832656934282 124.24739175197419 202.92576292627112C124.53598409207383 202.60398988036377 125.0250311116481 202.58027196543205 125.34482262365042 202.86963052759933C125.5109582140321 203.0174721973405 129.32115708264504 206.26366415433188 137.66303567012002 201.59518789860027C140.9444085749828 199.7586306857189 145.27173371788237 195.41034628156586 149.7901537886858 190.73396405419035C159.3745393971844 180.81829441839264 168.61027425967075 177.12857745217767 175.12934122873253 180.61352975281525C180.39810138379505 183.42963685237763 182.92913420439874 190.51259684816074 181.4385937667489 198.25333368471757C181.38789511240708 200.07882253729747 181.8714822768984 201.38409845570777 182.87687559146175 202.13358456755086C185.34395010966497 203.9733041690898 190.21024094718308 202.27589205714133 190.2593796429298 202.2592895166891C190.66496887766445 202.11540083276986 191.11111703587255 202.33202445581313 191.25307326802965 202.7431349812967C191.39580947948437 203.15503610394464 191.18287513124866 203.60567648764777 190.77650591721647 203.7503557687314C190.54563204513676 203.83257787382811 185.0881169000631 205.73949823434032 181.9557200410356 203.40960839087867C180.497158754586 202.32411848416922 179.79907728326387 200.55001844727477 179.88175508880596 198.13711590155202L179.89579471616213 198.0106203552494C181.27791803145016 190.93635692827456 179.0697966400391 184.5072207874432 174.40162054410288 182.01130553945936C168.53539624710433 178.8773783798116 159.97200353912044 182.45799293734055 150.90474420490852 191.8408000843384C146.12581104871782 196.7851947504426 141.88740354574082 201.0370263005399 138.41649567156938 202.97873293628533C134.7310934905671 205.04140093818265 131.7944714352288 205.6778316555178 129.5746503543542 205.6778316555178"/>
      </g>
      <g opacity="1">
        <path fill="rgb(112,0,255)" fill-opacity="1" opacity="1" fill-rule="evenodd" d="M228.3075479593317 180.3602294921875C229.67330113315984 181.7445068359375 231.4680399026911 182.4371337890625 233.26119175815984 182.4371337890625C235.0559305276911 182.4371337890625 236.8498758401911 181.7445068359375 238.2156290140192 180.3602294921875C240.9478983011286 177.591552734375 240.9478983011286 173.0859375 238.2156290140192 170.3172607421875C235.4849161233942 167.54931640625 231.0398172464411 167.5477294921875 228.3075479593317 170.3172607421875C225.57527867222234 173.0859375 225.57527867222234 177.591552734375 228.3075479593317 180.3602294921875ZM229.4104532327692 179.2423095703125C227.2865518655817 177.0894775390625 227.2865518655817 173.587890625 229.4104532327692 171.4351806640625C231.5343240823786 169.2823486328125 234.9896463480036 169.2823486328125 237.1127237405817 171.4351806640625C239.2366251077692 173.587890625 239.2366251077692 177.0894775390625 237.1127237405817 179.2423095703125C234.98885289097234 181.3951416015625 231.5343240823786 181.3951416015625 229.4104532327692 179.2423095703125Z"/>
      </g>
      <g opacity="1">
        <path fill="rgb(112,0,255)" fill-opacity="1" opacity="1" fill-rule="evenodd" d="M188.84923497105046 188.815185546875C189.06529942417546 191.326904296875 191.15096226597234 193.225830078125 193.5930704202692 193.225830078125C193.7311319437067 193.225830078125 193.86995640659734 193.2196044921875 194.01036778355046 193.2076416015625C196.6279825296442 192.97607421875 198.5716775980036 190.6295166015625 198.3431619730036 187.9754638671875C198.1154092874567 185.3231201171875 195.8066629495661 183.357666015625 193.1820291605036 183.583740234375C191.9145731058161 183.6951904296875 190.7656473245661 184.3016357421875 189.9466775980036 185.2899169921875C189.1284708108942 186.278076171875 188.73848668003484 187.5303955078125 188.84923497105046 188.815185546875ZM191.14159336948796 186.3065185546875C191.69225254917546 185.6416015625 192.4652322855036 185.2344970703125 193.31774083042546 185.1585693359375C195.0719217386286 185.001220703125 196.6357645120661 186.327880859375 196.78942051792546 188.113037109375C196.94307652378484 189.898193359375 195.63585606480046 191.4761962890625 193.8746561136286 191.6319580078125C193.0244669046442 191.70703125 192.19066563511296 191.4422607421875 191.53548375034734 190.884033203125C190.8795389261286 190.325927734375 190.4778360452692 189.5423583984375 190.40294590855046 188.677490234375C190.32884922886296 187.8126220703125 190.59093418980046 186.971435546875 191.14159336948796 186.3065185546875Z"/>
      </g>
      <g opacity="1">
        <path fill="rgb(112,0,255)" fill-opacity="1" opacity="1" fill-rule="evenodd" d="M140.2302469339411 136.916748046875L142.5647195901911 136.916748046875C144.1028360452692 136.916748046875 145.35314122105046 135.6485595703125 145.35314122105046 134.09033203125L145.35314122105046 116.1192626953125L137.4418253030817 116.1192626953125L137.4418253030817 134.09033203125C137.4418253030817 135.6485595703125 138.6929239358942 136.916748046875 140.2302469339411 136.916748046875ZM139.00179234409734 134.09033203125L139.00179234409734 117.700439453125L143.79320469761296 117.700439453125L143.79320469761296 134.09033203125C143.79320469761296 134.7764892578125 143.24254551792546 135.33544921875 142.5647501077692 135.33544921875L140.2302469339411 135.33544921875C139.5532449808161 135.33544921875 139.00179234409734 134.7764892578125 139.00179234409734 134.09033203125Z"/>
      </g>
      <g opacity="1">
        <path fill="rgb(112,0,255)" fill-opacity="1" opacity="1" fill-rule="evenodd" d="M213.4022440042536 182.1983642578125C214.00594273472234 182.362060546875 214.6182169046442 182.4434814453125 215.2266153421442 182.4434814453125C216.44103184605046 182.4434814453125 217.6390909280817 182.1209716796875 218.71858921909734 181.4892578125C222.0638956155817 179.5308837890625 223.2143777933161 175.179443359375 221.2831338968317 171.787841796875C219.3511270608942 168.3961181640625 215.05736485386296 167.2315673828125 211.7127908792536 169.1883544921875C208.36669102573796 171.1466064453125 207.2162088480036 175.498046875 209.14745274448796 178.8897705078125C210.0834268655817 180.5325927734375 211.59423008823796 181.7073974609375 213.4022440042536 182.1983642578125ZM212.49275914097234 170.5584716796875C213.34761753940984 170.05712890625 214.28282872105046 169.8192138671875 215.2063211526911 169.8192138671875C217.08995762730046 169.8192138671875 218.9244608011286 170.809814453125 219.93221226597234 172.578369140625C221.4328836526911 175.215087890625 220.53902378940984 178.5980224609375 217.93859043980046 180.119140625C216.6781229105036 180.856689453125 215.2086404886286 181.052001953125 213.80623570347234 180.6717529296875C212.40071812534734 180.2890625 211.22606602573796 179.3759765625 210.49913731480046 178.09912109375C208.99767247105046 175.4625244140625 209.89232579136296 172.07958984375 212.49275914097234 170.5584716796875Z"/>
      </g>
      <g opacity="1">
        <use xlink:href="#path-24" fill-opacity="0" stroke="rgb(112,0,255)" stroke-opacity="1" stroke-width="4" stroke-linecap="butt" stroke-linejoin="miter" mask="url(#mask-25)"/>
      </g>
      <g opacity="1">
        <use xlink:href="#path-26" fill-opacity="0" stroke="rgb(112,0,255)" stroke-opacity="1" stroke-width="4" stroke-linecap="butt" stroke-linejoin="miter" mask="url(#mask-27)"/>
      </g>
      <g opacity="1">
        <use xlink:href="#path-28" fill-opacity="0" stroke="rgb(112,0,255)" stroke-opacity="1" stroke-width="4" stroke-linecap="butt" stroke-linejoin="miter" mask="url(#mask-29)"/>
      </g>
      <g opacity="1">
        <path fill="rgb(112,0,255)" fill-opacity="1" opacity="1" fill-rule="evenodd" d="M145.4792862089636 280.6594898012916C143.2813045484209 277.5563959310552 141.045883881595 278.1374848468829 138.8845612480379 278.6988088336008L138.40799389722469 278.8213513940815C138.0086444968706 278.9201760396304 128.54359572089976 281.2144890106944 121.53158183577591 277.8916091287571C115.08505294138786 274.8343698940554 111.61180512932374 267.78698677066996 110.51125434045724 262.21090497021703C110.04794663770268 259.86204079481 109.11665135640814 258.2508037737802 107.74466777198847 257.422257945498C105.94837544969256 256.3375586359529 103.92744908969748 256.9518526326851 103.90716962796074 256.9573868128358L103.43762209082564 255.4489274231769C103.54525923388984 255.4133505507793 106.11529101937182 254.61405681757955 108.52230713166239 256.0513624624432C110.30143990941183 257.11550624571413 111.48544848311795 259.0833025878844 112.04079374298537 261.9002002846112C113.06646651928547 267.098376640485 116.27218143228424 273.6524271332902 122.19300428011239 276.4590470668798C127.40794586364277 278.9304538027675 134.83646869366717 278.0813524482111 138.0359437722854 277.2844305065045L138.49769151644486 277.1666315290102C140.6597941292995 276.6053075422922 143.92712740680605 275.7562061877358 146.74675256750936 279.7376535076112L145.4792862089636 280.6594898012916Z"/>
      </g>
      <g opacity="1">
        <path fill="rgb(112,0,255)" fill-opacity="1" opacity="1" fill-rule="evenodd" d="M146.50035801792546 217.6734619140625C147.8661111917536 219.0577392578125 149.6600565042536 219.7503662109375 151.45479527378484 219.7503662109375C153.24874058628484 219.7503662109375 155.0434793558161 219.0577392578125 156.4092020120661 217.6734619140625C159.14070835972234 214.90478515625 159.14070835972234 210.399169921875 156.4092020120661 207.6304931640625C153.67696324253484 204.86181640625 149.2318338480036 204.86181640625 146.50035801792546 207.6304931640625C143.76888218784734 210.399169921875 143.76888218784734 214.90478515625 146.50035801792546 217.6734619140625ZM147.6040262308161 208.748291015625C148.6655496683161 207.67236328125 150.06017247105046 207.1339111328125 151.4547647562067 207.1339111328125C152.8493875589411 207.1339111328125 154.24397984409734 207.67236328125 155.30553379917546 208.748291015625C157.42940464878484 210.901123046875 157.42940464878484 214.4027099609375 155.30553379917546 216.555419921875C153.1824258890192 218.708251953125 149.7263406839411 218.708251953125 147.6040262308161 216.555419921875C145.4801248636286 214.4027099609375 145.4801248636286 210.901123046875 147.6040262308161 208.748291015625Z"/>
      </g>
      <g opacity="1">
        <path fill="rgb(112,0,255)" fill-opacity="1" opacity="1" fill-rule="evenodd" d="M124.96263829136296 257.617919921875C126.32839146519109 259.0023193359375 128.12313023472234 259.69482421875 129.9162820901911 259.69482421875C131.71102085972234 259.69482421875 133.50496617222234 259.0023193359375 134.87071934605046 257.617919921875C137.60298863315984 254.8492431640625 137.60298863315984 250.3436279296875 134.87071934605046 247.574951171875C132.1407999124567 244.80712890625 127.69490757847234 244.8062744140625 124.96263829136296 247.574951171875C122.23036900425359 250.3436279296875 122.23036900425359 254.8492431640625 124.96263829136296 257.617919921875ZM126.06554356480046 256.5C123.94164219761296 254.34716796875 123.94164219761296 250.8455810546875 126.06554356480046 248.69287109375C128.18941441440984 246.5400390625 131.64473668003484 246.5400390625 133.76781407261296 248.69287109375C135.89171543980046 250.8455810546875 135.89171543980046 254.34716796875 133.76781407261296 256.5C131.6439432230036 258.65283203125 128.18941441440984 258.65283203125 126.06554356480046 256.5Z"/>
      </g>
      <g opacity="1">
        <g opacity="1"/>
        <g mask="url(#mask-34)">
          <g opacity="1">
            <path fill="rgb(112,0,255)" fill-opacity="1" opacity="1" fill-rule="evenodd" d="M80.37355748081609 123.575439453125C81.91634312534734 126.5576171875 84.96684971714421 128.3743896484375 88.23885289097234 128.3743896484375C88.69515171909734 128.3743896484375 89.15535679722234 128.339599609375 89.61553135776921 128.266845703125L90.69423619175359 128.0985107421875L89.12804356480046 125.070556640625C88.45958653355046 123.7794189453125 88.95177403355046 122.1793212890625 90.22548619175359 121.501708984375L93.17613926792546 119.9332275390625C93.79311314487859 119.6051025390625 94.49898472690984 119.540283203125 95.16429844761296 119.7506103515625C95.82884922886296 119.9608154296875 96.37404576206609 120.4210205078125 96.69695225620671 121.04638671875L98.26393834019109 124.0736083984375L99.01427403355046 123.270263671875C101.63735142612859 120.462890625 102.21843663120671 116.2933349609375 100.46034947300359 112.8968505859375L99.52126255894109 111.08251953125C99.27400914097234 110.60498046875 98.85829869175359 110.253173828125 98.35051670933171 110.0926513671875C97.90279332065984 109.9503173828125 97.43169346714421 109.9732666015625 97.00270787144109 110.151123046875C91.06630650425359 110.50537109375 85.58303013706609 113.136474609375 81.54665318394109 117.570068359375L80.14345494175359 119.1109619140625C79.73863926792546 119.3663330078125 79.44069615269109 119.756103515625 79.29717198276921 120.2225341796875C79.13884678745671 120.7371826171875 79.18721714878484 121.2835693359375 79.43447056675359 121.7611083984375L80.37355748081609 123.575439453125ZM97.55727330112859 111.6319580078125C97.61968174839421 111.5987548828125 97.68831578159734 111.5821533203125 97.75694981480046 111.5821533203125C97.79985752964421 111.5821533203125 97.84352818394109 111.5885009765625 97.88643589878484 111.6019287109375C97.99639073276921 111.63671875 98.08687535190984 111.71337890625 98.13991490269109 111.8170166015625L99.07900181675359 113.630615234375C100.35271397495671 116.092529296875 100.13353672886296 119.0469970703125 98.58995762730046 121.3001708984375L98.07906285190984 120.3118896484375C97.56194249058171 119.3126220703125 96.69148960972234 118.577392578125 95.62837925815984 118.2413330078125C94.56606236362859 117.904541015625 93.43663731480046 118.0089111328125 92.45229283237859 118.5330810546875L89.50087681675359 120.1016845703125C88.51497593784734 120.6258544921875 87.78960362339421 121.508056640625 87.45809117222234 122.5848388671875C87.12660923862859 123.6624755859375 87.22878209019109 124.8056640625 87.74590245151921 125.8050537109375L88.25759068394109 126.793212890625L88.23964634800359 126.793212890625C85.54012242222234 126.793212890625 83.02547398472234 125.2974853515625 81.75490513706609 122.841796875L80.81658116245671 121.026611328125C80.76274815464421 120.923095703125 80.75185337925359 120.8052978515625 80.78615513706609 120.6929931640625C80.82048741245671 120.58154296875 80.89614048862859 120.4906005859375 80.99831334019109 120.43603515625L81.11763707065984 120.372802734375L82.69319859409734 118.6422119140625C86.48546543980046 114.4765625 91.64971104526921 112.0185546875 97.23512974644109 111.7220458984375L97.40596714878484 111.71337890625L97.55727330112859 111.6319580078125Z"/>
          </g>
        </g>
      </g>
      <g opacity="1">
        <path fill="rgb(112,0,255)" fill-opacity="1" opacity="1" fill-rule="evenodd" d="M101.27567547383254 129.89482422390958L97.75718886250894 123.09410741581493L99.13853219849965 122.35964265009534L102.65701880982324 129.16035945819L101.27567547383254 129.89482422390958Z"/>
      </g>
      <g opacity="1">
        <path fill="rgb(112,0,255)" fill-opacity="1" opacity="1" fill-rule="evenodd" d="M198.8803934183161 242.381591796875C205.14986363315984 248.038330078125 214.03148594761296 249.6400146484375 222.0801004495661 249.6400146484375C224.80223790073796 249.6400146484375 227.4299844827692 249.4566650390625 229.82686558628484 249.1854248046875C246.0051797952692 247.3529052734375 252.6030496683161 239.703857421875 255.28771153355046 233.6107177734375C259.4808878030817 224.0982666015625 256.6152566995661 213.599853515625 254.14974156284734 210.0936279296875L254.13179722690984 210.0675048828125C249.5206522073786 203.5108642578125 241.80297032261296 192.537109375 213.4613260355036 196.6993408203125C205.51802769565984 197.865478515625 199.6455606546442 201.273681640625 196.00694981480046 206.83154296875C189.0542215433161 217.4493408203125 192.68346348667546 231.9884033203125 192.82775059605046 232.5394287109375C192.86519566440984 232.7520751953125 193.79024449253484 237.7890625 198.8803934183161 242.381591796875ZM213.6852029886286 198.2637939453125C217.90486851597234 197.644775390625 221.64879551792546 197.368896484375 224.98006382847234 197.368896484375C243.2854227151911 197.368896484375 249.1360391702692 205.6875 252.8619913187067 210.986083984375L252.8791727151911 211.0106201171875C255.09273472690984 214.1588134765625 257.7509073343317 224.1456298828125 253.86348668003484 232.965576171875C250.2506326761286 241.1640625 241.87911168003484 246.2293701171875 229.65450230503484 247.61376953125C198.11681309605046 251.1864013671875 194.5023721780817 233.0374755859375 194.35106602573796 232.203369140625C194.31441441440984 232.0595703125 190.7358621683161 217.740966796875 197.3064188089411 207.7059326171875C200.6884073343317 202.5394287109375 206.1997293558161 199.36279296875 213.6852029886286 198.2637939453125Z"/>
      </g>
      <g opacity="1">
        <path fill="rgb(112,0,255)" fill-opacity="1" opacity="1" fill-rule="evenodd" d="M221.601911740486 254.58219575185586C212.0612049726514 254.58298634902025 201.53694431058537 252.68634375164515 194.1138813356441 245.98840457492076C188.0986809928105 240.56174563853787 187.0082699348124 234.6211985453005 186.9645910941487 234.37136984135282C186.93495188084114 234.26542982132435 185.91863885611187 230.2578927950241 185.7400235969691 224.67469562009165C185.67060543948568 222.4697201286039 185.73222380399346 222.02303273072278 186.03095587496148 219.87814262372876L186.12377341137187 219.21325040847555C186.12377341137187 219.14446845517347 185.92331873189727 218.84878511569107 185.3086950454148 218.5594265535238C183.911752123473 217.89927792125695 181.15842520306293 217.64707742581606 179.40893163862108 219.1500026353242L178.40041840686746 217.94355136246287C180.83395381527524 215.85321245981189 184.53651554082387 216.3125494123233 186.2727494572071 217.2818215358672C187.27112295809232 217.83919253676322 187.77966946010577 218.6234649238395 187.66813242055375 219.43224582301195L187.57531488414332 220.09950982975835C187.2859425647461 222.18036156643666 187.23368395180913 222.55510462235821 187.29920221280472 224.62330680440624C187.47157763756695 230.01992304854227 188.47775093142786 233.9950455911025 188.48789066229622 234.03457544932206C188.51129004122322 234.151583829652 189.57362184450892 239.8185843040099 195.231591669057 244.87998735044397C204.7465591200719 253.38918463078915 219.72996142632616 253.70621409371012 230.62705219262904 252.4705107257663C247.0541961786791 250.6102355979532 258.32333706992125 241.89706424919504 261.5438715895737 228.5675960575552C264.61543006339093 215.85558425130503 259.46288682366605 202.00590312549562 249.01350417416637 194.8881568544794C248.88558756936544 194.79723818057437 237.90971889400834 186.68808306541126 244.82033547044836 172.1663943498691C248.65159378009548 164.11574342487097 247.35916808402763 157.23754809466533 246.5869885794367 153.1272334369942L248.11808794055995 152.8228535287035C248.87466785919952 156.85094608127793 250.2801905534145 164.33315764507861 246.22585816466335 172.85342328572526C239.89944608210072 186.1457334106387 249.48851156638446 193.29035998524427 249.90034063549962 193.58841511621983C260.8652896006908 201.05639593106147 266.2838057808859 215.59943077004223 263.05937136474563 228.94312971064113C261.4580738668414 235.5722869340634 255.10826240535175 251.28856796500108 230.79942761739127 254.0422178885765C227.95328316057078 254.3647815316482 224.83336597030438 254.58219575185586 221.601911740486 254.58219575185586"/>
      </g>
      <g opacity="1">
        <path fill="rgb(112,0,255)" fill-opacity="1" opacity="1" fill-rule="evenodd" d="M181.42159021806168 290.00000000000034L180.96920222547303 289.5295946871874C180.70712918149067 289.2576292626368 174.55075258579734 282.73441205924297 174.82608527783836 271.8850471722992C175.07801859095238 261.93538185843295 180.61587160367537 251.81890054288002 191.2852084150892 241.8170558161639C191.6018800099012 241.5205818795171 192.0956069052609 241.5411374057913 192.38809914184836 241.86053866020544C192.68059137843585 242.18152110894835 192.6610918959967 242.68117851684374 192.34442030118464 242.97765245349052C181.99565498107071 252.67907025773792 176.62705747591968 262.41843672587606 176.38526389367402 271.92615822484754C176.226928096268 278.1924313498141 178.3976104813959 282.9692194170672 180.1057651430668 285.73314710377974C176.7900731491111 266.8307595003447 183.70614958063433 253.52342802930798 199.75812352455537 248.11337163337734C200.16683267648028 247.977388921102 200.60908093820055 248.199546724296 200.74401735667956 248.61381963843712C200.88051373375373 249.02888314974263 200.65977959254238 249.4755705476238 200.25029046131988 249.6139250513923C178.77980033720354 256.8494702999028 179.68691626027353 276.7543351077861 182.13839119252543 287.97449006482947C182.35210552005867 288.9516681600173 182.43166340841046 289.31692404996613 181.96055591268023 289.63553470721587L181.42159021806168 290.00000000000034Z"/>
      </g>
      <g opacity="1">
        <path fill="rgb(112,0,255)" fill-opacity="1" opacity="1" fill-rule="evenodd" d="M215.6861587580907 241.79365414009172C213.21050446761421 241.79365414009172 202.09345953939712 240.34923312074855 197.40890387821196 215.0880725241131C197.40968385750952 215.08886312127748 197.40968385750952 215.0896537184419 197.40968385750952 215.0896537184419C197.40656394031924 215.0896537184419 197.18972969559573 214.32356506614659 196.64452416659665 214.15121488430924C196.08137911375357 213.97570231381434 195.17972304576656 214.397090602435 194.10881147020757 215.34264481104714L193.08313869390747 214.15042428714483C194.62983764098206 212.78427238707644 195.99246147383099 212.2790807990303 197.12655137249283 212.64749907763672C198.2473816230961 213.0111737732568 198.79024721420245 214.1448901069941 198.93454338425227 214.75839350656187C201.51003502481726 228.64127971327565 206.04639461946476 234.8174247615016 209.3995256197037 237.56079692193993C211.10846026067216 238.9569915142552 212.68869831754216 239.6226743266728 213.87348687054583 239.93496020660743C209.09845361084297 234.95973225109208 206.68129776768401 229.4208085173656 206.6836377055767 223.4415221630731C206.68675762276695 211.55489379644774 216.14400660576229 201.92700152848872 217.8833604393359 200.25805091445838L217.8833604393359 196.87508564802738L219.44331903446914 196.87508564802738L219.44331903446914 200.95377641912285L219.18592586627213 201.1893743741115C219.07672876461282 201.28978021398922 208.2420363421148 211.34696674221277 208.24359630070995 223.45021873188142C208.24359630070995 229.6239919886142 211.05464168914008 235.3265693353697 216.5979545569461 240.3990407421052L217.8825804600383 241.5754493227197L216.16272610890388 241.77230801665314C216.11046749596693 241.7770515996395 215.94589186418037 241.79365414009172 215.6861587580907 241.79365414009172"/>
      </g>
    </g>
  </g>
</svg>