<?xml version="1.0" encoding="utf-8"?>
<!-- Generator: Adobe Illustrator 22.0.1, SVG Export Plug-In . SVG Version: 6.00 Build 0)  -->
<svg version="1.1" id="Layer_1" xmlns="http://www.w3.org/2000/svg" xmlns:xlink="http://www.w3.org/1999/xlink" x="0px" y="0px"
	 viewBox="0 0 400 1910" style="enable-background:new 0 0 400 1910;" xml:space="preserve">
<style type="text/css">
	.st0{fill:#1D1E26;}
	.st1{enable-background:new    ;}
	.st2{fill:#F2F2F2;}
	.st3{fill:#7000FF;}
	.st4{fill-opacity:0;stroke:#7000FF;stroke-width:2;}
	.st5{fill-opacity:0;stroke:#FFFFFF;stroke-width:2;}
	.st6{fill-opacity:0;stroke:#FFFFFF;stroke-width:2;stroke-linecap:square;}
	.st7{fill-opacity:0;stroke:#FFFFFF;stroke-width:2;stroke-linecap:round;stroke-linejoin:round;}
	.st8{fill-opacity:0;stroke:#FFFFFF;stroke-width:1.5;stroke-linecap:round;stroke-linejoin:round;}
	.st9{fill:#FFFFFF;}
</style>
<g>
	<g>
		<g>
			<g>
				<path class="st0" d="M5,0h390c2.8,0,5,2.2,5,5v1900c0,2.8-2.2,5-5,5H5c-2.8,0-5-2.2-5-5V5C0,2.2,2.2,0,5,0z"/>
			</g>
			<g>
				<g>
					<g class="st1">
						<path class="st2" d="M129.1,685H126l-3-4.7h-1.6v4.7h-2.6v-12.1h5.9c2.7,0,4,1.6,4,3.7c0,1.8-1,3.2-2.9,3.6L129.1,685z
							 M121.5,675.1v3.1h2.7c1,0,1.9-0.2,1.9-1.5c0-1.4-1-1.5-1.9-1.5H121.5z"/>
						<path class="st2" d="M133,677.7h5.3v2.2H133v3h6.2v2.2h-8.8v-12.1h8.7v2.2H133V677.7z"/>
						<path class="st2" d="M146.8,672.8c4.5,0,6.6,2.8,6.6,6.2c0,2.6-1.2,4.9-3.8,5.8l3.2,3l-1.9,1.9l-4.4-4.5
							c-4.3-0.1-6.2-2.9-6.2-6.2C140.3,675.6,142.3,672.8,146.8,672.8z M146.8,683.1c2.3,0,4-1.5,4-4.1c0-2.6-1.6-4.1-4-4.1
							c-2.3,0-4,1.5-4,4.1C142.9,681.7,144.5,683.1,146.8,683.1z"/>
						<path class="st2" d="M164.9,680.9c0,2.6-1.4,4.3-5,4.3s-5-1.7-5-4.3v-7.9h2.6v7.9c0,1.9,1.5,2.3,2.4,2.3s2.4-0.3,2.4-2.3v-7.9
							h2.6V680.9z"/>
						<path class="st2" d="M169.3,677.7h5.3v2.2h-5.3v3h6.2v2.2h-8.8v-12.1h8.7v2.2h-6.1V677.7z"/>
						<path class="st2" d="M180.7,680c-2.1-0.6-3.9-1.4-3.9-3.8c0-2.6,2.2-3.4,4.4-3.4c1.9,0,3.2,0.3,4.3,0.8l-0.5,2.2
							c-1.5-0.6-2.7-0.9-4.1-0.9c-0.7,0-1.4,0.2-1.4,1c0,0.7,0.4,1.1,2.1,1.6c3.1,1,4.1,2.2,4.1,4c0,3.1-2.7,3.8-4.6,3.8
							c-1.9,0-3.4-0.5-4.5-1l0.3-2.1c1.5,0.6,2.9,1,4.2,1c1.6,0,1.8-0.7,1.8-1.4C182.9,680.9,182.6,680.5,180.7,680z"/>
						<path class="st2" d="M192.8,685h-2.6v-9.9h-3.7v-2.2h10v2.2h-3.7V685z"/>
						<path class="st2" d="M204.7,685h-2.6v-12.1h2.6V685z"/>
						<path class="st2" d="M210.2,680c-2.1-0.6-3.9-1.4-3.9-3.8c0-2.6,2.2-3.4,4.4-3.4c1.9,0,3.2,0.3,4.3,0.8l-0.5,2.2
							c-1.5-0.6-2.7-0.9-4.1-0.9c-0.7,0-1.4,0.2-1.4,1c0,0.7,0.4,1.1,2.1,1.6c3.1,1,4.1,2.2,4.1,4c0,3.1-2.7,3.8-4.6,3.8
							c-1.9,0-3.4-0.5-4.5-1l0.3-2.1c1.5,0.6,2.9,1,4.2,1c1.6,0,1.8-0.7,1.8-1.4C212.4,680.9,212,680.5,210.2,680z"/>
						<path class="st2" d="M226.5,685l-2.8-6.9v6.9h-2.6v-12.1h3.3l2.9,7.3l2.8-7.3h3.3V685h-2.6v-6.9l-2.7,6.9H226.5z"/>
						<path class="st2" d="M241.6,672.8c4.5,0,6.6,2.8,6.6,6.2c0,3.4-2.1,6.2-6.6,6.2c-4.5,0-6.6-2.8-6.6-6.2
							C235,675.6,237.1,672.8,241.6,672.8z M241.6,683.1c2.3,0,4-1.5,4-4.1c0-2.6-1.6-4.1-4-4.1c-2.3,0-4,1.5-4,4.1
							C237.6,681.7,239.2,683.1,241.6,683.1z"/>
						<path class="st2" d="M247.7,672.9h2.9l3.2,9.1l3.1-9.1h2.9l-4.6,12.1h-2.8L247.7,672.9z"/>
						<path class="st2" d="M262.9,677.7h5.3v2.2h-5.3v3h6.2v2.2h-8.8v-12.1h8.7v2.2h-6.1V677.7z"/>
						<path class="st2" d="M270.5,685v-12.1h4.2c4.5,0,6.8,2.7,6.8,6c0,3.4-2.3,6-6.8,6H270.5z M274.8,682.8c2.3,0,4.1-1.2,4.1-3.9
							c0-2.6-1.8-3.9-4.1-3.9h-1.6v7.7H274.8z"/>
					</g>
					<g class="st1">
						<path class="st2" d="M65,705h-2.6v-9.9h-3.7v-2.2h10v2.2H65V705z"/>
						<path class="st2" d="M75.4,692.8c4.5,0,6.6,2.8,6.6,6.2c0,3.4-2.1,6.2-6.6,6.2c-4.5,0-6.6-2.8-6.6-6.2
							C68.8,695.6,70.9,692.8,75.4,692.8z M75.4,703.1c2.3,0,4-1.5,4-4.1c0-2.6-1.6-4.1-4-4.1c-2.3,0-4,1.5-4,4.1
							C71.5,701.7,73.1,703.1,75.4,703.1z"/>
						<path class="st2" d="M90.5,702.8h6.2v2.2h-8.8v-12.1h2.6V702.8z"/>
						<path class="st2" d="M100.8,705h-2.6v-12.1h2.6V705z"/>
						<path class="st2" d="M106.4,700c-2.1-0.6-3.9-1.4-3.9-3.8c0-2.6,2.2-3.4,4.4-3.4c1.9,0,3.2,0.3,4.3,0.8l-0.5,2.2
							c-1.5-0.6-2.7-0.9-4.1-0.9c-0.7,0-1.4,0.2-1.4,1c0,0.7,0.4,1.1,2.1,1.6c3.1,1,4.1,2.2,4.1,4c0,3.1-2.7,3.8-4.6,3.8
							c-1.9,0-3.4-0.5-4.5-1l0.3-2.1c1.5,0.6,2.9,1,4.2,1c1.6,0,1.8-0.7,1.8-1.4C108.5,700.9,108.2,700.5,106.4,700z"/>
						<path class="st2" d="M118.4,705h-2.6v-9.9H112v-2.2h10v2.2h-3.7V705z"/>
						<path class="st2" d="M133.9,692.8c4.5,0,6.6,2.8,6.6,6.2c0,3.4-2.1,6.2-6.6,6.2c-4.5,0-6.6-2.8-6.6-6.2
							C127.3,695.6,129.4,692.8,133.9,692.8z M133.9,703.1c2.3,0,4-1.5,4-4.1c0-2.6-1.6-4.1-4-4.1c-2.3,0-4,1.5-4,4.1
							C129.9,701.7,131.5,703.1,133.9,703.1z"/>
						<path class="st2" d="M144.5,697.9h5.3v2.2h-5.3v5h-2.6v-12.1h8.7v2.2h-6.1V697.9z"/>
						<path class="st2" d="M159.5,692.8h3L167,705h-2.9l-0.9-2.8h-4.4l-1,2.8h-2.9L159.5,692.8z M159.6,700h2.9l-1.4-4.1L159.6,700z
							"/>
						<path class="st2" d="M170.1,700.5v4.5h-2.6v-12.1h5.9c2.7,0,4,1.7,4,3.8c0,2.1-1.3,3.8-4,3.8H170.1z M170.1,695.1v3.2h2.7
							c1,0,1.9-0.1,1.9-1.6c0-1.5-1-1.6-1.9-1.6H170.1z"/>
						<path class="st2" d="M181.3,700.5v4.5h-2.6v-12.1h5.9c2.7,0,4,1.7,4,3.8c0,2.1-1.3,3.8-4,3.8H181.3z M181.3,695.1v3.2h2.7
							c1,0,1.9-0.1,1.9-1.6c0-1.5-1-1.6-1.9-1.6H181.3z"/>
						<path class="st2" d="M200.1,705h-3.1l-3-4.7h-1.6v4.7h-2.6v-12.1h5.9c2.7,0,4,1.6,4,3.7c0,1.8-1,3.2-2.9,3.6L200.1,705z
							 M192.5,695.1v3.1h2.7c1,0,1.9-0.2,1.9-1.5c0-1.4-1-1.5-1.9-1.5H192.5z"/>
						<path class="st2" d="M207.6,692.8c4.5,0,6.6,2.8,6.6,6.2c0,3.4-2.1,6.2-6.6,6.2c-4.5,0-6.6-2.8-6.6-6.2
							C201,695.6,203.1,692.8,207.6,692.8z M207.6,703.1c2.3,0,4-1.5,4-4.1c0-2.6-1.6-4.1-4-4.1c-2.3,0-4,1.5-4,4.1
							C203.6,701.7,205.2,703.1,207.6,703.1z"/>
						<path class="st2" d="M213.7,692.9h2.9l3.2,9.1l3.1-9.1h2.9l-4.6,12.1h-2.8L213.7,692.9z"/>
						<path class="st2" d="M228.9,697.7h5.3v2.2h-5.3v3h6.2v2.2h-8.8v-12.1h8.7v2.2h-6.1V697.7z"/>
						<path class="st2" d="M236.6,705v-12.1h4.2c4.5,0,6.8,2.7,6.8,6c0,3.4-2.3,6-6.8,6H236.6z M240.8,702.8c2.3,0,4.1-1.2,4.1-3.9
							c0-2.6-1.8-3.9-4.1-3.9h-1.6v7.7H240.8z"/>
						<path class="st2" d="M263.8,705h-3.1l-3-4.7h-1.6v4.7h-2.6v-12.1h5.9c2.7,0,4,1.6,4,3.7c0,1.8-1,3.2-2.9,3.6L263.8,705z
							 M256.1,695.1v3.1h2.7c1,0,1.9-0.2,1.9-1.5c0-1.4-1-1.5-1.9-1.5H256.1z"/>
						<path class="st2" d="M267.6,697.7h5.3v2.2h-5.3v3h6.2v2.2H265v-12.1h8.7v2.2h-6.1V697.7z"/>
						<path class="st2" d="M281.5,692.8c4.5,0,6.6,2.8,6.6,6.2c0,2.6-1.2,4.9-3.8,5.8l3.2,3l-1.9,1.9l-4.4-4.5
							c-4.3-0.1-6.2-2.9-6.2-6.2C274.9,695.6,277,692.8,281.5,692.8z M281.5,703.1c2.3,0,4-1.5,4-4.1c0-2.6-1.6-4.1-4-4.1
							c-2.3,0-4,1.5-4,4.1C277.5,701.7,279.1,703.1,281.5,703.1z"/>
						<path class="st2" d="M299.6,700.9c0,2.6-1.4,4.3-5,4.3c-3.6,0-5-1.7-5-4.3v-7.9h2.6v7.9c0,1.9,1.5,2.3,2.4,2.3
							c0.9,0,2.4-0.3,2.4-2.3v-7.9h2.6V700.9z"/>
						<path class="st2" d="M304,697.7h5.3v2.2H304v3h6.2v2.2h-8.8v-12.1h8.7v2.2H304V697.7z"/>
						<path class="st2" d="M315.4,700c-2.1-0.6-3.9-1.4-3.9-3.8c0-2.6,2.2-3.4,4.4-3.4c1.9,0,3.2,0.3,4.3,0.8l-0.5,2.2
							c-1.5-0.6-2.7-0.9-4.1-0.9c-0.7,0-1.4,0.2-1.4,1c0,0.7,0.4,1.1,2.1,1.6c3.1,1,4.1,2.2,4.1,4c0,3.1-2.7,3.8-4.6,3.8
							c-1.9,0-3.4-0.5-4.5-1l0.3-2.1c1.5,0.6,2.9,1,4.2,1c1.6,0,1.8-0.7,1.8-1.4C317.6,700.9,317.2,700.5,315.4,700z"/>
						<path class="st2" d="M327.4,705h-2.6v-9.9h-3.7v-2.2h10v2.2h-3.7V705z"/>
						<path class="st2" d="M336,700c-2.1-0.6-3.9-1.4-3.9-3.8c0-2.6,2.2-3.4,4.4-3.4c1.9,0,3.2,0.3,4.3,0.8l-0.5,2.2
							c-1.5-0.6-2.7-0.9-4.1-0.9c-0.7,0-1.4,0.2-1.4,1c0,0.7,0.4,1.1,2.1,1.6c3.1,1,4.1,2.2,4.1,4c0,3.1-2.7,3.8-4.6,3.8
							c-1.9,0-3.4-0.5-4.5-1l0.3-2.1c1.5,0.6,2.9,1,4.2,1c1.6,0,1.8-0.7,1.8-1.4C338.1,700.9,337.8,700.5,336,700z"/>
					</g>
				</g>
			</g>
			<g>
				<g>
					<g class="st1">
						<path class="st2" d="M74.7,1153.8h3l4.5,12.2h-2.9l-0.9-2.8h-4.4l-1,2.8h-2.9L74.7,1153.8z M74.7,1161h2.9l-1.4-4.1L74.7,1161
							z"/>
						<path class="st2" d="M89.8,1161.5v4.5h-2.6v-12.1h5.9c2.7,0,4,1.7,4,3.8c0,2.1-1.3,3.8-4,3.8H89.8z M89.8,1156.1v3.2h2.7
							c1,0,1.9-0.1,1.9-1.6c0-1.5-1-1.6-1.9-1.6H89.8z"/>
						<path class="st2" d="M108.6,1166h-3.1l-3-4.7h-1.6v4.7h-2.6v-12.1h5.9c2.7,0,4,1.6,4,3.7c0,1.8-1,3.2-2.9,3.6L108.6,1166z
							 M100.9,1156.1v3.1h2.7c1,0,1.9-0.2,1.9-1.5c0-1.4-1-1.5-1.9-1.5H100.9z"/>
						<path class="st2" d="M116.1,1153.8c4.5,0,6.6,2.8,6.6,6.2c0,3.4-2.1,6.2-6.6,6.2c-4.5,0-6.6-2.8-6.6-6.2
							C109.5,1156.6,111.5,1153.8,116.1,1153.8z M116.1,1164.1c2.3,0,4-1.5,4-4.1c0-2.6-1.6-4.1-4-4.1c-2.3,0-4,1.5-4,4.1
							C112.1,1162.7,113.7,1164.1,116.1,1164.1z"/>
						<path class="st2" d="M126.7,1161.5v4.5h-2.6v-12.1h5.9c2.7,0,4,1.7,4,3.8c0,2.1-1.3,3.8-4,3.8H126.7z M126.7,1156.1v3.2h2.7
							c1,0,1.9-0.1,1.9-1.6c0-1.5-1-1.6-1.9-1.6H126.7z"/>
						<path class="st2" d="M141.4,1153.8c4.5,0,6.6,2.8,6.6,6.2c0,3.4-2.1,6.2-6.6,6.2c-4.5,0-6.6-2.8-6.6-6.2
							C134.9,1156.6,136.9,1153.8,141.4,1153.8z M141.4,1164.1c2.3,0,4-1.5,4-4.1c0-2.6-1.6-4.1-4-4.1c-2.3,0-4,1.5-4,4.1
							C137.5,1162.7,139.1,1164.1,141.4,1164.1z"/>
						<path class="st2" d="M153.2,1161c-2.1-0.6-3.9-1.4-3.9-3.8c0-2.6,2.2-3.4,4.4-3.4c1.9,0,3.2,0.3,4.3,0.8l-0.5,2.2
							c-1.5-0.6-2.7-0.9-4.1-0.9c-0.7,0-1.4,0.2-1.4,1c0,0.7,0.4,1.1,2.1,1.6c3.1,1,4.1,2.2,4.1,4c0,3.1-2.7,3.8-4.6,3.8
							c-1.9,0-3.4-0.5-4.5-1l0.3-2.1c1.5,0.6,2.9,1,4.2,1c1.6,0,1.8-0.7,1.8-1.4C155.4,1161.9,155,1161.5,153.2,1161z"/>
						<path class="st2" d="M162.8,1153.8h3l4.5,12.2h-2.9l-0.9-2.8H162l-1,2.8h-2.9L162.8,1153.8z M162.8,1161h2.9l-1.4-4.1
							L162.8,1161z"/>
						<path class="st2" d="M173.4,1163.8h6.2v2.2h-8.8v-12.1h2.6V1163.8z"/>
						<path class="st2" d="M198.2,1166h-3l-2.2-7.1l-2.2,7.1h-3l-3.6-12.1h2.9l2.3,9.1l2.4-9.2h2.5l2.3,9.2l2.3-9.1h2.9L198.2,1166z
							"/>
						<path class="st2" d="M205,1166h-2.6v-12.1h2.6V1166z"/>
						<path class="st2" d="M212.4,1166h-2.6v-9.9H206v-2.2h10v2.2h-3.7V1166z"/>
						<path class="st2" d="M219.8,1160.9v5.1h-2.6v-12.1h2.6v4.8h4.9v-4.8h2.6v12.1h-2.6v-5.1H219.8z"/>
						<path class="st2" d="M236.9,1153.8h3l4.5,12.2h-2.9l-0.9-2.8h-4.4l-1,2.8h-2.9L236.9,1153.8z M236.9,1161h2.9l-1.4-4.1
							L236.9,1161z"/>
						<path class="st2" d="M247.5,1161.5v4.5h-2.6v-12.1h5.9c2.7,0,4,1.7,4,3.8c0,2.1-1.3,3.8-4,3.8H247.5z M247.5,1156.1v3.2h2.7
							c1,0,1.9-0.1,1.9-1.6c0-1.5-1-1.6-1.9-1.6H247.5z"/>
						<path class="st2" d="M258.7,1161.5v4.5h-2.6v-12.1h5.9c2.7,0,4,1.7,4,3.8c0,2.1-1.3,3.8-4,3.8H258.7z M258.7,1156.1v3.2h2.7
							c1,0,1.9-0.1,1.9-1.6c0-1.5-1-1.6-1.9-1.6H258.7z"/>
						<path class="st2" d="M277.5,1166h-3.1l-3-4.7h-1.6v4.7h-2.6v-12.1h5.9c2.7,0,4,1.6,4,3.7c0,1.8-1,3.2-2.9,3.6L277.5,1166z
							 M269.8,1156.1v3.1h2.7c1,0,1.9-0.2,1.9-1.5c0-1.4-1-1.5-1.9-1.5H269.8z"/>
						<path class="st2" d="M284.9,1153.8c4.5,0,6.6,2.8,6.6,6.2c0,3.4-2.1,6.2-6.6,6.2c-4.5,0-6.6-2.8-6.6-6.2
							C278.4,1156.6,280.4,1153.8,284.9,1153.8z M284.9,1164.1c2.3,0,4-1.5,4-4.1c0-2.6-1.6-4.1-4-4.1c-2.3,0-4,1.5-4,4.1
							C281,1162.7,282.6,1164.1,284.9,1164.1z"/>
						<path class="st2" d="M291.1,1153.9h2.9l3.2,9.1l3.1-9.1h2.9l-4.6,12.1h-2.8L291.1,1153.9z"/>
						<path class="st2" d="M306.3,1158.7h5.3v2.2h-5.3v3h6.2v2.2h-8.8v-12.1h8.7v2.2h-6.1V1158.7z"/>
						<path class="st2" d="M313.9,1166v-12.1h4.2c4.5,0,6.8,2.7,6.8,6c0,3.4-2.3,6-6.8,6H313.9z M318.2,1163.8
							c2.3,0,4.1-1.2,4.1-3.9c0-2.6-1.8-3.9-4.1-3.9h-1.6v7.7H318.2z"/>
					</g>
					<g class="st1">
						<path class="st2" d="M114.5,1186h-3.1l-3-4.7h-1.6v4.7h-2.6v-12.1h5.9c2.7,0,4,1.6,4,3.7c0,1.8-1,3.2-2.9,3.6L114.5,1186z
							 M106.9,1176.1v3.1h2.7c1,0,1.9-0.2,1.9-1.5c0-1.4-1-1.5-1.9-1.5H106.9z"/>
						<path class="st2" d="M118.4,1178.7h5.3v2.2h-5.3v3h6.2v2.2h-8.8v-12.1h8.7v2.2h-6.1V1178.7z"/>
						<path class="st2" d="M132.3,1173.8c4.5,0,6.6,2.8,6.6,6.2c0,2.6-1.2,4.9-3.8,5.8l3.2,3l-1.9,1.9l-4.4-4.5
							c-4.3-0.1-6.2-2.9-6.2-6.2C125.7,1176.6,127.8,1173.8,132.3,1173.8z M132.3,1184.1c2.3,0,4-1.5,4-4.1c0-2.6-1.6-4.1-4-4.1
							c-2.3,0-4,1.5-4,4.1C128.3,1182.7,129.9,1184.1,132.3,1184.1z"/>
						<path class="st2" d="M150.4,1181.9c0,2.6-1.4,4.3-5,4.3s-5-1.7-5-4.3v-7.9h2.6v7.9c0,1.9,1.5,2.3,2.4,2.3s2.4-0.3,2.4-2.3
							v-7.9h2.6V1181.9z"/>
						<path class="st2" d="M154.8,1178.7h5.3v2.2h-5.3v3h6.2v2.2h-8.8v-12.1h8.7v2.2h-6.1V1178.7z"/>
						<path class="st2" d="M166.2,1181c-2.1-0.6-3.9-1.4-3.9-3.8c0-2.6,2.2-3.4,4.4-3.4c1.9,0,3.2,0.3,4.3,0.8l-0.5,2.2
							c-1.5-0.6-2.7-0.9-4.1-0.9c-0.7,0-1.4,0.2-1.4,1c0,0.7,0.4,1.1,2.1,1.6c3.1,1,4.1,2.2,4.1,4c0,3.1-2.7,3.8-4.6,3.8
							c-1.9,0-3.4-0.5-4.5-1l0.3-2.1c1.5,0.6,2.9,1,4.2,1c1.6,0,1.8-0.7,1.8-1.4C168.4,1181.9,168,1181.5,166.2,1181z"/>
						<path class="st2" d="M178.2,1186h-2.6v-9.9h-3.7v-2.2h10v2.2h-3.7V1186z"/>
						<path class="st2" d="M186.8,1181c-2.1-0.6-3.9-1.4-3.9-3.8c0-2.6,2.2-3.4,4.4-3.4c1.9,0,3.2,0.3,4.3,0.8l-0.5,2.2
							c-1.5-0.6-2.7-0.9-4.1-0.9c-0.7,0-1.4,0.2-1.4,1c0,0.7,0.4,1.1,2.1,1.6c3.1,1,4.1,2.2,4.1,4c0,3.1-2.7,3.8-4.6,3.8
							c-1.9,0-3.4-0.5-4.5-1l0.3-2.1c1.5,0.6,2.9,1,4.2,1c1.6,0,1.8-0.7,1.8-1.4C188.9,1181.9,188.6,1181.5,186.8,1181z"/>
						<path class="st2" d="M200.3,1186h-2.6v-12.1h2.6V1186z"/>
						<path class="st2" d="M205.8,1181c-2.1-0.6-3.9-1.4-3.9-3.8c0-2.6,2.2-3.4,4.4-3.4c1.9,0,3.2,0.3,4.3,0.8l-0.5,2.2
							c-1.5-0.6-2.7-0.9-4.1-0.9c-0.7,0-1.4,0.2-1.4,1c0,0.7,0.4,1.1,2.1,1.6c3.1,1,4.1,2.2,4.1,4c0,3.1-2.7,3.8-4.6,3.8
							c-1.9,0-3.4-0.5-4.5-1l0.3-2.1c1.5,0.6,2.9,1,4.2,1c1.6,0,1.8-0.7,1.8-1.4C208,1181.9,207.7,1181.5,205.8,1181z"/>
						<path class="st2" d="M219,1180c0,2.7,1.8,4.1,4.1,4.1c1.4,0,2.5-0.2,3.9-0.7l0.5,2.1c-1.1,0.4-2.6,0.7-4.3,0.7
							c-4.5,0-6.8-2.8-6.8-6.2c0-3.4,2.3-6.2,6.8-6.2c1.7,0,3.2,0.3,4.3,0.7l-0.5,2c-1.3-0.5-2.5-0.7-3.8-0.7
							C220.8,1175.8,219,1177.3,219,1180z"/>
						<path class="st2" d="M239,1186h-3.1l-3-4.7h-1.6v4.7h-2.6v-12.1h5.9c2.7,0,4,1.6,4,3.7c0,1.8-1,3.2-2.9,3.6L239,1186z
							 M231.3,1176.1v3.1h2.7c1,0,1.9-0.2,1.9-1.5c0-1.4-1-1.5-1.9-1.5H231.3z"/>
						<path class="st2" d="M242.8,1178.7h5.3v2.2h-5.3v3h6.2v2.2h-8.8v-12.1h8.7v2.2h-6.1V1178.7z"/>
						<path class="st2" d="M253.8,1173.8h3l4.5,12.2h-2.9l-0.9-2.8h-4.4l-1,2.8h-2.9L253.8,1173.8z M253.9,1181h2.9l-1.4-4.1
							L253.9,1181z"/>
						<path class="st2" d="M265.8,1186h-2.6v-9.9h-3.7v-2.2h10v2.2h-3.7V1186z"/>
						<path class="st2" d="M273.2,1178.7h5.3v2.2h-5.3v3h6.2v2.2h-8.8v-12.1h8.7v2.2h-6.1V1178.7z"/>
						<path class="st2" d="M280.9,1186v-12.1h4.2c4.5,0,6.8,2.7,6.8,6c0,3.4-2.3,6-6.8,6H280.9z M285.1,1183.8
							c2.3,0,4.1-1.2,4.1-3.9c0-2.6-1.8-3.9-4.1-3.9h-1.6v7.7H285.1z"/>
					</g>
				</g>
			</g>
			<g>
				<g>
					<g class="st1">
						<path class="st2" d="M132.8,1582.5v4.5h-2.6v-12.1h5.9c2.7,0,4,1.7,4,3.8c0,2.1-1.3,3.8-4,3.8H132.8z M132.8,1577.1v3.2h2.7
							c1,0,1.9-0.1,1.9-1.6c0-1.5-1-1.6-1.9-1.6H132.8z"/>
						<path class="st2" d="M151.6,1587h-3.1l-3-4.7H144v4.7h-2.6v-12.1h5.9c2.7,0,4,1.6,4,3.7c0,1.8-1,3.2-2.9,3.6L151.6,1587z
							 M144,1577.1v3.1h2.7c1,0,1.9-0.2,1.9-1.5c0-1.4-1-1.5-1.9-1.5H144z"/>
						<path class="st2" d="M159.1,1574.8c4.5,0,6.6,2.8,6.6,6.2c0,3.4-2.1,6.2-6.6,6.2c-4.5,0-6.6-2.8-6.6-6.2
							C152.5,1577.6,154.6,1574.8,159.1,1574.8z M159.1,1585.1c2.3,0,4-1.5,4-4.1c0-2.6-1.6-4.1-4-4.1c-2.3,0-4,1.5-4,4.1
							C155.1,1583.7,156.7,1585.1,159.1,1585.1z"/>
						<path class="st2" d="M169.7,1582.5v4.5h-2.6v-12.1h5.9c2.7,0,4,1.7,4,3.8c0,2.1-1.3,3.8-4,3.8H169.7z M169.7,1577.1v3.2h2.7
							c1,0,1.9-0.1,1.9-1.6c0-1.5-1-1.6-1.9-1.6H169.7z"/>
						<path class="st2" d="M184.5,1574.8c4.5,0,6.6,2.8,6.6,6.2c0,3.4-2.1,6.2-6.6,6.2c-4.5,0-6.6-2.8-6.6-6.2
							C177.9,1577.6,179.9,1574.8,184.5,1574.8z M184.5,1585.1c2.3,0,4-1.5,4-4.1c0-2.6-1.6-4.1-4-4.1c-2.3,0-4,1.5-4,4.1
							C180.5,1583.7,182.1,1585.1,184.5,1585.1z"/>
						<path class="st2" d="M196.2,1582c-2.1-0.6-3.9-1.4-3.9-3.8c0-2.6,2.2-3.4,4.4-3.4c1.9,0,3.2,0.3,4.3,0.8l-0.5,2.2
							c-1.5-0.6-2.7-0.9-4.1-0.9c-0.7,0-1.4,0.2-1.4,1c0,0.7,0.4,1.1,2.1,1.6c3.1,1,4.1,2.2,4.1,4c0,3.1-2.7,3.8-4.6,3.8
							c-1.9,0-3.4-0.5-4.5-1l0.3-2.1c1.5,0.6,2.9,1,4.2,1c1.6,0,1.8-0.7,1.8-1.4C198.4,1582.9,198,1582.5,196.2,1582z"/>
						<path class="st2" d="M205.8,1574.8h3l4.5,12.2h-2.9l-0.9-2.8h-4.4l-1,2.8h-2.9L205.8,1574.8z M205.8,1582h2.9l-1.4-4.1
							L205.8,1582z"/>
						<path class="st2" d="M216.4,1584.8h6.2v2.2h-8.8v-12.1h2.6V1584.8z"/>
						<path class="st2" d="M232.3,1582c-2.1-0.6-3.9-1.4-3.9-3.8c0-2.6,2.2-3.4,4.4-3.4c1.9,0,3.2,0.3,4.3,0.8l-0.5,2.2
							c-1.5-0.6-2.7-0.9-4.1-0.9c-0.7,0-1.4,0.2-1.4,1c0,0.7,0.4,1.1,2.1,1.6c3.1,1,4.1,2.2,4.1,4c0,3.1-2.7,3.8-4.6,3.8
							c-1.9,0-3.4-0.5-4.5-1l0.3-2.1c1.5,0.6,2.9,1,4.2,1c1.6,0,1.8-0.7,1.8-1.4C234.5,1582.9,234.1,1582.5,232.3,1582z"/>
						<path class="st2" d="M241.3,1579.7h5.3v2.2h-5.3v3h6.2v2.2h-8.8v-12.1h8.7v2.2h-6.1V1579.7z"/>
						<path class="st2" d="M251.6,1579.2v7.8H249v-12.1h3.2l4.7,8v-8h2.6v12.1h-3.2L251.6,1579.2z"/>
						<path class="st2" d="M266.8,1587h-2.6v-9.9h-3.7v-2.2h10v2.2h-3.7V1587z"/>
					</g>
					<g class="st1">
						<path class="st2" d="M110.4,1599.9h5.3v2.2h-5.3v5h-2.6v-12.1h8.7v2.2h-6.1V1599.9z"/>
						<path class="st2" d="M123.8,1594.8c4.5,0,6.6,2.8,6.6,6.2c0,3.4-2.1,6.2-6.6,6.2c-4.5,0-6.6-2.8-6.6-6.2
							C117.3,1597.6,119.3,1594.8,123.8,1594.8z M123.8,1605.1c2.3,0,4-1.5,4-4.1c0-2.6-1.6-4.1-4-4.1c-2.3,0-4,1.5-4,4.1
							C119.9,1603.7,121.5,1605.1,123.8,1605.1z"/>
						<path class="st2" d="M142.1,1607H139l-3-4.7h-1.6v4.7h-2.6v-12.1h5.9c2.7,0,4,1.6,4,3.7c0,1.8-1,3.2-2.9,3.6L142.1,1607z
							 M134.5,1597.1v3.1h2.7c1,0,1.9-0.2,1.9-1.5c0-1.4-1-1.5-1.9-1.5H134.5z"/>
						<path class="st2" d="M150.1,1601c0,2.7,1.8,4.1,4.1,4.1c1.4,0,2.5-0.2,3.9-0.7l0.5,2.1c-1.1,0.4-2.6,0.7-4.3,0.7
							c-4.5,0-6.8-2.8-6.8-6.2c0-3.4,2.3-6.2,6.8-6.2c1.7,0,3.2,0.3,4.3,0.7l-0.5,2c-1.4-0.5-2.5-0.7-3.8-0.7
							C151.9,1596.8,150.1,1598.3,150.1,1601z"/>
						<path class="st2" d="M162.4,1599.9h5.3v2.2h-5.3v5h-2.6v-12.1h8.7v2.2h-6.1V1599.9z"/>
						<path class="st2" d="M175.9,1594.8c4.5,0,6.6,2.8,6.6,6.2c0,3.4-2.1,6.2-6.6,6.2c-4.5,0-6.6-2.8-6.6-6.2
							C169.3,1597.6,171.4,1594.8,175.9,1594.8z M175.9,1605.1c2.3,0,4-1.5,4-4.1c0-2.6-1.6-4.1-4-4.1c-2.3,0-4,1.5-4,4.1
							C171.9,1603.7,173.5,1605.1,175.9,1605.1z"/>
						<path class="st2" d="M186.6,1594.9v2.3l-0.2,2.2h-1v-2.2h-1v-2.3H186.6z"/>
						<path class="st2" d="M192.7,1602c-2.1-0.6-3.9-1.4-3.9-3.8c0-2.6,2.2-3.4,4.4-3.4c1.9,0,3.2,0.3,4.3,0.8l-0.5,2.2
							c-1.5-0.6-2.7-0.9-4.1-0.9c-0.7,0-1.4,0.2-1.4,1c0,0.7,0.4,1.1,2.1,1.6c3.1,1,4.1,2.2,4.1,4c0,3.1-2.7,3.8-4.6,3.8
							c-1.9,0-3.4-0.5-4.5-1l0.3-2.1c1.5,0.6,2.9,1,4.2,1c1.6,0,1.8-0.7,1.8-1.4C194.9,1602.9,194.5,1602.5,192.7,1602z"/>
						<path class="st2" d="M207,1594.8h3l4.5,12.2h-2.9l-0.9-2.8h-4.4l-1,2.8h-2.9L207,1594.8z M207,1602h2.9l-1.4-4.1L207,1602z"/>
						<path class="st2" d="M217.6,1602.5v4.5H215v-12.1h5.9c2.7,0,4,1.7,4,3.8c0,2.1-1.3,3.8-4,3.8H217.6z M217.6,1597.1v3.2h2.7
							c1,0,1.9-0.1,1.9-1.6c0-1.5-1-1.6-1.9-1.6H217.6z"/>
						<path class="st2" d="M228.7,1602.5v4.5h-2.6v-12.1h5.9c2.7,0,4,1.7,4,3.8c0,2.1-1.3,3.8-4,3.8H228.7z M228.7,1597.1v3.2h2.7
							c1,0,1.9-0.1,1.9-1.6c0-1.5-1-1.6-1.9-1.6H228.7z"/>
						<path class="st2" d="M247.5,1607h-3.1l-3-4.7h-1.6v4.7h-2.6v-12.1h5.9c2.7,0,4,1.6,4,3.7c0,1.8-1,3.2-2.9,3.6L247.5,1607z
							 M239.9,1597.1v3.1h2.7c1,0,1.9-0.2,1.9-1.5c0-1.4-1-1.5-1.9-1.5H239.9z"/>
						<path class="st2" d="M255,1594.8c4.5,0,6.6,2.8,6.6,6.2c0,3.4-2.1,6.2-6.6,6.2c-4.5,0-6.6-2.8-6.6-6.2
							C248.4,1597.6,250.5,1594.8,255,1594.8z M255,1605.1c2.3,0,4-1.5,4-4.1c0-2.6-1.6-4.1-4-4.1c-2.3,0-4,1.5-4,4.1
							C251.1,1603.7,252.7,1605.1,255,1605.1z"/>
						<path class="st2" d="M261.1,1594.9h2.9l3.2,9.1l3.1-9.1h2.9l-4.6,12.1h-2.8L261.1,1594.9z"/>
						<path class="st2" d="M275.7,1594.8h3l4.5,12.2h-2.9l-0.9-2.8H275l-1,2.8h-2.9L275.7,1594.8z M275.8,1602h2.9l-1.4-4.1
							L275.8,1602z"/>
						<path class="st2" d="M286.3,1604.8h6.2v2.2h-8.8v-12.1h2.6V1604.8z"/>
					</g>
				</g>
			</g>
			<g transform="translate(200, 1068.5) rotate(90.00003218077504) translate(-200, -1068.5)">
				<g>
					<path class="st3" d="M233.5,1076.5v-16l10,8L233.5,1076.5z"/>
				</g>
				<g transform="translate(196.25, 1068.5) rotate(90.00003218077504) translate(-196.25, -1068.5)">
					<path class="st4" d="M196.3,1028.7v83.5"/>
				</g>
			</g>
			<g>
				<g>
					<path class="st3" d="M114.5,922h171c2.8,0,5,2.2,5,5v50c0,2.8-2.2,5-5,5h-171c-2.8,0-5-2.2-5-5v-50
						C109.5,924.2,111.7,922,114.5,922z"/>
				</g>
				<g>
					<g class="st1">
						<path class="st2" d="M161.7,938.3h3l4.5,12.2h-2.9l-0.9-2.8H161l-1,2.8h-2.9L161.7,938.3z M161.8,945.5h2.9l-1.4-4.1
							L161.8,945.5z"/>
						<path class="st2" d="M172.4,946v4.5h-2.6v-12.1h5.9c2.7,0,4,1.7,4,3.8c0,2.1-1.3,3.8-4,3.8H172.4z M172.4,940.6v3.2h2.7
							c1,0,1.9-0.1,1.9-1.6c0-1.5-1-1.6-1.9-1.6H172.4z"/>
						<path class="st2" d="M183.5,946v4.5h-2.6v-12.1h5.9c2.7,0,4,1.7,4,3.8c0,2.1-1.3,3.8-4,3.8H183.5z M183.5,940.6v3.2h2.7
							c1,0,1.9-0.1,1.9-1.6c0-1.5-1-1.6-1.9-1.6H183.5z"/>
						<path class="st2" d="M202.3,950.5h-3.1l-3-4.7h-1.6v4.7h-2.6v-12.1h5.9c2.7,0,4,1.6,4,3.7c0,1.8-1,3.2-2.9,3.6L202.3,950.5z
							 M194.7,940.6v3.1h2.7c1,0,1.9-0.2,1.9-1.5c0-1.4-1-1.5-1.9-1.5H194.7z"/>
						<path class="st2" d="M209.8,938.3c4.5,0,6.6,2.8,6.6,6.2c0,3.4-2.1,6.2-6.6,6.2s-6.6-2.8-6.6-6.2
							C203.2,941.1,205.3,938.3,209.8,938.3z M209.8,948.6c2.3,0,4-1.5,4-4.1c0-2.6-1.6-4.1-4-4.1c-2.3,0-4,1.5-4,4.1
							C205.8,947.2,207.5,948.6,209.8,948.6z"/>
						<path class="st2" d="M215.9,938.4h2.9l3.2,9.1l3.1-9.1h2.9l-4.6,12.1h-2.8L215.9,938.4z"/>
						<path class="st2" d="M231.1,943.2h5.3v2.2h-5.3v3h6.2v2.2h-8.8v-12.1h8.7v2.2h-6.1V943.2z"/>
						<path class="st2" d="M238.8,950.5v-12.1h4.2c4.5,0,6.8,2.7,6.8,6c0,3.4-2.3,6-6.8,6H238.8z M243,948.3c2.3,0,4.1-1.2,4.1-3.9
							c0-2.6-1.8-3.9-4.1-3.9h-1.6v7.7H243z"/>
					</g>
					<g class="st1">
						<path class="st2" d="M170.6,966.5h-3.1l-3-4.7H163v4.7h-2.6v-12.1h5.9c2.7,0,4,1.6,4,3.7c0,1.8-1,3.2-2.9,3.6L170.6,966.5z
							 M163,956.6v3.1h2.7c1,0,1.9-0.2,1.9-1.5c0-1.4-1-1.5-1.9-1.5H163z"/>
						<path class="st2" d="M174.5,959.2h5.3v2.2h-5.3v3h6.2v2.2h-8.8v-12.1h8.7v2.2h-6.1V959.2z"/>
						<path class="st2" d="M188.3,954.3c4.5,0,6.6,2.8,6.6,6.2c0,2.6-1.2,4.9-3.8,5.8l3.2,3l-1.9,1.9l-4.4-4.5
							c-4.3-0.1-6.2-2.9-6.2-6.2C181.8,957.1,183.8,954.3,188.3,954.3z M188.3,964.6c2.3,0,4-1.5,4-4.1c0-2.6-1.6-4.1-4-4.1
							c-2.3,0-4,1.5-4,4.1C184.4,963.2,186,964.6,188.3,964.6z"/>
						<path class="st2" d="M206.4,962.4c0,2.6-1.4,4.3-5,4.3c-3.6,0-5-1.7-5-4.3v-7.9h2.6v7.9c0,1.9,1.5,2.3,2.4,2.3
							s2.4-0.3,2.4-2.3v-7.9h2.6V962.4z"/>
						<path class="st2" d="M210.8,959.2h5.3v2.2h-5.3v3h6.2v2.2h-8.8v-12.1h8.7v2.2h-6.1V959.2z"/>
						<path class="st2" d="M222.3,961.5c-2.1-0.6-3.9-1.4-3.9-3.8c0-2.6,2.2-3.4,4.4-3.4c1.9,0,3.2,0.3,4.3,0.8l-0.5,2.2
							c-1.5-0.6-2.7-0.9-4.1-0.9c-0.7,0-1.4,0.2-1.4,1c0,0.7,0.4,1.1,2.1,1.6c3.1,1,4.1,2.2,4.1,4c0,3.1-2.7,3.8-4.6,3.8
							c-1.9,0-3.4-0.5-4.5-1l0.3-2.1c1.5,0.6,2.9,1,4.2,1c1.6,0,1.8-0.7,1.8-1.4C224.4,962.4,224.1,962,222.3,961.5z"/>
						<path class="st2" d="M234.3,966.5h-2.6v-9.9h-3.7v-2.2h10v2.2h-3.7V966.5z"/>
						<path class="st2" d="M242.8,961.5c-2.1-0.6-3.9-1.4-3.9-3.8c0-2.6,2.2-3.4,4.4-3.4c1.9,0,3.2,0.3,4.3,0.8l-0.5,2.2
							c-1.5-0.6-2.7-0.9-4.1-0.9c-0.7,0-1.4,0.2-1.4,1c0,0.7,0.4,1.1,2.1,1.6c3.1,1,4.1,2.2,4.1,4c0,3.1-2.7,3.8-4.6,3.8
							c-1.9,0-3.4-0.5-4.5-1l0.3-2.1c1.5,0.6,2.9,1,4.2,1c1.6,0,1.8-0.7,1.8-1.4C245,962.4,244.6,962,242.8,961.5z"/>
					</g>
				</g>
			</g>
			<g>
				<g>
					<g class="st1">
						<path class="st2" d="M279.2,524h-3.1l-3-4.7h-1.6v4.7h-2.6v-12.1h5.9c2.7,0,4,1.6,4,3.7c0,1.8-1,3.2-2.9,3.6L279.2,524z
							 M271.5,514.1v3.1h2.7c1,0,1.9-0.2,1.9-1.5c0-1.4-1-1.5-1.9-1.5H271.5z"/>
						<path class="st2" d="M283,516.7h5.3v2.2H283v3h6.2v2.2h-8.8v-12.1h8.7v2.2H283V516.7z"/>
						<path class="st2" d="M296,520.6c0,2.3-0.3,3.6-3.5,3.6c-1.1,0-2.1-0.3-2.7-0.5l0.5-2c0.5,0.1,1.4,0.4,1.8,0.4
							c1,0,1.3-0.3,1.3-1.5v-8.6h2.6V520.6z"/>
						<path class="st2" d="M300.4,516.7h5.3v2.2h-5.3v3h6.2v2.2h-8.8v-12.1h8.7v2.2h-6.1V516.7z"/>
						<path class="st2" d="M310.3,518c0,2.7,1.8,4.1,4.1,4.1c1.4,0,2.5-0.2,3.9-0.7l0.5,2.1c-1.1,0.4-2.6,0.7-4.3,0.7
							c-4.5,0-6.8-2.8-6.8-6.2c0-3.4,2.3-6.2,6.8-6.2c1.7,0,3.2,0.3,4.3,0.7l-0.4,2c-1.4-0.5-2.5-0.7-3.8-0.7
							C312.1,513.8,310.3,515.3,310.3,518z"/>
						<path class="st2" d="M325.6,524H323v-9.9h-3.7v-2.2h10v2.2h-3.7V524z"/>
						<path class="st2" d="M334.2,519c-2.1-0.6-3.9-1.4-3.9-3.8c0-2.6,2.2-3.4,4.4-3.4c1.9,0,3.2,0.3,4.3,0.8l-0.5,2.2
							c-1.5-0.6-2.7-0.9-4.1-0.9c-0.7,0-1.4,0.2-1.4,1c0,0.7,0.4,1.1,2.1,1.6c3.1,1,4.1,2.2,4.1,4c0,3.1-2.7,3.8-4.6,3.8
							c-1.9,0-3.4-0.5-4.5-1l0.3-2.1c1.5,0.6,2.9,1,4.2,1c1.6,0,1.8-0.7,1.8-1.4C336.3,519.9,336,519.5,334.2,519z"/>
					</g>
				</g>
				<g>
					<g class="st1">
						<path class="st2" d="M63.7,511.8h3l4.5,12.2h-2.9l-0.9-2.8H63l-1,2.8h-2.9L63.7,511.8z M63.8,519h2.9l-1.4-4.1L63.8,519z"/>
						<path class="st2" d="M74.4,519.5v4.5h-2.6v-12.1h5.9c2.7,0,4,1.7,4,3.8c0,2.1-1.3,3.8-4,3.8H74.4z M74.4,514.1v3.2h2.7
							c1,0,1.9-0.1,1.9-1.6c0-1.5-1-1.6-1.9-1.6H74.4z"/>
						<path class="st2" d="M85.5,519.5v4.5h-2.6v-12.1h5.9c2.7,0,4,1.7,4,3.8c0,2.1-1.3,3.8-4,3.8H85.5z M85.5,514.1v3.2h2.7
							c1,0,1.9-0.1,1.9-1.6c0-1.5-1-1.6-1.9-1.6H85.5z"/>
						<path class="st2" d="M104.3,524h-3.1l-3-4.7h-1.6v4.7h-2.6v-12.1h5.9c2.7,0,4,1.6,4,3.7c0,1.8-1,3.2-2.9,3.6L104.3,524z
							 M96.7,514.1v3.1h2.7c1,0,1.9-0.2,1.9-1.5c0-1.4-1-1.5-1.9-1.5H96.7z"/>
						<path class="st2" d="M111.8,511.8c4.5,0,6.6,2.8,6.6,6.2c0,3.4-2.1,6.2-6.6,6.2c-4.5,0-6.6-2.8-6.6-6.2
							C105.2,514.6,107.3,511.8,111.8,511.8z M111.8,522.1c2.3,0,4-1.5,4-4.1c0-2.6-1.6-4.1-4-4.1c-2.3,0-4,1.5-4,4.1
							C107.8,520.7,109.5,522.1,111.8,522.1z"/>
						<path class="st2" d="M117.9,511.9h2.9l3.2,9.1l3.1-9.1h2.9l-4.6,12.1h-2.8L117.9,511.9z"/>
						<path class="st2" d="M133.1,516.7h5.3v2.2h-5.3v3h6.2v2.2h-8.8v-12.1h8.7v2.2h-6.1V516.7z"/>
						<path class="st2" d="M144.5,519c-2.1-0.6-3.9-1.4-3.9-3.8c0-2.6,2.2-3.4,4.4-3.4c1.9,0,3.2,0.3,4.3,0.8l-0.5,2.2
							c-1.5-0.6-2.7-0.9-4.1-0.9c-0.7,0-1.4,0.2-1.4,1c0,0.7,0.4,1.1,2.1,1.6c3.1,1,4.1,2.2,4.1,4c0,3.1-2.7,3.8-4.6,3.8
							c-1.9,0-3.4-0.5-4.5-1l0.3-2.1c1.5,0.6,2.9,1,4.2,1c1.6,0,1.8-0.7,1.8-1.4C146.7,519.9,146.4,519.5,144.5,519z"/>
					</g>
				</g>
				<g transform="translate(73.81080743243274, 445)">
					<g>
						<ellipse class="st5" cx="26.7" cy="24.5" rx="26.7" ry="26.5"/>
					</g>
					<g>
						<path class="st5" d="M17.1,23.5l7.3,9.7L35.3,15"/>
					</g>
				</g>
				
					<g transform="translate(298.5000000000001, 471.68919256756726) rotate(90.00003218077504) translate(-298.5000000000001, -471.68919256756726)">
					<g transform="translate(271.81080743243274, 445.1891825675675)">
						<g>
							
								<ellipse transform="matrix(3.535182e-06 1 -1 3.535182e-06 51.1996 1.8207)" class="st5" cx="24.7" cy="26.5" rx="26.5" ry="26.7"/>
						</g>
						<g>
							<path class="st6" d="M31.8,33.9L17.3,19.2"/>
						</g>
						<g>
							<path class="st6" d="M31.7,19.2L17.2,34"/>
						</g>
					</g>
				</g>
			</g>
			<g>
				<g transform="translate(300, 429) rotate(90.00003218077504) translate(-300, -429)">
					<path class="st3" d="M293,437l0-16l10,8L293,437z"/>
				</g>
				<g transform="translate(250, 362.00000999999975) rotate(90.00003218077504) translate(-250, -362.00000999999975)">
					<g>
						<g>
							<path class="st4" d="M264,378.2l0-46.2c0-11,9-20,20-20l31,0"/>
						</g>
						
							<g transform="translate(224.49999000000025, 378.92308692307665) rotate(180.00006436155007) translate(-224.49999000000025, -378.92308692307665)">
							<path class="st4" d="M185,412l0-46.2c0-11,7.7-20,17.1-20H256"/>
						</g>
					</g>
				</g>
			</g>
			
				<g transform="translate(146.53332298889268, 364.4999999999999) rotate(90.00003218077504) translate(-146.53332298889268, -364.4999999999999)">
				<g>
					<g>
						<path class="st4" d="M158,339.8l0,50.2c0,11,9,20,20,20h31"/>
					</g>
					
						<g transform="translate(118.533322988892, 342.9999999999999) rotate(180.00006436155007) translate(-118.533322988892, -342.9999999999999)">
						<path class="st4" d="M79,311l0,44.1c0,11,7.7,20,17.1,20H150"/>
					</g>
				</g>
				<g>
					<path class="st3" d="M204,418l0-16l10,8L204,418z"/>
				</g>
			</g>
			<g>
				<g>
					<g transform="translate(201, 641) rotate(90.00003218077504) translate(-201, -641)">
						<path class="st3" d="M194,649l0-16l10,8L194,649z"/>
					</g>
					
						<g transform="translate(150.50000000000136, 589.3515729932185) rotate(180.00006436155007) translate(-150.50000000000136, -589.3515729932185)">
						<g>
							<path class="st4" d="M100,543.9v27.8c0,11,9,20,20,20h37.9"/>
						</g>
						
							<g transform="translate(171.4668973333657, 613.1646529229988) rotate(180.00006436155007) translate(-171.4668973333657, -613.1646529229988)">
							<path class="st4" d="M141.9,587.5v27.4c0,11,9,20,20,20H201"/>
						</g>
					</g>
				</g>
			</g>
			<g>
				<g>
					<g>
						<g>
							<path class="st7" d="M247.6,1266.6l-6.4,21.4c-3.7-3.5-8.7-5.6-14.4-5.6c-11.6,0-21,9.4-21,21c0,1.7,0.2,3.5,0.6,5h-50.1
								c-0.4,0-0.8,0-1-0.2c-0.2,0-0.2,0-0.4-0.2h-0.4c0,0-0.2,0-0.2-0.2c0,0.2-0.2,0.2-0.2,0l0,0c-0.6-0.4-1-1-1.2-1.7
								c-0.2-0.2-0.2-0.4-0.2-0.6v-0.2c0-0.2-0.2-0.4-0.2-0.6v-0.2v-0.4c0-0.4,0-1,0.2-1.5l11.6-38.9c0.6-1.9,2.3-3.1,4-3.1h75.5
								C246.6,1260.8,248.5,1263.7,247.6,1266.6L247.6,1266.6z"/>
						</g>
						<g>
							<path class="st7" d="M236.6,1260.8v-17.1c0-2.3-1.9-4.2-4.2-4.2h-48.3c-1.7,0-3.1-0.8-3.7-2.3l-2.7-5.8
								c-0.6-1.5-2.1-2.3-3.7-2.3h-17.7c-2.3-0.2-4.2,1.7-4.2,4v71.3c0,1.9,1.2,3.5,3.1,4c-2.3-0.6-3.7-3.1-2.9-5.6"/>
						</g>
					</g>
					<g>
						<path class="st7" d="M247.8,1303.7c0,11.6-9.4,21-21,21c-10,0-18.1-6.9-20.4-16c-0.4-1.7-0.6-3.3-0.6-5c0-11.6,9.4-21,21-21
							c5.6,0,10.6,2.1,14.4,5.6C245.3,1292,247.8,1297.6,247.8,1303.7L247.8,1303.7z"/>
					</g>
					
						<g transform="translate(226.60000000000036, 1305.7560000000012) rotate(90.00003218077504) translate(-226.60000000000036, -1305.7560000000012)">
						<path class="st7" d="M235.6,1305.7h-22"/>
					</g>
					<g>
						<path class="st7" d="M237.6,1303.7h-22"/>
					</g>
				</g>
			</g>
			<g>
				<g>
					<g>
						<g>
							<g>
								<path class="st8" d="M165.4,86.7h-14.7c-2.6,0-4.4,1.9-4.4,4.4V158c0,2.3,2.1,4.4,4.4,4.4h98.7c2.6,0,4.4-1.9,4.4-4.4V91.2
									c0-2.3-2.1-4.4-4.4-4.4h-14.7"/>
							</g>
							<g>
								<path class="st8" d="M147.6,87.9l47.5,39.8c2.8,2.3,7,2.3,10.1,0l47.5-39.8"/>
							</g>
							<g>
								<path class="st8" d="M190.6,124.2l-43.1,36.3"/>
							</g>
							<g>
								<path class="st8" d="M252.4,160.4l-42.8-35.8"/>
							</g>
							<g>
								<path class="st8" d="M165.4,102.9V54.7h69.3v48.2"/>
							</g>
							<g>
								<path class="st8" d="M177.1,66.4H224"/>
							</g>
							<g>
								<path class="st8" d="M177.1,78.8H224"/>
							</g>
							<g>
								<path class="st8" d="M177.1,91.2H224"/>
							</g>
							<g>
								<path class="st8" d="M180.8,103.4h43.7"/>
							</g>
						</g>
					</g>
				</g>
				<g>
					<g>
						<path class="st3" d="M132.2,194.7h135.6c2.8,0,5,2,5,4.6v51.2c0,2.5-2.2,4.6-5,4.6H132.2c-2.8,0-5-2-5-4.6v-51.2
							C127.2,196.7,129.4,194.7,132.2,194.7z"/>
					</g>
					<g>
						<g class="st1">
							<path class="st2" d="M171.7,223h-3.1l-3-4.7h-1.6v4.7h-2.6v-12.1h5.9c2.7,0,4,1.6,4,3.7c0,1.8-1,3.2-2.9,3.6L171.7,223z
								 M164.1,213.1v3.1h2.7c1,0,1.9-0.2,1.9-1.5c0-1.4-1-1.5-1.9-1.5H164.1z"/>
							<path class="st2" d="M175.6,215.7h5.3v2.2h-5.3v3h6.2v2.2H173v-12.1h8.7v2.2h-6.1V215.7z"/>
							<path class="st2" d="M189.4,210.8c4.5,0,6.6,2.8,6.6,6.2c0,2.6-1.2,4.9-3.8,5.8l3.2,3l-1.9,1.9l-4.4-4.5
								c-4.3-0.1-6.2-2.9-6.2-6.2C182.9,213.6,184.9,210.8,189.4,210.8z M189.4,221.1c2.3,0,4-1.5,4-4.1c0-2.6-1.6-4.1-4-4.1
								c-2.3,0-4,1.5-4,4.1C185.5,219.7,187.1,221.1,189.4,221.1z"/>
							<path class="st2" d="M207.5,218.9c0,2.6-1.4,4.3-5,4.3c-3.6,0-5-1.7-5-4.3v-7.9h2.6v7.9c0,1.9,1.5,2.3,2.4,2.3
								s2.4-0.3,2.4-2.3v-7.9h2.6V218.9z"/>
							<path class="st2" d="M211.9,215.7h5.3v2.2h-5.3v3h6.2v2.2h-8.8v-12.1h8.7v2.2h-6.1V215.7z"/>
							<path class="st2" d="M223.4,218c-2.1-0.6-3.9-1.4-3.9-3.8c0-2.6,2.2-3.4,4.4-3.4c1.9,0,3.2,0.3,4.3,0.8l-0.5,2.2
								c-1.5-0.6-2.7-0.9-4.1-0.9c-0.7,0-1.4,0.2-1.4,1c0,0.7,0.4,1.1,2.1,1.6c3.1,1,4.1,2.2,4.1,4c0,3.1-2.7,3.8-4.6,3.8
								c-1.9,0-3.4-0.5-4.5-1l0.3-2.1c1.5,0.6,2.9,1,4.2,1c1.6,0,1.8-0.7,1.8-1.4C225.5,218.9,225.2,218.5,223.4,218z"/>
							<path class="st2" d="M235.4,223h-2.6v-9.9H229v-2.2h10v2.2h-3.7V223z"/>
						</g>
						<g class="st1">
							<path class="st2" d="M169.9,242h-3.1l-3-4.7h-1.6v4.7h-2.6v-12.1h5.9c2.7,0,4,1.6,4,3.7c0,1.8-1,3.2-2.9,3.6L169.9,242z
								 M162.3,232.1v3.1h2.7c1,0,1.9-0.2,1.9-1.5c0-1.4-1-1.5-1.9-1.5H162.3z"/>
							<path class="st2" d="M173.8,234.7h5.3v2.2h-5.3v3h6.2v2.2h-8.8v-12.1h8.7v2.2h-6.1V234.7z"/>
							<path class="st2" d="M183.7,236c0,2.7,1.8,4.1,4.1,4.1c1.4,0,2.5-0.2,3.9-0.7l0.5,2.1c-1.1,0.4-2.6,0.7-4.3,0.7
								c-4.5,0-6.8-2.8-6.8-6.2c0-3.4,2.3-6.2,6.8-6.2c1.7,0,3.2,0.3,4.3,0.7l-0.5,2c-1.4-0.5-2.5-0.7-3.8-0.7
								C185.5,231.8,183.7,233.3,183.7,236z"/>
							<path class="st2" d="M196,234.7h5.3v2.2H196v3h6.2v2.2h-8.8v-12.1h8.7v2.2H196V234.7z"/>
							<path class="st2" d="M206.3,242h-2.6v-12.1h2.6V242z"/>
							<path class="st2" d="M206.8,229.9h2.9l3.2,9.1l3.1-9.1h2.9l-4.6,12.1h-2.8L206.8,229.9z"/>
							<path class="st2" d="M222.1,234.7h5.3v2.2h-5.3v3h6.2v2.2h-8.8v-12.1h8.7v2.2h-6.1V234.7z"/>
							<path class="st2" d="M229.7,242v-12.1h4.2c4.5,0,6.8,2.7,6.8,6c0,3.4-2.3,6-6.8,6H229.7z M233.9,239.8c2.3,0,4.1-1.2,4.1-3.9
								c0-2.6-1.8-3.9-4.1-3.9h-1.6v7.7H233.9z"/>
						</g>
					</g>
				</g>
			</g>
			<g>
				<g>
					<path class="st3" d="M129.5,1368h141c2.8,0,5,2.2,5,5v50c0,2.8-2.2,5-5,5h-141c-2.8,0-5-2.2-5-5v-50
						C124.5,1370.2,126.7,1368,129.5,1368z"/>
				</g>
				<g>
					<g class="st1">
						<path class="st9" d="M168.9,1390c0,2.7,1.8,4.1,4.1,4.1c1.4,0,2.5-0.2,3.9-0.7l0.5,2.1c-1.1,0.4-2.6,0.7-4.3,0.7
							c-4.5,0-6.8-2.8-6.8-6.2c0-3.4,2.3-6.2,6.8-6.2c1.7,0,3.2,0.3,4.3,0.7l-0.5,2c-1.4-0.5-2.5-0.7-3.8-0.7
							C170.7,1385.8,168.9,1387.3,168.9,1390z"/>
						<path class="st9" d="M188.9,1396h-3.1l-3-4.7h-1.6v4.7h-2.6v-12.1h5.9c2.7,0,4,1.6,4,3.7c0,1.8-1,3.2-2.9,3.6L188.9,1396z
							 M181.2,1386.1v3.1h2.7c1,0,1.9-0.2,1.9-1.5c0-1.4-1-1.5-1.9-1.5H181.2z"/>
						<path class="st9" d="M192.7,1388.7h5.3v2.2h-5.3v3h6.2v2.2h-8.8v-12.1h8.7v2.2h-6.1V1388.7z"/>
						<path class="st9" d="M203.7,1383.8h3l4.5,12.2h-2.9l-0.9-2.8H203l-1,2.8h-2.9L203.7,1383.8z M203.8,1391h2.9l-1.4-4.1
							L203.8,1391z"/>
						<path class="st9" d="M215.7,1396h-2.6v-9.9h-3.7v-2.2h10v2.2h-3.7V1396z"/>
						<path class="st9" d="M223.1,1388.7h5.3v2.2h-5.3v3h6.2v2.2h-8.8v-12.1h8.7v2.2h-6.1V1388.7z"/>
						<path class="st9" d="M234.5,1391c-2.1-0.6-3.9-1.4-3.9-3.8c0-2.6,2.2-3.4,4.4-3.4c1.9,0,3.2,0.3,4.3,0.8l-0.5,2.2
							c-1.5-0.6-2.7-0.9-4.1-0.9c-0.7,0-1.4,0.2-1.4,1c0,0.7,0.4,1.1,2.1,1.6c3.1,1,4.1,2.2,4.1,4c0,3.1-2.7,3.8-4.6,3.8
							c-1.9,0-3.4-0.5-4.5-1l0.3-2.1c1.5,0.6,2.9,1,4.2,1c1.6,0,1.8-0.7,1.8-1.4C236.7,1391.9,236.4,1391.5,234.5,1391z"/>
					</g>
					<g class="st1">
						<path class="st9" d="M159.5,1408.5v4.5h-2.6v-12.1h5.9c2.7,0,4,1.7,4,3.8c0,2.1-1.3,3.8-4,3.8H159.5z M159.5,1403.1v3.2h2.7
							c1,0,1.9-0.1,1.9-1.6c0-1.5-1-1.6-1.9-1.6H159.5z"/>
						<path class="st9" d="M178.3,1413h-3.1l-3-4.7h-1.6v4.7h-2.6v-12.1h5.9c2.7,0,4,1.6,4,3.7c0,1.8-1,3.2-2.9,3.6L178.3,1413z
							 M170.7,1403.1v3.1h2.7c1,0,1.9-0.2,1.9-1.5c0-1.4-1-1.5-1.9-1.5H170.7z"/>
						<path class="st9" d="M185.8,1400.8c4.5,0,6.6,2.8,6.6,6.2c0,3.4-2.1,6.2-6.6,6.2c-4.5,0-6.6-2.8-6.6-6.2
							C179.2,1403.6,181.3,1400.8,185.8,1400.8z M185.8,1411.1c2.3,0,4-1.5,4-4.1c0-2.6-1.6-4.1-4-4.1c-2.3,0-4,1.5-4,4.1
							C181.8,1409.7,183.5,1411.1,185.8,1411.1z"/>
						<path class="st9" d="M196.4,1408.5v4.5h-2.6v-12.1h5.9c2.7,0,4,1.7,4,3.8c0,2.1-1.3,3.8-4,3.8H196.4z M196.4,1403.1v3.2h2.7
							c1,0,1.9-0.1,1.9-1.6c0-1.5-1-1.6-1.9-1.6H196.4z"/>
						<path class="st9" d="M211.2,1400.8c4.5,0,6.6,2.8,6.6,6.2c0,3.4-2.1,6.2-6.6,6.2c-4.5,0-6.6-2.8-6.6-6.2
							C204.6,1403.6,206.7,1400.8,211.2,1400.8z M211.2,1411.1c2.3,0,4-1.5,4-4.1c0-2.6-1.6-4.1-4-4.1c-2.3,0-4,1.5-4,4.1
							C207.2,1409.7,208.8,1411.1,211.2,1411.1z"/>
						<path class="st9" d="M222.9,1408c-2.1-0.6-3.9-1.4-3.9-3.8c0-2.6,2.2-3.4,4.4-3.4c1.9,0,3.2,0.3,4.3,0.8l-0.5,2.2
							c-1.5-0.6-2.7-0.9-4.1-0.9c-0.7,0-1.4,0.2-1.4,1c0,0.7,0.4,1.1,2.1,1.6c3.1,1,4.1,2.2,4.1,4c0,3.1-2.7,3.8-4.6,3.8
							c-1.9,0-3.4-0.5-4.5-1l0.3-2.1c1.5,0.6,2.9,1,4.2,1c1.6,0,1.8-0.7,1.8-1.4C225.1,1408.9,224.8,1408.5,222.9,1408z"/>
						<path class="st9" d="M232.5,1400.8h3l4.5,12.2h-2.9l-0.9-2.8h-4.4l-1,2.8h-2.9L232.5,1400.8z M232.6,1408h2.9l-1.4-4.1
							L232.6,1408z"/>
						<path class="st9" d="M243.1,1410.8h6.2v2.2h-8.8v-12.1h2.6V1410.8z"/>
					</g>
				</g>
			</g>
			<g>
				
					<g transform="translate(208.75832913183206, 800.5053237278098) rotate(180.00006436155007) translate(-208.75832913183206, -800.5053237278098)">
					<g>
						<g>
							<path class="st7" d="M251.6,747.8h-85.8v109.4H230l21.7-21.6L251.6,747.8L251.6,747.8z"/>
						</g>
						<g>
							<path class="st7" d="M230,857.2l21.7-21.6H230V857.2z"/>
						</g>
					</g>
				</g>
				
					<g transform="translate(196.60398765273553, 820.5201176035544) rotate(180.00006436155007) translate(-196.60398765273553, -820.5201176035544)">
					<g>
						<g>
							<g>
								<path id="path-47" class="st0" d="M239.5,767.8h-85.8v109.4h64.1l21.7-21.6L239.5,767.8L239.5,767.8z"/>
							</g>
							<g>
								<path id="path-47_1_" class="st7" d="M239.5,767.8h-85.8v109.4h64.1l21.7-21.6L239.5,767.8L239.5,767.8z"/>
							</g>
						</g>
						<g>
							<path class="st7" d="M217.8,877.2l21.7-21.6h-21.7V877.2z"/>
						</g>
						<g>
							<g>
								<path class="st7" d="M164.7,839.4h31.6"/>
							</g>
						</g>
					</g>
				</g>
				
					<g transform="translate(186.88051446945323, 835.6828402366882) rotate(180.00006436155007) translate(-186.88051446945323, -835.6828402366882)">
					<g>
						<g>
							<g>
								<path id="path-50" class="st0" d="M229.8,783H144v109.4h64.1l21.7-21.6V783z"/>
							</g>
							<g>
								<path id="path-50_1_" class="st7" d="M229.8,783H144v109.4h64.1l21.7-21.6V783z"/>
							</g>
						</g>
						<g>
							<path class="st7" d="M208.1,892.4l21.7-21.6h-21.7V892.4z"/>
						</g>
						<g>
							<g>
								<path class="st7" d="M155,804.2h63.5"/>
							</g>
							<g>
								<path class="st7" d="M155,820.8h63.5"/>
							</g>
							<g>
								<path class="st7" d="M155,837.7h63.5"/>
							</g>
							<g>
								<path class="st7" d="M155,854.6h63.5"/>
							</g>
						</g>
					</g>
				</g>
			</g>
			<g transform="translate(200, 1509.000000000001) rotate(90.00003218077504) translate(-200, -1509.000000000001)">
				<g>
					<path class="st3" d="M223,1517v-16l10,8L223,1517z"/>
				</g>
				<g transform="translate(196.25, 1509.000000000001) rotate(90.00003218077504) translate(-196.25, -1509.000000000001)">
					<path class="st4" d="M196.3,1479.7v62.5"/>
				</g>
			</g>
			<g>
				<g>
					<g>
						<g>
							<path class="st7" d="M283.7,1674.4h-56.6c-1.9,0-3.7-1.1-4.5-2.8l-3.2-6.9c-0.9-1.7-2.6-2.8-4.5-2.8h-20.5c-2.8,0-5,2.4-5,5
								l-19,74.1c0,2.8,2.2,5,5,5h89.4c2.8,0,5-2.2,5-5l19-61.6C288.7,1676.6,286.5,1674.4,283.7,1674.4L283.7,1674.4z"/>
						</g>
						<g>
							<path class="st7" d="M184,1691h99.7"/>
						</g>
					</g>
				</g>
				<g>
					<g>
						<path class="st7" d="M173.2,1682.8H117"/>
					</g>
					<g>
						<path class="st7" d="M166.3,1707.2H110"/>
					</g>
					<g>
						<path class="st7" d="M159.2,1732H103"/>
					</g>
				</g>
			</g>
			<g>
				<g>
					<path class="st3" d="M117.8,1795h164.4c2.8,0,5,2.2,5,5v50c0,2.8-2.2,5-5,5H117.8c-2.8,0-5-2.2-5-5v-50
						C112.8,1797.2,115.1,1795,117.8,1795z"/>
				</g>
				<g>
					<g class="st1">
						<path class="st2" d="M154.3,1819.5v4.5h-2.6v-12.1h5.9c2.7,0,4,1.7,4,3.8c0,2.1-1.3,3.8-4,3.8H154.3z M154.3,1814.1v3.2h2.7
							c1,0,1.9-0.1,1.9-1.6c0-1.5-1-1.6-1.9-1.6H154.3z"/>
						<path class="st2" d="M173.1,1824h-3.1l-3-4.7h-1.6v4.7h-2.6v-12.1h5.9c2.7,0,4,1.6,4,3.7c0,1.8-1,3.2-2.9,3.6L173.1,1824z
							 M165.5,1814.1v3.1h2.7c1,0,1.9-0.2,1.9-1.5c0-1.4-1-1.5-1.9-1.5H165.5z"/>
						<path class="st2" d="M180.6,1811.8c4.5,0,6.6,2.8,6.6,6.2c0,3.4-2.1,6.2-6.6,6.2c-4.5,0-6.6-2.8-6.6-6.2
							C174,1814.6,176.1,1811.8,180.6,1811.8z M180.6,1822.1c2.3,0,4-1.5,4-4.1c0-2.6-1.6-4.1-4-4.1c-2.3,0-4,1.5-4,4.1
							C176.6,1820.7,178.3,1822.1,180.6,1822.1z"/>
						<path class="st2" d="M191.2,1819.5v4.5h-2.6v-12.1h5.9c2.7,0,4,1.7,4,3.8c0,2.1-1.3,3.8-4,3.8H191.2z M191.2,1814.1v3.2h2.7
							c1,0,1.9-0.1,1.9-1.6c0-1.5-1-1.6-1.9-1.6H191.2z"/>
						<path class="st2" d="M206,1811.8c4.5,0,6.6,2.8,6.6,6.2c0,3.4-2.1,6.2-6.6,6.2c-4.5,0-6.6-2.8-6.6-6.2
							C199.4,1814.6,201.5,1811.8,206,1811.8z M206,1822.1c2.3,0,4-1.5,4-4.1c0-2.6-1.6-4.1-4-4.1c-2.3,0-4,1.5-4,4.1
							C202,1820.7,203.6,1822.1,206,1822.1z"/>
						<path class="st2" d="M217.8,1819c-2.1-0.6-3.9-1.4-3.9-3.8c0-2.6,2.2-3.4,4.4-3.4c1.9,0,3.2,0.3,4.3,0.8l-0.5,2.2
							c-1.5-0.6-2.7-0.9-4.1-0.9c-0.7,0-1.4,0.2-1.4,1c0,0.7,0.4,1.1,2.1,1.6c3.1,1,4.1,2.2,4.1,4c0,3.1-2.7,3.8-4.6,3.8
							c-1.9,0-3.4-0.5-4.5-1l0.3-2.1c1.5,0.6,2.9,1,4.2,1c1.6,0,1.8-0.7,1.8-1.4C219.9,1819.9,219.6,1819.5,217.8,1819z"/>
						<path class="st2" d="M227.3,1811.8h3l4.5,12.2h-2.9l-0.9-2.8h-4.4l-1,2.8h-2.9L227.3,1811.8z M227.4,1819h2.9l-1.4-4.1
							L227.4,1819z"/>
						<path class="st2" d="M237.9,1821.8h6.2v2.2h-8.8v-12.1h2.6V1821.8z"/>
					</g>
					<g class="st1">
						<path class="st2" d="M180.8,1835c-2.1-0.6-3.9-1.4-3.9-3.8c0-2.6,2.2-3.4,4.4-3.4c1.9,0,3.2,0.3,4.3,0.8l-0.5,2.2
							c-1.5-0.6-2.7-0.9-4.1-0.9c-0.7,0-1.4,0.2-1.4,1c0,0.7,0.4,1.1,2.1,1.6c3.1,1,4.1,2.2,4.1,4c0,3.1-2.7,3.8-4.6,3.8
							c-1.9,0-3.4-0.5-4.5-1l0.3-2.1c1.5,0.6,2.9,1,4.2,1c1.6,0,1.8-0.7,1.8-1.4C183,1835.9,182.7,1835.5,180.8,1835z"/>
						<path class="st2" d="M189.9,1832.7h5.3v2.2h-5.3v3h6.2v2.2h-8.8v-12.1h8.7v2.2h-6.1V1832.7z"/>
						<path class="st2" d="M200.1,1832.2v7.8h-2.6v-12.1h3.2l4.7,8v-8h2.6v12.1h-3.2L200.1,1832.2z"/>
						<path class="st2" d="M215.4,1840h-2.6v-9.9H209v-2.2h10v2.2h-3.7V1840z"/>
					</g>
				</g>
			</g>
		</g>
	</g>
</g>
</svg>
