<?xml version="1.0" encoding="utf-8"?>
<!-- Generator: Adobe Illustrator 22.0.1, SVG Export Plug-In . SVG Version: 6.00 Build 0)  -->
<svg version="1.1" id="Layer_1" xmlns="http://www.w3.org/2000/svg" xmlns:xlink="http://www.w3.org/1999/xlink" x="0px" y="0px"
	 viewBox="0 0 400 1910" style="enable-background:new 0 0 400 1910;" xml:space="preserve">
<style type="text/css">
	.st0{fill:#1D1E26;}
	.st1{fill:#7000FF;}
	.st2{fill-opacity:0;stroke:#7000FF;stroke-width:2;}
	.st3{fill-opacity:0;stroke:#FFFFFF;stroke-width:2;stroke-linecap:round;stroke-linejoin:round;}
	.st4{fill-opacity:0;stroke:#FFFFFF;stroke-width:2;}
	.st5{fill-opacity:0;stroke:#FFFFFF;stroke-width:2;stroke-linecap:square;}
	.st6{fill:#252633;}
	.st7{fill:#F2F2F2;}
	.st8{font-family:'EzzoBlack';}
	.st9{font-size:18px;}
	.st10{font-family:'ArialMT';}
	.st11{font-size:12px;}
	.st12{filter:url(#Adobe_OpacityMaskFilter);}
	.st13{fill:#FFFFFF;}
	.st14{mask:url(#mask-31_2_);}
	.st15{fill-opacity:0;stroke:#FFFFFF;stroke-width:1.5;stroke-linecap:round;stroke-linejoin:round;}
</style>
<g>
	<g>
		<g>
			<g>
				<path class="st0" d="M5,0h390c2.8,0,5,2.2,5,5v1900c0,2.8-2.2,5-5,5H5c-2.8,0-5-2.2-5-5V5C0,2.2,2.2,0,5,0z"/>
			</g>
			<g>
				<g>
					<text transform="matrix(1 0 0 1 117.9389 685)" class="st7 st8 st9">REQUEST IS MOVED</text>
					<text transform="matrix(1 0 0 1 281.5806 685)" class="st10 st11"> </text>
					<text transform="matrix(1 0 0 1 58.5308 705)" class="st7 st8 st9">TO LIST OF APPROVED REQUESTS</text>
				</g>
			</g>
			<g>
				<g>
					<text transform="matrix(1 0 0 1 70.4192 1166)" class="st7 st8 st9">A PROPOSAL WITH APPROVED</text>
					<text transform="matrix(1 0 0 1 103.3862 1186)" class="st7 st8 st9">REQUESTS IS CREATED</text>
				</g>
			</g>
			<g>
				<g>
					<text transform="matrix(1 0 0 1 129.2788 1587)" class="st7 st8 st9">PROPOSAL SENT</text>
					<text transform="matrix(1 0 0 1 259.6921 1587)" class="st10 st11"> </text>
					<text transform="matrix(1 0 0 1 106.9133 1607)" class="st7 st8 st9">FOR CFO’S APPROVAL</text>
				</g>
			</g>
			<g transform="translate(200, 1068.5) rotate(90.00003218077504) translate(-200, -1068.5)">
				<g>
					<path class="st1" d="M233.5,1076.5v-16l10,8L233.5,1076.5z"/>
				</g>
				<g transform="translate(196.25, 1068.5) rotate(90.00003218077504) translate(-196.25, -1068.5)">
					<path class="st2" d="M196.3,1028.7v83.5"/>
				</g>
			</g>
			<g>
				<g>
					<path class="st1" d="M114.5,922h171c2.8,0,5,2.2,5,5v50c0,2.8-2.2,5-5,5h-171c-2.8,0-5-2.2-5-5v-50
						C109.5,924.2,111.7,922,114.5,922z"/>
				</g>
				<g>
					<text transform="matrix(1 0 0 1 157.5 950.5)" class="st7 st8 st9">APPROVED</text>
					<text transform="matrix(1 0 0 1 159.453 966.5)" class="st7 st8 st9">REQUESTS</text>
				</g>
			</g>
			<g>
				<g>
					<text transform="matrix(1 0 0 1 268 524)" class="st7 st8 st9">REJECTS</text>
				</g>
				<g>
					<text transform="matrix(1 0 0 1 59.5 524)" class="st7 st8 st9">APPROVES</text>
				</g>
				<g transform="translate(73.81080743243274, 445)">
					<g>
						<ellipse class="st4" cx="26.7" cy="24.5" rx="26.7" ry="26.5"/>
					</g>
					<g>
						<path class="st4" d="M17.1,23.5l7.3,9.7L35.3,15"/>
					</g>
				</g>
				
					<g transform="translate(298.5000000000001, 471.68919256756726) rotate(90.00003218077504) translate(-298.5000000000001, -471.68919256756726)">
					<g transform="translate(271.81080743243274, 445.1891825675675)">
						<g>
							
								<ellipse transform="matrix(3.535182e-06 1 -1 3.535182e-06 51.1892 1.8104)" class="st4" cx="24.7" cy="26.5" rx="26.5" ry="26.7"/>
						</g>
						<g>
							<path class="st5" d="M31.8,33.9L17.3,19.2"/>
						</g>
						<g>
							<path class="st5" d="M31.7,19.2L17.2,34"/>
						</g>
					</g>
				</g>
			</g>
			<g>
				<g transform="translate(300, 429) rotate(90.00003218077504) translate(-300, -429)">
					<path class="st1" d="M293,437l0-16l10,8L293,437z"/>
				</g>
				<g transform="translate(250, 362.00000999999975) rotate(90.00003218077504) translate(-250, -362.00000999999975)">
					<g>
						<g>
							<path class="st2" d="M264,378.2l0-46.2c0-11,9-20,20-20l31,0"/>
						</g>
						
							<g transform="translate(224.49999000000025, 378.92308692307665) rotate(180.00006436155007) translate(-224.49999000000025, -378.92308692307665)">
							<path class="st2" d="M185,412l0-46.2c0-11,7.7-20,17.1-20H256"/>
						</g>
					</g>
				</g>
			</g>
			
				<g transform="translate(146.53332298889268, 364.4999999999999) rotate(90.00003218077504) translate(-146.53332298889268, -364.4999999999999)">
				<g>
					<g>
						<path class="st2" d="M158,339.8l0,50.2c0,11,9,20,20,20h31"/>
					</g>
					
						<g transform="translate(118.533322988892, 342.9999999999999) rotate(180.00006436155007) translate(-118.533322988892, -342.9999999999999)">
						<path class="st2" d="M79,311l0,44.1c0,11,7.7,20,17.1,20H150"/>
					</g>
				</g>
				<g>
					<path class="st1" d="M204,418l0-16l10,8L204,418z"/>
				</g>
			</g>
			<g>
				<g>
					<g transform="translate(201, 641) rotate(90.00003218077504) translate(-201, -641)">
						<path class="st1" d="M194,649l0-16l10,8L194,649z"/>
					</g>
					
						<g transform="translate(150.50000000000136, 589.3515729932185) rotate(180.00006436155007) translate(-150.50000000000136, -589.3515729932185)">
						<g>
							<path class="st2" d="M100,543.9v27.8c0,11,9,20,20,20h37.9"/>
						</g>
						
							<g transform="translate(171.4668973333657, 613.1646529229988) rotate(180.00006436155007) translate(-171.4668973333657, -613.1646529229988)">
							<path class="st2" d="M141.9,587.5v27.4c0,11,9,20,20,20H201"/>
						</g>
					</g>
				</g>
			</g>
			<g>
				<g>
					<g>
						<g>
							<path class="st3" d="M247.6,1266.6l-6.4,21.4c-3.7-3.5-8.7-5.6-14.4-5.6c-11.6,0-21,9.4-21,21c0,1.7,0.2,3.5,0.6,5h-50.1
								c-0.4,0-0.8,0-1-0.2c-0.2,0-0.2,0-0.4-0.2h-0.4c0,0-0.2,0-0.2-0.2c0,0.2-0.2,0.2-0.2,0l0,0c-0.6-0.4-1-1-1.2-1.7
								c-0.2-0.2-0.2-0.4-0.2-0.6v-0.2c0-0.2-0.2-0.4-0.2-0.6v-0.2v-0.4c0-0.4,0-1,0.2-1.5l11.6-38.9c0.6-1.9,2.3-3.1,4-3.1h75.5
								C246.6,1260.8,248.5,1263.7,247.6,1266.6L247.6,1266.6z"/>
						</g>
						<g>
							<path class="st3" d="M236.6,1260.8v-17.1c0-2.3-1.9-4.2-4.2-4.2h-48.3c-1.7,0-3.1-0.8-3.7-2.3l-2.7-5.8
								c-0.6-1.5-2.1-2.3-3.7-2.3h-17.7c-2.3-0.2-4.2,1.7-4.2,4v71.3c0,1.9,1.2,3.5,3.1,4c-2.3-0.6-3.7-3.1-2.9-5.6"/>
						</g>
					</g>
					<g>
						<path class="st3" d="M247.8,1303.7c0,11.6-9.4,21-21,21c-10,0-18.1-6.9-20.4-16c-0.4-1.7-0.6-3.3-0.6-5c0-11.6,9.4-21,21-21
							c5.6,0,10.6,2.1,14.4,5.6C245.3,1292,247.8,1297.6,247.8,1303.7L247.8,1303.7z"/>
					</g>
					
						<g transform="translate(226.60000000000036, 1305.7560000000012) rotate(90.00003218077504) translate(-226.60000000000036, -1305.7560000000012)">
						<path class="st3" d="M235.6,1305.7h-22"/>
					</g>
					<g>
						<path class="st3" d="M237.6,1303.7h-22"/>
					</g>
				</g>
			</g>
			<g>
				<g>
					<defs>
						<filter id="Adobe_OpacityMaskFilter" filterUnits="userSpaceOnUse" x="145.4" y="53.9" width="109.1" height="109.4">
							<feColorMatrix  type="matrix" values="1 0 0 0 0  0 1 0 0 0  0 0 1 0 0  0 0 0 1 0"/>
						</filter>
					</defs>
					<mask maskUnits="userSpaceOnUse" x="145.4" y="53.9" width="109.1" height="109.4" id="mask-31_2_">
						<rect x="0" y="-2" class="st12" width="400" height="1910"/>
						<g>
							<rect id="rect-30_2_" x="141.5" y="50" class="st13" width="117" height="117"/>
						</g>
					</mask>
					<g class="st14">
						<g>
							<g>
								<path class="st15" d="M165.4,86.7h-14.7c-2.6,0-4.4,1.9-4.4,4.4v66.9c0,2.3,2.1,4.4,4.4,4.4h98.7c2.6,0,4.4-1.9,4.4-4.4
									V91.2c0-2.3-2.1-4.4-4.4-4.4h-14.7"/>
							</g>
							<g>
								<path class="st15" d="M147.6,87.9l47.5,39.8c2.8,2.3,7,2.3,10.1,0l47.5-39.8"/>
							</g>
							<g>
								<path class="st15" d="M190.6,124.2l-43.1,36.3"/>
							</g>
							<g>
								<path class="st15" d="M252.4,160.4l-42.8-35.8"/>
							</g>
							<g>
								<path class="st15" d="M165.4,102.9V54.7h69.3v48.2"/>
							</g>
							<g>
								<path class="st15" d="M177.1,66.4H224"/>
							</g>
							<g>
								<path class="st15" d="M177.1,78.8H224"/>
							</g>
							<g>
								<path class="st15" d="M177.1,91.2H224"/>
							</g>
							<g>
								<path class="st15" d="M180.8,103.4h43.7"/>
							</g>
						</g>
					</g>
				</g>
				<g>
					<g>
						<path class="st1" d="M132.2,194.7h135.6c2.8,0,5,2,5,4.6v51.2c0,2.5-2.2,4.6-5,4.6H132.2c-2.8,0-5-2-5-4.6v-51.2
							C127.2,196.7,129.4,194.7,132.2,194.7z"/>
					</g>
					<g>
						<text transform="matrix(1 0 0 1 160.5537 223.0001)" class="st7 st8 st9">REQUEST</text>
						<text transform="matrix(1 0 0 1 158.7808 242.0001)" class="st7 st8 st9">RECEIVED</text>
					</g>
				</g>
			</g>
			<g>
				<g>
					<path class="st1" d="M129.5,1368h141c2.8,0,5,2.2,5,5v50c0,2.8-2.2,5-5,5h-141c-2.8,0-5-2.2-5-5v-50
						C124.5,1370.2,126.7,1368,129.5,1368z"/>
				</g>
				<g>
					<text transform="matrix(1 0 0 1 165.747 1396)" class="st13 st8 st9">CREATES</text>
					<text transform="matrix(1 0 0 1 156 1413)" class="st13 st8 st9">PROPOSAL</text>
				</g>
			</g>
			<g>
				
					<g transform="translate(208.75832913183206, 800.5053237278098) rotate(180.00006436155007) translate(-208.75832913183206, -800.5053237278098)">
					<g>
						<g>
							<path class="st3" d="M251.6,747.8h-85.8v109.4H230l21.7-21.6V747.8z"/>
						</g>
						<g>
							<path class="st3" d="M230,857.2l21.7-21.6H230V857.2z"/>
						</g>
					</g>
				</g>
				
					<g transform="translate(196.60398765273553, 820.5201176035544) rotate(180.00006436155007) translate(-196.60398765273553, -820.5201176035544)">
					<g>
						<g>
							<g>
								<path id="path-47" class="st0" d="M239.5,767.8h-85.8v109.4h64.1l21.7-21.6V767.8z"/>
							</g>
							<g>
								<path id="path-47_1_" class="st3" d="M239.5,767.8h-85.8v109.4h64.1l21.7-21.6V767.8z"/>
							</g>
						</g>
						<g>
							<path class="st3" d="M217.8,877.2l21.7-21.6h-21.7V877.2z"/>
						</g>
						<g>
							<g>
								<path class="st3" d="M164.7,839.4h31.6"/>
							</g>
						</g>
					</g>
				</g>
				
					<g transform="translate(186.88051446945323, 835.6828402366882) rotate(180.00006436155007) translate(-186.88051446945323, -835.6828402366882)">
					<g>
						<g>
							<g>
								<path id="path-50" class="st0" d="M229.8,783H144v109.4h64.1l21.7-21.6V783z"/>
							</g>
							<g>
								<path id="path-50_1_" class="st3" d="M229.8,783H144v109.4h64.1l21.7-21.6V783z"/>
							</g>
						</g>
						<g>
							<path class="st3" d="M208.1,892.4l21.7-21.6h-21.7V892.4z"/>
						</g>
						<g>
							<g>
								<path class="st3" d="M155,804.2h63.5"/>
							</g>
							<g>
								<path class="st3" d="M155,820.8h63.5"/>
							</g>
							<g>
								<path class="st3" d="M155,837.7h63.5"/>
							</g>
							<g>
								<path class="st3" d="M155,854.6h63.5"/>
							</g>
						</g>
					</g>
				</g>
			</g>
			<g transform="translate(200, 1509.000000000001) rotate(90.00003218077504) translate(-200, -1509.000000000001)">
				<g>
					<path class="st1" d="M223,1517v-16l10,8L223,1517z"/>
				</g>
				<g transform="translate(196.25, 1509.000000000001) rotate(90.00003218077504) translate(-196.25, -1509.000000000001)">
					<path class="st2" d="M196.3,1479.7v62.5"/>
				</g>
			</g>
			<g>
				<g>
					<g>
						<g>
							<path class="st3" d="M283.7,1674.4h-56.6c-1.9,0-3.7-1.1-4.5-2.8l-3.2-6.9c-0.9-1.7-2.6-2.8-4.5-2.8h-20.5c-2.8,0-5,2.4-5,5
								l-19,74.1c0,2.8,2.2,5,5,5h89.4c2.8,0,5-2.2,5-5l19-61.6C288.7,1676.6,286.5,1674.4,283.7,1674.4L283.7,1674.4z"/>
						</g>
						<g>
							<path class="st3" d="M184,1691h99.7"/>
						</g>
					</g>
				</g>
				<g>
					<g>
						<path class="st3" d="M173.2,1682.8H117"/>
					</g>
					<g>
						<path class="st3" d="M166.3,1707.2H110"/>
					</g>
					<g>
						<path class="st3" d="M159.2,1732H103"/>
					</g>
				</g>
			</g>
			<g>
				<g>
					<path class="st1" d="M117.8,1795h164.4c2.8,0,5,2.2,5,5v50c0,2.8-2.2,5-5,5H117.8c-2.8,0-5-2.2-5-5v-50
						C112.8,1797.2,115.1,1795,117.8,1795z"/>
				</g>
				<g>
					<text transform="matrix(1 0 0 1 150.8154 1824)" class="st7 st8 st9">PROPOSAL</text>
					<text transform="matrix(1 0 0 1 176.1774 1840)" class="st7 st8 st9">SENT</text>
				</g>
			</g>
		</g>
	</g>
</g>
</svg>
