<?xml version="1.0" encoding="utf-8"?>
<svg version="1.1" xmlns="http://www.w3.org/2000/svg" xmlns:xlink="http://www.w3.org/1999/xlink" height="400" width="400">
  <defs>
    <rect id="rect-1" opacity="1" x="0" y="0" width="400" height="400"/>
    <path id="path-17" opacity="1" fill-rule="evenodd" d="M100 112.34696761867781L132.2461122403432 112.34696761867781L132.2461122403432 145.01694874884407L100 145.01694874884407L100 112.34696761867781Z"/>
    <mask id="mask-18" maskUnits="userSpaceOnUse" maskContentUnits="userSpaceOnUse">
      <rect opacity="1" x="0" y="0" width="400" height="400" fill="Black"/>
      <use xlink:href="#path-17" fill="White"/>
    </mask>
  </defs>
  <g opacity="1">
    <g opacity="1"/>
    <g opacity="1">
      <g opacity="1">
        <path fill="rgb(112,0,255)" fill-opacity="1" opacity="1" fill-rule="evenodd" d="M177.63113594219755 199.9550794574404C177.0035998901958 199.9550794574404 176.49429526828135 199.43906912231046 176.49429526828135 198.80327067366824L176.49429526828135 182.26099292113216C176.49429526828135 181.62519447248994 177.0035998901958 181.10918413736 177.63113594219755 181.10918413736C178.2586719941993 181.10918413736 178.76797661611374 181.62519447248994 178.76797661611374 182.26099292113216L178.76797661611374 198.80327067366824C178.76797661611374 199.43906912231046 178.2586719941993 199.9550794574404 177.63113594219755 199.9550794574404"/>
      </g>
      <g opacity="1">
        <path fill="rgb(112,0,255)" fill-opacity="1" opacity="1" fill-rule="evenodd" d="M190.8269761699889 199.9550794574404C190.19944011798722 199.9550794574404 189.6901354960728 199.43906912231046 189.6901354960728 198.80327067366824L189.6901354960728 182.26099292113216C189.6901354960728 181.62519447248994 190.19944011798722 181.10918413736 190.8269761699889 181.10918413736C191.45451222199063 181.10918413736 191.96381684390502 181.62519447248994 191.96381684390502 182.26099292113216L191.96381684390502 198.80327067366824C191.96381684390502 199.43906912231046 191.45451222199063 199.9550794574404 190.8269761699889 199.9550794574404"/>
      </g>
      <g opacity="1">
        <path fill="rgb(112,0,255)" fill-opacity="1" opacity="1" fill-rule="evenodd" d="M204.0234985021856 199.9550794574404C203.39596245018393 199.9550794574404 202.88665782826956 199.43906912231046 202.88665782826956 198.80327067366824L202.88665782826956 182.26099292113216C202.88665782826956 181.62519447248994 203.39596245018393 181.10918413736 204.0234985021856 181.10918413736C204.65103455418722 181.10918413736 205.1603391761016 181.62519447248994 205.1603391761016 182.26099292113216L205.1603391761016 198.80327067366824C205.1603391761016 199.43906912231046 204.65103455418722 199.9550794574404 204.0234985021856 199.9550794574404"/>
      </g>
      <g opacity="1">
        <path fill="rgb(112,0,255)" fill-opacity="1" opacity="1" fill-rule="evenodd" d="M217.2192629405996 199.9550794574404C216.59172688859783 199.9550794574404 216.08242226668335 199.43906912231046 216.08242226668335 198.80327067366824L216.08242226668335 182.26099292113216C216.08242226668335 181.62519447248994 216.59172688859783 181.10918413736 217.2192629405996 181.10918413736C217.84679899260138 181.10918413736 218.35610361451586 181.62519447248994 218.35610361451586 182.26099292113216L218.35610361451586 198.80327067366824C218.35610361451586 199.43906912231046 217.84679899260138 199.9550794574404 217.2192629405996 199.9550794574404"/>
      </g>
      <g opacity="1">
        <path fill="rgb(112,0,255)" fill-opacity="1" opacity="1" fill-rule="evenodd" d="M230.415785272797 199.9550794574404C229.7882492207954 199.9550794574404 229.27894459888103 199.43906912231046 229.27894459888103 198.80327067366824L229.27894459888103 182.26099292113216C229.27894459888103 181.62519447248994 229.7882492207954 181.10918413736 230.415785272797 181.10918413736C231.04332132479863 181.10918413736 231.55262594671296 181.62519447248994 231.55262594671296 182.26099292113216L231.55262594671296 198.80327067366824C231.55262594671296 199.43906912231046 231.04332132479863 199.9550794574404 230.415785272797 199.9550794574404"/>
      </g>
      <g opacity="1">
        <path fill="rgb(112,0,255)" fill-opacity="1" opacity="1" fill-rule="evenodd" d="M243.16454395822728 208.56669301020133L164.88169515236268 208.56669301020133C164.25415910036097 208.56669301020133 163.74485447844654 208.05068267507147 163.74485447844654 207.4148842264293C163.74485447844654 206.77908577778715 164.25415910036097 206.26307544265728 164.88169515236268 206.26307544265728L243.16454395822728 206.26307544265728C243.792080010229 206.26307544265728 244.30138463214342 206.77908577778715 244.30138463214342 207.4148842264293C244.30138463214342 208.05068267507147 243.792080010229 208.56669301020133 243.16454395822728 208.56669301020133"/>
      </g>
      <g opacity="1">
        <path fill="rgb(112,0,255)" fill-opacity="1" opacity="1" fill-rule="evenodd" d="M232.2047177572718 222.6163029801316L175.84167293207562 222.6163029801316C175.21413688007394 222.6163029801316 174.7048322581595 222.10029264500173 174.7048322581595 221.4644941963596C174.7048322581595 220.82869574771746 175.21413688007394 220.3126854125876 175.84167293207562 220.3126854125876L232.2047177572718 220.3126854125876C232.8322538092735 220.3126854125876 233.34155843118793 220.82869574771746 233.34155843118793 221.4644941963596C233.34155843118793 222.10029264500173 232.8322538092735 222.6163029801316 232.2047177572718 222.6163029801316"/>
      </g>
      <g opacity="1">
        <path fill="rgb(112,0,255)" fill-opacity="1" opacity="1" fill-rule="evenodd" d="M232.2047177572718 235.5329170431067L175.84167293207562 235.5329170431067C175.21413688007394 235.5329170431067 174.7048322581595 235.0169067079768 174.7048322581595 234.38110825933464C174.7048322581595 233.74530981069245 175.21413688007394 233.22929947556258 175.84167293207562 233.22929947556258L232.2047177572718 233.22929947556258C232.8322538092735 233.22929947556258 233.34155843118793 233.74530981069245 233.34155843118793 234.38110825933464C233.34155843118793 235.0169067079768 232.8322538092735 235.5329170431067 232.2047177572718 235.5329170431067"/>
      </g>
      <g opacity="1">
        <path fill="rgb(112,0,255)" fill-opacity="1" opacity="1" fill-rule="evenodd" d="M232.2047177572718 248.44953110610166L175.84167293207562 248.44953110610166C175.21413688007394 248.44953110610166 174.7048322581595 247.9335207709718 174.7048322581595 247.2977223223296C174.7048322581595 246.66192387368744 175.21413688007394 246.14591353855758 175.84167293207562 246.14591353855758L232.2047177572718 246.14591353855758C232.8322538092735 246.14591353855758 233.34155843118793 246.66192387368744 233.34155843118793 247.2977223223296C233.34155843118793 247.9335207709718 232.8322538092735 248.44953110610166 232.2047177572718 248.44953110610166"/>
      </g>
      <g opacity="1">
        <path fill="rgb(112,0,255)" fill-opacity="1" opacity="1" fill-rule="evenodd" d="M227.73208338857208 261.36691304160723L175.84136977456137 261.36691304160723C175.21383372255966 261.36691304160723 174.70452910064523 260.85090270647737 174.70452910064523 260.2151042578352C174.70452910064523 259.579305809193 175.21383372255966 259.0632954740631 175.84136977456137 259.0632954740631L227.73208338857208 259.0632954740631C228.3596194405738 259.0632954740631 228.8689240624882 259.579305809193 228.8689240624882 260.2151042578352C228.8689240624882 260.85090270647737 228.3596194405738 261.36691304160723 227.73208338857208 261.36691304160723"/>
      </g>
      <g opacity="1">
        <path fill="rgb(112,0,255)" fill-opacity="1" opacity="1" fill-rule="evenodd" d="M214.3120581798831 274.2835271045676L175.84136977456137 274.2835271045676C175.21383372255966 274.2835271045676 174.70452910064523 273.76751676943775 174.70452910064523 273.1317183207956C174.70452910064523 272.4959198721534 175.21383372255966 271.97990953702356 175.84136977456137 271.97990953702356L214.3120581798831 271.97990953702356C214.93959423188483 271.97990953702356 215.44889885379922 272.4959198721534 215.44889885379922 273.1317183207956C215.44889885379922 273.76751676943775 214.93959423188483 274.2835271045676 214.3120581798831 274.2835271045676"/>
      </g>
      <g opacity="1">
        <path fill="rgb(112,0,255)" fill-opacity="1" opacity="1" fill-rule="evenodd" d="M243.16454395822728 244.1370054451404C242.5370079062256 244.1370054451404 242.02770328431114 243.62099511001048 242.02770328431114 242.98519666136824L242.02770328431114 191.68056194206582L189.99602142673507 191.5707561713462C189.36848537473338 191.56922042630117 188.85993864660156 191.05244221864874 188.86145443416677 190.4166437700065C188.862970221732 189.78161319388678 189.37075905608123 189.26713860380187 189.9982951080829 189.26713860380187L190.00056878943073 189.26713860380187L243.1668176395751 189.37848011956652C243.7935957977942 189.38001586461155 244.30138463214342 189.89525832721895 244.30138463214342 190.5302889033387L244.30138463214342 242.98519666136824C244.30138463214342 243.62099511001048 243.792080010229 244.1370054451404 243.16454395822728 244.1370054451404"/>
      </g>
      <g opacity="1">
        <path fill="rgb(112,0,255)" fill-opacity="1" opacity="1" fill-rule="evenodd" d="M243.16454395822728 287.6530323813234L164.88169515236268 287.6530323813234C164.25415910036097 287.6530323813234 163.74485447844654 287.13702204619347 163.74485447844654 286.50122359755125L163.74485447844654 209.164174619953C163.74485447844654 208.52837617131078 164.25415910036097 208.01236583618083 164.88169515236268 208.01236583618083C165.50923120436437 208.01236583618083 166.0185358262788 208.52837617131078 166.0185358262788 209.164174619953L166.0185358262788 285.34941481377905L242.02770328431114 285.34941481377905L242.02770328431114 271.5446026040084C242.02770328431114 270.90880415536617 242.5370079062256 270.39279382023625 243.16454395822728 270.39279382023625C243.792080010229 270.39279382023625 244.30138463214342 270.90880415536617 244.30138463214342 271.5446026040084L244.30138463214342 286.50122359755125C244.30138463214342 287.13702204619347 243.792080010229 287.6530323813234 243.16454395822728 287.6530323813234"/>
      </g>
      <g opacity="1">
        <path fill="rgb(112,0,255)" fill-opacity="1" opacity="1" fill-rule="evenodd" d="M106.710693359375 165.61865234375C106.710693359375 191.24560546875 127.28753662109375 212.0933837890625 152.5806884765625 212.0933837890625C156.7763671875 212.0933837890625 161.0206298828125 211.4805908203125 165.1943359375 210.27197265625C165.681640625 210.1300048828125 166.01812744140625 209.678466796875 166.01812744140625 209.1639404296875L166.01812744140625 191.5704345703125L189.9979248046875 191.5704345703125C190.38140869140625 191.5704345703125 190.7391357421875 191.3746337890625 190.9490966796875 191.0506591796875C195.8564453125 183.46484375 198.449951171875 174.671142578125 198.449951171875 165.61865234375C198.449951171875 139.9932861328125 177.87310791015625 119.1455078125 152.5806884765625 119.1455078125C127.28753662109375 119.1455078125 106.710693359375 139.9932861328125 106.710693359375 165.61865234375ZM108.984375 165.61865234375C108.984375 141.2640380859375 128.54107666015625 121.4490966796875 152.5806884765625 121.4490966796875C176.61956787109375 121.4490966796875 196.17626953125 141.2640380859375 196.17626953125 165.61865234375C196.17626953125 174.0145263671875 193.82830810546875 182.1778564453125 189.37872314453125 189.266845703125L164.88128662109375 189.266845703125C164.2537841796875 189.266845703125 163.7445068359375 189.7828369140625 163.7445068359375 190.418701171875L163.7445068359375 208.2869873046875C160.0413818359375 209.2845458984375 156.29058837890625 209.789794921875 152.5806884765625 209.789794921875C128.54107666015625 209.789794921875 108.984375 189.974853515625 108.984375 165.61865234375Z"/>
      </g>
      <g opacity="1">
        <path fill="rgb(112,0,255)" fill-opacity="1" opacity="1" fill-rule="evenodd" d="M204.02418060659076 145.01694874884464C203.57853906241564 145.01694874884464 203.15563433171883 144.750496983532 202.97373982389226 144.3082024105635C197.4858309440077 130.96411371430162 186.7851286273263 120.12252156891537 173.61445047311642 114.56235663338585C173.03466172941918 114.31817317122615 172.76106207389668 113.64398109645816 173.00207229676693 113.05655861673434C173.24459830720235 112.46913613701054 173.91078694211723 112.1911662838602 174.48905989824925 112.4361176185424C188.2092110448519 118.2274121833489 199.35631279949106 129.52128124449632 205.07310560172405 143.42130964705893C205.3141158245943 144.00949999930526 205.0405161690718 144.68292420155072 204.46072742537456 144.92787553623293C204.31824339424375 144.9885374655116 204.16969621285205 145.01694874884464 204.02418060659076 145.01694874884464"/>
      </g>
      <g opacity="1">
        <g opacity="1"/>
        <g mask="url(#mask-18)">
          <g opacity="1">
            <path fill="rgb(112,0,255)" fill-opacity="1" opacity="1" fill-rule="evenodd" d="M101.13646172702316 145.0169487488571C100.99094612076189 145.0169487488571 100.84239893937018 144.98853746552402 100.69991490823936 144.92787553624535C100.12012616454213 144.68292420156314 99.84652650901965 144.00949999931768 100.08753673188987 143.42130964707135C105.80432953412279 129.52128124450886 116.95143128876177 118.2274121833615 130.67158243536426 112.43611761855503C131.2536448604093 112.19039841135032 131.91680192019373 112.4699040095457 132.15857003684656 113.05655861674697C132.39958025971677 113.64398109647078 132.1259806041943 114.31817317123877 131.54619186049706 114.56235663339847C118.37551370628738 120.12252156892795 107.67481138960613 130.96411371431412 102.18690250972166 144.30820241057594C102.00500800189508 144.7497291110219 101.58210327119828 145.0169487488571 101.13646172702316 145.0169487488571"/>
          </g>
        </g>
      </g>
      <g opacity="1">
        <path fill="rgb(112,0,255)" fill-opacity="1" opacity="1" fill-rule="evenodd" d="M152.5807001136984 166.7708540989297L130.43731746715957 166.7708540989297C129.80978141515786 166.7708540989297 129.30047679324343 166.25484376379976 129.30047679324343 165.6190453151575C129.30047679324343 164.98324686651526 129.80978141515786 164.4672365313853 130.43731746715957 164.4672365313853L151.44385943978227 164.4672365313853L151.44385943978227 135.4800488064521C151.44385943978227 134.84425035780984 151.9531640616967 134.3282400226799 152.5807001136984 134.3282400226799C153.20823616570013 134.3282400226799 153.71754078761458 134.84425035780984 153.71754078761458 135.4800488064521L153.71754078761458 165.6190453151575C153.71754078761458 166.25484376379976 153.20823616570013 166.7708540989297 152.5807001136984 166.7708540989297"/>
      </g>
      <g opacity="1">
        <path fill="rgb(112,0,255)" fill-opacity="1" opacity="1" fill-rule="evenodd" d="M226.7454833984375 274.377685546875C226.96002197265625 274.5958251953125 227.250244140625 274.715576171875 227.54888916015625 274.715576171875C227.61175537109375 274.715576171875 227.67547607421875 274.710205078125 227.73834228515625 274.699462890625L245.24798583984375 271.71630859375C245.48138427734375 271.6771240234375 245.69586181640625 271.564208984375 245.8634033203125 271.395263671875L291.2657470703125 225.3951416015625C291.7098388671875 224.9451904296875 291.7098388671875 224.2164306640625 291.2657470703125 223.7664794921875L276.6998291015625 209.0079345703125C276.27392578125 208.576416015625 275.518310546875 208.576416015625 275.09228515625 209.0079345703125L229.68994140625 255.0089111328125C229.5224609375 255.1778564453125 229.41180419921875 255.3958740234375 229.37237548828125 255.6317138671875L226.427978515625 273.37255859375C226.3673095703125 273.7396240234375 226.48553466796875 274.1151123046875 226.7454833984375 274.377685546875ZM231.5543212890625 256.3773193359375L228.93505859375 272.16015625L244.51202392578125 269.5064697265625L288.8541259765625 224.581298828125L275.896484375 211.451416015625L231.5543212890625 256.3773193359375Z"/>
      </g>
      <g opacity="1">
        <path fill="rgb(112,0,255)" fill-opacity="1" opacity="1" fill-rule="evenodd" d="M289.657958984375 225.3951416015625C289.8709716796875 225.6116943359375 290.160400390625 225.7330322265625 290.4620361328125 225.7330322265625C290.762939453125 225.7330322265625 291.052490234375 225.6116943359375 291.2655029296875 225.3951416015625L298.8587646484375 217.70263671875C300.39501953125 216.1446533203125 300.39501953125 213.705810546875 298.8587646484375 212.1485595703125L288.1663818359375 201.316162109375C287.427490234375 200.5667724609375 286.454345703125 200.1544189453125 285.4259033203125 200.1544189453125C284.3974609375 200.1544189453125 283.42431640625 200.5667724609375 282.6845703125 201.316162109375L275.092041015625 209.0079345703125C274.6478271484375 209.4580078125 274.6478271484375 210.1875 275.092041015625 210.637451171875L289.657958984375 225.3951416015625ZM290.462158203125 222.95263671875L277.503662109375 209.82275390625L284.2921142578125 202.9449462890625C284.9393310546875 202.2899169921875 285.9124755859375 202.2913818359375 286.5589599609375 202.9449462890625L297.2513427734375 213.7772216796875C297.886474609375 214.4207763671875 297.886474609375 215.4296875 297.2513427734375 216.073974609375L290.462158203125 222.95263671875Z"/>
      </g>
      <g opacity="1">
        <path fill="rgb(112,0,255)" fill-opacity="1" opacity="1" fill-rule="evenodd" d="M245.0592784147539 271.73242422302303C244.76824720223138 271.73242422302303 244.47721598970884 271.62031483473584 244.25515311140387 271.395328185639L229.68995039719044 256.6375861754273C229.24582464058054 256.1876128772337 229.24582464058054 255.45890185336714 229.68995039719044 255.0089285551735C230.13407615380032 254.55895525697983 230.85331735349794 254.55895525697983 231.29744311010785 255.0089285551735L245.8634037181039 269.76590269286265C246.30677158093118 270.2158759910563 246.30677158093118 270.9453548874454 245.8634037181039 271.395328185639C245.64134083979894 271.62031483473584 245.35030962727643 271.73242422302303 245.0592784147539 271.73242422302303"/>
      </g>
    </g>
  </g>
</svg>