<svg width="14" height="14" viewBox="0 0 14 14" fill="none" xmlns="http://www.w3.org/2000/svg">
<path d="M4.07225 2.625C4.47563 2.625 4.84838 2.65563 5.1905 2.7475C5.53175 2.80875 5.81262 2.9365 6.062 3.08962C6.31138 3.24275 6.49687 3.46237 6.62287 3.74325C6.74537 4.02325 6.81187 4.36537 6.81187 4.73812C6.81187 5.17212 6.71912 5.54487 6.50037 5.82487C6.31225 6.10487 6.00513 6.35512 5.628 6.53975C6.15825 6.69375 6.56163 6.97375 6.8075 7.3465C7.05338 7.71925 7.21088 8.18387 7.21088 8.71412C7.21088 9.14812 7.119 9.52087 6.9615 9.83238C6.80496 10.1463 6.56908 10.4138 6.27725 10.6085C5.99725 10.7966 5.65513 10.9497 5.28238 11.0425C4.91729 11.1392 4.54176 11.1909 4.16412 11.1965L0 11.2026V2.625H4.07225ZM3.82288 6.10575C4.16412 6.10575 4.44413 6.01387 4.66025 5.85637C4.8755 5.69887 4.97088 5.4215 4.97088 5.08025C4.97088 4.89125 4.94025 4.7075 4.879 4.58412C4.81215 4.45947 4.71607 4.35289 4.599 4.2735C4.47225 4.20389 4.33652 4.15207 4.19563 4.1195C4.04163 4.08888 3.88413 4.08887 3.6995 4.08887H1.89875V6.11012C1.89875 6.10575 3.82288 6.10575 3.82288 6.10575ZM3.91475 9.77462C4.10287 9.77462 4.2875 9.744 4.445 9.71337C4.599 9.68275 4.7565 9.62062 4.879 9.52437C5.0015 9.42812 5.09775 9.33625 5.1905 9.18312C5.25175 9.02912 5.313 8.841 5.313 8.62225C5.313 8.18825 5.1905 7.87675 4.94025 7.658C4.69088 7.46987 4.34875 7.378 3.94537 7.378H1.89875V9.77025H3.91562L3.91475 9.77462ZM9.9155 9.744C10.1652 9.99308 10.5379 10.1173 11.0337 10.1167C11.375 10.1167 11.6865 10.024 11.9368 9.8665C12.1853 9.67983 12.3398 9.49317 12.4005 9.3065H13.923C13.6727 10.0511 13.3 10.5814 12.8047 10.9235C12.3095 11.2341 11.7171 11.4187 11.0023 11.4187C10.5451 11.4215 10.0915 11.3369 9.66613 11.1694C9.28261 11.0279 8.9406 10.7926 8.67125 10.4851C8.38321 10.1991 8.16936 9.84707 8.04825 9.45962C7.89512 9.05625 7.8295 8.62225 7.8295 8.12262C7.8295 7.658 7.89075 7.21962 8.04825 6.81625C8.20575 6.41375 8.421 6.07075 8.70187 5.76012C8.98187 5.48012 9.324 5.22987 9.69675 5.07588C10.1123 4.91002 10.5557 4.82537 11.0031 4.8265C11.5334 4.8265 11.998 4.91837 12.4014 5.13712C12.8039 5.35587 13.1163 5.60262 13.3656 5.97537C13.615 6.31662 13.7996 6.72 13.9265 7.15487C13.9878 7.58887 14.0184 8.02637 13.9878 8.5225H9.4815C9.4815 9.03 9.66525 9.49375 9.9155 9.744ZM11.8755 6.4785C11.6567 6.25975 11.3138 6.13637 10.9104 6.13637C10.6304 6.13637 10.4151 6.19762 10.227 6.29037C10.0389 6.38312 9.9155 6.50912 9.793 6.63162C9.67876 6.75181 9.60264 6.90313 9.57425 7.0665C9.54275 7.21962 9.513 7.3465 9.513 7.469H12.3095C12.2483 7.00875 12.0916 6.69725 11.8755 6.4785ZM9.13937 3.2165H12.6201V4.05387H9.13937V3.2165Z" fill="currentColor"/>
</svg>
