<?xml version="1.0" encoding="utf-8"?>
<!-- Generator: Adobe Illustrator 24.1.0, SVG Export Plug-In . SVG Version: 6.00 Build 0)  -->
<svg version="1.2" baseProfile="tiny" id="Layer_1" xmlns="http://www.w3.org/2000/svg" xmlns:xlink="http://www.w3.org/1999/xlink"
	 x="0px" y="0px" viewBox="0 0 91 8" xml:space="preserve">
<g>
	<path fill="#FFFFFF" d="M2.8,5.3L2.4,7.6H0.1l1.2-7.1h3.1c0.8,0,1.3,0.2,1.7,0.5c0.4,0.3,0.6,0.8,0.6,1.4c0,0.1,0,0.3,0,0.5
		c0,0.5-0.2,0.9-0.5,1.2S5.6,4.8,5.2,5c-0.5,0.2-1,0.3-1.6,0.3H2.8z M4.5,2.9c0,0,0-0.1,0-0.2c0-0.3-0.2-0.5-0.6-0.5H3.3L3.1,3.6
		h0.6C4.2,3.6,4.4,3.3,4.5,2.9z"/>
	<path fill="#FFFFFF" d="M9.4,2.2L9.2,3.1h2.2l-0.3,1.7H8.9l-0.2,1h2.5l-0.3,1.8H6.2l1.2-7.1h4.7l-0.2,1.7H9.4z"/>
	<path fill="#FFFFFF" d="M18.6,0.5l-0.3,1.7h-1.9l-0.9,5.3h-2.2l0.9-5.3h-1.9l0.3-1.8L18.6,0.5L18.6,0.5z"/>
	<path fill="#FFFFFF" d="M20.9,2.2l-0.1,0.9H23l-0.3,1.7h-2.2l-0.2,1h2.5l-0.3,1.8h-4.7l1.2-7.1h4.7l-0.3,1.7H20.9z"/>
	<path fill="#FFFFFF" d="M29.2,1c0.4,0.3,0.6,0.8,0.6,1.4c0,0.2,0,0.3,0,0.4c-0.1,0.5-0.3,0.9-0.6,1.3c-0.3,0.4-0.8,0.6-1.3,0.8
		l1,2.7h-2.4l-0.9-2.5l-0.4,2.5h-2.3l1.2-7.1h3.3C28.2,0.5,28.8,0.7,29.2,1z M25.8,3.5h0.9c0.4,0,0.7-0.2,0.8-0.6V2.8
		c0-0.1,0-0.3-0.1-0.3c-0.1-0.1-0.2-0.1-0.4-0.1h-0.9L25.8,3.5z"/>
	<path fill="#FFFFFF" d="M33.7,0.5l0.6,4.9l2.3-4.9H39l-3.6,7.1h-2.9l-1.1-7.1C31.3,0.5,33.7,0.5,33.7,0.5z"/>
	<path fill="#FFFFFF" d="M41,2.2l-0.1,0.9H43l-0.3,1.7h-2.2l-0.2,1h2.5l-0.3,1.8h-4.7L39,0.5h4.7l-0.2,1.7H41z"/>
	<path fill="#FFFFFF" d="M49.2,1c0.4,0.3,0.6,0.8,0.6,1.4c0,0.2,0,0.3,0,0.4c-0.1,0.5-0.3,0.9-0.6,1.3S48.5,4.7,48,4.9l1,2.7h-2.4
		l-0.9-2.5l-0.4,2.5H43l1.2-7.1h3.3C48.2,0.5,48.9,0.7,49.2,1z M45.9,3.5h0.9c0.4,0,0.7-0.2,0.8-0.6V2.8c0-0.1,0-0.3-0.1-0.3
		c-0.1-0.1-0.2-0.1-0.4-0.1h-0.9L45.9,3.5z"/>
	<path fill="#FFFFFF" d="M54.2,6.5h-2.4l-0.5,1.1H49l3.8-7.1h2.6l1.3,7.1h-2.3L54.2,6.5z M54,4.8l-0.3-2l-1,2H54z"/>
	<path fill="#FFFFFF" d="M61.5,6.7c-0.2,0.3-0.6,0.5-1,0.7s-0.9,0.2-1.4,0.2c-0.9,0-1.6-0.2-2-0.6c-0.5-0.4-0.7-1-0.7-1.7h2.4
		c0,0.4,0.1,0.6,0.4,0.6c0.1,0,0.2,0,0.3-0.1s0.1-0.2,0.1-0.3c0-0.2-0.1-0.3-0.2-0.4C59.2,5,59,4.9,58.7,4.7
		c-0.4-0.2-0.7-0.3-0.9-0.5c-0.2-0.1-0.5-0.4-0.6-0.6c-0.2-0.3-0.3-0.6-0.3-1c0-0.1,0-0.3,0-0.5c0.1-0.6,0.4-1,0.9-1.3
		s1.1-0.5,1.9-0.5c0.9,0,1.6,0.2,2,0.6s0.7,1,0.7,1.7H60C60,2.2,59.9,2,59.6,2c-0.1,0-0.2,0-0.3,0.1c-0.1,0.1-0.1,0.2-0.1,0.3
		s0.1,0.3,0.2,0.4c0.1,0.1,0.4,0.2,0.7,0.3c0.4,0.2,0.7,0.3,0.9,0.4c0.2,0.1,0.5,0.3,0.6,0.6s0.3,0.6,0.3,1c0,0.1,0,0.3,0,0.5
		C61.9,6.1,61.7,6.4,61.5,6.7z"/>
	<path fill="#FFFFFF" d="M68.7,0.5l-0.3,1.7h-1.9l-0.9,5.3h-2.2l0.9-5.3h-1.9l0.3-1.8L68.7,0.5L68.7,0.5z"/>
	<path fill="#FFFFFF" d="M70.9,2.2l-0.2,0.9h2.2l-0.3,1.7h-2.2l-0.2,1h2.5l-0.3,1.8h-4.7L69,0.4h4.7l-0.3,1.8H70.9z"/>
	<path fill="#FFFFFF" d="M79,0.7c0.4,0.2,0.7,0.5,1,0.9c0.2,0.4,0.3,0.8,0.4,1.3h-2.3c-0.1-0.1-0.2-0.2-0.3-0.3
		c-0.1-0.1-0.3-0.1-0.6-0.1c-0.4,0-0.8,0.1-1.1,0.4c-0.3,0.3-0.5,0.7-0.6,1.1c0,0.2,0,0.3,0,0.5c0,0.4,0.1,0.7,0.3,0.9
		s0.6,0.3,1,0.3c0.5,0,1-0.2,1.4-0.6h-1.8l0.3-1.6h3.6l-0.4,2.2c-0.8,1.3-2,1.9-3.7,1.9c-0.6,0-1.2-0.1-1.6-0.4
		c-0.5-0.2-0.8-0.6-1-1s-0.4-0.9-0.4-1.5c0-0.3,0-0.5,0.1-0.8c0.1-0.7,0.4-1.3,0.8-1.8s0.9-0.9,1.5-1.2s1.3-0.4,2-0.4
		C78.1,0.4,78.6,0.5,79,0.7z"/>
	<path fill="#FFFFFF" d="M83.4,0.5l-0.7,4c0,0.1,0,0.2,0,0.3c0,0.2,0.1,0.4,0.2,0.5s0.3,0.2,0.6,0.2c0.3,0,0.6-0.1,0.8-0.3
		c0.2-0.2,0.3-0.4,0.4-0.8l0.7-4h2.2l-0.7,4c-0.3,0.8-0.5,1.3-0.9,1.8S85.2,7,84.7,7.3S83.6,7.7,83,7.7c-0.8,0-1.4-0.2-1.9-0.6
		s-0.7-1-0.7-1.8c0-0.3,0-0.5,0.1-0.8l0.7-4C81.2,0.5,83.4,0.5,83.4,0.5z"/>
	<path fill="#FFFFFF" d="M90.2,0.4L89,7.6h-2.2L88,0.4C88,0.4,90.2,0.4,90.2,0.4z"/>
</g>
</svg>
