<?xml version="1.0" encoding="utf-8"?>
<!-- Generator: Adobe Illustrator 24.1.0, SVG Export Plug-In . SVG Version: 6.00 Build 0)  -->
<svg version="1.1" id="Layer_1" xmlns="http://www.w3.org/2000/svg" xmlns:xlink="http://www.w3.org/1999/xlink" x="0px" y="0px"
	 viewBox="0 0 19.7 7" style="enable-background:new 0 0 19.7 7;" xml:space="preserve">
<style type="text/css">
	.st0{fill:#F2F2F2;}
</style>
<g>
	<path class="st0" d="M18.1,2.3c0.1,0,0.2,0,0.3,0c0.2,0,0.4,0.2,0.5,0.4c0,0.2,0,0.3,0,0.5c-0.1,0.3-0.2,0.6-0.3,0.8c0,0,0,0-0.1,0
		c-0.6,0-1.2,0.1-1.8,0.2c0,0,0,0,0,0c0-0.1,0.1-0.2,0.1-0.2c0.1-0.2,0.2-0.4,0.2-0.7c0-0.1,0-0.1-0.1-0.1c-0.2,0-0.2,0-0.3,0.2
		c-0.1,0.3-0.2,0.5-0.3,0.8c0,0,0,0.1-0.1,0.1c-0.6,0.1-1.2,0.2-1.7,0.3c0,0,0,0,0,0c0,0,0,0,0,0c0.5-1.4,1-2.8,1.5-4.2
		c0,0,0-0.1,0.1-0.1C17,0.1,17.9,0,18.7,0c0.2,0,0.3,0,0.5,0.1c0.3,0.1,0.5,0.4,0.4,0.7c-0.1,0.3-0.2,0.7-0.4,0.9
		c-0.2,0.3-0.6,0.4-1,0.5C18.3,2.2,18.2,2.2,18.1,2.3C18.1,2.2,18.1,2.2,18.1,2.3z M17.1,2c0.1,0,0.2,0,0.2,0c0,0,0.1,0,0.1-0.1
		c0.1-0.2,0.1-0.3,0.2-0.5c0-0.1,0-0.1-0.1-0.1c-0.1,0-0.1,0-0.2,0c0,0,0,0,0,0C17.3,1.6,17.2,1.8,17.1,2z"/>
	<path class="st0" d="M0,7c0.1-0.2,0.2-0.4,0.2-0.6C0.7,5.3,1.1,4.1,1.6,3c0-0.1,0.1-0.1,0.1-0.1c0.8-0.1,1.7-0.2,2.5-0.3
		c0.2,0,0.4,0,0.6,0c0.3,0,0.4,0.2,0.4,0.5c0,0.2-0.1,0.5-0.1,0.7C4.9,4.2,4.7,4.7,4.5,5.1C4.3,5.5,4,5.8,3.6,6
		C3.4,6.1,3.1,6.2,2.9,6.2c-0.3,0-0.5,0.1-0.8,0.1C2.1,6.3,2,6.3,2,6.4C2,6.6,1.9,6.7,1.8,6.9c0,0,0,0.1-0.1,0.1C1.2,7,0.6,7,0,7
		C0,7,0,7,0,7z M2.6,4.9c0.1,0,0.2,0,0.2,0c0,0,0.1,0,0.1-0.1C3,4.6,3.1,4.4,3.1,4.3c0-0.1,0-0.1-0.1-0.1c-0.1,0-0.1,0-0.2,0
		c0,0-0.1,0-0.1,0.1c0,0.1-0.1,0.2-0.1,0.4C2.7,4.7,2.6,4.8,2.6,4.9z"/>
	<path class="st0" d="M9,1.7c0,0.1-0.1,0.2-0.1,0.4C8.7,2.4,8.6,2.7,8.5,3c0,0,0,0.1-0.1,0.1C8,3.1,7.6,3.2,7.1,3.3
		c-0.1,0-0.1,0-0.1,0.1C7,3.5,7,3.6,7,3.6c0.4-0.1,0.9-0.2,1.3-0.3C8.2,3.5,8.2,3.7,8.1,3.9C8.1,4,8,4.2,7.9,4.4
		c0,0.1,0,0.1-0.1,0.1C7.4,4.5,7,4.6,6.6,4.7c-0.1,0-0.1,0-0.1,0.1c0,0.1,0,0.1-0.1,0.2c0.5-0.1,0.9-0.2,1.4-0.3c0,0,0,0.1,0,0.1
		C7.7,5.2,7.5,5.6,7.4,6c0,0,0,0.1-0.1,0.1c-1,0.2-2,0.4-3.1,0.6c0,0,0,0-0.1,0c0-0.1,0.1-0.3,0.1-0.4C4.8,5,5.3,3.7,5.7,2.4
		c0-0.1,0-0.1,0.1-0.1C6.8,2.1,7.9,1.9,9,1.7C8.9,1.7,8.9,1.7,9,1.7z"/>
	<path class="st0" d="M13.8,2.1c0.4-0.1,0.9-0.2,1.3-0.2C15.1,2,15,2.1,15,2.3c-0.1,0.2-0.2,0.4-0.2,0.7C14.7,3,14.7,3,14.6,3
		c-0.4,0.1-0.8,0.1-1.1,0.2c-0.2,0-0.1,0-0.2,0.2c0,0,0,0.1-0.1,0.2c0.5-0.1,0.9-0.2,1.4-0.3c0,0,0,0.1,0,0.1
		c-0.1,0.4-0.3,0.8-0.4,1.2c0,0,0,0.1-0.1,0.1c-1,0.2-2,0.4-3.1,0.6c0,0,0,0-0.1,0c0-0.1,0.1-0.2,0.1-0.3c0.5-1.3,1-2.7,1.4-4
		c0-0.1,0-0.1,0.1-0.1c1-0.2,2-0.4,3-0.6c0,0,0,0,0.1,0c0,0,0,0,0,0.1c-0.1,0.4-0.3,0.8-0.4,1.2c0,0,0,0.1-0.1,0.1
		c-0.4,0.1-0.8,0.1-1.3,0.2c-0.1,0-0.1,0-0.1,0.1C13.8,2,13.8,2.1,13.8,2.1z"/>
	<path class="st0" d="M12.3,0.9c0,0.1-0.1,0.2-0.1,0.4c-0.1,0.4-0.3,0.8-0.4,1.2c0,0.1,0,0.1-0.1,0.1c-0.2,0-0.4,0.1-0.5,0.1
		c-0.1,0-0.1,0-0.1,0.1c-0.3,0.9-0.6,1.8-1,2.7c0,0,0,0.1-0.1,0.1C9.4,5.6,8.9,5.7,8.3,5.9c0,0,0,0-0.1,0C8.6,5,8.9,4,9.3,3.1
		C9,3.1,8.8,3.2,8.6,3.2c0,0,0-0.1,0-0.1c0.2-0.5,0.3-1,0.5-1.5c0-0.1,0-0.1,0.1-0.1C10.2,1.4,11.2,1.2,12.3,0.9
		C12.3,0.9,12.3,0.9,12.3,0.9z"/>
</g>
</svg>
