<?xml version="1.0" encoding="utf-8"?>
<!-- Generator: Adobe Illustrator 24.1.0, SVG Export Plug-In . SVG Version: 6.00 Build 0)  -->
<svg version="1.1" id="Layer_1" xmlns="http://www.w3.org/2000/svg" xmlns:xlink="http://www.w3.org/1999/xlink" x="0px" y="0px"
	 viewBox="0 0 84 8" style="enable-background:new 0 0 84 8;" xml:space="preserve">
<style type="text/css">
	.st0{fill:#F2F2F2;}
</style>
<g>
	<path class="st0" d="M3.1,5.2L2.8,7.3H0.7l1.1-6.5h2.8c0.7,0,1.2,0.2,1.6,0.5C6.5,1.5,6.7,2,6.7,2.5c0,0.1,0,0.3,0,0.5
		c0,0.5-0.2,0.8-0.5,1.1C6,4.4,5.7,4.7,5.3,4.9C4.9,5.1,4.4,5.2,3.9,5.2H3.1z M4.7,3c0,0,0-0.1,0-0.2c0-0.3-0.2-0.5-0.6-0.5H3.6
		L3.4,3.6H4C4.4,3.6,4.6,3.4,4.7,3z"/>
	<path class="st0" d="M9.2,2.3L9,3.2h2l-0.3,1.6h-2L8.6,5.7h2.3l-0.3,1.7H6.3l1.1-6.5h4.3l-0.2,1.6C11.5,2.3,9.2,2.3,9.2,2.3z"/>
	<path class="st0" d="M17.6,0.8l-0.3,1.6h-1.7l-0.8,4.9h-2l0.8-4.9h-1.7l0.3-1.7L17.6,0.8L17.6,0.8z"/>
	<path class="st0" d="M19.7,2.3l-0.1,0.8h2l-0.3,1.6h-2l-0.2,0.9h2.3l-0.3,1.7h-4.3L18,0.8h4.3L22,2.3C22,2.3,19.7,2.3,19.7,2.3z"/>
	<path class="st0" d="M27.4,1.2c0.4,0.3,0.6,0.7,0.6,1.3c0,0.2,0,0.3,0,0.4c-0.1,0.5-0.3,0.8-0.6,1.2s-0.7,0.6-1.2,0.7l0.9,2.5h-2.2
		L24.1,5l-0.4,2.3h-2.1l1.1-6.5h3C26.4,0.8,27,1,27.4,1.2z M24.2,3.5h0.8c0.4,0,0.6-0.2,0.7-0.6V2.9c0-0.1,0-0.3-0.1-0.3
		c-0.1-0.1-0.2-0.1-0.4-0.1h-0.8L24.2,3.5z"/>
	<path class="st0" d="M31.5,0.8L32,5.3l2.1-4.5h2.2l-3.3,6.5h-2.7l-1-6.5C29.3,0.8,31.5,0.8,31.5,0.8z"/>
	<path class="st0" d="M38.2,2.3l-0.1,0.8H40l-0.3,1.6h-2l-0.2,0.9h2.3l-0.3,1.7h-4.3l1.1-6.5h4.3l-0.2,1.6H38.2z"/>
	<path class="st0" d="M45.7,1.2c0.4,0.3,0.6,0.7,0.6,1.3c0,0.2,0,0.3,0,0.4c-0.1,0.5-0.3,0.8-0.6,1.2c-0.3,0.4-0.6,0.6-1.1,0.7
		l0.9,2.5h-2.2L42.5,5l-0.4,2.3H40l1.1-6.5h3C44.8,0.8,45.4,1,45.7,1.2z M42.7,3.5h0.8c0.4,0,0.6-0.2,0.7-0.6V2.9
		c0-0.1,0-0.3-0.1-0.3c-0.1-0.1-0.2-0.1-0.4-0.1H43L42.7,3.5z"/>
	<path class="st0" d="M50.3,6.3h-2.2l-0.5,1h-2.1L49,0.8h2.4l1.2,6.5h-2.1L50.3,6.3z M50.1,4.7l-0.3-1.8l-0.9,1.8H50.1z"/>
	<path class="st0" d="M57,6.5c-0.2,0.3-0.6,0.5-0.9,0.6c-0.4,0.2-0.8,0.2-1.3,0.2c-0.8,0-1.5-0.2-1.8-0.6c-0.5-0.4-0.6-0.9-0.6-1.6
		h2.2c0,0.4,0.1,0.6,0.4,0.6c0.1,0,0.2,0,0.3-0.1s0.1-0.2,0.1-0.3c0-0.2-0.1-0.3-0.2-0.4c-0.2-0.1-0.4-0.2-0.6-0.4
		c-0.4-0.2-0.6-0.3-0.8-0.5c-0.2-0.1-0.5-0.4-0.6-0.6c-0.2-0.3-0.3-0.6-0.3-0.9c0-0.1,0-0.3,0-0.5c0.1-0.6,0.4-0.9,0.8-1.2
		c0.5-0.3,1-0.5,1.7-0.5c0.8,0,1.5,0.2,1.8,0.6s0.6,0.9,0.6,1.6h-2.2c0-0.4-0.1-0.6-0.4-0.6c-0.1,0-0.2,0-0.3,0.1
		c-0.1,0.1-0.1,0.2-0.1,0.3c0,0.1,0.1,0.3,0.2,0.4c0.1,0.1,0.4,0.2,0.6,0.3c0.4,0.2,0.6,0.3,0.8,0.4c0.2,0.1,0.5,0.3,0.6,0.6
		s0.3,0.6,0.3,0.9c0,0.1,0,0.3,0,0.5C57.4,5.9,57.2,6.2,57,6.5z"/>
	<path class="st0" d="M63.6,0.8l-0.3,1.6h-1.7l-0.8,4.9h-2l0.8-4.9h-1.7l0.3-1.7L63.6,0.8L63.6,0.8z"/>
	<path class="st0" d="M65.6,2.3l-0.2,0.8h2l-0.3,1.6h-2L65,5.7h2.3L67,7.3h-4.3l1.2-6.6h4.3l-0.3,1.7H65.6z"/>
	<path class="st0" d="M73.1,1c0.4,0.2,0.6,0.5,0.9,0.8c0.2,0.4,0.3,0.7,0.4,1.2h-2.1c-0.1-0.1-0.2-0.2-0.3-0.3
		c-0.1-0.1-0.3-0.1-0.6-0.1c-0.4,0-0.7,0.1-1,0.4c-0.3,0.3-0.5,0.6-0.6,1c0,0.2,0,0.3,0,0.5c0,0.4,0.1,0.6,0.3,0.8
		c0.2,0.2,0.6,0.3,0.9,0.3c0.5,0,0.9-0.2,1.3-0.6h-1.7L71,3.5h3.3l-0.4,2c-0.7,1.2-1.8,1.7-3.4,1.7c-0.6,0-1.1-0.1-1.5-0.4
		c-0.5-0.2-0.7-0.6-0.9-0.9c-0.2-0.4-0.4-0.8-0.4-1.4c0-0.3,0-0.5,0.1-0.7c0.1-0.6,0.4-1.2,0.7-1.7s0.8-0.8,1.4-1.1
		c0.6-0.3,1.2-0.4,1.8-0.4C72.2,0.7,72.7,0.8,73.1,1z"/>
	<path class="st0" d="M77.1,0.8l-0.6,3.7c0,0.1,0,0.2,0,0.3c0,0.2,0.1,0.4,0.2,0.5s0.3,0.2,0.6,0.2c0.3,0,0.6-0.1,0.7-0.3
		c0.2-0.2,0.3-0.4,0.4-0.7l0.6-3.7h2l-0.6,3.7C80,5.1,79.9,5.6,79.5,6c-0.4,0.5-0.7,0.7-1.2,1s-1,0.4-1.6,0.4
		c-0.7,0-1.3-0.2-1.7-0.6s-0.6-0.9-0.6-1.7c0-0.3,0-0.5,0.1-0.7l0.6-3.7H77.1z"/>
	<path class="st0" d="M83.3,0.7l-1.1,6.6h-2l1.1-6.6H83.3z"/>
</g>
</svg>
