<?xml version="1.0" encoding="utf-8"?>
<!-- Generator: Adobe Illustrator 24.1.0, SVG Export Plug-In . SVG Version: 6.00 Build 0)  -->
<svg version="1.1" id="Layer_1" xmlns="http://www.w3.org/2000/svg" xmlns:xlink="http://www.w3.org/1999/xlink" x="0px" y="0px"
	 viewBox="0 0 74 6.9" style="enable-background:new 0 0 74 6.9;" xml:space="preserve">
<style type="text/css">
	.st0{fill:#151515;}
</style>
<g>
	<path class="st0" d="M40.3,3.7c0.2,0,0.3,0,0.4,0.1c0.1,0,0.2,0.1,0.4,0.1c0.2,0.1,0.3,0.2,0.4,0.3c0.1,0.1,0.1,0.2,0.2,0.3
		c0,0.1,0,0.2,0.1,0.3c0,0.2,0,0.5,0,0.7c0,0.2,0,0.5,0,0.7c-0.8,0-1.7,0-2.5,0c0-0.2,0-0.4,0-0.6c0-0.2,0-0.3,0-0.5
		c0,0,0-0.1,0-0.1c-0.1,0-0.2,0-0.4,0c0,0.4,0,0.8,0,1.3c-0.8,0-1.6,0-2.4,0c0-1.8,0-3.5,0-5.3c0,0,0.1,0,0.1,0c1.1,0,2.3,0,3.4,0
		c0.1,0,0.1,0,0.2,0c0.1,0,0.1,0,0.2,0c0.1,0,0.2,0,0.3,0c0.3,0.1,0.5,0.2,0.7,0.4c0.1,0.1,0.2,0.4,0.3,0.6c0.1,0.1,0,0.1,0,0.2
		c0,0.1,0,0.1,0,0.2c0,0.1,0,0.1,0,0.2c0,0.2-0.1,0.5-0.2,0.7c-0.1,0.2-0.2,0.2-0.5,0.3c-0.1,0.1-0.2,0.1-0.3,0.1
		c-0.1,0-0.2,0-0.3,0C40.4,3.6,40.4,3.7,40.3,3.7C40.3,3.7,40.3,3.7,40.3,3.7z M38.9,3.2c0.1,0,0.2,0,0.4,0c0,0,0-0.1,0-0.1
		c0-0.2,0-0.4,0-0.6c0,0,0,0,0,0c-0.1,0-0.2,0-0.4,0C38.9,2.7,38.9,3,38.9,3.2z"/>
	<path class="st0" d="M23.2,3.7c0.2,0,0.3,0,0.4,0.1c0.1,0,0.2,0.1,0.4,0.1c0.1,0.1,0.3,0.1,0.4,0.3c0.1,0.1,0.2,0.3,0.2,0.5
		c0,0.1,0,0.1,0,0.2c0,0.1,0,0.1,0,0.2c0,0.1,0,0.1,0,0.2c0,0.3,0,0.6,0,0.9c-0.8,0-1.6,0-2.5,0c0,0,0-0.1,0-0.1c0-0.3,0-0.7,0-1
		c0-0.1,0-0.1,0-0.2c-0.1,0-0.2,0-0.4,0c0,0.4,0,0.8,0,1.3c-0.8,0-1.6,0-2.4,0c0-1.8,0-3.5,0-5.3c0,0,0.1,0,0.1,0c1.1,0,2.3,0,3.4,0
		c0.1,0,0.1,0,0.2,0c0.1,0,0.1,0,0.2,0c0.1,0,0.2,0,0.2,0.1c0.1,0,0.2,0.1,0.3,0.1c0.2,0.1,0.3,0.2,0.4,0.3c0.1,0.1,0.2,0.3,0.2,0.5
		c0,0,0,0.1,0,0.2c0,0.1,0,0.2,0,0.3c0,0.1,0,0.2,0,0.3c0,0.2-0.1,0.5-0.2,0.7c-0.1,0.1-0.1,0.1-0.2,0.2c-0.1,0.1-0.2,0.1-0.3,0.1
		c-0.1,0-0.2,0.1-0.3,0.1c-0.1,0-0.1,0-0.2,0C23.3,3.6,23.3,3.7,23.2,3.7C23.2,3.7,23.2,3.7,23.2,3.7z M22.2,3.2
		C22.2,3.2,22.2,3.2,22.2,3.2c0-0.3,0-0.5,0-0.7c0,0,0,0,0-0.1c-0.1,0-0.1,0-0.2,0c-0.1,0-0.1,0-0.2,0c0,0.3,0,0.5,0,0.8
		C21.9,3.2,22,3.2,22.2,3.2z"/>
	<path class="st0" d="M68,4.2C68,4.2,68,4.3,68,4.2c0.2,0.1,0.2,0.1,0.3,0.1c0,0,0,0,0,0c0-1.1,0-2.3,0-3.4c0.8,0,1.6,0,2.4,0
		c0,0,0,0,0,0c0,1.1,0,2.2,0,3.3c0,0.2,0,0.3,0,0.5c0,0.1,0,0.1,0,0.2c0,0,0,0.1,0,0.1c0,0,0,0.1,0,0.1c0,0,0,0.1,0,0.1
		c0,0,0,0.1-0.1,0.1c-0.1,0.1-0.1,0.3-0.2,0.4C70.2,5.9,70.1,6,70,6c-0.1,0.1-0.2,0.1-0.4,0.1c-0.1,0-0.2,0-0.3,0.1
		c-0.1,0-0.2,0-0.3,0c-0.1,0-0.2,0-0.3,0c-0.2,0-0.4,0-0.5,0c-0.2,0-0.4,0-0.5,0c-0.1,0-0.2,0-0.2,0c-0.1,0-0.2,0-0.2,0
		c-0.1,0-0.2,0-0.4,0c-0.2,0-0.4-0.1-0.6-0.2c-0.2-0.1-0.3-0.2-0.5-0.5c-0.1-0.1-0.1-0.3-0.1-0.4c0-0.1,0-0.2-0.1-0.3
		c0-0.2,0-0.3,0-0.5c0-0.3,0-0.5,0-0.8c0-0.3,0-0.6,0-0.8c0-0.3,0-0.6,0-0.8s0-0.6,0-0.8c0,0,0-0.1,0-0.1c0.8,0,1.5,0,2.3,0
		C68,1.9,68,3.1,68,4.2z"/>
	<path class="st0" d="M2.9,5.3c0,0.3,0,0.5,0,0.8c-0.8,0-1.6,0-2.3,0c0-0.1,0-4.8,0-5.3c0,0,0.1,0,0.1,0c1.1,0,2.3,0,3.4,0
		c0.1,0,0.1,0,0.2,0c0.1,0,0.1,0,0.2,0c0.1,0,0.2,0,0.3,0.1c0,0,0.1,0,0.1,0C5,1,5.1,1.1,5.2,1.2c0.1,0.1,0.2,0.3,0.3,0.4
		c0,0.1,0.1,0.2,0.1,0.4c0,0.1,0,0.1,0,0.2c0,0.1,0,0.1,0,0.2c0,0.1,0,0.2,0,0.3c0,0.2,0,0.5,0,0.7c0,0.2,0,0.4,0,0.5
		c0,0.2-0.1,0.5-0.2,0.7C5.4,4.8,5.3,4.9,5.1,5C5,5.1,4.8,5.2,4.6,5.2c-0.1,0-0.1,0-0.2,0c-0.1,0-0.1,0-0.2,0c-0.2,0-0.4,0-0.7,0
		C3.4,5.3,3.2,5.3,2.9,5.3C3,5.3,3,5.3,2.9,5.3z M3.3,3.5C3.3,3.4,3.3,3.4,3.3,3.5c0-0.3,0-0.5,0-0.7c0,0,0,0,0,0c0,0,0-0.1,0-0.1
		c-0.1,0-0.2,0-0.3,0C3,3,3,3.2,3,3.5C3.1,3.5,3.2,3.5,3.3,3.5z"/>
	<path class="st0" d="M62.8,4.2C62.8,4.2,62.8,4.2,62.8,4.2c0.2,0.1,0.3,0.1,0.4,0.1c0-0.4,0-0.9,0-1.3c0.7,0,1.4,0,2.2,0
		c0,1,0,2,0,2.9c0,0.1-0.1,0-0.2,0.1c0,0-0.1,0-0.1,0c0,0-0.1,0-0.1,0c-0.1,0-0.2,0-0.2,0c-0.1,0-0.2,0-0.3,0c0,0,0,0,0,0
		c-0.1,0-0.2,0-0.3,0c-0.1,0-0.1,0-0.2,0c-0.1,0-0.1,0-0.2,0c0,0,0,0,0,0c-0.2,0-0.3,0-0.5,0c-0.1,0-0.2,0-0.3,0c-0.1,0-0.2,0-0.3,0
		c-0.2,0-0.3,0-0.5,0c-0.1,0-0.1,0-0.2,0c-0.1,0-0.1,0-0.2,0c-0.1,0-0.2,0-0.2,0c-0.1,0-0.2,0-0.2-0.1c-0.2-0.1-0.4-0.2-0.5-0.4
		c-0.1-0.1-0.2-0.2-0.2-0.4c0-0.1-0.1-0.2-0.1-0.3c0-0.1,0-0.2-0.1-0.4c0-0.2,0-0.3,0-0.5c0-0.5,0-1,0-1.5c0-0.2,0-0.3,0-0.5
		c0-0.1,0-0.2,0.1-0.3c0-0.1,0.1-0.2,0.1-0.3c0.1-0.1,0.1-0.2,0.2-0.3C61,1.1,61.1,1,61.3,0.9c0.1,0,0.2-0.1,0.4-0.1
		c0-0.1,0.1,0,0.2,0c0,0,0.1,0,0.2,0c0,0,0.1,0,0.2,0c0.1,0,0.3,0,0.4,0c0.2,0,0.5,0,0.7,0c0.3,0,0.5,0,0.8,0c0.1,0,0.2,0,0.3,0
		c0,0,0.1,0,0.1,0c0,0,0.1,0,0.1,0c0.1,0,0.2,0,0.2,0c0.1,0,0.2,0,0.3,0.1c0,0,0,0,0.1,0c0,0.6,0,1.2,0,1.8c-0.8,0-1.6,0-2.4,0
		c0,0-0.1,0.1-0.1,0.2C62.8,3.3,62.8,3.7,62.8,4.2z"/>
	<path class="st0" d="M41.9,6.1c0-0.1,0-0.2,0-0.2c0-0.1,0-0.1,0-0.2c0,0,0,0,0,0c0-0.1,0-0.2,0-0.3c0,0,0-0.1,0-0.1
		c0,0,0-0.1,0-0.1c0,0,0,0,0,0c0-0.1,0-0.2,0-0.3c0-0.1,0-0.1,0-0.2c0-0.1,0-0.1,0-0.2c0-0.1,0-0.1,0-0.2c0-0.1,0-0.1,0-0.2
		c0-0.1,0-0.2,0.1-0.4c0-0.1,0-0.1,0-0.2c0-0.1,0-0.1,0-0.2c0-0.1,0-0.1,0-0.2c0-0.1,0-0.1,0-0.2c0,0,0-0.1,0-0.1c0,0,0-0.1,0-0.1
		c0,0,0,0,0,0c0-0.1,0-0.2,0-0.3c0-0.1,0-0.1,0-0.2c0-0.1,0-0.1,0-0.2c0-0.1,0-0.1,0-0.2c0-0.1,0-0.1,0-0.2c0-0.1,0-0.2,0-0.2
		c0-0.1,0-0.1,0-0.2c0-0.1,0-0.1,0-0.2c0,0,0,0,0,0c1.3,0,2.6,0,3.8,0c0,0.1,0,0.2,0,0.2c0,0,0,0.1,0,0.1c0,0,0,0.1,0,0.1
		c0,0,0,0,0,0c0,0.1,0,0.2,0,0.3c0,0,0,0.1,0,0.1c0,0,0,0.1,0,0.2c0,0,0,0.1,0,0.1c0,0.1,0,0.1,0,0.2c0,0.1,0,0.1,0,0.2
		c0,0.1,0,0.1,0,0.2c0,0.1,0,0.1,0,0.2c0,0.1,0,0.1,0,0.2c0,0.1,0,0.1,0,0.2c0,0.1,0,0.1,0,0.2c0,0.1,0,0.1,0,0.2c0,0.1,0,0.1,0,0.2
		c0,0.1,0,0.1,0,0.2c0,0.1,0,0.1,0,0.2c0,0.1,0,0.1,0,0.2c0,0.1,0,0.1,0,0.2c0,0.1,0,0.1,0,0.2c0,0.1,0,0.1,0,0.2c0,0.1,0,0.1,0,0.2
		c0,0.1,0,0.1,0,0.2c0,0.1,0,0.1,0,0.2c0,0.1,0,0.1,0,0.2c0,0.1,0,0.1,0,0.2c0,0,0,0.1,0,0.1c-0.1,0-1.8,0-2.4,0c0-0.1,0-0.2,0-0.3
		c0-0.2,0-0.3,0-0.5c-0.1,0-0.2,0-0.3,0c0,0,0,0,0,0c0,0.2,0,0.5,0,0.7C43.5,6.1,42.7,6.1,41.9,6.1z M44.6,4C44.6,4,44.6,3.9,44.6,4
		c0-0.3,0-0.4,0-0.6c0-0.2,0-0.3,0-0.5c0,0,0-0.1,0-0.1c-0.1,0-0.1,0-0.2,0c0,0.2,0,0.4,0,0.6c0,0.2,0,0.4,0,0.6
		C44.4,4,44.5,4,44.6,4z"/>
	<path class="st0" d="M26.5,0.8c0.3,0,0.6,0,0.9,0c0.5,0,0.9,0,1.4,0c0,0,0.1,0,0.1,0c0,0.1,0,0.3,0,0.4c0,0.1,0,0.2,0,0.4
		c0,0.1,0,0.2,0,0.4c0,0.1,0,0.3,0,0.4c0,0.1,0,0.3,0,0.4c0,0.2,0,0.5,0,0.7c0,0.1,0,0.1,0,0.2c0,0.1,0,0.1,0,0.2c0,0.1,0,0.1,0,0.2
		c0.1,0,0.1,0,0.2,0c0-0.2,0-0.4,0-0.6c0-0.4,0-0.8,0-1.2c0.1-0.3,0-0.5,0-0.8c0-0.3,0-0.5,0-0.8c0,0,0,0,0-0.1c0.8,0,1.6,0,2.4,0
		c0,0,0,0.1,0,0.1c0,0,0,0.1,0,0.1c0,0,0,0,0,0c0,0.1,0,0.2,0,0.3c0,0.1,0,0.1,0,0.2c0,0,0,0.1,0,0.1c0,0,0,0,0,0c0,0.1,0,0.2,0,0.3
		c0,0,0,0.1,0,0.1c0,0,0,0.1,0,0.1c0,0,0,0,0,0c0,0.1,0,0.2,0,0.3c0,0.1,0,0.1,0,0.2c0,0.1,0,0.1,0,0.2c0,0.1,0,0.1,0,0.2
		c0,0.1,0,0.1,0,0.2c0,0.1,0,0.1,0,0.2c0,0.1,0,0.1,0,0.2c0,0.1,0,0.1,0,0.2c0,0.1,0,0.1,0,0.2c0,0.1,0,0.1,0,0.2c0,0.1,0,0.1,0,0.2
		c0,0.1,0,0.1,0,0.2c0,0.1,0,0.1,0,0.2c0,0.1,0,0.1,0,0.2c0,0.1,0,0.1,0,0.2c0,0.1,0,0.1,0,0.2c0,0.1,0,0.1,0,0.2
		c0,0.1,0,0.2-0.1,0.3c-1.3,0-2.6,0-3.9,0c0,0,0-0.1,0-0.1c0-0.1,0-0.1,0-0.2c0-0.1,0-0.1,0-0.2c0,0,0,0,0,0c0-0.1,0-0.2,0-0.3
		c0-0.1,0-0.2,0-0.3c0,0,0,0,0,0c0-0.1,0-0.2,0-0.3c0-0.1,0-0.1,0-0.2c0-0.1,0-0.1,0-0.2c0-0.1,0-0.1,0-0.2c0-0.1,0-0.1,0-0.2
		c0-0.1,0-0.2-0.1-0.3c0-0.1,0-0.1,0-0.2c0-0.1,0-0.1,0-0.2c0,0,0-0.1,0-0.1c0,0,0-0.1,0-0.1c0,0,0,0,0,0c0-0.1,0-0.2,0-0.3
		c0-0.1,0-0.1,0-0.2c0-0.1,0-0.1,0-0.2c0-0.1,0-0.1,0-0.2c0-0.1,0-0.1,0-0.2c0,0,0-0.1,0-0.1c0,0,0-0.1,0-0.1c0,0,0,0,0,0
		c0-0.1,0-0.2,0-0.3c0-0.1,0-0.2,0-0.2C26.5,1,26.5,0.9,26.5,0.8z"/>
	<path class="st0" d="M19,4.1c0,0-0.1,0-0.1,0c-0.5,0-1,0-1.5,0c0,0-0.1,0-0.1,0c0,0.1,0,0.2,0,0.3c0.6,0,1.2,0,1.8,0c0,0,0,0,0,0
		c0,0.5,0,1.1,0,1.6c-1.4,0-2.8,0-4.2,0c0-1.8,0-3.5,0-5.3c1.4,0,2.8,0,4.2,0c0,0.5,0,1.1,0,1.7c-0.6,0-1.2,0-1.8,0
		c0,0.1,0,0.2,0,0.3c0.6,0,1.1,0,1.7,0c0,0,0,0,0,0C19,3.3,19,3.7,19,4.1z"/>
	<path class="st0" d="M36.1,2.5c-0.6,0-1.2,0-1.8,0c0,0.1,0,0.2,0,0.3c0.6,0,1.2,0,1.7,0c0,0,0,0,0,0c0,0.4,0,0.9,0,1.3
		c0,0-0.1,0-0.1,0c-0.5,0-1.1,0-1.6,0c0,0.1,0,0.2,0,0.3c0.6,0,1.2,0,1.8,0c0,0,0,0,0,0c0,0.5,0,1.1,0,1.6c-0.1,0-3.8,0-4.2,0
		c0-1.8,0-3.5,0-5.3c0.1,0,3.7,0,4.2,0C36.1,1.4,36.1,1.9,36.1,2.5z"/>
	<path class="st0" d="M58.3,4.2c0,0.1,0,0.2,0,0.3c0.6,0,1.2,0,1.8,0c0,0,0,0,0,0c0,0.5,0,1.1,0,1.6c-1.4,0-2.8,0-4.2,0c0,0,0,0,0,0
		c0-1.7,0-3.5,0-5.3c0,0,0,0,0,0c1.4,0,2.8,0,4.2,0c0,0.6,0,1.1,0,1.7c-0.6,0-1.2,0-1.8,0c0,0.1,0,0.2,0,0.3c0.6,0,1.2,0,1.8,0
		c0,0.5,0,0.9,0,1.3c0,0,0,0,0,0C59.5,4.2,58.9,4.2,58.3,4.2z"/>
	<path class="st0" d="M8.4,4.2c0,0.1,0,0.2,0,0.3c0.6,0,1.2,0,1.7,0c0,0,0,0,0.1,0.1c0,0.5,0,1.1,0,1.6c-1.4,0-2.8,0-4.2,0
		c0-1.8,0-3.5,0-5.3c0.1,0,3.8,0,4.2,0c0,0.5,0,1.1,0,1.7c-0.6,0-1.2,0-1.8,0c0,0.1,0,0.2,0,0.3c0.6,0,1.2,0,1.7,0
		c0,0.5,0,0.9,0,1.3c0,0,0,0,0,0C9.5,4.2,9,4.2,8.4,4.2z"/>
	<path class="st0" d="M49.2,4.3C49.2,4.3,49.2,4.3,49.2,4.3C49.1,4.2,49,4.2,49,4.2c-0.1,0-0.1,0-0.2,0c-0.1,0-0.2,0-0.3-0.1
		c0,0-0.1,0-0.2,0C48.1,4,48,4,47.7,3.9c-0.2-0.1-0.3-0.2-0.4-0.4c-0.1-0.1-0.1-0.3-0.1-0.4c0-0.1,0-0.1,0-0.2c0-0.2,0-0.3,0-0.5
		c0-0.1,0-0.2,0-0.3c0-0.1,0-0.2,0.1-0.3c0.1-0.2,0.1-0.3,0.2-0.5c0.1-0.1,0.2-0.2,0.3-0.3c0.1,0,0.1-0.1,0.2-0.1
		c0.1-0.1,0.3-0.1,0.4-0.1c0.1,0,0.1,0,0.2,0c0.1,0,0.1,0,0.2,0c0.1,0,0.1,0,0.2,0c0.2,0,0.3,0,0.5,0c0.2,0,0.4,0,0.6,0
		c0.1,0,0.2,0,0.3,0c0.1,0,0.1,0,0.2,0c0.1,0,0.1,0,0.2,0c0.1,0,0.1,0,0.2,0c0,0,0.1,0,0.1,0c0.1,0,0.1,0,0.2,0c0,0.5,0,1.1,0,1.6
		c0,0,0,0,0,0c-0.6,0-1.2,0-1.8,0c0,0,0,0-0.1,0.1c0,0,0,0,0,0.1c0,0,0,0,0.1,0.1c0.1,0,0.2,0,0.3,0.1c0.1,0,0.2,0.1,0.4,0.1
		c0.1,0,0.2,0.1,0.4,0.1c0.1,0,0.1,0.1,0.2,0.1c0.2,0.1,0.3,0.2,0.4,0.3c0.1,0.1,0.2,0.2,0.2,0.3c0,0.1,0,0.2,0.1,0.3c0,0,0,0,0,0
		c0,0.1,0,0.2,0,0.3c0,0.1,0,0.2,0,0.4c0,0.1,0,0.2,0,0.2c-0.1,0.1,0,0.2,0,0.2c0,0.2-0.1,0.3-0.1,0.4c-0.1,0.2-0.2,0.3-0.4,0.4
		C50.8,6,50.6,6,50.5,6.1c-0.1,0-0.2,0.1-0.3,0.1c-0.1,0-0.1,0-0.2,0c-0.1,0-0.1,0-0.2,0c-0.1,0-0.2,0-0.4,0c-0.1,0-0.2,0-0.4,0
		c-0.1,0-0.3,0-0.4,0c-0.1,0-0.1,0-0.2,0c-0.1,0-0.1,0-0.2,0c-0.1,0-0.2,0-0.4-0.1c-0.1,0-0.2,0-0.4-0.1c-0.1,0-0.2,0-0.3-0.1
		c-0.1,0-0.1,0-0.2,0c0-0.5,0-1,0-1.5c0,0,0,0,0,0c0.6,0,1.3,0,1.9,0C49.2,4.4,49.2,4.4,49.2,4.3C49.2,4.3,49.2,4.3,49.2,4.3z"/>
	<path class="st0" d="M14.6,0.8c0,0.7,0,1.3,0,2c-0.3,0-0.6,0-0.9,0c0,0,0,0,0,0c0,0,0,0,0,0c0,1.1,0,2.2,0,3.3c-0.8,0-1.6,0-2.4,0
		c0,0,0,0,0,0c0,0,0,0,0,0c0-1.1,0-2.2,0-3.3c-0.3,0-0.6,0-0.9,0c0-0.1,0-1.5,0-2C11.8,0.8,13.2,0.8,14.6,0.8z"/>
	<path class="st0" d="M54.8,6.1c-0.8,0-1.6,0-2.4,0c0-1.1,0-2.2,0-3.3c0,0,0,0,0,0c0,0,0,0,0,0c-0.3,0-0.6,0-0.8,0c0-0.7,0-1.3,0-2
		c1.4,0,2.7,0,4.1,0c0,0.6,0,1.3,0,1.9c0,0,0,0,0,0c0,0,0,0,0,0c-0.3,0-0.6,0-0.9,0C54.8,3.9,54.8,5,54.8,6.1z"/>
	<path class="st0" d="M71.1,0.8c0.8,0,1.6,0,2.4,0c0,1.8,0,3.5,0,5.3c-0.8,0-1.6,0-2.4,0C71.1,4.4,71.1,2.6,71.1,0.8z"/>
</g>
</svg>
