<?xml version="1.0" encoding="utf-8"?>
<!-- Generator: Adobe Illustrator 24.1.0, SVG Export Plug-In . SVG Version: 6.00 Build 0)  -->
<svg version="1.1" id="Layer_1" xmlns="http://www.w3.org/2000/svg" xmlns:xlink="http://www.w3.org/1999/xlink" x="0px" y="0px"
	 viewBox="0 0 37.3 7.7" style="enable-background:new 0 0 37.3 7.7;" xml:space="preserve">
<style type="text/css">
	.st0{fill:#151515;}
</style>
<path class="st0" d="M28.5,4.1c0.1,0,0.3,0.1,0.3,0.1c0.3,0.1,0.5,0.3,0.6,0.5c0.1,0.2,0,0.4-0.1,0.6c-0.1,0.3-0.3,0.7-0.4,1
	l-0.1,0.1c-0.7,0-1.4,0-2.1,0l0,0c0.1-0.1,0.1-0.2,0.1-0.3c0.1-0.3,0.2-0.5,0.3-0.8c0.1-0.1,0-0.1-0.1-0.1c-0.3,0-0.3,0-0.3,0.2
	c-0.1,0.3-0.3,0.6-0.4,0.9c0,0.1,0,0.1-0.1,0.1c-0.7,0-1.4,0-2.1,0l0,0V6.2c0.6-1.6,1.3-3.1,1.8-4.7c0-0.1,0-0.1,0.1-0.1
	c1.1,0,2.1,0,3.1,0c0.2,0,0.4,0.1,0.6,0.1c0.4,0.1,0.6,0.4,0.5,0.8c-0.1,0.4-0.2,0.8-0.5,1.1C29.5,3.8,29.1,4,28.7,4
	C28.6,4,28.6,4,28.5,4.1C28.5,4,28.5,4,28.5,4.1z M27.3,3.7c0.1,0,0.2,0,0.3,0c0.1,0,0.1-0.1,0.1-0.1C27.8,3.4,27.9,3.2,28,3
	C28,3,28,2.9,28,2.9c-0.1,0-0.1,0-0.2,0c0,0-0.1,0-0.1,0.1C27.5,3.2,27.5,3.5,27.3,3.7z"/>
<path class="st0" d="M6.9,6.3C7.1,6,7.1,5.8,7.2,5.5c0.5-1.3,1.1-2.7,1.6-4c0.1-0.1,0.1-0.1,0.2-0.1c1,0,2,0,2.9,0
	c0.3,0,0.4,0,0.7,0.1c0.3,0.1,0.5,0.3,0.5,0.7c0,0.3-0.1,0.6-0.2,0.8c-0.2,0.4-0.3,0.9-0.6,1.3c-0.3,0.4-0.6,0.8-1.1,1
	c-0.3,0.1-0.6,0.1-0.8,0.1c-0.3,0-0.6,0-0.9,0c-0.1,0-0.1,0-0.1,0.1C9.3,5.8,9.1,6,9.1,6.2C9.1,6.3,9,6.3,9,6.3
	C8.3,6.3,7.7,6.3,6.9,6.3C7,6.3,6.9,6.3,6.9,6.3z M10,3.9c0.1,0,0.2,0,0.3,0c0.1,0,0.1-0.1,0.1-0.1c0.1-0.2,0.1-0.4,0.3-0.6
	c0-0.1,0-0.1-0.1-0.1c-0.1,0-0.1,0-0.2,0c-0.1,0-0.1,0-0.1,0.1c-0.1,0.1-0.2,0.2-0.3,0.4C10.1,3.7,10.1,3.8,10,3.9z"/>
<path class="st0" d="M17.6,1.5c-0.1,0.1-0.1,0.3-0.1,0.4c-0.1,0.3-0.3,0.7-0.4,1c0,0.1-0.1,0.1-0.1,0.1c-0.5,0-1,0-1.5,0
	c-0.1,0-0.1,0-0.1,0.1c0,0.1-0.1,0.1-0.1,0.3c0.5,0,1.1,0,1.6,0c-0.1,0.2-0.1,0.4-0.3,0.6c-0.1,0.2-0.1,0.4-0.2,0.6
	c0,0.1-0.1,0.1-0.1,0.1c-0.5,0-0.9,0-1.4,0c-0.1,0-0.1,0-0.1,0.1c0,0.1-0.1,0.1-0.1,0.3c0.6,0,1.1,0,1.6,0c0,0.1,0,0.1-0.1,0.1
	c-0.2,0.4-0.3,0.9-0.5,1.3c0,0.1-0.1,0.1-0.1,0.1c-1.2,0-2.4,0-3.6,0h-0.1C11.9,6.1,12,6,12.1,5.9c0.6-1.4,1.1-2.9,1.7-4.3
	c0-0.1,0-0.1,0.1-0.1c1.2,0,2.4,0,3.6,0C17.5,1.5,17.5,1.5,17.6,1.5z"/>
<path class="st0" d="M23.3,3.3c0.5,0,1.1,0,1.6,0c-0.1,0.1-0.1,0.3-0.1,0.4c-0.1,0.3-0.2,0.5-0.3,0.8c0,0.1-0.1,0.1-0.1,0.1
	c-0.4,0-0.9,0-1.3,0c-0.2,0-0.1-0.1-0.3,0.1c0,0.1-0.1,0.1-0.1,0.2c0.6,0,1.1,0,1.6,0c0,0.1,0,0.1,0,0.1c-0.2,0.4-0.4,0.9-0.5,1.3
	c0,0.1-0.1,0.1-0.1,0.1c-1.2,0-2.4,0-3.6,0H20c0-0.1,0.1-0.2,0.1-0.3c0.6-1.4,1.1-2.9,1.7-4.3c0.1-0.1,0.1-0.1,0.2-0.1
	c1.2,0,2.4,0,3.6,0h0.1v0.1c-0.2,0.4-0.4,0.9-0.5,1.4C25.2,3,25.1,3,25.1,3c-0.5,0-1,0-1.5,0c-0.1,0-0.1,0-0.1,0.1
	C23.4,3.1,23.4,3.2,23.3,3.3z"/>
<path class="st0" d="M21.6,1.5c-0.1,0.1-0.1,0.3-0.1,0.4c-0.2,0.4-0.3,0.9-0.5,1.3c0,0.1-0.1,0.1-0.1,0.1c-0.2,0-0.4,0-0.6,0
	c-0.1,0-0.1,0-0.1,0.1c-0.4,0.9-0.8,1.9-1.1,2.9c0,0.1-0.1,0.1-0.1,0.1c-0.6,0-1.3,0-1.9,0h-0.1c0.4-1,0.8-2,1.2-3.1
	c-0.3,0-0.5,0-0.8,0c0-0.1,0-0.1,0.1-0.1c0.2-0.5,0.4-1.1,0.6-1.6c-0.1,0.1-0.1,0.1,0,0.1c1.2,0,2.4,0,3.6,0
	C21.6,1.5,21.6,1.5,21.6,1.5z"/>
</svg>
