<svg width="32" height="32" viewBox="0 0 32 32" fill="none" xmlns="http://www.w3.org/2000/svg">
<path fill-rule="evenodd" clip-rule="evenodd" d="M30.2095 1.9251C30.9534 2.66896 30.9534 3.87499 30.2095 4.61884L4.619 30.2094C3.87514 30.9532 2.66911 30.9532 1.92526 30.2094C1.1814 29.4655 1.1814 28.2595 1.92526 27.5156L27.5158 1.9251C28.2596 1.18125 29.4657 1.18125 30.2095 1.9251Z" fill="#D402F5"/>
<path fill-rule="evenodd" clip-rule="evenodd" d="M1.92535 1.79047C2.6692 1.04662 3.87523 1.04662 4.61909 1.79047L30.2096 27.381C30.9535 28.1249 30.9535 29.3309 30.2096 30.0747C29.4658 30.8186 28.2597 30.8186 27.5159 30.0747L1.92535 4.48421C1.18149 3.74036 1.18149 2.53433 1.92535 1.79047Z" fill="#D402F5"/>
</svg>
